999
DXF created from myself (Fortunato Siano)
0
SECTION
2
ENTITIES
0
LINE
8
MAXSPINTA
62
101
48
2.939663202780656
10
0.0
20
0.0
30
2.61
11
0.15
21
0.0
31
2.7996309774933703
0
LINE
8
MINSPINTA
62
61
48
2.133940020503655
10
0.0
20
0.0
30
1.836996198582246e-15
11
0.15
21
0.0
31
2.604276574050333
0
LINE
8
MEDIONETWORK
62
81
48
2.3849921494988977
10
0.0
20
0.0
30
0.0
11
0.15
21
0.0
31
2.3939302574384547
0
LINE
8
ASSE
62
253
10
0.0
20
0.0
30
1.305
11
0.15
21
0.0
31
2.415
0
LINE
8
INTRADOSSO
62
256
10
0.0
20
0.0
30
0.0
11
0.15
21
0.0
31
2.005
0
LINE
8
ESTRADOSSO
62
256
10
0.0
20
0.0
30
2.61
11
0.15
21
0.0
31
2.825
0
LINE
8
MAXSPINTA
62
81
48
2.6775594199078774
10
0.15
20
0.0
30
2.7996309774933703
11
0.3
21
0.0
31
2.895851410070699
0
LINE
8
MINSPINTA
62
41
48
1.3857259843768186
10
0.15
20
0.0
30
2.604276574050333
11
0.3
21
0.0
31
2.9491420427344313
0
LINE
8
MEDIONETWORK
62
41
48
1.6272268203904536
10
0.15
20
0.0
30
2.3939302574384547
11
0.3
21
0.0
31
2.787787452795216
0
LINE
8
ASSE
62
253
10
0.15
20
0.0
30
2.415
11
0.3
21
0.0
31
2.765
0
LINE
8
INTRADOSSO
62
256
10
0.15
20
0.0
30
2.005
11
0.3
21
0.0
31
2.54
0
LINE
8
ESTRADOSSO
62
256
10
0.15
20
0.0
30
2.825
11
0.3
21
0.0
31
2.99
0
LINE
8
MAXSPINTA
62
81
48
2.6800122656058987
10
0.3
20
0.0
30
2.895851410070699
11
0.45
21
0.0
31
2.9503840933559746
0
LINE
8
MINSPINTA
62
21
48
1.1032456901607375
10
0.3
20
0.0
30
2.9491420427344313
11
0.45
21
0.0
31
3.085
0
LINE
8
MEDIONETWORK
62
21
48
1.3014723123863918
10
0.3
20
0.0
30
2.787787452795216
11
0.45
21
0.0
31
2.963807335537024
0
LINE
8
ASSE
62
253
10
0.3
20
0.0
30
2.765
11
0.45
21
0.0
31
2.895
0
LINE
8
INTRADOSSO
62
256
10
0.3
20
0.0
30
2.54
11
0.45
21
0.0
31
2.705
0
LINE
8
ESTRADOSSO
62
256
10
0.3
20
0.0
30
2.99
11
0.45
21
0.0
31
3.085
0
LINE
8
MAXSPINTA
62
101
48
2.761181132574964
10
0.45
20
0.0
30
2.9503840933559746
11
0.6
21
0.0
31
2.9800465336724318
0
LINE
8
MINSPINTA
62
21
48
1.0702526642075336
10
0.45
20
0.0
30
3.085
11
0.6
21
0.0
31
3.138663187788764
0
LINE
8
MEDIONETWORK
62
21
48
1.200897662511276
10
0.45
20
0.0
30
2.963807335537024
11
0.6
21
0.0
31
3.0523566347851014
0
LINE
8
ASSE
62
253
10
0.45
20
0.0
30
2.895
11
0.6
21
0.0
31
2.995
0
LINE
8
INTRADOSSO
62
256
10
0.45
20
0.0
30
2.705
11
0.6
21
0.0
31
2.825
0
LINE
8
ESTRADOSSO
62
256
10
0.45
20
0.0
30
3.085
11
0.6
21
0.0
31
3.165
0
LINE
8
MAXSPINTA
62
101
48
2.8601714915080443
10
0.6
20
0.0
30
2.9800465336724318
11
0.75
21
0.0
31
2.9935057336941178
0
LINE
8
MINSPINTA
62
21
48
1.150521326796789
10
0.6
20
0.0
30
3.138663187788764
11
0.75
21
0.0
31
3.1491753350934015
0
LINE
8
MEDIONETWORK
62
21
48
1.2197522814510386
10
0.6
20
0.0
30
3.0523566347851014
11
0.75
21
0.0
31
3.0945677664059583
0
LINE
8
ASSE
62
253
10
0.6
20
0.0
30
2.995
11
0.75
21
0.0
31
3.065
0
LINE
8
INTRADOSSO
62
256
10
0.6
20
0.0
30
2.825
11
0.75
21
0.0
31
2.895
0
LINE
8
ESTRADOSSO
62
256
10
0.6
20
0.0
30
3.165
11
0.75
21
0.0
31
3.235
0
LINE
8
MAXSPINTA
62
101
48
2.9589406180375977
10
0.75
20
0.0
30
2.9935057336941178
11
0.9
21
0.0
31
2.995309230196531
0
LINE
8
MINSPINTA
62
21
48
1.2654336596836708
10
0.75
20
0.0
30
3.1491753350934015
11
0.9
21
0.0
31
3.1325222097483247
0
LINE
8
MEDIONETWORK
62
21
48
1.2888804419579356
10
0.75
20
0.0
30
3.0945677664059583
11
0.9
21
0.0
31
3.10745816122385
0
LINE
8
ASSE
62
253
10
0.75
20
0.0
30
3.065
11
0.9
21
0.0
31
3.105
0
LINE
8
INTRADOSSO
62
256
10
0.75
20
0.0
30
2.895
11
0.9
21
0.0
31
2.95
0
LINE
8
ESTRADOSSO
62
256
10
0.75
20
0.0
30
3.235
11
0.9
21
0.0
31
3.26
0
LINE
8
MAXSPINTA
62
101
48
3.046695197342184
10
0.9
20
0.0
30
2.995309230196531
11
1.05
21
0.0
31
2.9886829076783314
0
LINE
8
MINSPINTA
62
41
48
1.377956208298719
10
0.9
20
0.0
30
3.1325222097483247
11
1.05
21
0.0
31
3.0979262010065303
0
LINE
8
MEDIONETWORK
62
41
48
1.3704480851060352
10
0.9
20
0.0
30
3.10745816122385
11
1.05
21
0.0
31
3.1009184134710663
0
LINE
8
ASSE
62
253
10
0.9
20
0.0
30
3.105
11
1.05
21
0.0
31
3.125
0
LINE
8
INTRADOSSO
62
256
10
0.9
20
0.0
30
2.95
11
1.05
21
0.0
31
2.975
0
LINE
8
ESTRADOSSO
62
256
10
0.9
20
0.0
30
3.26
11
1.05
21
0.0
31
3.275
0
LINE
8
MAXSPINTA
62
101
48
3.1316753141602525
10
1.05
20
0.0
30
2.9886829076783314
11
1.2
21
0.0
31
2.975
0
LINE
8
MINSPINTA
62
41
48
1.490382516845551
10
1.05
20
0.0
30
3.0979262010065303
11
1.2
21
0.0
31
3.049284954662246
0
LINE
8
MEDIONETWORK
62
41
48
1.4592979350020714
10
1.05
20
0.0
30
3.1009184134710663
11
1.2
21
0.0
31
3.0791338063136613
0
LINE
8
ASSE
62
253
10
1.05
20
0.0
30
3.125
11
1.2
21
0.0
31
3.125
0
LINE
8
INTRADOSSO
62
256
10
1.05
20
0.0
30
2.975
11
1.2
21
0.0
31
2.975
0
LINE
8
ESTRADOSSO
62
256
10
1.05
20
0.0
30
3.275
11
1.2
21
0.0
31
3.275
0
LINE
8
MAXSPINTA
62
121
48
3.2231504328032616
10
1.2
20
0.0
30
2.975
11
1.35
21
0.0
31
2.9545918452164726
0
LINE
8
MINSPINTA
62
41
48
1.6124497312024253
10
1.2
20
0.0
30
3.049284954662246
11
1.35
21
0.0
31
2.9880098196663365
0
LINE
8
MEDIONETWORK
62
41
48
1.5611689644479652
10
1.2
20
0.0
30
3.0791338063136613
11
1.35
21
0.0
31
3.0436095648754353
0
LINE
8
ASSE
62
253
10
1.2
20
0.0
30
3.125
11
1.35
21
0.0
31
3.105
0
LINE
8
INTRADOSSO
62
256
10
1.2
20
0.0
30
2.975
11
1.35
21
0.0
31
2.95
0
LINE
8
ESTRADOSSO
62
256
10
1.2
20
0.0
30
3.275
11
1.35
21
0.0
31
3.26
0
LINE
8
MAXSPINTA
62
121
48
3.3339977244390355
10
1.35
20
0.0
30
2.9545918452164726
11
1.5
21
0.0
31
2.9269335929744003
0
LINE
8
MINSPINTA
62
41
48
1.759909701794369
10
1.35
20
0.0
30
2.9880098196663365
11
1.5
21
0.0
31
2.913868314170758
0
LINE
8
MEDIONETWORK
62
41
48
1.6893798754936173
10
1.35
20
0.0
30
3.0436095648754353
11
1.5
21
0.0
31
2.994066825482544
0
LINE
8
ASSE
62
253
10
1.35
20
0.0
30
3.105
11
1.5
21
0.0
31
3.065
0
LINE
8
INTRADOSSO
62
256
10
1.35
20
0.0
30
2.95
11
1.5
21
0.0
31
2.895
0
LINE
8
ESTRADOSSO
62
256
10
1.35
20
0.0
30
3.26
11
1.5
21
0.0
31
3.235
0
LINE
8
MAXSPINTA
62
121
48
3.4876143769217594
10
1.5
20
0.0
30
2.9269335929744003
11
1.65
21
0.0
31
2.890432627775913
0
LINE
8
MINSPINTA
62
61
48
1.9616662524421151
10
1.5
20
0.0
30
2.913868314170758
11
1.65
21
0.0
31
2.825
0
LINE
8
MEDIONETWORK
62
61
48
1.870998534368335
10
1.5
20
0.0
30
2.994066825482544
11
1.65
21
0.0
31
2.9284462163235405
0
LINE
8
ASSE
62
253
10
1.5
20
0.0
30
3.065
11
1.65
21
0.0
31
2.995
0
LINE
8
INTRADOSSO
62
256
10
1.5
20
0.0
30
2.895
11
1.65
21
0.0
31
2.825
0
LINE
8
ESTRADOSSO
62
256
10
1.5
20
0.0
30
3.235
11
1.65
21
0.0
31
3.165
0
LINE
8
MAXSPINTA
62
141
48
3.697599124026956
10
1.65
20
0.0
30
2.890432627775913
11
1.8
21
0.0
31
2.843474445345348
0
LINE
8
MINSPINTA
62
61
48
2.2313341577193024
10
1.65
20
0.0
30
2.825
11
1.8
21
0.0
31
2.7199521803068873
0
LINE
8
MEDIONETWORK
62
61
48
2.121014696923157
10
1.65
20
0.0
30
2.9284462163235405
11
1.8
21
0.0
31
2.8451218447930597
0
LINE
8
ASSE
62
253
10
1.65
20
0.0
30
2.995
11
1.8
21
0.0
31
2.895
0
LINE
8
INTRADOSSO
62
256
10
1.65
20
0.0
30
2.825
11
1.8
21
0.0
31
2.705
0
LINE
8
ESTRADOSSO
62
256
10
1.65
20
0.0
30
3.165
11
1.8
21
0.0
31
3.085
0
LINE
8
MAXSPINTA
62
141
48
4.004188653184809
10
1.8
20
0.0
30
2.843474445345348
11
1.95
21
0.0
31
2.783583427721948
0
LINE
8
MINSPINTA
62
81
48
2.6128634338542924
10
1.8
20
0.0
30
2.7199521803068873
11
1.95
21
0.0
31
2.5965376490248544
0
LINE
8
MEDIONETWORK
62
81
48
2.483319136891314
10
1.8
20
0.0
30
2.8451218447930597
11
1.95
21
0.0
31
2.741649609917659
0
LINE
8
ASSE
62
253
10
1.8
20
0.0
30
2.895
11
1.95
21
0.0
31
2.765
0
LINE
8
INTRADOSSO
62
256
10
1.8
20
0.0
30
2.705
11
1.95
21
0.0
31
2.54
0
LINE
8
ESTRADOSSO
62
256
10
1.8
20
0.0
30
3.085
11
1.95
21
0.0
31
2.99
0
LINE
8
MAXSPINTA
62
161
48
4.464312967072149
10
1.95
20
0.0
30
2.783583427721948
11
2.1
21
0.0
31
2.7077142571581208
0
LINE
8
MINSPINTA
62
101
48
3.1635412451189486
10
1.95
20
0.0
30
2.5965376490248544
11
2.1
21
0.0
31
2.4526123491095917
0
LINE
8
MEDIONETWORK
62
101
48
3.01607352405584
10
1.95
20
0.0
30
2.741649609917659
11
2.1
21
0.0
31
2.6156133788109126
0
LINE
8
ASSE
62
253
10
1.95
20
0.0
30
2.765
11
2.1
21
0.0
31
2.415
0
LINE
8
INTRADOSSO
62
256
10
1.95
20
0.0
30
2.54
11
2.1
21
0.0
31
2.005
0
LINE
8
ESTRADOSSO
62
256
10
1.95
20
0.0
30
2.99
11
2.1
21
0.0
31
2.825
0
LINE
8
MAXSPINTA
62
201
48
5.267628842607856
10
2.1
20
0.0
30
2.7077142571581208
11
2.25
21
0.0
31
2.61
0
LINE
8
MINSPINTA
62
141
48
4.0822209849621185
10
2.1
20
0.0
30
2.4526123491095917
11
2.25
21
0.0
31
2.2839321087388016
0
LINE
8
MEDIONETWORK
62
141
48
3.917363418539759
10
2.1
20
0.0
30
2.6156133788109126
11
2.25
21
0.0
31
2.4622535479300884
0
LINE
8
ASSE
62
253
10
2.1
20
0.0
30
2.415
11
2.25
21
0.0
31
1.305
0
LINE
8
INTRADOSSO
62
256
10
2.1
20
0.0
30
2.005
11
2.25
21
0.0
31
0.0
0
LINE
8
ESTRADOSSO
62
256
10
2.1
20
0.0
30
2.825
11
2.25
21
0.0
31
2.61
0
POINT
8
EXT
10
0.0
20
0.0
30
0.0
0
TEXT
8
ID-NODES
10
0.0
20
0.0
30
0.0
40
0.15
1
1
0
LINE
8
fz
62
7
10
0.0
20
0.0
30
2.61
11
0.0
21
0.0
31
6.55
0
POINT
8
X1
10
0.15
20
0.0
30
2.005
0
TEXT
8
ID-NODES
10
0.15
20
0.0
30
2.005
40
0.15
1
2
0
LINE
8
fz
62
7
10
0.15
20
0.0
30
2.825
11
0.15
21
0.0
31
4.545
0
POINT
8
X1
10
0.3
20
0.0
30
2.54
0
TEXT
8
ID-NODES
10
0.3
20
0.0
30
2.54
40
0.15
1
3
0
LINE
8
fz
62
7
10
0.3
20
0.0
30
2.99
11
0.3
21
0.0
31
4.050000000000001
0
POINT
8
X1
10
0.45
20
0.0
30
2.705
0
TEXT
8
ID-NODES
10
0.45
20
0.0
30
2.705
40
0.15
1
4
0
LINE
8
fz
62
7
10
0.45
20
0.0
30
3.085
11
0.45
21
0.0
31
3.8449999999999998
0
POINT
8
X1
10
0.6
20
0.0
30
2.825
0
TEXT
8
ID-NODES
10
0.6
20
0.0
30
2.825
40
0.15
1
5
0
LINE
8
fz
62
7
10
0.6
20
0.0
30
3.165
11
0.6
21
0.0
31
3.725
0
POINT
8
X1
10
0.75
20
0.0
30
2.895
0
TEXT
8
ID-NODES
10
0.75
20
0.0
30
2.895
40
0.15
1
6
0
LINE
8
fz
62
7
10
0.75
20
0.0
30
3.235
11
0.75
21
0.0
31
3.675
0
POINT
8
X1
10
0.9
20
0.0
30
2.95
0
TEXT
8
ID-NODES
10
0.9
20
0.0
30
2.95
40
0.15
1
7
0
LINE
8
fz
62
7
10
0.9
20
0.0
30
3.26
11
0.9
21
0.0
31
3.5999999999999996
0
POINT
8
X1
10
1.05
20
0.0
30
2.975
0
TEXT
8
ID-NODES
10
1.05
20
0.0
30
2.975
40
0.15
1
8
0
LINE
8
fz
62
7
10
1.05
20
0.0
30
3.275
11
1.05
21
0.0
31
3.5749999999999997
0
POINT
8
X1
10
1.2
20
0.0
30
2.975
0
TEXT
8
ID-NODES
10
1.2
20
0.0
30
2.975
40
0.15
1
9
0
LINE
8
fz
62
7
10
1.2
20
0.0
30
3.275
11
1.2
21
0.0
31
3.5749999999999997
0
POINT
8
X1
10
1.35
20
0.0
30
2.95
0
TEXT
8
ID-NODES
10
1.35
20
0.0
30
2.95
40
0.15
1
10
0
LINE
8
fz
62
7
10
1.35
20
0.0
30
3.26
11
1.35
21
0.0
31
3.5999999999999996
0
POINT
8
X1
10
1.5
20
0.0
30
2.895
0
TEXT
8
ID-NODES
10
1.5
20
0.0
30
2.895
40
0.15
1
11
0
LINE
8
fz
62
7
10
1.5
20
0.0
30
3.235
11
1.5
21
0.0
31
3.675
0
POINT
8
X1
10
1.65
20
0.0
30
2.825
0
TEXT
8
ID-NODES
10
1.65
20
0.0
30
2.825
40
0.15
1
12
0
LINE
8
fz
62
7
10
1.65
20
0.0
30
3.165
11
1.65
21
0.0
31
3.725
0
POINT
8
X1
10
1.8
20
0.0
30
2.705
0
TEXT
8
ID-NODES
10
1.8
20
0.0
30
2.705
40
0.15
1
13
0
LINE
8
fz
62
7
10
1.8
20
0.0
30
3.085
11
1.8
21
0.0
31
3.8449999999999998
0
POINT
8
X1
10
1.95
20
0.0
30
2.54
0
TEXT
8
ID-NODES
10
1.95
20
0.0
30
2.54
40
0.15
1
14
0
LINE
8
fz
62
7
10
1.95
20
0.0
30
2.99
11
1.95
21
0.0
31
4.050000000000001
0
POINT
8
X1
10
2.1
20
0.0
30
2.005
0
TEXT
8
ID-NODES
10
2.1
20
0.0
30
2.005
40
0.15
1
15
0
LINE
8
fz
62
7
10
2.1
20
0.0
30
2.825
11
2.1
21
0.0
31
4.545
0
POINT
8
EXT
10
2.25
20
0.0
30
0.0
0
TEXT
8
ID-NODES
10
2.25
20
0.0
30
0.0
40
0.15
1
16
0
LINE
8
fz
62
7
10
2.25
20
0.0
30
2.61
11
2.25
21
0.0
31
6.55
0
ENDSEC
0
EOF
