999
DXF created from myself (Fortunato Siano)
0
SECTION
2
ENTITIES
0
LINE
8
MAXSPINTA
62
101
48
65.31731780378912
10
-2.5
20
-2.5
30
1.2609519999999996
11
-2.377641
21
-2.377641
31
1.4669164496418872
0
LINE
8
MINSPINTA
62
81
48
42.844216388187256
10
-2.5
20
-2.5
30
0.28809957754805415
11
-2.377641
21
-2.377641
31
0.8178411083924604
0
LINE
8
MEDIONETWORK
62
101
48
54.84325733530777
10
-2.5
20
-2.5
30
0.7132504508506474
11
-2.377641
21
-2.377641
31
1.10529518192221
0
LINE
8
ASSE
62
253
10
-2.5
20
-2.5
30
0.630476
11
-2.377641
21
-2.377641
31
1.1256665
0
LINE
8
INTRADOSSO
62
256
10
-2.5
20
-2.5
30
0.0
11
-2.377641
21
-2.377641
31
0.772542
0
LINE
8
ESTRADOSSO
62
256
10
-2.5
20
-2.5
30
1.260952
11
-2.377641
21
-2.377641
31
1.478791
0
LINE
8
MAXSPINTA
62
181
48
117.39691429743863
10
-2.377641
20
-2.377641
30
1.4669164496418872
11
-2.022542
21
-2.022542
31
1.9267730159413818
0
LINE
8
MINSPINTA
62
81
48
51.091587924402525
10
-2.377641
20
-2.377641
30
0.8178411083924604
11
-2.022542
21
-2.022542
31
1.6076360317559486
0
LINE
8
MEDIONETWORK
62
121
48
75.13364110817226
10
-2.377641
20
-2.377641
30
1.10529518192221
11
-2.022542
21
-2.022542
31
1.7621222643255685
0
LINE
8
ASSE
62
253
10
-2.377641
20
-2.377641
30
1.1256665
11
-2.022542
21
-2.022542
31
1.70289
0
LINE
8
INTRADOSSO
62
256
10
-2.377641
20
-2.377641
30
0.772542
11
-2.022542
21
-2.022542
31
1.469463
0
LINE
8
ESTRADOSSO
62
256
10
-2.377641
20
-2.377641
30
1.478791
11
-2.022542
21
-2.022542
31
1.936317
0
LINE
8
MAXSPINTA
62
141
48
82.59899657563524
10
-2.022542
20
-2.022542
30
1.9267730159413818
11
-1.469463
21
-1.469463
31
2.2815912566913368
0
LINE
8
MINSPINTA
62
61
48
31.217718927444224
10
-2.022542
20
-2.022542
30
1.6076360317559486
11
-1.469463
21
-1.469463
31
2.2704124019339313
0
LINE
8
MEDIONETWORK
62
81
48
47.28652251420658
10
-2.022542
20
-2.022542
30
1.7621222643255685
11
-1.469463
21
-1.469463
31
2.270529645010728
0
LINE
8
ASSE
62
253
10
-2.022542
20
-2.022542
30
1.70289
11
-1.469463
21
-1.469463
31
2.2029795
0
LINE
8
INTRADOSSO
62
256
10
-2.022542
20
-2.022542
30
1.469463
11
-1.469463
21
-1.469463
31
2.022542
0
LINE
8
ESTRADOSSO
62
256
10
-2.022542
20
-2.022542
30
1.936317
11
-1.469463
21
-1.469463
31
2.383417
0
LINE
8
MAXSPINTA
62
121
48
68.5003174887686
10
-1.469463
20
-1.469463
30
2.2815912566913368
11
-0.772542
21
-0.772542
31
2.4639687279832527
0
LINE
8
MINSPINTA
62
41
48
23.0280926860421
10
-1.469463
20
-1.469463
30
2.2704124019339313
11
-0.772542
21
-0.772542
31
2.6718369208137758
0
LINE
8
MEDIONETWORK
62
61
48
36.93511377638655
10
-1.469463
20
-1.469463
30
2.270529645010728
11
-0.772542
21
-0.772542
31
2.5533789162782425
0
LINE
8
ASSE
62
253
10
-1.469463
20
-1.469463
30
2.2029795
11
-0.772542
21
-0.772542
31
2.534478
0
LINE
8
INTRADOSSO
62
256
10
-1.469463
20
-1.469463
30
2.022542
11
-0.772542
21
-0.772542
31
2.377641
0
LINE
8
ESTRADOSSO
62
256
10
-1.469463
20
-1.469463
30
2.383417
11
-0.772542
21
-0.772542
31
2.691315
0
LINE
8
MAXSPINTA
62
101
48
62.14769734064025
10
-0.772542
20
-0.772542
30
2.4639687279832527
11
-0.0
21
0.0
31
2.5000000000000004
0
LINE
8
MINSPINTA
62
41
48
19.739569443727174
10
-0.772542
20
-0.772542
30
2.6718369208137758
11
-0.0
21
0.0
31
2.7658083771450124
0
LINE
8
MEDIONETWORK
62
61
48
32.789954539183476
10
-0.772542
20
-0.772542
30
2.5533789162782425
11
-0.0
21
0.0
31
2.6145585178985766
0
LINE
8
ASSE
62
253
10
-0.772542
20
-0.772542
30
2.534478
11
-0.0
21
0.0
31
2.65
0
LINE
8
INTRADOSSO
62
256
10
-0.772542
20
-0.772542
30
2.377641
11
-0.0
21
0.0
31
2.5
0
LINE
8
ESTRADOSSO
62
256
10
-0.772542
20
-0.772542
30
2.691315
11
-0.0
21
0.0
31
2.8
0
LINE
8
MAXSPINTA
62
61
48
32.24829169246858
10
-2.5
20
-2.5
30
1.2609519999999996
11
-2.5
21
-2.377641
31
1.4003767716463065
0
LINE
8
MINSPINTA
62
61
48
27.502831758733322
10
-2.5
20
-2.5
30
0.28809957754805415
11
-2.5
21
-2.377641
31
0.772542
0
LINE
8
MEDIONETWORK
62
61
48
32.98755073603693
10
-2.5
20
-2.5
30
0.7132504508506474
11
-2.5
21
-2.377641
31
1.0518338356681158
0
LINE
8
ASSE
62
253
10
-2.5
20
-2.5
30
0.630476
11
-2.5
21
-2.377641
31
1.1256665
0
LINE
8
INTRADOSSO
62
256
10
-2.5
20
-2.5
30
0.0
11
-2.5
21
-2.377641
31
0.772542
0
LINE
8
ESTRADOSSO
62
256
10
-2.5
20
-2.5
30
1.260952
11
-2.5
21
-2.377641
31
1.478791
0
LINE
8
MAXSPINTA
62
61
48
35.583973159896544
10
-2.5
20
-2.377641
30
1.4003767716463065
11
-2.5
21
-2.022542
31
1.8765896783372218
0
LINE
8
MINSPINTA
62
41
48
14.835267687024725
10
-2.5
20
-2.377641
30
0.772542
11
-2.5
21
-2.022542
31
1.469463
0
LINE
8
MEDIONETWORK
62
41
48
23.427040627047145
10
-2.5
20
-2.377641
30
1.0518338356681158
11
-2.5
21
-2.022542
31
1.7033405565979374
0
LINE
8
ASSE
62
253
10
-2.5
20
-2.377641
30
1.1256665
11
-2.5
21
-2.022542
31
1.70289
0
LINE
8
INTRADOSSO
62
256
10
-2.5
20
-2.377641
30
0.772542
11
-2.5
21
-2.022542
31
1.469463
0
LINE
8
ESTRADOSSO
62
256
10
-2.5
20
-2.377641
30
1.478791
11
-2.5
21
-2.022542
31
1.936317
0
LINE
8
MAXSPINTA
62
61
48
26.781607189701464
10
-2.5
20
-2.022542
30
1.8765896783372218
11
-2.5
21
-1.469463
31
2.299687571956614
0
LINE
8
MINSPINTA
62
21
48
9.524828475993504
10
-2.5
20
-2.022542
30
1.469463
11
-2.5
21
-1.469463
31
2.022542
0
LINE
8
MEDIONETWORK
62
41
48
15.043094534745299
10
-2.5
20
-2.022542
30
1.7033405565979374
11
-2.5
21
-1.469463
31
2.1981189568837043
0
LINE
8
ASSE
62
253
10
-2.5
20
-2.022542
30
1.70289
11
-2.5
21
-1.469463
31
2.2029795
0
LINE
8
INTRADOSSO
62
256
10
-2.5
20
-2.022542
30
1.469463
11
-2.5
21
-1.469463
31
2.022542
0
LINE
8
ESTRADOSSO
62
256
10
-2.5
20
-2.022542
30
1.936317
11
-2.5
21
-1.469463
31
2.383417
0
LINE
8
MAXSPINTA
62
41
48
23.00651969143364
10
-2.5
20
-1.469463
30
2.299687571956614
11
-2.5
21
-0.772542
31
2.5868713040279396
0
LINE
8
MINSPINTA
62
21
48
7.558946739149469
10
-2.5
20
-1.469463
30
2.022542
11
-2.5
21
-0.772542
31
2.377641
0
LINE
8
MEDIONETWORK
62
21
48
12.48555478553787
10
-2.5
20
-1.469463
30
2.1981189568837043
11
-2.5
21
-0.772542
31
2.539664998263479
0
LINE
8
ASSE
62
253
10
-2.5
20
-1.469463
30
2.2029795
11
-2.5
21
-0.772542
31
2.534478
0
LINE
8
INTRADOSSO
62
256
10
-2.5
20
-1.469463
30
2.022542
11
-2.5
21
-0.772542
31
2.377641
0
LINE
8
ESTRADOSSO
62
256
10
-2.5
20
-1.469463
30
2.383417
11
-2.5
21
-0.772542
31
2.691315
0
LINE
8
MAXSPINTA
62
41
48
21.45435255150361
10
-2.5
20
-0.772542
30
2.5868713040279396
11
-2.5
21
0.0
31
2.6884400404274476
0
LINE
8
MINSPINTA
62
21
48
6.819024811265252
10
-2.5
20
-0.772542
30
2.377641
11
-2.5
21
0.0
31
2.5
0
LINE
8
MEDIONETWORK
62
21
48
11.345789191153955
10
-2.5
20
-0.772542
30
2.539664998263479
11
-2.5
21
0.0
31
2.659566639818737
0
LINE
8
ASSE
62
253
10
-2.5
20
-0.772542
30
2.534478
11
-2.5
21
0.0
31
2.65
0
LINE
8
INTRADOSSO
62
256
10
-2.5
20
-0.772542
30
2.377641
11
-2.5
21
0.0
31
2.5
0
LINE
8
ESTRADOSSO
62
256
10
-2.5
20
-0.772542
30
2.691315
11
-2.5
21
0.0
31
2.8
0
LINE
8
MAXSPINTA
62
81
48
45.945247019473186
10
-2.022542
20
-2.022542
30
1.9267730159413818
11
-2.022542
21
-1.469463
31
2.253941423214067
0
LINE
8
MINSPINTA
62
41
48
17.241935404716873
10
-2.022542
20
-2.022542
30
1.6076360317559486
11
-2.022542
21
-1.469463
31
2.131247417084779
0
LINE
8
MEDIONETWORK
62
41
48
26.58536005248403
10
-2.022542
20
-2.022542
30
1.7621222643255685
11
-2.022542
21
-1.469463
31
2.2000429298347197
0
LINE
8
ASSE
62
253
10
-2.022542
20
-2.022542
30
1.70289
11
-2.022542
21
-1.469463
31
2.2029795
0
LINE
8
INTRADOSSO
62
256
10
-2.022542
20
-2.022542
30
1.469463
11
-2.022542
21
-1.469463
31
2.022542
0
LINE
8
ESTRADOSSO
62
256
10
-2.022542
20
-2.022542
30
1.936317
11
-2.022542
21
-1.469463
31
2.383417
0
LINE
8
MAXSPINTA
62
81
48
41.882511516237315
10
-2.022542
20
-1.469463
30
2.253941423214067
11
-2.022542
21
-0.772542
31
2.4971058799627714
0
LINE
8
MINSPINTA
62
41
48
14.160825675281888
10
-2.022542
20
-1.469463
30
2.131247417084779
11
-2.022542
21
-0.772542
31
2.4994363087836886
0
LINE
8
MEDIONETWORK
62
41
48
22.886521880942023
10
-2.022542
20
-1.469463
30
2.2000429298347197
11
-2.022542
21
-0.772542
31
2.5161323064969956
0
LINE
8
ASSE
62
253
10
-2.022542
20
-1.469463
30
2.2029795
11
-2.022542
21
-0.772542
31
2.534478
0
LINE
8
INTRADOSSO
62
256
10
-2.022542
20
-1.469463
30
2.022542
11
-2.022542
21
-0.772542
31
2.377641
0
LINE
8
ESTRADOSSO
62
256
10
-2.022542
20
-1.469463
30
2.383417
11
-2.022542
21
-0.772542
31
2.691315
0
LINE
8
MAXSPINTA
62
61
48
39.80471130032544
10
-2.022542
20
-0.772542
30
2.4971058799627714
11
-2.022542
21
0.0
31
2.585868325703093
0
LINE
8
MINSPINTA
62
21
48
12.699810512530215
10
-2.022542
20
-0.772542
30
2.4994363087836886
11
-2.022542
21
0.0
31
2.6305087866973715
0
LINE
8
MEDIONETWORK
62
41
48
21.06869467072292
10
-2.022542
20
-0.772542
30
2.5161323064969956
11
-2.022542
21
0.0
31
2.6301485462002043
0
LINE
8
ASSE
62
253
10
-2.022542
20
-0.772542
30
2.534478
11
-2.022542
21
0.0
31
2.65
0
LINE
8
INTRADOSSO
62
256
10
-2.022542
20
-0.772542
30
2.377641
11
-2.022542
21
0.0
31
2.5
0
LINE
8
ESTRADOSSO
62
256
10
-2.022542
20
-0.772542
30
2.691315
11
-2.022542
21
0.0
31
2.8
0
LINE
8
MAXSPINTA
62
61
48
38.373341083620126
10
-1.469463
20
-1.469463
30
2.2815912566913368
11
-1.469463
21
-0.772542
31
2.467787537941708
0
LINE
8
MINSPINTA
62
21
48
13.07456906073949
10
-1.469463
20
-1.469463
30
2.2704124019339313
11
-1.469463
21
-0.772542
31
2.6122812602414487
0
LINE
8
MEDIONETWORK
62
41
48
20.897255635137196
10
-1.469463
20
-1.469463
30
2.270529645010728
11
-1.469463
21
-0.772542
31
2.5347330282438496
0
LINE
8
ASSE
62
253
10
-1.469463
20
-1.469463
30
2.2029795
11
-1.469463
21
-0.772542
31
2.534478
0
LINE
8
INTRADOSSO
62
256
10
-1.469463
20
-1.469463
30
2.022542
11
-1.469463
21
-0.772542
31
2.377641
0
LINE
8
ESTRADOSSO
62
256
10
-1.469463
20
-1.469463
30
2.383417
11
-1.469463
21
-0.772542
31
2.691315
0
LINE
8
MAXSPINTA
62
61
48
37.22923934120361
10
-1.469463
20
-0.772542
30
2.467787537941708
11
-1.469463
21
0.0
31
2.5387845761274237
0
LINE
8
MINSPINTA
62
21
48
11.897755202917871
10
-1.469463
20
-0.772542
30
2.6122812602414487
11
-1.469463
21
0.0
31
2.740040627852191
0
LINE
8
MEDIONETWORK
62
41
48
19.70231220217775
10
-1.469463
20
-0.772542
30
2.5347330282438496
11
-1.469463
21
0.0
31
2.634440192850942
0
LINE
8
ASSE
62
253
10
-1.469463
20
-0.772542
30
2.534478
11
-1.469463
21
0.0
31
2.65
0
LINE
8
INTRADOSSO
62
256
10
-1.469463
20
-0.772542
30
2.377641
11
-1.469463
21
0.0
31
2.5
0
LINE
8
ESTRADOSSO
62
256
10
-1.469463
20
-0.772542
30
2.691315
11
-1.469463
21
0.0
31
2.8
0
LINE
8
MAXSPINTA
62
61
48
35.3104805523021
10
-0.772542
20
-0.772542
30
2.4639687279832527
11
-0.772542
21
0.0
31
2.5195753124555007
0
LINE
8
MINSPINTA
62
21
48
11.303819707564594
10
-0.772542
20
-0.772542
30
2.6718369208137758
11
-0.772542
21
0.0
31
2.7999999999999994
0
LINE
8
MEDIONETWORK
62
41
48
18.684116195368873
10
-0.772542
20
-0.772542
30
2.5533789162782425
11
-0.772542
21
0.0
31
2.6416889029099706
0
LINE
8
ASSE
62
253
10
-0.772542
20
-0.772542
30
2.534478
11
-0.772542
21
0.0
31
2.65
0
LINE
8
INTRADOSSO
62
256
10
-0.772542
20
-0.772542
30
2.377641
11
-0.772542
21
0.0
31
2.5
0
LINE
8
ESTRADOSSO
62
256
10
-0.772542
20
-0.772542
30
2.691315
11
-0.772542
21
0.0
31
2.8
0
LINE
8
MAXSPINTA
62
61
48
32.231023526629535
10
-2.5
20
0.0
30
2.6884400404274476
11
-2.022542
21
0.0
31
2.585868325703093
0
LINE
8
MINSPINTA
62
21
48
10.343598576382014
10
-2.5
20
0.0
30
2.5
11
-2.022542
21
0.0
31
2.6305087866973715
0
LINE
8
MEDIONETWORK
62
41
48
16.640699965755115
10
-2.5
20
0.0
30
2.659566639818737
11
-2.022542
21
0.0
31
2.6301485462002043
0
LINE
8
ASSE
62
253
10
-2.5
20
0.0
30
2.65
11
-2.022542
21
0.0
31
2.65
0
LINE
8
INTRADOSSO
62
256
10
-2.5
20
0.0
30
2.5
11
-2.022542
21
0.0
31
2.5
0
LINE
8
ESTRADOSSO
62
256
10
-2.5
20
0.0
30
2.8
11
-2.022542
21
0.0
31
2.8
0
LINE
8
MAXSPINTA
62
61
48
31.62604264477048
10
-2.022542
20
0.0
30
2.585868325703093
11
-1.469463
21
0.0
31
2.5387845761274237
0
LINE
8
MINSPINTA
62
21
48
10.171351943529592
10
-2.022542
20
0.0
30
2.6305087866973715
11
-1.469463
21
0.0
31
2.740040627852191
0
LINE
8
MEDIONETWORK
62
41
48
16.60970322158173
10
-2.022542
20
0.0
30
2.6301485462002043
11
-1.469463
21
0.0
31
2.634440192850942
0
LINE
8
ASSE
62
253
10
-2.022542
20
0.0
30
2.65
11
-1.469463
21
0.0
31
2.65
0
LINE
8
INTRADOSSO
62
256
10
-2.022542
20
0.0
30
2.5
11
-1.469463
21
0.0
31
2.5
0
LINE
8
ESTRADOSSO
62
256
10
-2.022542
20
0.0
30
2.8
11
-1.469463
21
0.0
31
2.8
0
LINE
8
MAXSPINTA
62
61
48
31.52403024984409
10
-1.469463
20
0.0
30
2.5387845761274237
11
-0.772542
21
0.0
31
2.5195753124555007
0
LINE
8
MINSPINTA
62
21
48
10.014432700041166
10
-1.469463
20
0.0
30
2.740040627852191
11
-0.772542
21
0.0
31
2.7999999999999994
0
LINE
8
MEDIONETWORK
62
41
48
16.61010158611438
10
-1.469463
20
0.0
30
2.634440192850942
11
-0.772542
21
0.0
31
2.6416889029099706
0
LINE
8
ASSE
62
253
10
-1.469463
20
0.0
30
2.65
11
-0.772542
21
0.0
31
2.65
0
LINE
8
INTRADOSSO
62
256
10
-1.469463
20
0.0
30
2.5
11
-0.772542
21
0.0
31
2.5
0
LINE
8
ESTRADOSSO
62
256
10
-1.469463
20
0.0
30
2.8
11
-0.772542
21
0.0
31
2.8
0
LINE
8
MAXSPINTA
62
61
48
31.522176967157446
10
-0.772542
20
0.0
30
2.5195753124555007
11
-0.0
21
0.0
31
2.5000000000000004
0
LINE
8
MINSPINTA
62
21
48
9.987341323136718
10
-0.772542
20
0.0
30
2.7999999999999994
11
-0.0
21
0.0
31
2.7658083771450124
0
LINE
8
MEDIONETWORK
62
41
48
16.61944208859913
10
-0.772542
20
0.0
30
2.6416889029099706
11
-0.0
21
0.0
31
2.6145585178985766
0
LINE
8
ASSE
62
253
10
-0.772542
20
0.0
30
2.65
11
-0.0
21
0.0
31
2.65
0
LINE
8
INTRADOSSO
62
256
10
-0.772542
20
0.0
30
2.5
11
-0.0
21
0.0
31
2.5
0
LINE
8
ESTRADOSSO
62
256
10
-0.772542
20
0.0
30
2.8
11
-0.0
21
0.0
31
2.8
0
LINE
8
MAXSPINTA
62
61
48
32.06414846158013
10
-2.5
20
-0.772542
30
2.5868713040279396
11
-2.022542
21
-0.772542
31
2.4971058799627714
0
LINE
8
MINSPINTA
62
21
48
10.297085903040026
10
-2.5
20
-0.772542
30
2.377641
11
-2.022542
21
-0.772542
31
2.4994363087836886
0
LINE
8
MEDIONETWORK
62
41
48
16.62936495002093
10
-2.5
20
-0.772542
30
2.539664998263479
11
-2.022542
21
-0.772542
31
2.5161323064969956
0
LINE
8
ASSE
62
253
10
-2.5
20
-0.772542
30
2.534478
11
-2.022542
21
-0.772542
31
2.534478
0
LINE
8
INTRADOSSO
62
256
10
-2.5
20
-0.772542
30
2.377641
11
-2.022542
21
-0.772542
31
2.377641
0
LINE
8
ESTRADOSSO
62
256
10
-2.5
20
-0.772542
30
2.691315
11
-2.022542
21
-0.772542
31
2.691315
0
LINE
8
MAXSPINTA
62
61
48
31.556305529833594
10
-2.022542
20
-0.772542
30
2.4971058799627714
11
-1.469463
21
-0.772542
31
2.467787537941708
0
LINE
8
MINSPINTA
62
21
48
10.183131822753435
10
-2.022542
20
-0.772542
30
2.4994363087836886
11
-1.469463
21
-0.772542
31
2.6122812602414487
0
LINE
8
MEDIONETWORK
62
41
48
16.61859354310271
10
-2.022542
20
-0.772542
30
2.5161323064969956
11
-1.469463
21
-0.772542
31
2.5347330282438496
0
LINE
8
ASSE
62
253
10
-2.022542
20
-0.772542
30
2.534478
11
-1.469463
21
-0.772542
31
2.534478
0
LINE
8
INTRADOSSO
62
256
10
-2.022542
20
-0.772542
30
2.377641
11
-1.469463
21
-0.772542
31
2.377641
0
LINE
8
ESTRADOSSO
62
256
10
-2.022542
20
-0.772542
30
2.691315
11
-1.469463
21
-0.772542
31
2.691315
0
LINE
8
MAXSPINTA
62
61
48
31.512535406950207
10
-1.469463
20
-0.772542
30
2.467787537941708
11
-0.772542
21
-0.772542
31
2.4639687279832527
0
LINE
8
MINSPINTA
62
21
48
10.013938922987219
10
-1.469463
20
-0.772542
30
2.6122812602414487
11
-0.772542
21
-0.772542
31
2.6718369208137758
0
LINE
8
MEDIONETWORK
62
41
48
16.615146674335268
10
-1.469463
20
-0.772542
30
2.5347330282438496
11
-0.772542
21
-0.772542
31
2.5533789162782425
0
LINE
8
ASSE
62
253
10
-1.469463
20
-0.772542
30
2.534478
11
-0.772542
21
-0.772542
31
2.534478
0
LINE
8
INTRADOSSO
62
256
10
-1.469463
20
-0.772542
30
2.377641
11
-0.772542
21
-0.772542
31
2.377641
0
LINE
8
ESTRADOSSO
62
256
10
-1.469463
20
-0.772542
30
2.691315
11
-0.772542
21
-0.772542
31
2.691315
0
LINE
8
MAXSPINTA
62
61
48
31.685642887084285
10
-2.5
20
-2.022542
30
1.8765896783372218
11
-2.022542
21
-2.022542
31
1.9267730159413818
0
LINE
8
MINSPINTA
62
21
48
10.38697720905614
10
-2.5
20
-2.022542
30
1.469463
11
-2.022542
21
-2.022542
31
1.6076360317559486
0
LINE
8
MEDIONETWORK
62
41
48
16.734602896613655
10
-2.5
20
-2.022542
30
1.7033405565979374
11
-2.022542
21
-2.022542
31
1.7621222643255685
0
LINE
8
ASSE
62
253
10
-2.5
20
-2.022542
30
1.70289
11
-2.022542
21
-2.022542
31
1.70289
0
LINE
8
INTRADOSSO
62
256
10
-2.5
20
-2.022542
30
1.469463
11
-2.022542
21
-2.022542
31
1.469463
0
LINE
8
ESTRADOSSO
62
256
10
-2.5
20
-2.022542
30
1.936317
11
-2.022542
21
-2.022542
31
1.936317
0
LINE
8
MAXSPINTA
62
61
48
35.87016863286608
10
-2.5
20
-2.377641
30
1.4003767716463065
11
-2.377641
21
-2.377641
31
1.4669164496418872
0
LINE
8
MINSPINTA
62
21
48
10.639383172289728
10
-2.5
20
-2.377641
30
0.772542
11
-2.377641
21
-2.377641
31
0.8178411083924604
0
LINE
8
MEDIONETWORK
62
41
48
18.12535860081406
10
-2.5
20
-2.377641
30
1.0518338356681158
11
-2.377641
21
-2.377641
31
1.10529518192221
0
LINE
8
ASSE
62
253
10
-2.5
20
-2.377641
30
1.1256665
11
-2.377641
21
-2.377641
31
1.1256665
0
LINE
8
INTRADOSSO
62
256
10
-2.5
20
-2.377641
30
0.772542
11
-2.377641
21
-2.377641
31
0.772542
0
LINE
8
ESTRADOSSO
62
256
10
-2.5
20
-2.377641
30
1.478791
11
-2.377641
21
-2.377641
31
1.478791
0
LINE
8
MAXSPINTA
62
61
48
31.656370949464215
10
-2.5
20
-1.469463
30
2.299687571956614
11
-2.022542
21
-1.469463
31
2.253941423214067
0
LINE
8
MINSPINTA
62
21
48
10.232905988471378
10
-2.5
20
-1.469463
30
2.022542
11
-2.022542
21
-1.469463
31
2.131247417084779
0
LINE
8
MEDIONETWORK
62
41
48
16.609338051379456
10
-2.5
20
-1.469463
30
2.1981189568837043
11
-2.022542
21
-1.469463
31
2.2000429298347197
0
LINE
8
ASSE
62
253
10
-2.5
20
-1.469463
30
2.2029795
11
-2.022542
21
-1.469463
31
2.2029795
0
LINE
8
INTRADOSSO
62
256
10
-2.5
20
-1.469463
30
2.022542
11
-2.022542
21
-1.469463
31
2.022542
0
LINE
8
ESTRADOSSO
62
256
10
-2.5
20
-1.469463
30
2.383417
11
-2.022542
21
-1.469463
31
2.383417
0
LINE
8
MAXSPINTA
62
61
48
31.55141610740884
10
-2.022542
20
-1.469463
30
2.253941423214067
11
-1.469463
21
-1.469463
31
2.2815912566913368
0
LINE
8
MINSPINTA
62
21
48
10.28857672377764
10
-2.022542
20
-1.469463
30
2.131247417084779
11
-1.469463
21
-1.469463
31
2.2704124019339313
0
LINE
8
MEDIONETWORK
62
41
48
16.743543467611577
10
-2.022542
20
-1.469463
30
2.2000429298347197
11
-1.469463
21
-1.469463
31
2.270529645010728
0
LINE
8
ASSE
62
253
10
-2.022542
20
-1.469463
30
2.2029795
11
-1.469463
21
-1.469463
31
2.2029795
0
LINE
8
INTRADOSSO
62
256
10
-2.022542
20
-1.469463
30
2.022542
11
-1.469463
21
-1.469463
31
2.022542
0
LINE
8
ESTRADOSSO
62
256
10
-2.022542
20
-1.469463
30
2.383417
11
-1.469463
21
-1.469463
31
2.383417
0
LINE
8
MAXSPINTA
62
61
48
32.248291692468605
10
-2.5
20
-2.5
30
1.2609519999999996
11
-2.377641
21
-2.5
31
1.4003767716463067
0
LINE
8
MINSPINTA
62
61
48
27.502831758733322
10
-2.5
20
-2.5
30
0.28809957754805415
11
-2.377641
21
-2.5
31
0.772542
0
LINE
8
MEDIONETWORK
62
61
48
32.98755074397835
10
-2.5
20
-2.5
30
0.7132504508506474
11
-2.377641
21
-2.5
31
1.0518338357602717
0
LINE
8
ASSE
62
253
10
-2.5
20
-2.5
30
0.630476
11
-2.377641
21
-2.5
31
1.1256665
0
LINE
8
INTRADOSSO
62
256
10
-2.5
20
-2.5
30
0.0
11
-2.377641
21
-2.5
31
0.772542
0
LINE
8
ESTRADOSSO
62
256
10
-2.5
20
-2.5
30
1.260952
11
-2.377641
21
-2.5
31
1.478791
0
LINE
8
MAXSPINTA
62
61
48
35.583973159896544
10
-2.377641
20
-2.5
30
1.4003767716463067
11
-2.022542
21
-2.5
31
1.876589678337222
0
LINE
8
MINSPINTA
62
41
48
14.835267687024725
10
-2.377641
20
-2.5
30
0.772542
11
-2.022542
21
-2.5
31
1.469463
0
LINE
8
MEDIONETWORK
62
41
48
23.427040648261766
10
-2.377641
20
-2.5
30
1.0518338357602717
11
-2.022542
21
-2.5
31
1.7033405574553386
0
LINE
8
ASSE
62
253
10
-2.377641
20
-2.5
30
1.1256665
11
-2.022542
21
-2.5
31
1.70289
0
LINE
8
INTRADOSSO
62
256
10
-2.377641
20
-2.5
30
0.772542
11
-2.022542
21
-2.5
31
1.469463
0
LINE
8
ESTRADOSSO
62
256
10
-2.377641
20
-2.5
30
1.478791
11
-2.022542
21
-2.5
31
1.936317
0
LINE
8
MAXSPINTA
62
61
48
26.781607189701457
10
-2.022542
20
-2.5
30
1.876589678337222
11
-1.469463
21
-2.5
31
2.299687571956614
0
LINE
8
MINSPINTA
62
21
48
9.524828475993504
10
-2.022542
20
-2.5
30
1.469463
11
-1.469463
21
-2.5
31
2.022542
0
LINE
8
MEDIONETWORK
62
41
48
15.043094560985882
10
-2.022542
20
-2.5
30
1.7033405574553386
11
-1.469463
21
-2.5
31
2.198118959682627
0
LINE
8
ASSE
62
253
10
-2.022542
20
-2.5
30
1.70289
11
-1.469463
21
-2.5
31
2.2029795
0
LINE
8
INTRADOSSO
62
256
10
-2.022542
20
-2.5
30
1.469463
11
-1.469463
21
-2.5
31
2.022542
0
LINE
8
ESTRADOSSO
62
256
10
-2.022542
20
-2.5
30
1.936317
11
-1.469463
21
-2.5
31
2.383417
0
LINE
8
MAXSPINTA
62
41
48
23.006519691433624
10
-1.469463
20
-2.5
30
2.299687571956614
11
-0.772542
21
-2.5
31
2.5868713040279387
0
LINE
8
MINSPINTA
62
21
48
7.558946739149469
10
-1.469463
20
-2.5
30
2.022542
11
-0.772542
21
-2.5
31
2.377641
0
LINE
8
MEDIONETWORK
62
21
48
12.485554801767227
10
-1.469463
20
-2.5
30
2.198118959682627
11
-0.772542
21
-2.5
31
2.539665003354826
0
LINE
8
ASSE
62
253
10
-1.469463
20
-2.5
30
2.2029795
11
-0.772542
21
-2.5
31
2.534478
0
LINE
8
INTRADOSSO
62
256
10
-1.469463
20
-2.5
30
2.022542
11
-0.772542
21
-2.5
31
2.377641
0
LINE
8
ESTRADOSSO
62
256
10
-1.469463
20
-2.5
30
2.383417
11
-0.772542
21
-2.5
31
2.691315
0
LINE
8
MAXSPINTA
62
41
48
21.454352551503614
10
-0.772542
20
-2.5
30
2.5868713040279387
11
-0.0
21
-2.5
31
2.6884400404274484
0
LINE
8
MINSPINTA
62
21
48
6.819024811265252
10
-0.772542
20
-2.5
30
2.377641
11
-0.0
21
-2.5
31
2.5
0
LINE
8
MEDIONETWORK
62
21
48
11.345789202679809
10
-0.772542
20
-2.5
30
2.539665003354826
11
-0.0
21
-2.5
31
2.659566650088475
0
LINE
8
ASSE
62
253
10
-0.772542
20
-2.5
30
2.534478
11
-0.0
21
-2.5
31
2.65
0
LINE
8
INTRADOSSO
62
256
10
-0.772542
20
-2.5
30
2.377641
11
-0.0
21
-2.5
31
2.5
0
LINE
8
ESTRADOSSO
62
256
10
-0.772542
20
-2.5
30
2.691315
11
-0.0
21
-2.5
31
2.8
0
LINE
8
MAXSPINTA
62
81
48
45.94524701947318
10
-2.022542
20
-2.022542
30
1.9267730159413818
11
-1.469463
21
-2.022542
31
2.2539414232140667
0
LINE
8
MINSPINTA
62
41
48
17.241935404716862
10
-2.022542
20
-2.022542
30
1.6076360317559486
11
-1.469463
21
-2.022542
31
2.1312474170847784
0
LINE
8
MEDIONETWORK
62
41
48
26.585360094950698
10
-2.022542
20
-2.022542
30
1.7621222643255685
11
-1.469463
21
-2.022542
31
2.2000429316500365
0
LINE
8
ASSE
62
253
10
-2.022542
20
-2.022542
30
1.70289
11
-1.469463
21
-2.022542
31
2.2029795
0
LINE
8
INTRADOSSO
62
256
10
-2.022542
20
-2.022542
30
1.469463
11
-1.469463
21
-2.022542
31
2.022542
0
LINE
8
ESTRADOSSO
62
256
10
-2.022542
20
-2.022542
30
1.936317
11
-1.469463
21
-2.022542
31
2.383417
0
LINE
8
MAXSPINTA
62
81
48
41.882511516237315
10
-1.469463
20
-2.022542
30
2.2539414232140667
11
-0.772542
21
-2.022542
31
2.4971058799627706
0
LINE
8
MINSPINTA
62
41
48
14.160825675281892
10
-1.469463
20
-2.022542
30
2.1312474170847784
11
-0.772542
21
-2.022542
31
2.4994363087836886
0
LINE
8
MEDIONETWORK
62
41
48
22.88652191758258
10
-1.469463
20
-2.022542
30
2.2000429316500365
11
-0.772542
21
-2.022542
31
2.516132311278386
0
LINE
8
ASSE
62
253
10
-1.469463
20
-2.022542
30
2.2029795
11
-0.772542
21
-2.022542
31
2.534478
0
LINE
8
INTRADOSSO
62
256
10
-1.469463
20
-2.022542
30
2.022542
11
-0.772542
21
-2.022542
31
2.377641
0
LINE
8
ESTRADOSSO
62
256
10
-1.469463
20
-2.022542
30
2.383417
11
-0.772542
21
-2.022542
31
2.691315
0
LINE
8
MAXSPINTA
62
61
48
39.804711300325444
10
-0.772542
20
-2.022542
30
2.4971058799627706
11
-0.0
21
-2.022542
31
2.585868325703093
0
LINE
8
MINSPINTA
62
21
48
12.699810512530215
10
-0.772542
20
-2.022542
30
2.4994363087836886
11
-0.0
21
-2.022542
31
2.6305087866973715
0
LINE
8
MEDIONETWORK
62
41
48
21.068694689344223
10
-0.772542
20
-2.022542
30
2.516132311278386
11
-0.0
21
-2.022542
31
2.630148555708838
0
LINE
8
ASSE
62
253
10
-0.772542
20
-2.022542
30
2.534478
11
-0.0
21
-2.022542
31
2.65
0
LINE
8
INTRADOSSO
62
256
10
-0.772542
20
-2.022542
30
2.377641
11
-0.0
21
-2.022542
31
2.5
0
LINE
8
ESTRADOSSO
62
256
10
-0.772542
20
-2.022542
30
2.691315
11
-0.0
21
-2.022542
31
2.8
0
LINE
8
MAXSPINTA
62
61
48
38.37334108362012
10
-1.469463
20
-1.469463
30
2.2815912566913368
11
-0.772542
21
-1.469463
31
2.4677875379417076
0
LINE
8
MINSPINTA
62
21
48
13.074569060739483
10
-1.469463
20
-1.469463
30
2.2704124019339313
11
-0.772542
21
-1.469463
31
2.612281260241448
0
LINE
8
MEDIONETWORK
62
41
48
20.897255666240106
10
-1.469463
20
-1.469463
30
2.270529645010728
11
-0.772542
21
-1.469463
31
2.534733031373236
0
LINE
8
ASSE
62
253
10
-1.469463
20
-1.469463
30
2.2029795
11
-0.772542
21
-1.469463
31
2.534478
0
LINE
8
INTRADOSSO
62
256
10
-1.469463
20
-1.469463
30
2.022542
11
-0.772542
21
-1.469463
31
2.377641
0
LINE
8
ESTRADOSSO
62
256
10
-1.469463
20
-1.469463
30
2.383417
11
-0.772542
21
-1.469463
31
2.691315
0
LINE
8
MAXSPINTA
62
61
48
37.229239341203595
10
-0.772542
20
-1.469463
30
2.4677875379417076
11
-0.0
21
-1.469463
31
2.538784576127423
0
LINE
8
MINSPINTA
62
21
48
11.897755202917871
10
-0.772542
20
-1.469463
30
2.612281260241448
11
-0.0
21
-1.469463
31
2.7400406278521907
0
LINE
8
MEDIONETWORK
62
41
48
19.70231221660576
10
-0.772542
20
-1.469463
30
2.534733031373236
11
-0.0
21
-1.469463
31
2.6344402004367025
0
LINE
8
ASSE
62
253
10
-0.772542
20
-1.469463
30
2.534478
11
-0.0
21
-1.469463
31
2.65
0
LINE
8
INTRADOSSO
62
256
10
-0.772542
20
-1.469463
30
2.377641
11
-0.0
21
-1.469463
31
2.5
0
LINE
8
ESTRADOSSO
62
256
10
-0.772542
20
-1.469463
30
2.691315
11
-0.0
21
-1.469463
31
2.8
0
LINE
8
MAXSPINTA
62
61
48
35.310480552302096
10
-0.772542
20
-0.772542
30
2.4639687279832527
11
-0.0
21
-0.772542
31
2.5195753124555003
0
LINE
8
MINSPINTA
62
21
48
11.303819707564596
10
-0.772542
20
-0.772542
30
2.6718369208137758
11
-0.0
21
-0.772542
31
2.8
0
LINE
8
MEDIONETWORK
62
41
48
18.684116207111586
10
-0.772542
20
-0.772542
30
2.5533789162782425
11
-0.0
21
-0.772542
31
2.6416889072129415
0
LINE
8
ASSE
62
253
10
-0.772542
20
-0.772542
30
2.534478
11
-0.0
21
-0.772542
31
2.65
0
LINE
8
INTRADOSSO
62
256
10
-0.772542
20
-0.772542
30
2.377641
11
-0.0
21
-0.772542
31
2.5
0
LINE
8
ESTRADOSSO
62
256
10
-0.772542
20
-0.772542
30
2.691315
11
-0.0
21
-0.772542
31
2.8
0
LINE
8
MAXSPINTA
62
61
48
32.23102352662954
10
-0.0
20
-2.5
30
2.6884400404274484
11
-0.0
21
-2.022542
31
2.585868325703093
0
LINE
8
MINSPINTA
62
21
48
10.343598576382012
10
-0.0
20
-2.5
30
2.5
11
-0.0
21
-2.022542
31
2.6305087866973715
0
LINE
8
MEDIONETWORK
62
41
48
16.640699967383338
10
-0.0
20
-2.5
30
2.659566650088475
11
-0.0
21
-2.022542
31
2.630148555708838
0
LINE
8
ASSE
62
253
10
-0.0
20
-2.5
30
2.65
11
-0.0
21
-2.022542
31
2.65
0
LINE
8
INTRADOSSO
62
256
10
-0.0
20
-2.5
30
2.5
11
-0.0
21
-2.022542
31
2.5
0
LINE
8
ESTRADOSSO
62
256
10
-0.0
20
-2.5
30
2.8
11
-0.0
21
-2.022542
31
2.8
0
LINE
8
MAXSPINTA
62
61
48
31.62604264477048
10
-0.0
20
-2.022542
30
2.585868325703093
11
-0.0
21
-1.469463
31
2.538784576127423
0
LINE
8
MINSPINTA
62
21
48
10.17135194352959
10
-0.0
20
-2.022542
30
2.6305087866973715
11
-0.0
21
-1.469463
31
2.7400406278521907
0
LINE
8
MEDIONETWORK
62
41
48
16.609703221133667
10
-0.0
20
-2.022542
30
2.630148555708838
11
-0.0
21
-1.469463
31
2.6344402004367025
0
LINE
8
ASSE
62
253
10
-0.0
20
-2.022542
30
2.65
11
-0.0
21
-1.469463
31
2.65
0
LINE
8
INTRADOSSO
62
256
10
-0.0
20
-2.022542
30
2.5
11
-0.0
21
-1.469463
31
2.5
0
LINE
8
ESTRADOSSO
62
256
10
-0.0
20
-2.022542
30
2.8
11
-0.0
21
-1.469463
31
2.8
0
LINE
8
MAXSPINTA
62
61
48
31.524030249844078
10
-0.0
20
-1.469463
30
2.538784576127423
11
-0.0
21
-0.772542
31
2.5195753124555003
0
LINE
8
MINSPINTA
62
21
48
10.014432700041166
10
-0.0
20
-1.469463
30
2.7400406278521907
11
-0.0
21
-0.772542
31
2.8
0
LINE
8
MEDIONETWORK
62
41
48
16.61010158530068
10
-0.0
20
-1.469463
30
2.6344402004367025
11
-0.0
21
-0.772542
31
2.6416889072129415
0
LINE
8
ASSE
62
253
10
-0.0
20
-1.469463
30
2.65
11
-0.0
21
-0.772542
31
2.65
0
LINE
8
INTRADOSSO
62
256
10
-0.0
20
-1.469463
30
2.5
11
-0.0
21
-0.772542
31
2.5
0
LINE
8
ESTRADOSSO
62
256
10
-0.0
20
-1.469463
30
2.8
11
-0.0
21
-0.772542
31
2.8
0
LINE
8
MAXSPINTA
62
61
48
31.522176967157435
10
-0.0
20
-0.772542
30
2.5195753124555003
11
-0.0
21
0.0
31
2.5000000000000004
0
LINE
8
MINSPINTA
62
21
48
9.987341323136715
10
-0.0
20
-0.772542
30
2.8
11
-0.0
21
0.0
31
2.7658083771450124
0
LINE
8
MEDIONETWORK
62
41
48
16.619442091845965
10
-0.0
20
-0.772542
30
2.6416889072129415
11
-0.0
21
0.0
31
2.6145585178985766
0
LINE
8
ASSE
62
253
10
-0.0
20
-0.772542
30
2.65
11
-0.0
21
0.0
31
2.65
0
LINE
8
INTRADOSSO
62
256
10
-0.0
20
-0.772542
30
2.5
11
-0.0
21
0.0
31
2.5
0
LINE
8
ESTRADOSSO
62
256
10
-0.0
20
-0.772542
30
2.8
11
-0.0
21
0.0
31
2.8
0
LINE
8
MAXSPINTA
62
61
48
32.06414846158013
10
-0.772542
20
-2.5
30
2.5868713040279387
11
-0.772542
21
-2.022542
31
2.4971058799627706
0
LINE
8
MINSPINTA
62
21
48
10.297085903040026
10
-0.772542
20
-2.5
30
2.377641
11
-0.772542
21
-2.022542
31
2.4994363087836886
0
LINE
8
MEDIONETWORK
62
41
48
16.62936495055172
10
-0.772542
20
-2.5
30
2.539665003354826
11
-0.772542
21
-2.022542
31
2.516132311278386
0
LINE
8
ASSE
62
253
10
-0.772542
20
-2.5
30
2.534478
11
-0.772542
21
-2.022542
31
2.534478
0
LINE
8
INTRADOSSO
62
256
10
-0.772542
20
-2.5
30
2.377641
11
-0.772542
21
-2.022542
31
2.377641
0
LINE
8
ESTRADOSSO
62
256
10
-0.772542
20
-2.5
30
2.691315
11
-0.772542
21
-2.022542
31
2.691315
0
LINE
8
MAXSPINTA
62
61
48
31.556305529833594
10
-0.772542
20
-2.022542
30
2.4971058799627706
11
-0.772542
21
-1.469463
31
2.4677875379417076
0
LINE
8
MINSPINTA
62
21
48
10.183131822753433
10
-0.772542
20
-2.022542
30
2.4994363087836886
11
-0.772542
21
-1.469463
31
2.612281260241448
0
LINE
8
MEDIONETWORK
62
41
48
16.618593541435192
10
-0.772542
20
-2.022542
30
2.516132311278386
11
-0.772542
21
-1.469463
31
2.534733031373236
0
LINE
8
ASSE
62
253
10
-0.772542
20
-2.022542
30
2.534478
11
-0.772542
21
-1.469463
31
2.534478
0
LINE
8
INTRADOSSO
62
256
10
-0.772542
20
-2.022542
30
2.377641
11
-0.772542
21
-1.469463
31
2.377641
0
LINE
8
ESTRADOSSO
62
256
10
-0.772542
20
-2.022542
30
2.691315
11
-0.772542
21
-1.469463
31
2.691315
0
LINE
8
MAXSPINTA
62
61
48
31.512535406950207
10
-0.772542
20
-1.469463
30
2.4677875379417076
11
-0.772542
21
-0.772542
31
2.4639687279832527
0
LINE
8
MINSPINTA
62
21
48
10.01393892298722
10
-0.772542
20
-1.469463
30
2.612281260241448
11
-0.772542
21
-0.772542
31
2.6718369208137758
0
LINE
8
MEDIONETWORK
62
41
48
16.61514667234061
10
-0.772542
20
-1.469463
30
2.534733031373236
11
-0.772542
21
-0.772542
31
2.5533789162782425
0
LINE
8
ASSE
62
253
10
-0.772542
20
-1.469463
30
2.534478
11
-0.772542
21
-0.772542
31
2.534478
0
LINE
8
INTRADOSSO
62
256
10
-0.772542
20
-1.469463
30
2.377641
11
-0.772542
21
-0.772542
31
2.377641
0
LINE
8
ESTRADOSSO
62
256
10
-0.772542
20
-1.469463
30
2.691315
11
-0.772542
21
-0.772542
31
2.691315
0
LINE
8
MAXSPINTA
62
61
48
31.68564288708428
10
-2.022542
20
-2.5
30
1.876589678337222
11
-2.022542
21
-2.022542
31
1.9267730159413818
0
LINE
8
MINSPINTA
62
21
48
10.38697720905614
10
-2.022542
20
-2.5
30
1.469463
11
-2.022542
21
-2.022542
31
1.6076360317559486
0
LINE
8
MEDIONETWORK
62
41
48
16.734602892969153
10
-2.022542
20
-2.5
30
1.7033405574553386
11
-2.022542
21
-2.022542
31
1.7621222643255685
0
LINE
8
ASSE
62
253
10
-2.022542
20
-2.5
30
1.70289
11
-2.022542
21
-2.022542
31
1.70289
0
LINE
8
INTRADOSSO
62
256
10
-2.022542
20
-2.5
30
1.469463
11
-2.022542
21
-2.022542
31
1.469463
0
LINE
8
ESTRADOSSO
62
256
10
-2.022542
20
-2.5
30
1.936317
11
-2.022542
21
-2.022542
31
1.936317
0
LINE
8
MAXSPINTA
62
61
48
35.870168632866054
10
-2.377641
20
-2.5
30
1.4003767716463067
11
-2.377641
21
-2.377641
31
1.4669164496418872
0
LINE
8
MINSPINTA
62
21
48
10.639383172289728
10
-2.377641
20
-2.5
30
0.772542
11
-2.377641
21
-2.377641
31
0.8178411083924604
0
LINE
8
MEDIONETWORK
62
41
48
18.12535859580563
10
-2.377641
20
-2.5
30
1.0518338357602717
11
-2.377641
21
-2.377641
31
1.10529518192221
0
LINE
8
ASSE
62
253
10
-2.377641
20
-2.5
30
1.1256665
11
-2.377641
21
-2.377641
31
1.1256665
0
LINE
8
INTRADOSSO
62
256
10
-2.377641
20
-2.5
30
0.772542
11
-2.377641
21
-2.377641
31
0.772542
0
LINE
8
ESTRADOSSO
62
256
10
-2.377641
20
-2.5
30
1.478791
11
-2.377641
21
-2.377641
31
1.478791
0
LINE
8
MAXSPINTA
62
61
48
31.65637094946422
10
-1.469463
20
-2.5
30
2.299687571956614
11
-1.469463
21
-2.022542
31
2.2539414232140667
0
LINE
8
MINSPINTA
62
21
48
10.232905988471375
10
-1.469463
20
-2.5
30
2.022542
11
-1.469463
21
-2.022542
31
2.1312474170847784
0
LINE
8
MEDIONETWORK
62
41
48
16.609338051241576
10
-1.469463
20
-2.5
30
2.198118959682627
11
-1.469463
21
-2.022542
31
2.2000429316500365
0
LINE
8
ASSE
62
253
10
-1.469463
20
-2.5
30
2.2029795
11
-1.469463
21
-2.022542
31
2.2029795
0
LINE
8
INTRADOSSO
62
256
10
-1.469463
20
-2.5
30
2.022542
11
-1.469463
21
-2.022542
31
2.022542
0
LINE
8
ESTRADOSSO
62
256
10
-1.469463
20
-2.5
30
2.383417
11
-1.469463
21
-2.022542
31
2.383417
0
LINE
8
MAXSPINTA
62
61
48
31.55141610740884
10
-1.469463
20
-2.022542
30
2.2539414232140667
11
-1.469463
21
-1.469463
31
2.2815912566913368
0
LINE
8
MINSPINTA
62
21
48
10.288576723777641
10
-1.469463
20
-2.022542
30
2.1312474170847784
11
-1.469463
21
-1.469463
31
2.2704124019339313
0
LINE
8
MEDIONETWORK
62
41
48
16.743543460719728
10
-1.469463
20
-2.022542
30
2.2000429316500365
11
-1.469463
21
-1.469463
31
2.270529645010728
0
LINE
8
ASSE
62
253
10
-1.469463
20
-2.022542
30
2.2029795
11
-1.469463
21
-1.469463
31
2.2029795
0
LINE
8
INTRADOSSO
62
256
10
-1.469463
20
-2.022542
30
2.022542
11
-1.469463
21
-1.469463
31
2.022542
0
LINE
8
ESTRADOSSO
62
256
10
-1.469463
20
-2.022542
30
2.383417
11
-1.469463
21
-1.469463
31
2.383417
0
LINE
8
MAXSPINTA
62
61
48
32.36081956429603
10
-0.0
20
-2.977458
30
2.8
11
-0.0
21
-2.5
31
2.6884400404274484
0
LINE
8
MINSPINTA
62
21
48
11.438649805451346
10
-0.0
20
-2.977458
30
2.2323186902381043
11
-0.0
21
-2.5
31
2.5
0
LINE
8
MEDIONETWORK
62
41
48
16.616621961003407
10
-0.0
20
-2.977458
30
2.645294485149977
11
-0.0
21
-2.5
31
2.659566650088475
0
LINE
8
ASSE
62
253
10
-0.0
20
-2.977458
30
2.4
11
-0.0
21
-2.5
31
2.65
0
LINE
8
INTRADOSSO
62
256
10
-0.0
20
-2.977458
30
2.0
11
-0.0
21
-2.5
31
2.5
0
LINE
8
ESTRADOSSO
62
256
10
-0.0
20
-2.977458
30
2.8
11
-0.0
21
-2.5
31
2.8
0
LINE
8
MAXSPINTA
62
61
48
32.25719975453541
10
-0.772542
20
-2.977458
30
2.691315
11
-0.772542
21
-2.5
31
2.5868713040279387
0
LINE
8
MINSPINTA
62
21
48
11.242188812154778
10
-0.772542
20
-2.977458
30
2.1297506495045386
11
-0.772542
21
-2.5
31
2.377641
0
LINE
8
MEDIONETWORK
62
41
48
16.614688756483986
10
-0.772542
20
-2.977458
30
2.5273928198071447
11
-0.772542
21
-2.5
31
2.539665003354826
0
LINE
8
ASSE
62
253
10
-0.772542
20
-2.977458
30
2.284478
11
-0.772542
21
-2.5
31
2.534478
0
LINE
8
INTRADOSSO
62
256
10
-0.772542
20
-2.977458
30
1.877641
11
-0.772542
21
-2.5
31
2.377641
0
LINE
8
ESTRADOSSO
62
256
10
-0.772542
20
-2.977458
30
2.691315
11
-0.772542
21
-2.5
31
2.691315
0
LINE
8
MAXSPINTA
62
61
48
31.992936709745017
10
-1.469463
20
-2.977458
30
2.383417
11
-1.469463
21
-2.5
31
2.299687571956614
0
LINE
8
MINSPINTA
62
21
48
10.73774299197296
10
-1.469463
20
-2.977458
30
1.8326480628244557
11
-1.469463
21
-2.5
31
2.022542
0
LINE
8
MEDIONETWORK
62
41
48
16.617712659129698
10
-1.469463
20
-2.977458
30
2.1828333669225652
11
-1.469463
21
-2.5
31
2.198118959682627
0
LINE
8
ASSE
62
253
10
-1.469463
20
-2.977458
30
1.9529795
11
-1.469463
21
-2.5
31
2.2029795
0
LINE
8
INTRADOSSO
62
256
10
-1.469463
20
-2.977458
30
1.522542
11
-1.469463
21
-2.5
31
2.022542
0
LINE
8
ESTRADOSSO
62
256
10
-1.469463
20
-2.977458
30
2.383417
11
-1.469463
21
-2.5
31
2.383417
0
LINE
8
MAXSPINTA
62
61
48
31.757665189815096
10
-2.022542
20
-2.977458
30
1.936317
11
-2.022542
21
-2.5
31
1.876589678337222
0
LINE
8
MINSPINTA
62
21
48
10.075898725113682
10
-2.022542
20
-2.977458
30
1.4022680724764807
11
-2.022542
21
-2.5
31
1.469463
0
LINE
8
MEDIONETWORK
62
41
48
16.973040712840007
10
-2.022542
20
-2.977458
30
1.803824106782823
11
-2.022542
21
-2.5
31
1.7033405574553386
0
LINE
8
ASSE
62
253
10
-2.022542
20
-2.977458
30
1.45289
11
-2.022542
21
-2.5
31
1.70289
0
LINE
8
INTRADOSSO
62
256
10
-2.022542
20
-2.977458
30
0.969463
11
-2.022542
21
-2.5
31
1.469463
0
LINE
8
ESTRADOSSO
62
256
10
-2.022542
20
-2.977458
30
1.936317
11
-2.022542
21
-2.5
31
1.936317
0
LINE
8
MAXSPINTA
62
81
48
41.125130058329276
10
-2.377641
20
-2.977458
30
0.9999999999999999
11
-2.377641
21
-2.5
31
1.4003767716463067
0
LINE
8
MINSPINTA
62
21
48
11.051941138663762
10
-2.377641
20
-2.977458
30
0.9999999999999984
11
-2.377641
21
-2.5
31
0.772542
0
LINE
8
MEDIONETWORK
62
41
48
16.706792266785286
10
-2.377641
20
-2.977458
30
1.0
11
-2.377641
21
-2.5
31
1.0518338357602717
0
LINE
8
ASSE
62
253
10
-2.377641
20
-2.977458
30
0.636271
11
-2.377641
21
-2.5
31
1.1256665
0
LINE
8
INTRADOSSO
62
256
10
-2.377641
20
-2.977458
30
0.272542
11
-2.377641
21
-2.5
31
0.772542
0
LINE
8
ESTRADOSSO
62
256
10
-2.377641
20
-2.977458
30
1.0
11
-2.377641
21
-2.5
31
1.478791
0
LINE
8
MAXSPINTA
62
61
48
32.36081956429605
10
-2.977458
20
-0.0
30
2.8
11
-2.5
21
0.0
31
2.6884400404274476
0
LINE
8
MINSPINTA
62
21
48
11.438649805451345
10
-2.977458
20
-0.0
30
2.2323186902381047
11
-2.5
21
0.0
31
2.5
0
LINE
8
MEDIONETWORK
62
41
48
16.616621961003737
10
-2.977458
20
-0.0
30
2.6452944748799228
11
-2.5
21
0.0
31
2.659566639818737
0
LINE
8
ASSE
62
253
10
-2.977458
20
-0.0
30
2.4
11
-2.5
21
0.0
31
2.65
0
LINE
8
INTRADOSSO
62
256
10
-2.977458
20
-0.0
30
2.0
11
-2.5
21
0.0
31
2.5
0
LINE
8
ESTRADOSSO
62
256
10
-2.977458
20
-0.0
30
2.8
11
-2.5
21
0.0
31
2.8
0
LINE
8
MAXSPINTA
62
61
48
32.25719975453539
10
-2.977458
20
-0.772542
30
2.691315
11
-2.5
21
-0.772542
31
2.5868713040279396
0
LINE
8
MINSPINTA
62
21
48
11.242188812154781
10
-2.977458
20
-0.772542
30
2.129750649504538
11
-2.5
21
-0.772542
31
2.377641
0
LINE
8
MEDIONETWORK
62
41
48
16.61468875577771
10
-2.977458
20
-0.772542
30
2.5273928155059626
11
-2.5
21
-0.772542
31
2.539664998263479
0
LINE
8
ASSE
62
253
10
-2.977458
20
-0.772542
30
2.284478
11
-2.5
21
-0.772542
31
2.534478
0
LINE
8
INTRADOSSO
62
256
10
-2.977458
20
-0.772542
30
1.877641
11
-2.5
21
-0.772542
31
2.377641
0
LINE
8
ESTRADOSSO
62
256
10
-2.977458
20
-0.772542
30
2.691315
11
-2.5
21
-0.772542
31
2.691315
0
LINE
8
MAXSPINTA
62
61
48
31.992936709745017
10
-2.977458
20
-1.469463
30
2.383417
11
-2.5
21
-1.469463
31
2.299687571956614
0
LINE
8
MINSPINTA
62
21
48
10.737742991972965
10
-2.977458
20
-1.469463
30
1.832648062824455
11
-2.5
21
-1.469463
31
2.022542
0
LINE
8
MEDIONETWORK
62
41
48
16.61771266030351
10
-2.977458
20
-1.469463
30
2.1828333630691064
11
-2.5
21
-1.469463
31
2.1981189568837043
0
LINE
8
ASSE
62
253
10
-2.977458
20
-1.469463
30
1.9529795
11
-2.5
21
-1.469463
31
2.2029795
0
LINE
8
INTRADOSSO
62
256
10
-2.977458
20
-1.469463
30
1.522542
11
-2.5
21
-1.469463
31
2.022542
0
LINE
8
ESTRADOSSO
62
256
10
-2.977458
20
-1.469463
30
2.383417
11
-2.5
21
-1.469463
31
2.383417
0
LINE
8
MAXSPINTA
62
61
48
31.757665189815096
10
-2.977458
20
-2.022542
30
1.936317
11
-2.5
21
-2.022542
31
1.8765896783372218
0
LINE
8
MINSPINTA
62
21
48
10.075898725113687
10
-2.977458
20
-2.022542
30
1.4022680724764789
11
-2.5
21
-2.022542
31
1.469463
0
LINE
8
MEDIONETWORK
62
41
48
16.97304070982697
10
-2.977458
20
-2.022542
30
1.803824105504848
11
-2.5
21
-2.022542
31
1.7033405565979374
0
LINE
8
ASSE
62
253
10
-2.977458
20
-2.022542
30
1.45289
11
-2.5
21
-2.022542
31
1.70289
0
LINE
8
INTRADOSSO
62
256
10
-2.977458
20
-2.022542
30
0.969463
11
-2.5
21
-2.022542
31
1.469463
0
LINE
8
ESTRADOSSO
62
256
10
-2.977458
20
-2.022542
30
1.936317
11
-2.5
21
-2.022542
31
1.936317
0
LINE
8
MAXSPINTA
62
81
48
41.12513005832927
10
-2.977458
20
-2.377641
30
0.9999999999999998
11
-2.5
21
-2.377641
31
1.4003767716463065
0
LINE
8
MINSPINTA
62
21
48
11.051941138663777
10
-2.977458
20
-2.377641
30
1.0
11
-2.5
21
-2.377641
31
0.772542
0
LINE
8
MEDIONETWORK
62
41
48
16.70679226643929
10
-2.977458
20
-2.377641
30
1.0
11
-2.5
21
-2.377641
31
1.0518338356681158
0
LINE
8
ASSE
62
253
10
-2.977458
20
-2.377641
30
0.636271
11
-2.5
21
-2.377641
31
1.1256665
0
LINE
8
INTRADOSSO
62
256
10
-2.977458
20
-2.377641
30
0.272542
11
-2.5
21
-2.377641
31
0.772542
0
LINE
8
ESTRADOSSO
62
256
10
-2.977458
20
-2.377641
30
1.0
11
-2.5
21
-2.377641
31
1.478791
0
LINE
8
MAXSPINTA
62
101
48
65.31731780378908
10
-2.5
20
2.5
30
1.2609519999999999
11
-2.377641
21
2.377641
31
1.4669164496418872
0
LINE
8
MINSPINTA
62
81
48
42.844216388187235
10
-2.5
20
2.5
30
0.28809957754805454
11
-2.377641
21
2.377641
31
0.8178411083924605
0
LINE
8
MEDIONETWORK
62
101
48
54.84325786746719
10
-2.5
20
2.5
30
0.7132504242762652
11
-2.377641
21
2.377641
31
1.1052951598930607
0
LINE
8
ASSE
62
253
10
-2.5
20
2.5
30
0.630476
11
-2.377641
21
2.377641
31
1.1256665
0
LINE
8
INTRADOSSO
62
256
10
-2.5
20
2.5
30
0.0
11
-2.377641
21
2.377641
31
0.772542
0
LINE
8
ESTRADOSSO
62
256
10
-2.5
20
2.5
30
1.260952
11
-2.377641
21
2.377641
31
1.478791
0
LINE
8
MAXSPINTA
62
181
48
117.39691429743863
10
-2.377641
20
2.377641
30
1.4669164496418872
11
-2.022542
21
2.022542
31
1.9267730159413818
0
LINE
8
MINSPINTA
62
81
48
51.091587924402496
10
-2.377641
20
2.377641
30
0.8178411083924605
11
-2.022542
21
2.022542
31
1.6076360317559482
0
LINE
8
MEDIONETWORK
62
121
48
75.13364127222185
10
-2.377641
20
2.377641
30
1.1052951598930607
11
-2.022542
21
2.022542
31
1.7621222445688967
0
LINE
8
ASSE
62
253
10
-2.377641
20
2.377641
30
1.1256665
11
-2.022542
21
2.022542
31
1.70289
0
LINE
8
INTRADOSSO
62
256
10
-2.377641
20
2.377641
30
0.772542
11
-2.022542
21
2.022542
31
1.469463
0
LINE
8
ESTRADOSSO
62
256
10
-2.377641
20
2.377641
30
1.478791
11
-2.022542
21
2.022542
31
1.936317
0
LINE
8
MAXSPINTA
62
141
48
82.59899657563524
10
-2.022542
20
2.022542
30
1.9267730159413818
11
-1.469463
21
1.469463
31
2.281591256691337
0
LINE
8
MINSPINTA
62
61
48
31.217718927444214
10
-2.022542
20
2.022542
30
1.6076360317559482
11
-1.469463
21
1.469463
31
2.270412401933931
0
LINE
8
MEDIONETWORK
62
81
48
47.28652261115192
10
-2.022542
20
2.022542
30
1.7621222445688967
11
-1.469463
21
1.469463
31
2.270529628763451
0
LINE
8
ASSE
62
253
10
-2.022542
20
2.022542
30
1.70289
11
-1.469463
21
1.469463
31
2.2029795
0
LINE
8
INTRADOSSO
62
256
10
-2.022542
20
2.022542
30
1.469463
11
-1.469463
21
1.469463
31
2.022542
0
LINE
8
ESTRADOSSO
62
256
10
-2.022542
20
2.022542
30
1.936317
11
-1.469463
21
1.469463
31
2.383417
0
LINE
8
MAXSPINTA
62
121
48
68.50031748876859
10
-1.469463
20
1.469463
30
2.281591256691337
11
-0.772542
21
0.772542
31
2.4639687279832523
0
LINE
8
MINSPINTA
62
41
48
23.0280926860421
10
-1.469463
20
1.469463
30
2.270412401933931
11
-0.772542
21
0.772542
31
2.671836920813775
0
LINE
8
MEDIONETWORK
62
61
48
36.93511384026863
10
-1.469463
20
1.469463
30
2.270529628763451
11
-0.772542
21
0.772542
31
2.553378906460108
0
LINE
8
ASSE
62
253
10
-1.469463
20
1.469463
30
2.2029795
11
-0.772542
21
0.772542
31
2.534478
0
LINE
8
INTRADOSSO
62
256
10
-1.469463
20
1.469463
30
2.022542
11
-0.772542
21
0.772542
31
2.377641
0
LINE
8
ESTRADOSSO
62
256
10
-1.469463
20
1.469463
30
2.383417
11
-0.772542
21
0.772542
31
2.691315
0
LINE
8
MAXSPINTA
62
101
48
62.147697340640235
10
-0.772542
20
0.772542
30
2.4639687279832523
11
-0.0
21
0.0
31
2.5000000000000004
0
LINE
8
MINSPINTA
62
41
48
19.73956944372717
10
-0.772542
20
0.772542
30
2.671836920813775
11
-0.0
21
0.0
31
2.7658083771450124
0
LINE
8
MEDIONETWORK
62
61
48
32.78995455563258
10
-0.772542
20
0.772542
30
2.553378906460108
11
-0.0
21
0.0
31
2.6145585178985766
0
LINE
8
ASSE
62
253
10
-0.772542
20
0.772542
30
2.534478
11
-0.0
21
0.0
31
2.65
0
LINE
8
INTRADOSSO
62
256
10
-0.772542
20
0.772542
30
2.377641
11
-0.0
21
0.0
31
2.5
0
LINE
8
ESTRADOSSO
62
256
10
-0.772542
20
0.772542
30
2.691315
11
-0.0
21
0.0
31
2.8
0
LINE
8
MAXSPINTA
62
61
48
32.24829169246855
10
-2.5
20
2.5
30
1.2609519999999999
11
-2.5
21
2.377641
31
1.4003767716463065
0
LINE
8
MINSPINTA
62
61
48
27.5028317587333
10
-2.5
20
2.5
30
0.28809957754805454
11
-2.5
21
2.377641
31
0.772542
0
LINE
8
MEDIONETWORK
62
61
48
32.98755125528204
10
-2.5
20
2.5
30
0.7132504242762652
11
-2.5
21
2.377641
31
1.0518338151192832
0
LINE
8
ASSE
62
253
10
-2.5
20
2.5
30
0.630476
11
-2.5
21
2.377641
31
1.1256665
0
LINE
8
INTRADOSSO
62
256
10
-2.5
20
2.5
30
0.0
11
-2.5
21
2.377641
31
0.772542
0
LINE
8
ESTRADOSSO
62
256
10
-2.5
20
2.5
30
1.260952
11
-2.5
21
2.377641
31
1.478791
0
LINE
8
MAXSPINTA
62
61
48
35.58397315989655
10
-2.5
20
2.377641
30
1.4003767716463065
11
-2.5
21
2.022542
31
1.876589678337222
0
LINE
8
MINSPINTA
62
41
48
14.835267687024722
10
-2.5
20
2.377641
30
0.772542
11
-2.5
21
2.022542
31
1.469463
0
LINE
8
MEDIONETWORK
62
41
48
23.42704066060997
10
-2.5
20
2.377641
30
1.0518338151192832
11
-2.5
21
2.022542
31
1.7033405372597699
0
LINE
8
ASSE
62
253
10
-2.5
20
2.377641
30
1.1256665
11
-2.5
21
2.022542
31
1.70289
0
LINE
8
INTRADOSSO
62
256
10
-2.5
20
2.377641
30
0.772542
11
-2.5
21
2.022542
31
1.469463
0
LINE
8
ESTRADOSSO
62
256
10
-2.5
20
2.377641
30
1.478791
11
-2.5
21
2.022542
31
1.936317
0
LINE
8
MAXSPINTA
62
61
48
26.781607189701457
10
-2.5
20
2.022542
30
1.876589678337222
11
-2.5
21
1.469463
31
2.299687571956614
0
LINE
8
MINSPINTA
62
21
48
9.524828475993504
10
-2.5
20
2.022542
30
1.469463
11
-2.5
21
1.469463
31
2.022542
0
LINE
8
MEDIONETWORK
62
41
48
15.043094582286551
10
-2.5
20
2.022542
30
1.7033405372597699
11
-2.5
21
1.469463
31
2.1981189410630795
0
LINE
8
ASSE
62
253
10
-2.5
20
2.022542
30
1.70289
11
-2.5
21
1.469463
31
2.2029795
0
LINE
8
INTRADOSSO
62
256
10
-2.5
20
2.022542
30
1.469463
11
-2.5
21
1.469463
31
2.022542
0
LINE
8
ESTRADOSSO
62
256
10
-2.5
20
2.022542
30
1.936317
11
-2.5
21
1.469463
31
2.383417
0
LINE
8
MAXSPINTA
62
41
48
23.006519691433628
10
-2.5
20
1.469463
30
2.299687571956614
11
-2.5
21
0.772542
31
2.586871304027939
0
LINE
8
MINSPINTA
62
21
48
7.558946739149469
10
-2.5
20
1.469463
30
2.022542
11
-2.5
21
0.772542
31
2.377641
0
LINE
8
MEDIONETWORK
62
21
48
12.485554834143377
10
-2.5
20
1.469463
30
2.1981189410630795
11
-2.5
21
0.772542
31
2.5396649893084646
0
LINE
8
ASSE
62
253
10
-2.5
20
1.469463
30
2.2029795
11
-2.5
21
0.772542
31
2.534478
0
LINE
8
INTRADOSSO
62
256
10
-2.5
20
1.469463
30
2.022542
11
-2.5
21
0.772542
31
2.377641
0
LINE
8
ESTRADOSSO
62
256
10
-2.5
20
1.469463
30
2.383417
11
-2.5
21
0.772542
31
2.691315
0
LINE
8
MAXSPINTA
62
41
48
21.45435255150361
10
-2.5
20
0.772542
30
2.586871304027939
11
-2.5
21
0.0
31
2.6884400404274476
0
LINE
8
MINSPINTA
62
21
48
6.819024811265252
10
-2.5
20
0.772542
30
2.377641
11
-2.5
21
0.0
31
2.5
0
LINE
8
MEDIONETWORK
62
21
48
11.345789211085664
10
-2.5
20
0.772542
30
2.5396649893084646
11
-2.5
21
0.0
31
2.659566639818737
0
LINE
8
ASSE
62
253
10
-2.5
20
0.772542
30
2.534478
11
-2.5
21
0.0
31
2.65
0
LINE
8
INTRADOSSO
62
256
10
-2.5
20
0.772542
30
2.377641
11
-2.5
21
0.0
31
2.5
0
LINE
8
ESTRADOSSO
62
256
10
-2.5
20
0.772542
30
2.691315
11
-2.5
21
0.0
31
2.8
0
LINE
8
MAXSPINTA
62
81
48
45.945247019473165
10
-2.022542
20
2.022542
30
1.9267730159413818
11
-2.022542
21
1.469463
31
2.253941423214066
0
LINE
8
MINSPINTA
62
41
48
17.241935404716866
10
-2.022542
20
2.022542
30
1.6076360317559482
11
-2.022542
21
1.469463
31
2.131247417084778
0
LINE
8
MEDIONETWORK
62
41
48
26.585360154684444
10
-2.022542
20
2.022542
30
1.7621222445688967
11
-2.022542
21
1.469463
31
2.2000429144467946
0
LINE
8
ASSE
62
253
10
-2.022542
20
2.022542
30
1.70289
11
-2.022542
21
1.469463
31
2.2029795
0
LINE
8
INTRADOSSO
62
256
10
-2.022542
20
2.022542
30
1.469463
11
-2.022542
21
1.469463
31
2.022542
0
LINE
8
ESTRADOSSO
62
256
10
-2.022542
20
2.022542
30
1.936317
11
-2.022542
21
1.469463
31
2.383417
0
LINE
8
MAXSPINTA
62
81
48
41.88251151623734
10
-2.022542
20
1.469463
30
2.253941423214066
11
-2.022542
21
0.772542
31
2.497105879962771
0
LINE
8
MINSPINTA
62
41
48
14.160825675281894
10
-2.022542
20
1.469463
30
2.131247417084778
11
-2.022542
21
0.772542
31
2.499436308783688
0
LINE
8
MEDIONETWORK
62
41
48
22.886521965820783
10
-2.022542
20
1.469463
30
2.2000429144467946
11
-2.022542
21
0.772542
31
2.516132297980053
0
LINE
8
ASSE
62
253
10
-2.022542
20
1.469463
30
2.2029795
11
-2.022542
21
0.772542
31
2.534478
0
LINE
8
INTRADOSSO
62
256
10
-2.022542
20
1.469463
30
2.022542
11
-2.022542
21
0.772542
31
2.377641
0
LINE
8
ESTRADOSSO
62
256
10
-2.022542
20
1.469463
30
2.383417
11
-2.022542
21
0.772542
31
2.691315
0
LINE
8
MAXSPINTA
62
61
48
39.80471130032544
10
-2.022542
20
0.772542
30
2.497105879962771
11
-2.022542
21
0.0
31
2.585868325703093
0
LINE
8
MINSPINTA
62
21
48
12.699810512530219
10
-2.022542
20
0.772542
30
2.499436308783688
11
-2.022542
21
0.0
31
2.6305087866973715
0
LINE
8
MEDIONETWORK
62
41
48
21.068694704272403
10
-2.022542
20
0.772542
30
2.516132297980053
11
-2.022542
21
0.0
31
2.6301485462002043
0
LINE
8
ASSE
62
253
10
-2.022542
20
0.772542
30
2.534478
11
-2.022542
21
0.0
31
2.65
0
LINE
8
INTRADOSSO
62
256
10
-2.022542
20
0.772542
30
2.377641
11
-2.022542
21
0.0
31
2.5
0
LINE
8
ESTRADOSSO
62
256
10
-2.022542
20
0.772542
30
2.691315
11
-2.022542
21
0.0
31
2.8
0
LINE
8
MAXSPINTA
62
61
48
38.37334108362014
10
-1.469463
20
1.469463
30
2.281591256691337
11
-1.469463
21
0.772542
31
2.4677875379417085
0
LINE
8
MINSPINTA
62
21
48
13.074569060739492
10
-1.469463
20
1.469463
30
2.270412401933931
11
-1.469463
21
0.772542
31
2.6122812602414482
0
LINE
8
MEDIONETWORK
62
41
48
20.89725570897074
10
-1.469463
20
1.469463
30
2.270529628763451
11
-1.469463
21
0.772542
31
2.534733019425256
0
LINE
8
ASSE
62
253
10
-1.469463
20
1.469463
30
2.2029795
11
-1.469463
21
0.772542
31
2.534478
0
LINE
8
INTRADOSSO
62
256
10
-1.469463
20
1.469463
30
2.022542
11
-1.469463
21
0.772542
31
2.377641
0
LINE
8
ESTRADOSSO
62
256
10
-1.469463
20
1.469463
30
2.383417
11
-1.469463
21
0.772542
31
2.691315
0
LINE
8
MAXSPINTA
62
61
48
37.2292393412036
10
-1.469463
20
0.772542
30
2.4677875379417085
11
-1.469463
21
0.0
31
2.5387845761274237
0
LINE
8
MINSPINTA
62
21
48
11.897755202917873
10
-1.469463
20
0.772542
30
2.6122812602414482
11
-1.469463
21
0.0
31
2.740040627852191
0
LINE
8
MEDIONETWORK
62
41
48
19.702312230728932
10
-1.469463
20
0.772542
30
2.534733019425256
11
-1.469463
21
0.0
31
2.634440192850942
0
LINE
8
ASSE
62
253
10
-1.469463
20
0.772542
30
2.534478
11
-1.469463
21
0.0
31
2.65
0
LINE
8
INTRADOSSO
62
256
10
-1.469463
20
0.772542
30
2.377641
11
-1.469463
21
0.0
31
2.5
0
LINE
8
ESTRADOSSO
62
256
10
-1.469463
20
0.772542
30
2.691315
11
-1.469463
21
0.0
31
2.8
0
LINE
8
MAXSPINTA
62
61
48
35.3104805523021
10
-0.772542
20
0.772542
30
2.4639687279832523
11
-0.772542
21
0.0
31
2.5195753124555007
0
LINE
8
MINSPINTA
62
21
48
11.303819707564596
10
-0.772542
20
0.772542
30
2.671836920813775
11
-0.772542
21
0.0
31
2.7999999999999994
0
LINE
8
MEDIONETWORK
62
41
48
18.68411622216235
10
-0.772542
20
0.772542
30
2.553378906460108
11
-0.772542
21
0.0
31
2.6416889029099706
0
LINE
8
ASSE
62
253
10
-0.772542
20
0.772542
30
2.534478
11
-0.772542
21
0.0
31
2.65
0
LINE
8
INTRADOSSO
62
256
10
-0.772542
20
0.772542
30
2.377641
11
-0.772542
21
0.0
31
2.5
0
LINE
8
ESTRADOSSO
62
256
10
-0.772542
20
0.772542
30
2.691315
11
-0.772542
21
0.0
31
2.8
0
LINE
8
MAXSPINTA
62
61
48
32.06414846158013
10
-2.5
20
0.772542
30
2.586871304027939
11
-2.022542
21
0.772542
31
2.497105879962771
0
LINE
8
MINSPINTA
62
21
48
10.297085903040022
10
-2.5
20
0.772542
30
2.377641
11
-2.022542
21
0.772542
31
2.499436308783688
0
LINE
8
MEDIONETWORK
62
41
48
16.629364949270744
10
-2.5
20
0.772542
30
2.5396649893084646
11
-2.022542
21
0.772542
31
2.516132297980053
0
LINE
8
ASSE
62
253
10
-2.5
20
0.772542
30
2.534478
11
-2.022542
21
0.772542
31
2.534478
0
LINE
8
INTRADOSSO
62
256
10
-2.5
20
0.772542
30
2.377641
11
-2.022542
21
0.772542
31
2.377641
0
LINE
8
ESTRADOSSO
62
256
10
-2.5
20
0.772542
30
2.691315
11
-2.022542
21
0.772542
31
2.691315
0
LINE
8
MAXSPINTA
62
61
48
31.556305529833587
10
-2.022542
20
0.772542
30
2.497105879962771
11
-1.469463
21
0.772542
31
2.4677875379417085
0
LINE
8
MINSPINTA
62
21
48
10.183131822753435
10
-2.022542
20
0.772542
30
2.499436308783688
11
-1.469463
21
0.772542
31
2.6122812602414482
0
LINE
8
MEDIONETWORK
62
41
48
16.618593542798223
10
-2.022542
20
0.772542
30
2.516132297980053
11
-1.469463
21
0.772542
31
2.534733019425256
0
LINE
8
ASSE
62
253
10
-2.022542
20
0.772542
30
2.534478
11
-1.469463
21
0.772542
31
2.534478
0
LINE
8
INTRADOSSO
62
256
10
-2.022542
20
0.772542
30
2.377641
11
-1.469463
21
0.772542
31
2.377641
0
LINE
8
ESTRADOSSO
62
256
10
-2.022542
20
0.772542
30
2.691315
11
-1.469463
21
0.772542
31
2.691315
0
LINE
8
MAXSPINTA
62
61
48
31.512535406950207
10
-1.469463
20
0.772542
30
2.4677875379417085
11
-0.772542
21
0.772542
31
2.4639687279832523
0
LINE
8
MINSPINTA
62
21
48
10.013938922987219
10
-1.469463
20
0.772542
30
2.6122812602414482
11
-0.772542
21
0.772542
31
2.671836920813775
0
LINE
8
MEDIONETWORK
62
41
48
16.615146673698163
10
-1.469463
20
0.772542
30
2.534733019425256
11
-0.772542
21
0.772542
31
2.553378906460108
0
LINE
8
ASSE
62
253
10
-1.469463
20
0.772542
30
2.534478
11
-0.772542
21
0.772542
31
2.534478
0
LINE
8
INTRADOSSO
62
256
10
-1.469463
20
0.772542
30
2.377641
11
-0.772542
21
0.772542
31
2.377641
0
LINE
8
ESTRADOSSO
62
256
10
-1.469463
20
0.772542
30
2.691315
11
-0.772542
21
0.772542
31
2.691315
0
LINE
8
MAXSPINTA
62
61
48
31.68564288708428
10
-2.5
20
2.022542
30
1.876589678337222
11
-2.022542
21
2.022542
31
1.9267730159413818
0
LINE
8
MINSPINTA
62
21
48
10.386977209056138
10
-2.5
20
2.022542
30
1.469463
11
-2.022542
21
2.022542
31
1.6076360317559482
0
LINE
8
MEDIONETWORK
62
41
48
16.734602894834747
10
-2.5
20
2.022542
30
1.7033405372597699
11
-2.022542
21
2.022542
31
1.7621222445688967
0
LINE
8
ASSE
62
253
10
-2.5
20
2.022542
30
1.70289
11
-2.022542
21
2.022542
31
1.70289
0
LINE
8
INTRADOSSO
62
256
10
-2.5
20
2.022542
30
1.469463
11
-2.022542
21
2.022542
31
1.469463
0
LINE
8
ESTRADOSSO
62
256
10
-2.5
20
2.022542
30
1.936317
11
-2.022542
21
2.022542
31
1.936317
0
LINE
8
MAXSPINTA
62
61
48
35.87016863286608
10
-2.5
20
2.377641
30
1.4003767716463065
11
-2.377641
21
2.377641
31
1.4669164496418872
0
LINE
8
MINSPINTA
62
21
48
10.639383172289731
10
-2.5
20
2.377641
30
0.772542
11
-2.377641
21
2.377641
31
0.8178411083924605
0
LINE
8
MEDIONETWORK
62
41
48
18.12535852036265
10
-2.5
20
2.377641
30
1.0518338151192832
11
-2.377641
21
2.377641
31
1.1052951598930607
0
LINE
8
ASSE
62
253
10
-2.5
20
2.377641
30
1.1256665
11
-2.377641
21
2.377641
31
1.1256665
0
LINE
8
INTRADOSSO
62
256
10
-2.5
20
2.377641
30
0.772542
11
-2.377641
21
2.377641
31
0.772542
0
LINE
8
ESTRADOSSO
62
256
10
-2.5
20
2.377641
30
1.478791
11
-2.377641
21
2.377641
31
1.478791
0
LINE
8
MAXSPINTA
62
61
48
31.656370949464222
10
-2.5
20
1.469463
30
2.299687571956614
11
-2.022542
21
1.469463
31
2.253941423214066
0
LINE
8
MINSPINTA
62
21
48
10.232905988471373
10
-2.5
20
1.469463
30
2.022542
11
-2.022542
21
1.469463
31
2.131247417084778
0
LINE
8
MEDIONETWORK
62
41
48
16.60933805144011
10
-2.5
20
1.469463
30
2.1981189410630795
11
-2.022542
21
1.469463
31
2.2000429144467946
0
LINE
8
ASSE
62
253
10
-2.5
20
1.469463
30
2.2029795
11
-2.022542
21
1.469463
31
2.2029795
0
LINE
8
INTRADOSSO
62
256
10
-2.5
20
1.469463
30
2.022542
11
-2.022542
21
1.469463
31
2.022542
0
LINE
8
ESTRADOSSO
62
256
10
-2.5
20
1.469463
30
2.383417
11
-2.022542
21
1.469463
31
2.383417
0
LINE
8
MAXSPINTA
62
61
48
31.551416107408848
10
-2.022542
20
1.469463
30
2.253941423214066
11
-1.469463
21
1.469463
31
2.281591256691337
0
LINE
8
MINSPINTA
62
21
48
10.288576723777641
10
-2.022542
20
1.469463
30
2.131247417084778
11
-1.469463
21
1.469463
31
2.270412401933931
0
LINE
8
MEDIONETWORK
62
41
48
16.74354346434905
10
-2.022542
20
1.469463
30
2.2000429144467946
11
-1.469463
21
1.469463
31
2.270529628763451
0
LINE
8
ASSE
62
253
10
-2.022542
20
1.469463
30
2.2029795
11
-1.469463
21
1.469463
31
2.2029795
0
LINE
8
INTRADOSSO
62
256
10
-2.022542
20
1.469463
30
2.022542
11
-1.469463
21
1.469463
31
2.022542
0
LINE
8
ESTRADOSSO
62
256
10
-2.022542
20
1.469463
30
2.383417
11
-1.469463
21
1.469463
31
2.383417
0
LINE
8
MAXSPINTA
62
61
48
32.24829169246858
10
-2.5
20
2.5
30
1.2609519999999999
11
-2.377641
21
2.5
31
1.4003767716463067
0
LINE
8
MINSPINTA
62
61
48
27.5028317587333
10
-2.5
20
2.5
30
0.28809957754805454
11
-2.377641
21
2.5
31
0.772542
0
LINE
8
MEDIONETWORK
62
61
48
32.98755124627657
10
-2.5
20
2.5
30
0.7132504242762652
11
-2.377641
21
2.5
31
1.0518338150147797
0
LINE
8
ASSE
62
253
10
-2.5
20
2.5
30
0.630476
11
-2.377641
21
2.5
31
1.1256665
0
LINE
8
INTRADOSSO
62
256
10
-2.5
20
2.5
30
0.0
11
-2.377641
21
2.5
31
0.772542
0
LINE
8
ESTRADOSSO
62
256
10
-2.5
20
2.5
30
1.260952
11
-2.377641
21
2.5
31
1.478791
0
LINE
8
MAXSPINTA
62
61
48
35.58397315989655
10
-2.377641
20
2.5
30
1.4003767716463067
11
-2.022542
21
2.5
31
1.8765896783372222
0
LINE
8
MINSPINTA
62
41
48
14.835267687024722
10
-2.377641
20
2.5
30
0.772542
11
-2.022542
21
2.5
31
1.469463
0
LINE
8
MEDIONETWORK
62
41
48
23.427040636560495
10
-2.377641
20
2.5
30
1.0518338150147797
11
-2.022542
21
2.5
31
1.7033405362877634
0
LINE
8
ASSE
62
253
10
-2.377641
20
2.5
30
1.1256665
11
-2.022542
21
2.5
31
1.70289
0
LINE
8
INTRADOSSO
62
256
10
-2.377641
20
2.5
30
0.772542
11
-2.022542
21
2.5
31
1.469463
0
LINE
8
ESTRADOSSO
62
256
10
-2.377641
20
2.5
30
1.478791
11
-2.022542
21
2.5
31
1.936317
0
LINE
8
MAXSPINTA
62
61
48
26.781607189701454
10
-2.022542
20
2.5
30
1.8765896783372222
11
-1.469463
21
2.5
31
2.299687571956614
0
LINE
8
MINSPINTA
62
21
48
9.524828475993504
10
-2.022542
20
2.5
30
1.469463
11
-1.469463
21
2.5
31
2.022542
0
LINE
8
MEDIONETWORK
62
41
48
15.043094485435795
10
-2.022542
20
2.5
30
1.7033405362877634
11
-1.469463
21
2.5
31
2.198118932925156
0
LINE
8
ASSE
62
253
10
-2.022542
20
2.5
30
1.70289
11
-1.469463
21
2.5
31
2.2029795
0
LINE
8
INTRADOSSO
62
256
10
-2.022542
20
2.5
30
1.469463
11
-1.469463
21
2.5
31
2.022542
0
LINE
8
ESTRADOSSO
62
256
10
-2.022542
20
2.5
30
1.936317
11
-1.469463
21
2.5
31
2.383417
0
LINE
8
MAXSPINTA
62
41
48
23.006519691433628
10
-1.469463
20
2.5
30
2.299687571956614
11
-0.772542
21
2.5
31
2.586871304027939
0
LINE
8
MINSPINTA
62
21
48
7.558946739149469
10
-1.469463
20
2.5
30
2.022542
11
-0.772542
21
2.5
31
2.377641
0
LINE
8
MEDIONETWORK
62
21
48
12.485554763342142
10
-1.469463
20
2.5
30
2.198118932925156
11
-0.772542
21
2.5
31
2.5396649711697465
0
LINE
8
ASSE
62
253
10
-1.469463
20
2.5
30
2.2029795
11
-0.772542
21
2.5
31
2.534478
0
LINE
8
INTRADOSSO
62
256
10
-1.469463
20
2.5
30
2.022542
11
-0.772542
21
2.5
31
2.377641
0
LINE
8
ESTRADOSSO
62
256
10
-1.469463
20
2.5
30
2.383417
11
-0.772542
21
2.5
31
2.691315
0
LINE
8
MAXSPINTA
62
41
48
21.454352551503604
10
-0.772542
20
2.5
30
2.586871304027939
11
-0.0
21
2.5
31
2.6884400404274467
0
LINE
8
MINSPINTA
62
21
48
6.819024811265252
10
-0.772542
20
2.5
30
2.377641
11
-0.0
21
2.5
31
2.5
0
LINE
8
MEDIONETWORK
62
21
48
11.345789182905044
10
-0.772542
20
2.5
30
2.5396649711697465
11
-0.0
21
2.5
31
2.6595666090188947
0
LINE
8
ASSE
62
253
10
-0.772542
20
2.5
30
2.534478
11
-0.0
21
2.5
31
2.65
0
LINE
8
INTRADOSSO
62
256
10
-0.772542
20
2.5
30
2.377641
11
-0.0
21
2.5
31
2.5
0
LINE
8
ESTRADOSSO
62
256
10
-0.772542
20
2.5
30
2.691315
11
-0.0
21
2.5
31
2.8
0
LINE
8
MAXSPINTA
62
81
48
45.945247019473165
10
-2.022542
20
2.022542
30
1.9267730159413818
11
-1.469463
21
2.022542
31
2.253941423214066
0
LINE
8
MINSPINTA
62
41
48
17.241935404716866
10
-2.022542
20
2.022542
30
1.6076360317559482
11
-1.469463
21
2.022542
31
2.131247417084778
0
LINE
8
MEDIONETWORK
62
41
48
26.585360031942415
10
-2.022542
20
2.022542
30
1.7621222445688967
11
-1.469463
21
2.022542
31
2.200042909199958
0
LINE
8
ASSE
62
253
10
-2.022542
20
2.022542
30
1.70289
11
-1.469463
21
2.022542
31
2.2029795
0
LINE
8
INTRADOSSO
62
256
10
-2.022542
20
2.022542
30
1.469463
11
-1.469463
21
2.022542
31
2.022542
0
LINE
8
ESTRADOSSO
62
256
10
-2.022542
20
2.022542
30
1.936317
11
-1.469463
21
2.022542
31
2.383417
0
LINE
8
MAXSPINTA
62
81
48
41.88251151623733
10
-1.469463
20
2.022542
30
2.253941423214066
11
-0.772542
21
2.022542
31
2.4971058799627706
0
LINE
8
MINSPINTA
62
41
48
14.160825675281892
10
-1.469463
20
2.022542
30
2.131247417084778
11
-0.772542
21
2.022542
31
2.4994363087836877
0
LINE
8
MEDIONETWORK
62
41
48
22.886521860612337
10
-1.469463
20
2.022542
30
2.200042909199958
11
-0.772542
21
2.022542
31
2.516132284216534
0
LINE
8
ASSE
62
253
10
-1.469463
20
2.022542
30
2.2029795
11
-0.772542
21
2.022542
31
2.534478
0
LINE
8
INTRADOSSO
62
256
10
-1.469463
20
2.022542
30
2.022542
11
-0.772542
21
2.022542
31
2.377641
0
LINE
8
ESTRADOSSO
62
256
10
-1.469463
20
2.022542
30
2.383417
11
-0.772542
21
2.022542
31
2.691315
0
LINE
8
MAXSPINTA
62
61
48
39.804711300325444
10
-0.772542
20
2.022542
30
2.4971058799627706
11
-0.0
21
2.022542
31
2.585868325703092
0
LINE
8
MINSPINTA
62
21
48
12.699810512530219
10
-0.772542
20
2.022542
30
2.4994363087836877
11
-0.0
21
2.022542
31
2.630508786697371
0
LINE
8
MEDIONETWORK
62
41
48
21.068694663684877
10
-0.772542
20
2.022542
30
2.516132284216534
11
-0.0
21
2.022542
31
2.630148522133048
0
LINE
8
ASSE
62
253
10
-0.772542
20
2.022542
30
2.534478
11
-0.0
21
2.022542
31
2.65
0
LINE
8
INTRADOSSO
62
256
10
-0.772542
20
2.022542
30
2.377641
11
-0.0
21
2.022542
31
2.5
0
LINE
8
ESTRADOSSO
62
256
10
-0.772542
20
2.022542
30
2.691315
11
-0.0
21
2.022542
31
2.8
0
LINE
8
MAXSPINTA
62
61
48
38.373341083620126
10
-1.469463
20
1.469463
30
2.281591256691337
11
-0.772542
21
1.469463
31
2.4677875379417076
0
LINE
8
MINSPINTA
62
21
48
13.074569060739492
10
-1.469463
20
1.469463
30
2.270412401933931
11
-0.772542
21
1.469463
31
2.612281260241448
0
LINE
8
MEDIONETWORK
62
41
48
20.8972556302537
10
-1.469463
20
1.469463
30
2.270529628763451
11
-0.772542
21
1.469463
31
2.5347330115052236
0
LINE
8
ASSE
62
253
10
-1.469463
20
1.469463
30
2.2029795
11
-0.772542
21
1.469463
31
2.534478
0
LINE
8
INTRADOSSO
62
256
10
-1.469463
20
1.469463
30
2.022542
11
-0.772542
21
1.469463
31
2.377641
0
LINE
8
ESTRADOSSO
62
256
10
-1.469463
20
1.469463
30
2.383417
11
-0.772542
21
1.469463
31
2.691315
0
LINE
8
MAXSPINTA
62
61
48
37.2292393412036
10
-0.772542
20
1.469463
30
2.4677875379417076
11
-0.0
21
1.469463
31
2.538784576127423
0
LINE
8
MINSPINTA
62
21
48
11.897755202917871
10
-0.772542
20
1.469463
30
2.612281260241448
11
-0.0
21
1.469463
31
2.7400406278521903
0
LINE
8
MEDIONETWORK
62
41
48
19.70231220060569
10
-0.772542
20
1.469463
30
2.5347330115052236
11
-0.0
21
1.469463
31
2.6344401756267537
0
LINE
8
ASSE
62
253
10
-0.772542
20
1.469463
30
2.534478
11
-0.0
21
1.469463
31
2.65
0
LINE
8
INTRADOSSO
62
256
10
-0.772542
20
1.469463
30
2.377641
11
-0.0
21
1.469463
31
2.5
0
LINE
8
ESTRADOSSO
62
256
10
-0.772542
20
1.469463
30
2.691315
11
-0.0
21
1.469463
31
2.8
0
LINE
8
MAXSPINTA
62
61
48
35.310480552302096
10
-0.772542
20
0.772542
30
2.4639687279832523
11
-0.0
21
0.772542
31
2.5195753124555
0
LINE
8
MINSPINTA
62
21
48
11.303819707564596
10
-0.772542
20
0.772542
30
2.671836920813775
11
-0.0
21
0.772542
31
2.799999999999999
0
LINE
8
MEDIONETWORK
62
41
48
18.68411619770237
10
-0.772542
20
0.772542
30
2.553378906460108
11
-0.0
21
0.772542
31
2.6416888939469154
0
LINE
8
ASSE
62
253
10
-0.772542
20
0.772542
30
2.534478
11
-0.0
21
0.772542
31
2.65
0
LINE
8
INTRADOSSO
62
256
10
-0.772542
20
0.772542
30
2.377641
11
-0.0
21
0.772542
31
2.5
0
LINE
8
ESTRADOSSO
62
256
10
-0.772542
20
0.772542
30
2.691315
11
-0.0
21
0.772542
31
2.8
0
LINE
8
MAXSPINTA
62
61
48
32.231023526629535
10
-0.0
20
2.5
30
2.6884400404274467
11
-0.0
21
2.022542
31
2.585868325703092
0
LINE
8
MINSPINTA
62
21
48
10.343598576382012
10
-0.0
20
2.5
30
2.5
11
-0.0
21
2.022542
31
2.630508786697371
0
LINE
8
MEDIONETWORK
62
41
48
16.64069995135193
10
-0.0
20
2.5
30
2.6595666090188947
11
-0.0
21
2.022542
31
2.630148522133048
0
LINE
8
ASSE
62
253
10
-0.0
20
2.5
30
2.65
11
-0.0
21
2.022542
31
2.65
0
LINE
8
INTRADOSSO
62
256
10
-0.0
20
2.5
30
2.5
11
-0.0
21
2.022542
31
2.5
0
LINE
8
ESTRADOSSO
62
256
10
-0.0
20
2.5
30
2.8
11
-0.0
21
2.022542
31
2.8
0
LINE
8
MAXSPINTA
62
61
48
31.62604264477048
10
-0.0
20
2.022542
30
2.585868325703092
11
-0.0
21
1.469463
31
2.538784576127423
0
LINE
8
MINSPINTA
62
21
48
10.171351943529592
10
-0.0
20
2.022542
30
2.630508786697371
11
-0.0
21
1.469463
31
2.7400406278521903
0
LINE
8
MEDIONETWORK
62
41
48
16.609703223176254
10
-0.0
20
2.022542
30
2.630148522133048
11
-0.0
21
1.469463
31
2.6344401756267537
0
LINE
8
ASSE
62
253
10
-0.0
20
2.022542
30
2.65
11
-0.0
21
1.469463
31
2.65
0
LINE
8
INTRADOSSO
62
256
10
-0.0
20
2.022542
30
2.5
11
-0.0
21
1.469463
31
2.5
0
LINE
8
ESTRADOSSO
62
256
10
-0.0
20
2.022542
30
2.8
11
-0.0
21
1.469463
31
2.8
0
LINE
8
MAXSPINTA
62
61
48
31.52403024984409
10
-0.0
20
1.469463
30
2.538784576127423
11
-0.0
21
0.772542
31
2.5195753124555
0
LINE
8
MINSPINTA
62
21
48
10.014432700041166
10
-0.0
20
1.469463
30
2.7400406278521903
11
-0.0
21
0.772542
31
2.799999999999999
0
LINE
8
MEDIONETWORK
62
41
48
16.610101588162042
10
-0.0
20
1.469463
30
2.6344401756267537
11
-0.0
21
0.772542
31
2.6416888939469154
0
LINE
8
ASSE
62
253
10
-0.0
20
1.469463
30
2.65
11
-0.0
21
0.772542
31
2.65
0
LINE
8
INTRADOSSO
62
256
10
-0.0
20
1.469463
30
2.5
11
-0.0
21
0.772542
31
2.5
0
LINE
8
ESTRADOSSO
62
256
10
-0.0
20
1.469463
30
2.8
11
-0.0
21
0.772542
31
2.8
0
LINE
8
MAXSPINTA
62
61
48
31.522176967157446
10
-0.0
20
0.772542
30
2.5195753124555
11
-0.0
21
0.0
31
2.5000000000000004
0
LINE
8
MINSPINTA
62
21
48
9.987341323136718
10
-0.0
20
0.772542
30
2.799999999999999
11
-0.0
21
0.0
31
2.7658083771450124
0
LINE
8
MEDIONETWORK
62
41
48
16.61944208183598
10
-0.0
20
0.772542
30
2.6416888939469154
11
-0.0
21
0.0
31
2.6145585178985766
0
LINE
8
ASSE
62
253
10
-0.0
20
0.772542
30
2.65
11
-0.0
21
0.0
31
2.65
0
LINE
8
INTRADOSSO
62
256
10
-0.0
20
0.772542
30
2.5
11
-0.0
21
0.0
31
2.5
0
LINE
8
ESTRADOSSO
62
256
10
-0.0
20
0.772542
30
2.8
11
-0.0
21
0.0
31
2.8
0
LINE
8
MAXSPINTA
62
61
48
32.06414846158013
10
-0.772542
20
2.5
30
2.586871304027939
11
-0.772542
21
2.022542
31
2.4971058799627706
0
LINE
8
MINSPINTA
62
21
48
10.29708590304002
10
-0.772542
20
2.5
30
2.377641
11
-0.772542
21
2.022542
31
2.4994363087836877
0
LINE
8
MEDIONETWORK
62
41
48
16.629364941778345
10
-0.772542
20
2.5
30
2.5396649711697465
11
-0.772542
21
2.022542
31
2.516132284216534
0
LINE
8
ASSE
62
253
10
-0.772542
20
2.5
30
2.534478
11
-0.772542
21
2.022542
31
2.534478
0
LINE
8
INTRADOSSO
62
256
10
-0.772542
20
2.5
30
2.377641
11
-0.772542
21
2.022542
31
2.377641
0
LINE
8
ESTRADOSSO
62
256
10
-0.772542
20
2.5
30
2.691315
11
-0.772542
21
2.022542
31
2.691315
0
LINE
8
MAXSPINTA
62
61
48
31.556305529833594
10
-0.772542
20
2.022542
30
2.4971058799627706
11
-0.772542
21
1.469463
31
2.4677875379417076
0
LINE
8
MINSPINTA
62
21
48
10.183131822753435
10
-0.772542
20
2.022542
30
2.4994363087836877
11
-0.772542
21
1.469463
31
2.612281260241448
0
LINE
8
MEDIONETWORK
62
41
48
16.618593548696577
10
-0.772542
20
2.022542
30
2.516132284216534
11
-0.772542
21
1.469463
31
2.5347330115052236
0
LINE
8
ASSE
62
253
10
-0.772542
20
2.022542
30
2.534478
11
-0.772542
21
1.469463
31
2.534478
0
LINE
8
INTRADOSSO
62
256
10
-0.772542
20
2.022542
30
2.377641
11
-0.772542
21
1.469463
31
2.377641
0
LINE
8
ESTRADOSSO
62
256
10
-0.772542
20
2.022542
30
2.691315
11
-0.772542
21
1.469463
31
2.691315
0
LINE
8
MAXSPINTA
62
61
48
31.512535406950207
10
-0.772542
20
1.469463
30
2.4677875379417076
11
-0.772542
21
0.772542
31
2.4639687279832523
0
LINE
8
MINSPINTA
62
21
48
10.013938922987219
10
-0.772542
20
1.469463
30
2.612281260241448
11
-0.772542
21
0.772542
31
2.671836920813775
0
LINE
8
MEDIONETWORK
62
41
48
16.615146678746363
10
-0.772542
20
1.469463
30
2.5347330115052236
11
-0.772542
21
0.772542
31
2.553378906460108
0
LINE
8
ASSE
62
253
10
-0.772542
20
1.469463
30
2.534478
11
-0.772542
21
0.772542
31
2.534478
0
LINE
8
INTRADOSSO
62
256
10
-0.772542
20
1.469463
30
2.377641
11
-0.772542
21
0.772542
31
2.377641
0
LINE
8
ESTRADOSSO
62
256
10
-0.772542
20
1.469463
30
2.691315
11
-0.772542
21
0.772542
31
2.691315
0
LINE
8
MAXSPINTA
62
61
48
31.68564288708428
10
-2.022542
20
2.5
30
1.8765896783372222
11
-2.022542
21
2.022542
31
1.9267730159413818
0
LINE
8
MINSPINTA
62
21
48
10.386977209056138
10
-2.022542
20
2.5
30
1.469463
11
-2.022542
21
2.022542
31
1.6076360317559482
0
LINE
8
MEDIONETWORK
62
41
48
16.73460289896639
10
-2.022542
20
2.5
30
1.7033405362877634
11
-2.022542
21
2.022542
31
1.7621222445688967
0
LINE
8
ASSE
62
253
10
-2.022542
20
2.5
30
1.70289
11
-2.022542
21
2.022542
31
1.70289
0
LINE
8
INTRADOSSO
62
256
10
-2.022542
20
2.5
30
1.469463
11
-2.022542
21
2.022542
31
1.469463
0
LINE
8
ESTRADOSSO
62
256
10
-2.022542
20
2.5
30
1.936317
11
-2.022542
21
2.022542
31
1.936317
0
LINE
8
MAXSPINTA
62
61
48
35.870168632866054
10
-2.377641
20
2.5
30
1.4003767716463067
11
-2.377641
21
2.377641
31
1.4669164496418872
0
LINE
8
MINSPINTA
62
21
48
10.639383172289731
10
-2.377641
20
2.5
30
0.772542
11
-2.377641
21
2.377641
31
0.8178411083924605
0
LINE
8
MEDIONETWORK
62
41
48
18.12535852604215
10
-2.377641
20
2.5
30
1.0518338150147797
11
-2.377641
21
2.377641
31
1.1052951598930607
0
LINE
8
ASSE
62
253
10
-2.377641
20
2.5
30
1.1256665
11
-2.377641
21
2.377641
31
1.1256665
0
LINE
8
INTRADOSSO
62
256
10
-2.377641
20
2.5
30
0.772542
11
-2.377641
21
2.377641
31
0.772542
0
LINE
8
ESTRADOSSO
62
256
10
-2.377641
20
2.5
30
1.478791
11
-2.377641
21
2.377641
31
1.478791
0
LINE
8
MAXSPINTA
62
61
48
31.656370949464222
10
-1.469463
20
2.5
30
2.299687571956614
11
-1.469463
21
2.022542
31
2.253941423214066
0
LINE
8
MINSPINTA
62
21
48
10.232905988471373
10
-1.469463
20
2.5
30
2.022542
11
-1.469463
21
2.022542
31
2.131247417084778
0
LINE
8
MEDIONETWORK
62
41
48
16.60933805184537
10
-1.469463
20
2.5
30
2.198118932925156
11
-1.469463
21
2.022542
31
2.200042909199958
0
LINE
8
ASSE
62
253
10
-1.469463
20
2.5
30
2.2029795
11
-1.469463
21
2.022542
31
2.2029795
0
LINE
8
INTRADOSSO
62
256
10
-1.469463
20
2.5
30
2.022542
11
-1.469463
21
2.022542
31
2.022542
0
LINE
8
ESTRADOSSO
62
256
10
-1.469463
20
2.5
30
2.383417
11
-1.469463
21
2.022542
31
2.383417
0
LINE
8
MAXSPINTA
62
61
48
31.551416107408848
10
-1.469463
20
2.022542
30
2.253941423214066
11
-1.469463
21
1.469463
31
2.281591256691337
0
LINE
8
MINSPINTA
62
21
48
10.288576723777641
10
-1.469463
20
2.022542
30
2.131247417084778
11
-1.469463
21
1.469463
31
2.270412401933931
0
LINE
8
MEDIONETWORK
62
41
48
16.743543484268653
10
-1.469463
20
2.022542
30
2.200042909199958
11
-1.469463
21
1.469463
31
2.270529628763451
0
LINE
8
ASSE
62
253
10
-1.469463
20
2.022542
30
2.2029795
11
-1.469463
21
1.469463
31
2.2029795
0
LINE
8
INTRADOSSO
62
256
10
-1.469463
20
2.022542
30
2.022542
11
-1.469463
21
1.469463
31
2.022542
0
LINE
8
ESTRADOSSO
62
256
10
-1.469463
20
2.022542
30
2.383417
11
-1.469463
21
1.469463
31
2.383417
0
LINE
8
MAXSPINTA
62
61
48
32.36081956429606
10
-0.0
20
2.977458
30
2.8
11
-0.0
21
2.5
31
2.6884400404274467
0
LINE
8
MINSPINTA
62
21
48
11.438649805451345
10
-0.0
20
2.977458
30
2.2323186902381047
11
-0.0
21
2.5
31
2.5
0
LINE
8
MEDIONETWORK
62
41
48
16.616621969347886
10
-0.0
20
2.977458
30
2.645294436052074
11
-0.0
21
2.5
31
2.6595666090188947
0
LINE
8
ASSE
62
253
10
-0.0
20
2.977458
30
2.4
11
-0.0
21
2.5
31
2.65
0
LINE
8
INTRADOSSO
62
256
10
-0.0
20
2.977458
30
2.0
11
-0.0
21
2.5
31
2.5
0
LINE
8
ESTRADOSSO
62
256
10
-0.0
20
2.977458
30
2.8
11
-0.0
21
2.5
31
2.8
0
LINE
8
MAXSPINTA
62
61
48
32.2571997545354
10
-0.772542
20
2.977458
30
2.691315
11
-0.772542
21
2.5
31
2.586871304027939
0
LINE
8
MINSPINTA
62
21
48
11.242188812154776
10
-0.772542
20
2.977458
30
2.129750649504539
11
-0.772542
21
2.5
31
2.377641
0
LINE
8
MEDIONETWORK
62
41
48
16.614688759993854
10
-0.772542
20
2.977458
30
2.527392783695311
11
-0.772542
21
2.5
31
2.5396649711697465
0
LINE
8
ASSE
62
253
10
-0.772542
20
2.977458
30
2.284478
11
-0.772542
21
2.5
31
2.534478
0
LINE
8
INTRADOSSO
62
256
10
-0.772542
20
2.977458
30
1.877641
11
-0.772542
21
2.5
31
2.377641
0
LINE
8
ESTRADOSSO
62
256
10
-0.772542
20
2.977458
30
2.691315
11
-0.772542
21
2.5
31
2.691315
0
LINE
8
MAXSPINTA
62
61
48
31.992936709745017
10
-1.469463
20
2.977458
30
2.383417
11
-1.469463
21
2.5
31
2.299687571956614
0
LINE
8
MINSPINTA
62
21
48
10.73774299197296
10
-1.469463
20
2.977458
30
1.8326480628244557
11
-1.469463
21
2.5
31
2.022542
0
LINE
8
MEDIONETWORK
62
41
48
16.617712664755196
10
-1.469463
20
2.977458
30
2.1828333351112383
11
-1.469463
21
2.5
31
2.198118932925156
0
LINE
8
ASSE
62
253
10
-1.469463
20
2.977458
30
1.9529795
11
-1.469463
21
2.5
31
2.2029795
0
LINE
8
INTRADOSSO
62
256
10
-1.469463
20
2.977458
30
1.522542
11
-1.469463
21
2.5
31
2.022542
0
LINE
8
ESTRADOSSO
62
256
10
-1.469463
20
2.977458
30
2.383417
11
-1.469463
21
2.5
31
2.383417
0
LINE
8
MAXSPINTA
62
61
48
31.757665189815093
10
-2.022542
20
2.977458
30
1.936317
11
-2.022542
21
2.5
31
1.8765896783372222
0
LINE
8
MINSPINTA
62
21
48
10.075898725113683
10
-2.022542
20
2.977458
30
1.4022680724764802
11
-2.022542
21
2.5
31
1.469463
0
LINE
8
MEDIONETWORK
62
41
48
16.97304072332391
10
-2.022542
20
2.977458
30
1.8038240870786382
11
-2.022542
21
2.5
31
1.7033405362877634
0
LINE
8
ASSE
62
253
10
-2.022542
20
2.977458
30
1.45289
11
-2.022542
21
2.5
31
1.70289
0
LINE
8
INTRADOSSO
62
256
10
-2.022542
20
2.977458
30
0.969463
11
-2.022542
21
2.5
31
1.469463
0
LINE
8
ESTRADOSSO
62
256
10
-2.022542
20
2.977458
30
1.936317
11
-2.022542
21
2.5
31
1.936317
0
LINE
8
MAXSPINTA
62
81
48
41.12513005832927
10
-2.377641
20
2.977458
30
1.0
11
-2.377641
21
2.5
31
1.4003767716463067
0
LINE
8
MINSPINTA
62
21
48
11.051941138663777
10
-2.377641
20
2.977458
30
1.0
11
-2.377641
21
2.5
31
0.772542
0
LINE
8
MEDIONETWORK
62
41
48
16.706792188897175
10
-2.377641
20
2.977458
30
1.0
11
-2.377641
21
2.5
31
1.0518338150147797
0
LINE
8
ASSE
62
253
10
-2.377641
20
2.977458
30
0.636271
11
-2.377641
21
2.5
31
1.1256665
0
LINE
8
INTRADOSSO
62
256
10
-2.377641
20
2.977458
30
0.272542
11
-2.377641
21
2.5
31
0.772542
0
LINE
8
ESTRADOSSO
62
256
10
-2.377641
20
2.977458
30
1.0
11
-2.377641
21
2.5
31
1.478791
0
LINE
8
MAXSPINTA
62
61
48
32.2571997545354
10
-2.977458
20
0.772542
30
2.691315
11
-2.5
21
0.772542
31
2.586871304027939
0
LINE
8
MINSPINTA
62
21
48
11.242188812154781
10
-2.977458
20
0.772542
30
2.129750649504538
11
-2.5
21
0.772542
31
2.377641
0
LINE
8
MEDIONETWORK
62
41
48
16.614688756670606
10
-2.977458
20
0.772542
30
2.5273928055519965
11
-2.5
21
0.772542
31
2.5396649893084646
0
LINE
8
ASSE
62
253
10
-2.977458
20
0.772542
30
2.284478
11
-2.5
21
0.772542
31
2.534478
0
LINE
8
INTRADOSSO
62
256
10
-2.977458
20
0.772542
30
1.877641
11
-2.5
21
0.772542
31
2.377641
0
LINE
8
ESTRADOSSO
62
256
10
-2.977458
20
0.772542
30
2.691315
11
-2.5
21
0.772542
31
2.691315
0
LINE
8
MAXSPINTA
62
61
48
31.992936709745017
10
-2.977458
20
1.469463
30
2.383417
11
-2.5
21
1.469463
31
2.299687571956614
0
LINE
8
MINSPINTA
62
21
48
10.737742991972956
10
-2.977458
20
1.469463
30
1.8326480628244561
11
-2.5
21
1.469463
31
2.022542
0
LINE
8
MEDIONETWORK
62
41
48
16.61771266203745
10
-2.977458
20
1.469463
30
2.182833345690737
11
-2.5
21
1.469463
31
2.1981189410630795
0
LINE
8
ASSE
62
253
10
-2.977458
20
1.469463
30
1.9529795
11
-2.5
21
1.469463
31
2.2029795
0
LINE
8
INTRADOSSO
62
256
10
-2.977458
20
1.469463
30
1.522542
11
-2.5
21
1.469463
31
2.022542
0
LINE
8
ESTRADOSSO
62
256
10
-2.977458
20
1.469463
30
2.383417
11
-2.5
21
1.469463
31
2.383417
0
LINE
8
MAXSPINTA
62
61
48
31.757665189815096
10
-2.977458
20
2.022542
30
1.936317
11
-2.5
21
2.022542
31
1.876589678337222
0
LINE
8
MINSPINTA
62
21
48
10.075898725113683
10
-2.977458
20
2.022542
30
1.40226807247648
11
-2.5
21
2.022542
31
1.469463
0
LINE
8
MEDIONETWORK
62
41
48
16.973040706012654
10
-2.977458
20
2.022542
30
1.8038240856342607
11
-2.5
21
2.022542
31
1.7033405372597699
0
LINE
8
ASSE
62
253
10
-2.977458
20
2.022542
30
1.45289
11
-2.5
21
2.022542
31
1.70289
0
LINE
8
INTRADOSSO
62
256
10
-2.977458
20
2.022542
30
0.969463
11
-2.5
21
2.022542
31
1.469463
0
LINE
8
ESTRADOSSO
62
256
10
-2.977458
20
2.022542
30
1.936317
11
-2.5
21
2.022542
31
1.936317
0
LINE
8
MAXSPINTA
62
81
48
41.125130058329276
10
-2.977458
20
2.377641
30
0.9999999999999996
11
-2.5
21
2.377641
31
1.4003767716463065
0
LINE
8
MINSPINTA
62
21
48
11.051941138663777
10
-2.977458
20
2.377641
30
1.0
11
-2.5
21
2.377641
31
0.772542
0
LINE
8
MEDIONETWORK
62
41
48
16.70679218928953
10
-2.977458
20
2.377641
30
1.0
11
-2.5
21
2.377641
31
1.0518338151192832
0
LINE
8
ASSE
62
253
10
-2.977458
20
2.377641
30
0.636271
11
-2.5
21
2.377641
31
1.1256665
0
LINE
8
INTRADOSSO
62
256
10
-2.977458
20
2.377641
30
0.272542
11
-2.5
21
2.377641
31
0.772542
0
LINE
8
ESTRADOSSO
62
256
10
-2.977458
20
2.377641
30
1.0
11
-2.5
21
2.377641
31
1.478791
0
LINE
8
MAXSPINTA
62
101
48
65.31731780378921
10
2.5
20
-2.5
30
1.260952
11
2.377641
21
-2.377641
31
1.466916449641888
0
LINE
8
MINSPINTA
62
81
48
42.844216388187256
10
2.5
20
-2.5
30
0.2880995775480538
11
2.377641
21
-2.377641
31
0.81784110839246
0
LINE
8
MEDIONETWORK
62
101
48
54.84325686554312
10
2.5
20
-2.5
30
0.7132504654055557
11
2.377641
21
-2.377641
31
1.1052951924648062
0
LINE
8
ASSE
62
253
10
2.5
20
-2.5
30
0.630476
11
2.377641
21
-2.377641
31
1.1256665
0
LINE
8
INTRADOSSO
62
256
10
2.5
20
-2.5
30
0.0
11
2.377641
21
-2.377641
31
0.772542
0
LINE
8
ESTRADOSSO
62
256
10
2.5
20
-2.5
30
1.260952
11
2.377641
21
-2.377641
31
1.478791
0
LINE
8
MAXSPINTA
62
181
48
117.39691429743866
10
2.377641
20
-2.377641
30
1.466916449641888
11
2.022542
21
-2.022542
31
1.9267730159413832
0
LINE
8
MINSPINTA
62
81
48
51.0915879244025
10
2.377641
20
-2.377641
30
0.81784110839246
11
2.022542
21
-2.022542
31
1.607636031755948
0
LINE
8
MEDIONETWORK
62
121
48
75.13364077923843
10
2.377641
20
-2.377641
30
1.1052951924648062
11
2.022542
21
-2.022542
31
1.7621222703116477
0
LINE
8
ASSE
62
253
10
2.377641
20
-2.377641
30
1.1256665
11
2.022542
21
-2.022542
31
1.70289
0
LINE
8
INTRADOSSO
62
256
10
2.377641
20
-2.377641
30
0.772542
11
2.022542
21
-2.022542
31
1.469463
0
LINE
8
ESTRADOSSO
62
256
10
2.377641
20
-2.377641
30
1.478791
11
2.022542
21
-2.022542
31
1.936317
0
LINE
8
MAXSPINTA
62
141
48
82.59899657563524
10
2.022542
20
-2.022542
30
1.9267730159413832
11
1.469463
21
-1.469463
31
2.281591256691338
0
LINE
8
MINSPINTA
62
61
48
31.21771892744424
10
2.022542
20
-2.022542
30
1.607636031755948
11
1.469463
21
-1.469463
31
2.2704124019339313
0
LINE
8
MEDIONETWORK
62
81
48
47.28652239688449
10
2.022542
20
-2.022542
30
1.7621222703116477
11
1.469463
21
-1.469463
31
2.2705296467497806
0
LINE
8
ASSE
62
253
10
2.022542
20
-2.022542
30
1.70289
11
1.469463
21
-1.469463
31
2.2029795
0
LINE
8
INTRADOSSO
62
256
10
2.022542
20
-2.022542
30
1.469463
11
1.469463
21
-1.469463
31
2.022542
0
LINE
8
ESTRADOSSO
62
256
10
2.022542
20
-2.022542
30
1.936317
11
1.469463
21
-1.469463
31
2.383417
0
LINE
8
MAXSPINTA
62
121
48
68.5003174887686
10
1.469463
20
-1.469463
30
2.281591256691338
11
0.772542
21
-0.772542
31
2.4639687279832536
0
LINE
8
MINSPINTA
62
41
48
23.028092686042104
10
1.469463
20
-1.469463
30
2.2704124019339313
11
0.772542
21
-0.772542
31
2.6718369208137753
0
LINE
8
MEDIONETWORK
62
61
48
36.935113752964874
10
1.469463
20
-1.469463
30
2.2705296467497806
11
0.772542
21
-0.772542
31
2.553378915660117
0
LINE
8
ASSE
62
253
10
1.469463
20
-1.469463
30
2.2029795
11
0.772542
21
-0.772542
31
2.534478
0
LINE
8
INTRADOSSO
62
256
10
1.469463
20
-1.469463
30
2.022542
11
0.772542
21
-0.772542
31
2.377641
0
LINE
8
ESTRADOSSO
62
256
10
1.469463
20
-1.469463
30
2.383417
11
0.772542
21
-0.772542
31
2.691315
0
LINE
8
MAXSPINTA
62
101
48
62.14769734064025
10
0.772542
20
-0.772542
30
2.4639687279832536
11
-0.0
21
0.0
31
2.5000000000000004
0
LINE
8
MINSPINTA
62
41
48
19.739569443727174
10
0.772542
20
-0.772542
30
2.6718369208137753
11
-0.0
21
0.0
31
2.7658083771450124
0
LINE
8
MEDIONETWORK
62
61
48
32.78995454021907
10
0.772542
20
-0.772542
30
2.553378915660117
11
-0.0
21
0.0
31
2.6145585178985766
0
LINE
8
ASSE
62
253
10
0.772542
20
-0.772542
30
2.534478
11
-0.0
21
0.0
31
2.65
0
LINE
8
INTRADOSSO
62
256
10
0.772542
20
-0.772542
30
2.377641
11
-0.0
21
0.0
31
2.5
0
LINE
8
ESTRADOSSO
62
256
10
0.772542
20
-0.772542
30
2.691315
11
-0.0
21
0.0
31
2.8
0
LINE
8
MAXSPINTA
62
61
48
32.248291692468634
10
2.5
20
-2.5
30
1.260952
11
2.5
21
-2.377641
31
1.4003767716463074
0
LINE
8
MINSPINTA
62
61
48
27.50283175873334
10
2.5
20
-2.5
30
0.2880995775480538
11
2.5
21
-2.377641
31
0.772542
0
LINE
8
MEDIONETWORK
62
61
48
32.98755035261759
10
2.5
20
-2.5
30
0.7132504654055557
11
2.5
21
-2.377641
31
1.0518338457736567
0
LINE
8
ASSE
62
253
10
2.5
20
-2.5
30
0.630476
11
2.5
21
-2.377641
31
1.1256665
0
LINE
8
INTRADOSSO
62
256
10
2.5
20
-2.5
30
0.0
11
2.5
21
-2.377641
31
0.772542
0
LINE
8
ESTRADOSSO
62
256
10
2.5
20
-2.5
30
1.260952
11
2.5
21
-2.377641
31
1.478791
0
LINE
8
MAXSPINTA
62
61
48
35.58397315989653
10
2.5
20
-2.377641
30
1.4003767716463074
11
2.5
21
-2.022542
31
1.8765896783372225
0
LINE
8
MINSPINTA
62
41
48
14.835267687024725
10
2.5
20
-2.377641
30
0.772542
11
2.5
21
-2.022542
31
1.469463
0
LINE
8
MEDIONETWORK
62
41
48
23.42704052565993
10
2.5
20
-2.377641
30
1.0518338457736567
11
2.5
21
-2.022542
31
1.703340563046279
0
LINE
8
ASSE
62
253
10
2.5
20
-2.377641
30
1.1256665
11
2.5
21
-2.022542
31
1.70289
0
LINE
8
INTRADOSSO
62
256
10
2.5
20
-2.377641
30
0.772542
11
2.5
21
-2.022542
31
1.469463
0
LINE
8
ESTRADOSSO
62
256
10
2.5
20
-2.377641
30
1.478791
11
2.5
21
-2.022542
31
1.936317
0
LINE
8
MAXSPINTA
62
61
48
26.781607189701457
10
2.5
20
-2.022542
30
1.8765896783372225
11
2.5
21
-1.469463
31
2.2996875719566146
0
LINE
8
MINSPINTA
62
21
48
9.524828475993504
10
2.5
20
-2.022542
30
1.469463
11
2.5
21
-1.469463
31
2.022542
0
LINE
8
MEDIONETWORK
62
41
48
15.043094445167448
10
2.5
20
-2.022542
30
1.703340563046279
11
2.5
21
-1.469463
31
2.1981189567042456
0
LINE
8
ASSE
62
253
10
2.5
20
-2.022542
30
1.70289
11
2.5
21
-1.469463
31
2.2029795
0
LINE
8
INTRADOSSO
62
256
10
2.5
20
-2.022542
30
1.469463
11
2.5
21
-1.469463
31
2.022542
0
LINE
8
ESTRADOSSO
62
256
10
2.5
20
-2.022542
30
1.936317
11
2.5
21
-1.469463
31
2.383417
0
LINE
8
MAXSPINTA
62
41
48
23.006519691433617
10
2.5
20
-1.469463
30
2.2996875719566146
11
2.5
21
-0.772542
31
2.5868713040279387
0
LINE
8
MINSPINTA
62
21
48
7.558946739149469
10
2.5
20
-1.469463
30
2.022542
11
2.5
21
-0.772542
31
2.377641
0
LINE
8
MEDIONETWORK
62
21
48
12.485554727280835
10
2.5
20
-1.469463
30
2.1981189567042456
11
2.5
21
-0.772542
31
2.5396649898551154
0
LINE
8
ASSE
62
253
10
2.5
20
-1.469463
30
2.2029795
11
2.5
21
-0.772542
31
2.534478
0
LINE
8
INTRADOSSO
62
256
10
2.5
20
-1.469463
30
2.022542
11
2.5
21
-0.772542
31
2.377641
0
LINE
8
ESTRADOSSO
62
256
10
2.5
20
-1.469463
30
2.383417
11
2.5
21
-0.772542
31
2.691315
0
LINE
8
MAXSPINTA
62
41
48
21.45435255150361
10
2.5
20
-0.772542
30
2.5868713040279387
11
2.5
21
0.0
31
2.688440040427447
0
LINE
8
MINSPINTA
62
21
48
6.819024811265252
10
2.5
20
-0.772542
30
2.377641
11
2.5
21
0.0
31
2.5
0
LINE
8
MEDIONETWORK
62
21
48
11.345789174560672
10
2.5
20
-0.772542
30
2.5396649898551154
11
2.5
21
0.0
31
2.659566623955263
0
LINE
8
ASSE
62
253
10
2.5
20
-0.772542
30
2.534478
11
2.5
21
0.0
31
2.65
0
LINE
8
INTRADOSSO
62
256
10
2.5
20
-0.772542
30
2.377641
11
2.5
21
0.0
31
2.5
0
LINE
8
ESTRADOSSO
62
256
10
2.5
20
-0.772542
30
2.691315
11
2.5
21
0.0
31
2.8
0
LINE
8
MAXSPINTA
62
81
48
45.94524701947316
10
2.022542
20
-2.022542
30
1.9267730159413832
11
2.022542
21
-1.469463
31
2.2539414232140675
0
LINE
8
MINSPINTA
62
41
48
17.241935404716877
10
2.022542
20
-2.022542
30
1.607636031755948
11
2.022542
21
-1.469463
31
2.1312474170847784
0
LINE
8
MEDIONETWORK
62
41
48
26.58535993011868
10
2.022542
20
-2.022542
30
1.7621222703116477
11
2.022542
21
-1.469463
31
2.200042930590064
0
LINE
8
ASSE
62
253
10
2.022542
20
-2.022542
30
1.70289
11
2.022542
21
-1.469463
31
2.2029795
0
LINE
8
INTRADOSSO
62
256
10
2.022542
20
-2.022542
30
1.469463
11
2.022542
21
-1.469463
31
2.022542
0
LINE
8
ESTRADOSSO
62
256
10
2.022542
20
-2.022542
30
1.936317
11
2.022542
21
-1.469463
31
2.383417
0
LINE
8
MAXSPINTA
62
81
48
41.882511516237294
10
2.022542
20
-1.469463
30
2.2539414232140675
11
2.022542
21
-0.772542
31
2.4971058799627706
0
LINE
8
MINSPINTA
62
41
48
14.160825675281897
10
2.022542
20
-1.469463
30
2.1312474170847784
11
2.022542
21
-0.772542
31
2.499436308783689
0
LINE
8
MEDIONETWORK
62
41
48
22.88652180075103
10
2.022542
20
-1.469463
30
2.200042930590064
11
2.022542
21
-0.772542
31
2.5161323007608347
0
LINE
8
ASSE
62
253
10
2.022542
20
-1.469463
30
2.2029795
11
2.022542
21
-0.772542
31
2.534478
0
LINE
8
INTRADOSSO
62
256
10
2.022542
20
-1.469463
30
2.022542
11
2.022542
21
-0.772542
31
2.377641
0
LINE
8
ESTRADOSSO
62
256
10
2.022542
20
-1.469463
30
2.383417
11
2.022542
21
-0.772542
31
2.691315
0
LINE
8
MAXSPINTA
62
61
48
39.80471130032544
10
2.022542
20
-0.772542
30
2.4971058799627706
11
2.022542
21
0.0
31
2.5858683257030917
0
LINE
8
MINSPINTA
62
21
48
12.699810512530215
10
2.022542
20
-0.772542
30
2.499436308783689
11
2.022542
21
0.0
31
2.6305087866973715
0
LINE
8
MEDIONETWORK
62
41
48
21.068694645301143
10
2.022542
20
-0.772542
30
2.5161323007608347
11
2.022542
21
0.0
31
2.630148534010417
0
LINE
8
ASSE
62
253
10
2.022542
20
-0.772542
30
2.534478
11
2.022542
21
0.0
31
2.65
0
LINE
8
INTRADOSSO
62
256
10
2.022542
20
-0.772542
30
2.377641
11
2.022542
21
0.0
31
2.5
0
LINE
8
ESTRADOSSO
62
256
10
2.022542
20
-0.772542
30
2.691315
11
2.022542
21
0.0
31
2.8
0
LINE
8
MAXSPINTA
62
61
48
38.3733410836201
10
1.469463
20
-1.469463
30
2.281591256691338
11
1.469463
21
-0.772542
31
2.4677875379417076
0
LINE
8
MINSPINTA
62
21
48
13.074569060739483
10
1.469463
20
-1.469463
30
2.2704124019339313
11
1.469463
21
-0.772542
31
2.612281260241448
0
LINE
8
MEDIONETWORK
62
41
48
20.897255584977362
10
1.469463
20
-1.469463
30
2.2705296467497806
11
1.469463
21
-0.772542
31
2.534733024936122
0
LINE
8
ASSE
62
253
10
1.469463
20
-1.469463
30
2.2029795
11
1.469463
21
-0.772542
31
2.534478
0
LINE
8
INTRADOSSO
62
256
10
1.469463
20
-1.469463
30
2.022542
11
1.469463
21
-0.772542
31
2.377641
0
LINE
8
ESTRADOSSO
62
256
10
1.469463
20
-1.469463
30
2.383417
11
1.469463
21
-0.772542
31
2.691315
0
LINE
8
MAXSPINTA
62
61
48
37.229239341203595
10
1.469463
20
-0.772542
30
2.4677875379417076
11
1.469463
21
0.0
31
2.538784576127422
0
LINE
8
MINSPINTA
62
21
48
11.89775520291787
10
1.469463
20
-0.772542
30
2.612281260241448
11
1.469463
21
0.0
31
2.7400406278521907
0
LINE
8
MEDIONETWORK
62
41
48
19.702312185196092
10
1.469463
20
-0.772542
30
2.534733024936122
11
1.469463
21
0.0
31
2.6344401842980965
0
LINE
8
ASSE
62
253
10
1.469463
20
-0.772542
30
2.534478
11
1.469463
21
0.0
31
2.65
0
LINE
8
INTRADOSSO
62
256
10
1.469463
20
-0.772542
30
2.377641
11
1.469463
21
0.0
31
2.5
0
LINE
8
ESTRADOSSO
62
256
10
1.469463
20
-0.772542
30
2.691315
11
1.469463
21
0.0
31
2.8
0
LINE
8
MAXSPINTA
62
61
48
35.310480552302096
10
0.772542
20
-0.772542
30
2.4639687279832536
11
0.772542
21
0.0
31
2.5195753124555003
0
LINE
8
MINSPINTA
62
21
48
11.303819707564596
10
0.772542
20
-0.772542
30
2.6718369208137753
11
0.772542
21
0.0
31
2.8
0
LINE
8
MEDIONETWORK
62
41
48
18.68411618509447
10
0.772542
20
-0.772542
30
2.553378915660117
11
0.772542
21
0.0
31
2.641688898526917
0
LINE
8
ASSE
62
253
10
0.772542
20
-0.772542
30
2.534478
11
0.772542
21
0.0
31
2.65
0
LINE
8
INTRADOSSO
62
256
10
0.772542
20
-0.772542
30
2.377641
11
0.772542
21
0.0
31
2.5
0
LINE
8
ESTRADOSSO
62
256
10
0.772542
20
-0.772542
30
2.691315
11
0.772542
21
0.0
31
2.8
0
LINE
8
MAXSPINTA
62
61
48
32.23102352662954
10
2.5
20
0.0
30
2.688440040427447
11
2.022542
21
0.0
31
2.5858683257030917
0
LINE
8
MINSPINTA
62
21
48
10.343598576382012
10
2.5
20
0.0
30
2.5
11
2.022542
21
0.0
31
2.6305087866973715
0
LINE
8
MEDIONETWORK
62
41
48
16.64069995789602
10
2.5
20
0.0
30
2.659566623955263
11
2.022542
21
0.0
31
2.630148534010417
0
LINE
8
ASSE
62
253
10
2.5
20
0.0
30
2.65
11
2.022542
21
0.0
31
2.65
0
LINE
8
INTRADOSSO
62
256
10
2.5
20
0.0
30
2.5
11
2.022542
21
0.0
31
2.5
0
LINE
8
ESTRADOSSO
62
256
10
2.5
20
0.0
30
2.8
11
2.022542
21
0.0
31
2.8
0
LINE
8
MAXSPINTA
62
61
48
31.62604264477048
10
2.022542
20
0.0
30
2.5858683257030917
11
1.469463
21
0.0
31
2.538784576127422
0
LINE
8
MINSPINTA
62
21
48
10.17135194352959
10
2.022542
20
0.0
30
2.6305087866973715
11
1.469463
21
0.0
31
2.7400406278521907
0
LINE
8
MEDIONETWORK
62
41
48
16.60970322242919
10
2.022542
20
0.0
30
2.630148534010417
11
1.469463
21
0.0
31
2.6344401842980965
0
LINE
8
ASSE
62
253
10
2.022542
20
0.0
30
2.65
11
1.469463
21
0.0
31
2.65
0
LINE
8
INTRADOSSO
62
256
10
2.022542
20
0.0
30
2.5
11
1.469463
21
0.0
31
2.5
0
LINE
8
ESTRADOSSO
62
256
10
2.022542
20
0.0
30
2.8
11
1.469463
21
0.0
31
2.8
0
LINE
8
MAXSPINTA
62
61
48
31.524030249844074
10
1.469463
20
0.0
30
2.538784576127422
11
0.772542
21
0.0
31
2.5195753124555003
0
LINE
8
MINSPINTA
62
21
48
10.014432700041166
10
1.469463
20
0.0
30
2.7400406278521907
11
0.772542
21
0.0
31
2.8
0
LINE
8
MEDIONETWORK
62
41
48
16.610101587147927
10
1.469463
20
0.0
30
2.6344401842980965
11
0.772542
21
0.0
31
2.641688898526917
0
LINE
8
ASSE
62
253
10
1.469463
20
0.0
30
2.65
11
0.772542
21
0.0
31
2.65
0
LINE
8
INTRADOSSO
62
256
10
1.469463
20
0.0
30
2.5
11
0.772542
21
0.0
31
2.5
0
LINE
8
ESTRADOSSO
62
256
10
1.469463
20
0.0
30
2.8
11
0.772542
21
0.0
31
2.8
0
LINE
8
MAXSPINTA
62
61
48
31.522176967157435
10
0.772542
20
0.0
30
2.5195753124555003
11
-0.0
21
0.0
31
2.5000000000000004
0
LINE
8
MINSPINTA
62
21
48
9.987341323136715
10
0.772542
20
0.0
30
2.8
11
-0.0
21
0.0
31
2.7658083771450124
0
LINE
8
MEDIONETWORK
62
41
48
16.619442085291855
10
0.772542
20
0.0
30
2.641688898526917
11
-0.0
21
0.0
31
2.6145585178985766
0
LINE
8
ASSE
62
253
10
0.772542
20
0.0
30
2.65
11
-0.0
21
0.0
31
2.65
0
LINE
8
INTRADOSSO
62
256
10
0.772542
20
0.0
30
2.5
11
-0.0
21
0.0
31
2.5
0
LINE
8
ESTRADOSSO
62
256
10
0.772542
20
0.0
30
2.8
11
-0.0
21
0.0
31
2.8
0
LINE
8
MAXSPINTA
62
61
48
32.06414846158013
10
2.5
20
-0.772542
30
2.5868713040279387
11
2.022542
21
-0.772542
31
2.4971058799627706
0
LINE
8
MINSPINTA
62
21
48
10.297085903040028
10
2.5
20
-0.772542
30
2.377641
11
2.022542
21
-0.772542
31
2.499436308783689
0
LINE
8
MEDIONETWORK
62
41
48
16.62936494544486
10
2.5
20
-0.772542
30
2.5396649898551154
11
2.022542
21
-0.772542
31
2.5161323007608347
0
LINE
8
ASSE
62
253
10
2.5
20
-0.772542
30
2.534478
11
2.022542
21
-0.772542
31
2.534478
0
LINE
8
INTRADOSSO
62
256
10
2.5
20
-0.772542
30
2.377641
11
2.022542
21
-0.772542
31
2.377641
0
LINE
8
ESTRADOSSO
62
256
10
2.5
20
-0.772542
30
2.691315
11
2.022542
21
-0.772542
31
2.691315
0
LINE
8
MAXSPINTA
62
61
48
31.556305529833594
10
2.022542
20
-0.772542
30
2.4971058799627706
11
1.469463
21
-0.772542
31
2.4677875379417076
0
LINE
8
MINSPINTA
62
21
48
10.18313182275343
10
2.022542
20
-0.772542
30
2.499436308783689
11
1.469463
21
-0.772542
31
2.612281260241448
0
LINE
8
MEDIONETWORK
62
41
48
16.618593545553942
10
2.022542
20
-0.772542
30
2.5161323007608347
11
1.469463
21
-0.772542
31
2.534733024936122
0
LINE
8
ASSE
62
253
10
2.022542
20
-0.772542
30
2.534478
11
1.469463
21
-0.772542
31
2.534478
0
LINE
8
INTRADOSSO
62
256
10
2.022542
20
-0.772542
30
2.377641
11
1.469463
21
-0.772542
31
2.377641
0
LINE
8
ESTRADOSSO
62
256
10
2.022542
20
-0.772542
30
2.691315
11
1.469463
21
-0.772542
31
2.691315
0
LINE
8
MAXSPINTA
62
61
48
31.512535406950207
10
1.469463
20
-0.772542
30
2.4677875379417076
11
0.772542
21
-0.772542
31
2.4639687279832536
0
LINE
8
MINSPINTA
62
21
48
10.01393892298722
10
1.469463
20
-0.772542
30
2.612281260241448
11
0.772542
21
-0.772542
31
2.6718369208137753
0
LINE
8
MEDIONETWORK
62
41
48
16.61514667604961
10
1.469463
20
-0.772542
30
2.534733024936122
11
0.772542
21
-0.772542
31
2.553378915660117
0
LINE
8
ASSE
62
253
10
1.469463
20
-0.772542
30
2.534478
11
0.772542
21
-0.772542
31
2.534478
0
LINE
8
INTRADOSSO
62
256
10
1.469463
20
-0.772542
30
2.377641
11
0.772542
21
-0.772542
31
2.377641
0
LINE
8
ESTRADOSSO
62
256
10
1.469463
20
-0.772542
30
2.691315
11
0.772542
21
-0.772542
31
2.691315
0
LINE
8
MAXSPINTA
62
61
48
31.68564288708429
10
2.5
20
-2.022542
30
1.8765896783372225
11
2.022542
21
-2.022542
31
1.9267730159413832
0
LINE
8
MINSPINTA
62
21
48
10.386977209056136
10
2.5
20
-2.022542
30
1.469463
11
2.022542
21
-2.022542
31
1.607636031755948
0
LINE
8
MEDIONETWORK
62
41
48
16.734602894648745
10
2.5
20
-2.022542
30
1.703340563046279
11
2.022542
21
-2.022542
31
1.7621222703116477
0
LINE
8
ASSE
62
253
10
2.5
20
-2.022542
30
1.70289
11
2.022542
21
-2.022542
31
1.70289
0
LINE
8
INTRADOSSO
62
256
10
2.5
20
-2.022542
30
1.469463
11
2.022542
21
-2.022542
31
1.469463
0
LINE
8
ESTRADOSSO
62
256
10
2.5
20
-2.022542
30
1.936317
11
2.022542
21
-2.022542
31
1.936317
0
LINE
8
MAXSPINTA
62
61
48
35.87016863286608
10
2.5
20
-2.377641
30
1.4003767716463074
11
2.377641
21
-2.377641
31
1.466916449641888
0
LINE
8
MINSPINTA
62
21
48
10.639383172289719
10
2.5
20
-2.377641
30
0.772542
11
2.377641
21
-2.377641
31
0.81784110839246
0
LINE
8
MEDIONETWORK
62
41
48
18.1253586245669
10
2.5
20
-2.377641
30
1.0518338457736567
11
2.377641
21
-2.377641
31
1.1052951924648062
0
LINE
8
ASSE
62
253
10
2.5
20
-2.377641
30
1.1256665
11
2.377641
21
-2.377641
31
1.1256665
0
LINE
8
INTRADOSSO
62
256
10
2.5
20
-2.377641
30
0.772542
11
2.377641
21
-2.377641
31
0.772542
0
LINE
8
ESTRADOSSO
62
256
10
2.5
20
-2.377641
30
1.478791
11
2.377641
21
-2.377641
31
1.478791
0
LINE
8
MAXSPINTA
62
61
48
31.656370949464215
10
2.5
20
-1.469463
30
2.2996875719566146
11
2.022542
21
-1.469463
31
2.2539414232140675
0
LINE
8
MINSPINTA
62
21
48
10.232905988471375
10
2.5
20
-1.469463
30
2.022542
11
2.022542
21
-1.469463
31
2.1312474170847784
0
LINE
8
MEDIONETWORK
62
41
48
16.60933805151049
10
2.5
20
-1.469463
30
2.1981189567042456
11
2.022542
21
-1.469463
31
2.200042930590064
0
LINE
8
ASSE
62
253
10
2.5
20
-1.469463
30
2.2029795
11
2.022542
21
-1.469463
31
2.2029795
0
LINE
8
INTRADOSSO
62
256
10
2.5
20
-1.469463
30
2.022542
11
2.022542
21
-1.469463
31
2.022542
0
LINE
8
ESTRADOSSO
62
256
10
2.5
20
-1.469463
30
2.383417
11
2.022542
21
-1.469463
31
2.383417
0
LINE
8
MAXSPINTA
62
61
48
31.55141610740884
10
2.022542
20
-1.469463
30
2.2539414232140675
11
1.469463
21
-1.469463
31
2.281591256691338
0
LINE
8
MINSPINTA
62
21
48
10.288576723777641
10
2.022542
20
-1.469463
30
2.1312474170847784
11
1.469463
21
-1.469463
31
2.2704124019339313
0
LINE
8
MEDIONETWORK
62
41
48
16.74354347134622
10
2.022542
20
-1.469463
30
2.200042930590064
11
1.469463
21
-1.469463
31
2.2705296467497806
0
LINE
8
ASSE
62
253
10
2.022542
20
-1.469463
30
2.2029795
11
1.469463
21
-1.469463
31
2.2029795
0
LINE
8
INTRADOSSO
62
256
10
2.022542
20
-1.469463
30
2.022542
11
1.469463
21
-1.469463
31
2.022542
0
LINE
8
ESTRADOSSO
62
256
10
2.022542
20
-1.469463
30
2.383417
11
1.469463
21
-1.469463
31
2.383417
0
LINE
8
MAXSPINTA
62
61
48
32.248291692468605
10
2.5
20
-2.5
30
1.260952
11
2.377641
21
-2.5
31
1.4003767716463071
0
LINE
8
MINSPINTA
62
61
48
27.50283175873334
10
2.5
20
-2.5
30
0.2880995775480538
11
2.377641
21
-2.5
31
0.772542
0
LINE
8
MEDIONETWORK
62
61
48
32.987550372761916
10
2.5
20
-2.5
30
0.7132504654055557
11
2.377641
21
-2.5
31
1.0518338460074204
0
LINE
8
ASSE
62
253
10
2.5
20
-2.5
30
0.630476
11
2.377641
21
-2.5
31
1.1256665
0
LINE
8
INTRADOSSO
62
256
10
2.5
20
-2.5
30
0.0
11
2.377641
21
-2.5
31
0.772542
0
LINE
8
ESTRADOSSO
62
256
10
2.5
20
-2.5
30
1.260952
11
2.377641
21
-2.5
31
1.478791
0
LINE
8
MAXSPINTA
62
61
48
35.583973159896544
10
2.377641
20
-2.5
30
1.4003767716463071
11
2.022542
21
-2.5
31
1.8765896783372225
0
LINE
8
MINSPINTA
62
41
48
14.835267687024725
10
2.377641
20
-2.5
30
0.772542
11
2.022542
21
-2.5
31
1.469463
0
LINE
8
MEDIONETWORK
62
41
48
23.427040579464187
10
2.377641
20
-2.5
30
1.0518338460074204
11
2.022542
21
-2.5
31
1.7033405652208486
0
LINE
8
ASSE
62
253
10
2.377641
20
-2.5
30
1.1256665
11
2.022542
21
-2.5
31
1.70289
0
LINE
8
INTRADOSSO
62
256
10
2.377641
20
-2.5
30
0.772542
11
2.022542
21
-2.5
31
1.469463
0
LINE
8
ESTRADOSSO
62
256
10
2.377641
20
-2.5
30
1.478791
11
2.022542
21
-2.5
31
1.936317
0
LINE
8
MAXSPINTA
62
61
48
26.781607189701457
10
2.022542
20
-2.5
30
1.8765896783372225
11
1.469463
21
-2.5
31
2.2996875719566146
0
LINE
8
MINSPINTA
62
21
48
9.524828475993504
10
2.022542
20
-2.5
30
1.469463
11
1.469463
21
-2.5
31
2.022542
0
LINE
8
MEDIONETWORK
62
41
48
15.043094522987849
10
2.022542
20
-2.5
30
1.7033405652208486
11
1.469463
21
-2.5
31
2.19811896463669
0
LINE
8
ASSE
62
253
10
2.022542
20
-2.5
30
1.70289
11
1.469463
21
-2.5
31
2.2029795
0
LINE
8
INTRADOSSO
62
256
10
2.022542
20
-2.5
30
1.469463
11
1.469463
21
-2.5
31
2.022542
0
LINE
8
ESTRADOSSO
62
256
10
2.022542
20
-2.5
30
1.936317
11
1.469463
21
-2.5
31
2.383417
0
LINE
8
MAXSPINTA
62
41
48
23.006519691433617
10
1.469463
20
-2.5
30
2.2996875719566146
11
0.772542
21
-2.5
31
2.5868713040279387
0
LINE
8
MINSPINTA
62
21
48
7.558946739149469
10
1.469463
20
-2.5
30
2.022542
11
0.772542
21
-2.5
31
2.377641
0
LINE
8
MEDIONETWORK
62
21
48
12.48555478948093
10
1.469463
20
-2.5
30
2.19811896463669
11
0.772542
21
-2.5
31
2.5396650065734288
0
LINE
8
ASSE
62
253
10
1.469463
20
-2.5
30
2.2029795
11
0.772542
21
-2.5
31
2.534478
0
LINE
8
INTRADOSSO
62
256
10
1.469463
20
-2.5
30
2.022542
11
0.772542
21
-2.5
31
2.377641
0
LINE
8
ESTRADOSSO
62
256
10
1.469463
20
-2.5
30
2.383417
11
0.772542
21
-2.5
31
2.691315
0
LINE
8
MAXSPINTA
62
41
48
21.454352551503614
10
0.772542
20
-2.5
30
2.5868713040279387
11
-0.0
21
-2.5
31
2.6884400404274484
0
LINE
8
MINSPINTA
62
21
48
6.819024811265252
10
0.772542
20
-2.5
30
2.377641
11
-0.0
21
-2.5
31
2.5
0
LINE
8
MEDIONETWORK
62
21
48
11.34578919551597
10
0.772542
20
-2.5
30
2.5396650065734288
11
-0.0
21
-2.5
31
2.659566650088475
0
LINE
8
ASSE
62
253
10
0.772542
20
-2.5
30
2.534478
11
-0.0
21
-2.5
31
2.65
0
LINE
8
INTRADOSSO
62
256
10
0.772542
20
-2.5
30
2.377641
11
-0.0
21
-2.5
31
2.5
0
LINE
8
ESTRADOSSO
62
256
10
0.772542
20
-2.5
30
2.691315
11
-0.0
21
-2.5
31
2.8
0
LINE
8
MAXSPINTA
62
81
48
45.94524701947316
10
2.022542
20
-2.022542
30
1.9267730159413832
11
1.469463
21
-2.022542
31
2.2539414232140675
0
LINE
8
MINSPINTA
62
41
48
17.241935404716877
10
2.022542
20
-2.022542
30
1.607636031755948
11
1.469463
21
-2.022542
31
2.1312474170847784
0
LINE
8
MEDIONETWORK
62
41
48
26.58536004551396
10
2.022542
20
-2.022542
30
1.7621222703116477
11
1.469463
21
-2.022542
31
2.20004293552285
0
LINE
8
ASSE
62
253
10
2.022542
20
-2.022542
30
1.70289
11
1.469463
21
-2.022542
31
2.2029795
0
LINE
8
INTRADOSSO
62
256
10
2.022542
20
-2.022542
30
1.469463
11
1.469463
21
-2.022542
31
2.022542
0
LINE
8
ESTRADOSSO
62
256
10
2.022542
20
-2.022542
30
1.936317
11
1.469463
21
-2.022542
31
2.383417
0
LINE
8
MAXSPINTA
62
81
48
41.882511516237315
10
1.469463
20
-2.022542
30
2.2539414232140675
11
0.772542
21
-2.022542
31
2.4971058799627714
0
LINE
8
MINSPINTA
62
41
48
14.160825675281888
10
1.469463
20
-2.022542
30
2.1312474170847784
11
0.772542
21
-2.022542
31
2.499436308783688
0
LINE
8
MEDIONETWORK
62
41
48
22.88652189561938
10
1.469463
20
-2.022542
30
2.20004293552285
11
0.772542
21
-2.022542
31
2.5161323133732667
0
LINE
8
ASSE
62
253
10
1.469463
20
-2.022542
30
2.2029795
11
0.772542
21
-2.022542
31
2.534478
0
LINE
8
INTRADOSSO
62
256
10
1.469463
20
-2.022542
30
2.022542
11
0.772542
21
-2.022542
31
2.377641
0
LINE
8
ESTRADOSSO
62
256
10
1.469463
20
-2.022542
30
2.383417
11
0.772542
21
-2.022542
31
2.691315
0
LINE
8
MAXSPINTA
62
61
48
39.80471130032544
10
0.772542
20
-2.022542
30
2.4971058799627714
11
-0.0
21
-2.022542
31
2.585868325703093
0
LINE
8
MINSPINTA
62
21
48
12.699810512530217
10
0.772542
20
-2.022542
30
2.499436308783688
11
-0.0
21
-2.022542
31
2.6305087866973715
0
LINE
8
MEDIONETWORK
62
41
48
21.068694681092182
10
0.772542
20
-2.022542
30
2.5161323133732667
11
-0.0
21
-2.022542
31
2.630148555708838
0
LINE
8
ASSE
62
253
10
0.772542
20
-2.022542
30
2.534478
11
-0.0
21
-2.022542
31
2.65
0
LINE
8
INTRADOSSO
62
256
10
0.772542
20
-2.022542
30
2.377641
11
-0.0
21
-2.022542
31
2.5
0
LINE
8
ESTRADOSSO
62
256
10
0.772542
20
-2.022542
30
2.691315
11
-0.0
21
-2.022542
31
2.8
0
LINE
8
MAXSPINTA
62
61
48
38.3733410836201
10
1.469463
20
-1.469463
30
2.281591256691338
11
0.772542
21
-1.469463
31
2.467787537941708
0
LINE
8
MINSPINTA
62
21
48
13.074569060739483
10
1.469463
20
-1.469463
30
2.2704124019339313
11
0.772542
21
-1.469463
31
2.612281260241448
0
LINE
8
MEDIONETWORK
62
41
48
20.897255657943592
10
1.469463
20
-1.469463
30
2.2705296467497806
11
0.772542
21
-1.469463
31
2.5347330322775434
0
LINE
8
ASSE
62
253
10
1.469463
20
-1.469463
30
2.2029795
11
0.772542
21
-1.469463
31
2.534478
0
LINE
8
INTRADOSSO
62
256
10
1.469463
20
-1.469463
30
2.022542
11
0.772542
21
-1.469463
31
2.377641
0
LINE
8
ESTRADOSSO
62
256
10
1.469463
20
-1.469463
30
2.383417
11
0.772542
21
-1.469463
31
2.691315
0
LINE
8
MAXSPINTA
62
61
48
37.229239341203595
10
0.772542
20
-1.469463
30
2.467787537941708
11
-0.0
21
-1.469463
31
2.538784576127423
0
LINE
8
MINSPINTA
62
21
48
11.897755202917871
10
0.772542
20
-1.469463
30
2.612281260241448
11
-0.0
21
-1.469463
31
2.7400406278521907
0
LINE
8
MEDIONETWORK
62
41
48
19.702312213677967
10
0.772542
20
-1.469463
30
2.5347330322775434
11
-0.0
21
-1.469463
31
2.6344402004367025
0
LINE
8
ASSE
62
253
10
0.772542
20
-1.469463
30
2.534478
11
-0.0
21
-1.469463
31
2.65
0
LINE
8
INTRADOSSO
62
256
10
0.772542
20
-1.469463
30
2.377641
11
-0.0
21
-1.469463
31
2.5
0
LINE
8
ESTRADOSSO
62
256
10
0.772542
20
-1.469463
30
2.691315
11
-0.0
21
-1.469463
31
2.8
0
LINE
8
MAXSPINTA
62
61
48
35.310480552302096
10
0.772542
20
-0.772542
30
2.4639687279832536
11
-0.0
21
-0.772542
31
2.5195753124555003
0
LINE
8
MINSPINTA
62
21
48
11.303819707564596
10
0.772542
20
-0.772542
30
2.6718369208137753
11
-0.0
21
-0.772542
31
2.8
0
LINE
8
MEDIONETWORK
62
41
48
18.68411620879844
10
0.772542
20
-0.772542
30
2.553378915660117
11
-0.0
21
-0.772542
31
2.6416889072129415
0
LINE
8
ASSE
62
253
10
0.772542
20
-0.772542
30
2.534478
11
-0.0
21
-0.772542
31
2.65
0
LINE
8
INTRADOSSO
62
256
10
0.772542
20
-0.772542
30
2.377641
11
-0.0
21
-0.772542
31
2.5
0
LINE
8
ESTRADOSSO
62
256
10
0.772542
20
-0.772542
30
2.691315
11
-0.0
21
-0.772542
31
2.8
0
LINE
8
MAXSPINTA
62
61
48
32.06414846158012
10
0.772542
20
-2.5
30
2.5868713040279387
11
0.772542
21
-2.022542
31
2.4971058799627714
0
LINE
8
MINSPINTA
62
21
48
10.297085903040022
10
0.772542
20
-2.5
30
2.377641
11
0.772542
21
-2.022542
31
2.499436308783688
0
LINE
8
MEDIONETWORK
62
41
48
16.629364952476063
10
0.772542
20
-2.5
30
2.5396650065734288
11
0.772542
21
-2.022542
31
2.5161323133732667
0
LINE
8
ASSE
62
253
10
0.772542
20
-2.5
30
2.534478
11
0.772542
21
-2.022542
31
2.534478
0
LINE
8
INTRADOSSO
62
256
10
0.772542
20
-2.5
30
2.377641
11
0.772542
21
-2.022542
31
2.377641
0
LINE
8
ESTRADOSSO
62
256
10
0.772542
20
-2.5
30
2.691315
11
0.772542
21
-2.022542
31
2.691315
0
LINE
8
MAXSPINTA
62
61
48
31.556305529833594
10
0.772542
20
-2.022542
30
2.4971058799627714
11
0.772542
21
-1.469463
31
2.467787537941708
0
LINE
8
MINSPINTA
62
21
48
10.183131822753435
10
0.772542
20
-2.022542
30
2.499436308783688
11
0.772542
21
-1.469463
31
2.612281260241448
0
LINE
8
MEDIONETWORK
62
41
48
16.618593540233437
10
0.772542
20
-2.022542
30
2.5161323133732667
11
0.772542
21
-1.469463
31
2.5347330322775434
0
LINE
8
ASSE
62
253
10
0.772542
20
-2.022542
30
2.534478
11
0.772542
21
-1.469463
31
2.534478
0
LINE
8
INTRADOSSO
62
256
10
0.772542
20
-2.022542
30
2.377641
11
0.772542
21
-1.469463
31
2.377641
0
LINE
8
ESTRADOSSO
62
256
10
0.772542
20
-2.022542
30
2.691315
11
0.772542
21
-1.469463
31
2.691315
0
LINE
8
MAXSPINTA
62
61
48
31.512535406950207
10
0.772542
20
-1.469463
30
2.467787537941708
11
0.772542
21
-0.772542
31
2.4639687279832536
0
LINE
8
MINSPINTA
62
21
48
10.01393892298722
10
0.772542
20
-1.469463
30
2.612281260241448
11
0.772542
21
-0.772542
31
2.6718369208137753
0
LINE
8
MEDIONETWORK
62
41
48
16.615146671370216
10
0.772542
20
-1.469463
30
2.5347330322775434
11
0.772542
21
-0.772542
31
2.553378915660117
0
LINE
8
ASSE
62
253
10
0.772542
20
-1.469463
30
2.534478
11
0.772542
21
-0.772542
31
2.534478
0
LINE
8
INTRADOSSO
62
256
10
0.772542
20
-1.469463
30
2.377641
11
0.772542
21
-0.772542
31
2.377641
0
LINE
8
ESTRADOSSO
62
256
10
0.772542
20
-1.469463
30
2.691315
11
0.772542
21
-0.772542
31
2.691315
0
LINE
8
MAXSPINTA
62
61
48
31.68564288708429
10
2.022542
20
-2.5
30
1.8765896783372225
11
2.022542
21
-2.022542
31
1.9267730159413832
0
LINE
8
MINSPINTA
62
21
48
10.386977209056136
10
2.022542
20
-2.5
30
1.469463
11
2.022542
21
-2.022542
31
1.607636031755948
0
LINE
8
MEDIONETWORK
62
41
48
16.73460288540544
10
2.022542
20
-2.5
30
1.7033405652208486
11
2.022542
21
-2.022542
31
1.7621222703116477
0
LINE
8
ASSE
62
253
10
2.022542
20
-2.5
30
1.70289
11
2.022542
21
-2.022542
31
1.70289
0
LINE
8
INTRADOSSO
62
256
10
2.022542
20
-2.5
30
1.469463
11
2.022542
21
-2.022542
31
1.469463
0
LINE
8
ESTRADOSSO
62
256
10
2.022542
20
-2.5
30
1.936317
11
2.022542
21
-2.022542
31
1.936317
0
LINE
8
MAXSPINTA
62
61
48
35.87016863286611
10
2.377641
20
-2.5
30
1.4003767716463071
11
2.377641
21
-2.377641
31
1.466916449641888
0
LINE
8
MINSPINTA
62
21
48
10.639383172289719
10
2.377641
20
-2.5
30
0.772542
11
2.377641
21
-2.377641
31
0.81784110839246
0
LINE
8
MEDIONETWORK
62
41
48
18.125358611862442
10
2.377641
20
-2.5
30
1.0518338460074204
11
2.377641
21
-2.377641
31
1.1052951924648062
0
LINE
8
ASSE
62
253
10
2.377641
20
-2.5
30
1.1256665
11
2.377641
21
-2.377641
31
1.1256665
0
LINE
8
INTRADOSSO
62
256
10
2.377641
20
-2.5
30
0.772542
11
2.377641
21
-2.377641
31
0.772542
0
LINE
8
ESTRADOSSO
62
256
10
2.377641
20
-2.5
30
1.478791
11
2.377641
21
-2.377641
31
1.478791
0
LINE
8
MAXSPINTA
62
61
48
31.656370949464215
10
1.469463
20
-2.5
30
2.2996875719566146
11
1.469463
21
-2.022542
31
2.2539414232140675
0
LINE
8
MINSPINTA
62
21
48
10.232905988471375
10
1.469463
20
-2.5
30
2.022542
11
1.469463
21
-2.022542
31
2.1312474170847784
0
LINE
8
MEDIONETWORK
62
41
48
16.60933805109001
10
1.469463
20
-2.5
30
2.19811896463669
11
1.469463
21
-2.022542
31
2.20004293552285
0
LINE
8
ASSE
62
253
10
1.469463
20
-2.5
30
2.2029795
11
1.469463
21
-2.022542
31
2.2029795
0
LINE
8
INTRADOSSO
62
256
10
1.469463
20
-2.5
30
2.022542
11
1.469463
21
-2.022542
31
2.022542
0
LINE
8
ESTRADOSSO
62
256
10
1.469463
20
-2.5
30
2.383417
11
1.469463
21
-2.022542
31
2.383417
0
LINE
8
MAXSPINTA
62
61
48
31.55141610740884
10
1.469463
20
-2.022542
30
2.2539414232140675
11
1.469463
21
-1.469463
31
2.281591256691338
0
LINE
8
MINSPINTA
62
21
48
10.288576723777641
10
1.469463
20
-2.022542
30
2.1312474170847784
11
1.469463
21
-1.469463
31
2.2704124019339313
0
LINE
8
MEDIONETWORK
62
41
48
16.743543452618912
10
1.469463
20
-2.022542
30
2.20004293552285
11
1.469463
21
-1.469463
31
2.2705296467497806
0
LINE
8
ASSE
62
253
10
1.469463
20
-2.022542
30
2.2029795
11
1.469463
21
-1.469463
31
2.2029795
0
LINE
8
INTRADOSSO
62
256
10
1.469463
20
-2.022542
30
2.022542
11
1.469463
21
-1.469463
31
2.022542
0
LINE
8
ESTRADOSSO
62
256
10
1.469463
20
-2.022542
30
2.383417
11
1.469463
21
-1.469463
31
2.383417
0
LINE
8
MAXSPINTA
62
61
48
32.2571997545354
10
0.772542
20
-2.977458
30
2.6913149999999995
11
0.772542
21
-2.5
31
2.5868713040279387
0
LINE
8
MINSPINTA
62
21
48
11.242188812154781
10
0.772542
20
-2.977458
30
2.129750649504538
11
0.772542
21
-2.5
31
2.377641
0
LINE
8
MEDIONETWORK
62
41
48
16.614688754996703
10
0.772542
20
-2.977458
30
2.5273928246896866
11
0.772542
21
-2.5
31
2.5396650065734288
0
LINE
8
ASSE
62
253
10
0.772542
20
-2.977458
30
2.284478
11
0.772542
21
-2.5
31
2.534478
0
LINE
8
INTRADOSSO
62
256
10
0.772542
20
-2.977458
30
1.877641
11
0.772542
21
-2.5
31
2.377641
0
LINE
8
ESTRADOSSO
62
256
10
0.772542
20
-2.977458
30
2.691315
11
0.772542
21
-2.5
31
2.691315
0
LINE
8
MAXSPINTA
62
61
48
31.992936709745013
10
1.469463
20
-2.977458
30
2.383417
11
1.469463
21
-2.5
31
2.2996875719566146
0
LINE
8
MINSPINTA
62
21
48
10.73774299197295
10
1.469463
20
-2.977458
30
1.832648062824457
11
1.469463
21
-2.5
31
2.022542
0
LINE
8
MEDIONETWORK
62
41
48
16.61771265885607
10
1.469463
20
-2.977458
30
2.1828333721224484
11
1.469463
21
-2.5
31
2.19811896463669
0
LINE
8
ASSE
62
253
10
1.469463
20
-2.977458
30
1.9529795
11
1.469463
21
-2.5
31
2.2029795
0
LINE
8
INTRADOSSO
62
256
10
1.469463
20
-2.977458
30
1.522542
11
1.469463
21
-2.5
31
2.022542
0
LINE
8
ESTRADOSSO
62
256
10
1.469463
20
-2.977458
30
2.383417
11
1.469463
21
-2.5
31
2.383417
0
LINE
8
MAXSPINTA
62
61
48
31.757665189815093
10
2.022542
20
-2.977458
30
1.936317
11
2.022542
21
-2.5
31
1.8765896783372225
0
LINE
8
MINSPINTA
62
21
48
10.075898725113692
10
2.022542
20
-2.977458
30
1.4022680724764778
11
2.022542
21
-2.5
31
1.469463
0
LINE
8
MEDIONETWORK
62
41
48
16.973040721188767
10
2.022542
20
-2.977458
30
1.8038241157136912
11
2.022542
21
-2.5
31
1.7033405652208486
0
LINE
8
ASSE
62
253
10
2.022542
20
-2.977458
30
1.45289
11
2.022542
21
-2.5
31
1.70289
0
LINE
8
INTRADOSSO
62
256
10
2.022542
20
-2.977458
30
0.969463
11
2.022542
21
-2.5
31
1.469463
0
LINE
8
ESTRADOSSO
62
256
10
2.022542
20
-2.977458
30
1.936317
11
2.022542
21
-2.5
31
1.936317
0
LINE
8
MAXSPINTA
62
81
48
41.12513005832929
10
2.377641
20
-2.977458
30
1.0
11
2.377641
21
-2.5
31
1.4003767716463071
0
LINE
8
MINSPINTA
62
21
48
11.051941138663777
10
2.377641
20
-2.977458
30
1.0
11
2.377641
21
-2.5
31
0.772542
0
LINE
8
MEDIONETWORK
62
41
48
16.706792305257803
10
2.377641
20
-2.977458
30
1.0
11
2.377641
21
-2.5
31
1.0518338460074204
0
LINE
8
ASSE
62
253
10
2.377641
20
-2.977458
30
0.636271
11
2.377641
21
-2.5
31
1.1256665
0
LINE
8
INTRADOSSO
62
256
10
2.377641
20
-2.977458
30
0.272542
11
2.377641
21
-2.5
31
0.772542
0
LINE
8
ESTRADOSSO
62
256
10
2.377641
20
-2.977458
30
1.0
11
2.377641
21
-2.5
31
1.478791
0
LINE
8
MAXSPINTA
62
61
48
32.36081956429605
10
2.977458
20
0.0
30
2.8
11
2.5
21
0.0
31
2.688440040427447
0
LINE
8
MINSPINTA
62
21
48
11.43864980545135
10
2.977458
20
0.0
30
2.232318690238104
11
2.5
21
0.0
31
2.5
0
LINE
8
MEDIONETWORK
62
41
48
16.616621965263878
10
2.977458
20
0.0
30
2.6452944549177144
11
2.5
21
0.0
31
2.659566623955263
0
LINE
8
ASSE
62
253
10
2.977458
20
0.0
30
2.4
11
2.5
21
0.0
31
2.65
0
LINE
8
INTRADOSSO
62
256
10
2.977458
20
0.0
30
2.0
11
2.5
21
0.0
31
2.5
0
LINE
8
ESTRADOSSO
62
256
10
2.977458
20
0.0
30
2.8
11
2.5
21
0.0
31
2.8
0
LINE
8
MAXSPINTA
62
61
48
32.25719975453541
10
2.977458
20
-0.772542
30
2.691315
11
2.5
21
-0.772542
31
2.5868713040279387
0
LINE
8
MINSPINTA
62
21
48
11.24218881215479
10
2.977458
20
-0.772542
30
2.1297506495045373
11
2.5
21
-0.772542
31
2.377641
0
LINE
8
MEDIONETWORK
62
41
48
16.614688758787636
10
2.977458
20
-0.772542
30
2.527392803730167
11
2.5
21
-0.772542
31
2.5396649898551154
0
LINE
8
ASSE
62
253
10
2.977458
20
-0.772542
30
2.284478
11
2.5
21
-0.772542
31
2.534478
0
LINE
8
INTRADOSSO
62
256
10
2.977458
20
-0.772542
30
1.877641
11
2.5
21
-0.772542
31
2.377641
0
LINE
8
ESTRADOSSO
62
256
10
2.977458
20
-0.772542
30
2.691315
11
2.5
21
-0.772542
31
2.691315
0
LINE
8
MAXSPINTA
62
61
48
31.992936709745013
10
2.977458
20
-1.469463
30
2.383417
11
2.5
21
-1.469463
31
2.2996875719566146
0
LINE
8
MINSPINTA
62
21
48
10.73774299197296
10
2.977458
20
-1.469463
30
1.832648062824456
11
2.5
21
-1.469463
31
2.022542
0
LINE
8
MEDIONETWORK
62
41
48
16.617712661407378
10
2.977458
20
-1.469463
30
2.1828333618979525
11
2.5
21
-1.469463
31
2.1981189567042456
0
LINE
8
ASSE
62
253
10
2.977458
20
-1.469463
30
1.9529795
11
2.5
21
-1.469463
31
2.2029795
0
LINE
8
INTRADOSSO
62
256
10
2.977458
20
-1.469463
30
1.522542
11
2.5
21
-1.469463
31
2.022542
0
LINE
8
ESTRADOSSO
62
256
10
2.977458
20
-1.469463
30
2.383417
11
2.5
21
-1.469463
31
2.383417
0
LINE
8
MAXSPINTA
62
61
48
31.757665189815093
10
2.977458
20
-2.022542
30
1.936317
11
2.5
21
-2.022542
31
1.8765896783372225
0
LINE
8
MINSPINTA
62
21
48
10.075898725113678
10
2.977458
20
-2.022542
30
1.4022680724764818
11
2.5
21
-2.022542
31
1.469463
0
LINE
8
MEDIONETWORK
62
41
48
16.97304071702745
10
2.977458
20
-2.022542
30
1.8038241129582657
11
2.5
21
-2.022542
31
1.703340563046279
0
LINE
8
ASSE
62
253
10
2.977458
20
-2.022542
30
1.45289
11
2.5
21
-2.022542
31
1.70289
0
LINE
8
INTRADOSSO
62
256
10
2.977458
20
-2.022542
30
0.969463
11
2.5
21
-2.022542
31
1.469463
0
LINE
8
ESTRADOSSO
62
256
10
2.977458
20
-2.022542
30
1.936317
11
2.5
21
-2.022542
31
1.936317
0
LINE
8
MAXSPINTA
62
81
48
41.1251300583293
10
2.977458
20
-2.377641
30
1.0
11
2.5
21
-2.377641
31
1.4003767716463074
0
LINE
8
MINSPINTA
62
21
48
11.051941138663777
10
2.977458
20
-2.377641
30
1.0
11
2.5
21
-2.377641
31
0.772542
0
LINE
8
MEDIONETWORK
62
41
48
16.706792304380148
10
2.977458
20
-2.377641
30
1.0
11
2.5
21
-2.377641
31
1.0518338457736567
0
LINE
8
ASSE
62
253
10
2.977458
20
-2.377641
30
0.636271
11
2.5
21
-2.377641
31
1.1256665
0
LINE
8
INTRADOSSO
62
256
10
2.977458
20
-2.377641
30
0.272542
11
2.5
21
-2.377641
31
0.772542
0
LINE
8
ESTRADOSSO
62
256
10
2.977458
20
-2.377641
30
1.0
11
2.5
21
-2.377641
31
1.478791
0
LINE
8
MAXSPINTA
62
101
48
65.31731780378908
10
2.5
20
2.5
30
1.260952
11
2.377641
21
2.377641
31
1.4669164496418874
0
LINE
8
MINSPINTA
62
81
48
42.844216388187256
10
2.5
20
2.5
30
0.2880995775480541
11
2.377641
21
2.377641
31
0.8178411083924603
0
LINE
8
MEDIONETWORK
62
101
48
54.84325895446863
10
2.5
20
2.5
30
0.713250380423261
11
2.377641
21
2.377641
31
1.1052951253242569
0
LINE
8
ASSE
62
253
10
2.5
20
2.5
30
0.630476
11
2.377641
21
2.377641
31
1.1256665
0
LINE
8
INTRADOSSO
62
256
10
2.5
20
2.5
30
0.0
11
2.377641
21
2.377641
31
0.772542
0
LINE
8
ESTRADOSSO
62
256
10
2.5
20
2.5
30
1.260952
11
2.377641
21
2.377641
31
1.478791
0
LINE
8
MAXSPINTA
62
181
48
117.39691429743863
10
2.377641
20
2.377641
30
1.4669164496418874
11
2.022542
21
2.022542
31
1.926773015941382
0
LINE
8
MINSPINTA
62
81
48
51.0915879244025
10
2.377641
20
2.377641
30
0.8178411083924603
11
2.022542
21
2.022542
31
1.6076360317559482
0
LINE
8
MEDIONETWORK
62
121
48
75.13364183437803
10
2.377641
20
2.377641
30
1.1052951253242569
11
2.022542
21
2.022542
31
1.7621222177872948
0
LINE
8
ASSE
62
253
10
2.377641
20
2.377641
30
1.1256665
11
2.022542
21
2.022542
31
1.70289
0
LINE
8
INTRADOSSO
62
256
10
2.377641
20
2.377641
30
0.772542
11
2.022542
21
2.022542
31
1.469463
0
LINE
8
ESTRADOSSO
62
256
10
2.377641
20
2.377641
30
1.478791
11
2.022542
21
2.022542
31
1.936317
0
LINE
8
MAXSPINTA
62
141
48
82.59899657563523
10
2.022542
20
2.022542
30
1.926773015941382
11
1.469463
21
1.469463
31
2.2815912566913368
0
LINE
8
MINSPINTA
62
61
48
31.21771892744422
10
2.022542
20
2.022542
30
1.6076360317559482
11
1.469463
21
1.469463
31
2.270412401933931
0
LINE
8
MEDIONETWORK
62
81
48
47.286522865585496
10
2.022542
20
2.022542
30
1.7621222177872948
11
1.469463
21
1.469463
31
2.2705296111922726
0
LINE
8
ASSE
62
253
10
2.022542
20
2.022542
30
1.70289
11
1.469463
21
1.469463
31
2.2029795
0
LINE
8
INTRADOSSO
62
256
10
2.022542
20
2.022542
30
1.469463
11
1.469463
21
1.469463
31
2.022542
0
LINE
8
ESTRADOSSO
62
256
10
2.022542
20
2.022542
30
1.936317
11
1.469463
21
1.469463
31
2.383417
0
LINE
8
MAXSPINTA
62
121
48
68.5003174887686
10
1.469463
20
1.469463
30
2.2815912566913368
11
0.772542
21
0.772542
31
2.4639687279832527
0
LINE
8
MINSPINTA
62
41
48
23.0280926860421
10
1.469463
20
1.469463
30
2.270412401933931
11
0.772542
21
0.772542
31
2.6718369208137753
0
LINE
8
MEDIONETWORK
62
61
48
36.93511393602682
10
1.469463
20
1.469463
30
2.2705296111922726
11
0.772542
21
0.772542
31
2.55337889852611
0
LINE
8
ASSE
62
253
10
1.469463
20
1.469463
30
2.2029795
11
0.772542
21
0.772542
31
2.534478
0
LINE
8
INTRADOSSO
62
256
10
1.469463
20
1.469463
30
2.022542
11
0.772542
21
0.772542
31
2.377641
0
LINE
8
ESTRADOSSO
62
256
10
1.469463
20
1.469463
30
2.383417
11
0.772542
21
0.772542
31
2.691315
0
LINE
8
MAXSPINTA
62
101
48
62.14769734064025
10
0.772542
20
0.772542
30
2.4639687279832527
11
-0.0
21
0.0
31
2.5000000000000004
0
LINE
8
MINSPINTA
62
41
48
19.73956944372717
10
0.772542
20
0.772542
30
2.6718369208137753
11
-0.0
21
0.0
31
2.7658083771450124
0
LINE
8
MEDIONETWORK
62
61
48
32.789954568925054
10
0.772542
20
0.772542
30
2.55337889852611
11
-0.0
21
0.0
31
2.6145585178985766
0
LINE
8
ASSE
62
253
10
0.772542
20
0.772542
30
2.534478
11
-0.0
21
0.0
31
2.65
0
LINE
8
INTRADOSSO
62
256
10
0.772542
20
0.772542
30
2.377641
11
-0.0
21
0.0
31
2.5
0
LINE
8
ESTRADOSSO
62
256
10
0.772542
20
0.772542
30
2.691315
11
-0.0
21
0.0
31
2.8
0
LINE
8
MAXSPINTA
62
61
48
32.24829169246858
10
2.5
20
2.5
30
1.260952
11
2.5
21
2.377641
31
1.400376771646307
0
LINE
8
MINSPINTA
62
61
48
27.502831758733326
10
2.5
20
2.5
30
0.2880995775480541
11
2.5
21
2.377641
31
0.772542
0
LINE
8
MEDIONETWORK
62
61
48
32.98755220849879
10
2.5
20
2.5
30
0.713250380423261
11
2.5
21
2.377641
31
1.0518337823278272
0
LINE
8
ASSE
62
253
10
2.5
20
2.5
30
0.630476
11
2.5
21
2.377641
31
1.1256665
0
LINE
8
INTRADOSSO
62
256
10
2.5
20
2.5
30
0.0
11
2.5
21
2.377641
31
0.772542
0
LINE
8
ESTRADOSSO
62
256
10
2.5
20
2.5
30
1.260952
11
2.5
21
2.377641
31
1.478791
0
LINE
8
MAXSPINTA
62
61
48
35.583973159896544
10
2.5
20
2.377641
30
1.400376771646307
11
2.5
21
2.022542
31
1.8765896783372222
0
LINE
8
MINSPINTA
62
41
48
14.835267687024725
10
2.5
20
2.377641
30
0.772542
11
2.5
21
2.022542
31
1.469463
0
LINE
8
MEDIONETWORK
62
41
48
23.42704076080143
10
2.5
20
2.377641
30
1.0518337823278272
11
2.5
21
2.022542
31
1.7033405080823798
0
LINE
8
ASSE
62
253
10
2.5
20
2.377641
30
1.1256665
11
2.5
21
2.022542
31
1.70289
0
LINE
8
INTRADOSSO
62
256
10
2.5
20
2.377641
30
0.772542
11
2.5
21
2.022542
31
1.469463
0
LINE
8
ESTRADOSSO
62
256
10
2.5
20
2.377641
30
1.478791
11
2.5
21
2.022542
31
1.936317
0
LINE
8
MAXSPINTA
62
61
48
26.781607189701433
10
2.5
20
2.022542
30
1.8765896783372222
11
2.5
21
1.469463
31
2.299687571956613
0
LINE
8
MINSPINTA
62
21
48
9.524828475993504
10
2.5
20
2.022542
30
1.469463
11
2.5
21
1.469463
31
2.022542
0
LINE
8
MEDIONETWORK
62
41
48
15.043094616359369
10
2.5
20
2.022542
30
1.7033405080823798
11
2.5
21
1.469463
31
2.1981189144067126
0
LINE
8
ASSE
62
253
10
2.5
20
2.022542
30
1.70289
11
2.5
21
1.469463
31
2.2029795
0
LINE
8
INTRADOSSO
62
256
10
2.5
20
2.022542
30
1.469463
11
2.5
21
1.469463
31
2.022542
0
LINE
8
ESTRADOSSO
62
256
10
2.5
20
2.022542
30
1.936317
11
2.5
21
1.469463
31
2.383417
0
LINE
8
MAXSPINTA
62
41
48
23.006519691433628
10
2.5
20
1.469463
30
2.299687571956613
11
2.5
21
0.772542
31
2.5868713040279383
0
LINE
8
MINSPINTA
62
21
48
7.558946739149469
10
2.5
20
1.469463
30
2.022542
11
2.5
21
0.772542
31
2.377641
0
LINE
8
MEDIONETWORK
62
21
48
12.485554864938365
10
2.5
20
1.469463
30
2.1981189144067126
11
2.5
21
0.772542
31
2.5396649670019418
0
LINE
8
ASSE
62
253
10
2.5
20
1.469463
30
2.2029795
11
2.5
21
0.772542
31
2.534478
0
LINE
8
INTRADOSSO
62
256
10
2.5
20
1.469463
30
2.022542
11
2.5
21
0.772542
31
2.377641
0
LINE
8
ESTRADOSSO
62
256
10
2.5
20
1.469463
30
2.383417
11
2.5
21
0.772542
31
2.691315
0
LINE
8
MAXSPINTA
62
41
48
21.45435255150361
10
2.5
20
0.772542
30
2.5868713040279383
11
2.5
21
0.0
31
2.688440040427447
0
LINE
8
MINSPINTA
62
21
48
6.819024811265252
10
2.5
20
0.772542
30
2.377641
11
2.5
21
0.0
31
2.5
0
LINE
8
MEDIONETWORK
62
21
48
11.345789225426342
10
2.5
20
0.772542
30
2.5396649670019418
11
2.5
21
0.0
31
2.659566623955263
0
LINE
8
ASSE
62
253
10
2.5
20
0.772542
30
2.534478
11
2.5
21
0.0
31
2.65
0
LINE
8
INTRADOSSO
62
256
10
2.5
20
0.772542
30
2.377641
11
2.5
21
0.0
31
2.5
0
LINE
8
ESTRADOSSO
62
256
10
2.5
20
0.772542
30
2.691315
11
2.5
21
0.0
31
2.8
0
LINE
8
MAXSPINTA
62
81
48
45.94524701947316
10
2.022542
20
2.022542
30
1.926773015941382
11
2.022542
21
1.469463
31
2.253941423214066
0
LINE
8
MINSPINTA
62
41
48
17.241935404716862
10
2.022542
20
2.022542
30
1.6076360317559482
11
2.022542
21
1.469463
31
2.131247417084778
0
LINE
8
MEDIONETWORK
62
41
48
26.58536025094903
10
2.022542
20
2.022542
30
1.7621222177872948
11
2.022542
21
1.469463
31
2.200042891780202
0
LINE
8
ASSE
62
253
10
2.022542
20
2.022542
30
1.70289
11
2.022542
21
1.469463
31
2.2029795
0
LINE
8
INTRADOSSO
62
256
10
2.022542
20
2.022542
30
1.469463
11
2.022542
21
1.469463
31
2.022542
0
LINE
8
ESTRADOSSO
62
256
10
2.022542
20
2.022542
30
1.936317
11
2.022542
21
1.469463
31
2.383417
0
LINE
8
MAXSPINTA
62
81
48
41.882511516237315
10
2.022542
20
1.469463
30
2.253941423214066
11
2.022542
21
0.772542
31
2.49710587996277
0
LINE
8
MINSPINTA
62
41
48
14.160825675281899
10
2.022542
20
1.469463
30
2.131247417084778
11
2.022542
21
0.772542
31
2.4994363087836886
0
LINE
8
MEDIONETWORK
62
41
48
22.886522024003693
10
2.022542
20
1.469463
30
2.200042891780202
11
2.022542
21
0.772542
31
2.516132280023399
0
LINE
8
ASSE
62
253
10
2.022542
20
1.469463
30
2.2029795
11
2.022542
21
0.772542
31
2.534478
0
LINE
8
INTRADOSSO
62
256
10
2.022542
20
1.469463
30
2.022542
11
2.022542
21
0.772542
31
2.377641
0
LINE
8
ESTRADOSSO
62
256
10
2.022542
20
1.469463
30
2.383417
11
2.022542
21
0.772542
31
2.691315
0
LINE
8
MAXSPINTA
62
61
48
39.80471130032544
10
2.022542
20
0.772542
30
2.49710587996277
11
2.022542
21
0.0
31
2.5858683257030917
0
LINE
8
MINSPINTA
62
21
48
12.699810512530215
10
2.022542
20
0.772542
30
2.4994363087836886
11
2.022542
21
0.0
31
2.6305087866973715
0
LINE
8
MEDIONETWORK
62
41
48
21.068694726988934
10
2.022542
20
0.772542
30
2.516132280023399
11
2.022542
21
0.0
31
2.630148534010417
0
LINE
8
ASSE
62
253
10
2.022542
20
0.772542
30
2.534478
11
2.022542
21
0.0
31
2.65
0
LINE
8
INTRADOSSO
62
256
10
2.022542
20
0.772542
30
2.377641
11
2.022542
21
0.0
31
2.5
0
LINE
8
ESTRADOSSO
62
256
10
2.022542
20
0.772542
30
2.691315
11
2.022542
21
0.0
31
2.8
0
LINE
8
MAXSPINTA
62
61
48
38.37334108362012
10
1.469463
20
1.469463
30
2.2815912566913368
11
1.469463
21
0.772542
31
2.4677875379417076
0
LINE
8
MINSPINTA
62
21
48
13.074569060739485
10
1.469463
20
1.469463
30
2.270412401933931
11
1.469463
21
0.772542
31
2.612281260241448
0
LINE
8
MEDIONETWORK
62
41
48
20.897255750342318
10
1.469463
20
1.469463
30
2.2705296111922726
11
1.469463
21
0.772542
31
2.534733006016637
0
LINE
8
ASSE
62
253
10
1.469463
20
1.469463
30
2.2029795
11
1.469463
21
0.772542
31
2.534478
0
LINE
8
INTRADOSSO
62
256
10
1.469463
20
1.469463
30
2.022542
11
1.469463
21
0.772542
31
2.377641
0
LINE
8
ESTRADOSSO
62
256
10
1.469463
20
1.469463
30
2.383417
11
1.469463
21
0.772542
31
2.691315
0
LINE
8
MAXSPINTA
62
61
48
37.229239341203595
10
1.469463
20
0.772542
30
2.4677875379417076
11
1.469463
21
0.0
31
2.538784576127422
0
LINE
8
MINSPINTA
62
21
48
11.897755202917871
10
1.469463
20
0.772542
30
2.612281260241448
11
1.469463
21
0.0
31
2.7400406278521907
0
LINE
8
MEDIONETWORK
62
41
48
19.70231224645004
10
1.469463
20
0.772542
30
2.534733006016637
11
1.469463
21
0.0
31
2.6344401842980965
0
LINE
8
ASSE
62
253
10
1.469463
20
0.772542
30
2.534478
11
1.469463
21
0.0
31
2.65
0
LINE
8
INTRADOSSO
62
256
10
1.469463
20
0.772542
30
2.377641
11
1.469463
21
0.0
31
2.5
0
LINE
8
ESTRADOSSO
62
256
10
1.469463
20
0.772542
30
2.691315
11
1.469463
21
0.0
31
2.8
0
LINE
8
MAXSPINTA
62
61
48
35.310480552302096
10
0.772542
20
0.772542
30
2.4639687279832527
11
0.772542
21
0.0
31
2.5195753124555003
0
LINE
8
MINSPINTA
62
21
48
11.303819707564596
10
0.772542
20
0.772542
30
2.6718369208137753
11
0.772542
21
0.0
31
2.8
0
LINE
8
MEDIONETWORK
62
41
48
18.684116231852798
10
0.772542
20
0.772542
30
2.55337889852611
11
0.772542
21
0.0
31
2.641688898526917
0
LINE
8
ASSE
62
253
10
0.772542
20
0.772542
30
2.534478
11
0.772542
21
0.0
31
2.65
0
LINE
8
INTRADOSSO
62
256
10
0.772542
20
0.772542
30
2.377641
11
0.772542
21
0.0
31
2.5
0
LINE
8
ESTRADOSSO
62
256
10
0.772542
20
0.772542
30
2.691315
11
0.772542
21
0.0
31
2.8
0
LINE
8
MAXSPINTA
62
61
48
32.06414846158013
10
2.5
20
0.772542
30
2.5868713040279383
11
2.022542
21
0.772542
31
2.49710587996277
0
LINE
8
MINSPINTA
62
21
48
10.297085903040026
10
2.5
20
0.772542
30
2.377641
11
2.022542
21
0.772542
31
2.4994363087836886
0
LINE
8
MEDIONETWORK
62
41
48
16.62936494182172
10
2.5
20
0.772542
30
2.5396649670019418
11
2.022542
21
0.772542
31
2.516132280023399
0
LINE
8
ASSE
62
253
10
2.5
20
0.772542
30
2.534478
11
2.022542
21
0.772542
31
2.534478
0
LINE
8
INTRADOSSO
62
256
10
2.5
20
0.772542
30
2.377641
11
2.022542
21
0.772542
31
2.377641
0
LINE
8
ESTRADOSSO
62
256
10
2.5
20
0.772542
30
2.691315
11
2.022542
21
0.772542
31
2.691315
0
LINE
8
MAXSPINTA
62
61
48
31.556305529833587
10
2.022542
20
0.772542
30
2.49710587996277
11
1.469463
21
0.772542
31
2.4677875379417076
0
LINE
8
MINSPINTA
62
21
48
10.183131822753433
10
2.022542
20
0.772542
30
2.4994363087836886
11
1.469463
21
0.772542
31
2.612281260241448
0
LINE
8
MEDIONETWORK
62
41
48
16.61859354738896
10
2.022542
20
0.772542
30
2.516132280023399
11
1.469463
21
0.772542
31
2.534733006016637
0
LINE
8
ASSE
62
253
10
2.022542
20
0.772542
30
2.534478
11
1.469463
21
0.772542
31
2.534478
0
LINE
8
INTRADOSSO
62
256
10
2.022542
20
0.772542
30
2.377641
11
1.469463
21
0.772542
31
2.377641
0
LINE
8
ESTRADOSSO
62
256
10
2.022542
20
0.772542
30
2.691315
11
1.469463
21
0.772542
31
2.691315
0
LINE
8
MAXSPINTA
62
61
48
31.512535406950207
10
1.469463
20
0.772542
30
2.4677875379417076
11
0.772542
21
0.772542
31
2.4639687279832527
0
LINE
8
MINSPINTA
62
21
48
10.01393892298722
10
1.469463
20
0.772542
30
2.612281260241448
11
0.772542
21
0.772542
31
2.6718369208137753
0
LINE
8
MEDIONETWORK
62
41
48
16.615146677187667
10
1.469463
20
0.772542
30
2.534733006016637
11
0.772542
21
0.772542
31
2.55337889852611
0
LINE
8
ASSE
62
253
10
1.469463
20
0.772542
30
2.534478
11
0.772542
21
0.772542
31
2.534478
0
LINE
8
INTRADOSSO
62
256
10
1.469463
20
0.772542
30
2.377641
11
0.772542
21
0.772542
31
2.377641
0
LINE
8
ESTRADOSSO
62
256
10
1.469463
20
0.772542
30
2.691315
11
0.772542
21
0.772542
31
2.691315
0
LINE
8
MAXSPINTA
62
61
48
31.68564288708428
10
2.5
20
2.022542
30
1.8765896783372222
11
2.022542
21
2.022542
31
1.926773015941382
0
LINE
8
MINSPINTA
62
21
48
10.386977209056138
10
2.5
20
2.022542
30
1.469463
11
2.022542
21
2.022542
31
1.6076360317559482
0
LINE
8
MEDIONETWORK
62
41
48
16.73460290501837
10
2.5
20
2.022542
30
1.7033405080823798
11
2.022542
21
2.022542
31
1.7621222177872948
0
LINE
8
ASSE
62
253
10
2.5
20
2.022542
30
1.70289
11
2.022542
21
2.022542
31
1.70289
0
LINE
8
INTRADOSSO
62
256
10
2.5
20
2.022542
30
1.469463
11
2.022542
21
2.022542
31
1.469463
0
LINE
8
ESTRADOSSO
62
256
10
2.5
20
2.022542
30
1.936317
11
2.022542
21
2.022542
31
1.936317
0
LINE
8
MAXSPINTA
62
61
48
35.870168632866054
10
2.5
20
2.377641
30
1.400376771646307
11
2.377641
21
2.377641
31
1.4669164496418874
0
LINE
8
MINSPINTA
62
21
48
10.639383172289724
10
2.5
20
2.377641
30
0.772542
11
2.377641
21
2.377641
31
0.8178411083924603
0
LINE
8
MEDIONETWORK
62
41
48
18.125358423768358
10
2.5
20
2.377641
30
1.0518337823278272
11
2.377641
21
2.377641
31
1.1052951253242569
0
LINE
8
ASSE
62
253
10
2.5
20
2.377641
30
1.1256665
11
2.377641
21
2.377641
31
1.1256665
0
LINE
8
INTRADOSSO
62
256
10
2.5
20
2.377641
30
0.772542
11
2.377641
21
2.377641
31
0.772542
0
LINE
8
ESTRADOSSO
62
256
10
2.5
20
2.377641
30
1.478791
11
2.377641
21
2.377641
31
1.478791
0
LINE
8
MAXSPINTA
62
61
48
31.656370949464215
10
2.5
20
1.469463
30
2.299687571956613
11
2.022542
21
1.469463
31
2.253941423214066
0
LINE
8
MINSPINTA
62
21
48
10.232905988471373
10
2.5
20
1.469463
30
2.022542
11
2.022542
21
1.469463
31
2.131247417084778
0
LINE
8
MEDIONETWORK
62
41
48
16.609338051999384
10
2.5
20
1.469463
30
2.1981189144067126
11
2.022542
21
1.469463
31
2.200042891780202
0
LINE
8
ASSE
62
253
10
2.5
20
1.469463
30
2.2029795
11
2.022542
21
1.469463
31
2.2029795
0
LINE
8
INTRADOSSO
62
256
10
2.5
20
1.469463
30
2.022542
11
2.022542
21
1.469463
31
2.022542
0
LINE
8
ESTRADOSSO
62
256
10
2.5
20
1.469463
30
2.383417
11
2.022542
21
1.469463
31
2.383417
0
LINE
8
MAXSPINTA
62
61
48
31.55141610740884
10
2.022542
20
1.469463
30
2.253941423214066
11
1.469463
21
1.469463
31
2.2815912566913368
0
LINE
8
MINSPINTA
62
21
48
10.288576723777641
10
2.022542
20
1.469463
30
2.131247417084778
11
1.469463
21
1.469463
31
2.270412401933931
0
LINE
8
MEDIONETWORK
62
41
48
16.743543483693777
10
2.022542
20
1.469463
30
2.200042891780202
11
1.469463
21
1.469463
31
2.2705296111922726
0
LINE
8
ASSE
62
253
10
2.022542
20
1.469463
30
2.2029795
11
1.469463
21
1.469463
31
2.2029795
0
LINE
8
INTRADOSSO
62
256
10
2.022542
20
1.469463
30
2.022542
11
1.469463
21
1.469463
31
2.022542
0
LINE
8
ESTRADOSSO
62
256
10
2.022542
20
1.469463
30
2.383417
11
1.469463
21
1.469463
31
2.383417
0
LINE
8
MAXSPINTA
62
61
48
32.24829169246855
10
2.5
20
2.5
30
1.260952
11
2.377641
21
2.5
31
1.4003767716463067
0
LINE
8
MINSPINTA
62
61
48
27.502831758733326
10
2.5
20
2.5
30
0.2880995775480541
11
2.377641
21
2.5
31
0.772542
0
LINE
8
MEDIONETWORK
62
61
48
32.98755219823758
10
2.5
20
2.5
30
0.713250380423261
11
2.377641
21
2.5
31
1.0518337822087516
0
LINE
8
ASSE
62
253
10
2.5
20
2.5
30
0.630476
11
2.377641
21
2.5
31
1.1256665
0
LINE
8
INTRADOSSO
62
256
10
2.5
20
2.5
30
0.0
11
2.377641
21
2.5
31
0.772542
0
LINE
8
ESTRADOSSO
62
256
10
2.5
20
2.5
30
1.260952
11
2.377641
21
2.5
31
1.478791
0
LINE
8
MAXSPINTA
62
61
48
35.58397315989653
10
2.377641
20
2.5
30
1.4003767716463067
11
2.022542
21
2.5
31
1.8765896783372216
0
LINE
8
MINSPINTA
62
41
48
14.835267687024725
10
2.377641
20
2.5
30
0.772542
11
2.022542
21
2.5
31
1.469463
0
LINE
8
MEDIONETWORK
62
41
48
23.427040733385102
10
2.377641
20
2.5
30
1.0518337822087516
11
2.022542
21
2.5
31
1.7033405069743535
0
LINE
8
ASSE
62
253
10
2.377641
20
2.5
30
1.1256665
11
2.022542
21
2.5
31
1.70289
0
LINE
8
INTRADOSSO
62
256
10
2.377641
20
2.5
30
0.772542
11
2.022542
21
2.5
31
1.469463
0
LINE
8
ESTRADOSSO
62
256
10
2.377641
20
2.5
30
1.478791
11
2.022542
21
2.5
31
1.936317
0
LINE
8
MAXSPINTA
62
61
48
26.781607189701443
10
2.022542
20
2.5
30
1.8765896783372216
11
1.469463
21
2.5
31
2.299687571956613
0
LINE
8
MINSPINTA
62
21
48
9.524828475993504
10
2.022542
20
2.5
30
1.469463
11
1.469463
21
2.5
31
2.022542
0
LINE
8
MEDIONETWORK
62
41
48
15.043094580122311
10
2.022542
20
2.5
30
1.7033405069743535
11
1.469463
21
2.5
31
2.1981189106175325
0
LINE
8
ASSE
62
253
10
2.022542
20
2.5
30
1.70289
11
1.469463
21
2.5
31
2.2029795
0
LINE
8
INTRADOSSO
62
256
10
2.022542
20
2.5
30
1.469463
11
1.469463
21
2.5
31
2.022542
0
LINE
8
ESTRADOSSO
62
256
10
2.022542
20
2.5
30
1.936317
11
1.469463
21
2.5
31
2.383417
0
LINE
8
MAXSPINTA
62
41
48
23.006519691433628
10
1.469463
20
2.5
30
2.299687571956613
11
0.772542
21
2.5
31
2.5868713040279383
0
LINE
8
MINSPINTA
62
21
48
7.558946739149469
10
1.469463
20
2.5
30
2.022542
11
0.772542
21
2.5
31
2.377641
0
LINE
8
MEDIONETWORK
62
21
48
12.485554827388894
10
1.469463
20
2.5
30
2.1981189106175325
11
0.772542
21
2.5
31
2.539664957908835
0
LINE
8
ASSE
62
253
10
1.469463
20
2.5
30
2.2029795
11
0.772542
21
2.5
31
2.534478
0
LINE
8
INTRADOSSO
62
256
10
1.469463
20
2.5
30
2.022542
11
0.772542
21
2.5
31
2.377641
0
LINE
8
ESTRADOSSO
62
256
10
1.469463
20
2.5
30
2.383417
11
0.772542
21
2.5
31
2.691315
0
LINE
8
MAXSPINTA
62
41
48
21.45435255150361
10
0.772542
20
2.5
30
2.5868713040279383
11
-0.0
21
2.5
31
2.6884400404274467
0
LINE
8
MINSPINTA
62
21
48
6.819024811265252
10
0.772542
20
2.5
30
2.377641
11
-0.0
21
2.5
31
2.5
0
LINE
8
MEDIONETWORK
62
21
48
11.345789212420646
10
0.772542
20
2.5
30
2.539664957908835
11
-0.0
21
2.5
31
2.6595666090188947
0
LINE
8
ASSE
62
253
10
0.772542
20
2.5
30
2.534478
11
-0.0
21
2.5
31
2.65
0
LINE
8
INTRADOSSO
62
256
10
0.772542
20
2.5
30
2.377641
11
-0.0
21
2.5
31
2.5
0
LINE
8
ESTRADOSSO
62
256
10
0.772542
20
2.5
30
2.691315
11
-0.0
21
2.5
31
2.8
0
LINE
8
MAXSPINTA
62
81
48
45.94524701947316
10
2.022542
20
2.022542
30
1.926773015941382
11
1.469463
21
2.022542
31
2.253941423214066
0
LINE
8
MINSPINTA
62
41
48
17.241935404716866
10
2.022542
20
2.022542
30
1.6076360317559482
11
1.469463
21
2.022542
31
2.131247417084778
0
LINE
8
MEDIONETWORK
62
41
48
26.585360191554745
10
2.022542
20
2.022542
30
1.7621222177872948
11
1.469463
21
2.022542
31
2.2000428892412827
0
LINE
8
ASSE
62
253
10
2.022542
20
2.022542
30
1.70289
11
1.469463
21
2.022542
31
2.2029795
0
LINE
8
INTRADOSSO
62
256
10
2.022542
20
2.022542
30
1.469463
11
1.469463
21
2.022542
31
2.022542
0
LINE
8
ESTRADOSSO
62
256
10
2.022542
20
2.022542
30
1.936317
11
1.469463
21
2.022542
31
2.383417
0
LINE
8
MAXSPINTA
62
81
48
41.882511516237315
10
1.469463
20
2.022542
30
2.253941423214066
11
0.772542
21
2.022542
31
2.49710587996277
0
LINE
8
MINSPINTA
62
41
48
14.160825675281892
10
1.469463
20
2.022542
30
2.131247417084778
11
0.772542
21
2.022542
31
2.4994363087836877
0
LINE
8
MEDIONETWORK
62
41
48
22.88652197095391
10
1.469463
20
2.022542
30
2.2000428892412827
11
0.772542
21
2.022542
31
2.5161322731900704
0
LINE
8
ASSE
62
253
10
1.469463
20
2.022542
30
2.2029795
11
0.772542
21
2.022542
31
2.534478
0
LINE
8
INTRADOSSO
62
256
10
1.469463
20
2.022542
30
2.022542
11
0.772542
21
2.022542
31
2.377641
0
LINE
8
ESTRADOSSO
62
256
10
1.469463
20
2.022542
30
2.383417
11
0.772542
21
2.022542
31
2.691315
0
LINE
8
MAXSPINTA
62
61
48
39.804711300325444
10
0.772542
20
2.022542
30
2.49710587996277
11
-0.0
21
2.022542
31
2.585868325703092
0
LINE
8
MINSPINTA
62
21
48
12.699810512530219
10
0.772542
20
2.022542
30
2.4994363087836877
11
-0.0
21
2.022542
31
2.630508786697371
0
LINE
8
MEDIONETWORK
62
41
48
21.068694707119725
10
0.772542
20
2.022542
30
2.5161322731900704
11
-0.0
21
2.022542
31
2.630148522133048
0
LINE
8
ASSE
62
253
10
0.772542
20
2.022542
30
2.534478
11
-0.0
21
2.022542
31
2.65
0
LINE
8
INTRADOSSO
62
256
10
0.772542
20
2.022542
30
2.377641
11
-0.0
21
2.022542
31
2.5
0
LINE
8
ESTRADOSSO
62
256
10
0.772542
20
2.022542
30
2.691315
11
-0.0
21
2.022542
31
2.8
0
LINE
8
MAXSPINTA
62
61
48
38.37334108362012
10
1.469463
20
1.469463
30
2.2815912566913368
11
0.772542
21
1.469463
31
2.467787537941707
0
LINE
8
MINSPINTA
62
21
48
13.074569060739487
10
1.469463
20
1.469463
30
2.270412401933931
11
0.772542
21
1.469463
31
2.612281260241448
0
LINE
8
MEDIONETWORK
62
41
48
20.897255710979824
10
1.469463
20
1.469463
30
2.2705296111922726
11
0.772542
21
1.469463
31
2.5347330020562207
0
LINE
8
ASSE
62
253
10
1.469463
20
1.469463
30
2.2029795
11
0.772542
21
1.469463
31
2.534478
0
LINE
8
INTRADOSSO
62
256
10
1.469463
20
1.469463
30
2.022542
11
0.772542
21
1.469463
31
2.377641
0
LINE
8
ESTRADOSSO
62
256
10
1.469463
20
1.469463
30
2.383417
11
0.772542
21
1.469463
31
2.691315
0
LINE
8
MAXSPINTA
62
61
48
37.229239341203595
10
0.772542
20
1.469463
30
2.467787537941707
11
-0.0
21
1.469463
31
2.538784576127423
0
LINE
8
MINSPINTA
62
21
48
11.89775520291787
10
0.772542
20
1.469463
30
2.612281260241448
11
-0.0
21
1.469463
31
2.7400406278521903
0
LINE
8
MEDIONETWORK
62
41
48
19.70231223119789
10
0.772542
20
1.469463
30
2.5347330020562207
11
-0.0
21
1.469463
31
2.6344401756267537
0
LINE
8
ASSE
62
253
10
0.772542
20
1.469463
30
2.534478
11
-0.0
21
1.469463
31
2.65
0
LINE
8
INTRADOSSO
62
256
10
0.772542
20
1.469463
30
2.377641
11
-0.0
21
1.469463
31
2.5
0
LINE
8
ESTRADOSSO
62
256
10
0.772542
20
1.469463
30
2.691315
11
-0.0
21
1.469463
31
2.8
0
LINE
8
MAXSPINTA
62
61
48
35.310480552302096
10
0.772542
20
0.772542
30
2.4639687279832527
11
-0.0
21
0.772542
31
2.5195753124555
0
LINE
8
MINSPINTA
62
21
48
11.303819707564594
10
0.772542
20
0.772542
30
2.6718369208137753
11
-0.0
21
0.772542
31
2.799999999999999
0
LINE
8
MEDIONETWORK
62
41
48
18.684116219354074
10
0.772542
20
0.772542
30
2.55337889852611
11
-0.0
21
0.772542
31
2.6416888939469154
0
LINE
8
ASSE
62
253
10
0.772542
20
0.772542
30
2.534478
11
-0.0
21
0.772542
31
2.65
0
LINE
8
INTRADOSSO
62
256
10
0.772542
20
0.772542
30
2.377641
11
-0.0
21
0.772542
31
2.5
0
LINE
8
ESTRADOSSO
62
256
10
0.772542
20
0.772542
30
2.691315
11
-0.0
21
0.772542
31
2.8
0
LINE
8
MAXSPINTA
62
61
48
32.06414846158013
10
0.772542
20
2.5
30
2.5868713040279383
11
0.772542
21
2.022542
31
2.49710587996277
0
LINE
8
MINSPINTA
62
21
48
10.29708590304002
10
0.772542
20
2.5
30
2.377641
11
0.772542
21
2.022542
31
2.4994363087836877
0
LINE
8
MEDIONETWORK
62
41
48
16.629364937951916
10
0.772542
20
2.5
30
2.539664957908835
11
0.772542
21
2.022542
31
2.5161322731900704
0
LINE
8
ASSE
62
253
10
0.772542
20
2.5
30
2.534478
11
0.772542
21
2.022542
31
2.534478
0
LINE
8
INTRADOSSO
62
256
10
0.772542
20
2.5
30
2.377641
11
0.772542
21
2.022542
31
2.377641
0
LINE
8
ESTRADOSSO
62
256
10
0.772542
20
2.5
30
2.691315
11
0.772542
21
2.022542
31
2.691315
0
LINE
8
MAXSPINTA
62
61
48
31.556305529833594
10
0.772542
20
2.022542
30
2.49710587996277
11
0.772542
21
1.469463
31
2.467787537941707
0
LINE
8
MINSPINTA
62
21
48
10.183131822753435
10
0.772542
20
2.022542
30
2.4994363087836877
11
0.772542
21
1.469463
31
2.612281260241448
0
LINE
8
MEDIONETWORK
62
41
48
16.61859355028885
10
0.772542
20
2.022542
30
2.5161322731900704
11
0.772542
21
1.469463
31
2.5347330020562207
0
LINE
8
ASSE
62
253
10
0.772542
20
2.022542
30
2.534478
11
0.772542
21
1.469463
31
2.534478
0
LINE
8
INTRADOSSO
62
256
10
0.772542
20
2.022542
30
2.377641
11
0.772542
21
1.469463
31
2.377641
0
LINE
8
ESTRADOSSO
62
256
10
0.772542
20
2.022542
30
2.691315
11
0.772542
21
1.469463
31
2.691315
0
LINE
8
MAXSPINTA
62
61
48
31.512535406950207
10
0.772542
20
1.469463
30
2.467787537941707
11
0.772542
21
0.772542
31
2.4639687279832527
0
LINE
8
MINSPINTA
62
21
48
10.01393892298722
10
0.772542
20
1.469463
30
2.612281260241448
11
0.772542
21
0.772542
31
2.6718369208137753
0
LINE
8
MEDIONETWORK
62
41
48
16.615146679712023
10
0.772542
20
1.469463
30
2.5347330020562207
11
0.772542
21
0.772542
31
2.55337889852611
0
LINE
8
ASSE
62
253
10
0.772542
20
1.469463
30
2.534478
11
0.772542
21
0.772542
31
2.534478
0
LINE
8
INTRADOSSO
62
256
10
0.772542
20
1.469463
30
2.377641
11
0.772542
21
0.772542
31
2.377641
0
LINE
8
ESTRADOSSO
62
256
10
0.772542
20
1.469463
30
2.691315
11
0.772542
21
0.772542
31
2.691315
0
LINE
8
MAXSPINTA
62
61
48
31.68564288708429
10
2.022542
20
2.5
30
1.8765896783372216
11
2.022542
21
2.022542
31
1.926773015941382
0
LINE
8
MINSPINTA
62
21
48
10.386977209056138
10
2.022542
20
2.5
30
1.469463
11
2.022542
21
2.022542
31
1.6076360317559482
0
LINE
8
MEDIONETWORK
62
41
48
16.73460290972819
10
2.022542
20
2.5
30
1.7033405069743535
11
2.022542
21
2.022542
31
1.7621222177872948
0
LINE
8
ASSE
62
253
10
2.022542
20
2.5
30
1.70289
11
2.022542
21
2.022542
31
1.70289
0
LINE
8
INTRADOSSO
62
256
10
2.022542
20
2.5
30
1.469463
11
2.022542
21
2.022542
31
1.469463
0
LINE
8
ESTRADOSSO
62
256
10
2.022542
20
2.5
30
1.936317
11
2.022542
21
2.022542
31
1.936317
0
LINE
8
MAXSPINTA
62
61
48
35.87016863286608
10
2.377641
20
2.5
30
1.4003767716463067
11
2.377641
21
2.377641
31
1.4669164496418874
0
LINE
8
MINSPINTA
62
21
48
10.639383172289724
10
2.377641
20
2.5
30
0.772542
11
2.377641
21
2.377641
31
0.8178411083924603
0
LINE
8
MEDIONETWORK
62
41
48
18.125358430239814
10
2.377641
20
2.5
30
1.0518337822087516
11
2.377641
21
2.377641
31
1.1052951253242569
0
LINE
8
ASSE
62
253
10
2.377641
20
2.5
30
1.1256665
11
2.377641
21
2.377641
31
1.1256665
0
LINE
8
INTRADOSSO
62
256
10
2.377641
20
2.5
30
0.772542
11
2.377641
21
2.377641
31
0.772542
0
LINE
8
ESTRADOSSO
62
256
10
2.377641
20
2.5
30
1.478791
11
2.377641
21
2.377641
31
1.478791
0
LINE
8
MAXSPINTA
62
61
48
31.656370949464215
10
1.469463
20
2.5
30
2.299687571956613
11
1.469463
21
2.022542
31
2.253941423214066
0
LINE
8
MINSPINTA
62
21
48
10.232905988471373
10
1.469463
20
2.5
30
2.022542
11
1.469463
21
2.022542
31
2.131247417084778
0
LINE
8
MEDIONETWORK
62
41
48
16.60933805217464
10
1.469463
20
2.5
30
2.1981189106175325
11
1.469463
21
2.022542
31
2.2000428892412827
0
LINE
8
ASSE
62
253
10
1.469463
20
2.5
30
2.2029795
11
1.469463
21
2.022542
31
2.2029795
0
LINE
8
INTRADOSSO
62
256
10
1.469463
20
2.5
30
2.022542
11
1.469463
21
2.022542
31
2.022542
0
LINE
8
ESTRADOSSO
62
256
10
1.469463
20
2.5
30
2.383417
11
1.469463
21
2.022542
31
2.383417
0
LINE
8
MAXSPINTA
62
61
48
31.55141610740884
10
1.469463
20
2.022542
30
2.253941423214066
11
1.469463
21
1.469463
31
2.2815912566913368
0
LINE
8
MINSPINTA
62
21
48
10.288576723777641
10
1.469463
20
2.022542
30
2.131247417084778
11
1.469463
21
1.469463
31
2.270412401933931
0
LINE
8
MEDIONETWORK
62
41
48
16.74354349333278
10
1.469463
20
2.022542
30
2.2000428892412827
11
1.469463
21
1.469463
31
2.2705296111922726
0
LINE
8
ASSE
62
253
10
1.469463
20
2.022542
30
2.2029795
11
1.469463
21
1.469463
31
2.2029795
0
LINE
8
INTRADOSSO
62
256
10
1.469463
20
2.022542
30
2.022542
11
1.469463
21
1.469463
31
2.022542
0
LINE
8
ESTRADOSSO
62
256
10
1.469463
20
2.022542
30
2.383417
11
1.469463
21
1.469463
31
2.383417
0
LINE
8
MAXSPINTA
62
61
48
32.257199754535414
10
0.772542
20
2.977458
30
2.691315
11
0.772542
21
2.5
31
2.5868713040279383
0
LINE
8
MINSPINTA
62
21
48
11.242188812154769
10
0.772542
20
2.977458
30
2.1297506495045395
11
0.772542
21
2.5
31
2.377641
0
LINE
8
MEDIONETWORK
62
41
48
16.61468876319611
10
0.772542
20
2.977458
30
2.5273927668517917
11
0.772542
21
2.5
31
2.539664957908835
0
LINE
8
ASSE
62
253
10
0.772542
20
2.977458
30
2.284478
11
0.772542
21
2.5
31
2.534478
0
LINE
8
INTRADOSSO
62
256
10
0.772542
20
2.977458
30
1.877641
11
0.772542
21
2.5
31
2.377641
0
LINE
8
ESTRADOSSO
62
256
10
0.772542
20
2.977458
30
2.691315
11
0.772542
21
2.5
31
2.691315
0
LINE
8
MAXSPINTA
62
61
48
31.99293670974503
10
1.469463
20
2.977458
30
2.383417
11
1.469463
21
2.5
31
2.299687571956613
0
LINE
8
MINSPINTA
62
21
48
10.737742991972954
10
1.469463
20
2.977458
30
1.8326480628244564
11
1.469463
21
2.5
31
2.022542
0
LINE
8
MEDIONETWORK
62
41
48
16.617712667482518
10
1.469463
20
2.977458
30
2.1828333103534368
11
1.469463
21
2.5
31
2.1981189106175325
0
LINE
8
ASSE
62
253
10
1.469463
20
2.977458
30
1.9529795
11
1.469463
21
2.5
31
2.2029795
0
LINE
8
INTRADOSSO
62
256
10
1.469463
20
2.977458
30
1.522542
11
1.469463
21
2.5
31
2.022542
0
LINE
8
ESTRADOSSO
62
256
10
1.469463
20
2.977458
30
2.383417
11
1.469463
21
2.5
31
2.383417
0
LINE
8
MAXSPINTA
62
61
48
31.7576651898151
10
2.022542
20
2.977458
30
1.936317
11
2.022542
21
2.5
31
1.8765896783372216
0
LINE
8
MINSPINTA
62
21
48
10.075898725113678
10
2.022542
20
2.977458
30
1.402268072476482
11
2.022542
21
2.5
31
1.469463
0
LINE
8
MEDIONETWORK
62
41
48
16.97304069864749
10
2.022542
20
2.977458
30
1.8038240543207813
11
2.022542
21
2.5
31
1.7033405069743535
0
LINE
8
ASSE
62
253
10
2.022542
20
2.977458
30
1.45289
11
2.022542
21
2.5
31
1.70289
0
LINE
8
INTRADOSSO
62
256
10
2.022542
20
2.977458
30
0.969463
11
2.022542
21
2.5
31
1.469463
0
LINE
8
ESTRADOSSO
62
256
10
2.022542
20
2.977458
30
1.936317
11
2.022542
21
2.5
31
1.936317
0
LINE
8
MAXSPINTA
62
81
48
41.12513005832927
10
2.377641
20
2.977458
30
1.0
11
2.377641
21
2.5
31
1.4003767716463067
0
LINE
8
MINSPINTA
62
21
48
11.051941138663777
10
2.377641
20
2.977458
30
1.0
11
2.377641
21
2.5
31
0.772542
0
LINE
8
MEDIONETWORK
62
41
48
16.70679206572833
10
2.377641
20
2.977458
30
1.0
11
2.377641
21
2.5
31
1.0518337822087516
0
LINE
8
ASSE
62
253
10
2.377641
20
2.977458
30
0.636271
11
2.377641
21
2.5
31
1.1256665
0
LINE
8
INTRADOSSO
62
256
10
2.377641
20
2.977458
30
0.272542
11
2.377641
21
2.5
31
0.772542
0
LINE
8
ESTRADOSSO
62
256
10
2.377641
20
2.977458
30
1.0
11
2.377641
21
2.5
31
1.478791
0
LINE
8
MAXSPINTA
62
61
48
32.257199754535414
10
2.977458
20
0.772542
30
2.691315
11
2.5
21
0.772542
31
2.5868713040279383
0
LINE
8
MINSPINTA
62
21
48
11.242188812154787
10
2.977458
20
0.772542
30
2.1297506495045377
11
2.5
21
0.772542
31
2.377641
0
LINE
8
MEDIONETWORK
62
41
48
16.6146887611645
10
2.977458
20
0.772542
30
2.5273927782178136
11
2.5
21
0.772542
31
2.5396649670019418
0
LINE
8
ASSE
62
253
10
2.977458
20
0.772542
30
2.284478
11
2.5
21
0.772542
31
2.534478
0
LINE
8
INTRADOSSO
62
256
10
2.977458
20
0.772542
30
1.877641
11
2.5
21
0.772542
31
2.377641
0
LINE
8
ESTRADOSSO
62
256
10
2.977458
20
0.772542
30
2.691315
11
2.5
21
0.772542
31
2.691315
0
LINE
8
MAXSPINTA
62
61
48
31.99293670974503
10
2.977458
20
1.469463
30
2.383417
11
2.5
21
1.469463
31
2.299687571956613
0
LINE
8
MINSPINTA
62
21
48
10.737742991972956
10
2.977458
20
1.469463
30
1.8326480628244561
11
2.5
21
1.469463
31
2.022542
0
LINE
8
MEDIONETWORK
62
41
48
16.617712667082
10
2.977458
20
1.469463
30
2.1828333145024335
11
2.5
21
1.469463
31
2.1981189144067126
0
LINE
8
ASSE
62
253
10
2.977458
20
1.469463
30
1.9529795
11
2.5
21
1.469463
31
2.2029795
0
LINE
8
INTRADOSSO
62
256
10
2.977458
20
1.469463
30
1.522542
11
2.5
21
1.469463
31
2.022542
0
LINE
8
ESTRADOSSO
62
256
10
2.977458
20
1.469463
30
2.383417
11
2.5
21
1.469463
31
2.383417
0
LINE
8
MAXSPINTA
62
61
48
31.757665189815093
10
2.977458
20
2.022542
30
1.936317
11
2.5
21
2.022542
31
1.8765896783372222
0
LINE
8
MINSPINTA
62
21
48
10.075898725113683
10
2.977458
20
2.022542
30
1.40226807247648
11
2.5
21
2.022542
31
1.469463
0
LINE
8
MEDIONETWORK
62
41
48
16.973040701823972
10
2.977458
20
2.022542
30
1.8038240558721956
11
2.5
21
2.022542
31
1.7033405080823798
0
LINE
8
ASSE
62
253
10
2.977458
20
2.022542
30
1.45289
11
2.5
21
2.022542
31
1.70289
0
LINE
8
INTRADOSSO
62
256
10
2.977458
20
2.022542
30
0.969463
11
2.5
21
2.022542
31
1.469463
0
LINE
8
ESTRADOSSO
62
256
10
2.977458
20
2.022542
30
1.936317
11
2.5
21
2.022542
31
1.936317
0
LINE
8
MAXSPINTA
62
81
48
41.125130058329276
10
2.977458
20
2.377641
30
1.0
11
2.5
21
2.377641
31
1.400376771646307
0
LINE
8
MINSPINTA
62
21
48
11.051941138663777
10
2.977458
20
2.377641
30
1.0
11
2.5
21
2.377641
31
0.772542
0
LINE
8
MEDIONETWORK
62
41
48
16.706792066175396
10
2.977458
20
2.377641
30
1.0
11
2.5
21
2.377641
31
1.0518337823278272
0
LINE
8
ASSE
62
253
10
2.977458
20
2.377641
30
0.636271
11
2.5
21
2.377641
31
1.1256665
0
LINE
8
INTRADOSSO
62
256
10
2.977458
20
2.377641
30
0.272542
11
2.5
21
2.377641
31
0.772542
0
LINE
8
ESTRADOSSO
62
256
10
2.977458
20
2.377641
30
1.0
11
2.5
21
2.377641
31
1.478791
0
LINE
8
MAXSPINTA
62
201
48
126.12509647091575
10
2.782843
20
-2.782843
30
0.6868117805246369
11
2.5
21
-2.5
31
1.260952
0
LINE
8
MINSPINTA
62
161
48
101.65372749236143
10
2.782843
20
-2.782843
30
-1.4475983651081867
11
2.5
21
-2.5
31
0.2880995775480538
0
LINE
8
MEDIONETWORK
62
201
48
123.2267795808446
10
2.782843
20
-2.782843
30
-0.5206184618882846
11
2.5
21
-2.5
31
0.7132504654055557
0
LINE
8
ASSE
62
253
10
2.782843
20
-2.782843
30
-0.39289949999999996
11
2.5
21
-2.5
31
0.630476
0
LINE
8
INTRADOSSO
62
256
10
2.782843
20
-2.782843
30
-1.785799
11
2.5
21
-2.5
31
0.0
0
LINE
8
ESTRADOSSO
62
256
10
2.782843
20
-2.782843
30
1.0
11
2.5
21
-2.5
31
1.260952
0
LINE
8
MAXSPINTA
62
201
48
126.12509647091576
10
-2.782843
20
-2.782843
30
0.6868117805246362
11
-2.5
21
-2.5
31
1.2609519999999996
0
LINE
8
MINSPINTA
62
161
48
101.65372749236143
10
-2.782843
20
-2.782843
30
-1.4475983651081863
11
-2.5
21
-2.5
31
0.28809957754805415
0
LINE
8
MEDIONETWORK
62
201
48
123.22678083260087
10
-2.782843
20
-2.782843
30
-0.5206184902942651
11
-2.5
21
-2.5
31
0.7132504508506474
0
LINE
8
ASSE
62
253
10
-2.782843
20
-2.782843
30
-0.39289949999999996
11
-2.5
21
-2.5
31
0.630476
0
LINE
8
INTRADOSSO
62
256
10
-2.782843
20
-2.782843
30
-1.785799
11
-2.5
21
-2.5
31
0.0
0
LINE
8
ESTRADOSSO
62
256
10
-2.782843
20
-2.782843
30
1.0
11
-2.5
21
-2.5
31
1.260952
0
LINE
8
MAXSPINTA
62
201
48
126.12509647091574
10
2.782843
20
2.782843
30
0.686811780524637
11
2.5
21
2.5
31
1.260952
0
LINE
8
MINSPINTA
62
161
48
101.6537274923614
10
2.782843
20
2.782843
30
-1.447598365108186
11
2.5
21
2.5
31
0.2880995775480541
0
LINE
8
MEDIONETWORK
62
201
48
123.22678547649834
10
2.782843
20
2.782843
30
-0.5206186121078198
11
2.5
21
2.5
31
0.713250380423261
0
LINE
8
ASSE
62
253
10
2.782843
20
2.782843
30
-0.39289949999999996
11
2.5
21
2.5
31
0.630476
0
LINE
8
INTRADOSSO
62
256
10
2.782843
20
2.782843
30
-1.785799
11
2.5
21
2.5
31
0.0
0
LINE
8
ESTRADOSSO
62
256
10
2.782843
20
2.782843
30
1.0
11
2.5
21
2.5
31
1.260952
0
LINE
8
MAXSPINTA
62
201
48
126.12509647091576
10
-2.782843
20
2.782843
30
0.6868117805246363
11
-2.5
21
2.5
31
1.2609519999999999
0
LINE
8
MINSPINTA
62
161
48
101.65372749236137
10
-2.782843
20
2.782843
30
-1.4475983651081854
11
-2.5
21
2.5
31
0.28809957754805454
0
LINE
8
MEDIONETWORK
62
201
48
123.22678241920538
10
-2.782843
20
2.782843
30
-0.5206185344249192
11
-2.5
21
2.5
31
0.7132504242762652
0
LINE
8
ASSE
62
253
10
-2.782843
20
2.782843
30
-0.39289949999999996
11
-2.5
21
2.5
31
0.630476
0
LINE
8
INTRADOSSO
62
256
10
-2.782843
20
2.782843
30
-1.785799
11
-2.5
21
2.5
31
0.0
0
LINE
8
ESTRADOSSO
62
256
10
-2.782843
20
2.782843
30
1.0
11
-2.5
21
2.5
31
1.260952
0
POINT
8
DIAGONALI
10
-2.5
20
-2.5
30
0.0
0
TEXT
8
ID-NODES
10
-2.5
20
-2.5
30
0.0
40
0.15
1
1
0
LINE
8
fz
62
7
10
-2.5
20
-2.5
30
1.260952
11
-2.5
21
-2.5
31
11.260952
0
POINT
8
DIAGONALI
10
-2.377641
20
-2.377641
30
0.772542
0
TEXT
8
ID-NODES
10
-2.377641
20
-2.377641
30
0.772542
40
0.15
1
2
0
LINE
8
fz
62
7
10
-2.377641
20
-2.377641
30
1.478791
11
-2.377641
21
-2.377641
31
11.478791
0
POINT
8
DIAGONALI
10
-2.022542
20
-2.022542
30
1.469463
0
TEXT
8
ID-NODES
10
-2.022542
20
-2.022542
30
1.469463
40
0.15
1
3
0
LINE
8
fz
62
7
10
-2.022542
20
-2.022542
30
1.936317
11
-2.022542
21
-2.022542
31
11.936317
0
POINT
8
DIAGONALI
10
-1.469463
20
-1.469463
30
2.022542
0
TEXT
8
ID-NODES
10
-1.469463
20
-1.469463
30
2.022542
40
0.15
1
4
0
LINE
8
fz
62
7
10
-1.469463
20
-1.469463
30
2.383417
11
-1.469463
21
-1.469463
31
12.383417
0
POINT
8
DIAGONALI
10
-0.772542
20
-0.772542
30
2.377641
0
TEXT
8
ID-NODES
10
-0.772542
20
-0.772542
30
2.377641
40
0.15
1
5
0
LINE
8
fz
62
7
10
-0.772542
20
-0.772542
30
2.691315
11
-0.772542
21
-0.772542
31
12.691315
0
POINT
8
DIAGONALI
10
-0.0
20
0.0
30
2.5
0
TEXT
8
ID-NODES
10
-0.0
20
0.0
30
2.5
40
0.15
1
6
0
LINE
8
fz
62
7
10
-0.0
20
0.0
30
2.8
11
-0.0
21
0.0
31
12.8
0
POINT
8
MERIDIANI
10
-2.5
20
-2.377641
30
0.772542
0
TEXT
8
ID-NODES
10
-2.5
20
-2.377641
30
0.772542
40
0.15
1
7
0
LINE
8
fz
62
7
10
-2.5
20
-2.377641
30
1.478791
11
-2.5
21
-2.377641
31
11.478791
0
POINT
8
MERIDIANI
10
-2.5
20
-2.022542
30
1.469463
0
TEXT
8
ID-NODES
10
-2.5
20
-2.022542
30
1.469463
40
0.15
1
8
0
LINE
8
fz
62
7
10
-2.5
20
-2.022542
30
1.936317
11
-2.5
21
-2.022542
31
11.936317
0
POINT
8
MERIDIANI
10
-2.5
20
-1.469463
30
2.022542
0
TEXT
8
ID-NODES
10
-2.5
20
-1.469463
30
2.022542
40
0.15
1
9
0
LINE
8
fz
62
7
10
-2.5
20
-1.469463
30
2.383417
11
-2.5
21
-1.469463
31
12.383417
0
POINT
8
MERIDIANI
10
-2.5
20
-0.772542
30
2.377641
0
TEXT
8
ID-NODES
10
-2.5
20
-0.772542
30
2.377641
40
0.15
1
10
0
LINE
8
fz
62
7
10
-2.5
20
-0.772542
30
2.691315
11
-2.5
21
-0.772542
31
12.691315
0
POINT
8
MERIDIANI
10
-2.5
20
0.0
30
2.5
0
TEXT
8
ID-NODES
10
-2.5
20
0.0
30
2.5
40
0.15
1
11
0
LINE
8
fz
62
7
10
-2.5
20
0.0
30
2.8
11
-2.5
21
0.0
31
12.8
0
POINT
8
MERIDIANI
10
-2.022542
20
-1.469463
30
2.022542
0
TEXT
8
ID-NODES
10
-2.022542
20
-1.469463
30
2.022542
40
0.15
1
12
0
LINE
8
fz
62
7
10
-2.022542
20
-1.469463
30
2.383417
11
-2.022542
21
-1.469463
31
12.383417
0
POINT
8
MERIDIANI
10
-2.022542
20
-0.772542
30
2.377641
0
TEXT
8
ID-NODES
10
-2.022542
20
-0.772542
30
2.377641
40
0.15
1
13
0
LINE
8
fz
62
7
10
-2.022542
20
-0.772542
30
2.691315
11
-2.022542
21
-0.772542
31
12.691315
0
POINT
8
MERIDIANI
10
-2.022542
20
0.0
30
2.5
0
TEXT
8
ID-NODES
10
-2.022542
20
0.0
30
2.5
40
0.15
1
14
0
LINE
8
fz
62
7
10
-2.022542
20
0.0
30
2.8
11
-2.022542
21
0.0
31
12.8
0
POINT
8
MERIDIANI
10
-1.469463
20
-0.772542
30
2.377641
0
TEXT
8
ID-NODES
10
-1.469463
20
-0.772542
30
2.377641
40
0.15
1
15
0
LINE
8
fz
62
7
10
-1.469463
20
-0.772542
30
2.691315
11
-1.469463
21
-0.772542
31
12.691315
0
POINT
8
MERIDIANI
10
-1.469463
20
0.0
30
2.5
0
TEXT
8
ID-NODES
10
-1.469463
20
0.0
30
2.5
40
0.15
1
16
0
LINE
8
fz
62
7
10
-1.469463
20
0.0
30
2.8
11
-1.469463
21
0.0
31
12.8
0
POINT
8
MERIDIANI
10
-0.772542
20
0.0
30
2.5
0
TEXT
8
ID-NODES
10
-0.772542
20
0.0
30
2.5
40
0.15
1
17
0
LINE
8
fz
62
7
10
-0.772542
20
0.0
30
2.8
11
-0.772542
21
0.0
31
12.8
0
POINT
8
MERIDIANI
10
-2.377641
20
-2.5
30
0.772542
0
TEXT
8
ID-NODES
10
-2.377641
20
-2.5
30
0.772542
40
0.15
1
18
0
LINE
8
fz
62
7
10
-2.377641
20
-2.5
30
1.478791
11
-2.377641
21
-2.5
31
11.478791
0
POINT
8
MERIDIANI
10
-2.022542
20
-2.5
30
1.469463
0
TEXT
8
ID-NODES
10
-2.022542
20
-2.5
30
1.469463
40
0.15
1
19
0
LINE
8
fz
62
7
10
-2.022542
20
-2.5
30
1.936317
11
-2.022542
21
-2.5
31
11.936317
0
POINT
8
MERIDIANI
10
-1.469463
20
-2.5
30
2.022542
0
TEXT
8
ID-NODES
10
-1.469463
20
-2.5
30
2.022542
40
0.15
1
20
0
LINE
8
fz
62
7
10
-1.469463
20
-2.5
30
2.383417
11
-1.469463
21
-2.5
31
12.383417
0
POINT
8
MERIDIANI
10
-0.772542
20
-2.5
30
2.377641
0
TEXT
8
ID-NODES
10
-0.772542
20
-2.5
30
2.377641
40
0.15
1
21
0
LINE
8
fz
62
7
10
-0.772542
20
-2.5
30
2.691315
11
-0.772542
21
-2.5
31
12.691315
0
POINT
8
MERIDIANI
10
-0.0
20
-2.5
30
2.5
0
TEXT
8
ID-NODES
10
-0.0
20
-2.5
30
2.5
40
0.15
1
22
0
LINE
8
fz
62
7
10
-0.0
20
-2.5
30
2.8
11
-0.0
21
-2.5
31
12.8
0
POINT
8
MERIDIANI
10
-1.469463
20
-2.022542
30
2.022542
0
TEXT
8
ID-NODES
10
-1.469463
20
-2.022542
30
2.022542
40
0.15
1
23
0
LINE
8
fz
62
7
10
-1.469463
20
-2.022542
30
2.383417
11
-1.469463
21
-2.022542
31
12.383417
0
POINT
8
MERIDIANI
10
-0.772542
20
-2.022542
30
2.377641
0
TEXT
8
ID-NODES
10
-0.772542
20
-2.022542
30
2.377641
40
0.15
1
24
0
LINE
8
fz
62
7
10
-0.772542
20
-2.022542
30
2.691315
11
-0.772542
21
-2.022542
31
12.691315
0
POINT
8
MERIDIANI
10
-0.0
20
-2.022542
30
2.5
0
TEXT
8
ID-NODES
10
-0.0
20
-2.022542
30
2.5
40
0.15
1
25
0
LINE
8
fz
62
7
10
-0.0
20
-2.022542
30
2.8
11
-0.0
21
-2.022542
31
12.8
0
POINT
8
MERIDIANI
10
-0.772542
20
-1.469463
30
2.377641
0
TEXT
8
ID-NODES
10
-0.772542
20
-1.469463
30
2.377641
40
0.15
1
26
0
LINE
8
fz
62
7
10
-0.772542
20
-1.469463
30
2.691315
11
-0.772542
21
-1.469463
31
12.691315
0
POINT
8
MERIDIANI
10
-0.0
20
-1.469463
30
2.5
0
TEXT
8
ID-NODES
10
-0.0
20
-1.469463
30
2.5
40
0.15
1
27
0
LINE
8
fz
62
7
10
-0.0
20
-1.469463
30
2.8
11
-0.0
21
-1.469463
31
12.8
0
POINT
8
MERIDIANI
10
-0.0
20
-0.772542
30
2.5
0
TEXT
8
ID-NODES
10
-0.0
20
-0.772542
30
2.5
40
0.15
1
28
0
LINE
8
fz
62
7
10
-0.0
20
-0.772542
30
2.8
11
-0.0
21
-0.772542
31
12.8
0
POINT
8
PARALLELI
10
-0.0
20
-2.977458
30
2.0
0
TEXT
8
ID-NODES
10
-0.0
20
-2.977458
30
2.0
40
0.15
1
29
0
LINE
8
fz
62
7
10
-0.0
20
-2.977458
30
2.8
11
-0.0
21
-2.977458
31
12.8
0
POINT
8
PARALLELI
10
-0.772542
20
-2.977458
30
1.877641
0
TEXT
8
ID-NODES
10
-0.772542
20
-2.977458
30
1.877641
40
0.15
1
30
0
LINE
8
fz
62
7
10
-0.772542
20
-2.977458
30
2.691315
11
-0.772542
21
-2.977458
31
12.691315
0
POINT
8
PARALLELI
10
-1.469463
20
-2.977458
30
1.522542
0
TEXT
8
ID-NODES
10
-1.469463
20
-2.977458
30
1.522542
40
0.15
1
31
0
LINE
8
fz
62
7
10
-1.469463
20
-2.977458
30
2.383417
11
-1.469463
21
-2.977458
31
12.383417
0
POINT
8
PARALLELI
10
-2.022542
20
-2.977458
30
0.969463
0
TEXT
8
ID-NODES
10
-2.022542
20
-2.977458
30
0.969463
40
0.15
1
32
0
LINE
8
fz
62
7
10
-2.022542
20
-2.977458
30
1.936317
11
-2.022542
21
-2.977458
31
11.936317
0
POINT
8
PARALLELI
10
-2.377641
20
-2.977458
30
0.272542
0
TEXT
8
ID-NODES
10
-2.377641
20
-2.977458
30
0.272542
40
0.15
1
33
0
LINE
8
fz
62
7
10
-2.377641
20
-2.977458
30
1.0
11
-2.377641
21
-2.977458
31
11.0
0
POINT
8
PARALLELI
10
-2.977458
20
-0.0
30
2.0
0
TEXT
8
ID-NODES
10
-2.977458
20
-0.0
30
2.0
40
0.15
1
34
0
LINE
8
fz
62
7
10
-2.977458
20
-0.0
30
2.8
11
-2.977458
21
-0.0
31
12.8
0
POINT
8
PARALLELI
10
-2.977458
20
-0.772542
30
1.877641
0
TEXT
8
ID-NODES
10
-2.977458
20
-0.772542
30
1.877641
40
0.15
1
35
0
LINE
8
fz
62
7
10
-2.977458
20
-0.772542
30
2.691315
11
-2.977458
21
-0.772542
31
12.691315
0
POINT
8
PARALLELI
10
-2.977458
20
-1.469463
30
1.522542
0
TEXT
8
ID-NODES
10
-2.977458
20
-1.469463
30
1.522542
40
0.15
1
36
0
LINE
8
fz
62
7
10
-2.977458
20
-1.469463
30
2.383417
11
-2.977458
21
-1.469463
31
12.383417
0
POINT
8
PARALLELI
10
-2.977458
20
-2.022542
30
0.969463
0
TEXT
8
ID-NODES
10
-2.977458
20
-2.022542
30
0.969463
40
0.15
1
37
0
LINE
8
fz
62
7
10
-2.977458
20
-2.022542
30
1.936317
11
-2.977458
21
-2.022542
31
11.936317
0
POINT
8
PARALLELI
10
-2.977458
20
-2.377641
30
0.272542
0
TEXT
8
ID-NODES
10
-2.977458
20
-2.377641
30
0.272542
40
0.15
1
38
0
LINE
8
fz
62
7
10
-2.977458
20
-2.377641
30
1.0
11
-2.977458
21
-2.377641
31
11.0
0
POINT
8
DIAGONALI
10
-2.5
20
2.5
30
0.0
0
TEXT
8
ID-NODES
10
-2.5
20
2.5
30
0.0
40
0.15
1
39
0
LINE
8
fz
62
7
10
-2.5
20
2.5
30
1.260952
11
-2.5
21
2.5
31
11.260952
0
POINT
8
DIAGONALI
10
-2.377641
20
2.377641
30
0.772542
0
TEXT
8
ID-NODES
10
-2.377641
20
2.377641
30
0.772542
40
0.15
1
40
0
LINE
8
fz
62
7
10
-2.377641
20
2.377641
30
1.478791
11
-2.377641
21
2.377641
31
11.478791
0
POINT
8
DIAGONALI
10
-2.022542
20
2.022542
30
1.469463
0
TEXT
8
ID-NODES
10
-2.022542
20
2.022542
30
1.469463
40
0.15
1
41
0
LINE
8
fz
62
7
10
-2.022542
20
2.022542
30
1.936317
11
-2.022542
21
2.022542
31
11.936317
0
POINT
8
DIAGONALI
10
-1.469463
20
1.469463
30
2.022542
0
TEXT
8
ID-NODES
10
-1.469463
20
1.469463
30
2.022542
40
0.15
1
42
0
LINE
8
fz
62
7
10
-1.469463
20
1.469463
30
2.383417
11
-1.469463
21
1.469463
31
12.383417
0
POINT
8
DIAGONALI
10
-0.772542
20
0.772542
30
2.377641
0
TEXT
8
ID-NODES
10
-0.772542
20
0.772542
30
2.377641
40
0.15
1
43
0
LINE
8
fz
62
7
10
-0.772542
20
0.772542
30
2.691315
11
-0.772542
21
0.772542
31
12.691315
0
POINT
8
MERIDIANI
10
-2.5
20
2.377641
30
0.772542
0
TEXT
8
ID-NODES
10
-2.5
20
2.377641
30
0.772542
40
0.15
1
44
0
LINE
8
fz
62
7
10
-2.5
20
2.377641
30
1.478791
11
-2.5
21
2.377641
31
11.478791
0
POINT
8
MERIDIANI
10
-2.5
20
2.022542
30
1.469463
0
TEXT
8
ID-NODES
10
-2.5
20
2.022542
30
1.469463
40
0.15
1
45
0
LINE
8
fz
62
7
10
-2.5
20
2.022542
30
1.936317
11
-2.5
21
2.022542
31
11.936317
0
POINT
8
MERIDIANI
10
-2.5
20
1.469463
30
2.022542
0
TEXT
8
ID-NODES
10
-2.5
20
1.469463
30
2.022542
40
0.15
1
46
0
LINE
8
fz
62
7
10
-2.5
20
1.469463
30
2.383417
11
-2.5
21
1.469463
31
12.383417
0
POINT
8
MERIDIANI
10
-2.5
20
0.772542
30
2.377641
0
TEXT
8
ID-NODES
10
-2.5
20
0.772542
30
2.377641
40
0.15
1
47
0
LINE
8
fz
62
7
10
-2.5
20
0.772542
30
2.691315
11
-2.5
21
0.772542
31
12.691315
0
POINT
8
MERIDIANI
10
-2.022542
20
1.469463
30
2.022542
0
TEXT
8
ID-NODES
10
-2.022542
20
1.469463
30
2.022542
40
0.15
1
48
0
LINE
8
fz
62
7
10
-2.022542
20
1.469463
30
2.383417
11
-2.022542
21
1.469463
31
12.383417
0
POINT
8
MERIDIANI
10
-2.022542
20
0.772542
30
2.377641
0
TEXT
8
ID-NODES
10
-2.022542
20
0.772542
30
2.377641
40
0.15
1
49
0
LINE
8
fz
62
7
10
-2.022542
20
0.772542
30
2.691315
11
-2.022542
21
0.772542
31
12.691315
0
POINT
8
MERIDIANI
10
-1.469463
20
0.772542
30
2.377641
0
TEXT
8
ID-NODES
10
-1.469463
20
0.772542
30
2.377641
40
0.15
1
50
0
LINE
8
fz
62
7
10
-1.469463
20
0.772542
30
2.691315
11
-1.469463
21
0.772542
31
12.691315
0
POINT
8
MERIDIANI
10
-2.377641
20
2.5
30
0.772542
0
TEXT
8
ID-NODES
10
-2.377641
20
2.5
30
0.772542
40
0.15
1
51
0
LINE
8
fz
62
7
10
-2.377641
20
2.5
30
1.478791
11
-2.377641
21
2.5
31
11.478791
0
POINT
8
MERIDIANI
10
-2.022542
20
2.5
30
1.469463
0
TEXT
8
ID-NODES
10
-2.022542
20
2.5
30
1.469463
40
0.15
1
52
0
LINE
8
fz
62
7
10
-2.022542
20
2.5
30
1.936317
11
-2.022542
21
2.5
31
11.936317
0
POINT
8
MERIDIANI
10
-1.469463
20
2.5
30
2.022542
0
TEXT
8
ID-NODES
10
-1.469463
20
2.5
30
2.022542
40
0.15
1
53
0
LINE
8
fz
62
7
10
-1.469463
20
2.5
30
2.383417
11
-1.469463
21
2.5
31
12.383417
0
POINT
8
MERIDIANI
10
-0.772542
20
2.5
30
2.377641
0
TEXT
8
ID-NODES
10
-0.772542
20
2.5
30
2.377641
40
0.15
1
54
0
LINE
8
fz
62
7
10
-0.772542
20
2.5
30
2.691315
11
-0.772542
21
2.5
31
12.691315
0
POINT
8
MERIDIANI
10
-0.0
20
2.5
30
2.5
0
TEXT
8
ID-NODES
10
-0.0
20
2.5
30
2.5
40
0.15
1
55
0
LINE
8
fz
62
7
10
-0.0
20
2.5
30
2.8
11
-0.0
21
2.5
31
12.8
0
POINT
8
MERIDIANI
10
-1.469463
20
2.022542
30
2.022542
0
TEXT
8
ID-NODES
10
-1.469463
20
2.022542
30
2.022542
40
0.15
1
56
0
LINE
8
fz
62
7
10
-1.469463
20
2.022542
30
2.383417
11
-1.469463
21
2.022542
31
12.383417
0
POINT
8
MERIDIANI
10
-0.772542
20
2.022542
30
2.377641
0
TEXT
8
ID-NODES
10
-0.772542
20
2.022542
30
2.377641
40
0.15
1
57
0
LINE
8
fz
62
7
10
-0.772542
20
2.022542
30
2.691315
11
-0.772542
21
2.022542
31
12.691315
0
POINT
8
MERIDIANI
10
-0.0
20
2.022542
30
2.5
0
TEXT
8
ID-NODES
10
-0.0
20
2.022542
30
2.5
40
0.15
1
58
0
LINE
8
fz
62
7
10
-0.0
20
2.022542
30
2.8
11
-0.0
21
2.022542
31
12.8
0
POINT
8
MERIDIANI
10
-0.772542
20
1.469463
30
2.377641
0
TEXT
8
ID-NODES
10
-0.772542
20
1.469463
30
2.377641
40
0.15
1
59
0
LINE
8
fz
62
7
10
-0.772542
20
1.469463
30
2.691315
11
-0.772542
21
1.469463
31
12.691315
0
POINT
8
MERIDIANI
10
-0.0
20
1.469463
30
2.5
0
TEXT
8
ID-NODES
10
-0.0
20
1.469463
30
2.5
40
0.15
1
60
0
LINE
8
fz
62
7
10
-0.0
20
1.469463
30
2.8
11
-0.0
21
1.469463
31
12.8
0
POINT
8
MERIDIANI
10
-0.0
20
0.772542
30
2.5
0
TEXT
8
ID-NODES
10
-0.0
20
0.772542
30
2.5
40
0.15
1
61
0
LINE
8
fz
62
7
10
-0.0
20
0.772542
30
2.8
11
-0.0
21
0.772542
31
12.8
0
POINT
8
PARALLELI
10
-0.0
20
2.977458
30
2.0
0
TEXT
8
ID-NODES
10
-0.0
20
2.977458
30
2.0
40
0.15
1
62
0
LINE
8
fz
62
7
10
-0.0
20
2.977458
30
2.8
11
-0.0
21
2.977458
31
12.8
0
POINT
8
PARALLELI
10
-0.772542
20
2.977458
30
1.877641
0
TEXT
8
ID-NODES
10
-0.772542
20
2.977458
30
1.877641
40
0.15
1
63
0
LINE
8
fz
62
7
10
-0.772542
20
2.977458
30
2.691315
11
-0.772542
21
2.977458
31
12.691315
0
POINT
8
PARALLELI
10
-1.469463
20
2.977458
30
1.522542
0
TEXT
8
ID-NODES
10
-1.469463
20
2.977458
30
1.522542
40
0.15
1
64
0
LINE
8
fz
62
7
10
-1.469463
20
2.977458
30
2.383417
11
-1.469463
21
2.977458
31
12.383417
0
POINT
8
PARALLELI
10
-2.022542
20
2.977458
30
0.969463
0
TEXT
8
ID-NODES
10
-2.022542
20
2.977458
30
0.969463
40
0.15
1
65
0
LINE
8
fz
62
7
10
-2.022542
20
2.977458
30
1.936317
11
-2.022542
21
2.977458
31
11.936317
0
POINT
8
PARALLELI
10
-2.377641
20
2.977458
30
0.272542
0
TEXT
8
ID-NODES
10
-2.377641
20
2.977458
30
0.272542
40
0.15
1
66
0
LINE
8
fz
62
7
10
-2.377641
20
2.977458
30
1.0
11
-2.377641
21
2.977458
31
11.0
0
POINT
8
PARALLELI
10
-2.977458
20
0.772542
30
1.877641
0
TEXT
8
ID-NODES
10
-2.977458
20
0.772542
30
1.877641
40
0.15
1
67
0
LINE
8
fz
62
7
10
-2.977458
20
0.772542
30
2.691315
11
-2.977458
21
0.772542
31
12.691315
0
POINT
8
PARALLELI
10
-2.977458
20
1.469463
30
1.522542
0
TEXT
8
ID-NODES
10
-2.977458
20
1.469463
30
1.522542
40
0.15
1
68
0
LINE
8
fz
62
7
10
-2.977458
20
1.469463
30
2.383417
11
-2.977458
21
1.469463
31
12.383417
0
POINT
8
PARALLELI
10
-2.977458
20
2.022542
30
0.969463
0
TEXT
8
ID-NODES
10
-2.977458
20
2.022542
30
0.969463
40
0.15
1
69
0
LINE
8
fz
62
7
10
-2.977458
20
2.022542
30
1.936317
11
-2.977458
21
2.022542
31
11.936317
0
POINT
8
PARALLELI
10
-2.977458
20
2.377641
30
0.272542
0
TEXT
8
ID-NODES
10
-2.977458
20
2.377641
30
0.272542
40
0.15
1
70
0
LINE
8
fz
62
7
10
-2.977458
20
2.377641
30
1.0
11
-2.977458
21
2.377641
31
11.0
0
POINT
8
DIAGONALI
10
2.5
20
-2.5
30
0.0
0
TEXT
8
ID-NODES
10
2.5
20
-2.5
30
0.0
40
0.15
1
71
0
LINE
8
fz
62
7
10
2.5
20
-2.5
30
1.260952
11
2.5
21
-2.5
31
11.260952
0
POINT
8
DIAGONALI
10
2.377641
20
-2.377641
30
0.772542
0
TEXT
8
ID-NODES
10
2.377641
20
-2.377641
30
0.772542
40
0.15
1
72
0
LINE
8
fz
62
7
10
2.377641
20
-2.377641
30
1.478791
11
2.377641
21
-2.377641
31
11.478791
0
POINT
8
DIAGONALI
10
2.022542
20
-2.022542
30
1.469463
0
TEXT
8
ID-NODES
10
2.022542
20
-2.022542
30
1.469463
40
0.15
1
73
0
LINE
8
fz
62
7
10
2.022542
20
-2.022542
30
1.936317
11
2.022542
21
-2.022542
31
11.936317
0
POINT
8
DIAGONALI
10
1.469463
20
-1.469463
30
2.022542
0
TEXT
8
ID-NODES
10
1.469463
20
-1.469463
30
2.022542
40
0.15
1
74
0
LINE
8
fz
62
7
10
1.469463
20
-1.469463
30
2.383417
11
1.469463
21
-1.469463
31
12.383417
0
POINT
8
DIAGONALI
10
0.772542
20
-0.772542
30
2.377641
0
TEXT
8
ID-NODES
10
0.772542
20
-0.772542
30
2.377641
40
0.15
1
75
0
LINE
8
fz
62
7
10
0.772542
20
-0.772542
30
2.691315
11
0.772542
21
-0.772542
31
12.691315
0
POINT
8
MERIDIANI
10
2.5
20
-2.377641
30
0.772542
0
TEXT
8
ID-NODES
10
2.5
20
-2.377641
30
0.772542
40
0.15
1
76
0
LINE
8
fz
62
7
10
2.5
20
-2.377641
30
1.478791
11
2.5
21
-2.377641
31
11.478791
0
POINT
8
MERIDIANI
10
2.5
20
-2.022542
30
1.469463
0
TEXT
8
ID-NODES
10
2.5
20
-2.022542
30
1.469463
40
0.15
1
77
0
LINE
8
fz
62
7
10
2.5
20
-2.022542
30
1.936317
11
2.5
21
-2.022542
31
11.936317
0
POINT
8
MERIDIANI
10
2.5
20
-1.469463
30
2.022542
0
TEXT
8
ID-NODES
10
2.5
20
-1.469463
30
2.022542
40
0.15
1
78
0
LINE
8
fz
62
7
10
2.5
20
-1.469463
30
2.383417
11
2.5
21
-1.469463
31
12.383417
0
POINT
8
MERIDIANI
10
2.5
20
-0.772542
30
2.377641
0
TEXT
8
ID-NODES
10
2.5
20
-0.772542
30
2.377641
40
0.15
1
79
0
LINE
8
fz
62
7
10
2.5
20
-0.772542
30
2.691315
11
2.5
21
-0.772542
31
12.691315
0
POINT
8
MERIDIANI
10
2.5
20
0.0
30
2.5
0
TEXT
8
ID-NODES
10
2.5
20
0.0
30
2.5
40
0.15
1
80
0
LINE
8
fz
62
7
10
2.5
20
0.0
30
2.8
11
2.5
21
0.0
31
12.8
0
POINT
8
MERIDIANI
10
2.022542
20
-1.469463
30
2.022542
0
TEXT
8
ID-NODES
10
2.022542
20
-1.469463
30
2.022542
40
0.15
1
81
0
LINE
8
fz
62
7
10
2.022542
20
-1.469463
30
2.383417
11
2.022542
21
-1.469463
31
12.383417
0
POINT
8
MERIDIANI
10
2.022542
20
-0.772542
30
2.377641
0
TEXT
8
ID-NODES
10
2.022542
20
-0.772542
30
2.377641
40
0.15
1
82
0
LINE
8
fz
62
7
10
2.022542
20
-0.772542
30
2.691315
11
2.022542
21
-0.772542
31
12.691315
0
POINT
8
MERIDIANI
10
2.022542
20
0.0
30
2.5
0
TEXT
8
ID-NODES
10
2.022542
20
0.0
30
2.5
40
0.15
1
83
0
LINE
8
fz
62
7
10
2.022542
20
0.0
30
2.8
11
2.022542
21
0.0
31
12.8
0
POINT
8
MERIDIANI
10
1.469463
20
-0.772542
30
2.377641
0
TEXT
8
ID-NODES
10
1.469463
20
-0.772542
30
2.377641
40
0.15
1
84
0
LINE
8
fz
62
7
10
1.469463
20
-0.772542
30
2.691315
11
1.469463
21
-0.772542
31
12.691315
0
POINT
8
MERIDIANI
10
1.469463
20
0.0
30
2.5
0
TEXT
8
ID-NODES
10
1.469463
20
0.0
30
2.5
40
0.15
1
85
0
LINE
8
fz
62
7
10
1.469463
20
0.0
30
2.8
11
1.469463
21
0.0
31
12.8
0
POINT
8
MERIDIANI
10
0.772542
20
0.0
30
2.5
0
TEXT
8
ID-NODES
10
0.772542
20
0.0
30
2.5
40
0.15
1
86
0
LINE
8
fz
62
7
10
0.772542
20
0.0
30
2.8
11
0.772542
21
0.0
31
12.8
0
POINT
8
MERIDIANI
10
2.377641
20
-2.5
30
0.772542
0
TEXT
8
ID-NODES
10
2.377641
20
-2.5
30
0.772542
40
0.15
1
87
0
LINE
8
fz
62
7
10
2.377641
20
-2.5
30
1.478791
11
2.377641
21
-2.5
31
11.478791
0
POINT
8
MERIDIANI
10
2.022542
20
-2.5
30
1.469463
0
TEXT
8
ID-NODES
10
2.022542
20
-2.5
30
1.469463
40
0.15
1
88
0
LINE
8
fz
62
7
10
2.022542
20
-2.5
30
1.936317
11
2.022542
21
-2.5
31
11.936317
0
POINT
8
MERIDIANI
10
1.469463
20
-2.5
30
2.022542
0
TEXT
8
ID-NODES
10
1.469463
20
-2.5
30
2.022542
40
0.15
1
89
0
LINE
8
fz
62
7
10
1.469463
20
-2.5
30
2.383417
11
1.469463
21
-2.5
31
12.383417
0
POINT
8
MERIDIANI
10
0.772542
20
-2.5
30
2.377641
0
TEXT
8
ID-NODES
10
0.772542
20
-2.5
30
2.377641
40
0.15
1
90
0
LINE
8
fz
62
7
10
0.772542
20
-2.5
30
2.691315
11
0.772542
21
-2.5
31
12.691315
0
POINT
8
MERIDIANI
10
1.469463
20
-2.022542
30
2.022542
0
TEXT
8
ID-NODES
10
1.469463
20
-2.022542
30
2.022542
40
0.15
1
91
0
LINE
8
fz
62
7
10
1.469463
20
-2.022542
30
2.383417
11
1.469463
21
-2.022542
31
12.383417
0
POINT
8
MERIDIANI
10
0.772542
20
-2.022542
30
2.377641
0
TEXT
8
ID-NODES
10
0.772542
20
-2.022542
30
2.377641
40
0.15
1
92
0
LINE
8
fz
62
7
10
0.772542
20
-2.022542
30
2.691315
11
0.772542
21
-2.022542
31
12.691315
0
POINT
8
MERIDIANI
10
0.772542
20
-1.469463
30
2.377641
0
TEXT
8
ID-NODES
10
0.772542
20
-1.469463
30
2.377641
40
0.15
1
93
0
LINE
8
fz
62
7
10
0.772542
20
-1.469463
30
2.691315
11
0.772542
21
-1.469463
31
12.691315
0
POINT
8
PARALLELI
10
0.772542
20
-2.977458
30
1.877641
0
TEXT
8
ID-NODES
10
0.772542
20
-2.977458
30
1.877641
40
0.15
1
94
0
LINE
8
fz
62
7
10
0.772542
20
-2.977458
30
2.691315
11
0.772542
21
-2.977458
31
12.691315
0
POINT
8
PARALLELI
10
1.469463
20
-2.977458
30
1.522542
0
TEXT
8
ID-NODES
10
1.469463
20
-2.977458
30
1.522542
40
0.15
1
95
0
LINE
8
fz
62
7
10
1.469463
20
-2.977458
30
2.383417
11
1.469463
21
-2.977458
31
12.383417
0
POINT
8
PARALLELI
10
2.022542
20
-2.977458
30
0.969463
0
TEXT
8
ID-NODES
10
2.022542
20
-2.977458
30
0.969463
40
0.15
1
96
0
LINE
8
fz
62
7
10
2.022542
20
-2.977458
30
1.936317
11
2.022542
21
-2.977458
31
11.936317
0
POINT
8
PARALLELI
10
2.377641
20
-2.977458
30
0.272542
0
TEXT
8
ID-NODES
10
2.377641
20
-2.977458
30
0.272542
40
0.15
1
97
0
LINE
8
fz
62
7
10
2.377641
20
-2.977458
30
1.0
11
2.377641
21
-2.977458
31
11.0
0
POINT
8
PARALLELI
10
2.977458
20
0.0
30
2.0
0
TEXT
8
ID-NODES
10
2.977458
20
0.0
30
2.0
40
0.15
1
98
0
LINE
8
fz
62
7
10
2.977458
20
0.0
30
2.8
11
2.977458
21
0.0
31
12.8
0
POINT
8
PARALLELI
10
2.977458
20
-0.772542
30
1.877641
0
TEXT
8
ID-NODES
10
2.977458
20
-0.772542
30
1.877641
40
0.15
1
99
0
LINE
8
fz
62
7
10
2.977458
20
-0.772542
30
2.691315
11
2.977458
21
-0.772542
31
12.691315
0
POINT
8
PARALLELI
10
2.977458
20
-1.469463
30
1.522542
0
TEXT
8
ID-NODES
10
2.977458
20
-1.469463
30
1.522542
40
0.15
1
100
0
LINE
8
fz
62
7
10
2.977458
20
-1.469463
30
2.383417
11
2.977458
21
-1.469463
31
12.383417
0
POINT
8
PARALLELI
10
2.977458
20
-2.022542
30
0.969463
0
TEXT
8
ID-NODES
10
2.977458
20
-2.022542
30
0.969463
40
0.15
1
101
0
LINE
8
fz
62
7
10
2.977458
20
-2.022542
30
1.936317
11
2.977458
21
-2.022542
31
11.936317
0
POINT
8
PARALLELI
10
2.977458
20
-2.377641
30
0.272542
0
TEXT
8
ID-NODES
10
2.977458
20
-2.377641
30
0.272542
40
0.15
1
102
0
LINE
8
fz
62
7
10
2.977458
20
-2.377641
30
1.0
11
2.977458
21
-2.377641
31
11.0
0
POINT
8
DIAGONALI
10
2.5
20
2.5
30
0.0
0
TEXT
8
ID-NODES
10
2.5
20
2.5
30
0.0
40
0.15
1
103
0
LINE
8
fz
62
7
10
2.5
20
2.5
30
1.260952
11
2.5
21
2.5
31
11.260952
0
POINT
8
DIAGONALI
10
2.377641
20
2.377641
30
0.772542
0
TEXT
8
ID-NODES
10
2.377641
20
2.377641
30
0.772542
40
0.15
1
104
0
LINE
8
fz
62
7
10
2.377641
20
2.377641
30
1.478791
11
2.377641
21
2.377641
31
11.478791
0
POINT
8
DIAGONALI
10
2.022542
20
2.022542
30
1.469463
0
TEXT
8
ID-NODES
10
2.022542
20
2.022542
30
1.469463
40
0.15
1
105
0
LINE
8
fz
62
7
10
2.022542
20
2.022542
30
1.936317
11
2.022542
21
2.022542
31
11.936317
0
POINT
8
DIAGONALI
10
1.469463
20
1.469463
30
2.022542
0
TEXT
8
ID-NODES
10
1.469463
20
1.469463
30
2.022542
40
0.15
1
106
0
LINE
8
fz
62
7
10
1.469463
20
1.469463
30
2.383417
11
1.469463
21
1.469463
31
12.383417
0
POINT
8
DIAGONALI
10
0.772542
20
0.772542
30
2.377641
0
TEXT
8
ID-NODES
10
0.772542
20
0.772542
30
2.377641
40
0.15
1
107
0
LINE
8
fz
62
7
10
0.772542
20
0.772542
30
2.691315
11
0.772542
21
0.772542
31
12.691315
0
POINT
8
MERIDIANI
10
2.5
20
2.377641
30
0.772542
0
TEXT
8
ID-NODES
10
2.5
20
2.377641
30
0.772542
40
0.15
1
108
0
LINE
8
fz
62
7
10
2.5
20
2.377641
30
1.478791
11
2.5
21
2.377641
31
11.478791
0
POINT
8
MERIDIANI
10
2.5
20
2.022542
30
1.469463
0
TEXT
8
ID-NODES
10
2.5
20
2.022542
30
1.469463
40
0.15
1
109
0
LINE
8
fz
62
7
10
2.5
20
2.022542
30
1.936317
11
2.5
21
2.022542
31
11.936317
0
POINT
8
MERIDIANI
10
2.5
20
1.469463
30
2.022542
0
TEXT
8
ID-NODES
10
2.5
20
1.469463
30
2.022542
40
0.15
1
110
0
LINE
8
fz
62
7
10
2.5
20
1.469463
30
2.383417
11
2.5
21
1.469463
31
12.383417
0
POINT
8
MERIDIANI
10
2.5
20
0.772542
30
2.377641
0
TEXT
8
ID-NODES
10
2.5
20
0.772542
30
2.377641
40
0.15
1
111
0
LINE
8
fz
62
7
10
2.5
20
0.772542
30
2.691315
11
2.5
21
0.772542
31
12.691315
0
POINT
8
MERIDIANI
10
2.022542
20
1.469463
30
2.022542
0
TEXT
8
ID-NODES
10
2.022542
20
1.469463
30
2.022542
40
0.15
1
112
0
LINE
8
fz
62
7
10
2.022542
20
1.469463
30
2.383417
11
2.022542
21
1.469463
31
12.383417
0
POINT
8
MERIDIANI
10
2.022542
20
0.772542
30
2.377641
0
TEXT
8
ID-NODES
10
2.022542
20
0.772542
30
2.377641
40
0.15
1
113
0
LINE
8
fz
62
7
10
2.022542
20
0.772542
30
2.691315
11
2.022542
21
0.772542
31
12.691315
0
POINT
8
MERIDIANI
10
1.469463
20
0.772542
30
2.377641
0
TEXT
8
ID-NODES
10
1.469463
20
0.772542
30
2.377641
40
0.15
1
114
0
LINE
8
fz
62
7
10
1.469463
20
0.772542
30
2.691315
11
1.469463
21
0.772542
31
12.691315
0
POINT
8
MERIDIANI
10
2.377641
20
2.5
30
0.772542
0
TEXT
8
ID-NODES
10
2.377641
20
2.5
30
0.772542
40
0.15
1
115
0
LINE
8
fz
62
7
10
2.377641
20
2.5
30
1.478791
11
2.377641
21
2.5
31
11.478791
0
POINT
8
MERIDIANI
10
2.022542
20
2.5
30
1.469463
0
TEXT
8
ID-NODES
10
2.022542
20
2.5
30
1.469463
40
0.15
1
116
0
LINE
8
fz
62
7
10
2.022542
20
2.5
30
1.936317
11
2.022542
21
2.5
31
11.936317
0
POINT
8
MERIDIANI
10
1.469463
20
2.5
30
2.022542
0
TEXT
8
ID-NODES
10
1.469463
20
2.5
30
2.022542
40
0.15
1
117
0
LINE
8
fz
62
7
10
1.469463
20
2.5
30
2.383417
11
1.469463
21
2.5
31
12.383417
0
POINT
8
MERIDIANI
10
0.772542
20
2.5
30
2.377641
0
TEXT
8
ID-NODES
10
0.772542
20
2.5
30
2.377641
40
0.15
1
118
0
LINE
8
fz
62
7
10
0.772542
20
2.5
30
2.691315
11
0.772542
21
2.5
31
12.691315
0
POINT
8
MERIDIANI
10
1.469463
20
2.022542
30
2.022542
0
TEXT
8
ID-NODES
10
1.469463
20
2.022542
30
2.022542
40
0.15
1
119
0
LINE
8
fz
62
7
10
1.469463
20
2.022542
30
2.383417
11
1.469463
21
2.022542
31
12.383417
0
POINT
8
MERIDIANI
10
0.772542
20
2.022542
30
2.377641
0
TEXT
8
ID-NODES
10
0.772542
20
2.022542
30
2.377641
40
0.15
1
120
0
LINE
8
fz
62
7
10
0.772542
20
2.022542
30
2.691315
11
0.772542
21
2.022542
31
12.691315
0
POINT
8
MERIDIANI
10
0.772542
20
1.469463
30
2.377641
0
TEXT
8
ID-NODES
10
0.772542
20
1.469463
30
2.377641
40
0.15
1
121
0
LINE
8
fz
62
7
10
0.772542
20
1.469463
30
2.691315
11
0.772542
21
1.469463
31
12.691315
0
POINT
8
PARALLELI
10
0.772542
20
2.977458
30
1.877641
0
TEXT
8
ID-NODES
10
0.772542
20
2.977458
30
1.877641
40
0.15
1
122
0
LINE
8
fz
62
7
10
0.772542
20
2.977458
30
2.691315
11
0.772542
21
2.977458
31
12.691315
0
POINT
8
PARALLELI
10
1.469463
20
2.977458
30
1.522542
0
TEXT
8
ID-NODES
10
1.469463
20
2.977458
30
1.522542
40
0.15
1
123
0
LINE
8
fz
62
7
10
1.469463
20
2.977458
30
2.383417
11
1.469463
21
2.977458
31
12.383417
0
POINT
8
PARALLELI
10
2.022542
20
2.977458
30
0.969463
0
TEXT
8
ID-NODES
10
2.022542
20
2.977458
30
0.969463
40
0.15
1
124
0
LINE
8
fz
62
7
10
2.022542
20
2.977458
30
1.936317
11
2.022542
21
2.977458
31
11.936317
0
POINT
8
PARALLELI
10
2.377641
20
2.977458
30
0.272542
0
TEXT
8
ID-NODES
10
2.377641
20
2.977458
30
0.272542
40
0.15
1
125
0
LINE
8
fz
62
7
10
2.377641
20
2.977458
30
1.0
11
2.377641
21
2.977458
31
11.0
0
POINT
8
PARALLELI
10
2.977458
20
0.772542
30
1.877641
0
TEXT
8
ID-NODES
10
2.977458
20
0.772542
30
1.877641
40
0.15
1
126
0
LINE
8
fz
62
7
10
2.977458
20
0.772542
30
2.691315
11
2.977458
21
0.772542
31
12.691315
0
POINT
8
PARALLELI
10
2.977458
20
1.469463
30
1.522542
0
TEXT
8
ID-NODES
10
2.977458
20
1.469463
30
1.522542
40
0.15
1
127
0
LINE
8
fz
62
7
10
2.977458
20
1.469463
30
2.383417
11
2.977458
21
1.469463
31
12.383417
0
POINT
8
PARALLELI
10
2.977458
20
2.022542
30
0.969463
0
TEXT
8
ID-NODES
10
2.977458
20
2.022542
30
0.969463
40
0.15
1
128
0
LINE
8
fz
62
7
10
2.977458
20
2.022542
30
1.936317
11
2.977458
21
2.022542
31
11.936317
0
POINT
8
PARALLELI
10
2.977458
20
2.377641
30
0.272542
0
TEXT
8
ID-NODES
10
2.977458
20
2.377641
30
0.272542
40
0.15
1
129
0
LINE
8
fz
62
7
10
2.977458
20
2.377641
30
1.0
11
2.977458
21
2.377641
31
11.0
0
POINT
8
DIAGONALI
10
2.782843
20
-2.782843
30
-1.785799
0
TEXT
8
ID-NODES
10
2.782843
20
-2.782843
30
-1.785799
40
0.15
1
130
0
LINE
8
fz
62
7
10
2.782843
20
-2.782843
30
1.0
11
2.782843
21
-2.782843
31
11.0
0
POINT
8
DIAGONALI
10
-2.782843
20
-2.782843
30
-1.785799
0
TEXT
8
ID-NODES
10
-2.782843
20
-2.782843
30
-1.785799
40
0.15
1
131
0
LINE
8
fz
62
7
10
-2.782843
20
-2.782843
30
1.0
11
-2.782843
21
-2.782843
31
11.0
0
POINT
8
DIAGONALI
10
2.782843
20
2.782843
30
-1.785799
0
TEXT
8
ID-NODES
10
2.782843
20
2.782843
30
-1.785799
40
0.15
1
132
0
LINE
8
fz
62
7
10
2.782843
20
2.782843
30
1.0
11
2.782843
21
2.782843
31
11.0
0
POINT
8
DIAGONALI
10
-2.782843
20
2.782843
30
-1.785799
0
TEXT
8
ID-NODES
10
-2.782843
20
2.782843
30
-1.785799
40
0.15
1
133
0
LINE
8
fz
62
7
10
-2.782843
20
2.782843
30
1.0
11
-2.782843
21
2.782843
31
11.0
0
ENDSEC
0
EOF
