999
DXF created from myself (Fortunato Siano)
0
SECTION
2
ENTITIES
0
LINE
8
INTRADOSSO
10
-2.5
20
-2.5
30
0.0
11
-2.377641
21
-2.377641
31
0.772542
0
LINE
8
ESTRADOSSO
10
-2.5
20
-2.5
30
1.260952
11
-2.377641
21
-2.377641
31
1.478791
0
LINE
8
INTRADOSSO
10
-2.377641
20
-2.377641
30
0.772542
11
-2.022542
21
-2.022542
31
1.469463
0
LINE
8
ESTRADOSSO
10
-2.377641
20
-2.377641
30
1.478791
11
-2.022542
21
-2.022542
31
1.936317
0
LINE
8
INTRADOSSO
10
-2.022542
20
-2.022542
30
1.469463
11
-1.469463
21
-1.469463
31
2.022542
0
LINE
8
ESTRADOSSO
10
-2.022542
20
-2.022542
30
1.936317
11
-1.469463
21
-1.469463
31
2.383417
0
LINE
8
INTRADOSSO
10
-1.469463
20
-1.469463
30
2.022542
11
-0.772542
21
-0.772542
31
2.377641
0
LINE
8
ESTRADOSSO
10
-1.469463
20
-1.469463
30
2.383417
11
-0.772542
21
-0.772542
31
2.691315
0
LINE
8
INTRADOSSO
10
-0.772542
20
-0.772542
30
2.377641
11
-0.0
21
0.0
31
2.5
0
LINE
8
ESTRADOSSO
10
-0.772542
20
-0.772542
30
2.691315
11
-0.0
21
0.0
31
2.8
0
LINE
8
INTRADOSSO
10
-2.5
20
-2.5
30
0.0
11
-2.5
21
-2.377641
31
0.772542
0
LINE
8
ESTRADOSSO
10
-2.5
20
-2.5
30
1.260952
11
-2.5
21
-2.377641
31
1.478791
0
LINE
8
INTRADOSSO
10
-2.5
20
-2.377641
30
0.772542
11
-2.5
21
-2.022542
31
1.469463
0
LINE
8
ESTRADOSSO
10
-2.5
20
-2.377641
30
1.478791
11
-2.5
21
-2.022542
31
1.936317
0
LINE
8
INTRADOSSO
10
-2.5
20
-2.022542
30
1.469463
11
-2.5
21
-1.469463
31
2.022542
0
LINE
8
ESTRADOSSO
10
-2.5
20
-2.022542
30
1.936317
11
-2.5
21
-1.469463
31
2.383417
0
LINE
8
INTRADOSSO
10
-2.5
20
-1.469463
30
2.022542
11
-2.5
21
-0.772542
31
2.377641
0
LINE
8
ESTRADOSSO
10
-2.5
20
-1.469463
30
2.383417
11
-2.5
21
-0.772542
31
2.691315
0
LINE
8
INTRADOSSO
10
-2.5
20
-0.772542
30
2.377641
11
-2.5
21
0.0
31
2.5
0
LINE
8
ESTRADOSSO
10
-2.5
20
-0.772542
30
2.691315
11
-2.5
21
0.0
31
2.8
0
LINE
8
INTRADOSSO
10
-2.022542
20
-2.022542
30
1.469463
11
-2.022542
21
-1.469463
31
2.022542
0
LINE
8
ESTRADOSSO
10
-2.022542
20
-2.022542
30
1.936317
11
-2.022542
21
-1.469463
31
2.383417
0
LINE
8
INTRADOSSO
10
-2.022542
20
-1.469463
30
2.022542
11
-2.022542
21
-0.772542
31
2.377641
0
LINE
8
ESTRADOSSO
10
-2.022542
20
-1.469463
30
2.383417
11
-2.022542
21
-0.772542
31
2.691315
0
LINE
8
INTRADOSSO
10
-2.022542
20
-0.772542
30
2.377641
11
-2.022542
21
0.0
31
2.5
0
LINE
8
ESTRADOSSO
10
-2.022542
20
-0.772542
30
2.691315
11
-2.022542
21
0.0
31
2.8
0
LINE
8
INTRADOSSO
10
-1.469463
20
-1.469463
30
2.022542
11
-1.469463
21
-0.772542
31
2.377641
0
LINE
8
ESTRADOSSO
10
-1.469463
20
-1.469463
30
2.383417
11
-1.469463
21
-0.772542
31
2.691315
0
LINE
8
INTRADOSSO
10
-1.469463
20
-0.772542
30
2.377641
11
-1.469463
21
0.0
31
2.5
0
LINE
8
ESTRADOSSO
10
-1.469463
20
-0.772542
30
2.691315
11
-1.469463
21
0.0
31
2.8
0
LINE
8
INTRADOSSO
10
-0.772542
20
-0.772542
30
2.377641
11
-0.772542
21
0.0
31
2.5
0
LINE
8
ESTRADOSSO
10
-0.772542
20
-0.772542
30
2.691315
11
-0.772542
21
0.0
31
2.8
0
LINE
8
INTRADOSSO
10
-2.5
20
0.0
30
2.5
11
-2.022542
21
0.0
31
2.5
0
LINE
8
ESTRADOSSO
10
-2.5
20
0.0
30
2.8
11
-2.022542
21
0.0
31
2.8
0
LINE
8
INTRADOSSO
10
-2.022542
20
0.0
30
2.5
11
-1.469463
21
0.0
31
2.5
0
LINE
8
ESTRADOSSO
10
-2.022542
20
0.0
30
2.8
11
-1.469463
21
0.0
31
2.8
0
LINE
8
INTRADOSSO
10
-1.469463
20
0.0
30
2.5
11
-0.772542
21
0.0
31
2.5
0
LINE
8
ESTRADOSSO
10
-1.469463
20
0.0
30
2.8
11
-0.772542
21
0.0
31
2.8
0
LINE
8
INTRADOSSO
10
-0.772542
20
0.0
30
2.5
11
-0.0
21
0.0
31
2.5
0
LINE
8
ESTRADOSSO
10
-0.772542
20
0.0
30
2.8
11
-0.0
21
0.0
31
2.8
0
LINE
8
INTRADOSSO
10
-2.5
20
-0.772542
30
2.377641
11
-2.022542
21
-0.772542
31
2.377641
0
LINE
8
ESTRADOSSO
10
-2.5
20
-0.772542
30
2.691315
11
-2.022542
21
-0.772542
31
2.691315
0
LINE
8
INTRADOSSO
10
-2.022542
20
-0.772542
30
2.377641
11
-1.469463
21
-0.772542
31
2.377641
0
LINE
8
ESTRADOSSO
10
-2.022542
20
-0.772542
30
2.691315
11
-1.469463
21
-0.772542
31
2.691315
0
LINE
8
INTRADOSSO
10
-1.469463
20
-0.772542
30
2.377641
11
-0.772542
21
-0.772542
31
2.377641
0
LINE
8
ESTRADOSSO
10
-1.469463
20
-0.772542
30
2.691315
11
-0.772542
21
-0.772542
31
2.691315
0
LINE
8
INTRADOSSO
10
-2.5
20
-2.022542
30
1.469463
11
-2.022542
21
-2.022542
31
1.469463
0
LINE
8
ESTRADOSSO
10
-2.5
20
-2.022542
30
1.936317
11
-2.022542
21
-2.022542
31
1.936317
0
LINE
8
INTRADOSSO
10
-2.5
20
-2.377641
30
0.772542
11
-2.377641
21
-2.377641
31
0.772542
0
LINE
8
ESTRADOSSO
10
-2.5
20
-2.377641
30
1.478791
11
-2.377641
21
-2.377641
31
1.478791
0
LINE
8
INTRADOSSO
10
-2.5
20
-1.469463
30
2.022542
11
-2.022542
21
-1.469463
31
2.022542
0
LINE
8
ESTRADOSSO
10
-2.5
20
-1.469463
30
2.383417
11
-2.022542
21
-1.469463
31
2.383417
0
LINE
8
INTRADOSSO
10
-2.022542
20
-1.469463
30
2.022542
11
-1.469463
21
-1.469463
31
2.022542
0
LINE
8
ESTRADOSSO
10
-2.022542
20
-1.469463
30
2.383417
11
-1.469463
21
-1.469463
31
2.383417
0
LINE
8
INTRADOSSO
10
-2.5
20
-2.5
30
0.0
11
-2.377641
21
-2.5
31
0.772542
0
LINE
8
ESTRADOSSO
10
-2.5
20
-2.5
30
1.260952
11
-2.377641
21
-2.5
31
1.478791
0
LINE
8
INTRADOSSO
10
-2.377641
20
-2.5
30
0.772542
11
-2.022542
21
-2.5
31
1.469463
0
LINE
8
ESTRADOSSO
10
-2.377641
20
-2.5
30
1.478791
11
-2.022542
21
-2.5
31
1.936317
0
LINE
8
INTRADOSSO
10
-2.022542
20
-2.5
30
1.469463
11
-1.469463
21
-2.5
31
2.022542
0
LINE
8
ESTRADOSSO
10
-2.022542
20
-2.5
30
1.936317
11
-1.469463
21
-2.5
31
2.383417
0
LINE
8
INTRADOSSO
10
-1.469463
20
-2.5
30
2.022542
11
-0.772542
21
-2.5
31
2.377641
0
LINE
8
ESTRADOSSO
10
-1.469463
20
-2.5
30
2.383417
11
-0.772542
21
-2.5
31
2.691315
0
LINE
8
INTRADOSSO
10
-0.772542
20
-2.5
30
2.377641
11
-0.0
21
-2.5
31
2.5
0
LINE
8
ESTRADOSSO
10
-0.772542
20
-2.5
30
2.691315
11
-0.0
21
-2.5
31
2.8
0
LINE
8
INTRADOSSO
10
-2.022542
20
-2.022542
30
1.469463
11
-1.469463
21
-2.022542
31
2.022542
0
LINE
8
ESTRADOSSO
10
-2.022542
20
-2.022542
30
1.936317
11
-1.469463
21
-2.022542
31
2.383417
0
LINE
8
INTRADOSSO
10
-1.469463
20
-2.022542
30
2.022542
11
-0.772542
21
-2.022542
31
2.377641
0
LINE
8
ESTRADOSSO
10
-1.469463
20
-2.022542
30
2.383417
11
-0.772542
21
-2.022542
31
2.691315
0
LINE
8
INTRADOSSO
10
-0.772542
20
-2.022542
30
2.377641
11
-0.0
21
-2.022542
31
2.5
0
LINE
8
ESTRADOSSO
10
-0.772542
20
-2.022542
30
2.691315
11
-0.0
21
-2.022542
31
2.8
0
LINE
8
INTRADOSSO
10
-1.469463
20
-1.469463
30
2.022542
11
-0.772542
21
-1.469463
31
2.377641
0
LINE
8
ESTRADOSSO
10
-1.469463
20
-1.469463
30
2.383417
11
-0.772542
21
-1.469463
31
2.691315
0
LINE
8
INTRADOSSO
10
-0.772542
20
-1.469463
30
2.377641
11
-0.0
21
-1.469463
31
2.5
0
LINE
8
ESTRADOSSO
10
-0.772542
20
-1.469463
30
2.691315
11
-0.0
21
-1.469463
31
2.8
0
LINE
8
INTRADOSSO
10
-0.772542
20
-0.772542
30
2.377641
11
-0.0
21
-0.772542
31
2.5
0
LINE
8
ESTRADOSSO
10
-0.772542
20
-0.772542
30
2.691315
11
-0.0
21
-0.772542
31
2.8
0
LINE
8
INTRADOSSO
10
-0.0
20
-2.5
30
2.5
11
-0.0
21
-2.022542
31
2.5
0
LINE
8
ESTRADOSSO
10
-0.0
20
-2.5
30
2.8
11
-0.0
21
-2.022542
31
2.8
0
LINE
8
INTRADOSSO
10
-0.0
20
-2.022542
30
2.5
11
-0.0
21
-1.469463
31
2.5
0
LINE
8
ESTRADOSSO
10
-0.0
20
-2.022542
30
2.8
11
-0.0
21
-1.469463
31
2.8
0
LINE
8
INTRADOSSO
10
-0.0
20
-1.469463
30
2.5
11
-0.0
21
-0.772542
31
2.5
0
LINE
8
ESTRADOSSO
10
-0.0
20
-1.469463
30
2.8
11
-0.0
21
-0.772542
31
2.8
0
LINE
8
INTRADOSSO
10
-0.0
20
-0.772542
30
2.5
11
-0.0
21
0.0
31
2.5
0
LINE
8
ESTRADOSSO
10
-0.0
20
-0.772542
30
2.8
11
-0.0
21
0.0
31
2.8
0
LINE
8
INTRADOSSO
10
-0.772542
20
-2.5
30
2.377641
11
-0.772542
21
-2.022542
31
2.377641
0
LINE
8
ESTRADOSSO
10
-0.772542
20
-2.5
30
2.691315
11
-0.772542
21
-2.022542
31
2.691315
0
LINE
8
INTRADOSSO
10
-0.772542
20
-2.022542
30
2.377641
11
-0.772542
21
-1.469463
31
2.377641
0
LINE
8
ESTRADOSSO
10
-0.772542
20
-2.022542
30
2.691315
11
-0.772542
21
-1.469463
31
2.691315
0
LINE
8
INTRADOSSO
10
-0.772542
20
-1.469463
30
2.377641
11
-0.772542
21
-0.772542
31
2.377641
0
LINE
8
ESTRADOSSO
10
-0.772542
20
-1.469463
30
2.691315
11
-0.772542
21
-0.772542
31
2.691315
0
LINE
8
INTRADOSSO
10
-2.022542
20
-2.5
30
1.469463
11
-2.022542
21
-2.022542
31
1.469463
0
LINE
8
ESTRADOSSO
10
-2.022542
20
-2.5
30
1.936317
11
-2.022542
21
-2.022542
31
1.936317
0
LINE
8
INTRADOSSO
10
-2.377641
20
-2.5
30
0.772542
11
-2.377641
21
-2.377641
31
0.772542
0
LINE
8
ESTRADOSSO
10
-2.377641
20
-2.5
30
1.478791
11
-2.377641
21
-2.377641
31
1.478791
0
LINE
8
INTRADOSSO
10
-1.469463
20
-2.5
30
2.022542
11
-1.469463
21
-2.022542
31
2.022542
0
LINE
8
ESTRADOSSO
10
-1.469463
20
-2.5
30
2.383417
11
-1.469463
21
-2.022542
31
2.383417
0
LINE
8
INTRADOSSO
10
-1.469463
20
-2.022542
30
2.022542
11
-1.469463
21
-1.469463
31
2.022542
0
LINE
8
ESTRADOSSO
10
-1.469463
20
-2.022542
30
2.383417
11
-1.469463
21
-1.469463
31
2.383417
0
LINE
8
INTRADOSSO
10
-0.0
20
-2.977458
30
2.0
11
-0.0
21
-2.5
31
2.5
0
LINE
8
ESTRADOSSO
10
-0.0
20
-2.977458
30
2.8
11
-0.0
21
-2.5
31
2.8
0
LINE
8
INTRADOSSO
10
-0.772542
20
-2.977458
30
1.877641
11
-0.772542
21
-2.5
31
2.377641
0
LINE
8
ESTRADOSSO
10
-0.772542
20
-2.977458
30
2.691315
11
-0.772542
21
-2.5
31
2.691315
0
LINE
8
INTRADOSSO
10
-1.469463
20
-2.977458
30
1.522542
11
-1.469463
21
-2.5
31
2.022542
0
LINE
8
ESTRADOSSO
10
-1.469463
20
-2.977458
30
2.383417
11
-1.469463
21
-2.5
31
2.383417
0
LINE
8
INTRADOSSO
10
-2.022542
20
-2.977458
30
0.969463
11
-2.022542
21
-2.5
31
1.469463
0
LINE
8
ESTRADOSSO
10
-2.022542
20
-2.977458
30
1.936317
11
-2.022542
21
-2.5
31
1.936317
0
LINE
8
INTRADOSSO
10
-2.377641
20
-2.977458
30
0.272542
11
-2.377641
21
-2.5
31
0.772542
0
LINE
8
ESTRADOSSO
10
-2.377641
20
-2.977458
30
1.0
11
-2.377641
21
-2.5
31
1.478791
0
LINE
8
INTRADOSSO
10
-2.977458
20
-0.0
30
2.0
11
-2.5
21
0.0
31
2.5
0
LINE
8
ESTRADOSSO
10
-2.977458
20
-0.0
30
2.8
11
-2.5
21
0.0
31
2.8
0
LINE
8
INTRADOSSO
10
-2.977458
20
-0.772542
30
1.877641
11
-2.5
21
-0.772542
31
2.377641
0
LINE
8
ESTRADOSSO
10
-2.977458
20
-0.772542
30
2.691315
11
-2.5
21
-0.772542
31
2.691315
0
LINE
8
INTRADOSSO
10
-2.977458
20
-1.469463
30
1.522542
11
-2.5
21
-1.469463
31
2.022542
0
LINE
8
ESTRADOSSO
10
-2.977458
20
-1.469463
30
2.383417
11
-2.5
21
-1.469463
31
2.383417
0
LINE
8
INTRADOSSO
10
-2.977458
20
-2.022542
30
0.969463
11
-2.5
21
-2.022542
31
1.469463
0
LINE
8
ESTRADOSSO
10
-2.977458
20
-2.022542
30
1.936317
11
-2.5
21
-2.022542
31
1.936317
0
LINE
8
INTRADOSSO
10
-2.977458
20
-2.377641
30
0.272542
11
-2.5
21
-2.377641
31
0.772542
0
LINE
8
ESTRADOSSO
10
-2.977458
20
-2.377641
30
1.0
11
-2.5
21
-2.377641
31
1.478791
0
LINE
8
INTRADOSSO
10
-2.5
20
2.5
30
0.0
11
-2.377641
21
2.377641
31
0.772542
0
LINE
8
ESTRADOSSO
10
-2.5
20
2.5
30
1.260952
11
-2.377641
21
2.377641
31
1.478791
0
LINE
8
INTRADOSSO
10
-2.377641
20
2.377641
30
0.772542
11
-2.022542
21
2.022542
31
1.469463
0
LINE
8
ESTRADOSSO
10
-2.377641
20
2.377641
30
1.478791
11
-2.022542
21
2.022542
31
1.936317
0
LINE
8
INTRADOSSO
10
-2.022542
20
2.022542
30
1.469463
11
-1.469463
21
1.469463
31
2.022542
0
LINE
8
ESTRADOSSO
10
-2.022542
20
2.022542
30
1.936317
11
-1.469463
21
1.469463
31
2.383417
0
LINE
8
INTRADOSSO
10
-1.469463
20
1.469463
30
2.022542
11
-0.772542
21
0.772542
31
2.377641
0
LINE
8
ESTRADOSSO
10
-1.469463
20
1.469463
30
2.383417
11
-0.772542
21
0.772542
31
2.691315
0
LINE
8
INTRADOSSO
10
-0.772542
20
0.772542
30
2.377641
11
-0.0
21
0.0
31
2.5
0
LINE
8
ESTRADOSSO
10
-0.772542
20
0.772542
30
2.691315
11
-0.0
21
0.0
31
2.8
0
LINE
8
INTRADOSSO
10
-2.5
20
2.5
30
0.0
11
-2.5
21
2.377641
31
0.772542
0
LINE
8
ESTRADOSSO
10
-2.5
20
2.5
30
1.260952
11
-2.5
21
2.377641
31
1.478791
0
LINE
8
INTRADOSSO
10
-2.5
20
2.377641
30
0.772542
11
-2.5
21
2.022542
31
1.469463
0
LINE
8
ESTRADOSSO
10
-2.5
20
2.377641
30
1.478791
11
-2.5
21
2.022542
31
1.936317
0
LINE
8
INTRADOSSO
10
-2.5
20
2.022542
30
1.469463
11
-2.5
21
1.469463
31
2.022542
0
LINE
8
ESTRADOSSO
10
-2.5
20
2.022542
30
1.936317
11
-2.5
21
1.469463
31
2.383417
0
LINE
8
INTRADOSSO
10
-2.5
20
1.469463
30
2.022542
11
-2.5
21
0.772542
31
2.377641
0
LINE
8
ESTRADOSSO
10
-2.5
20
1.469463
30
2.383417
11
-2.5
21
0.772542
31
2.691315
0
LINE
8
INTRADOSSO
10
-2.5
20
0.772542
30
2.377641
11
-2.5
21
0.0
31
2.5
0
LINE
8
ESTRADOSSO
10
-2.5
20
0.772542
30
2.691315
11
-2.5
21
0.0
31
2.8
0
LINE
8
INTRADOSSO
10
-2.022542
20
2.022542
30
1.469463
11
-2.022542
21
1.469463
31
2.022542
0
LINE
8
ESTRADOSSO
10
-2.022542
20
2.022542
30
1.936317
11
-2.022542
21
1.469463
31
2.383417
0
LINE
8
INTRADOSSO
10
-2.022542
20
1.469463
30
2.022542
11
-2.022542
21
0.772542
31
2.377641
0
LINE
8
ESTRADOSSO
10
-2.022542
20
1.469463
30
2.383417
11
-2.022542
21
0.772542
31
2.691315
0
LINE
8
INTRADOSSO
10
-2.022542
20
0.772542
30
2.377641
11
-2.022542
21
0.0
31
2.5
0
LINE
8
ESTRADOSSO
10
-2.022542
20
0.772542
30
2.691315
11
-2.022542
21
0.0
31
2.8
0
LINE
8
INTRADOSSO
10
-1.469463
20
1.469463
30
2.022542
11
-1.469463
21
0.772542
31
2.377641
0
LINE
8
ESTRADOSSO
10
-1.469463
20
1.469463
30
2.383417
11
-1.469463
21
0.772542
31
2.691315
0
LINE
8
INTRADOSSO
10
-1.469463
20
0.772542
30
2.377641
11
-1.469463
21
0.0
31
2.5
0
LINE
8
ESTRADOSSO
10
-1.469463
20
0.772542
30
2.691315
11
-1.469463
21
0.0
31
2.8
0
LINE
8
INTRADOSSO
10
-0.772542
20
0.772542
30
2.377641
11
-0.772542
21
0.0
31
2.5
0
LINE
8
ESTRADOSSO
10
-0.772542
20
0.772542
30
2.691315
11
-0.772542
21
0.0
31
2.8
0
LINE
8
INTRADOSSO
10
-2.5
20
0.772542
30
2.377641
11
-2.022542
21
0.772542
31
2.377641
0
LINE
8
ESTRADOSSO
10
-2.5
20
0.772542
30
2.691315
11
-2.022542
21
0.772542
31
2.691315
0
LINE
8
INTRADOSSO
10
-2.022542
20
0.772542
30
2.377641
11
-1.469463
21
0.772542
31
2.377641
0
LINE
8
ESTRADOSSO
10
-2.022542
20
0.772542
30
2.691315
11
-1.469463
21
0.772542
31
2.691315
0
LINE
8
INTRADOSSO
10
-1.469463
20
0.772542
30
2.377641
11
-0.772542
21
0.772542
31
2.377641
0
LINE
8
ESTRADOSSO
10
-1.469463
20
0.772542
30
2.691315
11
-0.772542
21
0.772542
31
2.691315
0
LINE
8
INTRADOSSO
10
-2.5
20
2.022542
30
1.469463
11
-2.022542
21
2.022542
31
1.469463
0
LINE
8
ESTRADOSSO
10
-2.5
20
2.022542
30
1.936317
11
-2.022542
21
2.022542
31
1.936317
0
LINE
8
INTRADOSSO
10
-2.5
20
2.377641
30
0.772542
11
-2.377641
21
2.377641
31
0.772542
0
LINE
8
ESTRADOSSO
10
-2.5
20
2.377641
30
1.478791
11
-2.377641
21
2.377641
31
1.478791
0
LINE
8
INTRADOSSO
10
-2.5
20
1.469463
30
2.022542
11
-2.022542
21
1.469463
31
2.022542
0
LINE
8
ESTRADOSSO
10
-2.5
20
1.469463
30
2.383417
11
-2.022542
21
1.469463
31
2.383417
0
LINE
8
INTRADOSSO
10
-2.022542
20
1.469463
30
2.022542
11
-1.469463
21
1.469463
31
2.022542
0
LINE
8
ESTRADOSSO
10
-2.022542
20
1.469463
30
2.383417
11
-1.469463
21
1.469463
31
2.383417
0
LINE
8
INTRADOSSO
10
-2.5
20
2.5
30
0.0
11
-2.377641
21
2.5
31
0.772542
0
LINE
8
ESTRADOSSO
10
-2.5
20
2.5
30
1.260952
11
-2.377641
21
2.5
31
1.478791
0
LINE
8
INTRADOSSO
10
-2.377641
20
2.5
30
0.772542
11
-2.022542
21
2.5
31
1.469463
0
LINE
8
ESTRADOSSO
10
-2.377641
20
2.5
30
1.478791
11
-2.022542
21
2.5
31
1.936317
0
LINE
8
INTRADOSSO
10
-2.022542
20
2.5
30
1.469463
11
-1.469463
21
2.5
31
2.022542
0
LINE
8
ESTRADOSSO
10
-2.022542
20
2.5
30
1.936317
11
-1.469463
21
2.5
31
2.383417
0
LINE
8
INTRADOSSO
10
-1.469463
20
2.5
30
2.022542
11
-0.772542
21
2.5
31
2.377641
0
LINE
8
ESTRADOSSO
10
-1.469463
20
2.5
30
2.383417
11
-0.772542
21
2.5
31
2.691315
0
LINE
8
INTRADOSSO
10
-0.772542
20
2.5
30
2.377641
11
-0.0
21
2.5
31
2.5
0
LINE
8
ESTRADOSSO
10
-0.772542
20
2.5
30
2.691315
11
-0.0
21
2.5
31
2.8
0
LINE
8
INTRADOSSO
10
-2.022542
20
2.022542
30
1.469463
11
-1.469463
21
2.022542
31
2.022542
0
LINE
8
ESTRADOSSO
10
-2.022542
20
2.022542
30
1.936317
11
-1.469463
21
2.022542
31
2.383417
0
LINE
8
INTRADOSSO
10
-1.469463
20
2.022542
30
2.022542
11
-0.772542
21
2.022542
31
2.377641
0
LINE
8
ESTRADOSSO
10
-1.469463
20
2.022542
30
2.383417
11
-0.772542
21
2.022542
31
2.691315
0
LINE
8
INTRADOSSO
10
-0.772542
20
2.022542
30
2.377641
11
-0.0
21
2.022542
31
2.5
0
LINE
8
ESTRADOSSO
10
-0.772542
20
2.022542
30
2.691315
11
-0.0
21
2.022542
31
2.8
0
LINE
8
INTRADOSSO
10
-1.469463
20
1.469463
30
2.022542
11
-0.772542
21
1.469463
31
2.377641
0
LINE
8
ESTRADOSSO
10
-1.469463
20
1.469463
30
2.383417
11
-0.772542
21
1.469463
31
2.691315
0
LINE
8
INTRADOSSO
10
-0.772542
20
1.469463
30
2.377641
11
-0.0
21
1.469463
31
2.5
0
LINE
8
ESTRADOSSO
10
-0.772542
20
1.469463
30
2.691315
11
-0.0
21
1.469463
31
2.8
0
LINE
8
INTRADOSSO
10
-0.772542
20
0.772542
30
2.377641
11
-0.0
21
0.772542
31
2.5
0
LINE
8
ESTRADOSSO
10
-0.772542
20
0.772542
30
2.691315
11
-0.0
21
0.772542
31
2.8
0
LINE
8
INTRADOSSO
10
-0.0
20
2.5
30
2.5
11
-0.0
21
2.022542
31
2.5
0
LINE
8
ESTRADOSSO
10
-0.0
20
2.5
30
2.8
11
-0.0
21
2.022542
31
2.8
0
LINE
8
INTRADOSSO
10
-0.0
20
2.022542
30
2.5
11
-0.0
21
1.469463
31
2.5
0
LINE
8
ESTRADOSSO
10
-0.0
20
2.022542
30
2.8
11
-0.0
21
1.469463
31
2.8
0
LINE
8
INTRADOSSO
10
-0.0
20
1.469463
30
2.5
11
-0.0
21
0.772542
31
2.5
0
LINE
8
ESTRADOSSO
10
-0.0
20
1.469463
30
2.8
11
-0.0
21
0.772542
31
2.8
0
LINE
8
INTRADOSSO
10
-0.0
20
0.772542
30
2.5
11
-0.0
21
0.0
31
2.5
0
LINE
8
ESTRADOSSO
10
-0.0
20
0.772542
30
2.8
11
-0.0
21
0.0
31
2.8
0
LINE
8
INTRADOSSO
10
-0.772542
20
2.5
30
2.377641
11
-0.772542
21
2.022542
31
2.377641
0
LINE
8
ESTRADOSSO
10
-0.772542
20
2.5
30
2.691315
11
-0.772542
21
2.022542
31
2.691315
0
LINE
8
INTRADOSSO
10
-0.772542
20
2.022542
30
2.377641
11
-0.772542
21
1.469463
31
2.377641
0
LINE
8
ESTRADOSSO
10
-0.772542
20
2.022542
30
2.691315
11
-0.772542
21
1.469463
31
2.691315
0
LINE
8
INTRADOSSO
10
-0.772542
20
1.469463
30
2.377641
11
-0.772542
21
0.772542
31
2.377641
0
LINE
8
ESTRADOSSO
10
-0.772542
20
1.469463
30
2.691315
11
-0.772542
21
0.772542
31
2.691315
0
LINE
8
INTRADOSSO
10
-2.022542
20
2.5
30
1.469463
11
-2.022542
21
2.022542
31
1.469463
0
LINE
8
ESTRADOSSO
10
-2.022542
20
2.5
30
1.936317
11
-2.022542
21
2.022542
31
1.936317
0
LINE
8
INTRADOSSO
10
-2.377641
20
2.5
30
0.772542
11
-2.377641
21
2.377641
31
0.772542
0
LINE
8
ESTRADOSSO
10
-2.377641
20
2.5
30
1.478791
11
-2.377641
21
2.377641
31
1.478791
0
LINE
8
INTRADOSSO
10
-1.469463
20
2.5
30
2.022542
11
-1.469463
21
2.022542
31
2.022542
0
LINE
8
ESTRADOSSO
10
-1.469463
20
2.5
30
2.383417
11
-1.469463
21
2.022542
31
2.383417
0
LINE
8
INTRADOSSO
10
-1.469463
20
2.022542
30
2.022542
11
-1.469463
21
1.469463
31
2.022542
0
LINE
8
ESTRADOSSO
10
-1.469463
20
2.022542
30
2.383417
11
-1.469463
21
1.469463
31
2.383417
0
LINE
8
INTRADOSSO
10
-0.0
20
2.977458
30
2.0
11
-0.0
21
2.5
31
2.5
0
LINE
8
ESTRADOSSO
10
-0.0
20
2.977458
30
2.8
11
-0.0
21
2.5
31
2.8
0
LINE
8
INTRADOSSO
10
-0.772542
20
2.977458
30
1.877641
11
-0.772542
21
2.5
31
2.377641
0
LINE
8
ESTRADOSSO
10
-0.772542
20
2.977458
30
2.691315
11
-0.772542
21
2.5
31
2.691315
0
LINE
8
INTRADOSSO
10
-1.469463
20
2.977458
30
1.522542
11
-1.469463
21
2.5
31
2.022542
0
LINE
8
ESTRADOSSO
10
-1.469463
20
2.977458
30
2.383417
11
-1.469463
21
2.5
31
2.383417
0
LINE
8
INTRADOSSO
10
-2.022542
20
2.977458
30
0.969463
11
-2.022542
21
2.5
31
1.469463
0
LINE
8
ESTRADOSSO
10
-2.022542
20
2.977458
30
1.936317
11
-2.022542
21
2.5
31
1.936317
0
LINE
8
INTRADOSSO
10
-2.377641
20
2.977458
30
0.272542
11
-2.377641
21
2.5
31
0.772542
0
LINE
8
ESTRADOSSO
10
-2.377641
20
2.977458
30
1.0
11
-2.377641
21
2.5
31
1.478791
0
LINE
8
INTRADOSSO
10
-2.977458
20
0.772542
30
1.877641
11
-2.5
21
0.772542
31
2.377641
0
LINE
8
ESTRADOSSO
10
-2.977458
20
0.772542
30
2.691315
11
-2.5
21
0.772542
31
2.691315
0
LINE
8
INTRADOSSO
10
-2.977458
20
1.469463
30
1.522542
11
-2.5
21
1.469463
31
2.022542
0
LINE
8
ESTRADOSSO
10
-2.977458
20
1.469463
30
2.383417
11
-2.5
21
1.469463
31
2.383417
0
LINE
8
INTRADOSSO
10
-2.977458
20
2.022542
30
0.969463
11
-2.5
21
2.022542
31
1.469463
0
LINE
8
ESTRADOSSO
10
-2.977458
20
2.022542
30
1.936317
11
-2.5
21
2.022542
31
1.936317
0
LINE
8
INTRADOSSO
10
-2.977458
20
2.377641
30
0.272542
11
-2.5
21
2.377641
31
0.772542
0
LINE
8
ESTRADOSSO
10
-2.977458
20
2.377641
30
1.0
11
-2.5
21
2.377641
31
1.478791
0
LINE
8
INTRADOSSO
10
2.5
20
-2.5
30
0.0
11
2.377641
21
-2.377641
31
0.772542
0
LINE
8
ESTRADOSSO
10
2.5
20
-2.5
30
1.260952
11
2.377641
21
-2.377641
31
1.478791
0
LINE
8
INTRADOSSO
10
2.377641
20
-2.377641
30
0.772542
11
2.022542
21
-2.022542
31
1.469463
0
LINE
8
ESTRADOSSO
10
2.377641
20
-2.377641
30
1.478791
11
2.022542
21
-2.022542
31
1.936317
0
LINE
8
INTRADOSSO
10
2.022542
20
-2.022542
30
1.469463
11
1.469463
21
-1.469463
31
2.022542
0
LINE
8
ESTRADOSSO
10
2.022542
20
-2.022542
30
1.936317
11
1.469463
21
-1.469463
31
2.383417
0
LINE
8
INTRADOSSO
10
1.469463
20
-1.469463
30
2.022542
11
0.772542
21
-0.772542
31
2.377641
0
LINE
8
ESTRADOSSO
10
1.469463
20
-1.469463
30
2.383417
11
0.772542
21
-0.772542
31
2.691315
0
LINE
8
INTRADOSSO
10
0.772542
20
-0.772542
30
2.377641
11
-0.0
21
0.0
31
2.5
0
LINE
8
ESTRADOSSO
10
0.772542
20
-0.772542
30
2.691315
11
-0.0
21
0.0
31
2.8
0
LINE
8
INTRADOSSO
10
2.5
20
-2.5
30
0.0
11
2.5
21
-2.377641
31
0.772542
0
LINE
8
ESTRADOSSO
10
2.5
20
-2.5
30
1.260952
11
2.5
21
-2.377641
31
1.478791
0
LINE
8
INTRADOSSO
10
2.5
20
-2.377641
30
0.772542
11
2.5
21
-2.022542
31
1.469463
0
LINE
8
ESTRADOSSO
10
2.5
20
-2.377641
30
1.478791
11
2.5
21
-2.022542
31
1.936317
0
LINE
8
INTRADOSSO
10
2.5
20
-2.022542
30
1.469463
11
2.5
21
-1.469463
31
2.022542
0
LINE
8
ESTRADOSSO
10
2.5
20
-2.022542
30
1.936317
11
2.5
21
-1.469463
31
2.383417
0
LINE
8
INTRADOSSO
10
2.5
20
-1.469463
30
2.022542
11
2.5
21
-0.772542
31
2.377641
0
LINE
8
ESTRADOSSO
10
2.5
20
-1.469463
30
2.383417
11
2.5
21
-0.772542
31
2.691315
0
LINE
8
INTRADOSSO
10
2.5
20
-0.772542
30
2.377641
11
2.5
21
0.0
31
2.5
0
LINE
8
ESTRADOSSO
10
2.5
20
-0.772542
30
2.691315
11
2.5
21
0.0
31
2.8
0
LINE
8
INTRADOSSO
10
2.022542
20
-2.022542
30
1.469463
11
2.022542
21
-1.469463
31
2.022542
0
LINE
8
ESTRADOSSO
10
2.022542
20
-2.022542
30
1.936317
11
2.022542
21
-1.469463
31
2.383417
0
LINE
8
INTRADOSSO
10
2.022542
20
-1.469463
30
2.022542
11
2.022542
21
-0.772542
31
2.377641
0
LINE
8
ESTRADOSSO
10
2.022542
20
-1.469463
30
2.383417
11
2.022542
21
-0.772542
31
2.691315
0
LINE
8
INTRADOSSO
10
2.022542
20
-0.772542
30
2.377641
11
2.022542
21
0.0
31
2.5
0
LINE
8
ESTRADOSSO
10
2.022542
20
-0.772542
30
2.691315
11
2.022542
21
0.0
31
2.8
0
LINE
8
INTRADOSSO
10
1.469463
20
-1.469463
30
2.022542
11
1.469463
21
-0.772542
31
2.377641
0
LINE
8
ESTRADOSSO
10
1.469463
20
-1.469463
30
2.383417
11
1.469463
21
-0.772542
31
2.691315
0
LINE
8
INTRADOSSO
10
1.469463
20
-0.772542
30
2.377641
11
1.469463
21
0.0
31
2.5
0
LINE
8
ESTRADOSSO
10
1.469463
20
-0.772542
30
2.691315
11
1.469463
21
0.0
31
2.8
0
LINE
8
INTRADOSSO
10
0.772542
20
-0.772542
30
2.377641
11
0.772542
21
0.0
31
2.5
0
LINE
8
ESTRADOSSO
10
0.772542
20
-0.772542
30
2.691315
11
0.772542
21
0.0
31
2.8
0
LINE
8
INTRADOSSO
10
2.5
20
0.0
30
2.5
11
2.022542
21
0.0
31
2.5
0
LINE
8
ESTRADOSSO
10
2.5
20
0.0
30
2.8
11
2.022542
21
0.0
31
2.8
0
LINE
8
INTRADOSSO
10
2.022542
20
0.0
30
2.5
11
1.469463
21
0.0
31
2.5
0
LINE
8
ESTRADOSSO
10
2.022542
20
0.0
30
2.8
11
1.469463
21
0.0
31
2.8
0
LINE
8
INTRADOSSO
10
1.469463
20
0.0
30
2.5
11
0.772542
21
0.0
31
2.5
0
LINE
8
ESTRADOSSO
10
1.469463
20
0.0
30
2.8
11
0.772542
21
0.0
31
2.8
0
LINE
8
INTRADOSSO
10
0.772542
20
0.0
30
2.5
11
-0.0
21
0.0
31
2.5
0
LINE
8
ESTRADOSSO
10
0.772542
20
0.0
30
2.8
11
-0.0
21
0.0
31
2.8
0
LINE
8
INTRADOSSO
10
2.5
20
-0.772542
30
2.377641
11
2.022542
21
-0.772542
31
2.377641
0
LINE
8
ESTRADOSSO
10
2.5
20
-0.772542
30
2.691315
11
2.022542
21
-0.772542
31
2.691315
0
LINE
8
INTRADOSSO
10
2.022542
20
-0.772542
30
2.377641
11
1.469463
21
-0.772542
31
2.377641
0
LINE
8
ESTRADOSSO
10
2.022542
20
-0.772542
30
2.691315
11
1.469463
21
-0.772542
31
2.691315
0
LINE
8
INTRADOSSO
10
1.469463
20
-0.772542
30
2.377641
11
0.772542
21
-0.772542
31
2.377641
0
LINE
8
ESTRADOSSO
10
1.469463
20
-0.772542
30
2.691315
11
0.772542
21
-0.772542
31
2.691315
0
LINE
8
INTRADOSSO
10
2.5
20
-2.022542
30
1.469463
11
2.022542
21
-2.022542
31
1.469463
0
LINE
8
ESTRADOSSO
10
2.5
20
-2.022542
30
1.936317
11
2.022542
21
-2.022542
31
1.936317
0
LINE
8
INTRADOSSO
10
2.5
20
-2.377641
30
0.772542
11
2.377641
21
-2.377641
31
0.772542
0
LINE
8
ESTRADOSSO
10
2.5
20
-2.377641
30
1.478791
11
2.377641
21
-2.377641
31
1.478791
0
LINE
8
INTRADOSSO
10
2.5
20
-1.469463
30
2.022542
11
2.022542
21
-1.469463
31
2.022542
0
LINE
8
ESTRADOSSO
10
2.5
20
-1.469463
30
2.383417
11
2.022542
21
-1.469463
31
2.383417
0
LINE
8
INTRADOSSO
10
2.022542
20
-1.469463
30
2.022542
11
1.469463
21
-1.469463
31
2.022542
0
LINE
8
ESTRADOSSO
10
2.022542
20
-1.469463
30
2.383417
11
1.469463
21
-1.469463
31
2.383417
0
LINE
8
INTRADOSSO
10
2.5
20
-2.5
30
0.0
11
2.377641
21
-2.5
31
0.772542
0
LINE
8
ESTRADOSSO
10
2.5
20
-2.5
30
1.260952
11
2.377641
21
-2.5
31
1.478791
0
LINE
8
INTRADOSSO
10
2.377641
20
-2.5
30
0.772542
11
2.022542
21
-2.5
31
1.469463
0
LINE
8
ESTRADOSSO
10
2.377641
20
-2.5
30
1.478791
11
2.022542
21
-2.5
31
1.936317
0
LINE
8
INTRADOSSO
10
2.022542
20
-2.5
30
1.469463
11
1.469463
21
-2.5
31
2.022542
0
LINE
8
ESTRADOSSO
10
2.022542
20
-2.5
30
1.936317
11
1.469463
21
-2.5
31
2.383417
0
LINE
8
INTRADOSSO
10
1.469463
20
-2.5
30
2.022542
11
0.772542
21
-2.5
31
2.377641
0
LINE
8
ESTRADOSSO
10
1.469463
20
-2.5
30
2.383417
11
0.772542
21
-2.5
31
2.691315
0
LINE
8
INTRADOSSO
10
0.772542
20
-2.5
30
2.377641
11
-0.0
21
-2.5
31
2.5
0
LINE
8
ESTRADOSSO
10
0.772542
20
-2.5
30
2.691315
11
-0.0
21
-2.5
31
2.8
0
LINE
8
INTRADOSSO
10
2.022542
20
-2.022542
30
1.469463
11
1.469463
21
-2.022542
31
2.022542
0
LINE
8
ESTRADOSSO
10
2.022542
20
-2.022542
30
1.936317
11
1.469463
21
-2.022542
31
2.383417
0
LINE
8
INTRADOSSO
10
1.469463
20
-2.022542
30
2.022542
11
0.772542
21
-2.022542
31
2.377641
0
LINE
8
ESTRADOSSO
10
1.469463
20
-2.022542
30
2.383417
11
0.772542
21
-2.022542
31
2.691315
0
LINE
8
INTRADOSSO
10
0.772542
20
-2.022542
30
2.377641
11
-0.0
21
-2.022542
31
2.5
0
LINE
8
ESTRADOSSO
10
0.772542
20
-2.022542
30
2.691315
11
-0.0
21
-2.022542
31
2.8
0
LINE
8
INTRADOSSO
10
1.469463
20
-1.469463
30
2.022542
11
0.772542
21
-1.469463
31
2.377641
0
LINE
8
ESTRADOSSO
10
1.469463
20
-1.469463
30
2.383417
11
0.772542
21
-1.469463
31
2.691315
0
LINE
8
INTRADOSSO
10
0.772542
20
-1.469463
30
2.377641
11
-0.0
21
-1.469463
31
2.5
0
LINE
8
ESTRADOSSO
10
0.772542
20
-1.469463
30
2.691315
11
-0.0
21
-1.469463
31
2.8
0
LINE
8
INTRADOSSO
10
0.772542
20
-0.772542
30
2.377641
11
-0.0
21
-0.772542
31
2.5
0
LINE
8
ESTRADOSSO
10
0.772542
20
-0.772542
30
2.691315
11
-0.0
21
-0.772542
31
2.8
0
LINE
8
INTRADOSSO
10
0.772542
20
-2.5
30
2.377641
11
0.772542
21
-2.022542
31
2.377641
0
LINE
8
ESTRADOSSO
10
0.772542
20
-2.5
30
2.691315
11
0.772542
21
-2.022542
31
2.691315
0
LINE
8
INTRADOSSO
10
0.772542
20
-2.022542
30
2.377641
11
0.772542
21
-1.469463
31
2.377641
0
LINE
8
ESTRADOSSO
10
0.772542
20
-2.022542
30
2.691315
11
0.772542
21
-1.469463
31
2.691315
0
LINE
8
INTRADOSSO
10
0.772542
20
-1.469463
30
2.377641
11
0.772542
21
-0.772542
31
2.377641
0
LINE
8
ESTRADOSSO
10
0.772542
20
-1.469463
30
2.691315
11
0.772542
21
-0.772542
31
2.691315
0
LINE
8
INTRADOSSO
10
2.022542
20
-2.5
30
1.469463
11
2.022542
21
-2.022542
31
1.469463
0
LINE
8
ESTRADOSSO
10
2.022542
20
-2.5
30
1.936317
11
2.022542
21
-2.022542
31
1.936317
0
LINE
8
INTRADOSSO
10
2.377641
20
-2.5
30
0.772542
11
2.377641
21
-2.377641
31
0.772542
0
LINE
8
ESTRADOSSO
10
2.377641
20
-2.5
30
1.478791
11
2.377641
21
-2.377641
31
1.478791
0
LINE
8
INTRADOSSO
10
1.469463
20
-2.5
30
2.022542
11
1.469463
21
-2.022542
31
2.022542
0
LINE
8
ESTRADOSSO
10
1.469463
20
-2.5
30
2.383417
11
1.469463
21
-2.022542
31
2.383417
0
LINE
8
INTRADOSSO
10
1.469463
20
-2.022542
30
2.022542
11
1.469463
21
-1.469463
31
2.022542
0
LINE
8
ESTRADOSSO
10
1.469463
20
-2.022542
30
2.383417
11
1.469463
21
-1.469463
31
2.383417
0
LINE
8
INTRADOSSO
10
0.772542
20
-2.977458
30
1.877641
11
0.772542
21
-2.5
31
2.377641
0
LINE
8
ESTRADOSSO
10
0.772542
20
-2.977458
30
2.691315
11
0.772542
21
-2.5
31
2.691315
0
LINE
8
INTRADOSSO
10
1.469463
20
-2.977458
30
1.522542
11
1.469463
21
-2.5
31
2.022542
0
LINE
8
ESTRADOSSO
10
1.469463
20
-2.977458
30
2.383417
11
1.469463
21
-2.5
31
2.383417
0
LINE
8
INTRADOSSO
10
2.022542
20
-2.977458
30
0.969463
11
2.022542
21
-2.5
31
1.469463
0
LINE
8
ESTRADOSSO
10
2.022542
20
-2.977458
30
1.936317
11
2.022542
21
-2.5
31
1.936317
0
LINE
8
INTRADOSSO
10
2.377641
20
-2.977458
30
0.272542
11
2.377641
21
-2.5
31
0.772542
0
LINE
8
ESTRADOSSO
10
2.377641
20
-2.977458
30
1.0
11
2.377641
21
-2.5
31
1.478791
0
LINE
8
INTRADOSSO
10
2.977458
20
0.0
30
2.0
11
2.5
21
0.0
31
2.5
0
LINE
8
ESTRADOSSO
10
2.977458
20
0.0
30
2.8
11
2.5
21
0.0
31
2.8
0
LINE
8
INTRADOSSO
10
2.977458
20
-0.772542
30
1.877641
11
2.5
21
-0.772542
31
2.377641
0
LINE
8
ESTRADOSSO
10
2.977458
20
-0.772542
30
2.691315
11
2.5
21
-0.772542
31
2.691315
0
LINE
8
INTRADOSSO
10
2.977458
20
-1.469463
30
1.522542
11
2.5
21
-1.469463
31
2.022542
0
LINE
8
ESTRADOSSO
10
2.977458
20
-1.469463
30
2.383417
11
2.5
21
-1.469463
31
2.383417
0
LINE
8
INTRADOSSO
10
2.977458
20
-2.022542
30
0.969463
11
2.5
21
-2.022542
31
1.469463
0
LINE
8
ESTRADOSSO
10
2.977458
20
-2.022542
30
1.936317
11
2.5
21
-2.022542
31
1.936317
0
LINE
8
INTRADOSSO
10
2.977458
20
-2.377641
30
0.272542
11
2.5
21
-2.377641
31
0.772542
0
LINE
8
ESTRADOSSO
10
2.977458
20
-2.377641
30
1.0
11
2.5
21
-2.377641
31
1.478791
0
LINE
8
INTRADOSSO
10
2.5
20
2.5
30
0.0
11
2.377641
21
2.377641
31
0.772542
0
LINE
8
ESTRADOSSO
10
2.5
20
2.5
30
1.260952
11
2.377641
21
2.377641
31
1.478791
0
LINE
8
INTRADOSSO
10
2.377641
20
2.377641
30
0.772542
11
2.022542
21
2.022542
31
1.469463
0
LINE
8
ESTRADOSSO
10
2.377641
20
2.377641
30
1.478791
11
2.022542
21
2.022542
31
1.936317
0
LINE
8
INTRADOSSO
10
2.022542
20
2.022542
30
1.469463
11
1.469463
21
1.469463
31
2.022542
0
LINE
8
ESTRADOSSO
10
2.022542
20
2.022542
30
1.936317
11
1.469463
21
1.469463
31
2.383417
0
LINE
8
INTRADOSSO
10
1.469463
20
1.469463
30
2.022542
11
0.772542
21
0.772542
31
2.377641
0
LINE
8
ESTRADOSSO
10
1.469463
20
1.469463
30
2.383417
11
0.772542
21
0.772542
31
2.691315
0
LINE
8
INTRADOSSO
10
0.772542
20
0.772542
30
2.377641
11
-0.0
21
0.0
31
2.5
0
LINE
8
ESTRADOSSO
10
0.772542
20
0.772542
30
2.691315
11
-0.0
21
0.0
31
2.8
0
LINE
8
INTRADOSSO
10
2.5
20
2.5
30
0.0
11
2.5
21
2.377641
31
0.772542
0
LINE
8
ESTRADOSSO
10
2.5
20
2.5
30
1.260952
11
2.5
21
2.377641
31
1.478791
0
LINE
8
INTRADOSSO
10
2.5
20
2.377641
30
0.772542
11
2.5
21
2.022542
31
1.469463
0
LINE
8
ESTRADOSSO
10
2.5
20
2.377641
30
1.478791
11
2.5
21
2.022542
31
1.936317
0
LINE
8
INTRADOSSO
10
2.5
20
2.022542
30
1.469463
11
2.5
21
1.469463
31
2.022542
0
LINE
8
ESTRADOSSO
10
2.5
20
2.022542
30
1.936317
11
2.5
21
1.469463
31
2.383417
0
LINE
8
INTRADOSSO
10
2.5
20
1.469463
30
2.022542
11
2.5
21
0.772542
31
2.377641
0
LINE
8
ESTRADOSSO
10
2.5
20
1.469463
30
2.383417
11
2.5
21
0.772542
31
2.691315
0
LINE
8
INTRADOSSO
10
2.5
20
0.772542
30
2.377641
11
2.5
21
0.0
31
2.5
0
LINE
8
ESTRADOSSO
10
2.5
20
0.772542
30
2.691315
11
2.5
21
0.0
31
2.8
0
LINE
8
INTRADOSSO
10
2.022542
20
2.022542
30
1.469463
11
2.022542
21
1.469463
31
2.022542
0
LINE
8
ESTRADOSSO
10
2.022542
20
2.022542
30
1.936317
11
2.022542
21
1.469463
31
2.383417
0
LINE
8
INTRADOSSO
10
2.022542
20
1.469463
30
2.022542
11
2.022542
21
0.772542
31
2.377641
0
LINE
8
ESTRADOSSO
10
2.022542
20
1.469463
30
2.383417
11
2.022542
21
0.772542
31
2.691315
0
LINE
8
INTRADOSSO
10
2.022542
20
0.772542
30
2.377641
11
2.022542
21
0.0
31
2.5
0
LINE
8
ESTRADOSSO
10
2.022542
20
0.772542
30
2.691315
11
2.022542
21
0.0
31
2.8
0
LINE
8
INTRADOSSO
10
1.469463
20
1.469463
30
2.022542
11
1.469463
21
0.772542
31
2.377641
0
LINE
8
ESTRADOSSO
10
1.469463
20
1.469463
30
2.383417
11
1.469463
21
0.772542
31
2.691315
0
LINE
8
INTRADOSSO
10
1.469463
20
0.772542
30
2.377641
11
1.469463
21
0.0
31
2.5
0
LINE
8
ESTRADOSSO
10
1.469463
20
0.772542
30
2.691315
11
1.469463
21
0.0
31
2.8
0
LINE
8
INTRADOSSO
10
0.772542
20
0.772542
30
2.377641
11
0.772542
21
0.0
31
2.5
0
LINE
8
ESTRADOSSO
10
0.772542
20
0.772542
30
2.691315
11
0.772542
21
0.0
31
2.8
0
LINE
8
INTRADOSSO
10
2.5
20
0.772542
30
2.377641
11
2.022542
21
0.772542
31
2.377641
0
LINE
8
ESTRADOSSO
10
2.5
20
0.772542
30
2.691315
11
2.022542
21
0.772542
31
2.691315
0
LINE
8
INTRADOSSO
10
2.022542
20
0.772542
30
2.377641
11
1.469463
21
0.772542
31
2.377641
0
LINE
8
ESTRADOSSO
10
2.022542
20
0.772542
30
2.691315
11
1.469463
21
0.772542
31
2.691315
0
LINE
8
INTRADOSSO
10
1.469463
20
0.772542
30
2.377641
11
0.772542
21
0.772542
31
2.377641
0
LINE
8
ESTRADOSSO
10
1.469463
20
0.772542
30
2.691315
11
0.772542
21
0.772542
31
2.691315
0
LINE
8
INTRADOSSO
10
2.5
20
2.022542
30
1.469463
11
2.022542
21
2.022542
31
1.469463
0
LINE
8
ESTRADOSSO
10
2.5
20
2.022542
30
1.936317
11
2.022542
21
2.022542
31
1.936317
0
LINE
8
INTRADOSSO
10
2.5
20
2.377641
30
0.772542
11
2.377641
21
2.377641
31
0.772542
0
LINE
8
ESTRADOSSO
10
2.5
20
2.377641
30
1.478791
11
2.377641
21
2.377641
31
1.478791
0
LINE
8
INTRADOSSO
10
2.5
20
1.469463
30
2.022542
11
2.022542
21
1.469463
31
2.022542
0
LINE
8
ESTRADOSSO
10
2.5
20
1.469463
30
2.383417
11
2.022542
21
1.469463
31
2.383417
0
LINE
8
INTRADOSSO
10
2.022542
20
1.469463
30
2.022542
11
1.469463
21
1.469463
31
2.022542
0
LINE
8
ESTRADOSSO
10
2.022542
20
1.469463
30
2.383417
11
1.469463
21
1.469463
31
2.383417
0
LINE
8
INTRADOSSO
10
2.5
20
2.5
30
0.0
11
2.377641
21
2.5
31
0.772542
0
LINE
8
ESTRADOSSO
10
2.5
20
2.5
30
1.260952
11
2.377641
21
2.5
31
1.478791
0
LINE
8
INTRADOSSO
10
2.377641
20
2.5
30
0.772542
11
2.022542
21
2.5
31
1.469463
0
LINE
8
ESTRADOSSO
10
2.377641
20
2.5
30
1.478791
11
2.022542
21
2.5
31
1.936317
0
LINE
8
INTRADOSSO
10
2.022542
20
2.5
30
1.469463
11
1.469463
21
2.5
31
2.022542
0
LINE
8
ESTRADOSSO
10
2.022542
20
2.5
30
1.936317
11
1.469463
21
2.5
31
2.383417
0
LINE
8
INTRADOSSO
10
1.469463
20
2.5
30
2.022542
11
0.772542
21
2.5
31
2.377641
0
LINE
8
ESTRADOSSO
10
1.469463
20
2.5
30
2.383417
11
0.772542
21
2.5
31
2.691315
0
LINE
8
INTRADOSSO
10
0.772542
20
2.5
30
2.377641
11
-0.0
21
2.5
31
2.5
0
LINE
8
ESTRADOSSO
10
0.772542
20
2.5
30
2.691315
11
-0.0
21
2.5
31
2.8
0
LINE
8
INTRADOSSO
10
2.022542
20
2.022542
30
1.469463
11
1.469463
21
2.022542
31
2.022542
0
LINE
8
ESTRADOSSO
10
2.022542
20
2.022542
30
1.936317
11
1.469463
21
2.022542
31
2.383417
0
LINE
8
INTRADOSSO
10
1.469463
20
2.022542
30
2.022542
11
0.772542
21
2.022542
31
2.377641
0
LINE
8
ESTRADOSSO
10
1.469463
20
2.022542
30
2.383417
11
0.772542
21
2.022542
31
2.691315
0
LINE
8
INTRADOSSO
10
0.772542
20
2.022542
30
2.377641
11
-0.0
21
2.022542
31
2.5
0
LINE
8
ESTRADOSSO
10
0.772542
20
2.022542
30
2.691315
11
-0.0
21
2.022542
31
2.8
0
LINE
8
INTRADOSSO
10
1.469463
20
1.469463
30
2.022542
11
0.772542
21
1.469463
31
2.377641
0
LINE
8
ESTRADOSSO
10
1.469463
20
1.469463
30
2.383417
11
0.772542
21
1.469463
31
2.691315
0
LINE
8
INTRADOSSO
10
0.772542
20
1.469463
30
2.377641
11
-0.0
21
1.469463
31
2.5
0
LINE
8
ESTRADOSSO
10
0.772542
20
1.469463
30
2.691315
11
-0.0
21
1.469463
31
2.8
0
LINE
8
INTRADOSSO
10
0.772542
20
0.772542
30
2.377641
11
-0.0
21
0.772542
31
2.5
0
LINE
8
ESTRADOSSO
10
0.772542
20
0.772542
30
2.691315
11
-0.0
21
0.772542
31
2.8
0
LINE
8
INTRADOSSO
10
0.772542
20
2.5
30
2.377641
11
0.772542
21
2.022542
31
2.377641
0
LINE
8
ESTRADOSSO
10
0.772542
20
2.5
30
2.691315
11
0.772542
21
2.022542
31
2.691315
0
LINE
8
INTRADOSSO
10
0.772542
20
2.022542
30
2.377641
11
0.772542
21
1.469463
31
2.377641
0
LINE
8
ESTRADOSSO
10
0.772542
20
2.022542
30
2.691315
11
0.772542
21
1.469463
31
2.691315
0
LINE
8
INTRADOSSO
10
0.772542
20
1.469463
30
2.377641
11
0.772542
21
0.772542
31
2.377641
0
LINE
8
ESTRADOSSO
10
0.772542
20
1.469463
30
2.691315
11
0.772542
21
0.772542
31
2.691315
0
LINE
8
INTRADOSSO
10
2.022542
20
2.5
30
1.469463
11
2.022542
21
2.022542
31
1.469463
0
LINE
8
ESTRADOSSO
10
2.022542
20
2.5
30
1.936317
11
2.022542
21
2.022542
31
1.936317
0
LINE
8
INTRADOSSO
10
2.377641
20
2.5
30
0.772542
11
2.377641
21
2.377641
31
0.772542
0
LINE
8
ESTRADOSSO
10
2.377641
20
2.5
30
1.478791
11
2.377641
21
2.377641
31
1.478791
0
LINE
8
INTRADOSSO
10
1.469463
20
2.5
30
2.022542
11
1.469463
21
2.022542
31
2.022542
0
LINE
8
ESTRADOSSO
10
1.469463
20
2.5
30
2.383417
11
1.469463
21
2.022542
31
2.383417
0
LINE
8
INTRADOSSO
10
1.469463
20
2.022542
30
2.022542
11
1.469463
21
1.469463
31
2.022542
0
LINE
8
ESTRADOSSO
10
1.469463
20
2.022542
30
2.383417
11
1.469463
21
1.469463
31
2.383417
0
LINE
8
INTRADOSSO
10
0.772542
20
2.977458
30
1.877641
11
0.772542
21
2.5
31
2.377641
0
LINE
8
ESTRADOSSO
10
0.772542
20
2.977458
30
2.691315
11
0.772542
21
2.5
31
2.691315
0
LINE
8
INTRADOSSO
10
1.469463
20
2.977458
30
1.522542
11
1.469463
21
2.5
31
2.022542
0
LINE
8
ESTRADOSSO
10
1.469463
20
2.977458
30
2.383417
11
1.469463
21
2.5
31
2.383417
0
LINE
8
INTRADOSSO
10
2.022542
20
2.977458
30
0.969463
11
2.022542
21
2.5
31
1.469463
0
LINE
8
ESTRADOSSO
10
2.022542
20
2.977458
30
1.936317
11
2.022542
21
2.5
31
1.936317
0
LINE
8
INTRADOSSO
10
2.377641
20
2.977458
30
0.272542
11
2.377641
21
2.5
31
0.772542
0
LINE
8
ESTRADOSSO
10
2.377641
20
2.977458
30
1.0
11
2.377641
21
2.5
31
1.478791
0
LINE
8
INTRADOSSO
10
2.977458
20
0.772542
30
1.877641
11
2.5
21
0.772542
31
2.377641
0
LINE
8
ESTRADOSSO
10
2.977458
20
0.772542
30
2.691315
11
2.5
21
0.772542
31
2.691315
0
LINE
8
INTRADOSSO
10
2.977458
20
1.469463
30
1.522542
11
2.5
21
1.469463
31
2.022542
0
LINE
8
ESTRADOSSO
10
2.977458
20
1.469463
30
2.383417
11
2.5
21
1.469463
31
2.383417
0
LINE
8
INTRADOSSO
10
2.977458
20
2.022542
30
0.969463
11
2.5
21
2.022542
31
1.469463
0
LINE
8
ESTRADOSSO
10
2.977458
20
2.022542
30
1.936317
11
2.5
21
2.022542
31
1.936317
0
LINE
8
INTRADOSSO
10
2.977458
20
2.377641
30
0.272542
11
2.5
21
2.377641
31
0.772542
0
LINE
8
ESTRADOSSO
10
2.977458
20
2.377641
30
1.0
11
2.5
21
2.377641
31
1.478791
0
LINE
8
INTRADOSSO
10
2.782843
20
-2.782843
30
-1.785799
11
2.5
21
-2.5
31
0.0
0
LINE
8
ESTRADOSSO
10
2.782843
20
-2.782843
30
1.0
11
2.5
21
-2.5
31
1.260952
0
LINE
8
INTRADOSSO
10
-2.782843
20
-2.782843
30
-1.785799
11
-2.5
21
-2.5
31
0.0
0
LINE
8
ESTRADOSSO
10
-2.782843
20
-2.782843
30
1.0
11
-2.5
21
-2.5
31
1.260952
0
LINE
8
INTRADOSSO
10
2.782843
20
2.782843
30
-1.785799
11
2.5
21
2.5
31
0.0
0
LINE
8
ESTRADOSSO
10
2.782843
20
2.782843
30
1.0
11
2.5
21
2.5
31
1.260952
0
LINE
8
INTRADOSSO
10
-2.782843
20
2.782843
30
-1.785799
11
-2.5
21
2.5
31
0.0
0
LINE
8
ESTRADOSSO
10
-2.782843
20
2.782843
30
1.0
11
-2.5
21
2.5
31
1.260952
0
POINT
8
DIAGONALI
10
-2.5
20
-2.5
30
0.0
0
TEXT
8
ID-NODES
10
-2.5
20
-2.5
30
0.0
40
0.05
1
1
72
1
11
-2.5
21
-2.5
31
0.0
73
2
0
LINE
8
fz
10
-2.5
20
-2.5
30
1.260952
11
-2.5
21
-2.5
31
11.260952
0
POINT
8
DIAGONALI
10
-2.377641
20
-2.377641
30
0.772542
0
TEXT
8
ID-NODES
10
-2.377641
20
-2.377641
30
0.772542
40
0.05
1
2
72
1
11
-2.377641
21
-2.377641
31
0.772542
73
2
0
LINE
8
fz
10
-2.377641
20
-2.377641
30
1.478791
11
-2.377641
21
-2.377641
31
11.478791
0
POINT
8
DIAGONALI
10
-2.022542
20
-2.022542
30
1.469463
0
TEXT
8
ID-NODES
10
-2.022542
20
-2.022542
30
1.469463
40
0.05
1
3
72
1
11
-2.022542
21
-2.022542
31
1.469463
73
2
0
LINE
8
fz
10
-2.022542
20
-2.022542
30
1.936317
11
-2.022542
21
-2.022542
31
11.936317
0
POINT
8
DIAGONALI
10
-1.469463
20
-1.469463
30
2.022542
0
TEXT
8
ID-NODES
10
-1.469463
20
-1.469463
30
2.022542
40
0.05
1
4
72
1
11
-1.469463
21
-1.469463
31
2.022542
73
2
0
LINE
8
fz
10
-1.469463
20
-1.469463
30
2.383417
11
-1.469463
21
-1.469463
31
12.383417
0
POINT
8
DIAGONALI
10
-0.772542
20
-0.772542
30
2.377641
0
TEXT
8
ID-NODES
10
-0.772542
20
-0.772542
30
2.377641
40
0.05
1
5
72
1
11
-0.772542
21
-0.772542
31
2.377641
73
2
0
LINE
8
fz
10
-0.772542
20
-0.772542
30
2.691315
11
-0.772542
21
-0.772542
31
12.691315
0
POINT
8
DIAGONALI
10
-0.0
20
0.0
30
2.5
0
TEXT
8
ID-NODES
10
-0.0
20
0.0
30
2.5
40
0.05
1
6
72
1
11
-0.0
21
0.0
31
2.5
73
2
0
LINE
8
fz
10
-0.0
20
0.0
30
2.8
11
-0.0
21
0.0
31
12.8
0
POINT
8
MERIDIANI
10
-2.5
20
-2.377641
30
0.772542
0
TEXT
8
ID-NODES
10
-2.5
20
-2.377641
30
0.772542
40
0.05
1
7
72
1
11
-2.5
21
-2.377641
31
0.772542
73
2
0
LINE
8
fz
10
-2.5
20
-2.377641
30
1.478791
11
-2.5
21
-2.377641
31
11.478791
0
POINT
8
MERIDIANI
10
-2.5
20
-2.022542
30
1.469463
0
TEXT
8
ID-NODES
10
-2.5
20
-2.022542
30
1.469463
40
0.05
1
8
72
1
11
-2.5
21
-2.022542
31
1.469463
73
2
0
LINE
8
fz
10
-2.5
20
-2.022542
30
1.936317
11
-2.5
21
-2.022542
31
11.936317
0
POINT
8
MERIDIANI
10
-2.5
20
-1.469463
30
2.022542
0
TEXT
8
ID-NODES
10
-2.5
20
-1.469463
30
2.022542
40
0.05
1
9
72
1
11
-2.5
21
-1.469463
31
2.022542
73
2
0
LINE
8
fz
10
-2.5
20
-1.469463
30
2.383417
11
-2.5
21
-1.469463
31
12.383417
0
POINT
8
MERIDIANI
10
-2.5
20
-0.772542
30
2.377641
0
TEXT
8
ID-NODES
10
-2.5
20
-0.772542
30
2.377641
40
0.05
1
10
72
1
11
-2.5
21
-0.772542
31
2.377641
73
2
0
LINE
8
fz
10
-2.5
20
-0.772542
30
2.691315
11
-2.5
21
-0.772542
31
12.691315
0
POINT
8
MERIDIANI
10
-2.5
20
0.0
30
2.5
0
TEXT
8
ID-NODES
10
-2.5
20
0.0
30
2.5
40
0.05
1
11
72
1
11
-2.5
21
0.0
31
2.5
73
2
0
LINE
8
fz
10
-2.5
20
0.0
30
2.8
11
-2.5
21
0.0
31
12.8
0
POINT
8
MERIDIANI
10
-2.022542
20
-1.469463
30
2.022542
0
TEXT
8
ID-NODES
10
-2.022542
20
-1.469463
30
2.022542
40
0.05
1
12
72
1
11
-2.022542
21
-1.469463
31
2.022542
73
2
0
LINE
8
fz
10
-2.022542
20
-1.469463
30
2.383417
11
-2.022542
21
-1.469463
31
12.383417
0
POINT
8
MERIDIANI
10
-2.022542
20
-0.772542
30
2.377641
0
TEXT
8
ID-NODES
10
-2.022542
20
-0.772542
30
2.377641
40
0.05
1
13
72
1
11
-2.022542
21
-0.772542
31
2.377641
73
2
0
LINE
8
fz
10
-2.022542
20
-0.772542
30
2.691315
11
-2.022542
21
-0.772542
31
12.691315
0
POINT
8
MERIDIANI
10
-2.022542
20
0.0
30
2.5
0
TEXT
8
ID-NODES
10
-2.022542
20
0.0
30
2.5
40
0.05
1
14
72
1
11
-2.022542
21
0.0
31
2.5
73
2
0
LINE
8
fz
10
-2.022542
20
0.0
30
2.8
11
-2.022542
21
0.0
31
12.8
0
POINT
8
MERIDIANI
10
-1.469463
20
-0.772542
30
2.377641
0
TEXT
8
ID-NODES
10
-1.469463
20
-0.772542
30
2.377641
40
0.05
1
15
72
1
11
-1.469463
21
-0.772542
31
2.377641
73
2
0
LINE
8
fz
10
-1.469463
20
-0.772542
30
2.691315
11
-1.469463
21
-0.772542
31
12.691315
0
POINT
8
MERIDIANI
10
-1.469463
20
0.0
30
2.5
0
TEXT
8
ID-NODES
10
-1.469463
20
0.0
30
2.5
40
0.05
1
16
72
1
11
-1.469463
21
0.0
31
2.5
73
2
0
LINE
8
fz
10
-1.469463
20
0.0
30
2.8
11
-1.469463
21
0.0
31
12.8
0
POINT
8
MERIDIANI
10
-0.772542
20
0.0
30
2.5
0
TEXT
8
ID-NODES
10
-0.772542
20
0.0
30
2.5
40
0.05
1
17
72
1
11
-0.772542
21
0.0
31
2.5
73
2
0
LINE
8
fz
10
-0.772542
20
0.0
30
2.8
11
-0.772542
21
0.0
31
12.8
0
POINT
8
MERIDIANI
10
-2.377641
20
-2.5
30
0.772542
0
TEXT
8
ID-NODES
10
-2.377641
20
-2.5
30
0.772542
40
0.05
1
18
72
1
11
-2.377641
21
-2.5
31
0.772542
73
2
0
LINE
8
fz
10
-2.377641
20
-2.5
30
1.478791
11
-2.377641
21
-2.5
31
11.478791
0
POINT
8
MERIDIANI
10
-2.022542
20
-2.5
30
1.469463
0
TEXT
8
ID-NODES
10
-2.022542
20
-2.5
30
1.469463
40
0.05
1
19
72
1
11
-2.022542
21
-2.5
31
1.469463
73
2
0
LINE
8
fz
10
-2.022542
20
-2.5
30
1.936317
11
-2.022542
21
-2.5
31
11.936317
0
POINT
8
MERIDIANI
10
-1.469463
20
-2.5
30
2.022542
0
TEXT
8
ID-NODES
10
-1.469463
20
-2.5
30
2.022542
40
0.05
1
20
72
1
11
-1.469463
21
-2.5
31
2.022542
73
2
0
LINE
8
fz
10
-1.469463
20
-2.5
30
2.383417
11
-1.469463
21
-2.5
31
12.383417
0
POINT
8
MERIDIANI
10
-0.772542
20
-2.5
30
2.377641
0
TEXT
8
ID-NODES
10
-0.772542
20
-2.5
30
2.377641
40
0.05
1
21
72
1
11
-0.772542
21
-2.5
31
2.377641
73
2
0
LINE
8
fz
10
-0.772542
20
-2.5
30
2.691315
11
-0.772542
21
-2.5
31
12.691315
0
POINT
8
MERIDIANI
10
-0.0
20
-2.5
30
2.5
0
TEXT
8
ID-NODES
10
-0.0
20
-2.5
30
2.5
40
0.05
1
22
72
1
11
-0.0
21
-2.5
31
2.5
73
2
0
LINE
8
fz
10
-0.0
20
-2.5
30
2.8
11
-0.0
21
-2.5
31
12.8
0
POINT
8
MERIDIANI
10
-1.469463
20
-2.022542
30
2.022542
0
TEXT
8
ID-NODES
10
-1.469463
20
-2.022542
30
2.022542
40
0.05
1
23
72
1
11
-1.469463
21
-2.022542
31
2.022542
73
2
0
LINE
8
fz
10
-1.469463
20
-2.022542
30
2.383417
11
-1.469463
21
-2.022542
31
12.383417
0
POINT
8
MERIDIANI
10
-0.772542
20
-2.022542
30
2.377641
0
TEXT
8
ID-NODES
10
-0.772542
20
-2.022542
30
2.377641
40
0.05
1
24
72
1
11
-0.772542
21
-2.022542
31
2.377641
73
2
0
LINE
8
fz
10
-0.772542
20
-2.022542
30
2.691315
11
-0.772542
21
-2.022542
31
12.691315
0
POINT
8
MERIDIANI
10
-0.0
20
-2.022542
30
2.5
0
TEXT
8
ID-NODES
10
-0.0
20
-2.022542
30
2.5
40
0.05
1
25
72
1
11
-0.0
21
-2.022542
31
2.5
73
2
0
LINE
8
fz
10
-0.0
20
-2.022542
30
2.8
11
-0.0
21
-2.022542
31
12.8
0
POINT
8
MERIDIANI
10
-0.772542
20
-1.469463
30
2.377641
0
TEXT
8
ID-NODES
10
-0.772542
20
-1.469463
30
2.377641
40
0.05
1
26
72
1
11
-0.772542
21
-1.469463
31
2.377641
73
2
0
LINE
8
fz
10
-0.772542
20
-1.469463
30
2.691315
11
-0.772542
21
-1.469463
31
12.691315
0
POINT
8
MERIDIANI
10
-0.0
20
-1.469463
30
2.5
0
TEXT
8
ID-NODES
10
-0.0
20
-1.469463
30
2.5
40
0.05
1
27
72
1
11
-0.0
21
-1.469463
31
2.5
73
2
0
LINE
8
fz
10
-0.0
20
-1.469463
30
2.8
11
-0.0
21
-1.469463
31
12.8
0
POINT
8
MERIDIANI
10
-0.0
20
-0.772542
30
2.5
0
TEXT
8
ID-NODES
10
-0.0
20
-0.772542
30
2.5
40
0.05
1
28
72
1
11
-0.0
21
-0.772542
31
2.5
73
2
0
LINE
8
fz
10
-0.0
20
-0.772542
30
2.8
11
-0.0
21
-0.772542
31
12.8
0
POINT
8
PARALLELI
10
-0.0
20
-2.977458
30
2.0
0
TEXT
8
ID-NODES
10
-0.0
20
-2.977458
30
2.0
40
0.05
1
29
72
1
11
-0.0
21
-2.977458
31
2.0
73
2
0
LINE
8
fz
10
-0.0
20
-2.977458
30
2.8
11
-0.0
21
-2.977458
31
12.8
0
POINT
8
PARALLELI
10
-0.772542
20
-2.977458
30
1.877641
0
TEXT
8
ID-NODES
10
-0.772542
20
-2.977458
30
1.877641
40
0.05
1
30
72
1
11
-0.772542
21
-2.977458
31
1.877641
73
2
0
LINE
8
fz
10
-0.772542
20
-2.977458
30
2.691315
11
-0.772542
21
-2.977458
31
12.691315
0
POINT
8
PARALLELI
10
-1.469463
20
-2.977458
30
1.522542
0
TEXT
8
ID-NODES
10
-1.469463
20
-2.977458
30
1.522542
40
0.05
1
31
72
1
11
-1.469463
21
-2.977458
31
1.522542
73
2
0
LINE
8
fz
10
-1.469463
20
-2.977458
30
2.383417
11
-1.469463
21
-2.977458
31
12.383417
0
POINT
8
PARALLELI
10
-2.022542
20
-2.977458
30
0.969463
0
TEXT
8
ID-NODES
10
-2.022542
20
-2.977458
30
0.969463
40
0.05
1
32
72
1
11
-2.022542
21
-2.977458
31
0.969463
73
2
0
LINE
8
fz
10
-2.022542
20
-2.977458
30
1.936317
11
-2.022542
21
-2.977458
31
11.936317
0
POINT
8
PARALLELI
10
-2.377641
20
-2.977458
30
0.272542
0
TEXT
8
ID-NODES
10
-2.377641
20
-2.977458
30
0.272542
40
0.05
1
33
72
1
11
-2.377641
21
-2.977458
31
0.272542
73
2
0
LINE
8
fz
10
-2.377641
20
-2.977458
30
1.0
11
-2.377641
21
-2.977458
31
11.0
0
POINT
8
PARALLELI
10
-2.977458
20
-0.0
30
2.0
0
TEXT
8
ID-NODES
10
-2.977458
20
-0.0
30
2.0
40
0.05
1
34
72
1
11
-2.977458
21
-0.0
31
2.0
73
2
0
LINE
8
fz
10
-2.977458
20
-0.0
30
2.8
11
-2.977458
21
-0.0
31
12.8
0
POINT
8
PARALLELI
10
-2.977458
20
-0.772542
30
1.877641
0
TEXT
8
ID-NODES
10
-2.977458
20
-0.772542
30
1.877641
40
0.05
1
35
72
1
11
-2.977458
21
-0.772542
31
1.877641
73
2
0
LINE
8
fz
10
-2.977458
20
-0.772542
30
2.691315
11
-2.977458
21
-0.772542
31
12.691315
0
POINT
8
PARALLELI
10
-2.977458
20
-1.469463
30
1.522542
0
TEXT
8
ID-NODES
10
-2.977458
20
-1.469463
30
1.522542
40
0.05
1
36
72
1
11
-2.977458
21
-1.469463
31
1.522542
73
2
0
LINE
8
fz
10
-2.977458
20
-1.469463
30
2.383417
11
-2.977458
21
-1.469463
31
12.383417
0
POINT
8
PARALLELI
10
-2.977458
20
-2.022542
30
0.969463
0
TEXT
8
ID-NODES
10
-2.977458
20
-2.022542
30
0.969463
40
0.05
1
37
72
1
11
-2.977458
21
-2.022542
31
0.969463
73
2
0
LINE
8
fz
10
-2.977458
20
-2.022542
30
1.936317
11
-2.977458
21
-2.022542
31
11.936317
0
POINT
8
PARALLELI
10
-2.977458
20
-2.377641
30
0.272542
0
TEXT
8
ID-NODES
10
-2.977458
20
-2.377641
30
0.272542
40
0.05
1
38
72
1
11
-2.977458
21
-2.377641
31
0.272542
73
2
0
LINE
8
fz
10
-2.977458
20
-2.377641
30
1.0
11
-2.977458
21
-2.377641
31
11.0
0
POINT
8
DIAGONALI
10
-2.5
20
2.5
30
0.0
0
TEXT
8
ID-NODES
10
-2.5
20
2.5
30
0.0
40
0.05
1
39
72
1
11
-2.5
21
2.5
31
0.0
73
2
0
LINE
8
fz
10
-2.5
20
2.5
30
1.260952
11
-2.5
21
2.5
31
11.260952
0
POINT
8
DIAGONALI
10
-2.377641
20
2.377641
30
0.772542
0
TEXT
8
ID-NODES
10
-2.377641
20
2.377641
30
0.772542
40
0.05
1
40
72
1
11
-2.377641
21
2.377641
31
0.772542
73
2
0
LINE
8
fz
10
-2.377641
20
2.377641
30
1.478791
11
-2.377641
21
2.377641
31
11.478791
0
POINT
8
DIAGONALI
10
-2.022542
20
2.022542
30
1.469463
0
TEXT
8
ID-NODES
10
-2.022542
20
2.022542
30
1.469463
40
0.05
1
41
72
1
11
-2.022542
21
2.022542
31
1.469463
73
2
0
LINE
8
fz
10
-2.022542
20
2.022542
30
1.936317
11
-2.022542
21
2.022542
31
11.936317
0
POINT
8
DIAGONALI
10
-1.469463
20
1.469463
30
2.022542
0
TEXT
8
ID-NODES
10
-1.469463
20
1.469463
30
2.022542
40
0.05
1
42
72
1
11
-1.469463
21
1.469463
31
2.022542
73
2
0
LINE
8
fz
10
-1.469463
20
1.469463
30
2.383417
11
-1.469463
21
1.469463
31
12.383417
0
POINT
8
DIAGONALI
10
-0.772542
20
0.772542
30
2.377641
0
TEXT
8
ID-NODES
10
-0.772542
20
0.772542
30
2.377641
40
0.05
1
43
72
1
11
-0.772542
21
0.772542
31
2.377641
73
2
0
LINE
8
fz
10
-0.772542
20
0.772542
30
2.691315
11
-0.772542
21
0.772542
31
12.691315
0
POINT
8
MERIDIANI
10
-2.5
20
2.377641
30
0.772542
0
TEXT
8
ID-NODES
10
-2.5
20
2.377641
30
0.772542
40
0.05
1
44
72
1
11
-2.5
21
2.377641
31
0.772542
73
2
0
LINE
8
fz
10
-2.5
20
2.377641
30
1.478791
11
-2.5
21
2.377641
31
11.478791
0
POINT
8
MERIDIANI
10
-2.5
20
2.022542
30
1.469463
0
TEXT
8
ID-NODES
10
-2.5
20
2.022542
30
1.469463
40
0.05
1
45
72
1
11
-2.5
21
2.022542
31
1.469463
73
2
0
LINE
8
fz
10
-2.5
20
2.022542
30
1.936317
11
-2.5
21
2.022542
31
11.936317
0
POINT
8
MERIDIANI
10
-2.5
20
1.469463
30
2.022542
0
TEXT
8
ID-NODES
10
-2.5
20
1.469463
30
2.022542
40
0.05
1
46
72
1
11
-2.5
21
1.469463
31
2.022542
73
2
0
LINE
8
fz
10
-2.5
20
1.469463
30
2.383417
11
-2.5
21
1.469463
31
12.383417
0
POINT
8
MERIDIANI
10
-2.5
20
0.772542
30
2.377641
0
TEXT
8
ID-NODES
10
-2.5
20
0.772542
30
2.377641
40
0.05
1
47
72
1
11
-2.5
21
0.772542
31
2.377641
73
2
0
LINE
8
fz
10
-2.5
20
0.772542
30
2.691315
11
-2.5
21
0.772542
31
12.691315
0
POINT
8
MERIDIANI
10
-2.022542
20
1.469463
30
2.022542
0
TEXT
8
ID-NODES
10
-2.022542
20
1.469463
30
2.022542
40
0.05
1
48
72
1
11
-2.022542
21
1.469463
31
2.022542
73
2
0
LINE
8
fz
10
-2.022542
20
1.469463
30
2.383417
11
-2.022542
21
1.469463
31
12.383417
0
POINT
8
MERIDIANI
10
-2.022542
20
0.772542
30
2.377641
0
TEXT
8
ID-NODES
10
-2.022542
20
0.772542
30
2.377641
40
0.05
1
49
72
1
11
-2.022542
21
0.772542
31
2.377641
73
2
0
LINE
8
fz
10
-2.022542
20
0.772542
30
2.691315
11
-2.022542
21
0.772542
31
12.691315
0
POINT
8
MERIDIANI
10
-1.469463
20
0.772542
30
2.377641
0
TEXT
8
ID-NODES
10
-1.469463
20
0.772542
30
2.377641
40
0.05
1
50
72
1
11
-1.469463
21
0.772542
31
2.377641
73
2
0
LINE
8
fz
10
-1.469463
20
0.772542
30
2.691315
11
-1.469463
21
0.772542
31
12.691315
0
POINT
8
MERIDIANI
10
-2.377641
20
2.5
30
0.772542
0
TEXT
8
ID-NODES
10
-2.377641
20
2.5
30
0.772542
40
0.05
1
51
72
1
11
-2.377641
21
2.5
31
0.772542
73
2
0
LINE
8
fz
10
-2.377641
20
2.5
30
1.478791
11
-2.377641
21
2.5
31
11.478791
0
POINT
8
MERIDIANI
10
-2.022542
20
2.5
30
1.469463
0
TEXT
8
ID-NODES
10
-2.022542
20
2.5
30
1.469463
40
0.05
1
52
72
1
11
-2.022542
21
2.5
31
1.469463
73
2
0
LINE
8
fz
10
-2.022542
20
2.5
30
1.936317
11
-2.022542
21
2.5
31
11.936317
0
POINT
8
MERIDIANI
10
-1.469463
20
2.5
30
2.022542
0
TEXT
8
ID-NODES
10
-1.469463
20
2.5
30
2.022542
40
0.05
1
53
72
1
11
-1.469463
21
2.5
31
2.022542
73
2
0
LINE
8
fz
10
-1.469463
20
2.5
30
2.383417
11
-1.469463
21
2.5
31
12.383417
0
POINT
8
MERIDIANI
10
-0.772542
20
2.5
30
2.377641
0
TEXT
8
ID-NODES
10
-0.772542
20
2.5
30
2.377641
40
0.05
1
54
72
1
11
-0.772542
21
2.5
31
2.377641
73
2
0
LINE
8
fz
10
-0.772542
20
2.5
30
2.691315
11
-0.772542
21
2.5
31
12.691315
0
POINT
8
MERIDIANI
10
-0.0
20
2.5
30
2.5
0
TEXT
8
ID-NODES
10
-0.0
20
2.5
30
2.5
40
0.05
1
55
72
1
11
-0.0
21
2.5
31
2.5
73
2
0
LINE
8
fz
10
-0.0
20
2.5
30
2.8
11
-0.0
21
2.5
31
12.8
0
POINT
8
MERIDIANI
10
-1.469463
20
2.022542
30
2.022542
0
TEXT
8
ID-NODES
10
-1.469463
20
2.022542
30
2.022542
40
0.05
1
56
72
1
11
-1.469463
21
2.022542
31
2.022542
73
2
0
LINE
8
fz
10
-1.469463
20
2.022542
30
2.383417
11
-1.469463
21
2.022542
31
12.383417
0
POINT
8
MERIDIANI
10
-0.772542
20
2.022542
30
2.377641
0
TEXT
8
ID-NODES
10
-0.772542
20
2.022542
30
2.377641
40
0.05
1
57
72
1
11
-0.772542
21
2.022542
31
2.377641
73
2
0
LINE
8
fz
10
-0.772542
20
2.022542
30
2.691315
11
-0.772542
21
2.022542
31
12.691315
0
POINT
8
MERIDIANI
10
-0.0
20
2.022542
30
2.5
0
TEXT
8
ID-NODES
10
-0.0
20
2.022542
30
2.5
40
0.05
1
58
72
1
11
-0.0
21
2.022542
31
2.5
73
2
0
LINE
8
fz
10
-0.0
20
2.022542
30
2.8
11
-0.0
21
2.022542
31
12.8
0
POINT
8
MERIDIANI
10
-0.772542
20
1.469463
30
2.377641
0
TEXT
8
ID-NODES
10
-0.772542
20
1.469463
30
2.377641
40
0.05
1
59
72
1
11
-0.772542
21
1.469463
31
2.377641
73
2
0
LINE
8
fz
10
-0.772542
20
1.469463
30
2.691315
11
-0.772542
21
1.469463
31
12.691315
0
POINT
8
MERIDIANI
10
-0.0
20
1.469463
30
2.5
0
TEXT
8
ID-NODES
10
-0.0
20
1.469463
30
2.5
40
0.05
1
60
72
1
11
-0.0
21
1.469463
31
2.5
73
2
0
LINE
8
fz
10
-0.0
20
1.469463
30
2.8
11
-0.0
21
1.469463
31
12.8
0
POINT
8
MERIDIANI
10
-0.0
20
0.772542
30
2.5
0
TEXT
8
ID-NODES
10
-0.0
20
0.772542
30
2.5
40
0.05
1
61
72
1
11
-0.0
21
0.772542
31
2.5
73
2
0
LINE
8
fz
10
-0.0
20
0.772542
30
2.8
11
-0.0
21
0.772542
31
12.8
0
POINT
8
PARALLELI
10
-0.0
20
2.977458
30
2.0
0
TEXT
8
ID-NODES
10
-0.0
20
2.977458
30
2.0
40
0.05
1
62
72
1
11
-0.0
21
2.977458
31
2.0
73
2
0
LINE
8
fz
10
-0.0
20
2.977458
30
2.8
11
-0.0
21
2.977458
31
12.8
0
POINT
8
PARALLELI
10
-0.772542
20
2.977458
30
1.877641
0
TEXT
8
ID-NODES
10
-0.772542
20
2.977458
30
1.877641
40
0.05
1
63
72
1
11
-0.772542
21
2.977458
31
1.877641
73
2
0
LINE
8
fz
10
-0.772542
20
2.977458
30
2.691315
11
-0.772542
21
2.977458
31
12.691315
0
POINT
8
PARALLELI
10
-1.469463
20
2.977458
30
1.522542
0
TEXT
8
ID-NODES
10
-1.469463
20
2.977458
30
1.522542
40
0.05
1
64
72
1
11
-1.469463
21
2.977458
31
1.522542
73
2
0
LINE
8
fz
10
-1.469463
20
2.977458
30
2.383417
11
-1.469463
21
2.977458
31
12.383417
0
POINT
8
PARALLELI
10
-2.022542
20
2.977458
30
0.969463
0
TEXT
8
ID-NODES
10
-2.022542
20
2.977458
30
0.969463
40
0.05
1
65
72
1
11
-2.022542
21
2.977458
31
0.969463
73
2
0
LINE
8
fz
10
-2.022542
20
2.977458
30
1.936317
11
-2.022542
21
2.977458
31
11.936317
0
POINT
8
PARALLELI
10
-2.377641
20
2.977458
30
0.272542
0
TEXT
8
ID-NODES
10
-2.377641
20
2.977458
30
0.272542
40
0.05
1
66
72
1
11
-2.377641
21
2.977458
31
0.272542
73
2
0
LINE
8
fz
10
-2.377641
20
2.977458
30
1.0
11
-2.377641
21
2.977458
31
11.0
0
POINT
8
PARALLELI
10
-2.977458
20
0.772542
30
1.877641
0
TEXT
8
ID-NODES
10
-2.977458
20
0.772542
30
1.877641
40
0.05
1
67
72
1
11
-2.977458
21
0.772542
31
1.877641
73
2
0
LINE
8
fz
10
-2.977458
20
0.772542
30
2.691315
11
-2.977458
21
0.772542
31
12.691315
0
POINT
8
PARALLELI
10
-2.977458
20
1.469463
30
1.522542
0
TEXT
8
ID-NODES
10
-2.977458
20
1.469463
30
1.522542
40
0.05
1
68
72
1
11
-2.977458
21
1.469463
31
1.522542
73
2
0
LINE
8
fz
10
-2.977458
20
1.469463
30
2.383417
11
-2.977458
21
1.469463
31
12.383417
0
POINT
8
PARALLELI
10
-2.977458
20
2.022542
30
0.969463
0
TEXT
8
ID-NODES
10
-2.977458
20
2.022542
30
0.969463
40
0.05
1
69
72
1
11
-2.977458
21
2.022542
31
0.969463
73
2
0
LINE
8
fz
10
-2.977458
20
2.022542
30
1.936317
11
-2.977458
21
2.022542
31
11.936317
0
POINT
8
PARALLELI
10
-2.977458
20
2.377641
30
0.272542
0
TEXT
8
ID-NODES
10
-2.977458
20
2.377641
30
0.272542
40
0.05
1
70
72
1
11
-2.977458
21
2.377641
31
0.272542
73
2
0
LINE
8
fz
10
-2.977458
20
2.377641
30
1.0
11
-2.977458
21
2.377641
31
11.0
0
POINT
8
DIAGONALI
10
2.5
20
-2.5
30
0.0
0
TEXT
8
ID-NODES
10
2.5
20
-2.5
30
0.0
40
0.05
1
71
72
1
11
2.5
21
-2.5
31
0.0
73
2
0
LINE
8
fz
10
2.5
20
-2.5
30
1.260952
11
2.5
21
-2.5
31
11.260952
0
POINT
8
DIAGONALI
10
2.377641
20
-2.377641
30
0.772542
0
TEXT
8
ID-NODES
10
2.377641
20
-2.377641
30
0.772542
40
0.05
1
72
72
1
11
2.377641
21
-2.377641
31
0.772542
73
2
0
LINE
8
fz
10
2.377641
20
-2.377641
30
1.478791
11
2.377641
21
-2.377641
31
11.478791
0
POINT
8
DIAGONALI
10
2.022542
20
-2.022542
30
1.469463
0
TEXT
8
ID-NODES
10
2.022542
20
-2.022542
30
1.469463
40
0.05
1
73
72
1
11
2.022542
21
-2.022542
31
1.469463
73
2
0
LINE
8
fz
10
2.022542
20
-2.022542
30
1.936317
11
2.022542
21
-2.022542
31
11.936317
0
POINT
8
DIAGONALI
10
1.469463
20
-1.469463
30
2.022542
0
TEXT
8
ID-NODES
10
1.469463
20
-1.469463
30
2.022542
40
0.05
1
74
72
1
11
1.469463
21
-1.469463
31
2.022542
73
2
0
LINE
8
fz
10
1.469463
20
-1.469463
30
2.383417
11
1.469463
21
-1.469463
31
12.383417
0
POINT
8
DIAGONALI
10
0.772542
20
-0.772542
30
2.377641
0
TEXT
8
ID-NODES
10
0.772542
20
-0.772542
30
2.377641
40
0.05
1
75
72
1
11
0.772542
21
-0.772542
31
2.377641
73
2
0
LINE
8
fz
10
0.772542
20
-0.772542
30
2.691315
11
0.772542
21
-0.772542
31
12.691315
0
POINT
8
MERIDIANI
10
2.5
20
-2.377641
30
0.772542
0
TEXT
8
ID-NODES
10
2.5
20
-2.377641
30
0.772542
40
0.05
1
76
72
1
11
2.5
21
-2.377641
31
0.772542
73
2
0
LINE
8
fz
10
2.5
20
-2.377641
30
1.478791
11
2.5
21
-2.377641
31
11.478791
0
POINT
8
MERIDIANI
10
2.5
20
-2.022542
30
1.469463
0
TEXT
8
ID-NODES
10
2.5
20
-2.022542
30
1.469463
40
0.05
1
77
72
1
11
2.5
21
-2.022542
31
1.469463
73
2
0
LINE
8
fz
10
2.5
20
-2.022542
30
1.936317
11
2.5
21
-2.022542
31
11.936317
0
POINT
8
MERIDIANI
10
2.5
20
-1.469463
30
2.022542
0
TEXT
8
ID-NODES
10
2.5
20
-1.469463
30
2.022542
40
0.05
1
78
72
1
11
2.5
21
-1.469463
31
2.022542
73
2
0
LINE
8
fz
10
2.5
20
-1.469463
30
2.383417
11
2.5
21
-1.469463
31
12.383417
0
POINT
8
MERIDIANI
10
2.5
20
-0.772542
30
2.377641
0
TEXT
8
ID-NODES
10
2.5
20
-0.772542
30
2.377641
40
0.05
1
79
72
1
11
2.5
21
-0.772542
31
2.377641
73
2
0
LINE
8
fz
10
2.5
20
-0.772542
30
2.691315
11
2.5
21
-0.772542
31
12.691315
0
POINT
8
MERIDIANI
10
2.5
20
0.0
30
2.5
0
TEXT
8
ID-NODES
10
2.5
20
0.0
30
2.5
40
0.05
1
80
72
1
11
2.5
21
0.0
31
2.5
73
2
0
LINE
8
fz
10
2.5
20
0.0
30
2.8
11
2.5
21
0.0
31
12.8
0
POINT
8
MERIDIANI
10
2.022542
20
-1.469463
30
2.022542
0
TEXT
8
ID-NODES
10
2.022542
20
-1.469463
30
2.022542
40
0.05
1
81
72
1
11
2.022542
21
-1.469463
31
2.022542
73
2
0
LINE
8
fz
10
2.022542
20
-1.469463
30
2.383417
11
2.022542
21
-1.469463
31
12.383417
0
POINT
8
MERIDIANI
10
2.022542
20
-0.772542
30
2.377641
0
TEXT
8
ID-NODES
10
2.022542
20
-0.772542
30
2.377641
40
0.05
1
82
72
1
11
2.022542
21
-0.772542
31
2.377641
73
2
0
LINE
8
fz
10
2.022542
20
-0.772542
30
2.691315
11
2.022542
21
-0.772542
31
12.691315
0
POINT
8
MERIDIANI
10
2.022542
20
0.0
30
2.5
0
TEXT
8
ID-NODES
10
2.022542
20
0.0
30
2.5
40
0.05
1
83
72
1
11
2.022542
21
0.0
31
2.5
73
2
0
LINE
8
fz
10
2.022542
20
0.0
30
2.8
11
2.022542
21
0.0
31
12.8
0
POINT
8
MERIDIANI
10
1.469463
20
-0.772542
30
2.377641
0
TEXT
8
ID-NODES
10
1.469463
20
-0.772542
30
2.377641
40
0.05
1
84
72
1
11
1.469463
21
-0.772542
31
2.377641
73
2
0
LINE
8
fz
10
1.469463
20
-0.772542
30
2.691315
11
1.469463
21
-0.772542
31
12.691315
0
POINT
8
MERIDIANI
10
1.469463
20
0.0
30
2.5
0
TEXT
8
ID-NODES
10
1.469463
20
0.0
30
2.5
40
0.05
1
85
72
1
11
1.469463
21
0.0
31
2.5
73
2
0
LINE
8
fz
10
1.469463
20
0.0
30
2.8
11
1.469463
21
0.0
31
12.8
0
POINT
8
MERIDIANI
10
0.772542
20
0.0
30
2.5
0
TEXT
8
ID-NODES
10
0.772542
20
0.0
30
2.5
40
0.05
1
86
72
1
11
0.772542
21
0.0
31
2.5
73
2
0
LINE
8
fz
10
0.772542
20
0.0
30
2.8
11
0.772542
21
0.0
31
12.8
0
POINT
8
MERIDIANI
10
2.377641
20
-2.5
30
0.772542
0
TEXT
8
ID-NODES
10
2.377641
20
-2.5
30
0.772542
40
0.05
1
87
72
1
11
2.377641
21
-2.5
31
0.772542
73
2
0
LINE
8
fz
10
2.377641
20
-2.5
30
1.478791
11
2.377641
21
-2.5
31
11.478791
0
POINT
8
MERIDIANI
10
2.022542
20
-2.5
30
1.469463
0
TEXT
8
ID-NODES
10
2.022542
20
-2.5
30
1.469463
40
0.05
1
88
72
1
11
2.022542
21
-2.5
31
1.469463
73
2
0
LINE
8
fz
10
2.022542
20
-2.5
30
1.936317
11
2.022542
21
-2.5
31
11.936317
0
POINT
8
MERIDIANI
10
1.469463
20
-2.5
30
2.022542
0
TEXT
8
ID-NODES
10
1.469463
20
-2.5
30
2.022542
40
0.05
1
89
72
1
11
1.469463
21
-2.5
31
2.022542
73
2
0
LINE
8
fz
10
1.469463
20
-2.5
30
2.383417
11
1.469463
21
-2.5
31
12.383417
0
POINT
8
MERIDIANI
10
0.772542
20
-2.5
30
2.377641
0
TEXT
8
ID-NODES
10
0.772542
20
-2.5
30
2.377641
40
0.05
1
90
72
1
11
0.772542
21
-2.5
31
2.377641
73
2
0
LINE
8
fz
10
0.772542
20
-2.5
30
2.691315
11
0.772542
21
-2.5
31
12.691315
0
POINT
8
MERIDIANI
10
1.469463
20
-2.022542
30
2.022542
0
TEXT
8
ID-NODES
10
1.469463
20
-2.022542
30
2.022542
40
0.05
1
91
72
1
11
1.469463
21
-2.022542
31
2.022542
73
2
0
LINE
8
fz
10
1.469463
20
-2.022542
30
2.383417
11
1.469463
21
-2.022542
31
12.383417
0
POINT
8
MERIDIANI
10
0.772542
20
-2.022542
30
2.377641
0
TEXT
8
ID-NODES
10
0.772542
20
-2.022542
30
2.377641
40
0.05
1
92
72
1
11
0.772542
21
-2.022542
31
2.377641
73
2
0
LINE
8
fz
10
0.772542
20
-2.022542
30
2.691315
11
0.772542
21
-2.022542
31
12.691315
0
POINT
8
MERIDIANI
10
0.772542
20
-1.469463
30
2.377641
0
TEXT
8
ID-NODES
10
0.772542
20
-1.469463
30
2.377641
40
0.05
1
93
72
1
11
0.772542
21
-1.469463
31
2.377641
73
2
0
LINE
8
fz
10
0.772542
20
-1.469463
30
2.691315
11
0.772542
21
-1.469463
31
12.691315
0
POINT
8
PARALLELI
10
0.772542
20
-2.977458
30
1.877641
0
TEXT
8
ID-NODES
10
0.772542
20
-2.977458
30
1.877641
40
0.05
1
94
72
1
11
0.772542
21
-2.977458
31
1.877641
73
2
0
LINE
8
fz
10
0.772542
20
-2.977458
30
2.691315
11
0.772542
21
-2.977458
31
12.691315
0
POINT
8
PARALLELI
10
1.469463
20
-2.977458
30
1.522542
0
TEXT
8
ID-NODES
10
1.469463
20
-2.977458
30
1.522542
40
0.05
1
95
72
1
11
1.469463
21
-2.977458
31
1.522542
73
2
0
LINE
8
fz
10
1.469463
20
-2.977458
30
2.383417
11
1.469463
21
-2.977458
31
12.383417
0
POINT
8
PARALLELI
10
2.022542
20
-2.977458
30
0.969463
0
TEXT
8
ID-NODES
10
2.022542
20
-2.977458
30
0.969463
40
0.05
1
96
72
1
11
2.022542
21
-2.977458
31
0.969463
73
2
0
LINE
8
fz
10
2.022542
20
-2.977458
30
1.936317
11
2.022542
21
-2.977458
31
11.936317
0
POINT
8
PARALLELI
10
2.377641
20
-2.977458
30
0.272542
0
TEXT
8
ID-NODES
10
2.377641
20
-2.977458
30
0.272542
40
0.05
1
97
72
1
11
2.377641
21
-2.977458
31
0.272542
73
2
0
LINE
8
fz
10
2.377641
20
-2.977458
30
1.0
11
2.377641
21
-2.977458
31
11.0
0
POINT
8
PARALLELI
10
2.977458
20
0.0
30
2.0
0
TEXT
8
ID-NODES
10
2.977458
20
0.0
30
2.0
40
0.05
1
98
72
1
11
2.977458
21
0.0
31
2.0
73
2
0
LINE
8
fz
10
2.977458
20
0.0
30
2.8
11
2.977458
21
0.0
31
12.8
0
POINT
8
PARALLELI
10
2.977458
20
-0.772542
30
1.877641
0
TEXT
8
ID-NODES
10
2.977458
20
-0.772542
30
1.877641
40
0.05
1
99
72
1
11
2.977458
21
-0.772542
31
1.877641
73
2
0
LINE
8
fz
10
2.977458
20
-0.772542
30
2.691315
11
2.977458
21
-0.772542
31
12.691315
0
POINT
8
PARALLELI
10
2.977458
20
-1.469463
30
1.522542
0
TEXT
8
ID-NODES
10
2.977458
20
-1.469463
30
1.522542
40
0.05
1
100
72
1
11
2.977458
21
-1.469463
31
1.522542
73
2
0
LINE
8
fz
10
2.977458
20
-1.469463
30
2.383417
11
2.977458
21
-1.469463
31
12.383417
0
POINT
8
PARALLELI
10
2.977458
20
-2.022542
30
0.969463
0
TEXT
8
ID-NODES
10
2.977458
20
-2.022542
30
0.969463
40
0.05
1
101
72
1
11
2.977458
21
-2.022542
31
0.969463
73
2
0
LINE
8
fz
10
2.977458
20
-2.022542
30
1.936317
11
2.977458
21
-2.022542
31
11.936317
0
POINT
8
PARALLELI
10
2.977458
20
-2.377641
30
0.272542
0
TEXT
8
ID-NODES
10
2.977458
20
-2.377641
30
0.272542
40
0.05
1
102
72
1
11
2.977458
21
-2.377641
31
0.272542
73
2
0
LINE
8
fz
10
2.977458
20
-2.377641
30
1.0
11
2.977458
21
-2.377641
31
11.0
0
POINT
8
DIAGONALI
10
2.5
20
2.5
30
0.0
0
TEXT
8
ID-NODES
10
2.5
20
2.5
30
0.0
40
0.05
1
103
72
1
11
2.5
21
2.5
31
0.0
73
2
0
LINE
8
fz
10
2.5
20
2.5
30
1.260952
11
2.5
21
2.5
31
11.260952
0
POINT
8
DIAGONALI
10
2.377641
20
2.377641
30
0.772542
0
TEXT
8
ID-NODES
10
2.377641
20
2.377641
30
0.772542
40
0.05
1
104
72
1
11
2.377641
21
2.377641
31
0.772542
73
2
0
LINE
8
fz
10
2.377641
20
2.377641
30
1.478791
11
2.377641
21
2.377641
31
11.478791
0
POINT
8
DIAGONALI
10
2.022542
20
2.022542
30
1.469463
0
TEXT
8
ID-NODES
10
2.022542
20
2.022542
30
1.469463
40
0.05
1
105
72
1
11
2.022542
21
2.022542
31
1.469463
73
2
0
LINE
8
fz
10
2.022542
20
2.022542
30
1.936317
11
2.022542
21
2.022542
31
11.936317
0
POINT
8
DIAGONALI
10
1.469463
20
1.469463
30
2.022542
0
TEXT
8
ID-NODES
10
1.469463
20
1.469463
30
2.022542
40
0.05
1
106
72
1
11
1.469463
21
1.469463
31
2.022542
73
2
0
LINE
8
fz
10
1.469463
20
1.469463
30
2.383417
11
1.469463
21
1.469463
31
12.383417
0
POINT
8
DIAGONALI
10
0.772542
20
0.772542
30
2.377641
0
TEXT
8
ID-NODES
10
0.772542
20
0.772542
30
2.377641
40
0.05
1
107
72
1
11
0.772542
21
0.772542
31
2.377641
73
2
0
LINE
8
fz
10
0.772542
20
0.772542
30
2.691315
11
0.772542
21
0.772542
31
12.691315
0
POINT
8
MERIDIANI
10
2.5
20
2.377641
30
0.772542
0
TEXT
8
ID-NODES
10
2.5
20
2.377641
30
0.772542
40
0.05
1
108
72
1
11
2.5
21
2.377641
31
0.772542
73
2
0
LINE
8
fz
10
2.5
20
2.377641
30
1.478791
11
2.5
21
2.377641
31
11.478791
0
POINT
8
MERIDIANI
10
2.5
20
2.022542
30
1.469463
0
TEXT
8
ID-NODES
10
2.5
20
2.022542
30
1.469463
40
0.05
1
109
72
1
11
2.5
21
2.022542
31
1.469463
73
2
0
LINE
8
fz
10
2.5
20
2.022542
30
1.936317
11
2.5
21
2.022542
31
11.936317
0
POINT
8
MERIDIANI
10
2.5
20
1.469463
30
2.022542
0
TEXT
8
ID-NODES
10
2.5
20
1.469463
30
2.022542
40
0.05
1
110
72
1
11
2.5
21
1.469463
31
2.022542
73
2
0
LINE
8
fz
10
2.5
20
1.469463
30
2.383417
11
2.5
21
1.469463
31
12.383417
0
POINT
8
MERIDIANI
10
2.5
20
0.772542
30
2.377641
0
TEXT
8
ID-NODES
10
2.5
20
0.772542
30
2.377641
40
0.05
1
111
72
1
11
2.5
21
0.772542
31
2.377641
73
2
0
LINE
8
fz
10
2.5
20
0.772542
30
2.691315
11
2.5
21
0.772542
31
12.691315
0
POINT
8
MERIDIANI
10
2.022542
20
1.469463
30
2.022542
0
TEXT
8
ID-NODES
10
2.022542
20
1.469463
30
2.022542
40
0.05
1
112
72
1
11
2.022542
21
1.469463
31
2.022542
73
2
0
LINE
8
fz
10
2.022542
20
1.469463
30
2.383417
11
2.022542
21
1.469463
31
12.383417
0
POINT
8
MERIDIANI
10
2.022542
20
0.772542
30
2.377641
0
TEXT
8
ID-NODES
10
2.022542
20
0.772542
30
2.377641
40
0.05
1
113
72
1
11
2.022542
21
0.772542
31
2.377641
73
2
0
LINE
8
fz
10
2.022542
20
0.772542
30
2.691315
11
2.022542
21
0.772542
31
12.691315
0
POINT
8
MERIDIANI
10
1.469463
20
0.772542
30
2.377641
0
TEXT
8
ID-NODES
10
1.469463
20
0.772542
30
2.377641
40
0.05
1
114
72
1
11
1.469463
21
0.772542
31
2.377641
73
2
0
LINE
8
fz
10
1.469463
20
0.772542
30
2.691315
11
1.469463
21
0.772542
31
12.691315
0
POINT
8
MERIDIANI
10
2.377641
20
2.5
30
0.772542
0
TEXT
8
ID-NODES
10
2.377641
20
2.5
30
0.772542
40
0.05
1
115
72
1
11
2.377641
21
2.5
31
0.772542
73
2
0
LINE
8
fz
10
2.377641
20
2.5
30
1.478791
11
2.377641
21
2.5
31
11.478791
0
POINT
8
MERIDIANI
10
2.022542
20
2.5
30
1.469463
0
TEXT
8
ID-NODES
10
2.022542
20
2.5
30
1.469463
40
0.05
1
116
72
1
11
2.022542
21
2.5
31
1.469463
73
2
0
LINE
8
fz
10
2.022542
20
2.5
30
1.936317
11
2.022542
21
2.5
31
11.936317
0
POINT
8
MERIDIANI
10
1.469463
20
2.5
30
2.022542
0
TEXT
8
ID-NODES
10
1.469463
20
2.5
30
2.022542
40
0.05
1
117
72
1
11
1.469463
21
2.5
31
2.022542
73
2
0
LINE
8
fz
10
1.469463
20
2.5
30
2.383417
11
1.469463
21
2.5
31
12.383417
0
POINT
8
MERIDIANI
10
0.772542
20
2.5
30
2.377641
0
TEXT
8
ID-NODES
10
0.772542
20
2.5
30
2.377641
40
0.05
1
118
72
1
11
0.772542
21
2.5
31
2.377641
73
2
0
LINE
8
fz
10
0.772542
20
2.5
30
2.691315
11
0.772542
21
2.5
31
12.691315
0
POINT
8
MERIDIANI
10
1.469463
20
2.022542
30
2.022542
0
TEXT
8
ID-NODES
10
1.469463
20
2.022542
30
2.022542
40
0.05
1
119
72
1
11
1.469463
21
2.022542
31
2.022542
73
2
0
LINE
8
fz
10
1.469463
20
2.022542
30
2.383417
11
1.469463
21
2.022542
31
12.383417
0
POINT
8
MERIDIANI
10
0.772542
20
2.022542
30
2.377641
0
TEXT
8
ID-NODES
10
0.772542
20
2.022542
30
2.377641
40
0.05
1
120
72
1
11
0.772542
21
2.022542
31
2.377641
73
2
0
LINE
8
fz
10
0.772542
20
2.022542
30
2.691315
11
0.772542
21
2.022542
31
12.691315
0
POINT
8
MERIDIANI
10
0.772542
20
1.469463
30
2.377641
0
TEXT
8
ID-NODES
10
0.772542
20
1.469463
30
2.377641
40
0.05
1
121
72
1
11
0.772542
21
1.469463
31
2.377641
73
2
0
LINE
8
fz
10
0.772542
20
1.469463
30
2.691315
11
0.772542
21
1.469463
31
12.691315
0
POINT
8
PARALLELI
10
0.772542
20
2.977458
30
1.877641
0
TEXT
8
ID-NODES
10
0.772542
20
2.977458
30
1.877641
40
0.05
1
122
72
1
11
0.772542
21
2.977458
31
1.877641
73
2
0
LINE
8
fz
10
0.772542
20
2.977458
30
2.691315
11
0.772542
21
2.977458
31
12.691315
0
POINT
8
PARALLELI
10
1.469463
20
2.977458
30
1.522542
0
TEXT
8
ID-NODES
10
1.469463
20
2.977458
30
1.522542
40
0.05
1
123
72
1
11
1.469463
21
2.977458
31
1.522542
73
2
0
LINE
8
fz
10
1.469463
20
2.977458
30
2.383417
11
1.469463
21
2.977458
31
12.383417
0
POINT
8
PARALLELI
10
2.022542
20
2.977458
30
0.969463
0
TEXT
8
ID-NODES
10
2.022542
20
2.977458
30
0.969463
40
0.05
1
124
72
1
11
2.022542
21
2.977458
31
0.969463
73
2
0
LINE
8
fz
10
2.022542
20
2.977458
30
1.936317
11
2.022542
21
2.977458
31
11.936317
0
POINT
8
PARALLELI
10
2.377641
20
2.977458
30
0.272542
0
TEXT
8
ID-NODES
10
2.377641
20
2.977458
30
0.272542
40
0.05
1
125
72
1
11
2.377641
21
2.977458
31
0.272542
73
2
0
LINE
8
fz
10
2.377641
20
2.977458
30
1.0
11
2.377641
21
2.977458
31
11.0
0
POINT
8
PARALLELI
10
2.977458
20
0.772542
30
1.877641
0
TEXT
8
ID-NODES
10
2.977458
20
0.772542
30
1.877641
40
0.05
1
126
72
1
11
2.977458
21
0.772542
31
1.877641
73
2
0
LINE
8
fz
10
2.977458
20
0.772542
30
2.691315
11
2.977458
21
0.772542
31
12.691315
0
POINT
8
PARALLELI
10
2.977458
20
1.469463
30
1.522542
0
TEXT
8
ID-NODES
10
2.977458
20
1.469463
30
1.522542
40
0.05
1
127
72
1
11
2.977458
21
1.469463
31
1.522542
73
2
0
LINE
8
fz
10
2.977458
20
1.469463
30
2.383417
11
2.977458
21
1.469463
31
12.383417
0
POINT
8
PARALLELI
10
2.977458
20
2.022542
30
0.969463
0
TEXT
8
ID-NODES
10
2.977458
20
2.022542
30
0.969463
40
0.05
1
128
72
1
11
2.977458
21
2.022542
31
0.969463
73
2
0
LINE
8
fz
10
2.977458
20
2.022542
30
1.936317
11
2.977458
21
2.022542
31
11.936317
0
POINT
8
PARALLELI
10
2.977458
20
2.377641
30
0.272542
0
TEXT
8
ID-NODES
10
2.977458
20
2.377641
30
0.272542
40
0.05
1
129
72
1
11
2.977458
21
2.377641
31
0.272542
73
2
0
LINE
8
fz
10
2.977458
20
2.377641
30
1.0
11
2.977458
21
2.377641
31
11.0
0
POINT
8
DIAGONALI
10
2.782843
20
-2.782843
30
-1.785799
0
TEXT
8
ID-NODES
10
2.782843
20
-2.782843
30
-1.785799
40
0.05
1
130
72
1
11
2.782843
21
-2.782843
31
-1.785799
73
2
0
LINE
8
fz
10
2.782843
20
-2.782843
30
1.0
11
2.782843
21
-2.782843
31
11.0
0
POINT
8
DIAGONALI
10
-2.782843
20
-2.782843
30
-1.785799
0
TEXT
8
ID-NODES
10
-2.782843
20
-2.782843
30
-1.785799
40
0.05
1
131
72
1
11
-2.782843
21
-2.782843
31
-1.785799
73
2
0
LINE
8
fz
10
-2.782843
20
-2.782843
30
1.0
11
-2.782843
21
-2.782843
31
11.0
0
POINT
8
DIAGONALI
10
2.782843
20
2.782843
30
-1.785799
0
TEXT
8
ID-NODES
10
2.782843
20
2.782843
30
-1.785799
40
0.05
1
132
72
1
11
2.782843
21
2.782843
31
-1.785799
73
2
0
LINE
8
fz
10
2.782843
20
2.782843
30
1.0
11
2.782843
21
2.782843
31
11.0
0
POINT
8
DIAGONALI
10
-2.782843
20
2.782843
30
-1.785799
0
TEXT
8
ID-NODES
10
-2.782843
20
2.782843
30
-1.785799
40
0.05
1
133
72
1
11
-2.782843
21
2.782843
31
-1.785799
73
2
0
LINE
8
fz
10
-2.782843
20
2.782843
30
1.0
11
-2.782843
21
2.782843
31
11.0
0
ENDSEC
0
EOF
