999
DXF created from myself (Fortunato Siano)
0
SECTION
2
ENTITIES
0
LINE
8
MAXSPINTA
62
101
48
65.31731780378912
10
-2.5
20
-2.5
30
1.2609519999999996
11
-2.377641
21
-2.377641
31
1.4669164496418872
0
LINE
8
MINSPINTA
62
81
48
42.84421639620613
10
-2.5
20
-2.5
30
0.28809957774861794
11
-2.377641
21
-2.377641
31
0.817841108651724
0
LINE
8
MEDIONETWORK
62
101
48
54.847059333015565
10
-2.5
20
-2.5
30
0.7132910518478534
11
-2.377641
21
-2.377641
31
1.105252466682571
0
LINE
8
ASSE
62
253
10
-2.5
20
-2.5
30
0.630476
11
-2.377641
21
-2.377641
31
1.1256665
0
LINE
8
INTRADOSSO
62
256
10
-2.5
20
-2.5
30
0.0
11
-2.377641
21
-2.377641
31
0.772542
0
LINE
8
ESTRADOSSO
62
256
10
-2.5
20
-2.5
30
1.260952
11
-2.377641
21
-2.377641
31
1.478791
0
LINE
8
MAXSPINTA
62
181
48
117.39691429743863
10
-2.377641
20
-2.377641
30
1.4669164496418872
11
-2.022542
21
-2.022542
31
1.9267730159413818
0
LINE
8
MINSPINTA
62
81
48
51.09158792771819
10
-2.377641
20
-2.377641
30
0.817841108651724
11
-2.022542
21
-2.022542
31
1.6076360319906537
0
LINE
8
MEDIONETWORK
62
121
48
75.14766343083932
10
-2.377641
20
-2.377641
30
1.105252466682571
11
-2.022542
21
-2.022542
31
1.7620164927487256
0
LINE
8
ASSE
62
253
10
-2.377641
20
-2.377641
30
1.1256665
11
-2.022542
21
-2.022542
31
1.70289
0
LINE
8
INTRADOSSO
62
256
10
-2.377641
20
-2.377641
30
0.772542
11
-2.022542
21
-2.022542
31
1.469463
0
LINE
8
ESTRADOSSO
62
256
10
-2.377641
20
-2.377641
30
1.478791
11
-2.022542
21
-2.022542
31
1.936317
0
LINE
8
MAXSPINTA
62
141
48
82.59899657563524
10
-2.022542
20
-2.022542
30
1.9267730159413818
11
-1.469463
21
-1.469463
31
2.2815912566913368
0
LINE
8
MINSPINTA
62
61
48
31.21771892870826
10
-2.022542
20
-2.022542
30
1.6076360319906537
11
-1.469463
21
-1.469463
31
2.270412402094818
0
LINE
8
MEDIONETWORK
62
81
48
47.30076232501679
10
-2.022542
20
-2.022542
30
1.7620164927487256
11
-1.469463
21
-1.469463
31
2.270516121510725
0
LINE
8
ASSE
62
253
10
-2.022542
20
-2.022542
30
1.70289
11
-1.469463
21
-1.469463
31
2.2029795
0
LINE
8
INTRADOSSO
62
256
10
-2.022542
20
-2.022542
30
1.469463
11
-1.469463
21
-1.469463
31
2.022542
0
LINE
8
ESTRADOSSO
62
256
10
-2.022542
20
-2.022542
30
1.936317
11
-1.469463
21
-1.469463
31
2.383417
0
LINE
8
MAXSPINTA
62
121
48
68.5003174887686
10
-1.469463
20
-1.469463
30
2.2815912566913368
11
-0.772542
21
-0.772542
31
2.4639687279832527
0
LINE
8
MINSPINTA
62
41
48
23.028092687250858
10
-1.469463
20
-1.469463
30
2.270412402094818
11
-0.772542
21
-0.772542
31
2.6718369208771913
0
LINE
8
MEDIONETWORK
62
61
48
36.944381688636895
10
-1.469463
20
-1.469463
30
2.270516121510725
11
-0.772542
21
-0.772542
31
2.5533791160376014
0
LINE
8
ASSE
62
253
10
-1.469463
20
-1.469463
30
2.2029795
11
-0.772542
21
-0.772542
31
2.534478
0
LINE
8
INTRADOSSO
62
256
10
-1.469463
20
-1.469463
30
2.022542
11
-0.772542
21
-0.772542
31
2.377641
0
LINE
8
ESTRADOSSO
62
256
10
-1.469463
20
-1.469463
30
2.383417
11
-0.772542
21
-0.772542
31
2.691315
0
LINE
8
MAXSPINTA
62
101
48
62.14769734064025
10
-0.772542
20
-0.772542
30
2.4639687279832527
11
-0.0
21
0.0
31
2.5000000000000004
0
LINE
8
MINSPINTA
62
41
48
19.739569445319074
10
-0.772542
20
-0.772542
30
2.6718369208771913
11
-0.0
21
0.0
31
2.7658083771266124
0
LINE
8
MEDIONETWORK
62
61
48
32.798072049031965
10
-0.772542
20
-0.772542
30
2.5533791160376014
11
-0.0
21
0.0
31
2.6145651658019946
0
LINE
8
ASSE
62
253
10
-0.772542
20
-0.772542
30
2.534478
11
-0.0
21
0.0
31
2.65
0
LINE
8
INTRADOSSO
62
256
10
-0.772542
20
-0.772542
30
2.377641
11
-0.0
21
0.0
31
2.5
0
LINE
8
ESTRADOSSO
62
256
10
-0.772542
20
-0.772542
30
2.691315
11
-0.0
21
0.0
31
2.8
0
LINE
8
MAXSPINTA
62
61
48
32.24829169246858
10
-2.5
20
-2.5
30
1.2609519999999996
11
-2.5
21
-2.377641
31
1.4003767716463065
0
LINE
8
MINSPINTA
62
61
48
27.50283175042355
10
-2.5
20
-2.5
30
0.28809957774861794
11
-2.5
21
-2.377641
31
0.7725420000000001
0
LINE
8
MEDIONETWORK
62
61
48
32.98735125369377
10
-2.5
20
-2.5
30
0.7132910518478534
11
-2.5
21
-2.377641
31
1.0517775034777201
0
LINE
8
ASSE
62
253
10
-2.5
20
-2.5
30
0.630476
11
-2.5
21
-2.377641
31
1.1256665
0
LINE
8
INTRADOSSO
62
256
10
-2.5
20
-2.5
30
0.0
11
-2.5
21
-2.377641
31
0.772542
0
LINE
8
ESTRADOSSO
62
256
10
-2.5
20
-2.5
30
1.260952
11
-2.5
21
-2.377641
31
1.478791
0
LINE
8
MAXSPINTA
62
61
48
35.583973159896544
10
-2.5
20
-2.377641
30
1.4003767716463065
11
-2.5
21
-2.022542
31
1.8765896783372218
0
LINE
8
MINSPINTA
62
41
48
14.835267688315968
10
-2.5
20
-2.377641
30
0.7725420000000001
11
-2.5
21
-2.022542
31
1.469463
0
LINE
8
MEDIONETWORK
62
41
48
23.4227735438942
10
-2.5
20
-2.377641
30
1.0517775034777201
11
-2.5
21
-2.022542
31
1.7029214473997787
0
LINE
8
ASSE
62
253
10
-2.5
20
-2.377641
30
1.1256665
11
-2.5
21
-2.022542
31
1.70289
0
LINE
8
INTRADOSSO
62
256
10
-2.5
20
-2.377641
30
0.772542
11
-2.5
21
-2.022542
31
1.469463
0
LINE
8
ESTRADOSSO
62
256
10
-2.5
20
-2.377641
30
1.478791
11
-2.5
21
-2.022542
31
1.936317
0
LINE
8
MAXSPINTA
62
61
48
26.781607189701464
10
-2.5
20
-2.022542
30
1.8765896783372218
11
-2.5
21
-1.469463
31
2.299687571956614
0
LINE
8
MINSPINTA
62
21
48
9.524828476822533
10
-2.5
20
-2.022542
30
1.469463
11
-2.5
21
-1.469463
31
2.022542
0
LINE
8
MEDIONETWORK
62
41
48
15.05872466054435
10
-2.5
20
-2.022542
30
1.7029214473997787
11
-2.5
21
-1.469463
31
2.1985804812721015
0
LINE
8
ASSE
62
253
10
-2.5
20
-2.022542
30
1.70289
11
-2.5
21
-1.469463
31
2.2029795
0
LINE
8
INTRADOSSO
62
256
10
-2.5
20
-2.022542
30
1.469463
11
-2.5
21
-1.469463
31
2.022542
0
LINE
8
ESTRADOSSO
62
256
10
-2.5
20
-2.022542
30
1.936317
11
-2.5
21
-1.469463
31
2.383417
0
LINE
8
MAXSPINTA
62
41
48
23.00651969143364
10
-2.5
20
-1.469463
30
2.299687571956614
11
-2.5
21
-0.772542
31
2.5868713040279396
0
LINE
8
MINSPINTA
62
21
48
7.558946739807394
10
-2.5
20
-1.469463
30
2.022542
11
-2.5
21
-0.772542
31
2.377641
0
LINE
8
MEDIONETWORK
62
21
48
12.48020107043212
10
-2.5
20
-1.469463
30
2.1985804812721015
11
-2.5
21
-0.772542
31
2.5389328944775658
0
LINE
8
ASSE
62
253
10
-2.5
20
-1.469463
30
2.2029795
11
-2.5
21
-0.772542
31
2.534478
0
LINE
8
INTRADOSSO
62
256
10
-2.5
20
-1.469463
30
2.022542
11
-2.5
21
-0.772542
31
2.377641
0
LINE
8
ESTRADOSSO
62
256
10
-2.5
20
-1.469463
30
2.383417
11
-2.5
21
-0.772542
31
2.691315
0
LINE
8
MAXSPINTA
62
41
48
21.45435255150361
10
-2.5
20
-0.772542
30
2.5868713040279396
11
-2.5
21
0.0
31
2.6884400404274476
0
LINE
8
MINSPINTA
62
21
48
6.819024811858773
10
-2.5
20
-0.772542
30
2.377641
11
-2.5
21
0.0
31
2.5
0
LINE
8
MEDIONETWORK
62
21
48
11.354726026406185
10
-2.5
20
-0.772542
30
2.5389328944775658
11
-2.5
21
0.0
31
2.6615585805709006
0
LINE
8
ASSE
62
253
10
-2.5
20
-0.772542
30
2.534478
11
-2.5
21
0.0
31
2.65
0
LINE
8
INTRADOSSO
62
256
10
-2.5
20
-0.772542
30
2.377641
11
-2.5
21
0.0
31
2.5
0
LINE
8
ESTRADOSSO
62
256
10
-2.5
20
-0.772542
30
2.691315
11
-2.5
21
0.0
31
2.8
0
LINE
8
MAXSPINTA
62
81
48
45.945247019473186
10
-2.022542
20
-2.022542
30
1.9267730159413818
11
-2.022542
21
-1.469463
31
2.253941423214067
0
LINE
8
MINSPINTA
62
41
48
17.241935404581437
10
-2.022542
20
-2.022542
30
1.6076360319906537
11
-2.022542
21
-1.469463
31
2.131247417214359
0
LINE
8
MEDIONETWORK
62
41
48
26.595854315843873
10
-2.022542
20
-2.022542
30
1.7620164927487256
11
-2.022542
21
-1.469463
31
2.20010473022216
0
LINE
8
ASSE
62
253
10
-2.022542
20
-2.022542
30
1.70289
11
-2.022542
21
-1.469463
31
2.2029795
0
LINE
8
INTRADOSSO
62
256
10
-2.022542
20
-2.022542
30
1.469463
11
-2.022542
21
-1.469463
31
2.022542
0
LINE
8
ESTRADOSSO
62
256
10
-2.022542
20
-2.022542
30
1.936317
11
-2.022542
21
-1.469463
31
2.383417
0
LINE
8
MAXSPINTA
62
81
48
41.882511516237315
10
-2.022542
20
-1.469463
30
2.253941423214067
11
-2.022542
21
-0.772542
31
2.4971058799627714
0
LINE
8
MINSPINTA
62
41
48
14.160825675683842
10
-2.022542
20
-1.469463
30
2.131247417214359
11
-2.022542
21
-0.772542
31
2.4994363088142992
0
LINE
8
MEDIONETWORK
62
41
48
22.890489722025542
10
-2.022542
20
-1.469463
30
2.20010473022216
11
-2.022542
21
-0.772542
31
2.516057275407355
0
LINE
8
ASSE
62
253
10
-2.022542
20
-1.469463
30
2.2029795
11
-2.022542
21
-0.772542
31
2.534478
0
LINE
8
INTRADOSSO
62
256
10
-2.022542
20
-1.469463
30
2.022542
11
-2.022542
21
-0.772542
31
2.377641
0
LINE
8
ESTRADOSSO
62
256
10
-2.022542
20
-1.469463
30
2.383417
11
-2.022542
21
-0.772542
31
2.691315
0
LINE
8
MAXSPINTA
62
61
48
39.80471130032544
10
-2.022542
20
-0.772542
30
2.4971058799627714
11
-2.022542
21
0.0
31
2.585868325703093
0
LINE
8
MINSPINTA
62
21
48
12.69981051351989
10
-2.022542
20
-0.772542
30
2.4994363088142992
11
-2.022542
21
0.0
31
2.6305087866853047
0
LINE
8
MEDIONETWORK
62
41
48
21.07649208671577
10
-2.022542
20
-0.772542
30
2.516057275407355
11
-2.022542
21
0.0
31
2.6307286519808124
0
LINE
8
ASSE
62
253
10
-2.022542
20
-0.772542
30
2.534478
11
-2.022542
21
0.0
31
2.65
0
LINE
8
INTRADOSSO
62
256
10
-2.022542
20
-0.772542
30
2.377641
11
-2.022542
21
0.0
31
2.5
0
LINE
8
ESTRADOSSO
62
256
10
-2.022542
20
-0.772542
30
2.691315
11
-2.022542
21
0.0
31
2.8
0
LINE
8
MAXSPINTA
62
61
48
38.373341083620126
10
-1.469463
20
-1.469463
30
2.2815912566913368
11
-1.469463
21
-0.772542
31
2.467787537941708
0
LINE
8
MINSPINTA
62
21
48
13.074569060914753
10
-1.469463
20
-1.469463
30
2.270412402094818
11
-1.469463
21
-0.772542
31
2.612281260272549
0
LINE
8
MEDIONETWORK
62
41
48
20.902580518143818
10
-1.469463
20
-1.469463
30
2.270516121510725
11
-1.469463
21
-0.772542
31
2.534735440357344
0
LINE
8
ASSE
62
253
10
-1.469463
20
-1.469463
30
2.2029795
11
-1.469463
21
-0.772542
31
2.534478
0
LINE
8
INTRADOSSO
62
256
10
-1.469463
20
-1.469463
30
2.022542
11
-1.469463
21
-0.772542
31
2.377641
0
LINE
8
ESTRADOSSO
62
256
10
-1.469463
20
-1.469463
30
2.383417
11
-1.469463
21
-0.772542
31
2.691315
0
LINE
8
MAXSPINTA
62
61
48
37.22923934120361
10
-1.469463
20
-0.772542
30
2.467787537941708
11
-1.469463
21
0.0
31
2.5387845761274237
0
LINE
8
MINSPINTA
62
21
48
11.897755203857052
10
-1.469463
20
-0.772542
30
2.612281260272549
11
-1.469463
21
0.0
31
2.7400406278444116
0
LINE
8
MEDIONETWORK
62
41
48
19.707703591350427
10
-1.469463
20
-0.772542
30
2.534735440357344
11
-1.469463
21
0.0
31
2.634603161721118
0
LINE
8
ASSE
62
253
10
-1.469463
20
-0.772542
30
2.534478
11
-1.469463
21
0.0
31
2.65
0
LINE
8
INTRADOSSO
62
256
10
-1.469463
20
-0.772542
30
2.377641
11
-1.469463
21
0.0
31
2.5
0
LINE
8
ESTRADOSSO
62
256
10
-1.469463
20
-0.772542
30
2.691315
11
-1.469463
21
0.0
31
2.8
0
LINE
8
MAXSPINTA
62
61
48
35.3104805523021
10
-0.772542
20
-0.772542
30
2.4639687279832527
11
-0.772542
21
0.0
31
2.5195753124555007
0
LINE
8
MINSPINTA
62
21
48
11.303819708398654
10
-0.772542
20
-0.772542
30
2.6718369208771913
11
-0.772542
21
0.0
31
2.8
0
LINE
8
MEDIONETWORK
62
41
48
18.688816828358934
10
-0.772542
20
-0.772542
30
2.5533791160376014
11
-0.772542
21
0.0
31
2.641718894325775
0
LINE
8
ASSE
62
253
10
-0.772542
20
-0.772542
30
2.534478
11
-0.772542
21
0.0
31
2.65
0
LINE
8
INTRADOSSO
62
256
10
-0.772542
20
-0.772542
30
2.377641
11
-0.772542
21
0.0
31
2.5
0
LINE
8
ESTRADOSSO
62
256
10
-0.772542
20
-0.772542
30
2.691315
11
-0.772542
21
0.0
31
2.8
0
LINE
8
MAXSPINTA
62
61
48
32.231023526629535
10
-2.5
20
0.0
30
2.6884400404274476
11
-2.022542
21
0.0
31
2.585868325703093
0
LINE
8
MINSPINTA
62
21
48
10.343598577215824
10
-2.5
20
0.0
30
2.5
11
-2.022542
21
0.0
31
2.6305087866853047
0
LINE
8
MEDIONETWORK
62
41
48
16.64790734901963
10
-2.5
20
0.0
30
2.6615585805709006
11
-2.022542
21
0.0
31
2.6307286519808124
0
LINE
8
ASSE
62
253
10
-2.5
20
0.0
30
2.65
11
-2.022542
21
0.0
31
2.65
0
LINE
8
INTRADOSSO
62
256
10
-2.5
20
0.0
30
2.5
11
-2.022542
21
0.0
31
2.5
0
LINE
8
ESTRADOSSO
62
256
10
-2.5
20
0.0
30
2.8
11
-2.022542
21
0.0
31
2.8
0
LINE
8
MAXSPINTA
62
61
48
31.62604264477048
10
-2.022542
20
0.0
30
2.585868325703093
11
-1.469463
21
0.0
31
2.5387845761274237
0
LINE
8
MINSPINTA
62
21
48
10.17135194442992
10
-2.022542
20
0.0
30
2.6305087866853047
11
-1.469463
21
0.0
31
2.7400406278444116
0
LINE
8
MEDIONETWORK
62
41
48
16.61371716148035
10
-2.022542
20
0.0
30
2.6307286519808124
11
-1.469463
21
0.0
31
2.634603161721118
0
LINE
8
ASSE
62
253
10
-2.022542
20
0.0
30
2.65
11
-1.469463
21
0.0
31
2.65
0
LINE
8
INTRADOSSO
62
256
10
-2.022542
20
0.0
30
2.5
11
-1.469463
21
0.0
31
2.5
0
LINE
8
ESTRADOSSO
62
256
10
-2.022542
20
0.0
30
2.8
11
-1.469463
21
0.0
31
2.8
0
LINE
8
MAXSPINTA
62
61
48
31.52403024984409
10
-1.469463
20
0.0
30
2.5387845761274237
11
-0.772542
21
0.0
31
2.5195753124555007
0
LINE
8
MINSPINTA
62
21
48
10.014432700922358
10
-1.469463
20
0.0
30
2.7400406278444116
11
-0.772542
21
0.0
31
2.8
0
LINE
8
MEDIONETWORK
62
41
48
16.614175456823904
10
-1.469463
20
0.0
30
2.634603161721118
11
-0.772542
21
0.0
31
2.641718894325775
0
LINE
8
ASSE
62
253
10
-1.469463
20
0.0
30
2.65
11
-0.772542
21
0.0
31
2.65
0
LINE
8
INTRADOSSO
62
256
10
-1.469463
20
0.0
30
2.5
11
-0.772542
21
0.0
31
2.5
0
LINE
8
ESTRADOSSO
62
256
10
-1.469463
20
0.0
30
2.8
11
-0.772542
21
0.0
31
2.8
0
LINE
8
MAXSPINTA
62
61
48
31.522176967157446
10
-0.772542
20
0.0
30
2.5195753124555007
11
-0.0
21
0.0
31
2.5000000000000004
0
LINE
8
MINSPINTA
62
21
48
9.987341324016514
10
-0.772542
20
0.0
30
2.8
11
-0.0
21
0.0
31
2.7658083771266124
0
LINE
8
MEDIONETWORK
62
41
48
16.623568561057915
10
-0.772542
20
0.0
30
2.641718894325775
11
-0.0
21
0.0
31
2.6145651658019946
0
LINE
8
ASSE
62
253
10
-0.772542
20
0.0
30
2.65
11
-0.0
21
0.0
31
2.65
0
LINE
8
INTRADOSSO
62
256
10
-0.772542
20
0.0
30
2.5
11
-0.0
21
0.0
31
2.5
0
LINE
8
ESTRADOSSO
62
256
10
-0.772542
20
0.0
30
2.8
11
-0.0
21
0.0
31
2.8
0
LINE
8
MAXSPINTA
62
61
48
32.06414846158013
10
-2.5
20
-0.772542
30
2.5868713040279396
11
-2.022542
21
-0.772542
31
2.4971058799627714
0
LINE
8
MINSPINTA
62
21
48
10.297085904094386
10
-2.5
20
-0.772542
30
2.377641
11
-2.022542
21
-0.772542
31
2.4994363088142992
0
LINE
8
MEDIONETWORK
62
41
48
16.63236642957265
10
-2.5
20
-0.772542
30
2.5389328944775658
11
-2.022542
21
-0.772542
31
2.516057275407355
0
LINE
8
ASSE
62
253
10
-2.5
20
-0.772542
30
2.534478
11
-2.022542
21
-0.772542
31
2.534478
0
LINE
8
INTRADOSSO
62
256
10
-2.5
20
-0.772542
30
2.377641
11
-2.022542
21
-0.772542
31
2.377641
0
LINE
8
ESTRADOSSO
62
256
10
-2.5
20
-0.772542
30
2.691315
11
-2.022542
21
-0.772542
31
2.691315
0
LINE
8
MAXSPINTA
62
61
48
31.556305529833594
10
-2.022542
20
-0.772542
30
2.4971058799627714
11
-1.469463
21
-0.772542
31
2.467787537941708
0
LINE
8
MINSPINTA
62
21
48
10.18313182364153
10
-2.022542
20
-0.772542
30
2.4994363088142992
11
-1.469463
21
-0.772542
31
2.612281260272549
0
LINE
8
MEDIONETWORK
62
41
48
16.622780532072053
10
-2.022542
20
-0.772542
30
2.516057275407355
11
-1.469463
21
-0.772542
31
2.534735440357344
0
LINE
8
ASSE
62
253
10
-2.022542
20
-0.772542
30
2.534478
11
-1.469463
21
-0.772542
31
2.534478
0
LINE
8
INTRADOSSO
62
256
10
-2.022542
20
-0.772542
30
2.377641
11
-1.469463
21
-0.772542
31
2.377641
0
LINE
8
ESTRADOSSO
62
256
10
-2.022542
20
-0.772542
30
2.691315
11
-1.469463
21
-0.772542
31
2.691315
0
LINE
8
MAXSPINTA
62
61
48
31.512535406950207
10
-1.469463
20
-0.772542
30
2.467787537941708
11
-0.772542
21
-0.772542
31
2.4639687279832527
0
LINE
8
MINSPINTA
62
21
48
10.013938923898213
10
-1.469463
20
-0.772542
30
2.612281260272549
11
-0.772542
21
-0.772542
31
2.6718369208771913
0
LINE
8
MEDIONETWORK
62
41
48
16.619253048451647
10
-1.469463
20
-0.772542
30
2.534735440357344
11
-0.772542
21
-0.772542
31
2.5533791160376014
0
LINE
8
ASSE
62
253
10
-1.469463
20
-0.772542
30
2.534478
11
-0.772542
21
-0.772542
31
2.534478
0
LINE
8
INTRADOSSO
62
256
10
-1.469463
20
-0.772542
30
2.377641
11
-0.772542
21
-0.772542
31
2.377641
0
LINE
8
ESTRADOSSO
62
256
10
-1.469463
20
-0.772542
30
2.691315
11
-0.772542
21
-0.772542
31
2.691315
0
LINE
8
MAXSPINTA
62
61
48
31.685642887084285
10
-2.5
20
-2.022542
30
1.8765896783372218
11
-2.022542
21
-2.022542
31
1.9267730159413818
0
LINE
8
MINSPINTA
62
21
48
10.386977211323654
10
-2.5
20
-2.022542
30
1.469463
11
-2.022542
21
-2.022542
31
1.6076360319906537
0
LINE
8
MEDIONETWORK
62
41
48
16.740075925692498
10
-2.5
20
-2.022542
30
1.7029214473997787
11
-2.022542
21
-2.022542
31
1.7620164927487256
0
LINE
8
ASSE
62
253
10
-2.5
20
-2.022542
30
1.70289
11
-2.022542
21
-2.022542
31
1.70289
0
LINE
8
INTRADOSSO
62
256
10
-2.5
20
-2.022542
30
1.469463
11
-2.022542
21
-2.022542
31
1.469463
0
LINE
8
ESTRADOSSO
62
256
10
-2.5
20
-2.022542
30
1.936317
11
-2.022542
21
-2.022542
31
1.936317
0
LINE
8
MAXSPINTA
62
61
48
35.87016863286608
10
-2.5
20
-2.377641
30
1.4003767716463065
11
-2.377641
21
-2.377641
31
1.4669164496418872
0
LINE
8
MINSPINTA
62
21
48
10.639383180555711
10
-2.5
20
-2.377641
30
0.7725420000000001
11
-2.377641
21
-2.377641
31
0.817841108651724
0
LINE
8
MEDIONETWORK
62
41
48
18.130580065466994
10
-2.5
20
-2.377641
30
1.0517775034777201
11
-2.377641
21
-2.377641
31
1.105252466682571
0
LINE
8
ASSE
62
253
10
-2.5
20
-2.377641
30
1.1256665
11
-2.377641
21
-2.377641
31
1.1256665
0
LINE
8
INTRADOSSO
62
256
10
-2.5
20
-2.377641
30
0.772542
11
-2.377641
21
-2.377641
31
0.772542
0
LINE
8
ESTRADOSSO
62
256
10
-2.5
20
-2.377641
30
1.478791
11
-2.377641
21
-2.377641
31
1.478791
0
LINE
8
MAXSPINTA
62
61
48
31.656370949464215
10
-2.5
20
-1.469463
30
2.299687571956614
11
-2.022542
21
-1.469463
31
2.253941423214067
0
LINE
8
MINSPINTA
62
21
48
10.232905989963173
10
-2.5
20
-1.469463
30
2.022542
11
-2.022542
21
-1.469463
31
2.131247417214359
0
LINE
8
MEDIONETWORK
62
41
48
16.613394176171422
10
-2.5
20
-1.469463
30
2.1985804812721015
11
-2.022542
21
-1.469463
31
2.20010473022216
0
LINE
8
ASSE
62
253
10
-2.5
20
-1.469463
30
2.2029795
11
-2.022542
21
-1.469463
31
2.2029795
0
LINE
8
INTRADOSSO
62
256
10
-2.5
20
-1.469463
30
2.022542
11
-2.022542
21
-1.469463
31
2.022542
0
LINE
8
ESTRADOSSO
62
256
10
-2.5
20
-1.469463
30
2.383417
11
-2.022542
21
-1.469463
31
2.383417
0
LINE
8
MAXSPINTA
62
61
48
31.55141610740884
10
-2.022542
20
-1.469463
30
2.253941423214067
11
-1.469463
21
-1.469463
31
2.2815912566913368
0
LINE
8
MINSPINTA
62
21
48
10.288576724810957
10
-2.022542
20
-1.469463
30
2.131247417214359
11
-1.469463
21
-1.469463
31
2.270412402094818
0
LINE
8
MEDIONETWORK
62
41
48
16.747397108564098
10
-2.022542
20
-1.469463
30
2.20010473022216
11
-1.469463
21
-1.469463
31
2.270516121510725
0
LINE
8
ASSE
62
253
10
-2.022542
20
-1.469463
30
2.2029795
11
-1.469463
21
-1.469463
31
2.2029795
0
LINE
8
INTRADOSSO
62
256
10
-2.022542
20
-1.469463
30
2.022542
11
-1.469463
21
-1.469463
31
2.022542
0
LINE
8
ESTRADOSSO
62
256
10
-2.022542
20
-1.469463
30
2.383417
11
-1.469463
21
-1.469463
31
2.383417
0
LINE
8
MAXSPINTA
62
61
48
32.248291692468605
10
-2.5
20
-2.5
30
1.2609519999999996
11
-2.377641
21
-2.5
31
1.4003767716463067
0
LINE
8
MINSPINTA
62
61
48
27.50283175042357
10
-2.5
20
-2.5
30
0.28809957774861794
11
-2.377641
21
-2.5
31
0.7725420000000005
0
LINE
8
MEDIONETWORK
62
61
48
32.98735125304089
10
-2.5
20
-2.5
30
0.7132910518478534
11
-2.377641
21
-2.5
31
1.0517775034701455
0
LINE
8
ASSE
62
253
10
-2.5
20
-2.5
30
0.630476
11
-2.377641
21
-2.5
31
1.1256665
0
LINE
8
INTRADOSSO
62
256
10
-2.5
20
-2.5
30
0.0
11
-2.377641
21
-2.5
31
0.772542
0
LINE
8
ESTRADOSSO
62
256
10
-2.5
20
-2.5
30
1.260952
11
-2.377641
21
-2.5
31
1.478791
0
LINE
8
MAXSPINTA
62
61
48
35.583973159896544
10
-2.377641
20
-2.5
30
1.4003767716463067
11
-2.022542
21
-2.5
31
1.876589678337222
0
LINE
8
MINSPINTA
62
41
48
14.83526768831596
10
-2.377641
20
-2.5
30
0.7725420000000005
11
-2.022542
21
-2.5
31
1.469463
0
LINE
8
MEDIONETWORK
62
41
48
23.422773538981183
10
-2.377641
20
-2.5
30
1.0517775034701455
11
-2.022542
21
-2.5
31
1.702921447215005
0
LINE
8
ASSE
62
253
10
-2.377641
20
-2.5
30
1.1256665
11
-2.022542
21
-2.5
31
1.70289
0
LINE
8
INTRADOSSO
62
256
10
-2.377641
20
-2.5
30
0.772542
11
-2.022542
21
-2.5
31
1.469463
0
LINE
8
ESTRADOSSO
62
256
10
-2.377641
20
-2.5
30
1.478791
11
-2.022542
21
-2.5
31
1.936317
0
LINE
8
MAXSPINTA
62
61
48
26.781607189701457
10
-2.022542
20
-2.5
30
1.876589678337222
11
-1.469463
21
-2.5
31
2.299687571956614
0
LINE
8
MINSPINTA
62
21
48
9.524828476822538
10
-2.022542
20
-2.5
30
1.469463
11
-1.469463
21
-2.5
31
2.0225420000000005
0
LINE
8
MEDIONETWORK
62
41
48
15.058724651339118
10
-2.022542
20
-2.5
30
1.702921447215005
11
-1.469463
21
-2.5
31
2.198580480407079
0
LINE
8
ASSE
62
253
10
-2.022542
20
-2.5
30
1.70289
11
-1.469463
21
-2.5
31
2.2029795
0
LINE
8
INTRADOSSO
62
256
10
-2.022542
20
-2.5
30
1.469463
11
-1.469463
21
-2.5
31
2.022542
0
LINE
8
ESTRADOSSO
62
256
10
-2.022542
20
-2.5
30
1.936317
11
-1.469463
21
-2.5
31
2.383417
0
LINE
8
MAXSPINTA
62
41
48
23.006519691433624
10
-1.469463
20
-2.5
30
2.299687571956614
11
-0.772542
21
-2.5
31
2.5868713040279387
0
LINE
8
MINSPINTA
62
21
48
7.558946739807394
10
-1.469463
20
-2.5
30
2.0225420000000005
11
-0.772542
21
-2.5
31
2.3776410000000006
0
LINE
8
MEDIONETWORK
62
21
48
12.480201068370535
10
-1.469463
20
-2.5
30
2.198580480407079
11
-0.772542
21
-2.5
31
2.5389328933205895
0
LINE
8
ASSE
62
253
10
-1.469463
20
-2.5
30
2.2029795
11
-0.772542
21
-2.5
31
2.534478
0
LINE
8
INTRADOSSO
62
256
10
-1.469463
20
-2.5
30
2.022542
11
-0.772542
21
-2.5
31
2.377641
0
LINE
8
ESTRADOSSO
62
256
10
-1.469463
20
-2.5
30
2.383417
11
-0.772542
21
-2.5
31
2.691315
0
LINE
8
MAXSPINTA
62
41
48
21.454352551503614
10
-0.772542
20
-2.5
30
2.5868713040279387
11
-0.0
21
-2.5
31
2.6884400404274484
0
LINE
8
MINSPINTA
62
21
48
6.819024811858771
10
-0.772542
20
-2.5
30
2.3776410000000006
11
-0.0
21
-2.5
31
2.5
0
LINE
8
MEDIONETWORK
62
21
48
11.354726025556964
10
-0.772542
20
-2.5
30
2.5389328933205895
11
-0.0
21
-2.5
31
2.661558579040749
0
LINE
8
ASSE
62
253
10
-0.772542
20
-2.5
30
2.534478
11
-0.0
21
-2.5
31
2.65
0
LINE
8
INTRADOSSO
62
256
10
-0.772542
20
-2.5
30
2.377641
11
-0.0
21
-2.5
31
2.5
0
LINE
8
ESTRADOSSO
62
256
10
-0.772542
20
-2.5
30
2.691315
11
-0.0
21
-2.5
31
2.8
0
LINE
8
MAXSPINTA
62
81
48
45.94524701947318
10
-2.022542
20
-2.022542
30
1.9267730159413818
11
-1.469463
21
-2.022542
31
2.2539414232140667
0
LINE
8
MINSPINTA
62
41
48
17.241935403575003
10
-2.022542
20
-2.022542
30
1.6076360319906537
11
-1.469463
21
-2.022542
31
2.1312474171496945
0
LINE
8
MEDIONETWORK
62
41
48
26.5958543058204
10
-2.022542
20
-2.022542
30
1.7620164927487256
11
-1.469463
21
-2.022542
31
2.2001047297938947
0
LINE
8
ASSE
62
253
10
-2.022542
20
-2.022542
30
1.70289
11
-1.469463
21
-2.022542
31
2.2029795
0
LINE
8
INTRADOSSO
62
256
10
-2.022542
20
-2.022542
30
1.469463
11
-1.469463
21
-2.022542
31
2.022542
0
LINE
8
ESTRADOSSO
62
256
10
-2.022542
20
-2.022542
30
1.936317
11
-1.469463
21
-2.022542
31
2.383417
0
LINE
8
MAXSPINTA
62
81
48
41.882511516237315
10
-1.469463
20
-2.022542
30
2.2539414232140667
11
-0.772542
21
-2.022542
31
2.4971058799627706
0
LINE
8
MINSPINTA
62
41
48
14.160825676319453
10
-1.469463
20
-2.022542
30
2.1312474171496945
11
-0.772542
21
-2.022542
31
2.4994363088253713
0
LINE
8
MEDIONETWORK
62
41
48
22.890489716209796
10
-1.469463
20
-2.022542
30
2.2001047297938947
11
-0.772542
21
-2.022542
31
2.516057274508249
0
LINE
8
ASSE
62
253
10
-1.469463
20
-2.022542
30
2.2029795
11
-0.772542
21
-2.022542
31
2.534478
0
LINE
8
INTRADOSSO
62
256
10
-1.469463
20
-2.022542
30
2.022542
11
-0.772542
21
-2.022542
31
2.377641
0
LINE
8
ESTRADOSSO
62
256
10
-1.469463
20
-2.022542
30
2.383417
11
-0.772542
21
-2.022542
31
2.691315
0
LINE
8
MAXSPINTA
62
61
48
39.804711300325444
10
-0.772542
20
-2.022542
30
2.4971058799627706
11
-0.0
21
-2.022542
31
2.585868325703093
0
LINE
8
MINSPINTA
62
21
48
12.699810513468273
10
-0.772542
20
-2.022542
30
2.4994363088253713
11
-0.0
21
-2.022542
31
2.630508786677337
0
LINE
8
MEDIONETWORK
62
41
48
21.07649208361273
10
-0.772542
20
-2.022542
30
2.516057274508249
11
-0.0
21
-2.022542
31
2.63072865029856
0
LINE
8
ASSE
62
253
10
-0.772542
20
-2.022542
30
2.534478
11
-0.0
21
-2.022542
31
2.65
0
LINE
8
INTRADOSSO
62
256
10
-0.772542
20
-2.022542
30
2.377641
11
-0.0
21
-2.022542
31
2.5
0
LINE
8
ESTRADOSSO
62
256
10
-0.772542
20
-2.022542
30
2.691315
11
-0.0
21
-2.022542
31
2.8
0
LINE
8
MAXSPINTA
62
61
48
38.37334108362012
10
-1.469463
20
-1.469463
30
2.2815912566913368
11
-0.772542
21
-1.469463
31
2.4677875379417076
0
LINE
8
MINSPINTA
62
21
48
13.074569061087585
10
-1.469463
20
-1.469463
30
2.270412402094818
11
-0.772542
21
-1.469463
31
2.612281260295849
0
LINE
8
MEDIONETWORK
62
41
48
20.902580512446455
10
-1.469463
20
-1.469463
30
2.270516121510725
11
-0.772542
21
-1.469463
31
2.534735439784282
0
LINE
8
ASSE
62
253
10
-1.469463
20
-1.469463
30
2.2029795
11
-0.772542
21
-1.469463
31
2.534478
0
LINE
8
INTRADOSSO
62
256
10
-1.469463
20
-1.469463
30
2.022542
11
-0.772542
21
-1.469463
31
2.377641
0
LINE
8
ESTRADOSSO
62
256
10
-1.469463
20
-1.469463
30
2.383417
11
-0.772542
21
-1.469463
31
2.691315
0
LINE
8
MAXSPINTA
62
61
48
37.229239341203595
10
-0.772542
20
-1.469463
30
2.4677875379417076
11
-0.0
21
-1.469463
31
2.538784576127423
0
LINE
8
MINSPINTA
62
21
48
11.897755203777672
10
-0.772542
20
-1.469463
30
2.612281260295849
11
-0.0
21
-1.469463
31
2.7400406278356937
0
LINE
8
MEDIONETWORK
62
41
48
19.707703588570496
10
-0.772542
20
-1.469463
30
2.534735439784282
11
-0.0
21
-1.469463
31
2.6346031602909883
0
LINE
8
ASSE
62
253
10
-0.772542
20
-1.469463
30
2.534478
11
-0.0
21
-1.469463
31
2.65
0
LINE
8
INTRADOSSO
62
256
10
-0.772542
20
-1.469463
30
2.377641
11
-0.0
21
-1.469463
31
2.5
0
LINE
8
ESTRADOSSO
62
256
10
-0.772542
20
-1.469463
30
2.691315
11
-0.0
21
-1.469463
31
2.8
0
LINE
8
MAXSPINTA
62
61
48
35.310480552302096
10
-0.772542
20
-0.772542
30
2.4639687279832527
11
-0.0
21
-0.772542
31
2.5195753124555003
0
LINE
8
MINSPINTA
62
21
48
11.30381970837736
10
-0.772542
20
-0.772542
30
2.6718369208771913
11
-0.0
21
-0.772542
31
2.7999999999909853
0
LINE
8
MEDIONETWORK
62
41
48
18.68881682603742
10
-0.772542
20
-0.772542
30
2.5533791160376014
11
-0.0
21
-0.772542
31
2.6417188934755775
0
LINE
8
ASSE
62
253
10
-0.772542
20
-0.772542
30
2.534478
11
-0.0
21
-0.772542
31
2.65
0
LINE
8
INTRADOSSO
62
256
10
-0.772542
20
-0.772542
30
2.377641
11
-0.0
21
-0.772542
31
2.5
0
LINE
8
ESTRADOSSO
62
256
10
-0.772542
20
-0.772542
30
2.691315
11
-0.0
21
-0.772542
31
2.8
0
LINE
8
MAXSPINTA
62
61
48
32.23102352662954
10
-0.0
20
-2.5
30
2.6884400404274484
11
-0.0
21
-2.022542
31
2.585868325703093
0
LINE
8
MINSPINTA
62
21
48
10.343598577171917
10
-0.0
20
-2.5
30
2.5
11
-0.0
21
-2.022542
31
2.630508786677337
0
LINE
8
MEDIONETWORK
62
41
48
16.64790734936065
10
-0.0
20
-2.5
30
2.661558579040749
11
-0.0
21
-2.022542
31
2.63072865029856
0
LINE
8
ASSE
62
253
10
-0.0
20
-2.5
30
2.65
11
-0.0
21
-2.022542
31
2.65
0
LINE
8
INTRADOSSO
62
256
10
-0.0
20
-2.5
30
2.5
11
-0.0
21
-2.022542
31
2.5
0
LINE
8
ESTRADOSSO
62
256
10
-0.0
20
-2.5
30
2.8
11
-0.0
21
-2.022542
31
2.8
0
LINE
8
MAXSPINTA
62
61
48
31.62604264477048
10
-0.0
20
-2.022542
30
2.585868325703093
11
-0.0
21
-1.469463
31
2.538784576127423
0
LINE
8
MINSPINTA
62
21
48
10.171351944427292
10
-0.0
20
-2.022542
30
2.630508786677337
11
-0.0
21
-1.469463
31
2.7400406278356937
0
LINE
8
MEDIONETWORK
62
41
48
16.613717161533398
10
-0.0
20
-2.022542
30
2.63072865029856
11
-0.0
21
-1.469463
31
2.6346031602909883
0
LINE
8
ASSE
62
253
10
-0.0
20
-2.022542
30
2.65
11
-0.0
21
-1.469463
31
2.65
0
LINE
8
INTRADOSSO
62
256
10
-0.0
20
-2.022542
30
2.5
11
-0.0
21
-1.469463
31
2.5
0
LINE
8
ESTRADOSSO
62
256
10
-0.0
20
-2.022542
30
2.8
11
-0.0
21
-1.469463
31
2.8
0
LINE
8
MAXSPINTA
62
61
48
31.524030249844078
10
-0.0
20
-1.469463
30
2.538784576127423
11
-0.0
21
-0.772542
31
2.5195753124555003
0
LINE
8
MINSPINTA
62
21
48
10.014432700921992
10
-0.0
20
-1.469463
30
2.7400406278356937
11
-0.0
21
-0.772542
31
2.7999999999909853
0
LINE
8
MEDIONETWORK
62
41
48
16.614175456965047
10
-0.0
20
-1.469463
30
2.6346031602909883
11
-0.0
21
-0.772542
31
2.6417188934755775
0
LINE
8
ASSE
62
253
10
-0.0
20
-1.469463
30
2.65
11
-0.0
21
-0.772542
31
2.65
0
LINE
8
INTRADOSSO
62
256
10
-0.0
20
-1.469463
30
2.5
11
-0.0
21
-0.772542
31
2.5
0
LINE
8
ESTRADOSSO
62
256
10
-0.0
20
-1.469463
30
2.8
11
-0.0
21
-0.772542
31
2.8
0
LINE
8
MAXSPINTA
62
61
48
31.522176967157435
10
-0.0
20
-0.772542
30
2.5195753124555003
11
-0.0
21
0.0
31
2.5000000000000004
0
LINE
8
MINSPINTA
62
21
48
9.987341324011362
10
-0.0
20
-0.772542
30
2.7999999999909853
11
-0.0
21
0.0
31
2.7658083771266124
0
LINE
8
MEDIONETWORK
62
41
48
16.623568560415674
10
-0.0
20
-0.772542
30
2.6417188934755775
11
-0.0
21
0.0
31
2.6145651658019946
0
LINE
8
ASSE
62
253
10
-0.0
20
-0.772542
30
2.65
11
-0.0
21
0.0
31
2.65
0
LINE
8
INTRADOSSO
62
256
10
-0.0
20
-0.772542
30
2.5
11
-0.0
21
0.0
31
2.5
0
LINE
8
ESTRADOSSO
62
256
10
-0.0
20
-0.772542
30
2.8
11
-0.0
21
0.0
31
2.8
0
LINE
8
MAXSPINTA
62
61
48
32.06414846158013
10
-0.772542
20
-2.5
30
2.5868713040279387
11
-0.772542
21
-2.022542
31
2.4971058799627706
0
LINE
8
MINSPINTA
62
21
48
10.297085904151576
10
-0.772542
20
-2.5
30
2.3776410000000006
11
-0.772542
21
-2.022542
31
2.4994363088253713
0
LINE
8
MEDIONETWORK
62
41
48
16.63236642914325
10
-0.772542
20
-2.5
30
2.5389328933205895
11
-0.772542
21
-2.022542
31
2.516057274508249
0
LINE
8
ASSE
62
253
10
-0.772542
20
-2.5
30
2.534478
11
-0.772542
21
-2.022542
31
2.534478
0
LINE
8
INTRADOSSO
62
256
10
-0.772542
20
-2.5
30
2.377641
11
-0.772542
21
-2.022542
31
2.377641
0
LINE
8
ESTRADOSSO
62
256
10
-0.772542
20
-2.5
30
2.691315
11
-0.772542
21
-2.022542
31
2.691315
0
LINE
8
MAXSPINTA
62
61
48
31.556305529833594
10
-0.772542
20
-2.022542
30
2.4971058799627706
11
-0.772542
21
-1.469463
31
2.4677875379417076
0
LINE
8
MINSPINTA
62
21
48
10.18313182368563
10
-0.772542
20
-2.022542
30
2.4994363088253713
11
-0.772542
21
-1.469463
31
2.612281260295849
0
LINE
8
MEDIONETWORK
62
41
48
16.622780532402608
10
-0.772542
20
-2.022542
30
2.516057274508249
11
-0.772542
21
-1.469463
31
2.534735439784282
0
LINE
8
ASSE
62
253
10
-0.772542
20
-2.022542
30
2.534478
11
-0.772542
21
-1.469463
31
2.534478
0
LINE
8
INTRADOSSO
62
256
10
-0.772542
20
-2.022542
30
2.377641
11
-0.772542
21
-1.469463
31
2.377641
0
LINE
8
ESTRADOSSO
62
256
10
-0.772542
20
-2.022542
30
2.691315
11
-0.772542
21
-1.469463
31
2.691315
0
LINE
8
MAXSPINTA
62
61
48
31.512535406950207
10
-0.772542
20
-1.469463
30
2.4677875379417076
11
-0.772542
21
-0.772542
31
2.4639687279832527
0
LINE
8
MINSPINTA
62
21
48
10.01393892386981
10
-0.772542
20
-1.469463
30
2.612281260295849
11
-0.772542
21
-0.772542
31
2.6718369208771913
0
LINE
8
MEDIONETWORK
62
41
48
16.619253048816958
10
-0.772542
20
-1.469463
30
2.534735439784282
11
-0.772542
21
-0.772542
31
2.5533791160376014
0
LINE
8
ASSE
62
253
10
-0.772542
20
-1.469463
30
2.534478
11
-0.772542
21
-0.772542
31
2.534478
0
LINE
8
INTRADOSSO
62
256
10
-0.772542
20
-1.469463
30
2.377641
11
-0.772542
21
-0.772542
31
2.377641
0
LINE
8
ESTRADOSSO
62
256
10
-0.772542
20
-1.469463
30
2.691315
11
-0.772542
21
-0.772542
31
2.691315
0
LINE
8
MAXSPINTA
62
61
48
31.68564288708428
10
-2.022542
20
-2.5
30
1.876589678337222
11
-2.022542
21
-2.022542
31
1.9267730159413818
0
LINE
8
MINSPINTA
62
21
48
10.386977211323654
10
-2.022542
20
-2.5
30
1.469463
11
-2.022542
21
-2.022542
31
1.6076360319906537
0
LINE
8
MEDIONETWORK
62
41
48
16.740075926482223
10
-2.022542
20
-2.5
30
1.702921447215005
11
-2.022542
21
-2.022542
31
1.7620164927487256
0
LINE
8
ASSE
62
253
10
-2.022542
20
-2.5
30
1.70289
11
-2.022542
21
-2.022542
31
1.70289
0
LINE
8
INTRADOSSO
62
256
10
-2.022542
20
-2.5
30
1.469463
11
-2.022542
21
-2.022542
31
1.469463
0
LINE
8
ESTRADOSSO
62
256
10
-2.022542
20
-2.5
30
1.936317
11
-2.022542
21
-2.022542
31
1.936317
0
LINE
8
MAXSPINTA
62
61
48
35.870168632866054
10
-2.377641
20
-2.5
30
1.4003767716463067
11
-2.377641
21
-2.377641
31
1.4669164496418872
0
LINE
8
MINSPINTA
62
21
48
10.6393831805557
10
-2.377641
20
-2.5
30
0.7725420000000005
11
-2.377641
21
-2.377641
31
0.817841108651724
0
LINE
8
MEDIONETWORK
62
41
48
18.130580065878846
10
-2.377641
20
-2.5
30
1.0517775034701455
11
-2.377641
21
-2.377641
31
1.105252466682571
0
LINE
8
ASSE
62
253
10
-2.377641
20
-2.5
30
1.1256665
11
-2.377641
21
-2.377641
31
1.1256665
0
LINE
8
INTRADOSSO
62
256
10
-2.377641
20
-2.5
30
0.772542
11
-2.377641
21
-2.377641
31
0.772542
0
LINE
8
ESTRADOSSO
62
256
10
-2.377641
20
-2.5
30
1.478791
11
-2.377641
21
-2.377641
31
1.478791
0
LINE
8
MAXSPINTA
62
61
48
31.65637094946422
10
-1.469463
20
-2.5
30
2.299687571956614
11
-1.469463
21
-2.022542
31
2.2539414232140667
0
LINE
8
MINSPINTA
62
21
48
10.232905989663186
10
-1.469463
20
-2.5
30
2.0225420000000005
11
-1.469463
21
-2.022542
31
2.1312474171496945
0
LINE
8
MEDIONETWORK
62
41
48
16.613394176219938
10
-1.469463
20
-2.5
30
2.198580480407079
11
-1.469463
21
-2.022542
31
2.2001047297938947
0
LINE
8
ASSE
62
253
10
-1.469463
20
-2.5
30
2.2029795
11
-1.469463
21
-2.022542
31
2.2029795
0
LINE
8
INTRADOSSO
62
256
10
-1.469463
20
-2.5
30
2.022542
11
-1.469463
21
-2.022542
31
2.022542
0
LINE
8
ESTRADOSSO
62
256
10
-1.469463
20
-2.5
30
2.383417
11
-1.469463
21
-2.022542
31
2.383417
0
LINE
8
MAXSPINTA
62
61
48
31.55141610740884
10
-1.469463
20
-2.022542
30
2.2539414232140667
11
-1.469463
21
-1.469463
31
2.2815912566913368
0
LINE
8
MINSPINTA
62
21
48
10.288576725095611
10
-1.469463
20
-2.022542
30
2.1312474171496945
11
-1.469463
21
-1.469463
31
2.270412402094818
0
LINE
8
MEDIONETWORK
62
41
48
16.747397110188697
10
-1.469463
20
-2.022542
30
2.2001047297938947
11
-1.469463
21
-1.469463
31
2.270516121510725
0
LINE
8
ASSE
62
253
10
-1.469463
20
-2.022542
30
2.2029795
11
-1.469463
21
-1.469463
31
2.2029795
0
LINE
8
INTRADOSSO
62
256
10
-1.469463
20
-2.022542
30
2.022542
11
-1.469463
21
-1.469463
31
2.022542
0
LINE
8
ESTRADOSSO
62
256
10
-1.469463
20
-2.022542
30
2.383417
11
-1.469463
21
-1.469463
31
2.383417
0
LINE
8
MAXSPINTA
62
61
48
32.36081956429603
10
-0.0
20
-2.977458
30
2.8
11
-0.0
21
-2.5
31
2.6884400404274484
0
LINE
8
MINSPINTA
62
21
48
11.438649806083504
10
-0.0
20
-2.977458
30
2.232318690273669
11
-0.0
21
-2.5
31
2.5
0
LINE
8
MEDIONETWORK
62
41
48
16.617366165645322
10
-0.0
20
-2.977458
30
2.6510066412305218
11
-0.0
21
-2.5
31
2.661558579040749
0
LINE
8
ASSE
62
253
10
-0.0
20
-2.977458
30
2.4
11
-0.0
21
-2.5
31
2.65
0
LINE
8
INTRADOSSO
62
256
10
-0.0
20
-2.977458
30
2.0
11
-0.0
21
-2.5
31
2.5
0
LINE
8
ESTRADOSSO
62
256
10
-0.0
20
-2.977458
30
2.8
11
-0.0
21
-2.5
31
2.8
0
LINE
8
MAXSPINTA
62
61
48
32.25719975453541
10
-0.772542
20
-2.977458
30
2.691315
11
-0.772542
21
-2.5
31
2.5868713040279387
0
LINE
8
MINSPINTA
62
21
48
11.242188813262818
10
-0.772542
20
-2.977458
30
2.129750649491087
11
-0.772542
21
-2.5
31
2.3776410000000006
0
LINE
8
MEDIONETWORK
62
41
48
16.621055891958363
10
-0.772542
20
-2.977458
30
2.5243507309442306
11
-0.772542
21
-2.5
31
2.5389328933205895
0
LINE
8
ASSE
62
253
10
-0.772542
20
-2.977458
30
2.284478
11
-0.772542
21
-2.5
31
2.534478
0
LINE
8
INTRADOSSO
62
256
10
-0.772542
20
-2.977458
30
1.877641
11
-0.772542
21
-2.5
31
2.377641
0
LINE
8
ESTRADOSSO
62
256
10
-0.772542
20
-2.977458
30
2.691315
11
-0.772542
21
-2.5
31
2.691315
0
LINE
8
MAXSPINTA
62
61
48
31.992936709745017
10
-1.469463
20
-2.977458
30
2.383417
11
-1.469463
21
-2.5
31
2.299687571956614
0
LINE
8
MINSPINTA
62
21
48
10.737742993599195
10
-1.469463
20
-2.977458
30
1.8326480627348993
11
-1.469463
21
-2.5
31
2.0225420000000005
0
LINE
8
MEDIONETWORK
62
41
48
16.620232449306975
10
-1.469463
20
-2.977458
30
2.184795303944727
11
-1.469463
21
-2.5
31
2.198580480407079
0
LINE
8
ASSE
62
253
10
-1.469463
20
-2.977458
30
1.9529795
11
-1.469463
21
-2.5
31
2.2029795
0
LINE
8
INTRADOSSO
62
256
10
-1.469463
20
-2.977458
30
1.522542
11
-1.469463
21
-2.5
31
2.022542
0
LINE
8
ESTRADOSSO
62
256
10
-1.469463
20
-2.977458
30
2.383417
11
-1.469463
21
-2.5
31
2.383417
0
LINE
8
MAXSPINTA
62
61
48
31.757665189815096
10
-2.022542
20
-2.977458
30
1.936317
11
-2.022542
21
-2.5
31
1.876589678337222
0
LINE
8
MINSPINTA
62
21
48
10.075898726628967
10
-2.022542
20
-2.977458
30
1.4022680722573087
11
-2.022542
21
-2.5
31
1.469463
0
LINE
8
MEDIONETWORK
62
41
48
16.969252313108477
10
-2.022542
20
-2.977458
30
1.8022847531631614
11
-2.022542
21
-2.5
31
1.702921447215005
0
LINE
8
ASSE
62
253
10
-2.022542
20
-2.977458
30
1.45289
11
-2.022542
21
-2.5
31
1.70289
0
LINE
8
INTRADOSSO
62
256
10
-2.022542
20
-2.977458
30
0.969463
11
-2.022542
21
-2.5
31
1.469463
0
LINE
8
ESTRADOSSO
62
256
10
-2.022542
20
-2.977458
30
1.936317
11
-2.022542
21
-2.5
31
1.936317
0
LINE
8
MAXSPINTA
62
81
48
41.125130058329276
10
-2.377641
20
-2.977458
30
0.9999999999999999
11
-2.377641
21
-2.5
31
1.4003767716463067
0
LINE
8
MINSPINTA
62
21
48
11.05194113962572
10
-2.377641
20
-2.977458
30
1.0
11
-2.377641
21
-2.5
31
0.7725420000000005
0
LINE
8
MEDIONETWORK
62
41
48
16.710711272950533
10
-2.377641
20
-2.977458
30
1.0
11
-2.377641
21
-2.5
31
1.0517775034701455
0
LINE
8
ASSE
62
253
10
-2.377641
20
-2.977458
30
0.636271
11
-2.377641
21
-2.5
31
1.1256665
0
LINE
8
INTRADOSSO
62
256
10
-2.377641
20
-2.977458
30
0.272542
11
-2.377641
21
-2.5
31
0.772542
0
LINE
8
ESTRADOSSO
62
256
10
-2.377641
20
-2.977458
30
1.0
11
-2.377641
21
-2.5
31
1.478791
0
LINE
8
MAXSPINTA
62
61
48
32.36081956429605
10
-2.977458
20
-0.0
30
2.8
11
-2.5
21
0.0
31
2.6884400404274476
0
LINE
8
MINSPINTA
62
21
48
11.438649806164921
10
-2.977458
20
-0.0
30
2.2323186902657026
11
-2.5
21
0.0
31
2.5
0
LINE
8
MEDIONETWORK
62
41
48
16.617366166101238
10
-2.977458
20
-0.0
30
2.65100664216765
11
-2.5
21
0.0
31
2.6615585805709006
0
LINE
8
ASSE
62
253
10
-2.977458
20
-0.0
30
2.4
11
-2.5
21
0.0
31
2.65
0
LINE
8
INTRADOSSO
62
256
10
-2.977458
20
-0.0
30
2.0
11
-2.5
21
0.0
31
2.5
0
LINE
8
ESTRADOSSO
62
256
10
-2.977458
20
-0.0
30
2.8
11
-2.5
21
0.0
31
2.8
0
LINE
8
MAXSPINTA
62
61
48
32.25719975453539
10
-2.977458
20
-0.772542
30
2.691315
11
-2.5
21
-0.772542
31
2.5868713040279396
0
LINE
8
MINSPINTA
62
21
48
11.242188813278503
10
-2.977458
20
-0.772542
30
2.129750649489458
11
-2.5
21
-0.772542
31
2.377641
0
LINE
8
MEDIONETWORK
62
41
48
16.62105589170641
10
-2.977458
20
-0.772542
30
2.524350732338408
11
-2.5
21
-0.772542
31
2.5389328944775658
0
LINE
8
ASSE
62
253
10
-2.977458
20
-0.772542
30
2.284478
11
-2.5
21
-0.772542
31
2.534478
0
LINE
8
INTRADOSSO
62
256
10
-2.977458
20
-0.772542
30
1.877641
11
-2.5
21
-0.772542
31
2.377641
0
LINE
8
ESTRADOSSO
62
256
10
-2.977458
20
-0.772542
30
2.691315
11
-2.5
21
-0.772542
31
2.691315
0
LINE
8
MAXSPINTA
62
61
48
31.992936709745017
10
-2.977458
20
-1.469463
30
2.383417
11
-2.5
21
-1.469463
31
2.299687571956614
0
LINE
8
MINSPINTA
62
21
48
10.737742993788345
10
-2.977458
20
-1.469463
30
1.8326480627104065
11
-2.5
21
-1.469463
31
2.022542
0
LINE
8
MEDIONETWORK
62
41
48
16.620232448587103
10
-2.977458
20
-1.469463
30
2.1847953055266136
11
-2.5
21
-1.469463
31
2.1985804812721015
0
LINE
8
ASSE
62
253
10
-2.977458
20
-1.469463
30
1.9529795
11
-2.5
21
-1.469463
31
2.2029795
0
LINE
8
INTRADOSSO
62
256
10
-2.977458
20
-1.469463
30
1.522542
11
-2.5
21
-1.469463
31
2.022542
0
LINE
8
ESTRADOSSO
62
256
10
-2.977458
20
-1.469463
30
2.383417
11
-2.5
21
-1.469463
31
2.383417
0
LINE
8
MAXSPINTA
62
61
48
31.757665189815096
10
-2.977458
20
-2.022542
30
1.936317
11
-2.5
21
-2.022542
31
1.8765896783372218
0
LINE
8
MINSPINTA
62
21
48
10.075898726086077
10
-2.977458
20
-2.022542
30
1.4022680724437233
11
-2.5
21
-2.022542
31
1.469463
0
LINE
8
MEDIONETWORK
62
41
48
16.969252312748363
10
-2.977458
20
-2.022542
30
1.8022847532971387
11
-2.5
21
-2.022542
31
1.7029214473997787
0
LINE
8
ASSE
62
253
10
-2.977458
20
-2.022542
30
1.45289
11
-2.5
21
-2.022542
31
1.70289
0
LINE
8
INTRADOSSO
62
256
10
-2.977458
20
-2.022542
30
0.969463
11
-2.5
21
-2.022542
31
1.469463
0
LINE
8
ESTRADOSSO
62
256
10
-2.977458
20
-2.022542
30
1.936317
11
-2.5
21
-2.022542
31
1.936317
0
LINE
8
MAXSPINTA
62
81
48
41.12513005832927
10
-2.977458
20
-2.377641
30
0.9999999999999998
11
-2.5
21
-2.377641
31
1.4003767716463065
0
LINE
8
MINSPINTA
62
21
48
11.051941139625722
10
-2.977458
20
-2.377641
30
1.0
11
-2.5
21
-2.377641
31
0.7725420000000001
0
LINE
8
MEDIONETWORK
62
41
48
16.71071127297895
10
-2.977458
20
-2.377641
30
1.0
11
-2.5
21
-2.377641
31
1.0517775034777201
0
LINE
8
ASSE
62
253
10
-2.977458
20
-2.377641
30
0.636271
11
-2.5
21
-2.377641
31
1.1256665
0
LINE
8
INTRADOSSO
62
256
10
-2.977458
20
-2.377641
30
0.272542
11
-2.5
21
-2.377641
31
0.772542
0
LINE
8
ESTRADOSSO
62
256
10
-2.977458
20
-2.377641
30
1.0
11
-2.5
21
-2.377641
31
1.478791
0
LINE
8
MAXSPINTA
62
101
48
65.31731780378908
10
-2.5
20
2.5
30
1.2609519999999999
11
-2.377641
21
2.377641
31
1.4669164496418872
0
LINE
8
MINSPINTA
62
81
48
42.84421636135131
10
-2.5
20
2.5
30
0.28809957817168574
11
-2.377641
21
2.377641
31
0.8178411085978498
0
LINE
8
MEDIONETWORK
62
101
48
54.84705925851373
10
-2.5
20
2.5
30
0.7132910563759822
11
-2.377641
21
2.377641
31
1.1052524705745066
0
LINE
8
ASSE
62
253
10
-2.5
20
2.5
30
0.630476
11
-2.377641
21
2.377641
31
1.1256665
0
LINE
8
INTRADOSSO
62
256
10
-2.5
20
2.5
30
0.0
11
-2.377641
21
2.377641
31
0.772542
0
LINE
8
ESTRADOSSO
62
256
10
-2.5
20
2.5
30
1.260952
11
-2.377641
21
2.377641
31
1.478791
0
LINE
8
MAXSPINTA
62
181
48
117.39691429743863
10
-2.377641
20
2.377641
30
1.4669164496418872
11
-2.022542
21
2.022542
31
1.9267730159413818
0
LINE
8
MINSPINTA
62
81
48
51.091587917962386
10
-2.377641
20
2.377641
30
0.8178411085978498
11
-2.022542
21
2.022542
31
1.607636031724999
0
LINE
8
MEDIONETWORK
62
121
48
75.14766342239122
10
-2.377641
20
2.377641
30
1.1052524705745066
11
-2.022542
21
2.022542
31
1.7620164965236595
0
LINE
8
ASSE
62
253
10
-2.377641
20
2.377641
30
1.1256665
11
-2.022542
21
2.022542
31
1.70289
0
LINE
8
INTRADOSSO
62
256
10
-2.377641
20
2.377641
30
0.772542
11
-2.022542
21
2.022542
31
1.469463
0
LINE
8
ESTRADOSSO
62
256
10
-2.377641
20
2.377641
30
1.478791
11
-2.022542
21
2.022542
31
1.936317
0
LINE
8
MAXSPINTA
62
141
48
82.59899657563524
10
-2.022542
20
2.022542
30
1.9267730159413818
11
-1.469463
21
1.469463
31
2.281591256691337
0
LINE
8
MINSPINTA
62
61
48
31.217718930278725
10
-2.022542
20
2.022542
30
1.607636031724999
11
-1.469463
21
1.469463
31
2.2704124019089433
0
LINE
8
MEDIONETWORK
62
81
48
47.30076230743222
10
-2.022542
20
2.022542
30
1.7620164965236595
11
-1.469463
21
1.469463
31
2.2705161246493413
0
LINE
8
ASSE
62
253
10
-2.022542
20
2.022542
30
1.70289
11
-1.469463
21
1.469463
31
2.2029795
0
LINE
8
INTRADOSSO
62
256
10
-2.022542
20
2.022542
30
1.469463
11
-1.469463
21
1.469463
31
2.022542
0
LINE
8
ESTRADOSSO
62
256
10
-2.022542
20
2.022542
30
1.936317
11
-1.469463
21
1.469463
31
2.383417
0
LINE
8
MAXSPINTA
62
121
48
68.50031748876859
10
-1.469463
20
1.469463
30
2.281591256691337
11
-0.772542
21
0.772542
31
2.4639687279832523
0
LINE
8
MINSPINTA
62
41
48
23.028092688096052
10
-1.469463
20
1.469463
30
2.2704124019089433
11
-0.772542
21
0.772542
31
2.6718369207948665
0
LINE
8
MEDIONETWORK
62
61
48
36.94438167666493
10
-1.469463
20
1.469463
30
2.2705161246493413
11
-0.772542
21
0.772542
31
2.553379117971702
0
LINE
8
ASSE
62
253
10
-1.469463
20
1.469463
30
2.2029795
11
-0.772542
21
0.772542
31
2.534478
0
LINE
8
INTRADOSSO
62
256
10
-1.469463
20
1.469463
30
2.022542
11
-0.772542
21
0.772542
31
2.377641
0
LINE
8
ESTRADOSSO
62
256
10
-1.469463
20
1.469463
30
2.383417
11
-0.772542
21
0.772542
31
2.691315
0
LINE
8
MAXSPINTA
62
101
48
62.147697340640235
10
-0.772542
20
0.772542
30
2.4639687279832523
11
-0.0
21
0.0
31
2.5000000000000004
0
LINE
8
MINSPINTA
62
41
48
19.739569445446065
10
-0.772542
20
0.772542
30
2.6718369207948665
11
-0.0
21
0.0
31
2.7658083771266124
0
LINE
8
MEDIONETWORK
62
61
48
32.798072045790455
10
-0.772542
20
0.772542
30
2.553379117971702
11
-0.0
21
0.0
31
2.6145651658019946
0
LINE
8
ASSE
62
253
10
-0.772542
20
0.772542
30
2.534478
11
-0.0
21
0.0
31
2.65
0
LINE
8
INTRADOSSO
62
256
10
-0.772542
20
0.772542
30
2.377641
11
-0.0
21
0.0
31
2.5
0
LINE
8
ESTRADOSSO
62
256
10
-0.772542
20
0.772542
30
2.691315
11
-0.0
21
0.0
31
2.8
0
LINE
8
MAXSPINTA
62
61
48
32.24829169246855
10
-2.5
20
2.5
30
1.2609519999999999
11
-2.5
21
2.377641
31
1.4003767716463065
0
LINE
8
MINSPINTA
62
61
48
27.502831727845464
10
-2.5
20
2.5
30
0.28809957817168574
11
-2.5
21
2.377641
31
0.7725420000000002
0
LINE
8
MEDIONETWORK
62
61
48
32.98735117551214
10
-2.5
20
2.5
30
0.7132910563759822
11
-2.5
21
2.377641
31
1.0517775070987891
0
LINE
8
ASSE
62
253
10
-2.5
20
2.5
30
0.630476
11
-2.5
21
2.377641
31
1.1256665
0
LINE
8
INTRADOSSO
62
256
10
-2.5
20
2.5
30
0.0
11
-2.5
21
2.377641
31
0.772542
0
LINE
8
ESTRADOSSO
62
256
10
-2.5
20
2.5
30
1.260952
11
-2.5
21
2.377641
31
1.478791
0
LINE
8
MAXSPINTA
62
61
48
35.58397315989655
10
-2.5
20
2.377641
30
1.4003767716463065
11
-2.5
21
2.022542
31
1.876589678337222
0
LINE
8
MINSPINTA
62
41
48
14.835267688315964
10
-2.5
20
2.377641
30
0.7725420000000002
11
-2.5
21
2.022542
31
1.469463
0
LINE
8
MEDIONETWORK
62
41
48
23.422773546674048
10
-2.5
20
2.377641
30
1.0517775070987891
11
-2.5
21
2.022542
31
1.7029214511211095
0
LINE
8
ASSE
62
253
10
-2.5
20
2.377641
30
1.1256665
11
-2.5
21
2.022542
31
1.70289
0
LINE
8
INTRADOSSO
62
256
10
-2.5
20
2.377641
30
0.772542
11
-2.5
21
2.022542
31
1.469463
0
LINE
8
ESTRADOSSO
62
256
10
-2.5
20
2.377641
30
1.478791
11
-2.5
21
2.022542
31
1.936317
0
LINE
8
MAXSPINTA
62
61
48
26.781607189701457
10
-2.5
20
2.022542
30
1.876589678337222
11
-2.5
21
1.469463
31
2.299687571956614
0
LINE
8
MINSPINTA
62
21
48
9.524828476822533
10
-2.5
20
2.022542
30
1.469463
11
-2.5
21
1.469463
31
2.022542
0
LINE
8
MEDIONETWORK
62
41
48
15.058724643656923
10
-2.5
20
2.022542
30
1.7029214511211095
11
-2.5
21
1.469463
31
2.1985804837454848
0
LINE
8
ASSE
62
253
10
-2.5
20
2.022542
30
1.70289
11
-2.5
21
1.469463
31
2.2029795
0
LINE
8
INTRADOSSO
62
256
10
-2.5
20
2.022542
30
1.469463
11
-2.5
21
1.469463
31
2.022542
0
LINE
8
ESTRADOSSO
62
256
10
-2.5
20
2.022542
30
1.936317
11
-2.5
21
1.469463
31
2.383417
0
LINE
8
MAXSPINTA
62
41
48
23.006519691433628
10
-2.5
20
1.469463
30
2.299687571956614
11
-2.5
21
0.772542
31
2.586871304027939
0
LINE
8
MINSPINTA
62
21
48
7.558946739807394
10
-2.5
20
1.469463
30
2.022542
11
-2.5
21
0.772542
31
2.377641
0
LINE
8
MEDIONETWORK
62
21
48
12.4802010634251
10
-2.5
20
1.469463
30
2.1985804837454848
11
-2.5
21
0.772542
31
2.538932895958641
0
LINE
8
ASSE
62
253
10
-2.5
20
1.469463
30
2.2029795
11
-2.5
21
0.772542
31
2.534478
0
LINE
8
INTRADOSSO
62
256
10
-2.5
20
1.469463
30
2.022542
11
-2.5
21
0.772542
31
2.377641
0
LINE
8
ESTRADOSSO
62
256
10
-2.5
20
1.469463
30
2.383417
11
-2.5
21
0.772542
31
2.691315
0
LINE
8
MAXSPINTA
62
41
48
21.45435255150361
10
-2.5
20
0.772542
30
2.586871304027939
11
-2.5
21
0.0
31
2.6884400404274476
0
LINE
8
MINSPINTA
62
21
48
6.819024811858773
10
-2.5
20
0.772542
30
2.377641
11
-2.5
21
0.0
31
2.5
0
LINE
8
MEDIONETWORK
62
21
48
11.354726023035761
10
-2.5
20
0.772542
30
2.538932895958641
11
-2.5
21
0.0
31
2.6615585805709006
0
LINE
8
ASSE
62
253
10
-2.5
20
0.772542
30
2.534478
11
-2.5
21
0.0
31
2.65
0
LINE
8
INTRADOSSO
62
256
10
-2.5
20
0.772542
30
2.377641
11
-2.5
21
0.0
31
2.5
0
LINE
8
ESTRADOSSO
62
256
10
-2.5
20
0.772542
30
2.691315
11
-2.5
21
0.0
31
2.8
0
LINE
8
MAXSPINTA
62
81
48
45.945247019473165
10
-2.022542
20
2.022542
30
1.9267730159413818
11
-2.022542
21
1.469463
31
2.253941423214066
0
LINE
8
MINSPINTA
62
41
48
17.241935405492434
10
-2.022542
20
2.022542
30
1.607636031724999
11
-2.022542
21
1.469463
31
2.1312474170072364
0
LINE
8
MEDIONETWORK
62
41
48
26.595854293255314
10
-2.022542
20
2.022542
30
1.7620164965236595
11
-2.022542
21
1.469463
31
2.2001047330319694
0
LINE
8
ASSE
62
253
10
-2.022542
20
2.022542
30
1.70289
11
-2.022542
21
1.469463
31
2.2029795
0
LINE
8
INTRADOSSO
62
256
10
-2.022542
20
2.022542
30
1.469463
11
-2.022542
21
1.469463
31
2.022542
0
LINE
8
ESTRADOSSO
62
256
10
-2.022542
20
2.022542
30
1.936317
11
-2.022542
21
1.469463
31
2.383417
0
LINE
8
MAXSPINTA
62
81
48
41.88251151623734
10
-2.022542
20
1.469463
30
2.253941423214066
11
-2.022542
21
0.772542
31
2.497105879962771
0
LINE
8
MINSPINTA
62
41
48
14.160825676845452
10
-2.022542
20
1.469463
30
2.1312474170072364
11
-2.022542
21
0.772542
31
2.499436308745589
0
LINE
8
MEDIONETWORK
62
41
48
22.890489706436068
10
-2.022542
20
1.469463
30
2.2001047330319694
11
-2.022542
21
0.772542
31
2.5160572769550464
0
LINE
8
ASSE
62
253
10
-2.022542
20
1.469463
30
2.2029795
11
-2.022542
21
0.772542
31
2.534478
0
LINE
8
INTRADOSSO
62
256
10
-2.022542
20
1.469463
30
2.022542
11
-2.022542
21
0.772542
31
2.377641
0
LINE
8
ESTRADOSSO
62
256
10
-2.022542
20
1.469463
30
2.383417
11
-2.022542
21
0.772542
31
2.691315
0
LINE
8
MAXSPINTA
62
61
48
39.80471130032544
10
-2.022542
20
0.772542
30
2.497105879962771
11
-2.022542
21
0.0
31
2.585868325703093
0
LINE
8
MINSPINTA
62
21
48
12.699810513706172
10
-2.022542
20
0.772542
30
2.499436308745589
11
-2.022542
21
0.0
31
2.6305087866853047
0
LINE
8
MEDIONETWORK
62
41
48
21.0764920805834
10
-2.022542
20
0.772542
30
2.5160572769550464
11
-2.022542
21
0.0
31
2.6307286519808124
0
LINE
8
ASSE
62
253
10
-2.022542
20
0.772542
30
2.534478
11
-2.022542
21
0.0
31
2.65
0
LINE
8
INTRADOSSO
62
256
10
-2.022542
20
0.772542
30
2.377641
11
-2.022542
21
0.0
31
2.5
0
LINE
8
ESTRADOSSO
62
256
10
-2.022542
20
0.772542
30
2.691315
11
-2.022542
21
0.0
31
2.8
0
LINE
8
MAXSPINTA
62
61
48
38.37334108362014
10
-1.469463
20
1.469463
30
2.281591256691337
11
-1.469463
21
0.772542
31
2.4677875379417085
0
LINE
8
MINSPINTA
62
21
48
13.074569061889807
10
-1.469463
20
1.469463
30
2.2704124019089433
11
-1.469463
21
0.772542
31
2.612281260218121
0
LINE
8
MEDIONETWORK
62
41
48
20.902580503733244
10
-1.469463
20
1.469463
30
2.2705161246493413
11
-1.469463
21
0.772542
31
2.5347354420464896
0
LINE
8
ASSE
62
253
10
-1.469463
20
1.469463
30
2.2029795
11
-1.469463
21
0.772542
31
2.534478
0
LINE
8
INTRADOSSO
62
256
10
-1.469463
20
1.469463
30
2.022542
11
-1.469463
21
0.772542
31
2.377641
0
LINE
8
ESTRADOSSO
62
256
10
-1.469463
20
1.469463
30
2.383417
11
-1.469463
21
0.772542
31
2.691315
0
LINE
8
MAXSPINTA
62
61
48
37.2292393412036
10
-1.469463
20
0.772542
30
2.4677875379417085
11
-1.469463
21
0.0
31
2.5387845761274237
0
LINE
8
MINSPINTA
62
21
48
11.897755203991982
10
-1.469463
20
0.772542
30
2.612281260218121
11
-1.469463
21
0.0
31
2.7400406278444116
0
LINE
8
MEDIONETWORK
62
41
48
19.707703585871617
10
-1.469463
20
0.772542
30
2.5347354420464896
11
-1.469463
21
0.0
31
2.634603161721118
0
LINE
8
ASSE
62
253
10
-1.469463
20
0.772542
30
2.534478
11
-1.469463
21
0.0
31
2.65
0
LINE
8
INTRADOSSO
62
256
10
-1.469463
20
0.772542
30
2.377641
11
-1.469463
21
0.0
31
2.5
0
LINE
8
ESTRADOSSO
62
256
10
-1.469463
20
0.772542
30
2.691315
11
-1.469463
21
0.0
31
2.8
0
LINE
8
MAXSPINTA
62
61
48
35.3104805523021
10
-0.772542
20
0.772542
30
2.4639687279832523
11
-0.772542
21
0.0
31
2.5195753124555007
0
LINE
8
MINSPINTA
62
21
48
11.303819708593139
10
-0.772542
20
0.772542
30
2.6718369207948665
11
-0.772542
21
0.0
31
2.8
0
LINE
8
MEDIONETWORK
62
41
48
18.688816823077754
10
-0.772542
20
0.772542
30
2.553379117971702
11
-0.772542
21
0.0
31
2.641718894325775
0
LINE
8
ASSE
62
253
10
-0.772542
20
0.772542
30
2.534478
11
-0.772542
21
0.0
31
2.65
0
LINE
8
INTRADOSSO
62
256
10
-0.772542
20
0.772542
30
2.377641
11
-0.772542
21
0.0
31
2.5
0
LINE
8
ESTRADOSSO
62
256
10
-0.772542
20
0.772542
30
2.691315
11
-0.772542
21
0.0
31
2.8
0
LINE
8
MAXSPINTA
62
61
48
32.06414846158013
10
-2.5
20
0.772542
30
2.586871304027939
11
-2.022542
21
0.772542
31
2.497105879962771
0
LINE
8
MINSPINTA
62
21
48
10.297085903739475
10
-2.5
20
0.772542
30
2.377641
11
-2.022542
21
0.772542
31
2.499436308745589
0
LINE
8
MEDIONETWORK
62
41
48
16.632366429461722
10
-2.5
20
0.772542
30
2.538932895958641
11
-2.022542
21
0.772542
31
2.5160572769550464
0
LINE
8
ASSE
62
253
10
-2.5
20
0.772542
30
2.534478
11
-2.022542
21
0.772542
31
2.534478
0
LINE
8
INTRADOSSO
62
256
10
-2.5
20
0.772542
30
2.377641
11
-2.022542
21
0.772542
31
2.377641
0
LINE
8
ESTRADOSSO
62
256
10
-2.5
20
0.772542
30
2.691315
11
-2.022542
21
0.772542
31
2.691315
0
LINE
8
MAXSPINTA
62
61
48
31.556305529833587
10
-2.022542
20
0.772542
30
2.497105879962771
11
-1.469463
21
0.772542
31
2.4677875379417085
0
LINE
8
MINSPINTA
62
21
48
10.183131823693039
10
-2.022542
20
0.772542
30
2.499436308745589
11
-1.469463
21
0.772542
31
2.612281260218121
0
LINE
8
MEDIONETWORK
62
41
48
16.622780532215465
10
-2.022542
20
0.772542
30
2.5160572769550464
11
-1.469463
21
0.772542
31
2.5347354420464896
0
LINE
8
ASSE
62
253
10
-2.022542
20
0.772542
30
2.534478
11
-1.469463
21
0.772542
31
2.534478
0
LINE
8
INTRADOSSO
62
256
10
-2.022542
20
0.772542
30
2.377641
11
-1.469463
21
0.772542
31
2.377641
0
LINE
8
ESTRADOSSO
62
256
10
-2.022542
20
0.772542
30
2.691315
11
-1.469463
21
0.772542
31
2.691315
0
LINE
8
MAXSPINTA
62
61
48
31.512535406950207
10
-1.469463
20
0.772542
30
2.4677875379417085
11
-0.772542
21
0.772542
31
2.4639687279832523
0
LINE
8
MINSPINTA
62
21
48
10.013938923864208
10
-1.469463
20
0.772542
30
2.612281260218121
11
-0.772542
21
0.772542
31
2.6718369207948665
0
LINE
8
MEDIONETWORK
62
41
48
16.6192530486078
10
-1.469463
20
0.772542
30
2.5347354420464896
11
-0.772542
21
0.772542
31
2.553379117971702
0
LINE
8
ASSE
62
253
10
-1.469463
20
0.772542
30
2.534478
11
-0.772542
21
0.772542
31
2.534478
0
LINE
8
INTRADOSSO
62
256
10
-1.469463
20
0.772542
30
2.377641
11
-0.772542
21
0.772542
31
2.377641
0
LINE
8
ESTRADOSSO
62
256
10
-1.469463
20
0.772542
30
2.691315
11
-0.772542
21
0.772542
31
2.691315
0
LINE
8
MAXSPINTA
62
61
48
31.68564288708428
10
-2.5
20
2.022542
30
1.876589678337222
11
-2.022542
21
2.022542
31
1.9267730159413818
0
LINE
8
MINSPINTA
62
21
48
10.386977209780419
10
-2.5
20
2.022542
30
1.469463
11
-2.022542
21
2.022542
31
1.607636031724999
0
LINE
8
MEDIONETWORK
62
41
48
16.740075925921598
10
-2.5
20
2.022542
30
1.7029214511211095
11
-2.022542
21
2.022542
31
1.7620164965236595
0
LINE
8
ASSE
62
253
10
-2.5
20
2.022542
30
1.70289
11
-2.022542
21
2.022542
31
1.70289
0
LINE
8
INTRADOSSO
62
256
10
-2.5
20
2.022542
30
1.469463
11
-2.022542
21
2.022542
31
1.469463
0
LINE
8
ESTRADOSSO
62
256
10
-2.5
20
2.022542
30
1.936317
11
-2.022542
21
2.022542
31
1.936317
0
LINE
8
MAXSPINTA
62
61
48
35.87016863286608
10
-2.5
20
2.377641
30
1.4003767716463065
11
-2.377641
21
2.377641
31
1.4669164496418872
0
LINE
8
MINSPINTA
62
21
48
10.639383179030487
10
-2.5
20
2.377641
30
0.7725420000000002
11
-2.377641
21
2.377641
31
0.8178411085978498
0
LINE
8
MEDIONETWORK
62
41
48
18.13058008019469
10
-2.5
20
2.377641
30
1.0517775070987891
11
-2.377641
21
2.377641
31
1.1052524705745066
0
LINE
8
ASSE
62
253
10
-2.5
20
2.377641
30
1.1256665
11
-2.377641
21
2.377641
31
1.1256665
0
LINE
8
INTRADOSSO
62
256
10
-2.5
20
2.377641
30
0.772542
11
-2.377641
21
2.377641
31
0.772542
0
LINE
8
ESTRADOSSO
62
256
10
-2.5
20
2.377641
30
1.478791
11
-2.377641
21
2.377641
31
1.478791
0
LINE
8
MAXSPINTA
62
61
48
31.656370949464222
10
-2.5
20
1.469463
30
2.299687571956614
11
-2.022542
21
1.469463
31
2.253941423214066
0
LINE
8
MINSPINTA
62
21
48
10.232905989002314
10
-2.5
20
1.469463
30
2.022542
11
-2.022542
21
1.469463
31
2.1312474170072364
0
LINE
8
MEDIONETWORK
62
41
48
16.613394176208793
10
-2.5
20
1.469463
30
2.1985804837454848
11
-2.022542
21
1.469463
31
2.2001047330319694
0
LINE
8
ASSE
62
253
10
-2.5
20
1.469463
30
2.2029795
11
-2.022542
21
1.469463
31
2.2029795
0
LINE
8
INTRADOSSO
62
256
10
-2.5
20
1.469463
30
2.022542
11
-2.022542
21
1.469463
31
2.022542
0
LINE
8
ESTRADOSSO
62
256
10
-2.5
20
1.469463
30
2.383417
11
-2.022542
21
1.469463
31
2.383417
0
LINE
8
MAXSPINTA
62
61
48
31.551416107408848
10
-2.022542
20
1.469463
30
2.253941423214066
11
-1.469463
21
1.469463
31
2.281591256691337
0
LINE
8
MINSPINTA
62
21
48
10.288576724904491
10
-2.022542
20
1.469463
30
2.1312474170072364
11
-1.469463
21
1.469463
31
2.2704124019089433
0
LINE
8
MEDIONETWORK
62
41
48
16.747397109811406
10
-2.022542
20
1.469463
30
2.2001047330319694
11
-1.469463
21
1.469463
31
2.2705161246493413
0
LINE
8
ASSE
62
253
10
-2.022542
20
1.469463
30
2.2029795
11
-1.469463
21
1.469463
31
2.2029795
0
LINE
8
INTRADOSSO
62
256
10
-2.022542
20
1.469463
30
2.022542
11
-1.469463
21
1.469463
31
2.022542
0
LINE
8
ESTRADOSSO
62
256
10
-2.022542
20
1.469463
30
2.383417
11
-1.469463
21
1.469463
31
2.383417
0
LINE
8
MAXSPINTA
62
61
48
32.24829169246858
10
-2.5
20
2.5
30
1.2609519999999999
11
-2.377641
21
2.5
31
1.4003767716463067
0
LINE
8
MINSPINTA
62
61
48
27.50283172784547
10
-2.5
20
2.5
30
0.28809957817168574
11
-2.377641
21
2.5
31
0.7725420000000003
0
LINE
8
MEDIONETWORK
62
61
48
32.98735118287585
10
-2.5
20
2.5
30
0.7132910563759822
11
-2.377641
21
2.5
31
1.0517775071842226
0
LINE
8
ASSE
62
253
10
-2.5
20
2.5
30
0.630476
11
-2.377641
21
2.5
31
1.1256665
0
LINE
8
INTRADOSSO
62
256
10
-2.5
20
2.5
30
0.0
11
-2.377641
21
2.5
31
0.772542
0
LINE
8
ESTRADOSSO
62
256
10
-2.5
20
2.5
30
1.260952
11
-2.377641
21
2.5
31
1.478791
0
LINE
8
MAXSPINTA
62
61
48
35.58397315989655
10
-2.377641
20
2.5
30
1.4003767716463067
11
-2.022542
21
2.5
31
1.8765896783372222
0
LINE
8
MINSPINTA
62
41
48
14.835267688315973
10
-2.377641
20
2.5
30
0.7725420000000003
11
-2.022542
21
2.5
31
1.4694630000000006
0
LINE
8
MEDIONETWORK
62
41
48
23.42277356765151
10
-2.377641
20
2.5
30
1.0517775071842226
11
-2.022542
21
2.5
31
1.702921451963143
0
LINE
8
ASSE
62
253
10
-2.377641
20
2.5
30
1.1256665
11
-2.022542
21
2.5
31
1.70289
0
LINE
8
INTRADOSSO
62
256
10
-2.377641
20
2.5
30
0.772542
11
-2.022542
21
2.5
31
1.469463
0
LINE
8
ESTRADOSSO
62
256
10
-2.377641
20
2.5
30
1.478791
11
-2.022542
21
2.5
31
1.936317
0
LINE
8
MAXSPINTA
62
61
48
26.781607189701454
10
-2.022542
20
2.5
30
1.8765896783372222
11
-1.469463
21
2.5
31
2.299687571956614
0
LINE
8
MINSPINTA
62
21
48
9.52482847682253
10
-2.022542
20
2.5
30
1.4694630000000006
11
-1.469463
21
2.5
31
2.022542
0
LINE
8
MEDIONETWORK
62
41
48
15.058724662171137
10
-2.022542
20
2.5
30
1.702921451963143
11
-1.469463
21
2.5
31
2.198580485955682
0
LINE
8
ASSE
62
253
10
-2.022542
20
2.5
30
1.70289
11
-1.469463
21
2.5
31
2.2029795
0
LINE
8
INTRADOSSO
62
256
10
-2.022542
20
2.5
30
1.469463
11
-1.469463
21
2.5
31
2.022542
0
LINE
8
ESTRADOSSO
62
256
10
-2.022542
20
2.5
30
1.936317
11
-1.469463
21
2.5
31
2.383417
0
LINE
8
MAXSPINTA
62
41
48
23.006519691433628
10
-1.469463
20
2.5
30
2.299687571956614
11
-0.772542
21
2.5
31
2.586871304027939
0
LINE
8
MINSPINTA
62
21
48
7.558946739807395
10
-1.469463
20
2.5
30
2.022542
11
-0.772542
21
2.5
31
2.3776410000000006
0
LINE
8
MEDIONETWORK
62
21
48
12.480201076474165
10
-1.469463
20
2.5
30
2.198580485955682
11
-0.772542
21
2.5
31
2.5389329000167984
0
LINE
8
ASSE
62
253
10
-1.469463
20
2.5
30
2.2029795
11
-0.772542
21
2.5
31
2.534478
0
LINE
8
INTRADOSSO
62
256
10
-1.469463
20
2.5
30
2.022542
11
-0.772542
21
2.5
31
2.377641
0
LINE
8
ESTRADOSSO
62
256
10
-1.469463
20
2.5
30
2.383417
11
-0.772542
21
2.5
31
2.691315
0
LINE
8
MAXSPINTA
62
41
48
21.454352551503604
10
-0.772542
20
2.5
30
2.586871304027939
11
-0.0
21
2.5
31
2.6884400404274467
0
LINE
8
MINSPINTA
62
21
48
6.819024811858771
10
-0.772542
20
2.5
30
2.3776410000000006
11
-0.0
21
2.5
31
2.5
0
LINE
8
MEDIONETWORK
62
21
48
11.35472602814637
10
-0.772542
20
2.5
30
2.5389329000167984
11
-0.0
21
2.5
31
2.6615585868748286
0
LINE
8
ASSE
62
253
10
-0.772542
20
2.5
30
2.534478
11
-0.0
21
2.5
31
2.65
0
LINE
8
INTRADOSSO
62
256
10
-0.772542
20
2.5
30
2.377641
11
-0.0
21
2.5
31
2.5
0
LINE
8
ESTRADOSSO
62
256
10
-0.772542
20
2.5
30
2.691315
11
-0.0
21
2.5
31
2.8
0
LINE
8
MAXSPINTA
62
81
48
45.945247019473165
10
-2.022542
20
2.022542
30
1.9267730159413818
11
-1.469463
21
2.022542
31
2.253941423214066
0
LINE
8
MINSPINTA
62
41
48
17.24193540711578
10
-2.022542
20
2.022542
30
1.607636031724999
11
-1.469463
21
2.022542
31
2.1312474171115388
0
LINE
8
MEDIONETWORK
62
41
48
26.59585432198899
10
-2.022542
20
2.022542
30
1.7620164965236595
11
-1.469463
21
2.022542
31
2.200104734259652
0
LINE
8
ASSE
62
253
10
-2.022542
20
2.022542
30
1.70289
11
-1.469463
21
2.022542
31
2.2029795
0
LINE
8
INTRADOSSO
62
256
10
-2.022542
20
2.022542
30
1.469463
11
-1.469463
21
2.022542
31
2.022542
0
LINE
8
ESTRADOSSO
62
256
10
-2.022542
20
2.022542
30
1.936317
11
-1.469463
21
2.022542
31
2.383417
0
LINE
8
MAXSPINTA
62
81
48
41.88251151623733
10
-1.469463
20
2.022542
30
2.253941423214066
11
-0.772542
21
2.022542
31
2.4971058799627706
0
LINE
8
MINSPINTA
62
41
48
14.160825676206136
10
-1.469463
20
2.022542
30
2.1312474171115388
11
-0.772542
21
2.022542
31
2.4994363087737126
0
LINE
8
MEDIONETWORK
62
41
48
22.890489728259773
10
-1.469463
20
2.022542
30
2.200104734259652
11
-0.772542
21
2.022542
31
2.5160572799495675
0
LINE
8
ASSE
62
253
10
-1.469463
20
2.022542
30
2.2029795
11
-0.772542
21
2.022542
31
2.534478
0
LINE
8
INTRADOSSO
62
256
10
-1.469463
20
2.022542
30
2.022542
11
-0.772542
21
2.022542
31
2.377641
0
LINE
8
ESTRADOSSO
62
256
10
-1.469463
20
2.022542
30
2.383417
11
-0.772542
21
2.022542
31
2.691315
0
LINE
8
MAXSPINTA
62
61
48
39.804711300325444
10
-0.772542
20
2.022542
30
2.4971058799627706
11
-0.0
21
2.022542
31
2.585868325703092
0
LINE
8
MINSPINTA
62
21
48
12.69981051366889
10
-0.772542
20
2.022542
30
2.4994363087737126
11
-0.0
21
2.022542
31
2.6305087866996764
0
LINE
8
MEDIONETWORK
62
41
48
21.076492088729598
10
-0.772542
20
2.022542
30
2.5160572799495675
11
-0.0
21
2.022542
31
2.6307286570312742
0
LINE
8
ASSE
62
253
10
-0.772542
20
2.022542
30
2.534478
11
-0.0
21
2.022542
31
2.65
0
LINE
8
INTRADOSSO
62
256
10
-0.772542
20
2.022542
30
2.377641
11
-0.0
21
2.022542
31
2.5
0
LINE
8
ESTRADOSSO
62
256
10
-0.772542
20
2.022542
30
2.691315
11
-0.0
21
2.022542
31
2.8
0
LINE
8
MAXSPINTA
62
61
48
38.373341083620126
10
-1.469463
20
1.469463
30
2.281591256691337
11
-0.772542
21
1.469463
31
2.4677875379417076
0
LINE
8
MINSPINTA
62
21
48
13.07456906173722
10
-1.469463
20
1.469463
30
2.2704124019089433
11
-0.772542
21
1.469463
31
2.612281260197551
0
LINE
8
MEDIONETWORK
62
41
48
20.902580520638807
10
-1.469463
20
1.469463
30
2.2705161246493413
11
-0.772542
21
1.469463
31
2.534735443746915
0
LINE
8
ASSE
62
253
10
-1.469463
20
1.469463
30
2.2029795
11
-0.772542
21
1.469463
31
2.534478
0
LINE
8
INTRADOSSO
62
256
10
-1.469463
20
1.469463
30
2.022542
11
-0.772542
21
1.469463
31
2.377641
0
LINE
8
ESTRADOSSO
62
256
10
-1.469463
20
1.469463
30
2.383417
11
-0.772542
21
1.469463
31
2.691315
0
LINE
8
MAXSPINTA
62
61
48
37.2292393412036
10
-0.772542
20
1.469463
30
2.4677875379417076
11
-0.0
21
1.469463
31
2.538784576127423
0
LINE
8
MINSPINTA
62
21
48
11.89775520403428
10
-0.772542
20
1.469463
30
2.612281260197551
11
-0.0
21
1.469463
31
2.7400406278409015
0
LINE
8
MEDIONETWORK
62
41
48
19.707703592221268
10
-0.772542
20
1.469463
30
2.534735443746915
11
-0.0
21
1.469463
31
2.6346031653791737
0
LINE
8
ASSE
62
253
10
-0.772542
20
1.469463
30
2.534478
11
-0.0
21
1.469463
31
2.65
0
LINE
8
INTRADOSSO
62
256
10
-0.772542
20
1.469463
30
2.377641
11
-0.0
21
1.469463
31
2.5
0
LINE
8
ESTRADOSSO
62
256
10
-0.772542
20
1.469463
30
2.691315
11
-0.0
21
1.469463
31
2.8
0
LINE
8
MAXSPINTA
62
61
48
35.310480552302096
10
-0.772542
20
0.772542
30
2.4639687279832523
11
-0.0
21
0.772542
31
2.5195753124555
0
LINE
8
MINSPINTA
62
21
48
11.303819708511526
10
-0.772542
20
0.772542
30
2.6718369207948665
11
-0.0
21
0.772542
31
2.7999999999654532
0
LINE
8
MEDIONETWORK
62
41
48
18.688816828234515
10
-0.772542
20
0.772542
30
2.553379117971702
11
-0.0
21
0.772542
31
2.641718896214309
0
LINE
8
ASSE
62
253
10
-0.772542
20
0.772542
30
2.534478
11
-0.0
21
0.772542
31
2.65
0
LINE
8
INTRADOSSO
62
256
10
-0.772542
20
0.772542
30
2.377641
11
-0.0
21
0.772542
31
2.5
0
LINE
8
ESTRADOSSO
62
256
10
-0.772542
20
0.772542
30
2.691315
11
-0.0
21
0.772542
31
2.8
0
LINE
8
MAXSPINTA
62
61
48
32.231023526629535
10
-0.0
20
2.5
30
2.6884400404274467
11
-0.0
21
2.022542
31
2.585868325703092
0
LINE
8
MINSPINTA
62
21
48
10.343598577295007
10
-0.0
20
2.5
30
2.5
11
-0.0
21
2.022542
31
2.6305087866996764
0
LINE
8
MEDIONETWORK
62
41
48
16.64790735183002
10
-0.0
20
2.5
30
2.6615585868748286
11
-0.0
21
2.022542
31
2.6307286570312742
0
LINE
8
ASSE
62
253
10
-0.0
20
2.5
30
2.65
11
-0.0
21
2.022542
31
2.65
0
LINE
8
INTRADOSSO
62
256
10
-0.0
20
2.5
30
2.5
11
-0.0
21
2.022542
31
2.5
0
LINE
8
ESTRADOSSO
62
256
10
-0.0
20
2.5
30
2.8
11
-0.0
21
2.022542
31
2.8
0
LINE
8
MAXSPINTA
62
61
48
31.62604264477048
10
-0.0
20
2.022542
30
2.585868325703092
11
-0.0
21
1.469463
31
2.538784576127423
0
LINE
8
MINSPINTA
62
21
48
10.171351944367254
10
-0.0
20
2.022542
30
2.6305087866996764
11
-0.0
21
1.469463
31
2.7400406278409015
0
LINE
8
MEDIONETWORK
62
41
48
16.61371716118736
10
-0.0
20
2.022542
30
2.6307286570312742
11
-0.0
21
1.469463
31
2.6346031653791737
0
LINE
8
ASSE
62
253
10
-0.0
20
2.022542
30
2.65
11
-0.0
21
1.469463
31
2.65
0
LINE
8
INTRADOSSO
62
256
10
-0.0
20
2.022542
30
2.5
11
-0.0
21
1.469463
31
2.5
0
LINE
8
ESTRADOSSO
62
256
10
-0.0
20
2.022542
30
2.8
11
-0.0
21
1.469463
31
2.8
0
LINE
8
MAXSPINTA
62
61
48
31.52403024984409
10
-0.0
20
1.469463
30
2.538784576127423
11
-0.0
21
0.772542
31
2.5195753124555
0
LINE
8
MINSPINTA
62
21
48
10.01443270088427
10
-0.0
20
1.469463
30
2.7400406278409015
11
-0.0
21
0.772542
31
2.7999999999654532
0
LINE
8
MEDIONETWORK
62
41
48
16.61417545639324
10
-0.0
20
1.469463
30
2.6346031653791737
11
-0.0
21
0.772542
31
2.641718896214309
0
LINE
8
ASSE
62
253
10
-0.0
20
1.469463
30
2.65
11
-0.0
21
0.772542
31
2.65
0
LINE
8
INTRADOSSO
62
256
10
-0.0
20
1.469463
30
2.5
11
-0.0
21
0.772542
31
2.5
0
LINE
8
ESTRADOSSO
62
256
10
-0.0
20
1.469463
30
2.8
11
-0.0
21
0.772542
31
2.8
0
LINE
8
MAXSPINTA
62
61
48
31.522176967157446
10
-0.0
20
0.772542
30
2.5195753124555
11
-0.0
21
0.0
31
2.5000000000000004
0
LINE
8
MINSPINTA
62
21
48
9.987341323996784
10
-0.0
20
0.772542
30
2.7999999999654532
11
-0.0
21
0.0
31
2.7658083771266124
0
LINE
8
MEDIONETWORK
62
41
48
16.6235685624845
10
-0.0
20
0.772542
30
2.641718896214309
11
-0.0
21
0.0
31
2.6145651658019946
0
LINE
8
ASSE
62
253
10
-0.0
20
0.772542
30
2.65
11
-0.0
21
0.0
31
2.65
0
LINE
8
INTRADOSSO
62
256
10
-0.0
20
0.772542
30
2.5
11
-0.0
21
0.0
31
2.5
0
LINE
8
ESTRADOSSO
62
256
10
-0.0
20
0.772542
30
2.8
11
-0.0
21
0.0
31
2.8
0
LINE
8
MAXSPINTA
62
61
48
32.06414846158013
10
-0.772542
20
2.5
30
2.586871304027939
11
-0.772542
21
2.022542
31
2.4971058799627706
0
LINE
8
MINSPINTA
62
21
48
10.29708590388474
10
-0.772542
20
2.5
30
2.3776410000000006
11
-0.772542
21
2.022542
31
2.4994363087737126
0
LINE
8
MEDIONETWORK
62
41
48
16.632366431232867
10
-0.772542
20
2.5
30
2.5389329000167984
11
-0.772542
21
2.022542
31
2.5160572799495675
0
LINE
8
ASSE
62
253
10
-0.772542
20
2.5
30
2.534478
11
-0.772542
21
2.022542
31
2.534478
0
LINE
8
INTRADOSSO
62
256
10
-0.772542
20
2.5
30
2.377641
11
-0.772542
21
2.022542
31
2.377641
0
LINE
8
ESTRADOSSO
62
256
10
-0.772542
20
2.5
30
2.691315
11
-0.772542
21
2.022542
31
2.691315
0
LINE
8
MAXSPINTA
62
61
48
31.556305529833594
10
-0.772542
20
2.022542
30
2.4971058799627706
11
-0.772542
21
1.469463
31
2.4677875379417076
0
LINE
8
MINSPINTA
62
21
48
10.183131823517426
10
-0.772542
20
2.022542
30
2.4994363087737126
11
-0.772542
21
1.469463
31
2.612281260197551
0
LINE
8
MEDIONETWORK
62
41
48
16.62278053090346
10
-0.772542
20
2.022542
30
2.5160572799495675
11
-0.772542
21
1.469463
31
2.534735443746915
0
LINE
8
ASSE
62
253
10
-0.772542
20
2.022542
30
2.534478
11
-0.772542
21
1.469463
31
2.534478
0
LINE
8
INTRADOSSO
62
256
10
-0.772542
20
2.022542
30
2.377641
11
-0.772542
21
1.469463
31
2.377641
0
LINE
8
ESTRADOSSO
62
256
10
-0.772542
20
2.022542
30
2.691315
11
-0.772542
21
1.469463
31
2.691315
0
LINE
8
MAXSPINTA
62
61
48
31.512535406950207
10
-0.772542
20
1.469463
30
2.4677875379417076
11
-0.772542
21
0.772542
31
2.4639687279832523
0
LINE
8
MINSPINTA
62
21
48
10.013938923889281
10
-0.772542
20
1.469463
30
2.612281260197551
11
-0.772542
21
0.772542
31
2.6718369207948665
0
LINE
8
MEDIONETWORK
62
41
48
16.619253047523816
10
-0.772542
20
1.469463
30
2.534735443746915
11
-0.772542
21
0.772542
31
2.553379117971702
0
LINE
8
ASSE
62
253
10
-0.772542
20
1.469463
30
2.534478
11
-0.772542
21
0.772542
31
2.534478
0
LINE
8
INTRADOSSO
62
256
10
-0.772542
20
1.469463
30
2.377641
11
-0.772542
21
0.772542
31
2.377641
0
LINE
8
ESTRADOSSO
62
256
10
-0.772542
20
1.469463
30
2.691315
11
-0.772542
21
0.772542
31
2.691315
0
LINE
8
MAXSPINTA
62
61
48
31.68564288708428
10
-2.022542
20
2.5
30
1.8765896783372222
11
-2.022542
21
2.022542
31
1.9267730159413818
0
LINE
8
MINSPINTA
62
21
48
10.386977209780415
10
-2.022542
20
2.5
30
1.4694630000000006
11
-2.022542
21
2.022542
31
1.607636031724999
0
LINE
8
MEDIONETWORK
62
41
48
16.740075922322738
10
-2.022542
20
2.5
30
1.702921451963143
11
-2.022542
21
2.022542
31
1.7620164965236595
0
LINE
8
ASSE
62
253
10
-2.022542
20
2.5
30
1.70289
11
-2.022542
21
2.022542
31
1.70289
0
LINE
8
INTRADOSSO
62
256
10
-2.022542
20
2.5
30
1.469463
11
-2.022542
21
2.022542
31
1.469463
0
LINE
8
ESTRADOSSO
62
256
10
-2.022542
20
2.5
30
1.936317
11
-2.022542
21
2.022542
31
1.936317
0
LINE
8
MAXSPINTA
62
61
48
35.870168632866054
10
-2.377641
20
2.5
30
1.4003767716463067
11
-2.377641
21
2.377641
31
1.4669164496418872
0
LINE
8
MINSPINTA
62
21
48
10.639383179030485
10
-2.377641
20
2.5
30
0.7725420000000003
11
-2.377641
21
2.377641
31
0.8178411085978498
0
LINE
8
MEDIONETWORK
62
41
48
18.130580075549457
10
-2.377641
20
2.5
30
1.0517775071842226
11
-2.377641
21
2.377641
31
1.1052524705745066
0
LINE
8
ASSE
62
253
10
-2.377641
20
2.5
30
1.1256665
11
-2.377641
21
2.377641
31
1.1256665
0
LINE
8
INTRADOSSO
62
256
10
-2.377641
20
2.5
30
0.772542
11
-2.377641
21
2.377641
31
0.772542
0
LINE
8
ESTRADOSSO
62
256
10
-2.377641
20
2.5
30
1.478791
11
-2.377641
21
2.377641
31
1.478791
0
LINE
8
MAXSPINTA
62
61
48
31.656370949464222
10
-1.469463
20
2.5
30
2.299687571956614
11
-1.469463
21
2.022542
31
2.253941423214066
0
LINE
8
MINSPINTA
62
21
48
10.23290598948618
10
-1.469463
20
2.5
30
2.022542
11
-1.469463
21
2.022542
31
2.1312474171115388
0
LINE
8
MEDIONETWORK
62
41
48
16.613394176099654
10
-1.469463
20
2.5
30
2.198580485955682
11
-1.469463
21
2.022542
31
2.200104734259652
0
LINE
8
ASSE
62
253
10
-1.469463
20
2.5
30
2.2029795
11
-1.469463
21
2.022542
31
2.2029795
0
LINE
8
INTRADOSSO
62
256
10
-1.469463
20
2.5
30
2.022542
11
-1.469463
21
2.022542
31
2.022542
0
LINE
8
ESTRADOSSO
62
256
10
-1.469463
20
2.5
30
2.383417
11
-1.469463
21
2.022542
31
2.383417
0
LINE
8
MAXSPINTA
62
61
48
31.551416107408848
10
-1.469463
20
2.022542
30
2.253941423214066
11
-1.469463
21
1.469463
31
2.281591256691337
0
LINE
8
MINSPINTA
62
21
48
10.288576724445353
10
-1.469463
20
2.022542
30
2.1312474171115388
11
-1.469463
21
1.469463
31
2.2704124019089433
0
LINE
8
MEDIONETWORK
62
41
48
16.747397105154263
10
-1.469463
20
2.022542
30
2.200104734259652
11
-1.469463
21
1.469463
31
2.2705161246493413
0
LINE
8
ASSE
62
253
10
-1.469463
20
2.022542
30
2.2029795
11
-1.469463
21
1.469463
31
2.2029795
0
LINE
8
INTRADOSSO
62
256
10
-1.469463
20
2.022542
30
2.022542
11
-1.469463
21
1.469463
31
2.022542
0
LINE
8
ESTRADOSSO
62
256
10
-1.469463
20
2.022542
30
2.383417
11
-1.469463
21
1.469463
31
2.383417
0
LINE
8
MAXSPINTA
62
61
48
32.36081956429606
10
-0.0
20
2.977458
30
2.8
11
-0.0
21
2.5
31
2.6884400404274467
0
LINE
8
MINSPINTA
62
21
48
11.438649806311794
10
-0.0
20
2.977458
30
2.23231869025133
11
-0.0
21
2.5
31
2.5
0
LINE
8
MEDIONETWORK
62
41
48
16.617366165158387
10
-0.0
20
2.977458
30
2.6510066496979716
11
-0.0
21
2.5
31
2.6615585868748286
0
LINE
8
ASSE
62
253
10
-0.0
20
2.977458
30
2.4
11
-0.0
21
2.5
31
2.65
0
LINE
8
INTRADOSSO
62
256
10
-0.0
20
2.977458
30
2.0
11
-0.0
21
2.5
31
2.5
0
LINE
8
ESTRADOSSO
62
256
10
-0.0
20
2.977458
30
2.8
11
-0.0
21
2.5
31
2.8
0
LINE
8
MAXSPINTA
62
61
48
32.2571997545354
10
-0.772542
20
2.977458
30
2.691315
11
-0.772542
21
2.5
31
2.586871304027939
0
LINE
8
MINSPINTA
62
21
48
11.242188812887683
10
-0.772542
20
2.977458
30
2.1297506495300453
11
-0.772542
21
2.5
31
2.3776410000000006
0
LINE
8
MEDIONETWORK
62
41
48
16.621055890618535
10
-0.772542
20
2.977458
30
2.5243507389018127
11
-0.772542
21
2.5
31
2.5389329000167984
0
LINE
8
ASSE
62
253
10
-0.772542
20
2.977458
30
2.284478
11
-0.772542
21
2.5
31
2.534478
0
LINE
8
INTRADOSSO
62
256
10
-0.772542
20
2.977458
30
1.877641
11
-0.772542
21
2.5
31
2.377641
0
LINE
8
ESTRADOSSO
62
256
10
-0.772542
20
2.977458
30
2.691315
11
-0.772542
21
2.5
31
2.691315
0
LINE
8
MAXSPINTA
62
61
48
31.992936709745017
10
-1.469463
20
2.977458
30
2.383417
11
-1.469463
21
2.5
31
2.299687571956614
0
LINE
8
MINSPINTA
62
21
48
10.737742992994278
10
-1.469463
20
2.977458
30
1.8326480628132271
11
-1.469463
21
2.5
31
2.022542
0
LINE
8
MEDIONETWORK
62
41
48
16.620232448340523
10
-1.469463
20
2.977458
30
2.1847953104557436
11
-1.469463
21
2.5
31
2.198580485955682
0
LINE
8
ASSE
62
253
10
-1.469463
20
2.977458
30
1.9529795
11
-1.469463
21
2.5
31
2.2029795
0
LINE
8
INTRADOSSO
62
256
10
-1.469463
20
2.977458
30
1.522542
11
-1.469463
21
2.5
31
2.022542
0
LINE
8
ESTRADOSSO
62
256
10
-1.469463
20
2.977458
30
2.383417
11
-1.469463
21
2.5
31
2.383417
0
LINE
8
MAXSPINTA
62
61
48
31.757665189815093
10
-2.022542
20
2.977458
30
1.936317
11
-2.022542
21
2.5
31
1.8765896783372222
0
LINE
8
MINSPINTA
62
21
48
10.075898725855303
10
-2.022542
20
2.977458
30
1.402268072522966
11
-2.022542
21
2.5
31
1.4694630000000006
0
LINE
8
MEDIONETWORK
62
41
48
16.96925232351134
10
-2.022542
20
2.977458
30
1.8022847593786968
11
-2.022542
21
2.5
31
1.702921451963143
0
LINE
8
ASSE
62
253
10
-2.022542
20
2.977458
30
1.45289
11
-2.022542
21
2.5
31
1.70289
0
LINE
8
INTRADOSSO
62
256
10
-2.022542
20
2.977458
30
0.969463
11
-2.022542
21
2.5
31
1.469463
0
LINE
8
ESTRADOSSO
62
256
10
-2.022542
20
2.977458
30
1.936317
11
-2.022542
21
2.5
31
1.936317
0
LINE
8
MAXSPINTA
62
81
48
41.12513005832927
10
-2.377641
20
2.977458
30
1.0
11
-2.377641
21
2.5
31
1.4003767716463067
0
LINE
8
MINSPINTA
62
21
48
11.051941116428281
10
-2.377641
20
2.977458
30
0.9999999974189412
11
-2.377641
21
2.5
31
0.7725420000000003
0
LINE
8
MEDIONETWORK
62
41
48
16.710711286883356
10
-2.377641
20
2.977458
30
1.0
11
-2.377641
21
2.5
31
1.0517775071842226
0
LINE
8
ASSE
62
253
10
-2.377641
20
2.977458
30
0.636271
11
-2.377641
21
2.5
31
1.1256665
0
LINE
8
INTRADOSSO
62
256
10
-2.377641
20
2.977458
30
0.272542
11
-2.377641
21
2.5
31
0.772542
0
LINE
8
ESTRADOSSO
62
256
10
-2.377641
20
2.977458
30
1.0
11
-2.377641
21
2.5
31
1.478791
0
LINE
8
MAXSPINTA
62
61
48
32.2571997545354
10
-2.977458
20
0.772542
30
2.691315
11
-2.5
21
0.772542
31
2.586871304027939
0
LINE
8
MINSPINTA
62
21
48
11.24218881261688
10
-2.977458
20
0.772542
30
2.129750649558168
11
-2.5
21
0.772542
31
2.377641
0
LINE
8
MEDIONETWORK
62
41
48
16.621055891629286
10
-2.977458
20
0.772542
30
2.524350733892089
11
-2.5
21
0.772542
31
2.538932895958641
0
LINE
8
ASSE
62
253
10
-2.977458
20
0.772542
30
2.284478
11
-2.5
21
0.772542
31
2.534478
0
LINE
8
INTRADOSSO
62
256
10
-2.977458
20
0.772542
30
1.877641
11
-2.5
21
0.772542
31
2.377641
0
LINE
8
ESTRADOSSO
62
256
10
-2.977458
20
0.772542
30
2.691315
11
-2.5
21
0.772542
31
2.691315
0
LINE
8
MAXSPINTA
62
61
48
31.992936709745017
10
-2.977458
20
1.469463
30
2.383417
11
-2.5
21
1.469463
31
2.299687571956614
0
LINE
8
MINSPINTA
62
21
48
10.737742992809267
10
-2.977458
20
1.469463
30
1.8326480628371835
11
-2.5
21
1.469463
31
2.022542
0
LINE
8
MEDIONETWORK
62
41
48
16.620232449269587
10
-2.977458
20
1.469463
30
2.184795307320362
11
-2.5
21
1.469463
31
2.1985804837454848
0
LINE
8
ASSE
62
253
10
-2.977458
20
1.469463
30
1.9529795
11
-2.5
21
1.469463
31
2.2029795
0
LINE
8
INTRADOSSO
62
256
10
-2.977458
20
1.469463
30
1.522542
11
-2.5
21
1.469463
31
2.022542
0
LINE
8
ESTRADOSSO
62
256
10
-2.977458
20
1.469463
30
2.383417
11
-2.5
21
1.469463
31
2.383417
0
LINE
8
MAXSPINTA
62
61
48
31.757665189815096
10
-2.977458
20
2.022542
30
1.936317
11
-2.5
21
2.022542
31
1.876589678337222
0
LINE
8
MINSPINTA
62
21
48
10.075898726090514
10
-2.977458
20
2.022542
30
1.4022680724421992
11
-2.5
21
2.022542
31
1.469463
0
LINE
8
MEDIONETWORK
62
41
48
16.969252318432538
10
-2.977458
20
2.022542
30
1.8022847578202623
11
-2.5
21
2.022542
31
1.7029214511211095
0
LINE
8
ASSE
62
253
10
-2.977458
20
2.022542
30
1.45289
11
-2.5
21
2.022542
31
1.70289
0
LINE
8
INTRADOSSO
62
256
10
-2.977458
20
2.022542
30
0.969463
11
-2.5
21
2.022542
31
1.469463
0
LINE
8
ESTRADOSSO
62
256
10
-2.977458
20
2.022542
30
1.936317
11
-2.5
21
2.022542
31
1.936317
0
LINE
8
MAXSPINTA
62
81
48
41.125130058329276
10
-2.977458
20
2.377641
30
0.9999999999999996
11
-2.5
21
2.377641
31
1.4003767716463065
0
LINE
8
MINSPINTA
62
21
48
11.051941139625722
10
-2.977458
20
2.377641
30
1.0
11
-2.5
21
2.377641
31
0.7725420000000002
0
LINE
8
MEDIONETWORK
62
41
48
16.710711286562866
10
-2.977458
20
2.377641
30
1.0
11
-2.5
21
2.377641
31
1.0517775070987891
0
LINE
8
ASSE
62
253
10
-2.977458
20
2.377641
30
0.636271
11
-2.5
21
2.377641
31
1.1256665
0
LINE
8
INTRADOSSO
62
256
10
-2.977458
20
2.377641
30
0.272542
11
-2.5
21
2.377641
31
0.772542
0
LINE
8
ESTRADOSSO
62
256
10
-2.977458
20
2.377641
30
1.0
11
-2.5
21
2.377641
31
1.478791
0
LINE
8
MAXSPINTA
62
101
48
65.31731780378921
10
2.5
20
-2.5
30
1.260952
11
2.377641
21
-2.377641
31
1.466916449641888
0
LINE
8
MINSPINTA
62
81
48
42.844216364278935
10
2.5
20
-2.5
30
0.2880995779322146
11
2.377641
21
-2.377641
31
0.8178411083984394
0
LINE
8
MEDIONETWORK
62
101
48
54.84705946013484
10
2.5
20
-2.5
30
0.7132910478411074
11
2.377641
21
-2.377641
31
1.1052524637613341
0
LINE
8
ASSE
62
253
10
2.5
20
-2.5
30
0.630476
11
2.377641
21
-2.377641
31
1.1256665
0
LINE
8
INTRADOSSO
62
256
10
2.5
20
-2.5
30
0.0
11
2.377641
21
-2.377641
31
0.772542
0
LINE
8
ESTRADOSSO
62
256
10
2.5
20
-2.5
30
1.260952
11
2.377641
21
-2.377641
31
1.478791
0
LINE
8
MAXSPINTA
62
181
48
117.39691429743866
10
2.377641
20
-2.377641
30
1.466916449641888
11
2.022542
21
-2.022542
31
1.9267730159413832
0
LINE
8
MINSPINTA
62
81
48
51.09158792872165
10
2.377641
20
-2.377641
30
0.8178411083984394
11
2.022542
21
-2.022542
31
1.6076360317591527
0
LINE
8
MEDIONETWORK
62
121
48
75.14766352117715
10
2.377641
20
-2.377641
30
1.1052524637613341
11
2.022542
21
-2.022542
31
1.762016491078618
0
LINE
8
ASSE
62
253
10
2.377641
20
-2.377641
30
1.1256665
11
2.022542
21
-2.022542
31
1.70289
0
LINE
8
INTRADOSSO
62
256
10
2.377641
20
-2.377641
30
0.772542
11
2.022542
21
-2.022542
31
1.469463
0
LINE
8
ESTRADOSSO
62
256
10
2.377641
20
-2.377641
30
1.478791
11
2.022542
21
-2.022542
31
1.936317
0
LINE
8
MAXSPINTA
62
141
48
82.59899657563524
10
2.022542
20
-2.022542
30
1.9267730159413832
11
1.469463
21
-1.469463
31
2.281591256691338
0
LINE
8
MINSPINTA
62
61
48
31.21771892870976
10
2.022542
20
-2.022542
30
1.6076360317591527
11
1.469463
21
-1.469463
31
2.2704124018633935
0
LINE
8
MEDIONETWORK
62
81
48
47.300762356501316
10
2.022542
20
-2.022542
30
1.762016491078618
11
1.469463
21
-1.469463
31
2.2705161209799214
0
LINE
8
ASSE
62
253
10
2.022542
20
-2.022542
30
1.70289
11
1.469463
21
-1.469463
31
2.2029795
0
LINE
8
INTRADOSSO
62
256
10
2.022542
20
-2.022542
30
1.469463
11
1.469463
21
-1.469463
31
2.022542
0
LINE
8
ESTRADOSSO
62
256
10
2.022542
20
-2.022542
30
1.936317
11
1.469463
21
-1.469463
31
2.383417
0
LINE
8
MAXSPINTA
62
121
48
68.5003174887686
10
1.469463
20
-1.469463
30
2.281591256691338
11
0.772542
21
-0.772542
31
2.4639687279832536
0
LINE
8
MINSPINTA
62
41
48
23.028092688325483
10
1.469463
20
-1.469463
30
2.2704124018633935
11
0.772542
21
-0.772542
31
2.6718369207774244
0
LINE
8
MEDIONETWORK
62
61
48
36.94438169476585
10
1.469463
20
-1.469463
30
2.2705161209799214
11
0.772542
21
-0.772542
31
2.553379116123441
0
LINE
8
ASSE
62
253
10
1.469463
20
-1.469463
30
2.2029795
11
0.772542
21
-0.772542
31
2.534478
0
LINE
8
INTRADOSSO
62
256
10
1.469463
20
-1.469463
30
2.022542
11
0.772542
21
-0.772542
31
2.377641
0
LINE
8
ESTRADOSSO
62
256
10
1.469463
20
-1.469463
30
2.383417
11
0.772542
21
-0.772542
31
2.691315
0
LINE
8
MAXSPINTA
62
101
48
62.14769734064025
10
0.772542
20
-0.772542
30
2.4639687279832536
11
-0.0
21
0.0
31
2.5000000000000004
0
LINE
8
MINSPINTA
62
41
48
19.739569445472977
10
0.772542
20
-0.772542
30
2.6718369207774244
11
-0.0
21
0.0
31
2.7658083771266124
0
LINE
8
MEDIONETWORK
62
61
48
32.798072048888095
10
0.772542
20
-0.772542
30
2.553379116123441
11
-0.0
21
0.0
31
2.6145651658019946
0
LINE
8
ASSE
62
253
10
0.772542
20
-0.772542
30
2.534478
11
-0.0
21
0.0
31
2.65
0
LINE
8
INTRADOSSO
62
256
10
0.772542
20
-0.772542
30
2.377641
11
-0.0
21
0.0
31
2.5
0
LINE
8
ESTRADOSSO
62
256
10
0.772542
20
-0.772542
30
2.691315
11
-0.0
21
0.0
31
2.8
0
LINE
8
MAXSPINTA
62
61
48
32.248291692468634
10
2.5
20
-2.5
30
1.260952
11
2.5
21
-2.377641
31
1.4003767716463074
0
LINE
8
MINSPINTA
62
61
48
27.50283174062544
10
2.5
20
-2.5
30
0.2880995779322146
11
2.5
21
-2.377641
31
0.772542
0
LINE
8
MEDIONETWORK
62
61
48
32.98735136177905
10
2.5
20
-2.5
30
0.7132910478411074
11
2.5
21
-2.377641
31
1.051777500724975
0
LINE
8
ASSE
62
253
10
2.5
20
-2.5
30
0.630476
11
2.5
21
-2.377641
31
1.1256665
0
LINE
8
INTRADOSSO
62
256
10
2.5
20
-2.5
30
0.0
11
2.5
21
-2.377641
31
0.772542
0
LINE
8
ESTRADOSSO
62
256
10
2.5
20
-2.5
30
1.260952
11
2.5
21
-2.377641
31
1.478791
0
LINE
8
MAXSPINTA
62
61
48
35.58397315989653
10
2.5
20
-2.377641
30
1.4003767716463074
11
2.5
21
-2.022542
31
1.8765896783372225
0
LINE
8
MINSPINTA
62
41
48
14.835267688315984
10
2.5
20
-2.377641
30
0.772542
11
2.5
21
-2.022542
31
1.4694630000000006
0
LINE
8
MEDIONETWORK
62
41
48
23.422773577309275
10
2.5
20
-2.377641
30
1.051777500724975
11
2.5
21
-2.022542
31
1.7029214458522246
0
LINE
8
ASSE
62
253
10
2.5
20
-2.377641
30
1.1256665
11
2.5
21
-2.022542
31
1.70289
0
LINE
8
INTRADOSSO
62
256
10
2.5
20
-2.377641
30
0.772542
11
2.5
21
-2.022542
31
1.469463
0
LINE
8
ESTRADOSSO
62
256
10
2.5
20
-2.377641
30
1.478791
11
2.5
21
-2.022542
31
1.936317
0
LINE
8
MAXSPINTA
62
61
48
26.781607189701457
10
2.5
20
-2.022542
30
1.8765896783372225
11
2.5
21
-1.469463
31
2.2996875719566146
0
LINE
8
MINSPINTA
62
21
48
9.52482847682253
10
2.5
20
-2.022542
30
1.4694630000000006
11
2.5
21
-1.469463
31
2.022542
0
LINE
8
MEDIONETWORK
62
41
48
15.058724681954029
10
2.5
20
-2.022542
30
1.7029214458522246
11
2.5
21
-1.469463
31
2.19858048130668
0
LINE
8
ASSE
62
253
10
2.5
20
-2.022542
30
1.70289
11
2.5
21
-1.469463
31
2.2029795
0
LINE
8
INTRADOSSO
62
256
10
2.5
20
-2.022542
30
1.469463
11
2.5
21
-1.469463
31
2.022542
0
LINE
8
ESTRADOSSO
62
256
10
2.5
20
-2.022542
30
1.936317
11
2.5
21
-1.469463
31
2.383417
0
LINE
8
MAXSPINTA
62
41
48
23.006519691433617
10
2.5
20
-1.469463
30
2.2996875719566146
11
2.5
21
-0.772542
31
2.5868713040279387
0
LINE
8
MINSPINTA
62
21
48
7.558946739807395
10
2.5
20
-1.469463
30
2.022542
11
2.5
21
-0.772542
31
2.3776410000000006
0
LINE
8
MEDIONETWORK
62
21
48
12.480201085805003
10
2.5
20
-1.469463
30
2.19858048130668
11
2.5
21
-0.772542
31
2.5389328966891944
0
LINE
8
ASSE
62
253
10
2.5
20
-1.469463
30
2.2029795
11
2.5
21
-0.772542
31
2.534478
0
LINE
8
INTRADOSSO
62
256
10
2.5
20
-1.469463
30
2.022542
11
2.5
21
-0.772542
31
2.377641
0
LINE
8
ESTRADOSSO
62
256
10
2.5
20
-1.469463
30
2.383417
11
2.5
21
-0.772542
31
2.691315
0
LINE
8
MAXSPINTA
62
41
48
21.45435255150361
10
2.5
20
-0.772542
30
2.5868713040279387
11
2.5
21
0.0
31
2.688440040427447
0
LINE
8
MINSPINTA
62
21
48
6.819024811858771
10
2.5
20
-0.772542
30
2.3776410000000006
11
2.5
21
0.0
31
2.5
0
LINE
8
MEDIONETWORK
62
21
48
11.354726029776664
10
2.5
20
-0.772542
30
2.5389328966891944
11
2.5
21
0.0
31
2.6615585842636293
0
LINE
8
ASSE
62
253
10
2.5
20
-0.772542
30
2.534478
11
2.5
21
0.0
31
2.65
0
LINE
8
INTRADOSSO
62
256
10
2.5
20
-0.772542
30
2.377641
11
2.5
21
0.0
31
2.5
0
LINE
8
ESTRADOSSO
62
256
10
2.5
20
-0.772542
30
2.691315
11
2.5
21
0.0
31
2.8
0
LINE
8
MAXSPINTA
62
81
48
45.94524701947316
10
2.022542
20
-2.022542
30
1.9267730159413832
11
2.022542
21
-1.469463
31
2.2539414232140675
0
LINE
8
MINSPINTA
62
41
48
17.24193540660574
10
2.022542
20
-2.022542
30
1.6076360317591527
11
2.022542
21
-1.469463
31
2.131247417112922
0
LINE
8
MEDIONETWORK
62
41
48
26.59585434851601
10
2.022542
20
-2.022542
30
1.762016491078618
11
2.022542
21
-1.469463
31
2.2001047299480105
0
LINE
8
ASSE
62
253
10
2.022542
20
-2.022542
30
1.70289
11
2.022542
21
-1.469463
31
2.2029795
0
LINE
8
INTRADOSSO
62
256
10
2.022542
20
-2.022542
30
1.469463
11
2.022542
21
-1.469463
31
2.022542
0
LINE
8
ESTRADOSSO
62
256
10
2.022542
20
-2.022542
30
1.936317
11
2.022542
21
-1.469463
31
2.383417
0
LINE
8
MAXSPINTA
62
81
48
41.882511516237294
10
2.022542
20
-1.469463
30
2.2539414232140675
11
2.022542
21
-0.772542
31
2.4971058799627706
0
LINE
8
MINSPINTA
62
41
48
14.16082567602064
10
2.022542
20
-1.469463
30
2.131247417112922
11
2.022542
21
-0.772542
31
2.4994363087529936
0
LINE
8
MEDIONETWORK
62
41
48
22.890489742213937
10
2.022542
20
-1.469463
30
2.2001047299480105
11
2.022542
21
-0.772542
31
2.51605727676765
0
LINE
8
ASSE
62
253
10
2.022542
20
-1.469463
30
2.2029795
11
2.022542
21
-0.772542
31
2.534478
0
LINE
8
INTRADOSSO
62
256
10
2.022542
20
-1.469463
30
2.022542
11
2.022542
21
-0.772542
31
2.377641
0
LINE
8
ESTRADOSSO
62
256
10
2.022542
20
-1.469463
30
2.383417
11
2.022542
21
-0.772542
31
2.691315
0
LINE
8
MAXSPINTA
62
61
48
39.80471130032544
10
2.022542
20
-0.772542
30
2.4971058799627706
11
2.022542
21
0.0
31
2.5858683257030917
0
LINE
8
MINSPINTA
62
21
48
12.699810513638244
10
2.022542
20
-0.772542
30
2.4994363087529936
11
2.022542
21
0.0
31
2.630508786667655
0
LINE
8
MEDIONETWORK
62
41
48
21.07649209222851
10
2.022542
20
-0.772542
30
2.51605727676765
11
2.022542
21
0.0
31
2.630728654732415
0
LINE
8
ASSE
62
253
10
2.022542
20
-0.772542
30
2.534478
11
2.022542
21
0.0
31
2.65
0
LINE
8
INTRADOSSO
62
256
10
2.022542
20
-0.772542
30
2.377641
11
2.022542
21
0.0
31
2.5
0
LINE
8
ESTRADOSSO
62
256
10
2.022542
20
-0.772542
30
2.691315
11
2.022542
21
0.0
31
2.8
0
LINE
8
MAXSPINTA
62
61
48
38.3733410836201
10
1.469463
20
-1.469463
30
2.281591256691338
11
1.469463
21
-0.772542
31
2.4677875379417076
0
LINE
8
MINSPINTA
62
21
48
13.074569062082693
10
1.469463
20
-1.469463
30
2.2704124018633935
11
1.469463
21
-0.772542
31
2.612281260198575
0
LINE
8
MEDIONETWORK
62
41
48
20.90258053071856
10
1.469463
20
-1.469463
30
2.2705161209799214
11
1.469463
21
-0.772542
31
2.534735441091356
0
LINE
8
ASSE
62
253
10
1.469463
20
-1.469463
30
2.2029795
11
1.469463
21
-0.772542
31
2.534478
0
LINE
8
INTRADOSSO
62
256
10
1.469463
20
-1.469463
30
2.022542
11
1.469463
21
-0.772542
31
2.377641
0
LINE
8
ESTRADOSSO
62
256
10
1.469463
20
-1.469463
30
2.383417
11
1.469463
21
-0.772542
31
2.691315
0
LINE
8
MAXSPINTA
62
61
48
37.229239341203595
10
1.469463
20
-0.772542
30
2.4677875379417076
11
1.469463
21
0.0
31
2.538784576127422
0
LINE
8
MINSPINTA
62
21
48
11.8977552039698
10
1.469463
20
-0.772542
30
2.612281260198575
11
1.469463
21
0.0
31
2.7400406278159175
0
LINE
8
MEDIONETWORK
62
41
48
19.707703595243444
10
1.469463
20
-0.772542
30
2.534735441091356
11
1.469463
21
0.0
31
2.634603163655368
0
LINE
8
ASSE
62
253
10
1.469463
20
-0.772542
30
2.534478
11
1.469463
21
0.0
31
2.65
0
LINE
8
INTRADOSSO
62
256
10
1.469463
20
-0.772542
30
2.377641
11
1.469463
21
0.0
31
2.5
0
LINE
8
ESTRADOSSO
62
256
10
1.469463
20
-0.772542
30
2.691315
11
1.469463
21
0.0
31
2.8
0
LINE
8
MAXSPINTA
62
61
48
35.310480552302096
10
0.772542
20
-0.772542
30
2.4639687279832536
11
0.772542
21
0.0
31
2.5195753124555003
0
LINE
8
MINSPINTA
62
21
48
11.303819708531682
10
0.772542
20
-0.772542
30
2.6718369207774244
11
0.772542
21
0.0
31
2.799999999956543
0
LINE
8
MEDIONETWORK
62
41
48
18.688816830793424
10
0.772542
20
-0.772542
30
2.553379116123441
11
0.772542
21
0.0
31
2.641718895303185
0
LINE
8
ASSE
62
253
10
0.772542
20
-0.772542
30
2.534478
11
0.772542
21
0.0
31
2.65
0
LINE
8
INTRADOSSO
62
256
10
0.772542
20
-0.772542
30
2.377641
11
0.772542
21
0.0
31
2.5
0
LINE
8
ESTRADOSSO
62
256
10
0.772542
20
-0.772542
30
2.691315
11
0.772542
21
0.0
31
2.8
0
LINE
8
MAXSPINTA
62
61
48
32.23102352662954
10
2.5
20
0.0
30
2.688440040427447
11
2.022542
21
0.0
31
2.5858683257030917
0
LINE
8
MINSPINTA
62
21
48
10.343598577118572
10
2.5
20
0.0
30
2.5
11
2.022542
21
0.0
31
2.630508786667655
0
LINE
8
MEDIONETWORK
62
41
48
16.647907351129724
10
2.5
20
0.0
30
2.6615585842636293
11
2.022542
21
0.0
31
2.630728654732415
0
LINE
8
ASSE
62
253
10
2.5
20
0.0
30
2.65
11
2.022542
21
0.0
31
2.65
0
LINE
8
INTRADOSSO
62
256
10
2.5
20
0.0
30
2.5
11
2.022542
21
0.0
31
2.5
0
LINE
8
ESTRADOSSO
62
256
10
2.5
20
0.0
30
2.8
11
2.022542
21
0.0
31
2.8
0
LINE
8
MAXSPINTA
62
61
48
31.62604264477048
10
2.022542
20
0.0
30
2.5858683257030917
11
1.469463
21
0.0
31
2.538784576127422
0
LINE
8
MINSPINTA
62
21
48
10.171351944391915
10
2.022542
20
0.0
30
2.630508786667655
11
1.469463
21
0.0
31
2.7400406278159175
0
LINE
8
MEDIONETWORK
62
41
48
16.613717161308358
10
2.022542
20
0.0
30
2.630728654732415
11
1.469463
21
0.0
31
2.634603163655368
0
LINE
8
ASSE
62
253
10
2.022542
20
0.0
30
2.65
11
1.469463
21
0.0
31
2.65
0
LINE
8
INTRADOSSO
62
256
10
2.022542
20
0.0
30
2.5
11
1.469463
21
0.0
31
2.5
0
LINE
8
ESTRADOSSO
62
256
10
2.022542
20
0.0
30
2.8
11
1.469463
21
0.0
31
2.8
0
LINE
8
MAXSPINTA
62
61
48
31.524030249844074
10
1.469463
20
0.0
30
2.538784576127422
11
0.772542
21
0.0
31
2.5195753124555003
0
LINE
8
MINSPINTA
62
21
48
10.014432700903996
10
1.469463
20
0.0
30
2.7400406278159175
11
0.772542
21
0.0
31
2.799999999956543
0
LINE
8
MEDIONETWORK
62
41
48
16.614175456591028
10
1.469463
20
0.0
30
2.634603163655368
11
0.772542
21
0.0
31
2.641718895303185
0
LINE
8
ASSE
62
253
10
1.469463
20
0.0
30
2.65
11
0.772542
21
0.0
31
2.65
0
LINE
8
INTRADOSSO
62
256
10
1.469463
20
0.0
30
2.5
11
0.772542
21
0.0
31
2.5
0
LINE
8
ESTRADOSSO
62
256
10
1.469463
20
0.0
30
2.8
11
0.772542
21
0.0
31
2.8
0
LINE
8
MAXSPINTA
62
61
48
31.522176967157435
10
0.772542
20
0.0
30
2.5195753124555003
11
-0.0
21
0.0
31
2.5000000000000004
0
LINE
8
MINSPINTA
62
21
48
9.987341323991693
10
0.772542
20
0.0
30
2.799999999956543
11
-0.0
21
0.0
31
2.7658083771266124
0
LINE
8
MEDIONETWORK
62
41
48
16.623568561796237
10
0.772542
20
0.0
30
2.641718895303185
11
-0.0
21
0.0
31
2.6145651658019946
0
LINE
8
ASSE
62
253
10
0.772542
20
0.0
30
2.65
11
-0.0
21
0.0
31
2.65
0
LINE
8
INTRADOSSO
62
256
10
0.772542
20
0.0
30
2.5
11
-0.0
21
0.0
31
2.5
0
LINE
8
ESTRADOSSO
62
256
10
0.772542
20
0.0
30
2.8
11
-0.0
21
0.0
31
2.8
0
LINE
8
MAXSPINTA
62
61
48
32.06414846158013
10
2.5
20
-0.772542
30
2.5868713040279387
11
2.022542
21
-0.772542
31
2.4971058799627706
0
LINE
8
MINSPINTA
62
21
48
10.297085903777722
10
2.5
20
-0.772542
30
2.3776410000000006
11
2.022542
21
-0.772542
31
2.4994363087529936
0
LINE
8
MEDIONETWORK
62
41
48
16.632366430990274
10
2.5
20
-0.772542
30
2.5389328966891944
11
2.022542
21
-0.772542
31
2.51605727676765
0
LINE
8
ASSE
62
253
10
2.5
20
-0.772542
30
2.534478
11
2.022542
21
-0.772542
31
2.534478
0
LINE
8
INTRADOSSO
62
256
10
2.5
20
-0.772542
30
2.377641
11
2.022542
21
-0.772542
31
2.377641
0
LINE
8
ESTRADOSSO
62
256
10
2.5
20
-0.772542
30
2.691315
11
2.022542
21
-0.772542
31
2.691315
0
LINE
8
MAXSPINTA
62
61
48
31.556305529833594
10
2.022542
20
-0.772542
30
2.4971058799627706
11
1.469463
21
-0.772542
31
2.4677875379417076
0
LINE
8
MINSPINTA
62
21
48
10.183131823595843
10
2.022542
20
-0.772542
30
2.4994363087529936
11
1.469463
21
-0.772542
31
2.612281260198575
0
LINE
8
MEDIONETWORK
62
41
48
16.6227805314371
10
2.022542
20
-0.772542
30
2.51605727676765
11
1.469463
21
-0.772542
31
2.534735441091356
0
LINE
8
ASSE
62
253
10
2.022542
20
-0.772542
30
2.534478
11
1.469463
21
-0.772542
31
2.534478
0
LINE
8
INTRADOSSO
62
256
10
2.022542
20
-0.772542
30
2.377641
11
1.469463
21
-0.772542
31
2.377641
0
LINE
8
ESTRADOSSO
62
256
10
2.022542
20
-0.772542
30
2.691315
11
1.469463
21
-0.772542
31
2.691315
0
LINE
8
MAXSPINTA
62
61
48
31.512535406950207
10
1.469463
20
-0.772542
30
2.4677875379417076
11
0.772542
21
-0.772542
31
2.4639687279832536
0
LINE
8
MINSPINTA
62
21
48
10.013938923866775
10
1.469463
20
-0.772542
30
2.612281260198575
11
0.772542
21
-0.772542
31
2.6718369207774244
0
LINE
8
MEDIONETWORK
62
41
48
16.61925304803845
10
1.469463
20
-0.772542
30
2.534735441091356
11
0.772542
21
-0.772542
31
2.553379116123441
0
LINE
8
ASSE
62
253
10
1.469463
20
-0.772542
30
2.534478
11
0.772542
21
-0.772542
31
2.534478
0
LINE
8
INTRADOSSO
62
256
10
1.469463
20
-0.772542
30
2.377641
11
0.772542
21
-0.772542
31
2.377641
0
LINE
8
ESTRADOSSO
62
256
10
1.469463
20
-0.772542
30
2.691315
11
0.772542
21
-0.772542
31
2.691315
0
LINE
8
MAXSPINTA
62
61
48
31.68564288708429
10
2.5
20
-2.022542
30
1.8765896783372225
11
2.022542
21
-2.022542
31
1.9267730159413832
0
LINE
8
MINSPINTA
62
21
48
10.38697720997882
10
2.5
20
-2.022542
30
1.4694630000000006
11
2.022542
21
-2.022542
31
1.6076360317591527
0
LINE
8
MEDIONETWORK
62
41
48
16.740075925168703
10
2.5
20
-2.022542
30
1.7029214458522246
11
2.022542
21
-2.022542
31
1.762016491078618
0
LINE
8
ASSE
62
253
10
2.5
20
-2.022542
30
1.70289
11
2.022542
21
-2.022542
31
1.70289
0
LINE
8
INTRADOSSO
62
256
10
2.5
20
-2.022542
30
1.469463
11
2.022542
21
-2.022542
31
1.469463
0
LINE
8
ESTRADOSSO
62
256
10
2.5
20
-2.022542
30
1.936317
11
2.022542
21
-2.022542
31
1.936317
0
LINE
8
MAXSPINTA
62
61
48
35.87016863286608
10
2.5
20
-2.377641
30
1.4003767716463074
11
2.377641
21
-2.377641
31
1.466916449641888
0
LINE
8
MINSPINTA
62
21
48
10.639383173385038
10
2.5
20
-2.377641
30
0.772542
11
2.377641
21
-2.377641
31
0.8178411083984394
0
LINE
8
MEDIONETWORK
62
41
48
18.13058005630568
10
2.5
20
-2.377641
30
1.051777500724975
11
2.377641
21
-2.377641
31
1.1052524637613341
0
LINE
8
ASSE
62
253
10
2.5
20
-2.377641
30
1.1256665
11
2.377641
21
-2.377641
31
1.1256665
0
LINE
8
INTRADOSSO
62
256
10
2.5
20
-2.377641
30
0.772542
11
2.377641
21
-2.377641
31
0.772542
0
LINE
8
ESTRADOSSO
62
256
10
2.5
20
-2.377641
30
1.478791
11
2.377641
21
-2.377641
31
1.478791
0
LINE
8
MAXSPINTA
62
61
48
31.656370949464215
10
2.5
20
-1.469463
30
2.2996875719566146
11
2.022542
21
-1.469463
31
2.2539414232140675
0
LINE
8
MINSPINTA
62
21
48
10.232905989492599
10
2.5
20
-1.469463
30
2.022542
11
2.022542
21
-1.469463
31
2.131247417112922
0
LINE
8
MEDIONETWORK
62
41
48
16.613394176137128
10
2.5
20
-1.469463
30
2.19858048130668
11
2.022542
21
-1.469463
31
2.2001047299480105
0
LINE
8
ASSE
62
253
10
2.5
20
-1.469463
30
2.2029795
11
2.022542
21
-1.469463
31
2.2029795
0
LINE
8
INTRADOSSO
62
256
10
2.5
20
-1.469463
30
2.022542
11
2.022542
21
-1.469463
31
2.022542
0
LINE
8
ESTRADOSSO
62
256
10
2.5
20
-1.469463
30
2.383417
11
2.022542
21
-1.469463
31
2.383417
0
LINE
8
MAXSPINTA
62
61
48
31.55141610740884
10
2.022542
20
-1.469463
30
2.2539414232140675
11
1.469463
21
-1.469463
31
2.281591256691338
0
LINE
8
MINSPINTA
62
21
48
10.288576724238752
10
2.022542
20
-1.469463
30
2.131247417112922
11
1.469463
21
-1.469463
31
2.2704124018633935
0
LINE
8
MEDIONETWORK
62
41
48
16.747397107590498
10
2.022542
20
-1.469463
30
2.2001047299480105
11
1.469463
21
-1.469463
31
2.2705161209799214
0
LINE
8
ASSE
62
253
10
2.022542
20
-1.469463
30
2.2029795
11
1.469463
21
-1.469463
31
2.2029795
0
LINE
8
INTRADOSSO
62
256
10
2.022542
20
-1.469463
30
2.022542
11
1.469463
21
-1.469463
31
2.022542
0
LINE
8
ESTRADOSSO
62
256
10
2.022542
20
-1.469463
30
2.383417
11
1.469463
21
-1.469463
31
2.383417
0
LINE
8
MAXSPINTA
62
61
48
32.248291692468605
10
2.5
20
-2.5
30
1.260952
11
2.377641
21
-2.5
31
1.4003767716463071
0
LINE
8
MINSPINTA
62
61
48
27.50283174062544
10
2.5
20
-2.5
30
0.2880995779322146
11
2.377641
21
-2.5
31
0.772542
0
LINE
8
MEDIONETWORK
62
61
48
32.98735135275876
10
2.5
20
-2.5
30
0.7132910478411074
11
2.377641
21
-2.5
31
1.051777500620322
0
LINE
8
ASSE
62
253
10
2.5
20
-2.5
30
0.630476
11
2.377641
21
-2.5
31
1.1256665
0
LINE
8
INTRADOSSO
62
256
10
2.5
20
-2.5
30
0.0
11
2.377641
21
-2.5
31
0.772542
0
LINE
8
ESTRADOSSO
62
256
10
2.5
20
-2.5
30
1.260952
11
2.377641
21
-2.5
31
1.478791
0
LINE
8
MAXSPINTA
62
61
48
35.583973159896544
10
2.377641
20
-2.5
30
1.4003767716463071
11
2.022542
21
-2.5
31
1.8765896783372225
0
LINE
8
MINSPINTA
62
41
48
14.835267688315973
10
2.377641
20
-2.5
30
0.772542
11
2.022542
21
-2.5
31
1.4694630000000002
0
LINE
8
MEDIONETWORK
62
41
48
23.422773552541237
10
2.377641
20
-2.5
30
1.051777500620322
11
2.022542
21
-2.5
31
1.7029214448542558
0
LINE
8
ASSE
62
253
10
2.377641
20
-2.5
30
1.1256665
11
2.022542
21
-2.5
31
1.70289
0
LINE
8
INTRADOSSO
62
256
10
2.377641
20
-2.5
30
0.772542
11
2.022542
21
-2.5
31
1.469463
0
LINE
8
ESTRADOSSO
62
256
10
2.377641
20
-2.5
30
1.478791
11
2.022542
21
-2.5
31
1.936317
0
LINE
8
MAXSPINTA
62
61
48
26.781607189701457
10
2.022542
20
-2.5
30
1.8765896783372225
11
1.469463
21
-2.5
31
2.2996875719566146
0
LINE
8
MINSPINTA
62
21
48
9.524828476822535
10
2.022542
20
-2.5
30
1.4694630000000002
11
1.469463
21
-2.5
31
2.0225420000000005
0
LINE
8
MEDIONETWORK
62
41
48
15.058724663327393
10
2.022542
20
-2.5
30
1.7029214448542558
11
1.469463
21
-2.5
31
2.19858047893224
0
LINE
8
ASSE
62
253
10
2.022542
20
-2.5
30
1.70289
11
1.469463
21
-2.5
31
2.2029795
0
LINE
8
INTRADOSSO
62
256
10
2.022542
20
-2.5
30
1.469463
11
1.469463
21
-2.5
31
2.022542
0
LINE
8
ESTRADOSSO
62
256
10
2.022542
20
-2.5
30
1.936317
11
1.469463
21
-2.5
31
2.383417
0
LINE
8
MAXSPINTA
62
41
48
23.006519691433617
10
1.469463
20
-2.5
30
2.2996875719566146
11
0.772542
21
-2.5
31
2.5868713040279387
0
LINE
8
MINSPINTA
62
21
48
7.558946739807394
10
1.469463
20
-2.5
30
2.0225420000000005
11
0.772542
21
-2.5
31
2.3776410000000006
0
LINE
8
MEDIONETWORK
62
21
48
12.48020107650991
10
1.469463
20
-2.5
30
2.19858047893224
11
0.772542
21
-2.5
31
2.5389328929984183
0
LINE
8
ASSE
62
253
10
1.469463
20
-2.5
30
2.2029795
11
0.772542
21
-2.5
31
2.534478
0
LINE
8
INTRADOSSO
62
256
10
1.469463
20
-2.5
30
2.022542
11
0.772542
21
-2.5
31
2.377641
0
LINE
8
ESTRADOSSO
62
256
10
1.469463
20
-2.5
30
2.383417
11
0.772542
21
-2.5
31
2.691315
0
LINE
8
MAXSPINTA
62
41
48
21.454352551503614
10
0.772542
20
-2.5
30
2.5868713040279387
11
-0.0
21
-2.5
31
2.6884400404274484
0
LINE
8
MINSPINTA
62
21
48
6.819024811858771
10
0.772542
20
-2.5
30
2.3776410000000006
11
-0.0
21
-2.5
31
2.5
0
LINE
8
MEDIONETWORK
62
21
48
11.354726026290118
10
0.772542
20
-2.5
30
2.5389328929984183
11
-0.0
21
-2.5
31
2.661558579040749
0
LINE
8
ASSE
62
253
10
0.772542
20
-2.5
30
2.534478
11
-0.0
21
-2.5
31
2.65
0
LINE
8
INTRADOSSO
62
256
10
0.772542
20
-2.5
30
2.377641
11
-0.0
21
-2.5
31
2.5
0
LINE
8
ESTRADOSSO
62
256
10
0.772542
20
-2.5
30
2.691315
11
-0.0
21
-2.5
31
2.8
0
LINE
8
MAXSPINTA
62
81
48
45.94524701947316
10
2.022542
20
-2.022542
30
1.9267730159413832
11
1.469463
21
-2.022542
31
2.2539414232140675
0
LINE
8
MINSPINTA
62
41
48
17.24193540483582
10
2.022542
20
-2.022542
30
1.6076360317591527
11
1.469463
21
-2.022542
31
2.1312474169992024
0
LINE
8
MEDIONETWORK
62
41
48
26.595854319827154
10
2.022542
20
-2.022542
30
1.762016491078618
11
1.469463
21
-2.022542
31
2.200104728722243
0
LINE
8
ASSE
62
253
10
2.022542
20
-2.022542
30
1.70289
11
1.469463
21
-2.022542
31
2.2029795
0
LINE
8
INTRADOSSO
62
256
10
2.022542
20
-2.022542
30
1.469463
11
1.469463
21
-2.022542
31
2.022542
0
LINE
8
ESTRADOSSO
62
256
10
2.022542
20
-2.022542
30
1.936317
11
1.469463
21
-2.022542
31
2.383417
0
LINE
8
MAXSPINTA
62
81
48
41.882511516237315
10
1.469463
20
-2.022542
30
2.2539414232140675
11
0.772542
21
-2.022542
31
2.4971058799627714
0
LINE
8
MINSPINTA
62
41
48
14.16082567663701
10
1.469463
20
-2.022542
30
2.1312474169992024
11
0.772542
21
-2.022542
31
2.4994363087127183
0
LINE
8
MEDIONETWORK
62
41
48
22.8904897240812
10
1.469463
20
-2.022542
30
2.200104728722243
11
0.772542
21
-2.022542
31
2.516057274073863
0
LINE
8
ASSE
62
253
10
1.469463
20
-2.022542
30
2.2029795
11
0.772542
21
-2.022542
31
2.534478
0
LINE
8
INTRADOSSO
62
256
10
1.469463
20
-2.022542
30
2.022542
11
0.772542
21
-2.022542
31
2.377641
0
LINE
8
ESTRADOSSO
62
256
10
1.469463
20
-2.022542
30
2.383417
11
0.772542
21
-2.022542
31
2.691315
0
LINE
8
MAXSPINTA
62
61
48
39.80471130032544
10
0.772542
20
-2.022542
30
2.4971058799627714
11
-0.0
21
-2.022542
31
2.585868325703093
0
LINE
8
MINSPINTA
62
21
48
12.69981051377368
10
0.772542
20
-2.022542
30
2.4994363087127183
11
-0.0
21
-2.022542
31
2.630508786677337
0
LINE
8
MEDIONETWORK
62
41
48
21.076492085333882
10
0.772542
20
-2.022542
30
2.516057274073863
11
-0.0
21
-2.022542
31
2.63072865029856
0
LINE
8
ASSE
62
253
10
0.772542
20
-2.022542
30
2.534478
11
-0.0
21
-2.022542
31
2.65
0
LINE
8
INTRADOSSO
62
256
10
0.772542
20
-2.022542
30
2.377641
11
-0.0
21
-2.022542
31
2.5
0
LINE
8
ESTRADOSSO
62
256
10
0.772542
20
-2.022542
30
2.691315
11
-0.0
21
-2.022542
31
2.8
0
LINE
8
MAXSPINTA
62
61
48
38.3733410836201
10
1.469463
20
-1.469463
30
2.281591256691338
11
0.772542
21
-1.469463
31
2.467787537941708
0
LINE
8
MINSPINTA
62
21
48
13.074569061619062
10
1.469463
20
-1.469463
30
2.2704124018633935
11
0.772542
21
-1.469463
31
2.612281260136073
0
LINE
8
MEDIONETWORK
62
41
48
20.902580515049372
10
1.469463
20
-1.469463
30
2.2705161209799214
11
0.772542
21
-1.469463
31
2.5347354395152895
0
LINE
8
ASSE
62
253
10
1.469463
20
-1.469463
30
2.2029795
11
0.772542
21
-1.469463
31
2.534478
0
LINE
8
INTRADOSSO
62
256
10
1.469463
20
-1.469463
30
2.022542
11
0.772542
21
-1.469463
31
2.377641
0
LINE
8
ESTRADOSSO
62
256
10
1.469463
20
-1.469463
30
2.383417
11
0.772542
21
-1.469463
31
2.691315
0
LINE
8
MAXSPINTA
62
61
48
37.229239341203595
10
0.772542
20
-1.469463
30
2.467787537941708
11
-0.0
21
-1.469463
31
2.538784576127423
0
LINE
8
MINSPINTA
62
21
48
11.897755204173778
10
0.772542
20
-1.469463
30
2.612281260136073
11
-0.0
21
-1.469463
31
2.7400406278356937
0
LINE
8
MEDIONETWORK
62
41
48
19.707703589442982
10
0.772542
20
-1.469463
30
2.5347354395152895
11
-0.0
21
-1.469463
31
2.6346031602909883
0
LINE
8
ASSE
62
253
10
0.772542
20
-1.469463
30
2.534478
11
-0.0
21
-1.469463
31
2.65
0
LINE
8
INTRADOSSO
62
256
10
0.772542
20
-1.469463
30
2.377641
11
-0.0
21
-1.469463
31
2.5
0
LINE
8
ESTRADOSSO
62
256
10
0.772542
20
-1.469463
30
2.691315
11
-0.0
21
-1.469463
31
2.8
0
LINE
8
MAXSPINTA
62
61
48
35.310480552302096
10
0.772542
20
-0.772542
30
2.4639687279832536
11
-0.0
21
-0.772542
31
2.5195753124555003
0
LINE
8
MINSPINTA
62
21
48
11.30381970861305
10
0.772542
20
-0.772542
30
2.6718369207774244
11
-0.0
21
-0.772542
31
2.7999999999909853
0
LINE
8
MEDIONETWORK
62
41
48
18.68881682580303
10
0.772542
20
-0.772542
30
2.553379116123441
11
-0.0
21
-0.772542
31
2.6417188934755775
0
LINE
8
ASSE
62
253
10
0.772542
20
-0.772542
30
2.534478
11
-0.0
21
-0.772542
31
2.65
0
LINE
8
INTRADOSSO
62
256
10
0.772542
20
-0.772542
30
2.377641
11
-0.0
21
-0.772542
31
2.5
0
LINE
8
ESTRADOSSO
62
256
10
0.772542
20
-0.772542
30
2.691315
11
-0.0
21
-0.772542
31
2.8
0
LINE
8
MAXSPINTA
62
61
48
32.06414846158012
10
0.772542
20
-2.5
30
2.5868713040279387
11
0.772542
21
-2.022542
31
2.4971058799627714
0
LINE
8
MINSPINTA
62
21
48
10.297085903569688
10
0.772542
20
-2.5
30
2.3776410000000006
11
0.772542
21
-2.022542
31
2.4994363087127183
0
LINE
8
MEDIONETWORK
62
41
48
16.63236642933011
10
0.772542
20
-2.5
30
2.5389328929984183
11
0.772542
21
-2.022542
31
2.516057274073863
0
LINE
8
ASSE
62
253
10
0.772542
20
-2.5
30
2.534478
11
0.772542
21
-2.022542
31
2.534478
0
LINE
8
INTRADOSSO
62
256
10
0.772542
20
-2.5
30
2.377641
11
0.772542
21
-2.022542
31
2.377641
0
LINE
8
ESTRADOSSO
62
256
10
0.772542
20
-2.5
30
2.691315
11
0.772542
21
-2.022542
31
2.691315
0
LINE
8
MAXSPINTA
62
61
48
31.556305529833594
10
0.772542
20
-2.022542
30
2.4971058799627714
11
0.772542
21
-1.469463
31
2.467787537941708
0
LINE
8
MINSPINTA
62
21
48
10.183131823515684
10
0.772542
20
-2.022542
30
2.4994363087127183
11
0.772542
21
-1.469463
31
2.612281260136073
0
LINE
8
MEDIONETWORK
62
41
48
16.62278053257029
10
0.772542
20
-2.022542
30
2.516057274073863
11
0.772542
21
-1.469463
31
2.5347354395152895
0
LINE
8
ASSE
62
253
10
0.772542
20
-2.022542
30
2.534478
11
0.772542
21
-1.469463
31
2.534478
0
LINE
8
INTRADOSSO
62
256
10
0.772542
20
-2.022542
30
2.377641
11
0.772542
21
-1.469463
31
2.377641
0
LINE
8
ESTRADOSSO
62
256
10
0.772542
20
-2.022542
30
2.691315
11
0.772542
21
-1.469463
31
2.691315
0
LINE
8
MAXSPINTA
62
61
48
31.512535406950207
10
0.772542
20
-1.469463
30
2.467787537941708
11
0.772542
21
-0.772542
31
2.4639687279832536
0
LINE
8
MINSPINTA
62
21
48
10.013938923942963
10
0.772542
20
-1.469463
30
2.612281260136073
11
0.772542
21
-0.772542
31
2.6718369207774244
0
LINE
8
MEDIONETWORK
62
41
48
16.619253049043156
10
0.772542
20
-1.469463
30
2.5347354395152895
11
0.772542
21
-0.772542
31
2.553379116123441
0
LINE
8
ASSE
62
253
10
0.772542
20
-1.469463
30
2.534478
11
0.772542
21
-0.772542
31
2.534478
0
LINE
8
INTRADOSSO
62
256
10
0.772542
20
-1.469463
30
2.377641
11
0.772542
21
-0.772542
31
2.377641
0
LINE
8
ESTRADOSSO
62
256
10
0.772542
20
-1.469463
30
2.691315
11
0.772542
21
-0.772542
31
2.691315
0
LINE
8
MAXSPINTA
62
61
48
31.68564288708429
10
2.022542
20
-2.5
30
1.8765896783372225
11
2.022542
21
-2.022542
31
1.9267730159413832
0
LINE
8
MINSPINTA
62
21
48
10.386977209978824
10
2.022542
20
-2.5
30
1.4694630000000002
11
2.022542
21
-2.022542
31
1.6076360317591527
0
LINE
8
MEDIONETWORK
62
41
48
16.74007592943403
10
2.022542
20
-2.5
30
1.7029214448542558
11
2.022542
21
-2.022542
31
1.762016491078618
0
LINE
8
ASSE
62
253
10
2.022542
20
-2.5
30
1.70289
11
2.022542
21
-2.022542
31
1.70289
0
LINE
8
INTRADOSSO
62
256
10
2.022542
20
-2.5
30
1.469463
11
2.022542
21
-2.022542
31
1.469463
0
LINE
8
ESTRADOSSO
62
256
10
2.022542
20
-2.5
30
1.936317
11
2.022542
21
-2.022542
31
1.936317
0
LINE
8
MAXSPINTA
62
61
48
35.87016863286611
10
2.377641
20
-2.5
30
1.4003767716463071
11
2.377641
21
-2.377641
31
1.466916449641888
0
LINE
8
MINSPINTA
62
21
48
10.639383173385038
10
2.377641
20
-2.5
30
0.772542
11
2.377641
21
-2.377641
31
0.8178411083984394
0
LINE
8
MEDIONETWORK
62
41
48
18.13058006199592
10
2.377641
20
-2.5
30
1.051777500620322
11
2.377641
21
-2.377641
31
1.1052524637613341
0
LINE
8
ASSE
62
253
10
2.377641
20
-2.5
30
1.1256665
11
2.377641
21
-2.377641
31
1.1256665
0
LINE
8
INTRADOSSO
62
256
10
2.377641
20
-2.5
30
0.772542
11
2.377641
21
-2.377641
31
0.772542
0
LINE
8
ESTRADOSSO
62
256
10
2.377641
20
-2.5
30
1.478791
11
2.377641
21
-2.377641
31
1.478791
0
LINE
8
MAXSPINTA
62
61
48
31.656370949464215
10
1.469463
20
-2.5
30
2.2996875719566146
11
1.469463
21
-2.022542
31
2.2539414232140675
0
LINE
8
MINSPINTA
62
21
48
10.23290598896504
10
1.469463
20
-2.5
30
2.0225420000000005
11
1.469463
21
-2.022542
31
2.1312474169992024
0
LINE
8
MEDIONETWORK
62
41
48
16.613394176264727
10
1.469463
20
-2.5
30
2.19858047893224
11
1.469463
21
-2.022542
31
2.200104728722243
0
LINE
8
ASSE
62
253
10
1.469463
20
-2.5
30
2.2029795
11
1.469463
21
-2.022542
31
2.2029795
0
LINE
8
INTRADOSSO
62
256
10
1.469463
20
-2.5
30
2.022542
11
1.469463
21
-2.022542
31
2.022542
0
LINE
8
ESTRADOSSO
62
256
10
1.469463
20
-2.5
30
2.383417
11
1.469463
21
-2.022542
31
2.383417
0
LINE
8
MAXSPINTA
62
61
48
31.55141610740884
10
1.469463
20
-2.022542
30
2.2539414232140675
11
1.469463
21
-1.469463
31
2.281591256691338
0
LINE
8
MINSPINTA
62
21
48
10.288576724739347
10
1.469463
20
-2.022542
30
2.1312474169992024
11
1.469463
21
-1.469463
31
2.2704124018633935
0
LINE
8
MEDIONETWORK
62
41
48
16.747397112240375
10
1.469463
20
-2.022542
30
2.200104728722243
11
1.469463
21
-1.469463
31
2.2705161209799214
0
LINE
8
ASSE
62
253
10
1.469463
20
-2.022542
30
2.2029795
11
1.469463
21
-1.469463
31
2.2029795
0
LINE
8
INTRADOSSO
62
256
10
1.469463
20
-2.022542
30
2.022542
11
1.469463
21
-1.469463
31
2.022542
0
LINE
8
ESTRADOSSO
62
256
10
1.469463
20
-2.022542
30
2.383417
11
1.469463
21
-1.469463
31
2.383417
0
LINE
8
MAXSPINTA
62
61
48
32.2571997545354
10
0.772542
20
-2.977458
30
2.6913149999999995
11
0.772542
21
-2.5
31
2.5868713040279387
0
LINE
8
MINSPINTA
62
21
48
11.242188812239204
10
0.772542
20
-2.977458
30
2.1297506495973906
11
0.772542
21
-2.5
31
2.3776410000000006
0
LINE
8
MEDIONETWORK
62
41
48
16.621055891468334
10
0.772542
20
-2.977458
30
2.524350731083398
11
0.772542
21
-2.5
31
2.5389328929984183
0
LINE
8
ASSE
62
253
10
0.772542
20
-2.977458
30
2.284478
11
0.772542
21
-2.5
31
2.534478
0
LINE
8
INTRADOSSO
62
256
10
0.772542
20
-2.977458
30
1.877641
11
0.772542
21
-2.5
31
2.377641
0
LINE
8
ESTRADOSSO
62
256
10
0.772542
20
-2.977458
30
2.691315
11
0.772542
21
-2.5
31
2.691315
0
LINE
8
MAXSPINTA
62
61
48
31.992936709745013
10
1.469463
20
-2.977458
30
2.383417
11
1.469463
21
-2.5
31
2.2996875719566146
0
LINE
8
MINSPINTA
62
21
48
10.737742992436967
10
1.469463
20
-2.977458
30
1.8326480628853912
11
1.469463
21
-2.5
31
2.0225420000000005
0
LINE
8
MEDIONETWORK
62
41
48
16.620232449619472
10
1.469463
20
-2.977458
30
2.1847953021586926
11
1.469463
21
-2.5
31
2.19858047893224
0
LINE
8
ASSE
62
253
10
1.469463
20
-2.977458
30
1.9529795
11
1.469463
21
-2.5
31
2.2029795
0
LINE
8
INTRADOSSO
62
256
10
1.469463
20
-2.977458
30
1.522542
11
1.469463
21
-2.5
31
2.022542
0
LINE
8
ESTRADOSSO
62
256
10
1.469463
20
-2.977458
30
2.383417
11
1.469463
21
-2.5
31
2.383417
0
LINE
8
MAXSPINTA
62
61
48
31.757665189815093
10
2.022542
20
-2.977458
30
1.936317
11
2.022542
21
-2.5
31
1.8765896783372225
0
LINE
8
MINSPINTA
62
21
48
10.07589872642518
10
2.022542
20
-2.977458
30
1.4022680723272842
11
2.022542
21
-2.5
31
1.4694630000000002
0
LINE
8
MEDIONETWORK
62
41
48
16.969252307856145
10
2.022542
20
-2.977458
30
1.8022847500615338
11
2.022542
21
-2.5
31
1.7029214448542558
0
LINE
8
ASSE
62
253
10
2.022542
20
-2.977458
30
1.45289
11
2.022542
21
-2.5
31
1.70289
0
LINE
8
INTRADOSSO
62
256
10
2.022542
20
-2.977458
30
0.969463
11
2.022542
21
-2.5
31
1.469463
0
LINE
8
ESTRADOSSO
62
256
10
2.022542
20
-2.977458
30
1.936317
11
2.022542
21
-2.5
31
1.936317
0
LINE
8
MAXSPINTA
62
81
48
41.12513005832929
10
2.377641
20
-2.977458
30
1.0
11
2.377641
21
-2.5
31
1.4003767716463071
0
LINE
8
MINSPINTA
62
21
48
11.051941120017835
10
2.377641
20
-2.977458
30
0.9999999978183319
11
2.377641
21
-2.5
31
0.772542
0
LINE
8
MEDIONETWORK
62
41
48
16.710711262259835
10
2.377641
20
-2.977458
30
1.0
11
2.377641
21
-2.5
31
1.051777500620322
0
LINE
8
ASSE
62
253
10
2.377641
20
-2.977458
30
0.636271
11
2.377641
21
-2.5
31
1.1256665
0
LINE
8
INTRADOSSO
62
256
10
2.377641
20
-2.977458
30
0.272542
11
2.377641
21
-2.5
31
0.772542
0
LINE
8
ESTRADOSSO
62
256
10
2.377641
20
-2.977458
30
1.0
11
2.377641
21
-2.5
31
1.478791
0
LINE
8
MAXSPINTA
62
61
48
32.36081956429605
10
2.977458
20
0.0
30
2.8
11
2.5
21
0.0
31
2.688440040427447
0
LINE
8
MINSPINTA
62
21
48
11.438649805984554
10
2.977458
20
0.0
30
2.2323186902833516
11
2.5
21
0.0
31
2.5
0
LINE
8
MEDIONETWORK
62
41
48
16.617366165389285
10
2.977458
20
0.0
30
2.6510066467864357
11
2.5
21
0.0
31
2.6615585842636293
0
LINE
8
ASSE
62
253
10
2.977458
20
0.0
30
2.4
11
2.5
21
0.0
31
2.65
0
LINE
8
INTRADOSSO
62
256
10
2.977458
20
0.0
30
2.0
11
2.5
21
0.0
31
2.5
0
LINE
8
ESTRADOSSO
62
256
10
2.977458
20
0.0
30
2.8
11
2.5
21
0.0
31
2.8
0
LINE
8
MAXSPINTA
62
61
48
32.25719975453541
10
2.977458
20
-0.772542
30
2.691315
11
2.5
21
-0.772542
31
2.5868713040279387
0
LINE
8
MINSPINTA
62
21
48
11.242188812688166
10
2.977458
20
-0.772542
30
2.129750649550765
11
2.5
21
-0.772542
31
2.3776410000000006
0
LINE
8
MEDIONETWORK
62
41
48
16.621055890441653
10
2.977458
20
-0.772542
30
2.5243507357407347
11
2.5
21
-0.772542
31
2.5389328966891944
0
LINE
8
ASSE
62
253
10
2.977458
20
-0.772542
30
2.284478
11
2.5
21
-0.772542
31
2.534478
0
LINE
8
INTRADOSSO
62
256
10
2.977458
20
-0.772542
30
1.877641
11
2.5
21
-0.772542
31
2.377641
0
LINE
8
ESTRADOSSO
62
256
10
2.977458
20
-0.772542
30
2.691315
11
2.5
21
-0.772542
31
2.691315
0
LINE
8
MAXSPINTA
62
61
48
31.992936709745013
10
2.977458
20
-1.469463
30
2.383417
11
2.5
21
-1.469463
31
2.2996875719566146
0
LINE
8
MINSPINTA
62
21
48
10.737742993004964
10
2.977458
20
-1.469463
30
1.8326480628118433
11
2.5
21
-1.469463
31
2.022542
0
LINE
8
MEDIONETWORK
62
41
48
16.62023244836227
10
2.977458
20
-1.469463
30
2.184795305785086
11
2.5
21
-1.469463
31
2.19858048130668
0
LINE
8
ASSE
62
253
10
2.977458
20
-1.469463
30
1.9529795
11
2.5
21
-1.469463
31
2.2029795
0
LINE
8
INTRADOSSO
62
256
10
2.977458
20
-1.469463
30
1.522542
11
2.5
21
-1.469463
31
2.022542
0
LINE
8
ESTRADOSSO
62
256
10
2.977458
20
-1.469463
30
2.383417
11
2.5
21
-1.469463
31
2.383417
0
LINE
8
MAXSPINTA
62
61
48
31.757665189815093
10
2.977458
20
-2.022542
30
1.936317
11
2.5
21
-2.022542
31
1.8765896783372225
0
LINE
8
MINSPINTA
62
21
48
10.075898726189973
10
2.977458
20
-2.022542
30
1.4022680724080492
11
2.5
21
-2.022542
31
1.4694630000000006
0
LINE
8
MEDIONETWORK
62
41
48
16.96925231521985
10
2.977458
20
-2.022542
30
1.8022847520982055
11
2.5
21
-2.022542
31
1.7029214458522246
0
LINE
8
ASSE
62
253
10
2.977458
20
-2.022542
30
1.45289
11
2.5
21
-2.022542
31
1.70289
0
LINE
8
INTRADOSSO
62
256
10
2.977458
20
-2.022542
30
0.969463
11
2.5
21
-2.022542
31
1.469463
0
LINE
8
ESTRADOSSO
62
256
10
2.977458
20
-2.022542
30
1.936317
11
2.5
21
-2.022542
31
1.936317
0
LINE
8
MAXSPINTA
62
81
48
41.1251300583293
10
2.977458
20
-2.377641
30
1.0
11
2.5
21
-2.377641
31
1.4003767716463074
0
LINE
8
MINSPINTA
62
21
48
11.051941139625727
10
2.977458
20
-2.377641
30
1.0
11
2.5
21
-2.377641
31
0.772542
0
LINE
8
MEDIONETWORK
62
41
48
16.710711262652424
10
2.977458
20
-2.377641
30
1.0
11
2.5
21
-2.377641
31
1.051777500724975
0
LINE
8
ASSE
62
253
10
2.977458
20
-2.377641
30
0.636271
11
2.5
21
-2.377641
31
1.1256665
0
LINE
8
INTRADOSSO
62
256
10
2.977458
20
-2.377641
30
0.272542
11
2.5
21
-2.377641
31
0.772542
0
LINE
8
ESTRADOSSO
62
256
10
2.977458
20
-2.377641
30
1.0
11
2.5
21
-2.377641
31
1.478791
0
LINE
8
MAXSPINTA
62
101
48
65.31731780378908
10
2.5
20
2.5
30
1.260952
11
2.377641
21
2.377641
31
1.4669164496418874
0
LINE
8
MINSPINTA
62
81
48
42.84421634452335
10
2.5
20
2.5
30
0.28809957831313443
11
2.377641
21
2.377641
31
0.8178411085090302
0
LINE
8
MEDIONETWORK
62
101
48
54.84705899244251
10
2.5
20
2.5
30
0.7132910668141426
11
2.377641
21
2.377641
31
1.105252478740606
0
LINE
8
ASSE
62
253
10
2.5
20
2.5
30
0.630476
11
2.377641
21
2.377641
31
1.1256665
0
LINE
8
INTRADOSSO
62
256
10
2.5
20
2.5
30
0.0
11
2.377641
21
2.377641
31
0.772542
0
LINE
8
ESTRADOSSO
62
256
10
2.5
20
2.5
30
1.260952
11
2.377641
21
2.377641
31
1.478791
0
LINE
8
MAXSPINTA
62
181
48
117.39691429743863
10
2.377641
20
2.377641
30
1.4669164496418874
11
2.022542
21
2.022542
31
1.926773015941382
0
LINE
8
MINSPINTA
62
81
48
51.091587922687765
10
2.377641
20
2.377641
30
0.8178411085090302
11
2.022542
21
2.022542
31
1.6076360317387588
0
LINE
8
MEDIONETWORK
62
121
48
75.14766327876339
10
2.377641
20
2.377641
30
1.105252478740606
11
2.022542
21
2.022542
31
1.7620165027005927
0
LINE
8
ASSE
62
253
10
2.377641
20
2.377641
30
1.1256665
11
2.022542
21
2.022542
31
1.70289
0
LINE
8
INTRADOSSO
62
256
10
2.377641
20
2.377641
30
0.772542
11
2.022542
21
2.022542
31
1.469463
0
LINE
8
ESTRADOSSO
62
256
10
2.377641
20
2.377641
30
1.478791
11
2.022542
21
2.022542
31
1.936317
0
LINE
8
MAXSPINTA
62
141
48
82.59899657563523
10
2.022542
20
2.022542
30
1.926773015941382
11
1.469463
21
1.469463
31
2.2815912566913368
0
LINE
8
MINSPINTA
62
61
48
31.217718931645162
10
2.022542
20
2.022542
30
1.6076360317387588
11
1.469463
21
1.469463
31
2.2704124019921177
0
LINE
8
MEDIONETWORK
62
81
48
47.300762247325785
10
2.022542
20
2.022542
30
1.7620165027005927
11
1.469463
21
1.469463
31
2.2705161286512534
0
LINE
8
ASSE
62
253
10
2.022542
20
2.022542
30
1.70289
11
1.469463
21
1.469463
31
2.2029795
0
LINE
8
INTRADOSSO
62
256
10
2.022542
20
2.022542
30
1.469463
11
1.469463
21
1.469463
31
2.022542
0
LINE
8
ESTRADOSSO
62
256
10
2.022542
20
2.022542
30
1.936317
11
1.469463
21
1.469463
31
2.383417
0
LINE
8
MAXSPINTA
62
121
48
68.5003174887686
10
1.469463
20
1.469463
30
2.2815912566913368
11
0.772542
21
0.772542
31
2.4639687279832527
0
LINE
8
MINSPINTA
62
41
48
23.028092687528314
10
1.469463
20
1.469463
30
2.2704124019921177
11
0.772542
21
0.772542
31
2.6718369208084836
0
LINE
8
MEDIONETWORK
62
61
48
36.94438165479761
10
1.469463
20
1.469463
30
2.2705161286512534
11
0.772542
21
0.772542
31
2.553379119773512
0
LINE
8
ASSE
62
253
10
1.469463
20
1.469463
30
2.2029795
11
0.772542
21
0.772542
31
2.534478
0
LINE
8
INTRADOSSO
62
256
10
1.469463
20
1.469463
30
2.022542
11
0.772542
21
0.772542
31
2.377641
0
LINE
8
ESTRADOSSO
62
256
10
1.469463
20
1.469463
30
2.383417
11
0.772542
21
0.772542
31
2.691315
0
LINE
8
MAXSPINTA
62
101
48
62.14769734064025
10
0.772542
20
0.772542
30
2.4639687279832527
11
-0.0
21
0.0
31
2.5000000000000004
0
LINE
8
MINSPINTA
62
41
48
19.73956944542506
10
0.772542
20
0.772542
30
2.6718369208084836
11
-0.0
21
0.0
31
2.7658083771266124
0
LINE
8
MEDIONETWORK
62
61
48
32.79807204277067
10
0.772542
20
0.772542
30
2.553379119773512
11
-0.0
21
0.0
31
2.6145651658019946
0
LINE
8
ASSE
62
253
10
0.772542
20
0.772542
30
2.534478
11
-0.0
21
0.0
31
2.65
0
LINE
8
INTRADOSSO
62
256
10
0.772542
20
0.772542
30
2.377641
11
-0.0
21
0.0
31
2.5
0
LINE
8
ESTRADOSSO
62
256
10
0.772542
20
0.772542
30
2.691315
11
-0.0
21
0.0
31
2.8
0
LINE
8
MAXSPINTA
62
61
48
32.24829169246858
10
2.5
20
2.5
30
1.260952
11
2.5
21
2.377641
31
1.400376771646307
0
LINE
8
MINSPINTA
62
61
48
27.50283172029669
10
2.5
20
2.5
30
0.28809957831313443
11
2.5
21
2.377641
31
0.7725420000000002
0
LINE
8
MEDIONETWORK
62
61
48
32.98735094881587
10
2.5
20
2.5
30
0.7132910668141426
11
2.5
21
2.377641
31
1.0517775149068291
0
LINE
8
ASSE
62
253
10
2.5
20
2.5
30
0.630476
11
2.5
21
2.377641
31
1.1256665
0
LINE
8
INTRADOSSO
62
256
10
2.5
20
2.5
30
0.0
11
2.5
21
2.377641
31
0.772542
0
LINE
8
ESTRADOSSO
62
256
10
2.5
20
2.5
30
1.260952
11
2.5
21
2.377641
31
1.478791
0
LINE
8
MAXSPINTA
62
61
48
35.583973159896544
10
2.5
20
2.377641
30
1.400376771646307
11
2.5
21
2.022542
31
1.8765896783372222
0
LINE
8
MINSPINTA
62
41
48
14.835267688315971
10
2.5
20
2.377641
30
0.7725420000000002
11
2.5
21
2.022542
31
1.4694630000000002
0
LINE
8
MEDIONETWORK
62
41
48
23.42277353153236
10
2.5
20
2.377641
30
1.0517775149068291
11
2.5
21
2.022542
31
1.7029214583830297
0
LINE
8
ASSE
62
253
10
2.5
20
2.377641
30
1.1256665
11
2.5
21
2.022542
31
1.70289
0
LINE
8
INTRADOSSO
62
256
10
2.5
20
2.377641
30
0.772542
11
2.5
21
2.022542
31
1.469463
0
LINE
8
ESTRADOSSO
62
256
10
2.5
20
2.377641
30
1.478791
11
2.5
21
2.022542
31
1.936317
0
LINE
8
MAXSPINTA
62
61
48
26.781607189701433
10
2.5
20
2.022542
30
1.8765896783372222
11
2.5
21
1.469463
31
2.299687571956613
0
LINE
8
MINSPINTA
62
21
48
9.524828476822531
10
2.5
20
2.022542
30
1.4694630000000002
11
2.5
21
1.469463
31
2.022542
0
LINE
8
MEDIONETWORK
62
41
48
15.058724624516165
10
2.5
20
2.022542
30
1.7029214583830297
11
2.5
21
1.469463
31
2.198580489592941
0
LINE
8
ASSE
62
253
10
2.5
20
2.022542
30
1.70289
11
2.5
21
1.469463
31
2.2029795
0
LINE
8
INTRADOSSO
62
256
10
2.5
20
2.022542
30
1.469463
11
2.5
21
1.469463
31
2.022542
0
LINE
8
ESTRADOSSO
62
256
10
2.5
20
2.022542
30
1.936317
11
2.5
21
1.469463
31
2.383417
0
LINE
8
MAXSPINTA
62
41
48
23.006519691433628
10
2.5
20
1.469463
30
2.299687571956613
11
2.5
21
0.772542
31
2.5868713040279383
0
LINE
8
MINSPINTA
62
21
48
7.558946739807395
10
2.5
20
1.469463
30
2.022542
11
2.5
21
0.772542
31
2.3776410000000006
0
LINE
8
MEDIONETWORK
62
21
48
12.480201057536677
10
2.5
20
1.469463
30
2.198580489592941
11
2.5
21
0.772542
31
2.538932900972201
0
LINE
8
ASSE
62
253
10
2.5
20
1.469463
30
2.2029795
11
2.5
21
0.772542
31
2.534478
0
LINE
8
INTRADOSSO
62
256
10
2.5
20
1.469463
30
2.022542
11
2.5
21
0.772542
31
2.377641
0
LINE
8
ESTRADOSSO
62
256
10
2.5
20
1.469463
30
2.383417
11
2.5
21
0.772542
31
2.691315
0
LINE
8
MAXSPINTA
62
41
48
21.45435255150361
10
2.5
20
0.772542
30
2.5868713040279383
11
2.5
21
0.0
31
2.688440040427447
0
LINE
8
MINSPINTA
62
21
48
6.819024811858771
10
2.5
20
0.772542
30
2.3776410000000006
11
2.5
21
0.0
31
2.5
0
LINE
8
MEDIONETWORK
62
21
48
11.354726020029998
10
2.5
20
0.772542
30
2.538932900972201
11
2.5
21
0.0
31
2.6615585842636293
0
LINE
8
ASSE
62
253
10
2.5
20
0.772542
30
2.534478
11
2.5
21
0.0
31
2.65
0
LINE
8
INTRADOSSO
62
256
10
2.5
20
0.772542
30
2.377641
11
2.5
21
0.0
31
2.5
0
LINE
8
ESTRADOSSO
62
256
10
2.5
20
0.772542
30
2.691315
11
2.5
21
0.0
31
2.8
0
LINE
8
MAXSPINTA
62
81
48
45.94524701947316
10
2.022542
20
2.022542
30
1.926773015941382
11
2.022542
21
1.469463
31
2.253941423214066
0
LINE
8
MINSPINTA
62
41
48
17.24193540734574
10
2.022542
20
2.022542
30
1.6076360317387588
11
2.022542
21
1.469463
31
2.1312474171400737
0
LINE
8
MEDIONETWORK
62
41
48
26.595854267028432
10
2.022542
20
2.022542
30
1.7620165027005927
11
2.022542
21
1.469463
31
2.2001047380883265
0
LINE
8
ASSE
62
253
10
2.022542
20
2.022542
30
1.70289
11
2.022542
21
1.469463
31
2.2029795
0
LINE
8
INTRADOSSO
62
256
10
2.022542
20
2.022542
30
1.469463
11
2.022542
21
1.469463
31
2.022542
0
LINE
8
ESTRADOSSO
62
256
10
2.022542
20
2.022542
30
1.936317
11
2.022542
21
1.469463
31
2.383417
0
LINE
8
MAXSPINTA
62
81
48
41.882511516237315
10
2.022542
20
1.469463
30
2.253941423214066
11
2.022542
21
0.772542
31
2.49710587996277
0
LINE
8
MINSPINTA
62
41
48
14.160825675853385
10
2.022542
20
1.469463
30
2.1312474171400737
11
2.022542
21
0.772542
31
2.499436308760216
0
LINE
8
MEDIONETWORK
62
41
48
22.890489693167556
10
2.022542
20
1.469463
30
2.2001047380883265
11
2.022542
21
0.772542
31
2.5160572809371904
0
LINE
8
ASSE
62
253
10
2.022542
20
1.469463
30
2.2029795
11
2.022542
21
0.772542
31
2.534478
0
LINE
8
INTRADOSSO
62
256
10
2.022542
20
1.469463
30
2.022542
11
2.022542
21
0.772542
31
2.377641
0
LINE
8
ESTRADOSSO
62
256
10
2.022542
20
1.469463
30
2.383417
11
2.022542
21
0.772542
31
2.691315
0
LINE
8
MAXSPINTA
62
61
48
39.80471130032544
10
2.022542
20
0.772542
30
2.49710587996277
11
2.022542
21
0.0
31
2.5858683257030917
0
LINE
8
MINSPINTA
62
21
48
12.699810513618665
10
2.022542
20
0.772542
30
2.499436308760216
11
2.022542
21
0.0
31
2.630508786667655
0
LINE
8
MEDIONETWORK
62
41
48
21.07649207570765
10
2.022542
20
0.772542
30
2.5160572809371904
11
2.022542
21
0.0
31
2.630728654732415
0
LINE
8
ASSE
62
253
10
2.022542
20
0.772542
30
2.534478
11
2.022542
21
0.0
31
2.65
0
LINE
8
INTRADOSSO
62
256
10
2.022542
20
0.772542
30
2.377641
11
2.022542
21
0.0
31
2.5
0
LINE
8
ESTRADOSSO
62
256
10
2.022542
20
0.772542
30
2.691315
11
2.022542
21
0.0
31
2.8
0
LINE
8
MAXSPINTA
62
61
48
38.37334108362012
10
1.469463
20
1.469463
30
2.2815912566913368
11
1.469463
21
0.772542
31
2.4677875379417076
0
LINE
8
MINSPINTA
62
21
48
13.074569061407905
10
1.469463
20
1.469463
30
2.2704124019921177
11
1.469463
21
0.772542
31
2.6122812602363306
0
LINE
8
MEDIONETWORK
62
41
48
20.902580493900825
10
1.469463
20
1.469463
30
2.2705161286512534
11
1.469463
21
0.772542
31
2.5347354450594204
0
LINE
8
ASSE
62
253
10
1.469463
20
1.469463
30
2.2029795
11
1.469463
21
0.772542
31
2.534478
0
LINE
8
INTRADOSSO
62
256
10
1.469463
20
1.469463
30
2.022542
11
1.469463
21
0.772542
31
2.377641
0
LINE
8
ESTRADOSSO
62
256
10
1.469463
20
1.469463
30
2.383417
11
1.469463
21
0.772542
31
2.691315
0
LINE
8
MAXSPINTA
62
61
48
37.229239341203595
10
1.469463
20
0.772542
30
2.4677875379417076
11
1.469463
21
0.0
31
2.538784576127422
0
LINE
8
MINSPINTA
62
21
48
11.897755203876198
10
1.469463
20
0.772542
30
2.6122812602363306
11
1.469463
21
0.0
31
2.7400406278159175
0
LINE
8
MEDIONETWORK
62
41
48
19.707703582372872
10
1.469463
20
0.772542
30
2.5347354450594204
11
1.469463
21
0.0
31
2.634603163655368
0
LINE
8
ASSE
62
253
10
1.469463
20
0.772542
30
2.534478
11
1.469463
21
0.0
31
2.65
0
LINE
8
INTRADOSSO
62
256
10
1.469463
20
0.772542
30
2.377641
11
1.469463
21
0.0
31
2.5
0
LINE
8
ESTRADOSSO
62
256
10
1.469463
20
0.772542
30
2.691315
11
1.469463
21
0.0
31
2.8
0
LINE
8
MAXSPINTA
62
61
48
35.310480552302096
10
0.772542
20
0.772542
30
2.4639687279832527
11
0.772542
21
0.0
31
2.5195753124555003
0
LINE
8
MINSPINTA
62
21
48
11.303819708458306
10
0.772542
20
0.772542
30
2.6718369208084836
11
0.772542
21
0.0
31
2.799999999956543
0
LINE
8
MEDIONETWORK
62
41
48
18.68881682082668
10
0.772542
20
0.772542
30
2.553379119773512
11
0.772542
21
0.0
31
2.641718895303185
0
LINE
8
ASSE
62
253
10
0.772542
20
0.772542
30
2.534478
11
0.772542
21
0.0
31
2.65
0
LINE
8
INTRADOSSO
62
256
10
0.772542
20
0.772542
30
2.377641
11
0.772542
21
0.0
31
2.5
0
LINE
8
ESTRADOSSO
62
256
10
0.772542
20
0.772542
30
2.691315
11
0.772542
21
0.0
31
2.8
0
LINE
8
MAXSPINTA
62
61
48
32.06414846158013
10
2.5
20
0.772542
30
2.5868713040279383
11
2.022542
21
0.772542
31
2.49710587996277
0
LINE
8
MINSPINTA
62
21
48
10.297085903815027
10
2.5
20
0.772542
30
2.3776410000000006
11
2.022542
21
0.772542
31
2.499436308760216
0
LINE
8
MEDIONETWORK
62
41
48
16.632366431179214
10
2.5
20
0.772542
30
2.538932900972201
11
2.022542
21
0.772542
31
2.5160572809371904
0
LINE
8
ASSE
62
253
10
2.5
20
0.772542
30
2.534478
11
2.022542
21
0.772542
31
2.534478
0
LINE
8
INTRADOSSO
62
256
10
2.5
20
0.772542
30
2.377641
11
2.022542
21
0.772542
31
2.377641
0
LINE
8
ESTRADOSSO
62
256
10
2.5
20
0.772542
30
2.691315
11
2.022542
21
0.772542
31
2.691315
0
LINE
8
MAXSPINTA
62
61
48
31.556305529833587
10
2.022542
20
0.772542
30
2.49710587996277
11
1.469463
21
0.772542
31
2.4677875379417076
0
LINE
8
MINSPINTA
62
21
48
10.18313182370596
10
2.022542
20
0.772542
30
2.499436308760216
11
1.469463
21
0.772542
31
2.6122812602363306
0
LINE
8
MEDIONETWORK
62
41
48
16.622780531232838
10
2.022542
20
0.772542
30
2.5160572809371904
11
1.469463
21
0.772542
31
2.5347354450594204
0
LINE
8
ASSE
62
253
10
2.022542
20
0.772542
30
2.534478
11
1.469463
21
0.772542
31
2.534478
0
LINE
8
INTRADOSSO
62
256
10
2.022542
20
0.772542
30
2.377641
11
1.469463
21
0.772542
31
2.377641
0
LINE
8
ESTRADOSSO
62
256
10
2.022542
20
0.772542
30
2.691315
11
1.469463
21
0.772542
31
2.691315
0
LINE
8
MAXSPINTA
62
61
48
31.512535406950207
10
1.469463
20
0.772542
30
2.4677875379417076
11
0.772542
21
0.772542
31
2.4639687279832527
0
LINE
8
MINSPINTA
62
21
48
10.01393892385861
10
1.469463
20
0.772542
30
2.6122812602363306
11
0.772542
21
0.772542
31
2.6718369208084836
0
LINE
8
MEDIONETWORK
62
41
48
16.619253047835734
10
1.469463
20
0.772542
30
2.5347354450594204
11
0.772542
21
0.772542
31
2.553379119773512
0
LINE
8
ASSE
62
253
10
1.469463
20
0.772542
30
2.534478
11
0.772542
21
0.772542
31
2.534478
0
LINE
8
INTRADOSSO
62
256
10
1.469463
20
0.772542
30
2.377641
11
0.772542
21
0.772542
31
2.377641
0
LINE
8
ESTRADOSSO
62
256
10
1.469463
20
0.772542
30
2.691315
11
0.772542
21
0.772542
31
2.691315
0
LINE
8
MAXSPINTA
62
61
48
31.68564288708428
10
2.5
20
2.022542
30
1.8765896783372222
11
2.022542
21
2.022542
31
1.926773015941382
0
LINE
8
MINSPINTA
62
21
48
10.386977209860351
10
2.5
20
2.022542
30
1.4694630000000002
11
2.022542
21
2.022542
31
1.6076360317387588
0
LINE
8
MEDIONETWORK
62
41
48
16.74007592128435
10
2.5
20
2.022542
30
1.7029214583830297
11
2.022542
21
2.022542
31
1.7620165027005927
0
LINE
8
ASSE
62
253
10
2.5
20
2.022542
30
1.70289
11
2.022542
21
2.022542
31
1.70289
0
LINE
8
INTRADOSSO
62
256
10
2.5
20
2.022542
30
1.469463
11
2.022542
21
2.022542
31
1.469463
0
LINE
8
ESTRADOSSO
62
256
10
2.5
20
2.022542
30
1.936317
11
2.022542
21
2.022542
31
1.936317
0
LINE
8
MAXSPINTA
62
61
48
35.870168632866054
10
2.5
20
2.377641
30
1.400376771646307
11
2.377641
21
2.377641
31
1.4669164496418874
0
LINE
8
MINSPINTA
62
21
48
10.639383176515942
10
2.5
20
2.377641
30
0.7725420000000002
11
2.377641
21
2.377641
31
0.8178411085090302
0
LINE
8
MEDIONETWORK
62
41
48
18.13058009966327
10
2.5
20
2.377641
30
1.0517775149068291
11
2.377641
21
2.377641
31
1.105252478740606
0
LINE
8
ASSE
62
253
10
2.5
20
2.377641
30
1.1256665
11
2.377641
21
2.377641
31
1.1256665
0
LINE
8
INTRADOSSO
62
256
10
2.5
20
2.377641
30
0.772542
11
2.377641
21
2.377641
31
0.772542
0
LINE
8
ESTRADOSSO
62
256
10
2.5
20
2.377641
30
1.478791
11
2.377641
21
2.377641
31
1.478791
0
LINE
8
MAXSPINTA
62
61
48
31.656370949464215
10
2.5
20
1.469463
30
2.299687571956613
11
2.022542
21
1.469463
31
2.253941423214066
0
LINE
8
MINSPINTA
62
21
48
10.232905989618557
10
2.5
20
1.469463
30
2.022542
11
2.022542
21
1.469463
31
2.1312474171400737
0
LINE
8
MEDIONETWORK
62
41
48
16.61339417612092
10
2.5
20
1.469463
30
2.198580489592941
11
2.022542
21
1.469463
31
2.2001047380883265
0
LINE
8
ASSE
62
253
10
2.5
20
1.469463
30
2.2029795
11
2.022542
21
1.469463
31
2.2029795
0
LINE
8
INTRADOSSO
62
256
10
2.5
20
1.469463
30
2.022542
11
2.022542
21
1.469463
31
2.022542
0
LINE
8
ESTRADOSSO
62
256
10
2.5
20
1.469463
30
2.383417
11
2.022542
21
1.469463
31
2.383417
0
LINE
8
MAXSPINTA
62
61
48
31.55141610740884
10
2.022542
20
1.469463
30
2.253941423214066
11
1.469463
21
1.469463
31
2.2815912566913368
0
LINE
8
MINSPINTA
62
21
48
10.288576724685875
10
2.022542
20
1.469463
30
2.1312474171400737
11
1.469463
21
1.469463
31
2.2704124019921177
0
LINE
8
MEDIONETWORK
62
41
48
16.747397105811434
10
2.022542
20
1.469463
30
2.2001047380883265
11
1.469463
21
1.469463
31
2.2705161286512534
0
LINE
8
ASSE
62
253
10
2.022542
20
1.469463
30
2.2029795
11
1.469463
21
1.469463
31
2.2029795
0
LINE
8
INTRADOSSO
62
256
10
2.022542
20
1.469463
30
2.022542
11
1.469463
21
1.469463
31
2.022542
0
LINE
8
ESTRADOSSO
62
256
10
2.022542
20
1.469463
30
2.383417
11
1.469463
21
1.469463
31
2.383417
0
LINE
8
MAXSPINTA
62
61
48
32.24829169246855
10
2.5
20
2.5
30
1.260952
11
2.377641
21
2.5
31
1.4003767716463067
0
LINE
8
MINSPINTA
62
61
48
27.50283172029668
10
2.5
20
2.5
30
0.28809957831313443
11
2.377641
21
2.5
31
0.772542
0
LINE
8
MEDIONETWORK
62
61
48
32.98735094553033
10
2.5
20
2.5
30
0.7132910668141426
11
2.377641
21
2.5
31
1.0517775148687103
0
LINE
8
ASSE
62
253
10
2.5
20
2.5
30
0.630476
11
2.377641
21
2.5
31
1.1256665
0
LINE
8
INTRADOSSO
62
256
10
2.5
20
2.5
30
0.0
11
2.377641
21
2.5
31
0.772542
0
LINE
8
ESTRADOSSO
62
256
10
2.5
20
2.5
30
1.260952
11
2.377641
21
2.5
31
1.478791
0
LINE
8
MAXSPINTA
62
61
48
35.58397315989653
10
2.377641
20
2.5
30
1.4003767716463067
11
2.022542
21
2.5
31
1.8765896783372216
0
LINE
8
MINSPINTA
62
41
48
14.835267688315984
10
2.377641
20
2.5
30
0.772542
11
2.022542
21
2.5
31
1.4694630000000006
0
LINE
8
MEDIONETWORK
62
41
48
23.422773524039354
10
2.377641
20
2.5
30
1.0517775148687103
11
2.022542
21
2.5
31
1.7029214580746583
0
LINE
8
ASSE
62
253
10
2.377641
20
2.5
30
1.1256665
11
2.022542
21
2.5
31
1.70289
0
LINE
8
INTRADOSSO
62
256
10
2.377641
20
2.5
30
0.772542
11
2.022542
21
2.5
31
1.469463
0
LINE
8
ESTRADOSSO
62
256
10
2.377641
20
2.5
30
1.478791
11
2.022542
21
2.5
31
1.936317
0
LINE
8
MAXSPINTA
62
61
48
26.781607189701443
10
2.022542
20
2.5
30
1.8765896783372216
11
1.469463
21
2.5
31
2.299687571956613
0
LINE
8
MINSPINTA
62
21
48
9.524828476822531
10
2.022542
20
2.5
30
1.4694630000000006
11
1.469463
21
2.5
31
2.0225420000000005
0
LINE
8
MEDIONETWORK
62
41
48
15.058724644379662
10
2.022542
20
2.5
30
1.7029214580746583
11
1.469463
21
2.5
31
2.198580490752443
0
LINE
8
ASSE
62
253
10
2.022542
20
2.5
30
1.70289
11
1.469463
21
2.5
31
2.2029795
0
LINE
8
INTRADOSSO
62
256
10
2.022542
20
2.5
30
1.469463
11
1.469463
21
2.5
31
2.022542
0
LINE
8
ESTRADOSSO
62
256
10
2.022542
20
2.5
30
1.936317
11
1.469463
21
2.5
31
2.383417
0
LINE
8
MAXSPINTA
62
41
48
23.006519691433628
10
1.469463
20
2.5
30
2.299687571956613
11
0.772542
21
2.5
31
2.5868713040279383
0
LINE
8
MINSPINTA
62
21
48
7.558946739807391
10
1.469463
20
2.5
30
2.0225420000000005
11
0.772542
21
2.5
31
2.377641
0
LINE
8
MEDIONETWORK
62
21
48
12.480201064318761
10
1.469463
20
2.5
30
2.198580490752443
11
0.772542
21
2.5
31
2.538932903092156
0
LINE
8
ASSE
62
253
10
1.469463
20
2.5
30
2.2029795
11
0.772542
21
2.5
31
2.534478
0
LINE
8
INTRADOSSO
62
256
10
1.469463
20
2.5
30
2.022542
11
0.772542
21
2.5
31
2.377641
0
LINE
8
ESTRADOSSO
62
256
10
1.469463
20
2.5
30
2.383417
11
0.772542
21
2.5
31
2.691315
0
LINE
8
MAXSPINTA
62
41
48
21.45435255150361
10
0.772542
20
2.5
30
2.5868713040279383
11
-0.0
21
2.5
31
2.6884400404274467
0
LINE
8
MINSPINTA
62
21
48
6.819024811858773
10
0.772542
20
2.5
30
2.377641
11
-0.0
21
2.5
31
2.5
0
LINE
8
MEDIONETWORK
62
21
48
11.354726021147902
10
0.772542
20
2.5
30
2.538932903092156
11
-0.0
21
2.5
31
2.6615585868748286
0
LINE
8
ASSE
62
253
10
0.772542
20
2.5
30
2.534478
11
-0.0
21
2.5
31
2.65
0
LINE
8
INTRADOSSO
62
256
10
0.772542
20
2.5
30
2.377641
11
-0.0
21
2.5
31
2.5
0
LINE
8
ESTRADOSSO
62
256
10
0.772542
20
2.5
30
2.691315
11
-0.0
21
2.5
31
2.8
0
LINE
8
MAXSPINTA
62
81
48
45.94524701947316
10
2.022542
20
2.022542
30
1.926773015941382
11
1.469463
21
2.022542
31
2.253941423214066
0
LINE
8
MINSPINTA
62
41
48
17.241935408054506
10
2.022542
20
2.022542
30
1.6076360317387588
11
1.469463
21
2.022542
31
2.131247417185613
0
LINE
8
MEDIONETWORK
62
41
48
26.59585428258026
10
2.022542
20
2.022542
30
1.7620165027005927
11
1.469463
21
2.022542
31
2.2001047387527977
0
LINE
8
ASSE
62
253
10
2.022542
20
2.022542
30
1.70289
11
1.469463
21
2.022542
31
2.2029795
0
LINE
8
INTRADOSSO
62
256
10
2.022542
20
2.022542
30
1.469463
11
1.469463
21
2.022542
31
2.022542
0
LINE
8
ESTRADOSSO
62
256
10
2.022542
20
2.022542
30
1.936317
11
1.469463
21
2.022542
31
2.383417
0
LINE
8
MAXSPINTA
62
81
48
41.882511516237315
10
1.469463
20
2.022542
30
2.253941423214066
11
0.772542
21
2.022542
31
2.49710587996277
0
LINE
8
MINSPINTA
62
41
48
14.160825675972204
10
1.469463
20
2.022542
30
2.131247417185613
11
0.772542
21
2.022542
31
2.4994363088199125
0
LINE
8
MEDIONETWORK
62
41
48
22.890489703783498
10
1.469463
20
2.022542
30
2.2001047387527977
11
0.772542
21
2.022542
31
2.5160572824611234
0
LINE
8
ASSE
62
253
10
1.469463
20
2.022542
30
2.2029795
11
0.772542
21
2.022542
31
2.534478
0
LINE
8
INTRADOSSO
62
256
10
1.469463
20
2.022542
30
2.022542
11
0.772542
21
2.022542
31
2.377641
0
LINE
8
ESTRADOSSO
62
256
10
1.469463
20
2.022542
30
2.383417
11
0.772542
21
2.022542
31
2.691315
0
LINE
8
MAXSPINTA
62
61
48
39.804711300325444
10
0.772542
20
2.022542
30
2.49710587996277
11
-0.0
21
2.022542
31
2.585868325703092
0
LINE
8
MINSPINTA
62
21
48
12.699810513543639
10
0.772542
20
2.022542
30
2.4994363088199125
11
-0.0
21
2.022542
31
2.6305087866996764
0
LINE
8
MEDIONETWORK
62
41
48
21.076492078778127
10
0.772542
20
2.022542
30
2.5160572824611234
11
-0.0
21
2.022542
31
2.6307286570312742
0
LINE
8
ASSE
62
253
10
0.772542
20
2.022542
30
2.534478
11
-0.0
21
2.022542
31
2.65
0
LINE
8
INTRADOSSO
62
256
10
0.772542
20
2.022542
30
2.377641
11
-0.0
21
2.022542
31
2.5
0
LINE
8
ESTRADOSSO
62
256
10
0.772542
20
2.022542
30
2.691315
11
-0.0
21
2.022542
31
2.8
0
LINE
8
MAXSPINTA
62
61
48
38.37334108362012
10
1.469463
20
1.469463
30
2.2815912566913368
11
0.772542
21
1.469463
31
2.467787537941707
0
LINE
8
MINSPINTA
62
21
48
13.074569061534598
10
1.469463
20
1.469463
30
2.2704124019921177
11
0.772542
21
1.469463
31
2.6122812602534102
0
LINE
8
MEDIONETWORK
62
41
48
20.902580502180136
10
1.469463
20
1.469463
30
2.2705161286512534
11
0.772542
21
1.469463
31
2.534735445892185
0
LINE
8
ASSE
62
253
10
1.469463
20
1.469463
30
2.2029795
11
0.772542
21
1.469463
31
2.534478
0
LINE
8
INTRADOSSO
62
256
10
1.469463
20
1.469463
30
2.022542
11
0.772542
21
1.469463
31
2.377641
0
LINE
8
ESTRADOSSO
62
256
10
1.469463
20
1.469463
30
2.383417
11
0.772542
21
1.469463
31
2.691315
0
LINE
8
MAXSPINTA
62
61
48
37.229239341203595
10
0.772542
20
1.469463
30
2.467787537941707
11
-0.0
21
1.469463
31
2.538784576127423
0
LINE
8
MINSPINTA
62
21
48
11.897755203895793
10
0.772542
20
1.469463
30
2.6122812602534102
11
-0.0
21
1.469463
31
2.7400406278409015
0
LINE
8
MEDIONETWORK
62
41
48
19.707703585262998
10
0.772542
20
1.469463
30
2.534735445892185
11
-0.0
21
1.469463
31
2.6346031653791737
0
LINE
8
ASSE
62
253
10
0.772542
20
1.469463
30
2.534478
11
-0.0
21
1.469463
31
2.65
0
LINE
8
INTRADOSSO
62
256
10
0.772542
20
1.469463
30
2.377641
11
-0.0
21
1.469463
31
2.5
0
LINE
8
ESTRADOSSO
62
256
10
0.772542
20
1.469463
30
2.691315
11
-0.0
21
1.469463
31
2.8
0
LINE
8
MAXSPINTA
62
61
48
35.310480552302096
10
0.772542
20
0.772542
30
2.4639687279832527
11
-0.0
21
0.772542
31
2.5195753124555
0
LINE
8
MINSPINTA
62
21
48
11.303819708479358
10
0.772542
20
0.772542
30
2.6718369208084836
11
-0.0
21
0.772542
31
2.7999999999654532
0
LINE
8
MEDIONETWORK
62
41
48
18.68881682331456
10
0.772542
20
0.772542
30
2.553379119773512
11
-0.0
21
0.772542
31
2.641718896214309
0
LINE
8
ASSE
62
253
10
0.772542
20
0.772542
30
2.534478
11
-0.0
21
0.772542
31
2.65
0
LINE
8
INTRADOSSO
62
256
10
0.772542
20
0.772542
30
2.377641
11
-0.0
21
0.772542
31
2.5
0
LINE
8
ESTRADOSSO
62
256
10
0.772542
20
0.772542
30
2.691315
11
-0.0
21
0.772542
31
2.8
0
LINE
8
MAXSPINTA
62
61
48
32.06414846158013
10
0.772542
20
2.5
30
2.5868713040279383
11
0.772542
21
2.022542
31
2.49710587996277
0
LINE
8
MINSPINTA
62
21
48
10.297085904123382
10
0.772542
20
2.5
30
2.377641
11
0.772542
21
2.022542
31
2.4994363088199125
0
LINE
8
MEDIONETWORK
62
41
48
16.632366432171697
10
0.772542
20
2.5
30
2.538932903092156
11
0.772542
21
2.022542
31
2.5160572824611234
0
LINE
8
ASSE
62
253
10
0.772542
20
2.5
30
2.534478
11
0.772542
21
2.022542
31
2.534478
0
LINE
8
INTRADOSSO
62
256
10
0.772542
20
2.5
30
2.377641
11
0.772542
21
2.022542
31
2.377641
0
LINE
8
ESTRADOSSO
62
256
10
0.772542
20
2.5
30
2.691315
11
0.772542
21
2.022542
31
2.691315
0
LINE
8
MAXSPINTA
62
61
48
31.556305529833594
10
0.772542
20
2.022542
30
2.49710587996277
11
0.772542
21
1.469463
31
2.467787537941707
0
LINE
8
MINSPINTA
62
21
48
10.183131823552262
10
0.772542
20
2.022542
30
2.4994363088199125
11
0.772542
21
1.469463
31
2.6122812602534102
0
LINE
8
MEDIONETWORK
62
41
48
16.622780530532108
10
0.772542
20
2.022542
30
2.5160572824611234
11
0.772542
21
1.469463
31
2.534735445892185
0
LINE
8
ASSE
62
253
10
0.772542
20
2.022542
30
2.534478
11
0.772542
21
1.469463
31
2.534478
0
LINE
8
INTRADOSSO
62
256
10
0.772542
20
2.022542
30
2.377641
11
0.772542
21
1.469463
31
2.377641
0
LINE
8
ESTRADOSSO
62
256
10
0.772542
20
2.022542
30
2.691315
11
0.772542
21
1.469463
31
2.691315
0
LINE
8
MAXSPINTA
62
61
48
31.512535406950207
10
0.772542
20
1.469463
30
2.467787537941707
11
0.772542
21
0.772542
31
2.4639687279832527
0
LINE
8
MINSPINTA
62
21
48
10.01393892383779
10
0.772542
20
1.469463
30
2.6122812602534102
11
0.772542
21
0.772542
31
2.6718369208084836
0
LINE
8
MEDIONETWORK
62
41
48
16.619253047304866
10
0.772542
20
1.469463
30
2.534735445892185
11
0.772542
21
0.772542
31
2.553379119773512
0
LINE
8
ASSE
62
253
10
0.772542
20
1.469463
30
2.534478
11
0.772542
21
0.772542
31
2.534478
0
LINE
8
INTRADOSSO
62
256
10
0.772542
20
1.469463
30
2.377641
11
0.772542
21
0.772542
31
2.377641
0
LINE
8
ESTRADOSSO
62
256
10
0.772542
20
1.469463
30
2.691315
11
0.772542
21
0.772542
31
2.691315
0
LINE
8
MAXSPINTA
62
61
48
31.68564288708429
10
2.022542
20
2.5
30
1.8765896783372216
11
2.022542
21
2.022542
31
1.926773015941382
0
LINE
8
MINSPINTA
62
21
48
10.38697720986035
10
2.022542
20
2.5
30
1.4694630000000006
11
2.022542
21
2.022542
31
1.6076360317387588
0
LINE
8
MEDIONETWORK
62
41
48
16.740075922602333
10
2.022542
20
2.5
30
1.7029214580746583
11
2.022542
21
2.022542
31
1.7620165027005927
0
LINE
8
ASSE
62
253
10
2.022542
20
2.5
30
1.70289
11
2.022542
21
2.022542
31
1.70289
0
LINE
8
INTRADOSSO
62
256
10
2.022542
20
2.5
30
1.469463
11
2.022542
21
2.022542
31
1.469463
0
LINE
8
ESTRADOSSO
62
256
10
2.022542
20
2.5
30
1.936317
11
2.022542
21
2.022542
31
1.936317
0
LINE
8
MAXSPINTA
62
61
48
35.87016863286608
10
2.377641
20
2.5
30
1.4003767716463067
11
2.377641
21
2.377641
31
1.4669164496418874
0
LINE
8
MINSPINTA
62
21
48
10.639383176515949
10
2.377641
20
2.5
30
0.772542
11
2.377641
21
2.377641
31
0.8178411085090302
0
LINE
8
MEDIONETWORK
62
41
48
18.130580101735887
10
2.377641
20
2.5
30
1.0517775148687103
11
2.377641
21
2.377641
31
1.105252478740606
0
LINE
8
ASSE
62
253
10
2.377641
20
2.5
30
1.1256665
11
2.377641
21
2.377641
31
1.1256665
0
LINE
8
INTRADOSSO
62
256
10
2.377641
20
2.5
30
0.772542
11
2.377641
21
2.377641
31
0.772542
0
LINE
8
ESTRADOSSO
62
256
10
2.377641
20
2.5
30
1.478791
11
2.377641
21
2.377641
31
1.478791
0
LINE
8
MAXSPINTA
62
61
48
31.656370949464215
10
1.469463
20
2.5
30
2.299687571956613
11
1.469463
21
2.022542
31
2.253941423214066
0
LINE
8
MINSPINTA
62
21
48
10.232905989829813
10
1.469463
20
2.5
30
2.0225420000000005
11
1.469463
21
2.022542
31
2.131247417185613
0
LINE
8
MEDIONETWORK
62
41
48
16.61339417606593
10
1.469463
20
2.5
30
2.198580490752443
11
1.469463
21
2.022542
31
2.2001047387527977
0
LINE
8
ASSE
62
253
10
1.469463
20
2.5
30
2.2029795
11
1.469463
21
2.022542
31
2.2029795
0
LINE
8
INTRADOSSO
62
256
10
1.469463
20
2.5
30
2.022542
11
1.469463
21
2.022542
31
2.022542
0
LINE
8
ESTRADOSSO
62
256
10
1.469463
20
2.5
30
2.383417
11
1.469463
21
2.022542
31
2.383417
0
LINE
8
MAXSPINTA
62
61
48
31.55141610740884
10
1.469463
20
2.022542
30
2.253941423214066
11
1.469463
21
1.469463
31
2.2815912566913368
0
LINE
8
MINSPINTA
62
21
48
10.288576724485411
10
1.469463
20
2.022542
30
2.131247417185613
11
1.469463
21
1.469463
31
2.2704124019921177
0
LINE
8
MEDIONETWORK
62
41
48
16.747397103290798
10
1.469463
20
2.022542
30
2.2001047387527977
11
1.469463
21
1.469463
31
2.2705161286512534
0
LINE
8
ASSE
62
253
10
1.469463
20
2.022542
30
2.2029795
11
1.469463
21
1.469463
31
2.2029795
0
LINE
8
INTRADOSSO
62
256
10
1.469463
20
2.022542
30
2.022542
11
1.469463
21
1.469463
31
2.022542
0
LINE
8
ESTRADOSSO
62
256
10
1.469463
20
2.022542
30
2.383417
11
1.469463
21
1.469463
31
2.383417
0
LINE
8
MAXSPINTA
62
61
48
32.257199754535414
10
0.772542
20
2.977458
30
2.691315
11
0.772542
21
2.5
31
2.5868713040279383
0
LINE
8
MINSPINTA
62
21
48
11.242188813332543
10
0.772542
20
2.977458
30
2.1297506494838454
11
0.772542
21
2.5
31
2.377641
0
LINE
8
MEDIONETWORK
62
41
48
16.621055889502454
10
0.772542
20
2.977458
30
2.5243507430279
11
0.772542
21
2.5
31
2.538932903092156
0
LINE
8
ASSE
62
253
10
0.772542
20
2.977458
30
2.284478
11
0.772542
21
2.5
31
2.534478
0
LINE
8
INTRADOSSO
62
256
10
0.772542
20
2.977458
30
1.877641
11
0.772542
21
2.5
31
2.377641
0
LINE
8
ESTRADOSSO
62
256
10
0.772542
20
2.977458
30
2.691315
11
0.772542
21
2.5
31
2.691315
0
LINE
8
MAXSPINTA
62
61
48
31.99293670974503
10
1.469463
20
2.977458
30
2.383417
11
1.469463
21
2.5
31
2.299687571956613
0
LINE
8
MINSPINTA
62
21
48
10.73774299356634
10
1.469463
20
2.977458
30
1.8326480627391537
11
1.469463
21
2.5
31
2.0225420000000005
0
LINE
8
MEDIONETWORK
62
41
48
16.62023244790817
10
1.469463
20
2.977458
30
2.184795315683053
11
1.469463
21
2.5
31
2.198580490752443
0
LINE
8
ASSE
62
253
10
1.469463
20
2.977458
30
1.9529795
11
1.469463
21
2.5
31
2.2029795
0
LINE
8
INTRADOSSO
62
256
10
1.469463
20
2.977458
30
1.522542
11
1.469463
21
2.5
31
2.022542
0
LINE
8
ESTRADOSSO
62
256
10
1.469463
20
2.977458
30
2.383417
11
1.469463
21
2.5
31
2.383417
0
LINE
8
MAXSPINTA
62
61
48
31.7576651898151
10
2.022542
20
2.977458
30
1.936317
11
2.022542
21
2.5
31
1.8765896783372216
0
LINE
8
MINSPINTA
62
21
48
10.075898726365784
10
2.022542
20
2.977458
30
1.4022680723476801
11
2.022542
21
2.5
31
1.4694630000000006
0
LINE
8
MEDIONETWORK
62
41
48
16.96925231855762
10
2.022542
20
2.977458
30
1.8022847647914544
11
2.022542
21
2.5
31
1.7029214580746583
0
LINE
8
ASSE
62
253
10
2.022542
20
2.977458
30
1.45289
11
2.022542
21
2.5
31
1.70289
0
LINE
8
INTRADOSSO
62
256
10
2.022542
20
2.977458
30
0.969463
11
2.022542
21
2.5
31
1.469463
0
LINE
8
ESTRADOSSO
62
256
10
2.022542
20
2.977458
30
1.936317
11
2.022542
21
2.5
31
1.936317
0
LINE
8
MAXSPINTA
62
81
48
41.12513005832927
10
2.377641
20
2.977458
30
1.0
11
2.377641
21
2.5
31
1.4003767716463067
0
LINE
8
MINSPINTA
62
21
48
11.051941139625727
10
2.377641
20
2.977458
30
1.0
11
2.377641
21
2.5
31
0.772542
0
LINE
8
MEDIONETWORK
62
41
48
16.710711315710597
10
2.377641
20
2.977458
30
1.0
11
2.377641
21
2.5
31
1.0517775148687103
0
LINE
8
ASSE
62
253
10
2.377641
20
2.977458
30
0.636271
11
2.377641
21
2.5
31
1.1256665
0
LINE
8
INTRADOSSO
62
256
10
2.377641
20
2.977458
30
0.272542
11
2.377641
21
2.5
31
0.772542
0
LINE
8
ESTRADOSSO
62
256
10
2.377641
20
2.977458
30
1.0
11
2.377641
21
2.5
31
1.478791
0
LINE
8
MAXSPINTA
62
61
48
32.257199754535414
10
2.977458
20
0.772542
30
2.691315
11
2.5
21
0.772542
31
2.5868713040279383
0
LINE
8
MINSPINTA
62
21
48
11.242188812278412
10
2.977458
20
0.772542
30
2.1297506495933187
11
2.5
21
0.772542
31
2.3776410000000006
0
LINE
8
MEDIONETWORK
62
41
48
16.621055890421264
10
2.977458
20
0.772542
30
2.5243507400429364
11
2.5
21
0.772542
31
2.538932900972201
0
LINE
8
ASSE
62
253
10
2.977458
20
0.772542
30
2.284478
11
2.5
21
0.772542
31
2.534478
0
LINE
8
INTRADOSSO
62
256
10
2.977458
20
0.772542
30
1.877641
11
2.5
21
0.772542
31
2.377641
0
LINE
8
ESTRADOSSO
62
256
10
2.977458
20
0.772542
30
2.691315
11
2.5
21
0.772542
31
2.691315
0
LINE
8
MAXSPINTA
62
61
48
31.99293670974503
10
2.977458
20
1.469463
30
2.383417
11
2.5
21
1.469463
31
2.299687571956613
0
LINE
8
MINSPINTA
62
21
48
10.73774299321465
10
2.977458
20
1.469463
30
1.832648062784692
11
2.5
21
1.469463
31
2.022542
0
LINE
8
MEDIONETWORK
62
41
48
16.62023244884041
10
2.977458
20
1.469463
30
2.184795313595203
11
2.5
21
1.469463
31
2.198580489592941
0
LINE
8
ASSE
62
253
10
2.977458
20
1.469463
30
1.9529795
11
2.5
21
1.469463
31
2.2029795
0
LINE
8
INTRADOSSO
62
256
10
2.977458
20
1.469463
30
1.522542
11
2.5
21
1.469463
31
2.022542
0
LINE
8
ESTRADOSSO
62
256
10
2.977458
20
1.469463
30
2.383417
11
2.5
21
1.469463
31
2.383417
0
LINE
8
MAXSPINTA
62
61
48
31.757665189815093
10
2.977458
20
2.022542
30
1.936317
11
2.5
21
2.022542
31
1.8765896783372222
0
LINE
8
MINSPINTA
62
21
48
10.075898726130582
10
2.977458
20
2.022542
30
1.4022680724284413
11
2.5
21
2.022542
31
1.4694630000000002
0
LINE
8
MEDIONETWORK
62
41
48
16.969252328506403
10
2.977458
20
2.022542
30
1.8022847665031716
11
2.5
21
2.022542
31
1.7029214583830297
0
LINE
8
ASSE
62
253
10
2.977458
20
2.022542
30
1.45289
11
2.5
21
2.022542
31
1.70289
0
LINE
8
INTRADOSSO
62
256
10
2.977458
20
2.022542
30
0.969463
11
2.5
21
2.022542
31
1.469463
0
LINE
8
ESTRADOSSO
62
256
10
2.977458
20
2.022542
30
1.936317
11
2.5
21
2.022542
31
1.936317
0
LINE
8
MAXSPINTA
62
81
48
41.125130058329276
10
2.977458
20
2.377641
30
1.0
11
2.5
21
2.377641
31
1.400376771646307
0
LINE
8
MINSPINTA
62
21
48
11.05194112672967
10
2.977458
20
2.377641
30
0.9999999985651231
11
2.5
21
2.377641
31
0.7725420000000002
0
LINE
8
MEDIONETWORK
62
41
48
16.710711315853597
10
2.977458
20
2.377641
30
1.0
11
2.5
21
2.377641
31
1.0517775149068291
0
LINE
8
ASSE
62
253
10
2.977458
20
2.377641
30
0.636271
11
2.5
21
2.377641
31
1.1256665
0
LINE
8
INTRADOSSO
62
256
10
2.977458
20
2.377641
30
0.272542
11
2.5
21
2.377641
31
0.772542
0
LINE
8
ESTRADOSSO
62
256
10
2.977458
20
2.377641
30
1.0
11
2.5
21
2.377641
31
1.478791
0
LINE
8
MAXSPINTA
62
201
48
126.12509647091575
10
2.782843
20
-2.782843
30
0.6868117805246369
11
2.5
21
-2.5
31
1.260952
0
LINE
8
MINSPINTA
62
161
48
101.65372747211248
10
2.782843
20
-2.782843
30
-1.4475983642008243
11
2.5
21
-2.5
31
0.2880995779322146
0
LINE
8
MEDIONETWORK
62
201
48
123.22902352815028
10
2.782843
20
-2.782843
30
-0.520265672426903
11
2.5
21
-2.5
31
0.7132910478411074
0
LINE
8
ASSE
62
253
10
2.782843
20
-2.782843
30
-0.39289949999999996
11
2.5
21
-2.5
31
0.630476
0
LINE
8
INTRADOSSO
62
256
10
2.782843
20
-2.782843
30
-1.785799
11
2.5
21
-2.5
31
0.0
0
LINE
8
ESTRADOSSO
62
256
10
2.782843
20
-2.782843
30
1.0
11
2.5
21
-2.5
31
1.260952
0
LINE
8
MAXSPINTA
62
201
48
126.12509647091576
10
-2.782843
20
-2.782843
30
0.6868117805246362
11
-2.5
21
-2.5
31
1.2609519999999996
0
LINE
8
MINSPINTA
62
161
48
101.65372751001895
10
-2.782843
20
-2.782843
30
-1.4475983650660338
11
-2.5
21
-2.5
31
0.28809957774861794
0
LINE
8
MEDIONETWORK
62
201
48
123.22902318578058
10
-2.782843
20
-2.782843
30
-0.520265664632575
11
-2.5
21
-2.5
31
0.7132910518478534
0
LINE
8
ASSE
62
253
10
-2.782843
20
-2.782843
30
-0.39289949999999996
11
-2.5
21
-2.5
31
0.630476
0
LINE
8
INTRADOSSO
62
256
10
-2.782843
20
-2.782843
30
-1.785799
11
-2.5
21
-2.5
31
0.0
0
LINE
8
ESTRADOSSO
62
256
10
-2.782843
20
-2.782843
30
1.0
11
-2.5
21
-2.5
31
1.260952
0
LINE
8
MAXSPINTA
62
201
48
126.12509647091574
10
2.782843
20
2.782843
30
0.686811780524637
11
2.5
21
2.5
31
1.260952
0
LINE
8
MINSPINTA
62
161
48
101.65372737592187
10
2.782843
20
2.782843
30
-1.447598362090259
11
2.5
21
2.5
31
0.28809957831313443
0
LINE
8
MEDIONETWORK
62
201
48
123.22902221742017
10
2.782843
20
2.782843
30
-0.5202656389534677
11
2.5
21
2.5
31
0.7132910668141426
0
LINE
8
ASSE
62
253
10
2.782843
20
2.782843
30
-0.39289949999999996
11
2.5
21
2.5
31
0.630476
0
LINE
8
INTRADOSSO
62
256
10
2.782843
20
2.782843
30
-1.785799
11
2.5
21
2.5
31
0.0
0
LINE
8
ESTRADOSSO
62
256
10
2.782843
20
2.782843
30
1.0
11
2.5
21
2.5
31
1.260952
0
LINE
8
MAXSPINTA
62
201
48
126.12509647091576
10
-2.782843
20
2.782843
30
0.6868117805246363
11
-2.5
21
2.5
31
1.2609519999999999
0
LINE
8
MINSPINTA
62
161
48
101.65372732018247
10
-2.782843
20
2.782843
30
-1.4475983612294336
11
-2.5
21
2.5
31
0.28809957817168574
0
LINE
8
MEDIONETWORK
62
201
48
123.22902296203304
10
-2.782843
20
2.782843
30
-0.5202656576291631
11
-2.5
21
2.5
31
0.7132910563759822
0
LINE
8
ASSE
62
253
10
-2.782843
20
2.782843
30
-0.39289949999999996
11
-2.5
21
2.5
31
0.630476
0
LINE
8
INTRADOSSO
62
256
10
-2.782843
20
2.782843
30
-1.785799
11
-2.5
21
2.5
31
0.0
0
LINE
8
ESTRADOSSO
62
256
10
-2.782843
20
2.782843
30
1.0
11
-2.5
21
2.5
31
1.260952
0
POINT
8
DIAGONALI
10
-2.5
20
-2.5
30
0.0
0
TEXT
8
ID-NODES
10
-2.5
20
-2.5
30
0.0
40
0.15
1
1
0
LINE
8
fz
62
7
10
-2.5
20
-2.5
30
1.260952
11
-2.5
21
-2.5
31
11.260952
0
POINT
8
DIAGONALI
10
-2.377641
20
-2.377641
30
0.772542
0
TEXT
8
ID-NODES
10
-2.377641
20
-2.377641
30
0.772542
40
0.15
1
2
0
LINE
8
fz
62
7
10
-2.377641
20
-2.377641
30
1.478791
11
-2.377641
21
-2.377641
31
11.478791
0
POINT
8
DIAGONALI
10
-2.022542
20
-2.022542
30
1.469463
0
TEXT
8
ID-NODES
10
-2.022542
20
-2.022542
30
1.469463
40
0.15
1
3
0
LINE
8
fz
62
7
10
-2.022542
20
-2.022542
30
1.936317
11
-2.022542
21
-2.022542
31
11.936317
0
POINT
8
DIAGONALI
10
-1.469463
20
-1.469463
30
2.022542
0
TEXT
8
ID-NODES
10
-1.469463
20
-1.469463
30
2.022542
40
0.15
1
4
0
LINE
8
fz
62
7
10
-1.469463
20
-1.469463
30
2.383417
11
-1.469463
21
-1.469463
31
12.383417
0
POINT
8
DIAGONALI
10
-0.772542
20
-0.772542
30
2.377641
0
TEXT
8
ID-NODES
10
-0.772542
20
-0.772542
30
2.377641
40
0.15
1
5
0
LINE
8
fz
62
7
10
-0.772542
20
-0.772542
30
2.691315
11
-0.772542
21
-0.772542
31
12.691315
0
POINT
8
DIAGONALI
10
-0.0
20
0.0
30
2.5
0
TEXT
8
ID-NODES
10
-0.0
20
0.0
30
2.5
40
0.15
1
6
0
LINE
8
fz
62
7
10
-0.0
20
0.0
30
2.8
11
-0.0
21
0.0
31
12.8
0
POINT
8
MERIDIANI
10
-2.5
20
-2.377641
30
0.772542
0
TEXT
8
ID-NODES
10
-2.5
20
-2.377641
30
0.772542
40
0.15
1
7
0
LINE
8
fz
62
7
10
-2.5
20
-2.377641
30
1.478791
11
-2.5
21
-2.377641
31
11.478791
0
POINT
8
MERIDIANI
10
-2.5
20
-2.022542
30
1.469463
0
TEXT
8
ID-NODES
10
-2.5
20
-2.022542
30
1.469463
40
0.15
1
8
0
LINE
8
fz
62
7
10
-2.5
20
-2.022542
30
1.936317
11
-2.5
21
-2.022542
31
11.936317
0
POINT
8
MERIDIANI
10
-2.5
20
-1.469463
30
2.022542
0
TEXT
8
ID-NODES
10
-2.5
20
-1.469463
30
2.022542
40
0.15
1
9
0
LINE
8
fz
62
7
10
-2.5
20
-1.469463
30
2.383417
11
-2.5
21
-1.469463
31
12.383417
0
POINT
8
MERIDIANI
10
-2.5
20
-0.772542
30
2.377641
0
TEXT
8
ID-NODES
10
-2.5
20
-0.772542
30
2.377641
40
0.15
1
10
0
LINE
8
fz
62
7
10
-2.5
20
-0.772542
30
2.691315
11
-2.5
21
-0.772542
31
12.691315
0
POINT
8
MERIDIANI
10
-2.5
20
0.0
30
2.5
0
TEXT
8
ID-NODES
10
-2.5
20
0.0
30
2.5
40
0.15
1
11
0
LINE
8
fz
62
7
10
-2.5
20
0.0
30
2.8
11
-2.5
21
0.0
31
12.8
0
POINT
8
MERIDIANI
10
-2.022542
20
-1.469463
30
2.022542
0
TEXT
8
ID-NODES
10
-2.022542
20
-1.469463
30
2.022542
40
0.15
1
12
0
LINE
8
fz
62
7
10
-2.022542
20
-1.469463
30
2.383417
11
-2.022542
21
-1.469463
31
12.383417
0
POINT
8
MERIDIANI
10
-2.022542
20
-0.772542
30
2.377641
0
TEXT
8
ID-NODES
10
-2.022542
20
-0.772542
30
2.377641
40
0.15
1
13
0
LINE
8
fz
62
7
10
-2.022542
20
-0.772542
30
2.691315
11
-2.022542
21
-0.772542
31
12.691315
0
POINT
8
MERIDIANI
10
-2.022542
20
0.0
30
2.5
0
TEXT
8
ID-NODES
10
-2.022542
20
0.0
30
2.5
40
0.15
1
14
0
LINE
8
fz
62
7
10
-2.022542
20
0.0
30
2.8
11
-2.022542
21
0.0
31
12.8
0
POINT
8
MERIDIANI
10
-1.469463
20
-0.772542
30
2.377641
0
TEXT
8
ID-NODES
10
-1.469463
20
-0.772542
30
2.377641
40
0.15
1
15
0
LINE
8
fz
62
7
10
-1.469463
20
-0.772542
30
2.691315
11
-1.469463
21
-0.772542
31
12.691315
0
POINT
8
MERIDIANI
10
-1.469463
20
0.0
30
2.5
0
TEXT
8
ID-NODES
10
-1.469463
20
0.0
30
2.5
40
0.15
1
16
0
LINE
8
fz
62
7
10
-1.469463
20
0.0
30
2.8
11
-1.469463
21
0.0
31
12.8
0
POINT
8
MERIDIANI
10
-0.772542
20
0.0
30
2.5
0
TEXT
8
ID-NODES
10
-0.772542
20
0.0
30
2.5
40
0.15
1
17
0
LINE
8
fz
62
7
10
-0.772542
20
0.0
30
2.8
11
-0.772542
21
0.0
31
12.8
0
POINT
8
MERIDIANI
10
-2.377641
20
-2.5
30
0.772542
0
TEXT
8
ID-NODES
10
-2.377641
20
-2.5
30
0.772542
40
0.15
1
18
0
LINE
8
fz
62
7
10
-2.377641
20
-2.5
30
1.478791
11
-2.377641
21
-2.5
31
11.478791
0
POINT
8
MERIDIANI
10
-2.022542
20
-2.5
30
1.469463
0
TEXT
8
ID-NODES
10
-2.022542
20
-2.5
30
1.469463
40
0.15
1
19
0
LINE
8
fz
62
7
10
-2.022542
20
-2.5
30
1.936317
11
-2.022542
21
-2.5
31
11.936317
0
POINT
8
MERIDIANI
10
-1.469463
20
-2.5
30
2.022542
0
TEXT
8
ID-NODES
10
-1.469463
20
-2.5
30
2.022542
40
0.15
1
20
0
LINE
8
fz
62
7
10
-1.469463
20
-2.5
30
2.383417
11
-1.469463
21
-2.5
31
12.383417
0
POINT
8
MERIDIANI
10
-0.772542
20
-2.5
30
2.377641
0
TEXT
8
ID-NODES
10
-0.772542
20
-2.5
30
2.377641
40
0.15
1
21
0
LINE
8
fz
62
7
10
-0.772542
20
-2.5
30
2.691315
11
-0.772542
21
-2.5
31
12.691315
0
POINT
8
MERIDIANI
10
-0.0
20
-2.5
30
2.5
0
TEXT
8
ID-NODES
10
-0.0
20
-2.5
30
2.5
40
0.15
1
22
0
LINE
8
fz
62
7
10
-0.0
20
-2.5
30
2.8
11
-0.0
21
-2.5
31
12.8
0
POINT
8
MERIDIANI
10
-1.469463
20
-2.022542
30
2.022542
0
TEXT
8
ID-NODES
10
-1.469463
20
-2.022542
30
2.022542
40
0.15
1
23
0
LINE
8
fz
62
7
10
-1.469463
20
-2.022542
30
2.383417
11
-1.469463
21
-2.022542
31
12.383417
0
POINT
8
MERIDIANI
10
-0.772542
20
-2.022542
30
2.377641
0
TEXT
8
ID-NODES
10
-0.772542
20
-2.022542
30
2.377641
40
0.15
1
24
0
LINE
8
fz
62
7
10
-0.772542
20
-2.022542
30
2.691315
11
-0.772542
21
-2.022542
31
12.691315
0
POINT
8
MERIDIANI
10
-0.0
20
-2.022542
30
2.5
0
TEXT
8
ID-NODES
10
-0.0
20
-2.022542
30
2.5
40
0.15
1
25
0
LINE
8
fz
62
7
10
-0.0
20
-2.022542
30
2.8
11
-0.0
21
-2.022542
31
12.8
0
POINT
8
MERIDIANI
10
-0.772542
20
-1.469463
30
2.377641
0
TEXT
8
ID-NODES
10
-0.772542
20
-1.469463
30
2.377641
40
0.15
1
26
0
LINE
8
fz
62
7
10
-0.772542
20
-1.469463
30
2.691315
11
-0.772542
21
-1.469463
31
12.691315
0
POINT
8
MERIDIANI
10
-0.0
20
-1.469463
30
2.5
0
TEXT
8
ID-NODES
10
-0.0
20
-1.469463
30
2.5
40
0.15
1
27
0
LINE
8
fz
62
7
10
-0.0
20
-1.469463
30
2.8
11
-0.0
21
-1.469463
31
12.8
0
POINT
8
MERIDIANI
10
-0.0
20
-0.772542
30
2.5
0
TEXT
8
ID-NODES
10
-0.0
20
-0.772542
30
2.5
40
0.15
1
28
0
LINE
8
fz
62
7
10
-0.0
20
-0.772542
30
2.8
11
-0.0
21
-0.772542
31
12.8
0
POINT
8
PARALLELI
10
-0.0
20
-2.977458
30
2.0
0
TEXT
8
ID-NODES
10
-0.0
20
-2.977458
30
2.0
40
0.15
1
29
0
LINE
8
fz
62
7
10
-0.0
20
-2.977458
30
2.8
11
-0.0
21
-2.977458
31
12.8
0
POINT
8
PARALLELI
10
-0.772542
20
-2.977458
30
1.877641
0
TEXT
8
ID-NODES
10
-0.772542
20
-2.977458
30
1.877641
40
0.15
1
30
0
LINE
8
fz
62
7
10
-0.772542
20
-2.977458
30
2.691315
11
-0.772542
21
-2.977458
31
12.691315
0
POINT
8
PARALLELI
10
-1.469463
20
-2.977458
30
1.522542
0
TEXT
8
ID-NODES
10
-1.469463
20
-2.977458
30
1.522542
40
0.15
1
31
0
LINE
8
fz
62
7
10
-1.469463
20
-2.977458
30
2.383417
11
-1.469463
21
-2.977458
31
12.383417
0
POINT
8
PARALLELI
10
-2.022542
20
-2.977458
30
0.969463
0
TEXT
8
ID-NODES
10
-2.022542
20
-2.977458
30
0.969463
40
0.15
1
32
0
LINE
8
fz
62
7
10
-2.022542
20
-2.977458
30
1.936317
11
-2.022542
21
-2.977458
31
11.936317
0
POINT
8
PARALLELI
10
-2.377641
20
-2.977458
30
0.272542
0
TEXT
8
ID-NODES
10
-2.377641
20
-2.977458
30
0.272542
40
0.15
1
33
0
LINE
8
fz
62
7
10
-2.377641
20
-2.977458
30
1.0
11
-2.377641
21
-2.977458
31
11.0
0
POINT
8
PARALLELI
10
-2.977458
20
-0.0
30
2.0
0
TEXT
8
ID-NODES
10
-2.977458
20
-0.0
30
2.0
40
0.15
1
34
0
LINE
8
fz
62
7
10
-2.977458
20
-0.0
30
2.8
11
-2.977458
21
-0.0
31
12.8
0
POINT
8
PARALLELI
10
-2.977458
20
-0.772542
30
1.877641
0
TEXT
8
ID-NODES
10
-2.977458
20
-0.772542
30
1.877641
40
0.15
1
35
0
LINE
8
fz
62
7
10
-2.977458
20
-0.772542
30
2.691315
11
-2.977458
21
-0.772542
31
12.691315
0
POINT
8
PARALLELI
10
-2.977458
20
-1.469463
30
1.522542
0
TEXT
8
ID-NODES
10
-2.977458
20
-1.469463
30
1.522542
40
0.15
1
36
0
LINE
8
fz
62
7
10
-2.977458
20
-1.469463
30
2.383417
11
-2.977458
21
-1.469463
31
12.383417
0
POINT
8
PARALLELI
10
-2.977458
20
-2.022542
30
0.969463
0
TEXT
8
ID-NODES
10
-2.977458
20
-2.022542
30
0.969463
40
0.15
1
37
0
LINE
8
fz
62
7
10
-2.977458
20
-2.022542
30
1.936317
11
-2.977458
21
-2.022542
31
11.936317
0
POINT
8
PARALLELI
10
-2.977458
20
-2.377641
30
0.272542
0
TEXT
8
ID-NODES
10
-2.977458
20
-2.377641
30
0.272542
40
0.15
1
38
0
LINE
8
fz
62
7
10
-2.977458
20
-2.377641
30
1.0
11
-2.977458
21
-2.377641
31
11.0
0
POINT
8
DIAGONALI
10
-2.5
20
2.5
30
0.0
0
TEXT
8
ID-NODES
10
-2.5
20
2.5
30
0.0
40
0.15
1
39
0
LINE
8
fz
62
7
10
-2.5
20
2.5
30
1.260952
11
-2.5
21
2.5
31
11.260952
0
POINT
8
DIAGONALI
10
-2.377641
20
2.377641
30
0.772542
0
TEXT
8
ID-NODES
10
-2.377641
20
2.377641
30
0.772542
40
0.15
1
40
0
LINE
8
fz
62
7
10
-2.377641
20
2.377641
30
1.478791
11
-2.377641
21
2.377641
31
11.478791
0
POINT
8
DIAGONALI
10
-2.022542
20
2.022542
30
1.469463
0
TEXT
8
ID-NODES
10
-2.022542
20
2.022542
30
1.469463
40
0.15
1
41
0
LINE
8
fz
62
7
10
-2.022542
20
2.022542
30
1.936317
11
-2.022542
21
2.022542
31
11.936317
0
POINT
8
DIAGONALI
10
-1.469463
20
1.469463
30
2.022542
0
TEXT
8
ID-NODES
10
-1.469463
20
1.469463
30
2.022542
40
0.15
1
42
0
LINE
8
fz
62
7
10
-1.469463
20
1.469463
30
2.383417
11
-1.469463
21
1.469463
31
12.383417
0
POINT
8
DIAGONALI
10
-0.772542
20
0.772542
30
2.377641
0
TEXT
8
ID-NODES
10
-0.772542
20
0.772542
30
2.377641
40
0.15
1
43
0
LINE
8
fz
62
7
10
-0.772542
20
0.772542
30
2.691315
11
-0.772542
21
0.772542
31
12.691315
0
POINT
8
MERIDIANI
10
-2.5
20
2.377641
30
0.772542
0
TEXT
8
ID-NODES
10
-2.5
20
2.377641
30
0.772542
40
0.15
1
44
0
LINE
8
fz
62
7
10
-2.5
20
2.377641
30
1.478791
11
-2.5
21
2.377641
31
11.478791
0
POINT
8
MERIDIANI
10
-2.5
20
2.022542
30
1.469463
0
TEXT
8
ID-NODES
10
-2.5
20
2.022542
30
1.469463
40
0.15
1
45
0
LINE
8
fz
62
7
10
-2.5
20
2.022542
30
1.936317
11
-2.5
21
2.022542
31
11.936317
0
POINT
8
MERIDIANI
10
-2.5
20
1.469463
30
2.022542
0
TEXT
8
ID-NODES
10
-2.5
20
1.469463
30
2.022542
40
0.15
1
46
0
LINE
8
fz
62
7
10
-2.5
20
1.469463
30
2.383417
11
-2.5
21
1.469463
31
12.383417
0
POINT
8
MERIDIANI
10
-2.5
20
0.772542
30
2.377641
0
TEXT
8
ID-NODES
10
-2.5
20
0.772542
30
2.377641
40
0.15
1
47
0
LINE
8
fz
62
7
10
-2.5
20
0.772542
30
2.691315
11
-2.5
21
0.772542
31
12.691315
0
POINT
8
MERIDIANI
10
-2.022542
20
1.469463
30
2.022542
0
TEXT
8
ID-NODES
10
-2.022542
20
1.469463
30
2.022542
40
0.15
1
48
0
LINE
8
fz
62
7
10
-2.022542
20
1.469463
30
2.383417
11
-2.022542
21
1.469463
31
12.383417
0
POINT
8
MERIDIANI
10
-2.022542
20
0.772542
30
2.377641
0
TEXT
8
ID-NODES
10
-2.022542
20
0.772542
30
2.377641
40
0.15
1
49
0
LINE
8
fz
62
7
10
-2.022542
20
0.772542
30
2.691315
11
-2.022542
21
0.772542
31
12.691315
0
POINT
8
MERIDIANI
10
-1.469463
20
0.772542
30
2.377641
0
TEXT
8
ID-NODES
10
-1.469463
20
0.772542
30
2.377641
40
0.15
1
50
0
LINE
8
fz
62
7
10
-1.469463
20
0.772542
30
2.691315
11
-1.469463
21
0.772542
31
12.691315
0
POINT
8
MERIDIANI
10
-2.377641
20
2.5
30
0.772542
0
TEXT
8
ID-NODES
10
-2.377641
20
2.5
30
0.772542
40
0.15
1
51
0
LINE
8
fz
62
7
10
-2.377641
20
2.5
30
1.478791
11
-2.377641
21
2.5
31
11.478791
0
POINT
8
MERIDIANI
10
-2.022542
20
2.5
30
1.469463
0
TEXT
8
ID-NODES
10
-2.022542
20
2.5
30
1.469463
40
0.15
1
52
0
LINE
8
fz
62
7
10
-2.022542
20
2.5
30
1.936317
11
-2.022542
21
2.5
31
11.936317
0
POINT
8
MERIDIANI
10
-1.469463
20
2.5
30
2.022542
0
TEXT
8
ID-NODES
10
-1.469463
20
2.5
30
2.022542
40
0.15
1
53
0
LINE
8
fz
62
7
10
-1.469463
20
2.5
30
2.383417
11
-1.469463
21
2.5
31
12.383417
0
POINT
8
MERIDIANI
10
-0.772542
20
2.5
30
2.377641
0
TEXT
8
ID-NODES
10
-0.772542
20
2.5
30
2.377641
40
0.15
1
54
0
LINE
8
fz
62
7
10
-0.772542
20
2.5
30
2.691315
11
-0.772542
21
2.5
31
12.691315
0
POINT
8
MERIDIANI
10
-0.0
20
2.5
30
2.5
0
TEXT
8
ID-NODES
10
-0.0
20
2.5
30
2.5
40
0.15
1
55
0
LINE
8
fz
62
7
10
-0.0
20
2.5
30
2.8
11
-0.0
21
2.5
31
12.8
0
POINT
8
MERIDIANI
10
-1.469463
20
2.022542
30
2.022542
0
TEXT
8
ID-NODES
10
-1.469463
20
2.022542
30
2.022542
40
0.15
1
56
0
LINE
8
fz
62
7
10
-1.469463
20
2.022542
30
2.383417
11
-1.469463
21
2.022542
31
12.383417
0
POINT
8
MERIDIANI
10
-0.772542
20
2.022542
30
2.377641
0
TEXT
8
ID-NODES
10
-0.772542
20
2.022542
30
2.377641
40
0.15
1
57
0
LINE
8
fz
62
7
10
-0.772542
20
2.022542
30
2.691315
11
-0.772542
21
2.022542
31
12.691315
0
POINT
8
MERIDIANI
10
-0.0
20
2.022542
30
2.5
0
TEXT
8
ID-NODES
10
-0.0
20
2.022542
30
2.5
40
0.15
1
58
0
LINE
8
fz
62
7
10
-0.0
20
2.022542
30
2.8
11
-0.0
21
2.022542
31
12.8
0
POINT
8
MERIDIANI
10
-0.772542
20
1.469463
30
2.377641
0
TEXT
8
ID-NODES
10
-0.772542
20
1.469463
30
2.377641
40
0.15
1
59
0
LINE
8
fz
62
7
10
-0.772542
20
1.469463
30
2.691315
11
-0.772542
21
1.469463
31
12.691315
0
POINT
8
MERIDIANI
10
-0.0
20
1.469463
30
2.5
0
TEXT
8
ID-NODES
10
-0.0
20
1.469463
30
2.5
40
0.15
1
60
0
LINE
8
fz
62
7
10
-0.0
20
1.469463
30
2.8
11
-0.0
21
1.469463
31
12.8
0
POINT
8
MERIDIANI
10
-0.0
20
0.772542
30
2.5
0
TEXT
8
ID-NODES
10
-0.0
20
0.772542
30
2.5
40
0.15
1
61
0
LINE
8
fz
62
7
10
-0.0
20
0.772542
30
2.8
11
-0.0
21
0.772542
31
12.8
0
POINT
8
PARALLELI
10
-0.0
20
2.977458
30
2.0
0
TEXT
8
ID-NODES
10
-0.0
20
2.977458
30
2.0
40
0.15
1
62
0
LINE
8
fz
62
7
10
-0.0
20
2.977458
30
2.8
11
-0.0
21
2.977458
31
12.8
0
POINT
8
PARALLELI
10
-0.772542
20
2.977458
30
1.877641
0
TEXT
8
ID-NODES
10
-0.772542
20
2.977458
30
1.877641
40
0.15
1
63
0
LINE
8
fz
62
7
10
-0.772542
20
2.977458
30
2.691315
11
-0.772542
21
2.977458
31
12.691315
0
POINT
8
PARALLELI
10
-1.469463
20
2.977458
30
1.522542
0
TEXT
8
ID-NODES
10
-1.469463
20
2.977458
30
1.522542
40
0.15
1
64
0
LINE
8
fz
62
7
10
-1.469463
20
2.977458
30
2.383417
11
-1.469463
21
2.977458
31
12.383417
0
POINT
8
PARALLELI
10
-2.022542
20
2.977458
30
0.969463
0
TEXT
8
ID-NODES
10
-2.022542
20
2.977458
30
0.969463
40
0.15
1
65
0
LINE
8
fz
62
7
10
-2.022542
20
2.977458
30
1.936317
11
-2.022542
21
2.977458
31
11.936317
0
POINT
8
PARALLELI
10
-2.377641
20
2.977458
30
0.272542
0
TEXT
8
ID-NODES
10
-2.377641
20
2.977458
30
0.272542
40
0.15
1
66
0
LINE
8
fz
62
7
10
-2.377641
20
2.977458
30
1.0
11
-2.377641
21
2.977458
31
11.0
0
POINT
8
PARALLELI
10
-2.977458
20
0.772542
30
1.877641
0
TEXT
8
ID-NODES
10
-2.977458
20
0.772542
30
1.877641
40
0.15
1
67
0
LINE
8
fz
62
7
10
-2.977458
20
0.772542
30
2.691315
11
-2.977458
21
0.772542
31
12.691315
0
POINT
8
PARALLELI
10
-2.977458
20
1.469463
30
1.522542
0
TEXT
8
ID-NODES
10
-2.977458
20
1.469463
30
1.522542
40
0.15
1
68
0
LINE
8
fz
62
7
10
-2.977458
20
1.469463
30
2.383417
11
-2.977458
21
1.469463
31
12.383417
0
POINT
8
PARALLELI
10
-2.977458
20
2.022542
30
0.969463
0
TEXT
8
ID-NODES
10
-2.977458
20
2.022542
30
0.969463
40
0.15
1
69
0
LINE
8
fz
62
7
10
-2.977458
20
2.022542
30
1.936317
11
-2.977458
21
2.022542
31
11.936317
0
POINT
8
PARALLELI
10
-2.977458
20
2.377641
30
0.272542
0
TEXT
8
ID-NODES
10
-2.977458
20
2.377641
30
0.272542
40
0.15
1
70
0
LINE
8
fz
62
7
10
-2.977458
20
2.377641
30
1.0
11
-2.977458
21
2.377641
31
11.0
0
POINT
8
DIAGONALI
10
2.5
20
-2.5
30
0.0
0
TEXT
8
ID-NODES
10
2.5
20
-2.5
30
0.0
40
0.15
1
71
0
LINE
8
fz
62
7
10
2.5
20
-2.5
30
1.260952
11
2.5
21
-2.5
31
11.260952
0
POINT
8
DIAGONALI
10
2.377641
20
-2.377641
30
0.772542
0
TEXT
8
ID-NODES
10
2.377641
20
-2.377641
30
0.772542
40
0.15
1
72
0
LINE
8
fz
62
7
10
2.377641
20
-2.377641
30
1.478791
11
2.377641
21
-2.377641
31
11.478791
0
POINT
8
DIAGONALI
10
2.022542
20
-2.022542
30
1.469463
0
TEXT
8
ID-NODES
10
2.022542
20
-2.022542
30
1.469463
40
0.15
1
73
0
LINE
8
fz
62
7
10
2.022542
20
-2.022542
30
1.936317
11
2.022542
21
-2.022542
31
11.936317
0
POINT
8
DIAGONALI
10
1.469463
20
-1.469463
30
2.022542
0
TEXT
8
ID-NODES
10
1.469463
20
-1.469463
30
2.022542
40
0.15
1
74
0
LINE
8
fz
62
7
10
1.469463
20
-1.469463
30
2.383417
11
1.469463
21
-1.469463
31
12.383417
0
POINT
8
DIAGONALI
10
0.772542
20
-0.772542
30
2.377641
0
TEXT
8
ID-NODES
10
0.772542
20
-0.772542
30
2.377641
40
0.15
1
75
0
LINE
8
fz
62
7
10
0.772542
20
-0.772542
30
2.691315
11
0.772542
21
-0.772542
31
12.691315
0
POINT
8
MERIDIANI
10
2.5
20
-2.377641
30
0.772542
0
TEXT
8
ID-NODES
10
2.5
20
-2.377641
30
0.772542
40
0.15
1
76
0
LINE
8
fz
62
7
10
2.5
20
-2.377641
30
1.478791
11
2.5
21
-2.377641
31
11.478791
0
POINT
8
MERIDIANI
10
2.5
20
-2.022542
30
1.469463
0
TEXT
8
ID-NODES
10
2.5
20
-2.022542
30
1.469463
40
0.15
1
77
0
LINE
8
fz
62
7
10
2.5
20
-2.022542
30
1.936317
11
2.5
21
-2.022542
31
11.936317
0
POINT
8
MERIDIANI
10
2.5
20
-1.469463
30
2.022542
0
TEXT
8
ID-NODES
10
2.5
20
-1.469463
30
2.022542
40
0.15
1
78
0
LINE
8
fz
62
7
10
2.5
20
-1.469463
30
2.383417
11
2.5
21
-1.469463
31
12.383417
0
POINT
8
MERIDIANI
10
2.5
20
-0.772542
30
2.377641
0
TEXT
8
ID-NODES
10
2.5
20
-0.772542
30
2.377641
40
0.15
1
79
0
LINE
8
fz
62
7
10
2.5
20
-0.772542
30
2.691315
11
2.5
21
-0.772542
31
12.691315
0
POINT
8
MERIDIANI
10
2.5
20
0.0
30
2.5
0
TEXT
8
ID-NODES
10
2.5
20
0.0
30
2.5
40
0.15
1
80
0
LINE
8
fz
62
7
10
2.5
20
0.0
30
2.8
11
2.5
21
0.0
31
12.8
0
POINT
8
MERIDIANI
10
2.022542
20
-1.469463
30
2.022542
0
TEXT
8
ID-NODES
10
2.022542
20
-1.469463
30
2.022542
40
0.15
1
81
0
LINE
8
fz
62
7
10
2.022542
20
-1.469463
30
2.383417
11
2.022542
21
-1.469463
31
12.383417
0
POINT
8
MERIDIANI
10
2.022542
20
-0.772542
30
2.377641
0
TEXT
8
ID-NODES
10
2.022542
20
-0.772542
30
2.377641
40
0.15
1
82
0
LINE
8
fz
62
7
10
2.022542
20
-0.772542
30
2.691315
11
2.022542
21
-0.772542
31
12.691315
0
POINT
8
MERIDIANI
10
2.022542
20
0.0
30
2.5
0
TEXT
8
ID-NODES
10
2.022542
20
0.0
30
2.5
40
0.15
1
83
0
LINE
8
fz
62
7
10
2.022542
20
0.0
30
2.8
11
2.022542
21
0.0
31
12.8
0
POINT
8
MERIDIANI
10
1.469463
20
-0.772542
30
2.377641
0
TEXT
8
ID-NODES
10
1.469463
20
-0.772542
30
2.377641
40
0.15
1
84
0
LINE
8
fz
62
7
10
1.469463
20
-0.772542
30
2.691315
11
1.469463
21
-0.772542
31
12.691315
0
POINT
8
MERIDIANI
10
1.469463
20
0.0
30
2.5
0
TEXT
8
ID-NODES
10
1.469463
20
0.0
30
2.5
40
0.15
1
85
0
LINE
8
fz
62
7
10
1.469463
20
0.0
30
2.8
11
1.469463
21
0.0
31
12.8
0
POINT
8
MERIDIANI
10
0.772542
20
0.0
30
2.5
0
TEXT
8
ID-NODES
10
0.772542
20
0.0
30
2.5
40
0.15
1
86
0
LINE
8
fz
62
7
10
0.772542
20
0.0
30
2.8
11
0.772542
21
0.0
31
12.8
0
POINT
8
MERIDIANI
10
2.377641
20
-2.5
30
0.772542
0
TEXT
8
ID-NODES
10
2.377641
20
-2.5
30
0.772542
40
0.15
1
87
0
LINE
8
fz
62
7
10
2.377641
20
-2.5
30
1.478791
11
2.377641
21
-2.5
31
11.478791
0
POINT
8
MERIDIANI
10
2.022542
20
-2.5
30
1.469463
0
TEXT
8
ID-NODES
10
2.022542
20
-2.5
30
1.469463
40
0.15
1
88
0
LINE
8
fz
62
7
10
2.022542
20
-2.5
30
1.936317
11
2.022542
21
-2.5
31
11.936317
0
POINT
8
MERIDIANI
10
1.469463
20
-2.5
30
2.022542
0
TEXT
8
ID-NODES
10
1.469463
20
-2.5
30
2.022542
40
0.15
1
89
0
LINE
8
fz
62
7
10
1.469463
20
-2.5
30
2.383417
11
1.469463
21
-2.5
31
12.383417
0
POINT
8
MERIDIANI
10
0.772542
20
-2.5
30
2.377641
0
TEXT
8
ID-NODES
10
0.772542
20
-2.5
30
2.377641
40
0.15
1
90
0
LINE
8
fz
62
7
10
0.772542
20
-2.5
30
2.691315
11
0.772542
21
-2.5
31
12.691315
0
POINT
8
MERIDIANI
10
1.469463
20
-2.022542
30
2.022542
0
TEXT
8
ID-NODES
10
1.469463
20
-2.022542
30
2.022542
40
0.15
1
91
0
LINE
8
fz
62
7
10
1.469463
20
-2.022542
30
2.383417
11
1.469463
21
-2.022542
31
12.383417
0
POINT
8
MERIDIANI
10
0.772542
20
-2.022542
30
2.377641
0
TEXT
8
ID-NODES
10
0.772542
20
-2.022542
30
2.377641
40
0.15
1
92
0
LINE
8
fz
62
7
10
0.772542
20
-2.022542
30
2.691315
11
0.772542
21
-2.022542
31
12.691315
0
POINT
8
MERIDIANI
10
0.772542
20
-1.469463
30
2.377641
0
TEXT
8
ID-NODES
10
0.772542
20
-1.469463
30
2.377641
40
0.15
1
93
0
LINE
8
fz
62
7
10
0.772542
20
-1.469463
30
2.691315
11
0.772542
21
-1.469463
31
12.691315
0
POINT
8
PARALLELI
10
0.772542
20
-2.977458
30
1.877641
0
TEXT
8
ID-NODES
10
0.772542
20
-2.977458
30
1.877641
40
0.15
1
94
0
LINE
8
fz
62
7
10
0.772542
20
-2.977458
30
2.691315
11
0.772542
21
-2.977458
31
12.691315
0
POINT
8
PARALLELI
10
1.469463
20
-2.977458
30
1.522542
0
TEXT
8
ID-NODES
10
1.469463
20
-2.977458
30
1.522542
40
0.15
1
95
0
LINE
8
fz
62
7
10
1.469463
20
-2.977458
30
2.383417
11
1.469463
21
-2.977458
31
12.383417
0
POINT
8
PARALLELI
10
2.022542
20
-2.977458
30
0.969463
0
TEXT
8
ID-NODES
10
2.022542
20
-2.977458
30
0.969463
40
0.15
1
96
0
LINE
8
fz
62
7
10
2.022542
20
-2.977458
30
1.936317
11
2.022542
21
-2.977458
31
11.936317
0
POINT
8
PARALLELI
10
2.377641
20
-2.977458
30
0.272542
0
TEXT
8
ID-NODES
10
2.377641
20
-2.977458
30
0.272542
40
0.15
1
97
0
LINE
8
fz
62
7
10
2.377641
20
-2.977458
30
1.0
11
2.377641
21
-2.977458
31
11.0
0
POINT
8
PARALLELI
10
2.977458
20
0.0
30
2.0
0
TEXT
8
ID-NODES
10
2.977458
20
0.0
30
2.0
40
0.15
1
98
0
LINE
8
fz
62
7
10
2.977458
20
0.0
30
2.8
11
2.977458
21
0.0
31
12.8
0
POINT
8
PARALLELI
10
2.977458
20
-0.772542
30
1.877641
0
TEXT
8
ID-NODES
10
2.977458
20
-0.772542
30
1.877641
40
0.15
1
99
0
LINE
8
fz
62
7
10
2.977458
20
-0.772542
30
2.691315
11
2.977458
21
-0.772542
31
12.691315
0
POINT
8
PARALLELI
10
2.977458
20
-1.469463
30
1.522542
0
TEXT
8
ID-NODES
10
2.977458
20
-1.469463
30
1.522542
40
0.15
1
100
0
LINE
8
fz
62
7
10
2.977458
20
-1.469463
30
2.383417
11
2.977458
21
-1.469463
31
12.383417
0
POINT
8
PARALLELI
10
2.977458
20
-2.022542
30
0.969463
0
TEXT
8
ID-NODES
10
2.977458
20
-2.022542
30
0.969463
40
0.15
1
101
0
LINE
8
fz
62
7
10
2.977458
20
-2.022542
30
1.936317
11
2.977458
21
-2.022542
31
11.936317
0
POINT
8
PARALLELI
10
2.977458
20
-2.377641
30
0.272542
0
TEXT
8
ID-NODES
10
2.977458
20
-2.377641
30
0.272542
40
0.15
1
102
0
LINE
8
fz
62
7
10
2.977458
20
-2.377641
30
1.0
11
2.977458
21
-2.377641
31
11.0
0
POINT
8
DIAGONALI
10
2.5
20
2.5
30
0.0
0
TEXT
8
ID-NODES
10
2.5
20
2.5
30
0.0
40
0.15
1
103
0
LINE
8
fz
62
7
10
2.5
20
2.5
30
1.260952
11
2.5
21
2.5
31
11.260952
0
POINT
8
DIAGONALI
10
2.377641
20
2.377641
30
0.772542
0
TEXT
8
ID-NODES
10
2.377641
20
2.377641
30
0.772542
40
0.15
1
104
0
LINE
8
fz
62
7
10
2.377641
20
2.377641
30
1.478791
11
2.377641
21
2.377641
31
11.478791
0
POINT
8
DIAGONALI
10
2.022542
20
2.022542
30
1.469463
0
TEXT
8
ID-NODES
10
2.022542
20
2.022542
30
1.469463
40
0.15
1
105
0
LINE
8
fz
62
7
10
2.022542
20
2.022542
30
1.936317
11
2.022542
21
2.022542
31
11.936317
0
POINT
8
DIAGONALI
10
1.469463
20
1.469463
30
2.022542
0
TEXT
8
ID-NODES
10
1.469463
20
1.469463
30
2.022542
40
0.15
1
106
0
LINE
8
fz
62
7
10
1.469463
20
1.469463
30
2.383417
11
1.469463
21
1.469463
31
12.383417
0
POINT
8
DIAGONALI
10
0.772542
20
0.772542
30
2.377641
0
TEXT
8
ID-NODES
10
0.772542
20
0.772542
30
2.377641
40
0.15
1
107
0
LINE
8
fz
62
7
10
0.772542
20
0.772542
30
2.691315
11
0.772542
21
0.772542
31
12.691315
0
POINT
8
MERIDIANI
10
2.5
20
2.377641
30
0.772542
0
TEXT
8
ID-NODES
10
2.5
20
2.377641
30
0.772542
40
0.15
1
108
0
LINE
8
fz
62
7
10
2.5
20
2.377641
30
1.478791
11
2.5
21
2.377641
31
11.478791
0
POINT
8
MERIDIANI
10
2.5
20
2.022542
30
1.469463
0
TEXT
8
ID-NODES
10
2.5
20
2.022542
30
1.469463
40
0.15
1
109
0
LINE
8
fz
62
7
10
2.5
20
2.022542
30
1.936317
11
2.5
21
2.022542
31
11.936317
0
POINT
8
MERIDIANI
10
2.5
20
1.469463
30
2.022542
0
TEXT
8
ID-NODES
10
2.5
20
1.469463
30
2.022542
40
0.15
1
110
0
LINE
8
fz
62
7
10
2.5
20
1.469463
30
2.383417
11
2.5
21
1.469463
31
12.383417
0
POINT
8
MERIDIANI
10
2.5
20
0.772542
30
2.377641
0
TEXT
8
ID-NODES
10
2.5
20
0.772542
30
2.377641
40
0.15
1
111
0
LINE
8
fz
62
7
10
2.5
20
0.772542
30
2.691315
11
2.5
21
0.772542
31
12.691315
0
POINT
8
MERIDIANI
10
2.022542
20
1.469463
30
2.022542
0
TEXT
8
ID-NODES
10
2.022542
20
1.469463
30
2.022542
40
0.15
1
112
0
LINE
8
fz
62
7
10
2.022542
20
1.469463
30
2.383417
11
2.022542
21
1.469463
31
12.383417
0
POINT
8
MERIDIANI
10
2.022542
20
0.772542
30
2.377641
0
TEXT
8
ID-NODES
10
2.022542
20
0.772542
30
2.377641
40
0.15
1
113
0
LINE
8
fz
62
7
10
2.022542
20
0.772542
30
2.691315
11
2.022542
21
0.772542
31
12.691315
0
POINT
8
MERIDIANI
10
1.469463
20
0.772542
30
2.377641
0
TEXT
8
ID-NODES
10
1.469463
20
0.772542
30
2.377641
40
0.15
1
114
0
LINE
8
fz
62
7
10
1.469463
20
0.772542
30
2.691315
11
1.469463
21
0.772542
31
12.691315
0
POINT
8
MERIDIANI
10
2.377641
20
2.5
30
0.772542
0
TEXT
8
ID-NODES
10
2.377641
20
2.5
30
0.772542
40
0.15
1
115
0
LINE
8
fz
62
7
10
2.377641
20
2.5
30
1.478791
11
2.377641
21
2.5
31
11.478791
0
POINT
8
MERIDIANI
10
2.022542
20
2.5
30
1.469463
0
TEXT
8
ID-NODES
10
2.022542
20
2.5
30
1.469463
40
0.15
1
116
0
LINE
8
fz
62
7
10
2.022542
20
2.5
30
1.936317
11
2.022542
21
2.5
31
11.936317
0
POINT
8
MERIDIANI
10
1.469463
20
2.5
30
2.022542
0
TEXT
8
ID-NODES
10
1.469463
20
2.5
30
2.022542
40
0.15
1
117
0
LINE
8
fz
62
7
10
1.469463
20
2.5
30
2.383417
11
1.469463
21
2.5
31
12.383417
0
POINT
8
MERIDIANI
10
0.772542
20
2.5
30
2.377641
0
TEXT
8
ID-NODES
10
0.772542
20
2.5
30
2.377641
40
0.15
1
118
0
LINE
8
fz
62
7
10
0.772542
20
2.5
30
2.691315
11
0.772542
21
2.5
31
12.691315
0
POINT
8
MERIDIANI
10
1.469463
20
2.022542
30
2.022542
0
TEXT
8
ID-NODES
10
1.469463
20
2.022542
30
2.022542
40
0.15
1
119
0
LINE
8
fz
62
7
10
1.469463
20
2.022542
30
2.383417
11
1.469463
21
2.022542
31
12.383417
0
POINT
8
MERIDIANI
10
0.772542
20
2.022542
30
2.377641
0
TEXT
8
ID-NODES
10
0.772542
20
2.022542
30
2.377641
40
0.15
1
120
0
LINE
8
fz
62
7
10
0.772542
20
2.022542
30
2.691315
11
0.772542
21
2.022542
31
12.691315
0
POINT
8
MERIDIANI
10
0.772542
20
1.469463
30
2.377641
0
TEXT
8
ID-NODES
10
0.772542
20
1.469463
30
2.377641
40
0.15
1
121
0
LINE
8
fz
62
7
10
0.772542
20
1.469463
30
2.691315
11
0.772542
21
1.469463
31
12.691315
0
POINT
8
PARALLELI
10
0.772542
20
2.977458
30
1.877641
0
TEXT
8
ID-NODES
10
0.772542
20
2.977458
30
1.877641
40
0.15
1
122
0
LINE
8
fz
62
7
10
0.772542
20
2.977458
30
2.691315
11
0.772542
21
2.977458
31
12.691315
0
POINT
8
PARALLELI
10
1.469463
20
2.977458
30
1.522542
0
TEXT
8
ID-NODES
10
1.469463
20
2.977458
30
1.522542
40
0.15
1
123
0
LINE
8
fz
62
7
10
1.469463
20
2.977458
30
2.383417
11
1.469463
21
2.977458
31
12.383417
0
POINT
8
PARALLELI
10
2.022542
20
2.977458
30
0.969463
0
TEXT
8
ID-NODES
10
2.022542
20
2.977458
30
0.969463
40
0.15
1
124
0
LINE
8
fz
62
7
10
2.022542
20
2.977458
30
1.936317
11
2.022542
21
2.977458
31
11.936317
0
POINT
8
PARALLELI
10
2.377641
20
2.977458
30
0.272542
0
TEXT
8
ID-NODES
10
2.377641
20
2.977458
30
0.272542
40
0.15
1
125
0
LINE
8
fz
62
7
10
2.377641
20
2.977458
30
1.0
11
2.377641
21
2.977458
31
11.0
0
POINT
8
PARALLELI
10
2.977458
20
0.772542
30
1.877641
0
TEXT
8
ID-NODES
10
2.977458
20
0.772542
30
1.877641
40
0.15
1
126
0
LINE
8
fz
62
7
10
2.977458
20
0.772542
30
2.691315
11
2.977458
21
0.772542
31
12.691315
0
POINT
8
PARALLELI
10
2.977458
20
1.469463
30
1.522542
0
TEXT
8
ID-NODES
10
2.977458
20
1.469463
30
1.522542
40
0.15
1
127
0
LINE
8
fz
62
7
10
2.977458
20
1.469463
30
2.383417
11
2.977458
21
1.469463
31
12.383417
0
POINT
8
PARALLELI
10
2.977458
20
2.022542
30
0.969463
0
TEXT
8
ID-NODES
10
2.977458
20
2.022542
30
0.969463
40
0.15
1
128
0
LINE
8
fz
62
7
10
2.977458
20
2.022542
30
1.936317
11
2.977458
21
2.022542
31
11.936317
0
POINT
8
PARALLELI
10
2.977458
20
2.377641
30
0.272542
0
TEXT
8
ID-NODES
10
2.977458
20
2.377641
30
0.272542
40
0.15
1
129
0
LINE
8
fz
62
7
10
2.977458
20
2.377641
30
1.0
11
2.977458
21
2.377641
31
11.0
0
POINT
8
DIAGONALI
10
2.782843
20
-2.782843
30
-1.785799
0
TEXT
8
ID-NODES
10
2.782843
20
-2.782843
30
-1.785799
40
0.15
1
130
0
LINE
8
fz
62
7
10
2.782843
20
-2.782843
30
1.0
11
2.782843
21
-2.782843
31
11.0
0
POINT
8
DIAGONALI
10
-2.782843
20
-2.782843
30
-1.785799
0
TEXT
8
ID-NODES
10
-2.782843
20
-2.782843
30
-1.785799
40
0.15
1
131
0
LINE
8
fz
62
7
10
-2.782843
20
-2.782843
30
1.0
11
-2.782843
21
-2.782843
31
11.0
0
POINT
8
DIAGONALI
10
2.782843
20
2.782843
30
-1.785799
0
TEXT
8
ID-NODES
10
2.782843
20
2.782843
30
-1.785799
40
0.15
1
132
0
LINE
8
fz
62
7
10
2.782843
20
2.782843
30
1.0
11
2.782843
21
2.782843
31
11.0
0
POINT
8
DIAGONALI
10
-2.782843
20
2.782843
30
-1.785799
0
TEXT
8
ID-NODES
10
-2.782843
20
2.782843
30
-1.785799
40
0.15
1
133
0
LINE
8
fz
62
7
10
-2.782843
20
2.782843
30
1.0
11
-2.782843
21
2.782843
31
11.0
0
ENDSEC
0
EOF
