999
DXF created from myself (Fortunato Siano)
0
SECTION
2
ENTITIES
0
POINT
8
NODI-Intradosso
10
-1.875
20
-1.875
30
2.9802322387695312e-08
0
TEXT
8
NODI-Index
10
-1.875
20
-1.875
30
2.9802322387695312e-08
40
0.05
1
0
72
1
11
-1.875
21
-1.875
31
2.9802322387695312e-08
73
2
0
POINT
8
NODI-Estradosso
10
-1.875
20
-1.875
30
1.2965300835961084
0
POINT
8
NODI-Intradosso
10
-1.40625
20
-1.875
30
1.2401959270615273
0
TEXT
8
NODI-Index
10
-1.40625
20
-1.875
30
1.2401959270615273
40
0.05
1
1
72
1
11
-1.40625
21
-1.875
31
1.2401959270615273
73
2
0
POINT
8
NODI-Estradosso
10
-1.40625
20
-1.875
30
1.7941784178753606
0
POINT
8
NODI-Intradosso
10
-0.9375
20
-1.875
30
1.6237976320958227
0
TEXT
8
NODI-Index
10
-0.9375
20
-1.875
30
1.6237976320958227
40
0.05
1
2
72
1
11
-0.9375
21
-1.875
31
1.6237976320958227
73
2
0
POINT
8
NODI-Estradosso
10
-0.9375
20
-1.875
30
2.0779097688951107
0
POINT
8
NODI-Intradosso
10
-0.46875
20
-1.875
30
1.8154609435347269
0
TEXT
8
NODI-Index
10
-0.46875
20
-1.875
30
1.8154609435347269
40
0.05
1
3
72
1
11
-0.46875
21
-1.875
31
1.8154609435347269
73
2
0
POINT
8
NODI-Estradosso
10
-0.46875
20
-1.875
30
2.2308941470114023
0
POINT
8
NODI-Intradosso
10
0.0
20
-1.875
30
1.8750000000000002
0
TEXT
8
NODI-Index
10
0.0
20
-1.875
30
1.8750000000000002
40
0.05
1
4
72
1
11
0.0
21
-1.875
31
1.8750000000000002
73
2
0
POINT
8
NODI-Estradosso
10
0.0
20
-1.875
30
2.279608575538733
0
POINT
8
NODI-Intradosso
10
0.46875
20
-1.875
30
1.8154609435347269
0
TEXT
8
NODI-Index
10
0.46875
20
-1.875
30
1.8154609435347269
40
0.05
1
5
72
1
11
0.46875
21
-1.875
31
1.8154609435347269
73
2
0
POINT
8
NODI-Estradosso
10
0.46875
20
-1.875
30
2.2308941470114023
0
POINT
8
NODI-Intradosso
10
0.9375
20
-1.875
30
1.6237976320958227
0
TEXT
8
NODI-Index
10
0.9375
20
-1.875
30
1.6237976320958227
40
0.05
1
6
72
1
11
0.9375
21
-1.875
31
1.6237976320958227
73
2
0
POINT
8
NODI-Estradosso
10
0.9375
20
-1.875
30
2.0779097688951107
0
POINT
8
NODI-Intradosso
10
1.40625
20
-1.875
30
1.2401959270615273
0
TEXT
8
NODI-Index
10
1.40625
20
-1.875
30
1.2401959270615273
40
0.05
1
7
72
1
11
1.40625
21
-1.875
31
1.2401959270615273
73
2
0
POINT
8
NODI-Estradosso
10
1.40625
20
-1.875
30
1.7941784178753606
0
POINT
8
NODI-Intradosso
10
1.875
20
-1.875
30
2.9802322387695312e-08
0
TEXT
8
NODI-Index
10
1.875
20
-1.875
30
2.9802322387695312e-08
40
0.05
1
8
72
1
11
1.875
21
-1.875
31
2.9802322387695312e-08
73
2
0
POINT
8
NODI-Estradosso
10
1.875
20
-1.875
30
1.2965300835961084
0
POINT
8
NODI-Intradosso
10
-1.875
20
-1.40625
30
1.2401959270615273
0
TEXT
8
NODI-Index
10
-1.875
20
-1.40625
30
1.2401959270615273
40
0.05
1
9
72
1
11
-1.875
21
-1.40625
31
1.2401959270615273
73
2
0
POINT
8
NODI-Estradosso
10
-1.875
20
-1.40625
30
1.7941784178753606
0
POINT
8
NODI-Intradosso
10
-1.40625
20
-1.40625
30
1.7539019000502853
0
TEXT
8
NODI-Index
10
-1.40625
20
-1.40625
30
1.7539019000502853
40
0.05
1
10
72
1
11
-1.40625
21
-1.40625
31
1.7539019000502853
73
2
0
POINT
8
NODI-Estradosso
10
-1.40625
20
-1.40625
30
2.1810919587834285
0
POINT
8
NODI-Intradosso
10
-0.9375
20
-1.40625
30
2.0432338797846907
0
TEXT
8
NODI-Index
10
-0.9375
20
-1.40625
30
2.0432338797846907
40
0.05
1
11
72
1
11
-0.9375
21
-1.40625
31
2.0432338797846907
73
2
0
POINT
8
NODI-Estradosso
10
-0.9375
20
-1.40625
30
2.4198749854423744
0
POINT
8
NODI-Intradosso
10
-0.46875
20
-1.40625
30
2.198632387417233
0
TEXT
8
NODI-Index
10
-0.46875
20
-1.40625
30
2.198632387417233
40
0.05
1
12
72
1
11
-0.46875
21
-1.40625
31
2.198632387417233
73
2
0
POINT
8
NODI-Estradosso
10
-0.46875
20
-1.40625
30
2.5524448344028383
0
POINT
8
NODI-Intradosso
10
0.0
20
-1.40625
30
2.2480460265528377
0
TEXT
8
NODI-Index
10
0.0
20
-1.40625
30
2.2480460265528377
40
0.05
1
13
72
1
11
0.0
21
-1.40625
31
2.2480460265528377
73
2
0
POINT
8
NODI-Estradosso
10
0.0
20
-1.40625
30
2.5951302848161077
0
POINT
8
NODI-Intradosso
10
0.46875
20
-1.40625
30
2.198632387417233
0
TEXT
8
NODI-Index
10
0.46875
20
-1.40625
30
2.198632387417233
40
0.05
1
14
72
1
11
0.46875
21
-1.40625
31
2.198632387417233
73
2
0
POINT
8
NODI-Estradosso
10
0.46875
20
-1.40625
30
2.5524448344028383
0
POINT
8
NODI-Intradosso
10
0.9375
20
-1.40625
30
2.0432338797846907
0
TEXT
8
NODI-Index
10
0.9375
20
-1.40625
30
2.0432338797846907
40
0.05
1
15
72
1
11
0.9375
21
-1.40625
31
2.0432338797846907
73
2
0
POINT
8
NODI-Estradosso
10
0.9375
20
-1.40625
30
2.4198749854423744
0
POINT
8
NODI-Intradosso
10
1.40625
20
-1.40625
30
1.7539019000502853
0
TEXT
8
NODI-Index
10
1.40625
20
-1.40625
30
1.7539019000502853
40
0.05
1
16
72
1
11
1.40625
21
-1.40625
31
1.7539019000502853
73
2
0
POINT
8
NODI-Estradosso
10
1.40625
20
-1.40625
30
2.1810919587834285
0
POINT
8
NODI-Intradosso
10
1.875
20
-1.40625
30
1.2401959270615273
0
TEXT
8
NODI-Index
10
1.875
20
-1.40625
30
1.2401959270615273
40
0.05
1
17
72
1
11
1.875
21
-1.40625
31
1.2401959270615273
73
2
0
POINT
8
NODI-Estradosso
10
1.875
20
-1.40625
30
1.7941784178753606
0
POINT
8
NODI-Intradosso
10
-1.875
20
-0.9375
30
1.6237976320958227
0
TEXT
8
NODI-Index
10
-1.875
20
-0.9375
30
1.6237976320958227
40
0.05
1
18
72
1
11
-1.875
21
-0.9375
31
1.6237976320958227
73
2
0
POINT
8
NODI-Estradosso
10
-1.875
20
-0.9375
30
2.0779097688951107
0
POINT
8
NODI-Intradosso
10
-1.40625
20
-0.9375
30
2.0432338797846907
0
TEXT
8
NODI-Index
10
-1.40625
20
-0.9375
30
2.0432338797846907
40
0.05
1
19
72
1
11
-1.40625
21
-0.9375
31
2.0432338797846907
73
2
0
POINT
8
NODI-Estradosso
10
-1.40625
20
-0.9375
30
2.4198749854423744
0
POINT
8
NODI-Intradosso
10
-0.9375
20
-0.9375
30
2.2963966338592297
0
TEXT
8
NODI-Index
10
-0.9375
20
-0.9375
30
2.2963966338592297
40
0.05
1
20
72
1
11
-0.9375
21
-0.9375
31
2.2963966338592297
73
2
0
POINT
8
NODI-Estradosso
10
-0.9375
20
-0.9375
30
2.6371249036914675
0
POINT
8
NODI-Intradosso
10
-0.46875
20
-0.9375
30
2.4356964481437338
0
TEXT
8
NODI-Index
10
-0.46875
20
-0.9375
30
2.4356964481437338
40
0.05
1
21
72
1
11
-0.46875
21
-0.9375
31
2.4356964481437338
73
2
0
POINT
8
NODI-Estradosso
10
-0.46875
20
-0.9375
30
2.759276616283647
0
POINT
8
NODI-Intradosso
10
0.0
20
-0.9375
30
2.480391854123054
0
TEXT
8
NODI-Index
10
0.0
20
-0.9375
30
2.480391854123054
40
0.05
1
22
72
1
11
0.0
21
-0.9375
31
2.480391854123054
73
2
0
POINT
8
NODI-Estradosso
10
0.0
20
-0.9375
30
2.798809391092886
0
POINT
8
NODI-Intradosso
10
0.46875
20
-0.9375
30
2.4356964481437338
0
TEXT
8
NODI-Index
10
0.46875
20
-0.9375
30
2.4356964481437338
40
0.05
1
23
72
1
11
0.46875
21
-0.9375
31
2.4356964481437338
73
2
0
POINT
8
NODI-Estradosso
10
0.46875
20
-0.9375
30
2.759276616283647
0
POINT
8
NODI-Intradosso
10
0.9375
20
-0.9375
30
2.2963966338592297
0
TEXT
8
NODI-Index
10
0.9375
20
-0.9375
30
2.2963966338592297
40
0.05
1
24
72
1
11
0.9375
21
-0.9375
31
2.2963966338592297
73
2
0
POINT
8
NODI-Estradosso
10
0.9375
20
-0.9375
30
2.6371249036914675
0
POINT
8
NODI-Intradosso
10
1.40625
20
-0.9375
30
2.0432338797846907
0
TEXT
8
NODI-Index
10
1.40625
20
-0.9375
30
2.0432338797846907
40
0.05
1
25
72
1
11
1.40625
21
-0.9375
31
2.0432338797846907
73
2
0
POINT
8
NODI-Estradosso
10
1.40625
20
-0.9375
30
2.4198749854423744
0
POINT
8
NODI-Intradosso
10
1.875
20
-0.9375
30
1.6237976320958227
0
TEXT
8
NODI-Index
10
1.875
20
-0.9375
30
1.6237976320958227
40
0.05
1
26
72
1
11
1.875
21
-0.9375
31
1.6237976320958227
73
2
0
POINT
8
NODI-Estradosso
10
1.875
20
-0.9375
30
2.0779097688951107
0
POINT
8
NODI-Intradosso
10
-1.875
20
-0.46875
30
1.8154609435347269
0
TEXT
8
NODI-Index
10
-1.875
20
-0.46875
30
1.8154609435347269
40
0.05
1
27
72
1
11
-1.875
21
-0.46875
31
1.8154609435347269
73
2
0
POINT
8
NODI-Estradosso
10
-1.875
20
-0.46875
30
2.2308941470114023
0
POINT
8
NODI-Intradosso
10
-1.40625
20
-0.46875
30
2.198632387417233
0
TEXT
8
NODI-Index
10
-1.40625
20
-0.46875
30
2.198632387417233
40
0.05
1
28
72
1
11
-1.40625
21
-0.46875
31
2.198632387417233
73
2
0
POINT
8
NODI-Estradosso
10
-1.40625
20
-0.46875
30
2.5524448344028383
0
POINT
8
NODI-Intradosso
10
-0.9375
20
-0.46875
30
2.4356964481437338
0
TEXT
8
NODI-Index
10
-0.9375
20
-0.46875
30
2.4356964481437338
40
0.05
1
29
72
1
11
-0.9375
21
-0.46875
31
2.4356964481437338
73
2
0
POINT
8
NODI-Estradosso
10
-0.9375
20
-0.46875
30
2.759276616283647
0
POINT
8
NODI-Intradosso
10
-0.46875
20
-0.46875
30
2.567449488305466
0
TEXT
8
NODI-Index
10
-0.46875
20
-0.46875
30
2.567449488305466
40
0.05
1
30
72
1
11
-0.46875
21
-0.46875
31
2.567449488305466
73
2
0
POINT
8
NODI-Estradosso
10
-0.46875
20
-0.46875
30
2.876245318582845
0
POINT
8
NODI-Intradosso
10
0.0
20
-0.46875
30
2.609889545076573
0
TEXT
8
NODI-Index
10
0.0
20
-0.46875
30
2.609889545076573
40
0.05
1
31
72
1
11
0.0
21
-0.46875
31
2.609889545076573
73
2
0
POINT
8
NODI-Estradosso
10
0.0
20
-0.46875
30
2.9141917739177243
0
POINT
8
NODI-Intradosso
10
0.46875
20
-0.46875
30
2.567449488305466
0
TEXT
8
NODI-Index
10
0.46875
20
-0.46875
30
2.567449488305466
40
0.05
1
32
72
1
11
0.46875
21
-0.46875
31
2.567449488305466
73
2
0
POINT
8
NODI-Estradosso
10
0.46875
20
-0.46875
30
2.876245318582845
0
POINT
8
NODI-Intradosso
10
0.9375
20
-0.46875
30
2.4356964481437338
0
TEXT
8
NODI-Index
10
0.9375
20
-0.46875
30
2.4356964481437338
40
0.05
1
33
72
1
11
0.9375
21
-0.46875
31
2.4356964481437338
73
2
0
POINT
8
NODI-Estradosso
10
0.9375
20
-0.46875
30
2.759276616283647
0
POINT
8
NODI-Intradosso
10
1.40625
20
-0.46875
30
2.198632387417233
0
TEXT
8
NODI-Index
10
1.40625
20
-0.46875
30
2.198632387417233
40
0.05
1
34
72
1
11
1.40625
21
-0.46875
31
2.198632387417233
73
2
0
POINT
8
NODI-Estradosso
10
1.40625
20
-0.46875
30
2.5524448344028383
0
POINT
8
NODI-Intradosso
10
1.875
20
-0.46875
30
1.8154609435347269
0
TEXT
8
NODI-Index
10
1.875
20
-0.46875
30
1.8154609435347269
40
0.05
1
35
72
1
11
1.875
21
-0.46875
31
1.8154609435347269
73
2
0
POINT
8
NODI-Estradosso
10
1.875
20
-0.46875
30
2.2308941470114023
0
POINT
8
NODI-Intradosso
10
-1.875
20
0.0
30
1.8750000000000002
0
TEXT
8
NODI-Index
10
-1.875
20
0.0
30
1.8750000000000002
40
0.05
1
36
72
1
11
-1.875
21
0.0
31
1.8750000000000002
73
2
0
POINT
8
NODI-Estradosso
10
-1.875
20
0.0
30
2.279608575538733
0
POINT
8
NODI-Intradosso
10
-1.40625
20
0.0
30
2.2480460265528377
0
TEXT
8
NODI-Index
10
-1.40625
20
0.0
30
2.2480460265528377
40
0.05
1
37
72
1
11
-1.40625
21
0.0
31
2.2480460265528377
73
2
0
POINT
8
NODI-Estradosso
10
-1.40625
20
0.0
30
2.5951302848161077
0
POINT
8
NODI-Intradosso
10
-0.9375
20
0.0
30
2.480391854123054
0
TEXT
8
NODI-Index
10
-0.9375
20
0.0
30
2.480391854123054
40
0.05
1
38
72
1
11
-0.9375
21
0.0
31
2.480391854123054
73
2
0
POINT
8
NODI-Estradosso
10
-0.9375
20
0.0
30
2.798809391092886
0
POINT
8
NODI-Intradosso
10
-0.46875
20
0.0
30
2.609889545076573
0
TEXT
8
NODI-Index
10
-0.46875
20
0.0
30
2.609889545076573
40
0.05
1
39
72
1
11
-0.46875
21
0.0
31
2.609889545076573
73
2
0
POINT
8
NODI-Estradosso
10
-0.46875
20
0.0
30
2.9141917739177243
0
POINT
8
NODI-Intradosso
10
0.0
20
0.0
30
2.6516504294495533
0
TEXT
8
NODI-Index
10
0.0
20
0.0
30
2.6516504294495533
40
0.05
1
40
72
1
11
0.0
21
0.0
31
2.6516504294495533
73
2
0
POINT
8
NODI-Estradosso
10
0.0
20
0.0
30
2.951650429449553
0
POINT
8
NODI-Intradosso
10
0.46875
20
0.0
30
2.609889545076573
0
TEXT
8
NODI-Index
10
0.46875
20
0.0
30
2.609889545076573
40
0.05
1
41
72
1
11
0.46875
21
0.0
31
2.609889545076573
73
2
0
POINT
8
NODI-Estradosso
10
0.46875
20
0.0
30
2.9141917739177243
0
POINT
8
NODI-Intradosso
10
0.9375
20
0.0
30
2.480391854123054
0
TEXT
8
NODI-Index
10
0.9375
20
0.0
30
2.480391854123054
40
0.05
1
42
72
1
11
0.9375
21
0.0
31
2.480391854123054
73
2
0
POINT
8
NODI-Estradosso
10
0.9375
20
0.0
30
2.798809391092886
0
POINT
8
NODI-Intradosso
10
1.40625
20
0.0
30
2.2480460265528377
0
TEXT
8
NODI-Index
10
1.40625
20
0.0
30
2.2480460265528377
40
0.05
1
43
72
1
11
1.40625
21
0.0
31
2.2480460265528377
73
2
0
POINT
8
NODI-Estradosso
10
1.40625
20
0.0
30
2.5951302848161077
0
POINT
8
NODI-Intradosso
10
1.875
20
0.0
30
1.8750000000000002
0
TEXT
8
NODI-Index
10
1.875
20
0.0
30
1.8750000000000002
40
0.05
1
44
72
1
11
1.875
21
0.0
31
1.8750000000000002
73
2
0
POINT
8
NODI-Estradosso
10
1.875
20
0.0
30
2.279608575538733
0
POINT
8
NODI-Intradosso
10
-1.875
20
0.46875
30
1.8154609435347269
0
TEXT
8
NODI-Index
10
-1.875
20
0.46875
30
1.8154609435347269
40
0.05
1
45
72
1
11
-1.875
21
0.46875
31
1.8154609435347269
73
2
0
POINT
8
NODI-Estradosso
10
-1.875
20
0.46875
30
2.2308941470114023
0
POINT
8
NODI-Intradosso
10
-1.40625
20
0.46875
30
2.198632387417233
0
TEXT
8
NODI-Index
10
-1.40625
20
0.46875
30
2.198632387417233
40
0.05
1
46
72
1
11
-1.40625
21
0.46875
31
2.198632387417233
73
2
0
POINT
8
NODI-Estradosso
10
-1.40625
20
0.46875
30
2.5524448344028383
0
POINT
8
NODI-Intradosso
10
-0.9375
20
0.46875
30
2.4356964481437338
0
TEXT
8
NODI-Index
10
-0.9375
20
0.46875
30
2.4356964481437338
40
0.05
1
47
72
1
11
-0.9375
21
0.46875
31
2.4356964481437338
73
2
0
POINT
8
NODI-Estradosso
10
-0.9375
20
0.46875
30
2.759276616283647
0
POINT
8
NODI-Intradosso
10
-0.46875
20
0.46875
30
2.567449488305466
0
TEXT
8
NODI-Index
10
-0.46875
20
0.46875
30
2.567449488305466
40
0.05
1
48
72
1
11
-0.46875
21
0.46875
31
2.567449488305466
73
2
0
POINT
8
NODI-Estradosso
10
-0.46875
20
0.46875
30
2.876245318582845
0
POINT
8
NODI-Intradosso
10
0.0
20
0.46875
30
2.609889545076573
0
TEXT
8
NODI-Index
10
0.0
20
0.46875
30
2.609889545076573
40
0.05
1
49
72
1
11
0.0
21
0.46875
31
2.609889545076573
73
2
0
POINT
8
NODI-Estradosso
10
0.0
20
0.46875
30
2.9141917739177243
0
POINT
8
NODI-Intradosso
10
0.46875
20
0.46875
30
2.567449488305466
0
TEXT
8
NODI-Index
10
0.46875
20
0.46875
30
2.567449488305466
40
0.05
1
50
72
1
11
0.46875
21
0.46875
31
2.567449488305466
73
2
0
POINT
8
NODI-Estradosso
10
0.46875
20
0.46875
30
2.876245318582845
0
POINT
8
NODI-Intradosso
10
0.9375
20
0.46875
30
2.4356964481437338
0
TEXT
8
NODI-Index
10
0.9375
20
0.46875
30
2.4356964481437338
40
0.05
1
51
72
1
11
0.9375
21
0.46875
31
2.4356964481437338
73
2
0
POINT
8
NODI-Estradosso
10
0.9375
20
0.46875
30
2.759276616283647
0
POINT
8
NODI-Intradosso
10
1.40625
20
0.46875
30
2.198632387417233
0
TEXT
8
NODI-Index
10
1.40625
20
0.46875
30
2.198632387417233
40
0.05
1
52
72
1
11
1.40625
21
0.46875
31
2.198632387417233
73
2
0
POINT
8
NODI-Estradosso
10
1.40625
20
0.46875
30
2.5524448344028383
0
POINT
8
NODI-Intradosso
10
1.875
20
0.46875
30
1.8154609435347269
0
TEXT
8
NODI-Index
10
1.875
20
0.46875
30
1.8154609435347269
40
0.05
1
53
72
1
11
1.875
21
0.46875
31
1.8154609435347269
73
2
0
POINT
8
NODI-Estradosso
10
1.875
20
0.46875
30
2.2308941470114023
0
POINT
8
NODI-Intradosso
10
-1.875
20
0.9375
30
1.6237976320958227
0
TEXT
8
NODI-Index
10
-1.875
20
0.9375
30
1.6237976320958227
40
0.05
1
54
72
1
11
-1.875
21
0.9375
31
1.6237976320958227
73
2
0
POINT
8
NODI-Estradosso
10
-1.875
20
0.9375
30
2.0779097688951107
0
POINT
8
NODI-Intradosso
10
-1.40625
20
0.9375
30
2.0432338797846907
0
TEXT
8
NODI-Index
10
-1.40625
20
0.9375
30
2.0432338797846907
40
0.05
1
55
72
1
11
-1.40625
21
0.9375
31
2.0432338797846907
73
2
0
POINT
8
NODI-Estradosso
10
-1.40625
20
0.9375
30
2.4198749854423744
0
POINT
8
NODI-Intradosso
10
-0.9375
20
0.9375
30
2.2963966338592297
0
TEXT
8
NODI-Index
10
-0.9375
20
0.9375
30
2.2963966338592297
40
0.05
1
56
72
1
11
-0.9375
21
0.9375
31
2.2963966338592297
73
2
0
POINT
8
NODI-Estradosso
10
-0.9375
20
0.9375
30
2.6371249036914675
0
POINT
8
NODI-Intradosso
10
-0.46875
20
0.9375
30
2.4356964481437338
0
TEXT
8
NODI-Index
10
-0.46875
20
0.9375
30
2.4356964481437338
40
0.05
1
57
72
1
11
-0.46875
21
0.9375
31
2.4356964481437338
73
2
0
POINT
8
NODI-Estradosso
10
-0.46875
20
0.9375
30
2.759276616283647
0
POINT
8
NODI-Intradosso
10
0.0
20
0.9375
30
2.480391854123054
0
TEXT
8
NODI-Index
10
0.0
20
0.9375
30
2.480391854123054
40
0.05
1
58
72
1
11
0.0
21
0.9375
31
2.480391854123054
73
2
0
POINT
8
NODI-Estradosso
10
0.0
20
0.9375
30
2.798809391092886
0
POINT
8
NODI-Intradosso
10
0.46875
20
0.9375
30
2.4356964481437338
0
TEXT
8
NODI-Index
10
0.46875
20
0.9375
30
2.4356964481437338
40
0.05
1
59
72
1
11
0.46875
21
0.9375
31
2.4356964481437338
73
2
0
POINT
8
NODI-Estradosso
10
0.46875
20
0.9375
30
2.759276616283647
0
POINT
8
NODI-Intradosso
10
0.9375
20
0.9375
30
2.2963966338592297
0
TEXT
8
NODI-Index
10
0.9375
20
0.9375
30
2.2963966338592297
40
0.05
1
60
72
1
11
0.9375
21
0.9375
31
2.2963966338592297
73
2
0
POINT
8
NODI-Estradosso
10
0.9375
20
0.9375
30
2.6371249036914675
0
POINT
8
NODI-Intradosso
10
1.40625
20
0.9375
30
2.0432338797846907
0
TEXT
8
NODI-Index
10
1.40625
20
0.9375
30
2.0432338797846907
40
0.05
1
61
72
1
11
1.40625
21
0.9375
31
2.0432338797846907
73
2
0
POINT
8
NODI-Estradosso
10
1.40625
20
0.9375
30
2.4198749854423744
0
POINT
8
NODI-Intradosso
10
1.875
20
0.9375
30
1.6237976320958227
0
TEXT
8
NODI-Index
10
1.875
20
0.9375
30
1.6237976320958227
40
0.05
1
62
72
1
11
1.875
21
0.9375
31
1.6237976320958227
73
2
0
POINT
8
NODI-Estradosso
10
1.875
20
0.9375
30
2.0779097688951107
0
POINT
8
NODI-Intradosso
10
-1.875
20
1.40625
30
1.2401959270615273
0
TEXT
8
NODI-Index
10
-1.875
20
1.40625
30
1.2401959270615273
40
0.05
1
63
72
1
11
-1.875
21
1.40625
31
1.2401959270615273
73
2
0
POINT
8
NODI-Estradosso
10
-1.875
20
1.40625
30
1.7941784178753606
0
POINT
8
NODI-Intradosso
10
-1.40625
20
1.40625
30
1.7539019000502853
0
TEXT
8
NODI-Index
10
-1.40625
20
1.40625
30
1.7539019000502853
40
0.05
1
64
72
1
11
-1.40625
21
1.40625
31
1.7539019000502853
73
2
0
POINT
8
NODI-Estradosso
10
-1.40625
20
1.40625
30
2.1810919587834285
0
POINT
8
NODI-Intradosso
10
-0.9375
20
1.40625
30
2.0432338797846907
0
TEXT
8
NODI-Index
10
-0.9375
20
1.40625
30
2.0432338797846907
40
0.05
1
65
72
1
11
-0.9375
21
1.40625
31
2.0432338797846907
73
2
0
POINT
8
NODI-Estradosso
10
-0.9375
20
1.40625
30
2.4198749854423744
0
POINT
8
NODI-Intradosso
10
-0.46875
20
1.40625
30
2.198632387417233
0
TEXT
8
NODI-Index
10
-0.46875
20
1.40625
30
2.198632387417233
40
0.05
1
66
72
1
11
-0.46875
21
1.40625
31
2.198632387417233
73
2
0
POINT
8
NODI-Estradosso
10
-0.46875
20
1.40625
30
2.5524448344028383
0
POINT
8
NODI-Intradosso
10
0.0
20
1.40625
30
2.2480460265528377
0
TEXT
8
NODI-Index
10
0.0
20
1.40625
30
2.2480460265528377
40
0.05
1
67
72
1
11
0.0
21
1.40625
31
2.2480460265528377
73
2
0
POINT
8
NODI-Estradosso
10
0.0
20
1.40625
30
2.5951302848161077
0
POINT
8
NODI-Intradosso
10
0.46875
20
1.40625
30
2.198632387417233
0
TEXT
8
NODI-Index
10
0.46875
20
1.40625
30
2.198632387417233
40
0.05
1
68
72
1
11
0.46875
21
1.40625
31
2.198632387417233
73
2
0
POINT
8
NODI-Estradosso
10
0.46875
20
1.40625
30
2.5524448344028383
0
POINT
8
NODI-Intradosso
10
0.9375
20
1.40625
30
2.0432338797846907
0
TEXT
8
NODI-Index
10
0.9375
20
1.40625
30
2.0432338797846907
40
0.05
1
69
72
1
11
0.9375
21
1.40625
31
2.0432338797846907
73
2
0
POINT
8
NODI-Estradosso
10
0.9375
20
1.40625
30
2.4198749854423744
0
POINT
8
NODI-Intradosso
10
1.40625
20
1.40625
30
1.7539019000502853
0
TEXT
8
NODI-Index
10
1.40625
20
1.40625
30
1.7539019000502853
40
0.05
1
70
72
1
11
1.40625
21
1.40625
31
1.7539019000502853
73
2
0
POINT
8
NODI-Estradosso
10
1.40625
20
1.40625
30
2.1810919587834285
0
POINT
8
NODI-Intradosso
10
1.875
20
1.40625
30
1.2401959270615273
0
TEXT
8
NODI-Index
10
1.875
20
1.40625
30
1.2401959270615273
40
0.05
1
71
72
1
11
1.875
21
1.40625
31
1.2401959270615273
73
2
0
POINT
8
NODI-Estradosso
10
1.875
20
1.40625
30
1.7941784178753606
0
POINT
8
NODI-Intradosso
10
-1.875
20
1.875
30
2.9802322387695312e-08
0
TEXT
8
NODI-Index
10
-1.875
20
1.875
30
2.9802322387695312e-08
40
0.05
1
72
72
1
11
-1.875
21
1.875
31
2.9802322387695312e-08
73
2
0
POINT
8
NODI-Estradosso
10
-1.875
20
1.875
30
1.2965300835961084
0
POINT
8
NODI-Intradosso
10
-1.40625
20
1.875
30
1.2401959270615273
0
TEXT
8
NODI-Index
10
-1.40625
20
1.875
30
1.2401959270615273
40
0.05
1
73
72
1
11
-1.40625
21
1.875
31
1.2401959270615273
73
2
0
POINT
8
NODI-Estradosso
10
-1.40625
20
1.875
30
1.7941784178753606
0
POINT
8
NODI-Intradosso
10
-0.9375
20
1.875
30
1.6237976320958227
0
TEXT
8
NODI-Index
10
-0.9375
20
1.875
30
1.6237976320958227
40
0.05
1
74
72
1
11
-0.9375
21
1.875
31
1.6237976320958227
73
2
0
POINT
8
NODI-Estradosso
10
-0.9375
20
1.875
30
2.0779097688951107
0
POINT
8
NODI-Intradosso
10
-0.46875
20
1.875
30
1.8154609435347269
0
TEXT
8
NODI-Index
10
-0.46875
20
1.875
30
1.8154609435347269
40
0.05
1
75
72
1
11
-0.46875
21
1.875
31
1.8154609435347269
73
2
0
POINT
8
NODI-Estradosso
10
-0.46875
20
1.875
30
2.2308941470114023
0
POINT
8
NODI-Intradosso
10
0.0
20
1.875
30
1.8750000000000002
0
TEXT
8
NODI-Index
10
0.0
20
1.875
30
1.8750000000000002
40
0.05
1
76
72
1
11
0.0
21
1.875
31
1.8750000000000002
73
2
0
POINT
8
NODI-Estradosso
10
0.0
20
1.875
30
2.279608575538733
0
POINT
8
NODI-Intradosso
10
0.46875
20
1.875
30
1.8154609435347269
0
TEXT
8
NODI-Index
10
0.46875
20
1.875
30
1.8154609435347269
40
0.05
1
77
72
1
11
0.46875
21
1.875
31
1.8154609435347269
73
2
0
POINT
8
NODI-Estradosso
10
0.46875
20
1.875
30
2.2308941470114023
0
POINT
8
NODI-Intradosso
10
0.9375
20
1.875
30
1.6237976320958227
0
TEXT
8
NODI-Index
10
0.9375
20
1.875
30
1.6237976320958227
40
0.05
1
78
72
1
11
0.9375
21
1.875
31
1.6237976320958227
73
2
0
POINT
8
NODI-Estradosso
10
0.9375
20
1.875
30
2.0779097688951107
0
POINT
8
NODI-Intradosso
10
1.40625
20
1.875
30
1.2401959270615273
0
TEXT
8
NODI-Index
10
1.40625
20
1.875
30
1.2401959270615273
40
0.05
1
79
72
1
11
1.40625
21
1.875
31
1.2401959270615273
73
2
0
POINT
8
NODI-Estradosso
10
1.40625
20
1.875
30
1.7941784178753606
0
POINT
8
NODI-Intradosso
10
1.875
20
1.875
30
2.9802322387695312e-08
0
TEXT
8
NODI-Index
10
1.875
20
1.875
30
2.9802322387695312e-08
40
0.05
1
80
72
1
11
1.875
21
1.875
31
2.9802322387695312e-08
73
2
0
POINT
8
NODI-Estradosso
10
1.875
20
1.875
30
1.2965300835961084
0
POINT
8
NODI-Intradosso
10
-1.7578125
20
-1.7578125
30
0.9227352977357596
0
TEXT
8
NODI-Index
10
-1.7578125
20
-1.7578125
30
0.9227352977357596
40
0.05
1
81
72
1
11
-1.7578125
21
-1.7578125
31
0.9227352977357596
73
2
0
POINT
8
NODI-Estradosso
10
-1.7578125
20
-1.7578125
30
1.5913612686493386
0
POINT
8
NODI-Intradosso
10
-1.640625
20
-1.640625
30
1.2837247441527335
0
TEXT
8
NODI-Index
10
-1.640625
20
-1.640625
30
1.2837247441527335
40
0.05
1
82
72
1
11
-1.640625
21
-1.640625
31
1.2837247441527335
73
2
0
POINT
8
NODI-Estradosso
10
-1.640625
20
-1.640625
30
1.824538154278976
0
POINT
8
NODI-Intradosso
10
1.640625
20
1.640625
30
1.2837247441527335
0
TEXT
8
NODI-Index
10
1.640625
20
1.640625
30
1.2837247441527335
40
0.05
1
83
72
1
11
1.640625
21
1.640625
31
1.2837247441527335
73
2
0
POINT
8
NODI-Estradosso
10
1.640625
20
1.640625
30
1.824538154278976
0
POINT
8
NODI-Intradosso
10
1.7578125
20
1.7578125
30
0.9227352977357596
0
TEXT
8
NODI-Index
10
1.7578125
20
1.7578125
30
0.9227352977357596
40
0.05
1
84
72
1
11
1.7578125
21
1.7578125
31
0.9227352977357596
73
2
0
POINT
8
NODI-Estradosso
10
1.7578125
20
1.7578125
30
1.5913612686493386
0
POINT
8
NODI-Intradosso
10
1.7578125
20
-1.7578125
30
0.9227352977357596
0
TEXT
8
NODI-Index
10
1.7578125
20
-1.7578125
30
0.9227352977357596
40
0.05
1
85
72
1
11
1.7578125
21
-1.7578125
31
0.9227352977357596
73
2
0
POINT
8
NODI-Estradosso
10
1.7578125
20
-1.7578125
30
1.5913612686493386
0
POINT
8
NODI-Intradosso
10
1.640625
20
-1.640625
30
1.2837247441527335
0
TEXT
8
NODI-Index
10
1.640625
20
-1.640625
30
1.2837247441527335
40
0.05
1
86
72
1
11
1.640625
21
-1.640625
31
1.2837247441527335
73
2
0
POINT
8
NODI-Estradosso
10
1.640625
20
-1.640625
30
1.824538154278976
0
POINT
8
NODI-Intradosso
10
-1.640625
20
1.640625
30
1.2837247441527335
0
TEXT
8
NODI-Index
10
-1.640625
20
1.640625
30
1.2837247441527335
40
0.05
1
87
72
1
11
-1.640625
21
1.640625
31
1.2837247441527335
73
2
0
POINT
8
NODI-Estradosso
10
-1.640625
20
1.640625
30
1.824538154278976
0
POINT
8
NODI-Intradosso
10
-1.7578125
20
1.7578125
30
0.9227352977357596
0
TEXT
8
NODI-Index
10
-1.7578125
20
1.7578125
30
0.9227352977357596
40
0.05
1
88
72
1
11
-1.7578125
21
1.7578125
31
0.9227352977357596
73
2
0
POINT
8
NODI-Estradosso
10
-1.7578125
20
1.7578125
30
1.5913612686493386
0
POINT
8
NODI-Intradosso
10
-1.640625
20
-1.875
30
0.9077304717673638
0
TEXT
8
NODI-Index
10
-1.640625
20
-1.875
30
0.9077304717673638
40
0.05
1
89
72
1
11
-1.640625
21
-1.875
31
0.9077304717673638
73
2
0
POINT
8
NODI-Estradosso
10
-1.640625
20
-1.875
30
1.5827080801729458
0
POINT
8
NODI-Intradosso
10
1.640625
20
-1.875
30
0.9077304717673638
0
TEXT
8
NODI-Index
10
1.640625
20
-1.875
30
0.9077304717673638
40
0.05
1
90
72
1
11
1.640625
21
-1.875
31
0.9077304717673638
73
2
0
POINT
8
NODI-Estradosso
10
1.640625
20
-1.875
30
1.5827080801729458
0
POINT
8
NODI-Intradosso
10
-1.640625
20
1.875
30
0.9077304717673638
0
TEXT
8
NODI-Index
10
-1.640625
20
1.875
30
0.9077304717673638
40
0.05
1
91
72
1
11
-1.640625
21
1.875
31
0.9077304717673638
73
2
0
POINT
8
NODI-Estradosso
10
-1.640625
20
1.875
30
1.5827080801729458
0
POINT
8
NODI-Intradosso
10
1.640625
20
1.875
30
0.9077304717673638
0
TEXT
8
NODI-Index
10
1.640625
20
1.875
30
0.9077304717673638
40
0.05
1
92
72
1
11
1.640625
21
1.875
31
0.9077304717673638
73
2
0
POINT
8
NODI-Estradosso
10
1.640625
20
1.875
30
1.5827080801729458
0
LINE
8
BRANCHE_INTERNO
10
-1.40625
20
-1.875
30
1.2401959270615273
11
-0.9375
21
-1.875
31
1.6237976320958227
0
TEXT
8
BRANCHES-Index
10
-1.171875
20
-1.875
30
1.431996779578675
40
0.02
1
0
72
1
11
-1.171875
21
-1.875
31
1.431996779578675
73
2
0
LINE
8
BRANCHE_INTERNO
10
-0.9375
20
-1.875
30
1.6237976320958227
11
-0.46875
21
-1.875
31
1.8154609435347269
0
TEXT
8
BRANCHES-Index
10
-0.703125
20
-1.875
30
1.7196292878152748
40
0.02
1
1
72
1
11
-0.703125
21
-1.875
31
1.7196292878152748
73
2
0
LINE
8
BRANCHE_INTERNO
10
-0.46875
20
-1.875
30
1.8154609435347269
11
0.0
21
-1.875
31
1.8750000000000002
0
TEXT
8
BRANCHES-Index
10
-0.234375
20
-1.875
30
1.8452304717673635
40
0.02
1
2
72
1
11
-0.234375
21
-1.875
31
1.8452304717673635
73
2
0
LINE
8
BRANCHE_INTERNO
10
0.0
20
-1.875
30
1.8750000000000002
11
0.46875
21
-1.875
31
1.8154609435347269
0
TEXT
8
BRANCHES-Index
10
0.234375
20
-1.875
30
1.8452304717673635
40
0.02
1
3
72
1
11
0.234375
21
-1.875
31
1.8452304717673635
73
2
0
LINE
8
BRANCHE_INTERNO
10
0.46875
20
-1.875
30
1.8154609435347269
11
0.9375
21
-1.875
31
1.6237976320958227
0
TEXT
8
BRANCHES-Index
10
0.703125
20
-1.875
30
1.7196292878152748
40
0.02
1
4
72
1
11
0.703125
21
-1.875
31
1.7196292878152748
73
2
0
LINE
8
BRANCHE_INTERNO
10
0.9375
20
-1.875
30
1.6237976320958227
11
1.40625
21
-1.875
31
1.2401959270615273
0
TEXT
8
BRANCHES-Index
10
1.171875
20
-1.875
30
1.431996779578675
40
0.02
1
5
72
1
11
1.171875
21
-1.875
31
1.431996779578675
73
2
0
LINE
8
BRANCHE_INTERNO
10
-1.875
20
-1.40625
30
1.2401959270615273
11
-1.40625
21
-1.40625
31
1.7539019000502853
0
TEXT
8
BRANCHES-Index
10
-1.640625
20
-1.40625
30
1.4970489135559064
40
0.02
1
6
72
1
11
-1.640625
21
-1.40625
31
1.4970489135559064
73
2
0
LINE
8
BRANCHE_INTERNO
10
-1.40625
20
-1.40625
30
1.7539019000502853
11
-0.9375
21
-1.40625
31
2.0432338797846907
0
TEXT
8
BRANCHES-Index
10
-1.171875
20
-1.40625
30
1.898567889917488
40
0.02
1
7
72
1
11
-1.171875
21
-1.40625
31
1.898567889917488
73
2
0
LINE
8
BRANCHE_INTERNO
10
-0.9375
20
-1.40625
30
2.0432338797846907
11
-0.46875
21
-1.40625
31
2.198632387417233
0
TEXT
8
BRANCHES-Index
10
-0.703125
20
-1.40625
30
2.120933133600962
40
0.02
1
8
72
1
11
-0.703125
21
-1.40625
31
2.120933133600962
73
2
0
LINE
8
BRANCHE_INTERNO
10
-0.46875
20
-1.40625
30
2.198632387417233
11
0.0
21
-1.40625
31
2.2480460265528377
0
TEXT
8
BRANCHES-Index
10
-0.234375
20
-1.40625
30
2.2233392069850355
40
0.02
1
9
72
1
11
-0.234375
21
-1.40625
31
2.2233392069850355
73
2
0
LINE
8
BRANCHE_INTERNO
10
0.0
20
-1.40625
30
2.2480460265528377
11
0.46875
21
-1.40625
31
2.198632387417233
0
TEXT
8
BRANCHES-Index
10
0.234375
20
-1.40625
30
2.2233392069850355
40
0.02
1
10
72
1
11
0.234375
21
-1.40625
31
2.2233392069850355
73
2
0
LINE
8
BRANCHE_INTERNO
10
0.46875
20
-1.40625
30
2.198632387417233
11
0.9375
21
-1.40625
31
2.0432338797846907
0
TEXT
8
BRANCHES-Index
10
0.703125
20
-1.40625
30
2.120933133600962
40
0.02
1
11
72
1
11
0.703125
21
-1.40625
31
2.120933133600962
73
2
0
LINE
8
BRANCHE_INTERNO
10
0.9375
20
-1.40625
30
2.0432338797846907
11
1.40625
21
-1.40625
31
1.7539019000502853
0
TEXT
8
BRANCHES-Index
10
1.171875
20
-1.40625
30
1.898567889917488
40
0.02
1
12
72
1
11
1.171875
21
-1.40625
31
1.898567889917488
73
2
0
LINE
8
BRANCHE_INTERNO
10
1.40625
20
-1.40625
30
1.7539019000502853
11
1.875
21
-1.40625
31
1.2401959270615273
0
TEXT
8
BRANCHES-Index
10
1.640625
20
-1.40625
30
1.4970489135559064
40
0.02
1
13
72
1
11
1.640625
21
-1.40625
31
1.4970489135559064
73
2
0
LINE
8
BRANCHE_INTERNO
10
-1.875
20
-0.9375
30
1.6237976320958227
11
-1.40625
21
-0.9375
31
2.0432338797846907
0
TEXT
8
BRANCHES-Index
10
-1.640625
20
-0.9375
30
1.8335157559402568
40
0.02
1
14
72
1
11
-1.640625
21
-0.9375
31
1.8335157559402568
73
2
0
LINE
8
BRANCHE_INTERNO
10
-1.40625
20
-0.9375
30
2.0432338797846907
11
-0.9375
21
-0.9375
31
2.2963966338592297
0
TEXT
8
BRANCHES-Index
10
-1.171875
20
-0.9375
30
2.16981525682196
40
0.02
1
15
72
1
11
-1.171875
21
-0.9375
31
2.16981525682196
73
2
0
LINE
8
BRANCHE_INTERNO
10
-0.9375
20
-0.9375
30
2.2963966338592297
11
-0.46875
21
-0.9375
31
2.4356964481437338
0
TEXT
8
BRANCHES-Index
10
-0.703125
20
-0.9375
30
2.3660465410014817
40
0.02
1
16
72
1
11
-0.703125
21
-0.9375
31
2.3660465410014817
73
2
0
LINE
8
BRANCHE_INTERNO
10
-0.46875
20
-0.9375
30
2.4356964481437338
11
0.0
21
-0.9375
31
2.480391854123054
0
TEXT
8
BRANCHES-Index
10
-0.234375
20
-0.9375
30
2.458044151133394
40
0.02
1
17
72
1
11
-0.234375
21
-0.9375
31
2.458044151133394
73
2
0
LINE
8
BRANCHE_INTERNO
10
0.0
20
-0.9375
30
2.480391854123054
11
0.46875
21
-0.9375
31
2.4356964481437338
0
TEXT
8
BRANCHES-Index
10
0.234375
20
-0.9375
30
2.458044151133394
40
0.02
1
18
72
1
11
0.234375
21
-0.9375
31
2.458044151133394
73
2
0
LINE
8
BRANCHE_INTERNO
10
0.46875
20
-0.9375
30
2.4356964481437338
11
0.9375
21
-0.9375
31
2.2963966338592297
0
TEXT
8
BRANCHES-Index
10
0.703125
20
-0.9375
30
2.3660465410014817
40
0.02
1
19
72
1
11
0.703125
21
-0.9375
31
2.3660465410014817
73
2
0
LINE
8
BRANCHE_INTERNO
10
0.9375
20
-0.9375
30
2.2963966338592297
11
1.40625
21
-0.9375
31
2.0432338797846907
0
TEXT
8
BRANCHES-Index
10
1.171875
20
-0.9375
30
2.16981525682196
40
0.02
1
20
72
1
11
1.171875
21
-0.9375
31
2.16981525682196
73
2
0
LINE
8
BRANCHE_INTERNO
10
1.40625
20
-0.9375
30
2.0432338797846907
11
1.875
21
-0.9375
31
1.6237976320958227
0
TEXT
8
BRANCHES-Index
10
1.640625
20
-0.9375
30
1.8335157559402568
40
0.02
1
21
72
1
11
1.640625
21
-0.9375
31
1.8335157559402568
73
2
0
LINE
8
BRANCHE_INTERNO
10
-1.875
20
-0.46875
30
1.8154609435347269
11
-1.40625
21
-0.46875
31
2.198632387417233
0
TEXT
8
BRANCHES-Index
10
-1.640625
20
-0.46875
30
2.00704666547598
40
0.02
1
22
72
1
11
-1.640625
21
-0.46875
31
2.00704666547598
73
2
0
LINE
8
BRANCHE_INTERNO
10
-1.40625
20
-0.46875
30
2.198632387417233
11
-0.9375
21
-0.46875
31
2.4356964481437338
0
TEXT
8
BRANCHES-Index
10
-1.171875
20
-0.46875
30
2.317164417780483
40
0.02
1
23
72
1
11
-1.171875
21
-0.46875
31
2.317164417780483
73
2
0
LINE
8
BRANCHE_INTERNO
10
-0.9375
20
-0.46875
30
2.4356964481437338
11
-0.46875
21
-0.46875
31
2.567449488305466
0
TEXT
8
BRANCHES-Index
10
-0.703125
20
-0.46875
30
2.5015729682246
40
0.02
1
24
72
1
11
-0.703125
21
-0.46875
31
2.5015729682246
73
2
0
LINE
8
BRANCHE_INTERNO
10
-0.46875
20
-0.46875
30
2.567449488305466
11
0.0
21
-0.46875
31
2.609889545076573
0
TEXT
8
BRANCHES-Index
10
-0.234375
20
-0.46875
30
2.5886695166910196
40
0.02
1
25
72
1
11
-0.234375
21
-0.46875
31
2.5886695166910196
73
2
0
LINE
8
BRANCHE_INTERNO
10
0.0
20
-0.46875
30
2.609889545076573
11
0.46875
21
-0.46875
31
2.567449488305466
0
TEXT
8
BRANCHES-Index
10
0.234375
20
-0.46875
30
2.5886695166910196
40
0.02
1
26
72
1
11
0.234375
21
-0.46875
31
2.5886695166910196
73
2
0
LINE
8
BRANCHE_INTERNO
10
0.46875
20
-0.46875
30
2.567449488305466
11
0.9375
21
-0.46875
31
2.4356964481437338
0
TEXT
8
BRANCHES-Index
10
0.703125
20
-0.46875
30
2.5015729682246
40
0.02
1
27
72
1
11
0.703125
21
-0.46875
31
2.5015729682246
73
2
0
LINE
8
BRANCHE_INTERNO
10
0.9375
20
-0.46875
30
2.4356964481437338
11
1.40625
21
-0.46875
31
2.198632387417233
0
TEXT
8
BRANCHES-Index
10
1.171875
20
-0.46875
30
2.317164417780483
40
0.02
1
28
72
1
11
1.171875
21
-0.46875
31
2.317164417780483
73
2
0
LINE
8
BRANCHE_INTERNO
10
1.40625
20
-0.46875
30
2.198632387417233
11
1.875
21
-0.46875
31
1.8154609435347269
0
TEXT
8
BRANCHES-Index
10
1.640625
20
-0.46875
30
2.00704666547598
40
0.02
1
29
72
1
11
1.640625
21
-0.46875
31
2.00704666547598
73
2
0
LINE
8
BRANCHE_INTERNO
10
-1.875
20
0.0
30
1.8750000000000002
11
-1.40625
21
0.0
31
2.2480460265528377
0
TEXT
8
BRANCHES-Index
10
-1.640625
20
0.0
30
2.061523013276419
40
0.02
1
30
72
1
11
-1.640625
21
0.0
31
2.061523013276419
73
2
0
LINE
8
BRANCHE_INTERNO
10
-1.40625
20
0.0
30
2.2480460265528377
11
-0.9375
21
0.0
31
2.480391854123054
0
TEXT
8
BRANCHES-Index
10
-1.171875
20
0.0
30
2.364218940337946
40
0.02
1
31
72
1
11
-1.171875
21
0.0
31
2.364218940337946
73
2
0
LINE
8
BRANCHE_INTERNO
10
-0.9375
20
0.0
30
2.480391854123054
11
-0.46875
21
0.0
31
2.609889545076573
0
TEXT
8
BRANCHES-Index
10
-0.703125
20
0.0
30
2.5451406995998136
40
0.02
1
32
72
1
11
-0.703125
21
0.0
31
2.5451406995998136
73
2
0
LINE
8
BRANCHE_INTERNO
10
-0.46875
20
0.0
30
2.609889545076573
11
0.0
21
0.0
31
2.6516504294495533
0
TEXT
8
BRANCHES-Index
10
-0.234375
20
0.0
30
2.630769987263063
40
0.02
1
33
72
1
11
-0.234375
21
0.0
31
2.630769987263063
73
2
0
LINE
8
BRANCHE_INTERNO
10
0.0
20
0.0
30
2.6516504294495533
11
0.46875
21
0.0
31
2.609889545076573
0
TEXT
8
BRANCHES-Index
10
0.234375
20
0.0
30
2.630769987263063
40
0.02
1
34
72
1
11
0.234375
21
0.0
31
2.630769987263063
73
2
0
LINE
8
BRANCHE_INTERNO
10
0.46875
20
0.0
30
2.609889545076573
11
0.9375
21
0.0
31
2.480391854123054
0
TEXT
8
BRANCHES-Index
10
0.703125
20
0.0
30
2.5451406995998136
40
0.02
1
35
72
1
11
0.703125
21
0.0
31
2.5451406995998136
73
2
0
LINE
8
BRANCHE_INTERNO
10
0.9375
20
0.0
30
2.480391854123054
11
1.40625
21
0.0
31
2.2480460265528377
0
TEXT
8
BRANCHES-Index
10
1.171875
20
0.0
30
2.364218940337946
40
0.02
1
36
72
1
11
1.171875
21
0.0
31
2.364218940337946
73
2
0
LINE
8
BRANCHE_INTERNO
10
1.40625
20
0.0
30
2.2480460265528377
11
1.875
21
0.0
31
1.8750000000000002
0
TEXT
8
BRANCHES-Index
10
1.640625
20
0.0
30
2.061523013276419
40
0.02
1
37
72
1
11
1.640625
21
0.0
31
2.061523013276419
73
2
0
LINE
8
BRANCHE_INTERNO
10
-1.875
20
0.46875
30
1.8154609435347269
11
-1.40625
21
0.46875
31
2.198632387417233
0
TEXT
8
BRANCHES-Index
10
-1.640625
20
0.46875
30
2.00704666547598
40
0.02
1
38
72
1
11
-1.640625
21
0.46875
31
2.00704666547598
73
2
0
LINE
8
BRANCHE_INTERNO
10
-1.40625
20
0.46875
30
2.198632387417233
11
-0.9375
21
0.46875
31
2.4356964481437338
0
TEXT
8
BRANCHES-Index
10
-1.171875
20
0.46875
30
2.317164417780483
40
0.02
1
39
72
1
11
-1.171875
21
0.46875
31
2.317164417780483
73
2
0
LINE
8
BRANCHE_INTERNO
10
-0.9375
20
0.46875
30
2.4356964481437338
11
-0.46875
21
0.46875
31
2.567449488305466
0
TEXT
8
BRANCHES-Index
10
-0.703125
20
0.46875
30
2.5015729682246
40
0.02
1
40
72
1
11
-0.703125
21
0.46875
31
2.5015729682246
73
2
0
LINE
8
BRANCHE_INTERNO
10
-0.46875
20
0.46875
30
2.567449488305466
11
0.0
21
0.46875
31
2.609889545076573
0
TEXT
8
BRANCHES-Index
10
-0.234375
20
0.46875
30
2.5886695166910196
40
0.02
1
41
72
1
11
-0.234375
21
0.46875
31
2.5886695166910196
73
2
0
LINE
8
BRANCHE_INTERNO
10
0.0
20
0.46875
30
2.609889545076573
11
0.46875
21
0.46875
31
2.567449488305466
0
TEXT
8
BRANCHES-Index
10
0.234375
20
0.46875
30
2.5886695166910196
40
0.02
1
42
72
1
11
0.234375
21
0.46875
31
2.5886695166910196
73
2
0
LINE
8
BRANCHE_INTERNO
10
0.46875
20
0.46875
30
2.567449488305466
11
0.9375
21
0.46875
31
2.4356964481437338
0
TEXT
8
BRANCHES-Index
10
0.703125
20
0.46875
30
2.5015729682246
40
0.02
1
43
72
1
11
0.703125
21
0.46875
31
2.5015729682246
73
2
0
LINE
8
BRANCHE_INTERNO
10
0.9375
20
0.46875
30
2.4356964481437338
11
1.40625
21
0.46875
31
2.198632387417233
0
TEXT
8
BRANCHES-Index
10
1.171875
20
0.46875
30
2.317164417780483
40
0.02
1
44
72
1
11
1.171875
21
0.46875
31
2.317164417780483
73
2
0
LINE
8
BRANCHE_INTERNO
10
1.40625
20
0.46875
30
2.198632387417233
11
1.875
21
0.46875
31
1.8154609435347269
0
TEXT
8
BRANCHES-Index
10
1.640625
20
0.46875
30
2.00704666547598
40
0.02
1
45
72
1
11
1.640625
21
0.46875
31
2.00704666547598
73
2
0
LINE
8
BRANCHE_INTERNO
10
-1.875
20
0.9375
30
1.6237976320958227
11
-1.40625
21
0.9375
31
2.0432338797846907
0
TEXT
8
BRANCHES-Index
10
-1.640625
20
0.9375
30
1.8335157559402568
40
0.02
1
46
72
1
11
-1.640625
21
0.9375
31
1.8335157559402568
73
2
0
LINE
8
BRANCHE_INTERNO
10
-1.40625
20
0.9375
30
2.0432338797846907
11
-0.9375
21
0.9375
31
2.2963966338592297
0
TEXT
8
BRANCHES-Index
10
-1.171875
20
0.9375
30
2.16981525682196
40
0.02
1
47
72
1
11
-1.171875
21
0.9375
31
2.16981525682196
73
2
0
LINE
8
BRANCHE_INTERNO
10
-0.9375
20
0.9375
30
2.2963966338592297
11
-0.46875
21
0.9375
31
2.4356964481437338
0
TEXT
8
BRANCHES-Index
10
-0.703125
20
0.9375
30
2.3660465410014817
40
0.02
1
48
72
1
11
-0.703125
21
0.9375
31
2.3660465410014817
73
2
0
LINE
8
BRANCHE_INTERNO
10
-0.46875
20
0.9375
30
2.4356964481437338
11
0.0
21
0.9375
31
2.480391854123054
0
TEXT
8
BRANCHES-Index
10
-0.234375
20
0.9375
30
2.458044151133394
40
0.02
1
49
72
1
11
-0.234375
21
0.9375
31
2.458044151133394
73
2
0
LINE
8
BRANCHE_INTERNO
10
0.0
20
0.9375
30
2.480391854123054
11
0.46875
21
0.9375
31
2.4356964481437338
0
TEXT
8
BRANCHES-Index
10
0.234375
20
0.9375
30
2.458044151133394
40
0.02
1
50
72
1
11
0.234375
21
0.9375
31
2.458044151133394
73
2
0
LINE
8
BRANCHE_INTERNO
10
0.46875
20
0.9375
30
2.4356964481437338
11
0.9375
21
0.9375
31
2.2963966338592297
0
TEXT
8
BRANCHES-Index
10
0.703125
20
0.9375
30
2.3660465410014817
40
0.02
1
51
72
1
11
0.703125
21
0.9375
31
2.3660465410014817
73
2
0
LINE
8
BRANCHE_INTERNO
10
0.9375
20
0.9375
30
2.2963966338592297
11
1.40625
21
0.9375
31
2.0432338797846907
0
TEXT
8
BRANCHES-Index
10
1.171875
20
0.9375
30
2.16981525682196
40
0.02
1
52
72
1
11
1.171875
21
0.9375
31
2.16981525682196
73
2
0
LINE
8
BRANCHE_INTERNO
10
1.40625
20
0.9375
30
2.0432338797846907
11
1.875
21
0.9375
31
1.6237976320958227
0
TEXT
8
BRANCHES-Index
10
1.640625
20
0.9375
30
1.8335157559402568
40
0.02
1
53
72
1
11
1.640625
21
0.9375
31
1.8335157559402568
73
2
0
LINE
8
BRANCHE_INTERNO
10
-1.875
20
1.40625
30
1.2401959270615273
11
-1.40625
21
1.40625
31
1.7539019000502853
0
TEXT
8
BRANCHES-Index
10
-1.640625
20
1.40625
30
1.4970489135559064
40
0.02
1
54
72
1
11
-1.640625
21
1.40625
31
1.4970489135559064
73
2
0
LINE
8
BRANCHE_INTERNO
10
-1.40625
20
1.40625
30
1.7539019000502853
11
-0.9375
21
1.40625
31
2.0432338797846907
0
TEXT
8
BRANCHES-Index
10
-1.171875
20
1.40625
30
1.898567889917488
40
0.02
1
55
72
1
11
-1.171875
21
1.40625
31
1.898567889917488
73
2
0
LINE
8
BRANCHE_INTERNO
10
-0.9375
20
1.40625
30
2.0432338797846907
11
-0.46875
21
1.40625
31
2.198632387417233
0
TEXT
8
BRANCHES-Index
10
-0.703125
20
1.40625
30
2.120933133600962
40
0.02
1
56
72
1
11
-0.703125
21
1.40625
31
2.120933133600962
73
2
0
LINE
8
BRANCHE_INTERNO
10
-0.46875
20
1.40625
30
2.198632387417233
11
0.0
21
1.40625
31
2.2480460265528377
0
TEXT
8
BRANCHES-Index
10
-0.234375
20
1.40625
30
2.2233392069850355
40
0.02
1
57
72
1
11
-0.234375
21
1.40625
31
2.2233392069850355
73
2
0
LINE
8
BRANCHE_INTERNO
10
0.0
20
1.40625
30
2.2480460265528377
11
0.46875
21
1.40625
31
2.198632387417233
0
TEXT
8
BRANCHES-Index
10
0.234375
20
1.40625
30
2.2233392069850355
40
0.02
1
58
72
1
11
0.234375
21
1.40625
31
2.2233392069850355
73
2
0
LINE
8
BRANCHE_INTERNO
10
0.46875
20
1.40625
30
2.198632387417233
11
0.9375
21
1.40625
31
2.0432338797846907
0
TEXT
8
BRANCHES-Index
10
0.703125
20
1.40625
30
2.120933133600962
40
0.02
1
59
72
1
11
0.703125
21
1.40625
31
2.120933133600962
73
2
0
LINE
8
BRANCHE_INTERNO
10
0.9375
20
1.40625
30
2.0432338797846907
11
1.40625
21
1.40625
31
1.7539019000502853
0
TEXT
8
BRANCHES-Index
10
1.171875
20
1.40625
30
1.898567889917488
40
0.02
1
60
72
1
11
1.171875
21
1.40625
31
1.898567889917488
73
2
0
LINE
8
BRANCHE_INTERNO
10
1.40625
20
1.40625
30
1.7539019000502853
11
1.875
21
1.40625
31
1.2401959270615273
0
TEXT
8
BRANCHES-Index
10
1.640625
20
1.40625
30
1.4970489135559064
40
0.02
1
61
72
1
11
1.640625
21
1.40625
31
1.4970489135559064
73
2
0
LINE
8
BRANCHE_INTERNO
10
-1.40625
20
1.875
30
1.2401959270615273
11
-0.9375
21
1.875
31
1.6237976320958227
0
TEXT
8
BRANCHES-Index
10
-1.171875
20
1.875
30
1.431996779578675
40
0.02
1
62
72
1
11
-1.171875
21
1.875
31
1.431996779578675
73
2
0
LINE
8
BRANCHE_INTERNO
10
-0.9375
20
1.875
30
1.6237976320958227
11
-0.46875
21
1.875
31
1.8154609435347269
0
TEXT
8
BRANCHES-Index
10
-0.703125
20
1.875
30
1.7196292878152748
40
0.02
1
63
72
1
11
-0.703125
21
1.875
31
1.7196292878152748
73
2
0
LINE
8
BRANCHE_INTERNO
10
-0.46875
20
1.875
30
1.8154609435347269
11
0.0
21
1.875
31
1.8750000000000002
0
TEXT
8
BRANCHES-Index
10
-0.234375
20
1.875
30
1.8452304717673635
40
0.02
1
64
72
1
11
-0.234375
21
1.875
31
1.8452304717673635
73
2
0
LINE
8
BRANCHE_INTERNO
10
0.0
20
1.875
30
1.8750000000000002
11
0.46875
21
1.875
31
1.8154609435347269
0
TEXT
8
BRANCHES-Index
10
0.234375
20
1.875
30
1.8452304717673635
40
0.02
1
65
72
1
11
0.234375
21
1.875
31
1.8452304717673635
73
2
0
LINE
8
BRANCHE_INTERNO
10
0.46875
20
1.875
30
1.8154609435347269
11
0.9375
21
1.875
31
1.6237976320958227
0
TEXT
8
BRANCHES-Index
10
0.703125
20
1.875
30
1.7196292878152748
40
0.02
1
66
72
1
11
0.703125
21
1.875
31
1.7196292878152748
73
2
0
LINE
8
BRANCHE_INTERNO
10
0.9375
20
1.875
30
1.6237976320958227
11
1.40625
21
1.875
31
1.2401959270615273
0
TEXT
8
BRANCHES-Index
10
1.171875
20
1.875
30
1.431996779578675
40
0.02
1
67
72
1
11
1.171875
21
1.875
31
1.431996779578675
73
2
0
LINE
8
BRANCHE_INTERNO
10
-1.875
20
-1.40625
30
1.2401959270615273
11
-1.875
21
-0.9375
31
1.6237976320958227
0
TEXT
8
BRANCHES-Index
10
-1.875
20
-1.171875
30
1.431996779578675
40
0.02
1
68
72
1
11
-1.875
21
-1.171875
31
1.431996779578675
73
2
0
LINE
8
BRANCHE_INTERNO
10
-1.875
20
-0.9375
30
1.6237976320958227
11
-1.875
21
-0.46875
31
1.8154609435347269
0
TEXT
8
BRANCHES-Index
10
-1.875
20
-0.703125
30
1.7196292878152748
40
0.02
1
69
72
1
11
-1.875
21
-0.703125
31
1.7196292878152748
73
2
0
LINE
8
BRANCHE_INTERNO
10
-1.875
20
-0.46875
30
1.8154609435347269
11
-1.875
21
0.0
31
1.8750000000000002
0
TEXT
8
BRANCHES-Index
10
-1.875
20
-0.234375
30
1.8452304717673635
40
0.02
1
70
72
1
11
-1.875
21
-0.234375
31
1.8452304717673635
73
2
0
LINE
8
BRANCHE_INTERNO
10
-1.875
20
0.0
30
1.8750000000000002
11
-1.875
21
0.46875
31
1.8154609435347269
0
TEXT
8
BRANCHES-Index
10
-1.875
20
0.234375
30
1.8452304717673635
40
0.02
1
71
72
1
11
-1.875
21
0.234375
31
1.8452304717673635
73
2
0
LINE
8
BRANCHE_INTERNO
10
-1.875
20
0.46875
30
1.8154609435347269
11
-1.875
21
0.9375
31
1.6237976320958227
0
TEXT
8
BRANCHES-Index
10
-1.875
20
0.703125
30
1.7196292878152748
40
0.02
1
72
72
1
11
-1.875
21
0.703125
31
1.7196292878152748
73
2
0
LINE
8
BRANCHE_INTERNO
10
-1.875
20
0.9375
30
1.6237976320958227
11
-1.875
21
1.40625
31
1.2401959270615273
0
TEXT
8
BRANCHES-Index
10
-1.875
20
1.171875
30
1.431996779578675
40
0.02
1
73
72
1
11
-1.875
21
1.171875
31
1.431996779578675
73
2
0
LINE
8
BRANCHE_INTERNO
10
-1.40625
20
-1.875
30
1.2401959270615273
11
-1.40625
21
-1.40625
31
1.7539019000502853
0
TEXT
8
BRANCHES-Index
10
-1.40625
20
-1.640625
30
1.4970489135559064
40
0.02
1
74
72
1
11
-1.40625
21
-1.640625
31
1.4970489135559064
73
2
0
LINE
8
BRANCHE_INTERNO
10
-1.40625
20
-1.40625
30
1.7539019000502853
11
-1.40625
21
-0.9375
31
2.0432338797846907
0
TEXT
8
BRANCHES-Index
10
-1.40625
20
-1.171875
30
1.898567889917488
40
0.02
1
75
72
1
11
-1.40625
21
-1.171875
31
1.898567889917488
73
2
0
LINE
8
BRANCHE_INTERNO
10
-1.40625
20
-0.9375
30
2.0432338797846907
11
-1.40625
21
-0.46875
31
2.198632387417233
0
TEXT
8
BRANCHES-Index
10
-1.40625
20
-0.703125
30
2.120933133600962
40
0.02
1
76
72
1
11
-1.40625
21
-0.703125
31
2.120933133600962
73
2
0
LINE
8
BRANCHE_INTERNO
10
-1.40625
20
-0.46875
30
2.198632387417233
11
-1.40625
21
0.0
31
2.2480460265528377
0
TEXT
8
BRANCHES-Index
10
-1.40625
20
-0.234375
30
2.2233392069850355
40
0.02
1
77
72
1
11
-1.40625
21
-0.234375
31
2.2233392069850355
73
2
0
LINE
8
BRANCHE_INTERNO
10
-1.40625
20
0.0
30
2.2480460265528377
11
-1.40625
21
0.46875
31
2.198632387417233
0
TEXT
8
BRANCHES-Index
10
-1.40625
20
0.234375
30
2.2233392069850355
40
0.02
1
78
72
1
11
-1.40625
21
0.234375
31
2.2233392069850355
73
2
0
LINE
8
BRANCHE_INTERNO
10
-1.40625
20
0.46875
30
2.198632387417233
11
-1.40625
21
0.9375
31
2.0432338797846907
0
TEXT
8
BRANCHES-Index
10
-1.40625
20
0.703125
30
2.120933133600962
40
0.02
1
79
72
1
11
-1.40625
21
0.703125
31
2.120933133600962
73
2
0
LINE
8
BRANCHE_INTERNO
10
-1.40625
20
0.9375
30
2.0432338797846907
11
-1.40625
21
1.40625
31
1.7539019000502853
0
TEXT
8
BRANCHES-Index
10
-1.40625
20
1.171875
30
1.898567889917488
40
0.02
1
80
72
1
11
-1.40625
21
1.171875
31
1.898567889917488
73
2
0
LINE
8
BRANCHE_INTERNO
10
-1.40625
20
1.40625
30
1.7539019000502853
11
-1.40625
21
1.875
31
1.2401959270615273
0
TEXT
8
BRANCHES-Index
10
-1.40625
20
1.640625
30
1.4970489135559064
40
0.02
1
81
72
1
11
-1.40625
21
1.640625
31
1.4970489135559064
73
2
0
LINE
8
BRANCHE_INTERNO
10
-0.9375
20
-1.875
30
1.6237976320958227
11
-0.9375
21
-1.40625
31
2.0432338797846907
0
TEXT
8
BRANCHES-Index
10
-0.9375
20
-1.640625
30
1.8335157559402568
40
0.02
1
82
72
1
11
-0.9375
21
-1.640625
31
1.8335157559402568
73
2
0
LINE
8
BRANCHE_INTERNO
10
-0.9375
20
-1.40625
30
2.0432338797846907
11
-0.9375
21
-0.9375
31
2.2963966338592297
0
TEXT
8
BRANCHES-Index
10
-0.9375
20
-1.171875
30
2.16981525682196
40
0.02
1
83
72
1
11
-0.9375
21
-1.171875
31
2.16981525682196
73
2
0
LINE
8
BRANCHE_INTERNO
10
-0.9375
20
-0.9375
30
2.2963966338592297
11
-0.9375
21
-0.46875
31
2.4356964481437338
0
TEXT
8
BRANCHES-Index
10
-0.9375
20
-0.703125
30
2.3660465410014817
40
0.02
1
84
72
1
11
-0.9375
21
-0.703125
31
2.3660465410014817
73
2
0
LINE
8
BRANCHE_INTERNO
10
-0.9375
20
-0.46875
30
2.4356964481437338
11
-0.9375
21
0.0
31
2.480391854123054
0
TEXT
8
BRANCHES-Index
10
-0.9375
20
-0.234375
30
2.458044151133394
40
0.02
1
85
72
1
11
-0.9375
21
-0.234375
31
2.458044151133394
73
2
0
LINE
8
BRANCHE_INTERNO
10
-0.9375
20
0.0
30
2.480391854123054
11
-0.9375
21
0.46875
31
2.4356964481437338
0
TEXT
8
BRANCHES-Index
10
-0.9375
20
0.234375
30
2.458044151133394
40
0.02
1
86
72
1
11
-0.9375
21
0.234375
31
2.458044151133394
73
2
0
LINE
8
BRANCHE_INTERNO
10
-0.9375
20
0.46875
30
2.4356964481437338
11
-0.9375
21
0.9375
31
2.2963966338592297
0
TEXT
8
BRANCHES-Index
10
-0.9375
20
0.703125
30
2.3660465410014817
40
0.02
1
87
72
1
11
-0.9375
21
0.703125
31
2.3660465410014817
73
2
0
LINE
8
BRANCHE_INTERNO
10
-0.9375
20
0.9375
30
2.2963966338592297
11
-0.9375
21
1.40625
31
2.0432338797846907
0
TEXT
8
BRANCHES-Index
10
-0.9375
20
1.171875
30
2.16981525682196
40
0.02
1
88
72
1
11
-0.9375
21
1.171875
31
2.16981525682196
73
2
0
LINE
8
BRANCHE_INTERNO
10
-0.9375
20
1.40625
30
2.0432338797846907
11
-0.9375
21
1.875
31
1.6237976320958227
0
TEXT
8
BRANCHES-Index
10
-0.9375
20
1.640625
30
1.8335157559402568
40
0.02
1
89
72
1
11
-0.9375
21
1.640625
31
1.8335157559402568
73
2
0
LINE
8
BRANCHE_INTERNO
10
-0.46875
20
-1.875
30
1.8154609435347269
11
-0.46875
21
-1.40625
31
2.198632387417233
0
TEXT
8
BRANCHES-Index
10
-0.46875
20
-1.640625
30
2.00704666547598
40
0.02
1
90
72
1
11
-0.46875
21
-1.640625
31
2.00704666547598
73
2
0
LINE
8
BRANCHE_INTERNO
10
-0.46875
20
-1.40625
30
2.198632387417233
11
-0.46875
21
-0.9375
31
2.4356964481437338
0
TEXT
8
BRANCHES-Index
10
-0.46875
20
-1.171875
30
2.317164417780483
40
0.02
1
91
72
1
11
-0.46875
21
-1.171875
31
2.317164417780483
73
2
0
LINE
8
BRANCHE_INTERNO
10
-0.46875
20
-0.9375
30
2.4356964481437338
11
-0.46875
21
-0.46875
31
2.567449488305466
0
TEXT
8
BRANCHES-Index
10
-0.46875
20
-0.703125
30
2.5015729682246
40
0.02
1
92
72
1
11
-0.46875
21
-0.703125
31
2.5015729682246
73
2
0
LINE
8
BRANCHE_INTERNO
10
-0.46875
20
-0.46875
30
2.567449488305466
11
-0.46875
21
0.0
31
2.609889545076573
0
TEXT
8
BRANCHES-Index
10
-0.46875
20
-0.234375
30
2.5886695166910196
40
0.02
1
93
72
1
11
-0.46875
21
-0.234375
31
2.5886695166910196
73
2
0
LINE
8
BRANCHE_INTERNO
10
-0.46875
20
0.0
30
2.609889545076573
11
-0.46875
21
0.46875
31
2.567449488305466
0
TEXT
8
BRANCHES-Index
10
-0.46875
20
0.234375
30
2.5886695166910196
40
0.02
1
94
72
1
11
-0.46875
21
0.234375
31
2.5886695166910196
73
2
0
LINE
8
BRANCHE_INTERNO
10
-0.46875
20
0.46875
30
2.567449488305466
11
-0.46875
21
0.9375
31
2.4356964481437338
0
TEXT
8
BRANCHES-Index
10
-0.46875
20
0.703125
30
2.5015729682246
40
0.02
1
95
72
1
11
-0.46875
21
0.703125
31
2.5015729682246
73
2
0
LINE
8
BRANCHE_INTERNO
10
-0.46875
20
0.9375
30
2.4356964481437338
11
-0.46875
21
1.40625
31
2.198632387417233
0
TEXT
8
BRANCHES-Index
10
-0.46875
20
1.171875
30
2.317164417780483
40
0.02
1
96
72
1
11
-0.46875
21
1.171875
31
2.317164417780483
73
2
0
LINE
8
BRANCHE_INTERNO
10
-0.46875
20
1.40625
30
2.198632387417233
11
-0.46875
21
1.875
31
1.8154609435347269
0
TEXT
8
BRANCHES-Index
10
-0.46875
20
1.640625
30
2.00704666547598
40
0.02
1
97
72
1
11
-0.46875
21
1.640625
31
2.00704666547598
73
2
0
LINE
8
BRANCHE_INTERNO
10
0.0
20
-1.875
30
1.8750000000000002
11
0.0
21
-1.40625
31
2.2480460265528377
0
TEXT
8
BRANCHES-Index
10
0.0
20
-1.640625
30
2.061523013276419
40
0.02
1
98
72
1
11
0.0
21
-1.640625
31
2.061523013276419
73
2
0
LINE
8
BRANCHE_INTERNO
10
0.0
20
-1.40625
30
2.2480460265528377
11
0.0
21
-0.9375
31
2.480391854123054
0
TEXT
8
BRANCHES-Index
10
0.0
20
-1.171875
30
2.364218940337946
40
0.02
1
99
72
1
11
0.0
21
-1.171875
31
2.364218940337946
73
2
0
LINE
8
BRANCHE_INTERNO
10
0.0
20
-0.9375
30
2.480391854123054
11
0.0
21
-0.46875
31
2.609889545076573
0
TEXT
8
BRANCHES-Index
10
0.0
20
-0.703125
30
2.5451406995998136
40
0.02
1
100
72
1
11
0.0
21
-0.703125
31
2.5451406995998136
73
2
0
LINE
8
BRANCHE_INTERNO
10
0.0
20
-0.46875
30
2.609889545076573
11
0.0
21
0.0
31
2.6516504294495533
0
TEXT
8
BRANCHES-Index
10
0.0
20
-0.234375
30
2.630769987263063
40
0.02
1
101
72
1
11
0.0
21
-0.234375
31
2.630769987263063
73
2
0
LINE
8
BRANCHE_INTERNO
10
0.0
20
0.0
30
2.6516504294495533
11
0.0
21
0.46875
31
2.609889545076573
0
TEXT
8
BRANCHES-Index
10
0.0
20
0.234375
30
2.630769987263063
40
0.02
1
102
72
1
11
0.0
21
0.234375
31
2.630769987263063
73
2
0
LINE
8
BRANCHE_INTERNO
10
0.0
20
0.46875
30
2.609889545076573
11
0.0
21
0.9375
31
2.480391854123054
0
TEXT
8
BRANCHES-Index
10
0.0
20
0.703125
30
2.5451406995998136
40
0.02
1
103
72
1
11
0.0
21
0.703125
31
2.5451406995998136
73
2
0
LINE
8
BRANCHE_INTERNO
10
0.0
20
0.9375
30
2.480391854123054
11
0.0
21
1.40625
31
2.2480460265528377
0
TEXT
8
BRANCHES-Index
10
0.0
20
1.171875
30
2.364218940337946
40
0.02
1
104
72
1
11
0.0
21
1.171875
31
2.364218940337946
73
2
0
LINE
8
BRANCHE_INTERNO
10
0.0
20
1.40625
30
2.2480460265528377
11
0.0
21
1.875
31
1.8750000000000002
0
TEXT
8
BRANCHES-Index
10
0.0
20
1.640625
30
2.061523013276419
40
0.02
1
105
72
1
11
0.0
21
1.640625
31
2.061523013276419
73
2
0
LINE
8
BRANCHE_INTERNO
10
0.46875
20
-1.875
30
1.8154609435347269
11
0.46875
21
-1.40625
31
2.198632387417233
0
TEXT
8
BRANCHES-Index
10
0.46875
20
-1.640625
30
2.00704666547598
40
0.02
1
106
72
1
11
0.46875
21
-1.640625
31
2.00704666547598
73
2
0
LINE
8
BRANCHE_INTERNO
10
0.46875
20
-1.40625
30
2.198632387417233
11
0.46875
21
-0.9375
31
2.4356964481437338
0
TEXT
8
BRANCHES-Index
10
0.46875
20
-1.171875
30
2.317164417780483
40
0.02
1
107
72
1
11
0.46875
21
-1.171875
31
2.317164417780483
73
2
0
LINE
8
BRANCHE_INTERNO
10
0.46875
20
-0.9375
30
2.4356964481437338
11
0.46875
21
-0.46875
31
2.567449488305466
0
TEXT
8
BRANCHES-Index
10
0.46875
20
-0.703125
30
2.5015729682246
40
0.02
1
108
72
1
11
0.46875
21
-0.703125
31
2.5015729682246
73
2
0
LINE
8
BRANCHE_INTERNO
10
0.46875
20
-0.46875
30
2.567449488305466
11
0.46875
21
0.0
31
2.609889545076573
0
TEXT
8
BRANCHES-Index
10
0.46875
20
-0.234375
30
2.5886695166910196
40
0.02
1
109
72
1
11
0.46875
21
-0.234375
31
2.5886695166910196
73
2
0
LINE
8
BRANCHE_INTERNO
10
0.46875
20
0.0
30
2.609889545076573
11
0.46875
21
0.46875
31
2.567449488305466
0
TEXT
8
BRANCHES-Index
10
0.46875
20
0.234375
30
2.5886695166910196
40
0.02
1
110
72
1
11
0.46875
21
0.234375
31
2.5886695166910196
73
2
0
LINE
8
BRANCHE_INTERNO
10
0.46875
20
0.46875
30
2.567449488305466
11
0.46875
21
0.9375
31
2.4356964481437338
0
TEXT
8
BRANCHES-Index
10
0.46875
20
0.703125
30
2.5015729682246
40
0.02
1
111
72
1
11
0.46875
21
0.703125
31
2.5015729682246
73
2
0
LINE
8
BRANCHE_INTERNO
10
0.46875
20
0.9375
30
2.4356964481437338
11
0.46875
21
1.40625
31
2.198632387417233
0
TEXT
8
BRANCHES-Index
10
0.46875
20
1.171875
30
2.317164417780483
40
0.02
1
112
72
1
11
0.46875
21
1.171875
31
2.317164417780483
73
2
0
LINE
8
BRANCHE_INTERNO
10
0.46875
20
1.40625
30
2.198632387417233
11
0.46875
21
1.875
31
1.8154609435347269
0
TEXT
8
BRANCHES-Index
10
0.46875
20
1.640625
30
2.00704666547598
40
0.02
1
113
72
1
11
0.46875
21
1.640625
31
2.00704666547598
73
2
0
LINE
8
BRANCHE_INTERNO
10
0.9375
20
-1.875
30
1.6237976320958227
11
0.9375
21
-1.40625
31
2.0432338797846907
0
TEXT
8
BRANCHES-Index
10
0.9375
20
-1.640625
30
1.8335157559402568
40
0.02
1
114
72
1
11
0.9375
21
-1.640625
31
1.8335157559402568
73
2
0
LINE
8
BRANCHE_INTERNO
10
0.9375
20
-1.40625
30
2.0432338797846907
11
0.9375
21
-0.9375
31
2.2963966338592297
0
TEXT
8
BRANCHES-Index
10
0.9375
20
-1.171875
30
2.16981525682196
40
0.02
1
115
72
1
11
0.9375
21
-1.171875
31
2.16981525682196
73
2
0
LINE
8
BRANCHE_INTERNO
10
0.9375
20
-0.9375
30
2.2963966338592297
11
0.9375
21
-0.46875
31
2.4356964481437338
0
TEXT
8
BRANCHES-Index
10
0.9375
20
-0.703125
30
2.3660465410014817
40
0.02
1
116
72
1
11
0.9375
21
-0.703125
31
2.3660465410014817
73
2
0
LINE
8
BRANCHE_INTERNO
10
0.9375
20
-0.46875
30
2.4356964481437338
11
0.9375
21
0.0
31
2.480391854123054
0
TEXT
8
BRANCHES-Index
10
0.9375
20
-0.234375
30
2.458044151133394
40
0.02
1
117
72
1
11
0.9375
21
-0.234375
31
2.458044151133394
73
2
0
LINE
8
BRANCHE_INTERNO
10
0.9375
20
0.0
30
2.480391854123054
11
0.9375
21
0.46875
31
2.4356964481437338
0
TEXT
8
BRANCHES-Index
10
0.9375
20
0.234375
30
2.458044151133394
40
0.02
1
118
72
1
11
0.9375
21
0.234375
31
2.458044151133394
73
2
0
LINE
8
BRANCHE_INTERNO
10
0.9375
20
0.46875
30
2.4356964481437338
11
0.9375
21
0.9375
31
2.2963966338592297
0
TEXT
8
BRANCHES-Index
10
0.9375
20
0.703125
30
2.3660465410014817
40
0.02
1
119
72
1
11
0.9375
21
0.703125
31
2.3660465410014817
73
2
0
LINE
8
BRANCHE_INTERNO
10
0.9375
20
0.9375
30
2.2963966338592297
11
0.9375
21
1.40625
31
2.0432338797846907
0
TEXT
8
BRANCHES-Index
10
0.9375
20
1.171875
30
2.16981525682196
40
0.02
1
120
72
1
11
0.9375
21
1.171875
31
2.16981525682196
73
2
0
LINE
8
BRANCHE_INTERNO
10
0.9375
20
1.40625
30
2.0432338797846907
11
0.9375
21
1.875
31
1.6237976320958227
0
TEXT
8
BRANCHES-Index
10
0.9375
20
1.640625
30
1.8335157559402568
40
0.02
1
121
72
1
11
0.9375
21
1.640625
31
1.8335157559402568
73
2
0
LINE
8
BRANCHE_INTERNO
10
1.40625
20
-1.875
30
1.2401959270615273
11
1.40625
21
-1.40625
31
1.7539019000502853
0
TEXT
8
BRANCHES-Index
10
1.40625
20
-1.640625
30
1.4970489135559064
40
0.02
1
122
72
1
11
1.40625
21
-1.640625
31
1.4970489135559064
73
2
0
LINE
8
BRANCHE_INTERNO
10
1.40625
20
-1.40625
30
1.7539019000502853
11
1.40625
21
-0.9375
31
2.0432338797846907
0
TEXT
8
BRANCHES-Index
10
1.40625
20
-1.171875
30
1.898567889917488
40
0.02
1
123
72
1
11
1.40625
21
-1.171875
31
1.898567889917488
73
2
0
LINE
8
BRANCHE_INTERNO
10
1.40625
20
-0.9375
30
2.0432338797846907
11
1.40625
21
-0.46875
31
2.198632387417233
0
TEXT
8
BRANCHES-Index
10
1.40625
20
-0.703125
30
2.120933133600962
40
0.02
1
124
72
1
11
1.40625
21
-0.703125
31
2.120933133600962
73
2
0
LINE
8
BRANCHE_INTERNO
10
1.40625
20
-0.46875
30
2.198632387417233
11
1.40625
21
0.0
31
2.2480460265528377
0
TEXT
8
BRANCHES-Index
10
1.40625
20
-0.234375
30
2.2233392069850355
40
0.02
1
125
72
1
11
1.40625
21
-0.234375
31
2.2233392069850355
73
2
0
LINE
8
BRANCHE_INTERNO
10
1.40625
20
0.0
30
2.2480460265528377
11
1.40625
21
0.46875
31
2.198632387417233
0
TEXT
8
BRANCHES-Index
10
1.40625
20
0.234375
30
2.2233392069850355
40
0.02
1
126
72
1
11
1.40625
21
0.234375
31
2.2233392069850355
73
2
0
LINE
8
BRANCHE_INTERNO
10
1.40625
20
0.46875
30
2.198632387417233
11
1.40625
21
0.9375
31
2.0432338797846907
0
TEXT
8
BRANCHES-Index
10
1.40625
20
0.703125
30
2.120933133600962
40
0.02
1
127
72
1
11
1.40625
21
0.703125
31
2.120933133600962
73
2
0
LINE
8
BRANCHE_INTERNO
10
1.40625
20
0.9375
30
2.0432338797846907
11
1.40625
21
1.40625
31
1.7539019000502853
0
TEXT
8
BRANCHES-Index
10
1.40625
20
1.171875
30
1.898567889917488
40
0.02
1
128
72
1
11
1.40625
21
1.171875
31
1.898567889917488
73
2
0
LINE
8
BRANCHE_INTERNO
10
1.40625
20
1.40625
30
1.7539019000502853
11
1.40625
21
1.875
31
1.2401959270615273
0
TEXT
8
BRANCHES-Index
10
1.40625
20
1.640625
30
1.4970489135559064
40
0.02
1
129
72
1
11
1.40625
21
1.640625
31
1.4970489135559064
73
2
0
LINE
8
BRANCHE_INTERNO
10
1.875
20
-1.40625
30
1.2401959270615273
11
1.875
21
-0.9375
31
1.6237976320958227
0
TEXT
8
BRANCHES-Index
10
1.875
20
-1.171875
30
1.431996779578675
40
0.02
1
130
72
1
11
1.875
21
-1.171875
31
1.431996779578675
73
2
0
LINE
8
BRANCHE_INTERNO
10
1.875
20
-0.9375
30
1.6237976320958227
11
1.875
21
-0.46875
31
1.8154609435347269
0
TEXT
8
BRANCHES-Index
10
1.875
20
-0.703125
30
1.7196292878152748
40
0.02
1
131
72
1
11
1.875
21
-0.703125
31
1.7196292878152748
73
2
0
LINE
8
BRANCHE_INTERNO
10
1.875
20
-0.46875
30
1.8154609435347269
11
1.875
21
0.0
31
1.8750000000000002
0
TEXT
8
BRANCHES-Index
10
1.875
20
-0.234375
30
1.8452304717673635
40
0.02
1
132
72
1
11
1.875
21
-0.234375
31
1.8452304717673635
73
2
0
LINE
8
BRANCHE_INTERNO
10
1.875
20
0.0
30
1.8750000000000002
11
1.875
21
0.46875
31
1.8154609435347269
0
TEXT
8
BRANCHES-Index
10
1.875
20
0.234375
30
1.8452304717673635
40
0.02
1
133
72
1
11
1.875
21
0.234375
31
1.8452304717673635
73
2
0
LINE
8
BRANCHE_INTERNO
10
1.875
20
0.46875
30
1.8154609435347269
11
1.875
21
0.9375
31
1.6237976320958227
0
TEXT
8
BRANCHES-Index
10
1.875
20
0.703125
30
1.7196292878152748
40
0.02
1
134
72
1
11
1.875
21
0.703125
31
1.7196292878152748
73
2
0
LINE
8
BRANCHE_INTERNO
10
1.875
20
0.9375
30
1.6237976320958227
11
1.875
21
1.40625
31
1.2401959270615273
0
TEXT
8
BRANCHES-Index
10
1.875
20
1.171875
30
1.431996779578675
40
0.02
1
135
72
1
11
1.875
21
1.171875
31
1.431996779578675
73
2
0
LINE
8
BRANCHE_INTERNO
10
-1.875
20
-1.875
30
2.9802322387695312e-08
11
-1.7578125
21
-1.7578125
31
0.9227352977357596
0
TEXT
8
BRANCHES-Index
10
-1.81640625
20
-1.81640625
30
0.461367663769041
40
0.02
1
136
72
1
11
-1.81640625
21
-1.81640625
31
0.461367663769041
73
2
0
LINE
8
BRANCHE_INTERNO
10
-1.7578125
20
-1.7578125
30
0.9227352977357596
11
-1.640625
21
-1.640625
31
1.2837247441527335
0
TEXT
8
BRANCHES-Index
10
-1.69921875
20
-1.69921875
30
1.1032300209442465
40
0.02
1
137
72
1
11
-1.69921875
21
-1.69921875
31
1.1032300209442465
73
2
0
LINE
8
BRANCHE_INTERNO
10
-1.640625
20
-1.640625
30
1.2837247441527335
11
-1.40625
21
-1.40625
31
1.7539019000502853
0
TEXT
8
BRANCHES-Index
10
-1.5234375
20
-1.5234375
30
1.5188133221015094
40
0.02
1
138
72
1
11
-1.5234375
21
-1.5234375
31
1.5188133221015094
73
2
0
LINE
8
BRANCHE_INTERNO
10
-1.40625
20
-1.40625
30
1.7539019000502853
11
-0.9375
21
-0.9375
31
2.2963966338592297
0
TEXT
8
BRANCHES-Index
10
-1.171875
20
-1.171875
30
2.0251492669547577
40
0.02
1
139
72
1
11
-1.171875
21
-1.171875
31
2.0251492669547577
73
2
0
LINE
8
BRANCHE_INTERNO
10
-0.9375
20
-0.9375
30
2.2963966338592297
11
-0.46875
21
-0.46875
31
2.567449488305466
0
TEXT
8
BRANCHES-Index
10
-0.703125
20
-0.703125
30
2.431923061082348
40
0.02
1
140
72
1
11
-0.703125
21
-0.703125
31
2.431923061082348
73
2
0
LINE
8
BRANCHE_INTERNO
10
-0.46875
20
-0.46875
30
2.567449488305466
11
0.0
21
0.0
31
2.6516504294495533
0
TEXT
8
BRANCHES-Index
10
-0.234375
20
-0.234375
30
2.6095499588775097
40
0.02
1
141
72
1
11
-0.234375
21
-0.234375
31
2.6095499588775097
73
2
0
LINE
8
BRANCHE_INTERNO
10
0.0
20
0.0
30
2.6516504294495533
11
0.46875
21
0.46875
31
2.567449488305466
0
TEXT
8
BRANCHES-Index
10
0.234375
20
0.234375
30
2.6095499588775097
40
0.02
1
142
72
1
11
0.234375
21
0.234375
31
2.6095499588775097
73
2
0
LINE
8
BRANCHE_INTERNO
10
0.46875
20
0.46875
30
2.567449488305466
11
0.9375
21
0.9375
31
2.2963966338592297
0
TEXT
8
BRANCHES-Index
10
0.703125
20
0.703125
30
2.431923061082348
40
0.02
1
143
72
1
11
0.703125
21
0.703125
31
2.431923061082348
73
2
0
LINE
8
BRANCHE_INTERNO
10
0.9375
20
0.9375
30
2.2963966338592297
11
1.40625
21
1.40625
31
1.7539019000502853
0
TEXT
8
BRANCHES-Index
10
1.171875
20
1.171875
30
2.0251492669547577
40
0.02
1
144
72
1
11
1.171875
21
1.171875
31
2.0251492669547577
73
2
0
LINE
8
BRANCHE_INTERNO
10
1.40625
20
1.40625
30
1.7539019000502853
11
1.640625
21
1.640625
31
1.2837247441527335
0
TEXT
8
BRANCHES-Index
10
1.5234375
20
1.5234375
30
1.5188133221015094
40
0.02
1
145
72
1
11
1.5234375
21
1.5234375
31
1.5188133221015094
73
2
0
LINE
8
BRANCHE_INTERNO
10
1.640625
20
1.640625
30
1.2837247441527335
11
1.7578125
21
1.7578125
31
0.9227352977357596
0
TEXT
8
BRANCHES-Index
10
1.69921875
20
1.69921875
30
1.1032300209442465
40
0.02
1
146
72
1
11
1.69921875
21
1.69921875
31
1.1032300209442465
73
2
0
LINE
8
BRANCHE_INTERNO
10
1.7578125
20
1.7578125
30
0.9227352977357596
11
1.875
21
1.875
31
2.9802322387695312e-08
0
TEXT
8
BRANCHES-Index
10
1.81640625
20
1.81640625
30
0.461367663769041
40
0.02
1
147
72
1
11
1.81640625
21
1.81640625
31
0.461367663769041
73
2
0
LINE
8
BRANCHE_INTERNO
10
1.875
20
-1.875
30
2.9802322387695312e-08
11
1.7578125
21
-1.7578125
31
0.9227352977357596
0
TEXT
8
BRANCHES-Index
10
1.81640625
20
-1.81640625
30
0.461367663769041
40
0.02
1
148
72
1
11
1.81640625
21
-1.81640625
31
0.461367663769041
73
2
0
LINE
8
BRANCHE_INTERNO
10
1.7578125
20
-1.7578125
30
0.9227352977357596
11
1.640625
21
-1.640625
31
1.2837247441527335
0
TEXT
8
BRANCHES-Index
10
1.69921875
20
-1.69921875
30
1.1032300209442465
40
0.02
1
149
72
1
11
1.69921875
21
-1.69921875
31
1.1032300209442465
73
2
0
LINE
8
BRANCHE_INTERNO
10
1.640625
20
-1.640625
30
1.2837247441527335
11
1.40625
21
-1.40625
31
1.7539019000502853
0
TEXT
8
BRANCHES-Index
10
1.5234375
20
-1.5234375
30
1.5188133221015094
40
0.02
1
150
72
1
11
1.5234375
21
-1.5234375
31
1.5188133221015094
73
2
0
LINE
8
BRANCHE_INTERNO
10
1.40625
20
-1.40625
30
1.7539019000502853
11
0.9375
21
-0.9375
31
2.2963966338592297
0
TEXT
8
BRANCHES-Index
10
1.171875
20
-1.171875
30
2.0251492669547577
40
0.02
1
151
72
1
11
1.171875
21
-1.171875
31
2.0251492669547577
73
2
0
LINE
8
BRANCHE_INTERNO
10
0.9375
20
-0.9375
30
2.2963966338592297
11
0.46875
21
-0.46875
31
2.567449488305466
0
TEXT
8
BRANCHES-Index
10
0.703125
20
-0.703125
30
2.431923061082348
40
0.02
1
152
72
1
11
0.703125
21
-0.703125
31
2.431923061082348
73
2
0
LINE
8
BRANCHE_INTERNO
10
0.46875
20
-0.46875
30
2.567449488305466
11
0.0
21
0.0
31
2.6516504294495533
0
TEXT
8
BRANCHES-Index
10
0.234375
20
-0.234375
30
2.6095499588775097
40
0.02
1
153
72
1
11
0.234375
21
-0.234375
31
2.6095499588775097
73
2
0
LINE
8
BRANCHE_INTERNO
10
0.0
20
0.0
30
2.6516504294495533
11
-0.46875
21
0.46875
31
2.567449488305466
0
TEXT
8
BRANCHES-Index
10
-0.234375
20
0.234375
30
2.6095499588775097
40
0.02
1
154
72
1
11
-0.234375
21
0.234375
31
2.6095499588775097
73
2
0
LINE
8
BRANCHE_INTERNO
10
-0.46875
20
0.46875
30
2.567449488305466
11
-0.9375
21
0.9375
31
2.2963966338592297
0
TEXT
8
BRANCHES-Index
10
-0.703125
20
0.703125
30
2.431923061082348
40
0.02
1
155
72
1
11
-0.703125
21
0.703125
31
2.431923061082348
73
2
0
LINE
8
BRANCHE_INTERNO
10
-0.9375
20
0.9375
30
2.2963966338592297
11
-1.40625
21
1.40625
31
1.7539019000502853
0
TEXT
8
BRANCHES-Index
10
-1.171875
20
1.171875
30
2.0251492669547577
40
0.02
1
156
72
1
11
-1.171875
21
1.171875
31
2.0251492669547577
73
2
0
LINE
8
BRANCHE_INTERNO
10
-1.40625
20
1.40625
30
1.7539019000502853
11
-1.640625
21
1.640625
31
1.2837247441527335
0
TEXT
8
BRANCHES-Index
10
-1.5234375
20
1.5234375
30
1.5188133221015094
40
0.02
1
157
72
1
11
-1.5234375
21
1.5234375
31
1.5188133221015094
73
2
0
LINE
8
BRANCHE_INTERNO
10
-1.640625
20
1.640625
30
1.2837247441527335
11
-1.7578125
21
1.7578125
31
0.9227352977357596
0
TEXT
8
BRANCHES-Index
10
-1.69921875
20
1.69921875
30
1.1032300209442465
40
0.02
1
158
72
1
11
-1.69921875
21
1.69921875
31
1.1032300209442465
73
2
0
LINE
8
BRANCHE_INTERNO
10
-1.7578125
20
1.7578125
30
0.9227352977357596
11
-1.875
21
1.875
31
2.9802322387695312e-08
0
TEXT
8
BRANCHES-Index
10
-1.81640625
20
1.81640625
30
0.461367663769041
40
0.02
1
159
72
1
11
-1.81640625
21
1.81640625
31
0.461367663769041
73
2
0
3DFACE
8
Faces
10
-1.40625
20
-1.875
30
1.2401959270615273
11
-0.9375
21
-1.875
31
1.6237976320958227
12
-0.9375
22
-1.40625
32
2.0432338797846907
13
-1.40625
23
-1.40625
33
1.7539019000502853
0
TEXT
8
Faces-Index
10
-1.171875
20
-1.640625
30
1.6652823347480816
40
0.002
1
0
72
1
11
-1.171875
21
-1.640625
31
1.6652823347480816
73
2
0
3DFACE
8
EstradossoFaces
10
-1.40625
20
-1.875
30
1.7941784178753606
11
-0.9375
21
-1.875
31
2.0779097688951107
12
-0.9375
22
-1.40625
32
2.4198749854423744
13
-1.40625
23
-1.40625
33
2.1810919587834285
0
3DFACE
8
Faces
10
-0.9375
20
-1.875
30
1.6237976320958227
11
-0.46875
21
-1.875
31
1.8154609435347269
12
-0.46875
22
-1.40625
32
2.198632387417233
13
-0.9375
23
-1.40625
33
2.0432338797846907
0
TEXT
8
Faces-Index
10
-0.703125
20
-1.640625
30
1.9202812107081182
40
0.002
1
1
72
1
11
-0.703125
21
-1.640625
31
1.9202812107081182
73
2
0
3DFACE
8
EstradossoFaces
10
-0.9375
20
-1.875
30
2.0779097688951107
11
-0.46875
21
-1.875
31
2.2308941470114023
12
-0.46875
22
-1.40625
32
2.5524448344028383
13
-0.9375
23
-1.40625
33
2.4198749854423744
0
3DFACE
8
Faces
10
-0.46875
20
-1.875
30
1.8154609435347269
11
0.0
21
-1.875
31
1.8750000000000002
12
0.0
22
-1.40625
32
2.2480460265528377
13
-0.46875
23
-1.40625
33
2.198632387417233
0
TEXT
8
Faces-Index
10
-0.234375
20
-1.640625
30
2.034284839376199
40
0.002
1
2
72
1
11
-0.234375
21
-1.640625
31
2.034284839376199
73
2
0
3DFACE
8
EstradossoFaces
10
-0.46875
20
-1.875
30
2.2308941470114023
11
0.0
21
-1.875
31
2.279608575538733
12
0.0
22
-1.40625
32
2.5951302848161077
13
-0.46875
23
-1.40625
33
2.5524448344028383
0
3DFACE
8
Faces
10
0.0
20
-1.875
30
1.8750000000000002
11
0.46875
21
-1.875
31
1.8154609435347269
12
0.46875
22
-1.40625
32
2.198632387417233
13
0.0
23
-1.40625
33
2.2480460265528377
0
TEXT
8
Faces-Index
10
0.234375
20
-1.640625
30
2.034284839376199
40
0.002
1
3
72
1
11
0.234375
21
-1.640625
31
2.034284839376199
73
2
0
3DFACE
8
EstradossoFaces
10
0.0
20
-1.875
30
2.279608575538733
11
0.46875
21
-1.875
31
2.2308941470114023
12
0.46875
22
-1.40625
32
2.5524448344028383
13
0.0
23
-1.40625
33
2.5951302848161077
0
3DFACE
8
Faces
10
0.46875
20
-1.875
30
1.8154609435347269
11
0.9375
21
-1.875
31
1.6237976320958227
12
0.9375
22
-1.40625
32
2.0432338797846907
13
0.46875
23
-1.40625
33
2.198632387417233
0
TEXT
8
Faces-Index
10
0.703125
20
-1.640625
30
1.9202812107081182
40
0.002
1
4
72
1
11
0.703125
21
-1.640625
31
1.9202812107081182
73
2
0
3DFACE
8
EstradossoFaces
10
0.46875
20
-1.875
30
2.2308941470114023
11
0.9375
21
-1.875
31
2.0779097688951107
12
0.9375
22
-1.40625
32
2.4198749854423744
13
0.46875
23
-1.40625
33
2.5524448344028383
0
3DFACE
8
Faces
10
0.9375
20
-1.875
30
1.6237976320958227
11
1.40625
21
-1.875
31
1.2401959270615273
12
1.40625
22
-1.40625
32
1.7539019000502853
13
0.9375
23
-1.40625
33
2.0432338797846907
0
TEXT
8
Faces-Index
10
1.171875
20
-1.640625
30
1.6652823347480816
40
0.002
1
5
72
1
11
1.171875
21
-1.640625
31
1.6652823347480816
73
2
0
3DFACE
8
EstradossoFaces
10
0.9375
20
-1.875
30
2.0779097688951107
11
1.40625
21
-1.875
31
1.7941784178753606
12
1.40625
22
-1.40625
32
2.1810919587834285
13
0.9375
23
-1.40625
33
2.4198749854423744
0
3DFACE
8
Faces
10
-1.875
20
-1.40625
30
1.2401959270615273
11
-1.40625
21
-1.40625
31
1.7539019000502853
12
-1.40625
22
-0.9375
32
2.0432338797846907
13
-1.875
23
-0.9375
33
1.6237976320958227
0
TEXT
8
Faces-Index
10
-1.640625
20
-1.171875
30
1.6652823347480816
40
0.002
1
6
72
1
11
-1.640625
21
-1.171875
31
1.6652823347480816
73
2
0
3DFACE
8
EstradossoFaces
10
-1.875
20
-1.40625
30
1.7941784178753606
11
-1.40625
21
-1.40625
31
2.1810919587834285
12
-1.40625
22
-0.9375
32
2.4198749854423744
13
-1.875
23
-0.9375
33
2.0779097688951107
0
3DFACE
8
Faces
10
-1.40625
20
-1.40625
30
1.7539019000502853
11
-0.9375
21
-1.40625
31
2.0432338797846907
12
-0.9375
22
-0.9375
32
2.2963966338592297
13
-1.40625
23
-0.9375
33
2.0432338797846907
0
TEXT
8
Faces-Index
10
-1.171875
20
-1.171875
30
2.034191573369724
40
0.002
1
7
72
1
11
-1.171875
21
-1.171875
31
2.034191573369724
73
2
0
3DFACE
8
EstradossoFaces
10
-1.40625
20
-1.40625
30
2.1810919587834285
11
-0.9375
21
-1.40625
31
2.4198749854423744
12
-0.9375
22
-0.9375
32
2.6371249036914675
13
-1.40625
23
-0.9375
33
2.4198749854423744
0
3DFACE
8
Faces
10
-0.9375
20
-1.40625
30
2.0432338797846907
11
-0.46875
21
-1.40625
31
2.198632387417233
12
-0.46875
22
-0.9375
32
2.4356964481437338
13
-0.9375
23
-0.9375
33
2.2963966338592297
0
TEXT
8
Faces-Index
10
-0.703125
20
-1.171875
30
2.2434898373012215
40
0.002
1
8
72
1
11
-0.703125
21
-1.171875
31
2.2434898373012215
73
2
0
3DFACE
8
EstradossoFaces
10
-0.9375
20
-1.40625
30
2.4198749854423744
11
-0.46875
21
-1.40625
31
2.5524448344028383
12
-0.46875
22
-0.9375
32
2.759276616283647
13
-0.9375
23
-0.9375
33
2.6371249036914675
0
3DFACE
8
Faces
10
-0.46875
20
-1.40625
30
2.198632387417233
11
0.0
21
-1.40625
31
2.2480460265528377
12
0.0
22
-0.9375
32
2.480391854123054
13
-0.46875
23
-0.9375
33
2.4356964481437338
0
TEXT
8
Faces-Index
10
-0.234375
20
-1.171875
30
2.3406916790592147
40
0.002
1
9
72
1
11
-0.234375
21
-1.171875
31
2.3406916790592147
73
2
0
3DFACE
8
EstradossoFaces
10
-0.46875
20
-1.40625
30
2.5524448344028383
11
0.0
21
-1.40625
31
2.5951302848161077
12
0.0
22
-0.9375
32
2.798809391092886
13
-0.46875
23
-0.9375
33
2.759276616283647
0
3DFACE
8
Faces
10
0.0
20
-1.40625
30
2.2480460265528377
11
0.46875
21
-1.40625
31
2.198632387417233
12
0.46875
22
-0.9375
32
2.4356964481437338
13
0.0
23
-0.9375
33
2.480391854123054
0
TEXT
8
Faces-Index
10
0.234375
20
-1.171875
30
2.3406916790592147
40
0.002
1
10
72
1
11
0.234375
21
-1.171875
31
2.3406916790592147
73
2
0
3DFACE
8
EstradossoFaces
10
0.0
20
-1.40625
30
2.5951302848161077
11
0.46875
21
-1.40625
31
2.5524448344028383
12
0.46875
22
-0.9375
32
2.759276616283647
13
0.0
23
-0.9375
33
2.798809391092886
0
3DFACE
8
Faces
10
0.46875
20
-1.40625
30
2.198632387417233
11
0.9375
21
-1.40625
31
2.0432338797846907
12
0.9375
22
-0.9375
32
2.2963966338592297
13
0.46875
23
-0.9375
33
2.4356964481437338
0
TEXT
8
Faces-Index
10
0.703125
20
-1.171875
30
2.2434898373012215
40
0.002
1
11
72
1
11
0.703125
21
-1.171875
31
2.2434898373012215
73
2
0
3DFACE
8
EstradossoFaces
10
0.46875
20
-1.40625
30
2.5524448344028383
11
0.9375
21
-1.40625
31
2.4198749854423744
12
0.9375
22
-0.9375
32
2.6371249036914675
13
0.46875
23
-0.9375
33
2.759276616283647
0
3DFACE
8
Faces
10
0.9375
20
-1.40625
30
2.0432338797846907
11
1.40625
21
-1.40625
31
1.7539019000502853
12
1.40625
22
-0.9375
32
2.0432338797846907
13
0.9375
23
-0.9375
33
2.2963966338592297
0
TEXT
8
Faces-Index
10
1.171875
20
-1.171875
30
2.034191573369724
40
0.002
1
12
72
1
11
1.171875
21
-1.171875
31
2.034191573369724
73
2
0
3DFACE
8
EstradossoFaces
10
0.9375
20
-1.40625
30
2.4198749854423744
11
1.40625
21
-1.40625
31
2.1810919587834285
12
1.40625
22
-0.9375
32
2.4198749854423744
13
0.9375
23
-0.9375
33
2.6371249036914675
0
3DFACE
8
Faces
10
1.40625
20
-1.40625
30
1.7539019000502853
11
1.875
21
-1.40625
31
1.2401959270615273
12
1.875
22
-0.9375
32
1.6237976320958227
13
1.40625
23
-0.9375
33
2.0432338797846907
0
TEXT
8
Faces-Index
10
1.640625
20
-1.171875
30
1.6652823347480816
40
0.002
1
13
72
1
11
1.640625
21
-1.171875
31
1.6652823347480816
73
2
0
3DFACE
8
EstradossoFaces
10
1.40625
20
-1.40625
30
2.1810919587834285
11
1.875
21
-1.40625
31
1.7941784178753606
12
1.875
22
-0.9375
32
2.0779097688951107
13
1.40625
23
-0.9375
33
2.4198749854423744
0
3DFACE
8
Faces
10
-1.875
20
-0.9375
30
1.6237976320958227
11
-1.40625
21
-0.9375
31
2.0432338797846907
12
-1.40625
22
-0.46875
32
2.198632387417233
13
-1.875
23
-0.46875
33
1.8154609435347269
0
TEXT
8
Faces-Index
10
-1.640625
20
-0.703125
30
1.9202812107081184
40
0.002
1
14
72
1
11
-1.640625
21
-0.703125
31
1.9202812107081184
73
2
0
3DFACE
8
EstradossoFaces
10
-1.875
20
-0.9375
30
2.0779097688951107
11
-1.40625
21
-0.9375
31
2.4198749854423744
12
-1.40625
22
-0.46875
32
2.5524448344028383
13
-1.875
23
-0.46875
33
2.2308941470114023
0
3DFACE
8
Faces
10
-1.40625
20
-0.9375
30
2.0432338797846907
11
-0.9375
21
-0.9375
31
2.2963966338592297
12
-0.9375
22
-0.46875
32
2.4356964481437338
13
-1.40625
23
-0.46875
33
2.198632387417233
0
TEXT
8
Faces-Index
10
-1.171875
20
-0.703125
30
2.2434898373012215
40
0.002
1
15
72
1
11
-1.171875
21
-0.703125
31
2.2434898373012215
73
2
0
3DFACE
8
EstradossoFaces
10
-1.40625
20
-0.9375
30
2.4198749854423744
11
-0.9375
21
-0.9375
31
2.6371249036914675
12
-0.9375
22
-0.46875
32
2.759276616283647
13
-1.40625
23
-0.46875
33
2.5524448344028383
0
3DFACE
8
Faces
10
-0.9375
20
-0.9375
30
2.2963966338592297
11
-0.46875
21
-0.9375
31
2.4356964481437338
12
-0.46875
22
-0.46875
32
2.567449488305466
13
-0.9375
23
-0.46875
33
2.4356964481437338
0
TEXT
8
Faces-Index
10
-0.703125
20
-0.703125
30
2.4338097546130406
40
0.002
1
16
72
1
11
-0.703125
21
-0.703125
31
2.4338097546130406
73
2
0
3DFACE
8
EstradossoFaces
10
-0.9375
20
-0.9375
30
2.6371249036914675
11
-0.46875
21
-0.9375
31
2.759276616283647
12
-0.46875
22
-0.46875
32
2.876245318582845
13
-0.9375
23
-0.46875
33
2.759276616283647
0
3DFACE
8
Faces
10
-0.46875
20
-0.9375
30
2.4356964481437338
11
0.0
21
-0.9375
31
2.480391854123054
12
0.0
22
-0.46875
32
2.609889545076573
13
-0.46875
23
-0.46875
33
2.567449488305466
0
TEXT
8
Faces-Index
10
-0.234375
20
-0.703125
30
2.5233568339122066
40
0.002
1
17
72
1
11
-0.234375
21
-0.703125
31
2.5233568339122066
73
2
0
3DFACE
8
EstradossoFaces
10
-0.46875
20
-0.9375
30
2.759276616283647
11
0.0
21
-0.9375
31
2.798809391092886
12
0.0
22
-0.46875
32
2.9141917739177243
13
-0.46875
23
-0.46875
33
2.876245318582845
0
3DFACE
8
Faces
10
0.0
20
-0.9375
30
2.480391854123054
11
0.46875
21
-0.9375
31
2.4356964481437338
12
0.46875
22
-0.46875
32
2.567449488305466
13
0.0
23
-0.46875
33
2.609889545076573
0
TEXT
8
Faces-Index
10
0.234375
20
-0.703125
30
2.5233568339122066
40
0.002
1
18
72
1
11
0.234375
21
-0.703125
31
2.5233568339122066
73
2
0
3DFACE
8
EstradossoFaces
10
0.0
20
-0.9375
30
2.798809391092886
11
0.46875
21
-0.9375
31
2.759276616283647
12
0.46875
22
-0.46875
32
2.876245318582845
13
0.0
23
-0.46875
33
2.9141917739177243
0
3DFACE
8
Faces
10
0.46875
20
-0.9375
30
2.4356964481437338
11
0.9375
21
-0.9375
31
2.2963966338592297
12
0.9375
22
-0.46875
32
2.4356964481437338
13
0.46875
23
-0.46875
33
2.567449488305466
0
TEXT
8
Faces-Index
10
0.703125
20
-0.703125
30
2.4338097546130406
40
0.002
1
19
72
1
11
0.703125
21
-0.703125
31
2.4338097546130406
73
2
0
3DFACE
8
EstradossoFaces
10
0.46875
20
-0.9375
30
2.759276616283647
11
0.9375
21
-0.9375
31
2.6371249036914675
12
0.9375
22
-0.46875
32
2.759276616283647
13
0.46875
23
-0.46875
33
2.876245318582845
0
3DFACE
8
Faces
10
0.9375
20
-0.9375
30
2.2963966338592297
11
1.40625
21
-0.9375
31
2.0432338797846907
12
1.40625
22
-0.46875
32
2.198632387417233
13
0.9375
23
-0.46875
33
2.4356964481437338
0
TEXT
8
Faces-Index
10
1.171875
20
-0.703125
30
2.2434898373012215
40
0.002
1
20
72
1
11
1.171875
21
-0.703125
31
2.2434898373012215
73
2
0
3DFACE
8
EstradossoFaces
10
0.9375
20
-0.9375
30
2.6371249036914675
11
1.40625
21
-0.9375
31
2.4198749854423744
12
1.40625
22
-0.46875
32
2.5524448344028383
13
0.9375
23
-0.46875
33
2.759276616283647
0
3DFACE
8
Faces
10
1.40625
20
-0.9375
30
2.0432338797846907
11
1.875
21
-0.9375
31
1.6237976320958227
12
1.875
22
-0.46875
32
1.8154609435347269
13
1.40625
23
-0.46875
33
2.198632387417233
0
TEXT
8
Faces-Index
10
1.640625
20
-0.703125
30
1.9202812107081182
40
0.002
1
21
72
1
11
1.640625
21
-0.703125
31
1.9202812107081182
73
2
0
3DFACE
8
EstradossoFaces
10
1.40625
20
-0.9375
30
2.4198749854423744
11
1.875
21
-0.9375
31
2.0779097688951107
12
1.875
22
-0.46875
32
2.2308941470114023
13
1.40625
23
-0.46875
33
2.5524448344028383
0
3DFACE
8
Faces
10
-1.875
20
-0.46875
30
1.8154609435347269
11
-1.40625
21
-0.46875
31
2.198632387417233
12
-1.40625
22
0.0
32
2.2480460265528377
13
-1.875
23
0.0
33
1.8750000000000002
0
TEXT
8
Faces-Index
10
-1.640625
20
-0.234375
30
2.0342848393761996
40
0.002
1
22
72
1
11
-1.640625
21
-0.234375
31
2.0342848393761996
73
2
0
3DFACE
8
EstradossoFaces
10
-1.875
20
-0.46875
30
2.2308941470114023
11
-1.40625
21
-0.46875
31
2.5524448344028383
12
-1.40625
22
0.0
32
2.5951302848161077
13
-1.875
23
0.0
33
2.279608575538733
0
3DFACE
8
Faces
10
-1.40625
20
-0.46875
30
2.198632387417233
11
-0.9375
21
-0.46875
31
2.4356964481437338
12
-0.9375
22
0.0
32
2.480391854123054
13
-1.40625
23
0.0
33
2.2480460265528377
0
TEXT
8
Faces-Index
10
-1.171875
20
-0.234375
30
2.3406916790592147
40
0.002
1
23
72
1
11
-1.171875
21
-0.234375
31
2.3406916790592147
73
2
0
3DFACE
8
EstradossoFaces
10
-1.40625
20
-0.46875
30
2.5524448344028383
11
-0.9375
21
-0.46875
31
2.759276616283647
12
-0.9375
22
0.0
32
2.798809391092886
13
-1.40625
23
0.0
33
2.5951302848161077
0
3DFACE
8
Faces
10
-0.9375
20
-0.46875
30
2.4356964481437338
11
-0.46875
21
-0.46875
31
2.567449488305466
12
-0.46875
22
0.0
32
2.609889545076573
13
-0.9375
23
0.0
33
2.480391854123054
0
TEXT
8
Faces-Index
10
-0.703125
20
-0.234375
30
2.5233568339122066
40
0.002
1
24
72
1
11
-0.703125
21
-0.234375
31
2.5233568339122066
73
2
0
3DFACE
8
EstradossoFaces
10
-0.9375
20
-0.46875
30
2.759276616283647
11
-0.46875
21
-0.46875
31
2.876245318582845
12
-0.46875
22
0.0
32
2.9141917739177243
13
-0.9375
23
0.0
33
2.798809391092886
0
3DFACE
8
Faces
10
-0.46875
20
-0.46875
30
2.567449488305466
11
0.0
21
-0.46875
31
2.609889545076573
12
0.0
22
0.0
32
2.6516504294495533
13
-0.46875
23
0.0
33
2.609889545076573
0
TEXT
8
Faces-Index
10
-0.234375
20
-0.234375
30
2.6097197519770416
40
0.002
1
25
72
1
11
-0.234375
21
-0.234375
31
2.6097197519770416
73
2
0
3DFACE
8
EstradossoFaces
10
-0.46875
20
-0.46875
30
2.876245318582845
11
0.0
21
-0.46875
31
2.9141917739177243
12
0.0
22
0.0
32
2.951650429449553
13
-0.46875
23
0.0
33
2.9141917739177243
0
3DFACE
8
Faces
10
0.0
20
-0.46875
30
2.609889545076573
11
0.46875
21
-0.46875
31
2.567449488305466
12
0.46875
22
0.0
32
2.609889545076573
13
0.0
23
0.0
33
2.6516504294495533
0
TEXT
8
Faces-Index
10
0.234375
20
-0.234375
30
2.6097197519770416
40
0.002
1
26
72
1
11
0.234375
21
-0.234375
31
2.6097197519770416
73
2
0
3DFACE
8
EstradossoFaces
10
0.0
20
-0.46875
30
2.9141917739177243
11
0.46875
21
-0.46875
31
2.876245318582845
12
0.46875
22
0.0
32
2.9141917739177243
13
0.0
23
0.0
33
2.951650429449553
0
3DFACE
8
Faces
10
0.46875
20
-0.46875
30
2.567449488305466
11
0.9375
21
-0.46875
31
2.4356964481437338
12
0.9375
22
0.0
32
2.480391854123054
13
0.46875
23
0.0
33
2.609889545076573
0
TEXT
8
Faces-Index
10
0.703125
20
-0.234375
30
2.5233568339122066
40
0.002
1
27
72
1
11
0.703125
21
-0.234375
31
2.5233568339122066
73
2
0
3DFACE
8
EstradossoFaces
10
0.46875
20
-0.46875
30
2.876245318582845
11
0.9375
21
-0.46875
31
2.759276616283647
12
0.9375
22
0.0
32
2.798809391092886
13
0.46875
23
0.0
33
2.9141917739177243
0
3DFACE
8
Faces
10
0.9375
20
-0.46875
30
2.4356964481437338
11
1.40625
21
-0.46875
31
2.198632387417233
12
1.40625
22
0.0
32
2.2480460265528377
13
0.9375
23
0.0
33
2.480391854123054
0
TEXT
8
Faces-Index
10
1.171875
20
-0.234375
30
2.3406916790592147
40
0.002
1
28
72
1
11
1.171875
21
-0.234375
31
2.3406916790592147
73
2
0
3DFACE
8
EstradossoFaces
10
0.9375
20
-0.46875
30
2.759276616283647
11
1.40625
21
-0.46875
31
2.5524448344028383
12
1.40625
22
0.0
32
2.5951302848161077
13
0.9375
23
0.0
33
2.798809391092886
0
3DFACE
8
Faces
10
1.40625
20
-0.46875
30
2.198632387417233
11
1.875
21
-0.46875
31
1.8154609435347269
12
1.875
22
0.0
32
1.8750000000000002
13
1.40625
23
0.0
33
2.2480460265528377
0
TEXT
8
Faces-Index
10
1.640625
20
-0.234375
30
2.034284839376199
40
0.002
1
29
72
1
11
1.640625
21
-0.234375
31
2.034284839376199
73
2
0
3DFACE
8
EstradossoFaces
10
1.40625
20
-0.46875
30
2.5524448344028383
11
1.875
21
-0.46875
31
2.2308941470114023
12
1.875
22
0.0
32
2.279608575538733
13
1.40625
23
0.0
33
2.5951302848161077
0
3DFACE
8
Faces
10
-1.875
20
0.0
30
1.8750000000000002
11
-1.40625
21
0.0
31
2.2480460265528377
12
-1.40625
22
0.46875
32
2.198632387417233
13
-1.875
23
0.46875
33
1.8154609435347269
0
TEXT
8
Faces-Index
10
-1.640625
20
0.234375
30
2.0342848393761996
40
0.002
1
30
72
1
11
-1.640625
21
0.234375
31
2.0342848393761996
73
2
0
3DFACE
8
EstradossoFaces
10
-1.875
20
0.0
30
2.279608575538733
11
-1.40625
21
0.0
31
2.5951302848161077
12
-1.40625
22
0.46875
32
2.5524448344028383
13
-1.875
23
0.46875
33
2.2308941470114023
0
3DFACE
8
Faces
10
-1.40625
20
0.0
30
2.2480460265528377
11
-0.9375
21
0.0
31
2.480391854123054
12
-0.9375
22
0.46875
32
2.4356964481437338
13
-1.40625
23
0.46875
33
2.198632387417233
0
TEXT
8
Faces-Index
10
-1.171875
20
0.234375
30
2.3406916790592147
40
0.002
1
31
72
1
11
-1.171875
21
0.234375
31
2.3406916790592147
73
2
0
3DFACE
8
EstradossoFaces
10
-1.40625
20
0.0
30
2.5951302848161077
11
-0.9375
21
0.0
31
2.798809391092886
12
-0.9375
22
0.46875
32
2.759276616283647
13
-1.40625
23
0.46875
33
2.5524448344028383
0
3DFACE
8
Faces
10
-0.9375
20
0.0
30
2.480391854123054
11
-0.46875
21
0.0
31
2.609889545076573
12
-0.46875
22
0.46875
32
2.567449488305466
13
-0.9375
23
0.46875
33
2.4356964481437338
0
TEXT
8
Faces-Index
10
-0.703125
20
0.234375
30
2.5233568339122066
40
0.002
1
32
72
1
11
-0.703125
21
0.234375
31
2.5233568339122066
73
2
0
3DFACE
8
EstradossoFaces
10
-0.9375
20
0.0
30
2.798809391092886
11
-0.46875
21
0.0
31
2.9141917739177243
12
-0.46875
22
0.46875
32
2.876245318582845
13
-0.9375
23
0.46875
33
2.759276616283647
0
3DFACE
8
Faces
10
-0.46875
20
0.0
30
2.609889545076573
11
0.0
21
0.0
31
2.6516504294495533
12
0.0
22
0.46875
32
2.609889545076573
13
-0.46875
23
0.46875
33
2.567449488305466
0
TEXT
8
Faces-Index
10
-0.234375
20
0.234375
30
2.6097197519770416
40
0.002
1
33
72
1
11
-0.234375
21
0.234375
31
2.6097197519770416
73
2
0
3DFACE
8
EstradossoFaces
10
-0.46875
20
0.0
30
2.9141917739177243
11
0.0
21
0.0
31
2.951650429449553
12
0.0
22
0.46875
32
2.9141917739177243
13
-0.46875
23
0.46875
33
2.876245318582845
0
3DFACE
8
Faces
10
0.0
20
0.0
30
2.6516504294495533
11
0.46875
21
0.0
31
2.609889545076573
12
0.46875
22
0.46875
32
2.567449488305466
13
0.0
23
0.46875
33
2.609889545076573
0
TEXT
8
Faces-Index
10
0.234375
20
0.234375
30
2.6097197519770416
40
0.002
1
34
72
1
11
0.234375
21
0.234375
31
2.6097197519770416
73
2
0
3DFACE
8
EstradossoFaces
10
0.0
20
0.0
30
2.951650429449553
11
0.46875
21
0.0
31
2.9141917739177243
12
0.46875
22
0.46875
32
2.876245318582845
13
0.0
23
0.46875
33
2.9141917739177243
0
3DFACE
8
Faces
10
0.46875
20
0.0
30
2.609889545076573
11
0.9375
21
0.0
31
2.480391854123054
12
0.9375
22
0.46875
32
2.4356964481437338
13
0.46875
23
0.46875
33
2.567449488305466
0
TEXT
8
Faces-Index
10
0.703125
20
0.234375
30
2.5233568339122066
40
0.002
1
35
72
1
11
0.703125
21
0.234375
31
2.5233568339122066
73
2
0
3DFACE
8
EstradossoFaces
10
0.46875
20
0.0
30
2.9141917739177243
11
0.9375
21
0.0
31
2.798809391092886
12
0.9375
22
0.46875
32
2.759276616283647
13
0.46875
23
0.46875
33
2.876245318582845
0
3DFACE
8
Faces
10
0.9375
20
0.0
30
2.480391854123054
11
1.40625
21
0.0
31
2.2480460265528377
12
1.40625
22
0.46875
32
2.198632387417233
13
0.9375
23
0.46875
33
2.4356964481437338
0
TEXT
8
Faces-Index
10
1.171875
20
0.234375
30
2.3406916790592147
40
0.002
1
36
72
1
11
1.171875
21
0.234375
31
2.3406916790592147
73
2
0
3DFACE
8
EstradossoFaces
10
0.9375
20
0.0
30
2.798809391092886
11
1.40625
21
0.0
31
2.5951302848161077
12
1.40625
22
0.46875
32
2.5524448344028383
13
0.9375
23
0.46875
33
2.759276616283647
0
3DFACE
8
Faces
10
1.40625
20
0.0
30
2.2480460265528377
11
1.875
21
0.0
31
1.8750000000000002
12
1.875
22
0.46875
32
1.8154609435347269
13
1.40625
23
0.46875
33
2.198632387417233
0
TEXT
8
Faces-Index
10
1.640625
20
0.234375
30
2.034284839376199
40
0.002
1
37
72
1
11
1.640625
21
0.234375
31
2.034284839376199
73
2
0
3DFACE
8
EstradossoFaces
10
1.40625
20
0.0
30
2.5951302848161077
11
1.875
21
0.0
31
2.279608575538733
12
1.875
22
0.46875
32
2.2308941470114023
13
1.40625
23
0.46875
33
2.5524448344028383
0
3DFACE
8
Faces
10
-1.875
20
0.46875
30
1.8154609435347269
11
-1.40625
21
0.46875
31
2.198632387417233
12
-1.40625
22
0.9375
32
2.0432338797846907
13
-1.875
23
0.9375
33
1.6237976320958227
0
TEXT
8
Faces-Index
10
-1.640625
20
0.703125
30
1.9202812107081182
40
0.002
1
38
72
1
11
-1.640625
21
0.703125
31
1.9202812107081182
73
2
0
3DFACE
8
EstradossoFaces
10
-1.875
20
0.46875
30
2.2308941470114023
11
-1.40625
21
0.46875
31
2.5524448344028383
12
-1.40625
22
0.9375
32
2.4198749854423744
13
-1.875
23
0.9375
33
2.0779097688951107
0
3DFACE
8
Faces
10
-1.40625
20
0.46875
30
2.198632387417233
11
-0.9375
21
0.46875
31
2.4356964481437338
12
-0.9375
22
0.9375
32
2.2963966338592297
13
-1.40625
23
0.9375
33
2.0432338797846907
0
TEXT
8
Faces-Index
10
-1.171875
20
0.703125
30
2.2434898373012215
40
0.002
1
39
72
1
11
-1.171875
21
0.703125
31
2.2434898373012215
73
2
0
3DFACE
8
EstradossoFaces
10
-1.40625
20
0.46875
30
2.5524448344028383
11
-0.9375
21
0.46875
31
2.759276616283647
12
-0.9375
22
0.9375
32
2.6371249036914675
13
-1.40625
23
0.9375
33
2.4198749854423744
0
3DFACE
8
Faces
10
-0.9375
20
0.46875
30
2.4356964481437338
11
-0.46875
21
0.46875
31
2.567449488305466
12
-0.46875
22
0.9375
32
2.4356964481437338
13
-0.9375
23
0.9375
33
2.2963966338592297
0
TEXT
8
Faces-Index
10
-0.703125
20
0.703125
30
2.4338097546130406
40
0.002
1
40
72
1
11
-0.703125
21
0.703125
31
2.4338097546130406
73
2
0
3DFACE
8
EstradossoFaces
10
-0.9375
20
0.46875
30
2.759276616283647
11
-0.46875
21
0.46875
31
2.876245318582845
12
-0.46875
22
0.9375
32
2.759276616283647
13
-0.9375
23
0.9375
33
2.6371249036914675
0
3DFACE
8
Faces
10
-0.46875
20
0.46875
30
2.567449488305466
11
0.0
21
0.46875
31
2.609889545076573
12
0.0
22
0.9375
32
2.480391854123054
13
-0.46875
23
0.9375
33
2.4356964481437338
0
TEXT
8
Faces-Index
10
-0.234375
20
0.703125
30
2.5233568339122066
40
0.002
1
41
72
1
11
-0.234375
21
0.703125
31
2.5233568339122066
73
2
0
3DFACE
8
EstradossoFaces
10
-0.46875
20
0.46875
30
2.876245318582845
11
0.0
21
0.46875
31
2.9141917739177243
12
0.0
22
0.9375
32
2.798809391092886
13
-0.46875
23
0.9375
33
2.759276616283647
0
3DFACE
8
Faces
10
0.0
20
0.46875
30
2.609889545076573
11
0.46875
21
0.46875
31
2.567449488305466
12
0.46875
22
0.9375
32
2.4356964481437338
13
0.0
23
0.9375
33
2.480391854123054
0
TEXT
8
Faces-Index
10
0.234375
20
0.703125
30
2.5233568339122066
40
0.002
1
42
72
1
11
0.234375
21
0.703125
31
2.5233568339122066
73
2
0
3DFACE
8
EstradossoFaces
10
0.0
20
0.46875
30
2.9141917739177243
11
0.46875
21
0.46875
31
2.876245318582845
12
0.46875
22
0.9375
32
2.759276616283647
13
0.0
23
0.9375
33
2.798809391092886
0
3DFACE
8
Faces
10
0.46875
20
0.46875
30
2.567449488305466
11
0.9375
21
0.46875
31
2.4356964481437338
12
0.9375
22
0.9375
32
2.2963966338592297
13
0.46875
23
0.9375
33
2.4356964481437338
0
TEXT
8
Faces-Index
10
0.703125
20
0.703125
30
2.4338097546130406
40
0.002
1
43
72
1
11
0.703125
21
0.703125
31
2.4338097546130406
73
2
0
3DFACE
8
EstradossoFaces
10
0.46875
20
0.46875
30
2.876245318582845
11
0.9375
21
0.46875
31
2.759276616283647
12
0.9375
22
0.9375
32
2.6371249036914675
13
0.46875
23
0.9375
33
2.759276616283647
0
3DFACE
8
Faces
10
0.9375
20
0.46875
30
2.4356964481437338
11
1.40625
21
0.46875
31
2.198632387417233
12
1.40625
22
0.9375
32
2.0432338797846907
13
0.9375
23
0.9375
33
2.2963966338592297
0
TEXT
8
Faces-Index
10
1.171875
20
0.703125
30
2.2434898373012215
40
0.002
1
44
72
1
11
1.171875
21
0.703125
31
2.2434898373012215
73
2
0
3DFACE
8
EstradossoFaces
10
0.9375
20
0.46875
30
2.759276616283647
11
1.40625
21
0.46875
31
2.5524448344028383
12
1.40625
22
0.9375
32
2.4198749854423744
13
0.9375
23
0.9375
33
2.6371249036914675
0
3DFACE
8
Faces
10
1.40625
20
0.46875
30
2.198632387417233
11
1.875
21
0.46875
31
1.8154609435347269
12
1.875
22
0.9375
32
1.6237976320958227
13
1.40625
23
0.9375
33
2.0432338797846907
0
TEXT
8
Faces-Index
10
1.640625
20
0.703125
30
1.9202812107081182
40
0.002
1
45
72
1
11
1.640625
21
0.703125
31
1.9202812107081182
73
2
0
3DFACE
8
EstradossoFaces
10
1.40625
20
0.46875
30
2.5524448344028383
11
1.875
21
0.46875
31
2.2308941470114023
12
1.875
22
0.9375
32
2.0779097688951107
13
1.40625
23
0.9375
33
2.4198749854423744
0
3DFACE
8
Faces
10
-1.875
20
0.9375
30
1.6237976320958227
11
-1.40625
21
0.9375
31
2.0432338797846907
12
-1.40625
22
1.40625
32
1.7539019000502853
13
-1.875
23
1.40625
33
1.2401959270615273
0
TEXT
8
Faces-Index
10
-1.640625
20
1.171875
30
1.6652823347480814
40
0.002
1
46
72
1
11
-1.640625
21
1.171875
31
1.6652823347480814
73
2
0
3DFACE
8
EstradossoFaces
10
-1.875
20
0.9375
30
2.0779097688951107
11
-1.40625
21
0.9375
31
2.4198749854423744
12
-1.40625
22
1.40625
32
2.1810919587834285
13
-1.875
23
1.40625
33
1.7941784178753606
0
3DFACE
8
Faces
10
-1.40625
20
0.9375
30
2.0432338797846907
11
-0.9375
21
0.9375
31
2.2963966338592297
12
-0.9375
22
1.40625
32
2.0432338797846907
13
-1.40625
23
1.40625
33
1.7539019000502853
0
TEXT
8
Faces-Index
10
-1.171875
20
1.171875
30
2.034191573369724
40
0.002
1
47
72
1
11
-1.171875
21
1.171875
31
2.034191573369724
73
2
0
3DFACE
8
EstradossoFaces
10
-1.40625
20
0.9375
30
2.4198749854423744
11
-0.9375
21
0.9375
31
2.6371249036914675
12
-0.9375
22
1.40625
32
2.4198749854423744
13
-1.40625
23
1.40625
33
2.1810919587834285
0
3DFACE
8
Faces
10
-0.9375
20
0.9375
30
2.2963966338592297
11
-0.46875
21
0.9375
31
2.4356964481437338
12
-0.46875
22
1.40625
32
2.198632387417233
13
-0.9375
23
1.40625
33
2.0432338797846907
0
TEXT
8
Faces-Index
10
-0.703125
20
1.171875
30
2.2434898373012215
40
0.002
1
48
72
1
11
-0.703125
21
1.171875
31
2.2434898373012215
73
2
0
3DFACE
8
EstradossoFaces
10
-0.9375
20
0.9375
30
2.6371249036914675
11
-0.46875
21
0.9375
31
2.759276616283647
12
-0.46875
22
1.40625
32
2.5524448344028383
13
-0.9375
23
1.40625
33
2.4198749854423744
0
3DFACE
8
Faces
10
-0.46875
20
0.9375
30
2.4356964481437338
11
0.0
21
0.9375
31
2.480391854123054
12
0.0
22
1.40625
32
2.2480460265528377
13
-0.46875
23
1.40625
33
2.198632387417233
0
TEXT
8
Faces-Index
10
-0.234375
20
1.171875
30
2.3406916790592147
40
0.002
1
49
72
1
11
-0.234375
21
1.171875
31
2.3406916790592147
73
2
0
3DFACE
8
EstradossoFaces
10
-0.46875
20
0.9375
30
2.759276616283647
11
0.0
21
0.9375
31
2.798809391092886
12
0.0
22
1.40625
32
2.5951302848161077
13
-0.46875
23
1.40625
33
2.5524448344028383
0
3DFACE
8
Faces
10
0.0
20
0.9375
30
2.480391854123054
11
0.46875
21
0.9375
31
2.4356964481437338
12
0.46875
22
1.40625
32
2.198632387417233
13
0.0
23
1.40625
33
2.2480460265528377
0
TEXT
8
Faces-Index
10
0.234375
20
1.171875
30
2.3406916790592147
40
0.002
1
50
72
1
11
0.234375
21
1.171875
31
2.3406916790592147
73
2
0
3DFACE
8
EstradossoFaces
10
0.0
20
0.9375
30
2.798809391092886
11
0.46875
21
0.9375
31
2.759276616283647
12
0.46875
22
1.40625
32
2.5524448344028383
13
0.0
23
1.40625
33
2.5951302848161077
0
3DFACE
8
Faces
10
0.46875
20
0.9375
30
2.4356964481437338
11
0.9375
21
0.9375
31
2.2963966338592297
12
0.9375
22
1.40625
32
2.0432338797846907
13
0.46875
23
1.40625
33
2.198632387417233
0
TEXT
8
Faces-Index
10
0.703125
20
1.171875
30
2.2434898373012215
40
0.002
1
51
72
1
11
0.703125
21
1.171875
31
2.2434898373012215
73
2
0
3DFACE
8
EstradossoFaces
10
0.46875
20
0.9375
30
2.759276616283647
11
0.9375
21
0.9375
31
2.6371249036914675
12
0.9375
22
1.40625
32
2.4198749854423744
13
0.46875
23
1.40625
33
2.5524448344028383
0
3DFACE
8
Faces
10
0.9375
20
0.9375
30
2.2963966338592297
11
1.40625
21
0.9375
31
2.0432338797846907
12
1.40625
22
1.40625
32
1.7539019000502853
13
0.9375
23
1.40625
33
2.0432338797846907
0
TEXT
8
Faces-Index
10
1.171875
20
1.171875
30
2.034191573369724
40
0.002
1
52
72
1
11
1.171875
21
1.171875
31
2.034191573369724
73
2
0
3DFACE
8
EstradossoFaces
10
0.9375
20
0.9375
30
2.6371249036914675
11
1.40625
21
0.9375
31
2.4198749854423744
12
1.40625
22
1.40625
32
2.1810919587834285
13
0.9375
23
1.40625
33
2.4198749854423744
0
3DFACE
8
Faces
10
1.40625
20
0.9375
30
2.0432338797846907
11
1.875
21
0.9375
31
1.6237976320958227
12
1.875
22
1.40625
32
1.2401959270615273
13
1.40625
23
1.40625
33
1.7539019000502853
0
TEXT
8
Faces-Index
10
1.640625
20
1.171875
30
1.6652823347480816
40
0.002
1
53
72
1
11
1.640625
21
1.171875
31
1.6652823347480816
73
2
0
3DFACE
8
EstradossoFaces
10
1.40625
20
0.9375
30
2.4198749854423744
11
1.875
21
0.9375
31
2.0779097688951107
12
1.875
22
1.40625
32
1.7941784178753606
13
1.40625
23
1.40625
33
2.1810919587834285
0
3DFACE
8
Faces
10
-1.40625
20
1.40625
30
1.7539019000502853
11
-0.9375
21
1.40625
31
2.0432338797846907
12
-0.9375
22
1.875
32
1.6237976320958227
13
-1.40625
23
1.875
33
1.2401959270615273
0
TEXT
8
Faces-Index
10
-1.171875
20
1.640625
30
1.6652823347480814
40
0.002
1
54
72
1
11
-1.171875
21
1.640625
31
1.6652823347480814
73
2
0
3DFACE
8
EstradossoFaces
10
-1.40625
20
1.40625
30
2.1810919587834285
11
-0.9375
21
1.40625
31
2.4198749854423744
12
-0.9375
22
1.875
32
2.0779097688951107
13
-1.40625
23
1.875
33
1.7941784178753606
0
3DFACE
8
Faces
10
-0.9375
20
1.40625
30
2.0432338797846907
11
-0.46875
21
1.40625
31
2.198632387417233
12
-0.46875
22
1.875
32
1.8154609435347269
13
-0.9375
23
1.875
33
1.6237976320958227
0
TEXT
8
Faces-Index
10
-0.703125
20
1.640625
30
1.9202812107081182
40
0.002
1
55
72
1
11
-0.703125
21
1.640625
31
1.9202812107081182
73
2
0
3DFACE
8
EstradossoFaces
10
-0.9375
20
1.40625
30
2.4198749854423744
11
-0.46875
21
1.40625
31
2.5524448344028383
12
-0.46875
22
1.875
32
2.2308941470114023
13
-0.9375
23
1.875
33
2.0779097688951107
0
3DFACE
8
Faces
10
-0.46875
20
1.40625
30
2.198632387417233
11
0.0
21
1.40625
31
2.2480460265528377
12
0.0
22
1.875
32
1.8750000000000002
13
-0.46875
23
1.875
33
1.8154609435347269
0
TEXT
8
Faces-Index
10
-0.234375
20
1.640625
30
2.0342848393761996
40
0.002
1
56
72
1
11
-0.234375
21
1.640625
31
2.0342848393761996
73
2
0
3DFACE
8
EstradossoFaces
10
-0.46875
20
1.40625
30
2.5524448344028383
11
0.0
21
1.40625
31
2.5951302848161077
12
0.0
22
1.875
32
2.279608575538733
13
-0.46875
23
1.875
33
2.2308941470114023
0
3DFACE
8
Faces
10
0.0
20
1.40625
30
2.2480460265528377
11
0.46875
21
1.40625
31
2.198632387417233
12
0.46875
22
1.875
32
1.8154609435347269
13
0.0
23
1.875
33
1.8750000000000002
0
TEXT
8
Faces-Index
10
0.234375
20
1.640625
30
2.0342848393761996
40
0.002
1
57
72
1
11
0.234375
21
1.640625
31
2.0342848393761996
73
2
0
3DFACE
8
EstradossoFaces
10
0.0
20
1.40625
30
2.5951302848161077
11
0.46875
21
1.40625
31
2.5524448344028383
12
0.46875
22
1.875
32
2.2308941470114023
13
0.0
23
1.875
33
2.279608575538733
0
3DFACE
8
Faces
10
0.46875
20
1.40625
30
2.198632387417233
11
0.9375
21
1.40625
31
2.0432338797846907
12
0.9375
22
1.875
32
1.6237976320958227
13
0.46875
23
1.875
33
1.8154609435347269
0
TEXT
8
Faces-Index
10
0.703125
20
1.640625
30
1.9202812107081182
40
0.002
1
58
72
1
11
0.703125
21
1.640625
31
1.9202812107081182
73
2
0
3DFACE
8
EstradossoFaces
10
0.46875
20
1.40625
30
2.5524448344028383
11
0.9375
21
1.40625
31
2.4198749854423744
12
0.9375
22
1.875
32
2.0779097688951107
13
0.46875
23
1.875
33
2.2308941470114023
0
3DFACE
8
Faces
10
0.9375
20
1.40625
30
2.0432338797846907
11
1.40625
21
1.40625
31
1.7539019000502853
12
1.40625
22
1.875
32
1.2401959270615273
13
0.9375
23
1.875
33
1.6237976320958227
0
TEXT
8
Faces-Index
10
1.171875
20
1.640625
30
1.6652823347480814
40
0.002
1
59
72
1
11
1.171875
21
1.640625
31
1.6652823347480814
73
2
0
3DFACE
8
EstradossoFaces
10
0.9375
20
1.40625
30
2.4198749854423744
11
1.40625
21
1.40625
31
2.1810919587834285
12
1.40625
22
1.875
32
1.7941784178753606
13
0.9375
23
1.875
33
2.0779097688951107
0
ENDSEC
0
EOF
