999
DXF created from myself (Fortunato Siano)
0
SECTION
2
ENTITIES
0
LINE
8
INTRADOSSO
10
0.0
20
0.0
30
2.65165
11
0.365794
21
-0.365794
31
2.6007
0
LINE
8
ESTRADOSSO
10
0.0
20
0.0
30
2.95165
11
0.365794
21
-0.365794
31
2.905964
0
LINE
8
INTRADOSSO
10
0.365794
20
-0.365794
30
2.6007
11
0.717531
21
-0.717531
31
2.449806
0
LINE
8
ESTRADOSSO
10
0.365794
20
-0.365794
30
2.905964
11
0.717531
21
-0.717531
31
2.771739
0
LINE
8
INTRADOSSO
10
0.717531
20
-0.717531
30
2.449806
11
1.041694
21
-1.041694
31
2.204767
0
LINE
8
ESTRADOSSO
10
0.717531
20
-0.717531
30
2.771739
11
1.041694
21
-1.041694
31
2.557731
0
LINE
8
INTRADOSSO
10
1.041694
20
-1.041694
30
2.204767
11
1.325825
21
-1.325825
31
1.875
0
LINE
8
ESTRADOSSO
10
1.041694
20
-1.041694
30
2.557731
11
1.325825
21
-1.325825
31
2.279609
0
LINE
8
INTRADOSSO
10
1.325825
20
-1.325825
30
1.875
11
1.482318
21
-1.482318
31
1.623798
0
LINE
8
ESTRADOSSO
10
1.325825
20
-1.325825
30
2.279609
11
1.482318
21
-1.482318
31
2.07791
0
LINE
8
INTRADOSSO
10
1.482318
20
-1.482318
30
1.623798
11
1.753902
21
-1.753902
31
0.9375
0
LINE
8
ESTRADOSSO
10
1.482318
20
-1.482318
30
2.07791
11
1.753902
21
-1.753902
31
1.599968
0
LINE
8
INTRADOSSO
10
1.753902
20
-1.753902
30
0.9375
11
1.875
21
-1.875
31
0.0
0
LINE
8
ESTRADOSSO
10
1.753902
20
-1.753902
30
1.599968
11
1.875
21
-1.875
31
1.29653
0
LINE
8
INTRADOSSO
10
0.0
20
0.0
30
2.65165
11
0.391051
21
-0.33866
31
2.6007
0
LINE
8
ESTRADOSSO
10
0.0
20
0.0
30
2.95165
11
0.391051
21
-0.33866
31
2.905964
0
LINE
8
INTRADOSSO
10
0.391051
20
-0.33866
30
2.6007
11
0.767073
21
-0.664305
31
2.449806
0
LINE
8
ESTRADOSSO
10
0.391051
20
-0.33866
30
2.905964
11
0.767073
21
-0.664305
31
2.771739
0
LINE
8
INTRADOSSO
10
0.767073
20
-0.664305
30
2.449806
11
1.113618
21
-0.964421
31
2.204767
0
LINE
8
ESTRADOSSO
10
0.767073
20
-0.664305
30
2.771739
11
1.113618
21
-0.964421
31
2.557731
0
LINE
8
INTRADOSSO
10
1.113618
20
-0.964421
30
2.204767
11
1.417367
21
-1.227476
31
1.875
0
LINE
8
ESTRADOSSO
10
1.113618
20
-0.964421
30
2.557731
11
1.417367
21
-1.227476
31
2.279609
0
LINE
8
INTRADOSSO
10
1.417367
20
-1.227476
30
1.875
11
1.584664
21
-1.372359
31
1.623798
0
LINE
8
ESTRADOSSO
10
1.417367
20
-1.227476
30
2.279609
11
1.584664
21
-1.372359
31
2.07791
0
LINE
8
INTRADOSSO
10
1.584664
20
-1.372359
30
1.623798
11
1.875
21
-1.623798
31
0.9375
0
LINE
8
ESTRADOSSO
10
1.584664
20
-1.372359
30
2.07791
11
1.875
21
-1.623798
31
1.599968
0
LINE
8
INTRADOSSO
10
0.0
20
0.0
30
2.65165
11
0.462697
21
-0.231349
31
2.6007
0
LINE
8
ESTRADOSSO
10
0.0
20
0.0
30
2.95165
11
0.462697
21
-0.231349
31
2.905964
0
LINE
8
INTRADOSSO
10
0.462697
20
-0.231349
30
2.6007
11
0.907613
21
-0.453807
31
2.449806
0
LINE
8
ESTRADOSSO
10
0.462697
20
-0.231349
30
2.905964
11
0.907613
21
-0.453807
31
2.771739
0
LINE
8
INTRADOSSO
10
0.907613
20
-0.453807
30
2.449806
11
1.317651
21
-0.658825
31
2.204767
0
LINE
8
ESTRADOSSO
10
0.907613
20
-0.453807
30
2.771739
11
1.317651
21
-0.658825
31
2.557731
0
LINE
8
INTRADOSSO
10
1.317651
20
-0.658825
30
2.204767
11
1.677051
21
-0.838525
31
1.875
0
LINE
8
ESTRADOSSO
10
1.317651
20
-0.658825
30
2.557731
11
1.677051
21
-0.838525
31
2.279609
0
LINE
8
INTRADOSSO
10
1.677051
20
-0.838525
30
1.875
11
1.875
21
-0.9375
31
1.623798
0
LINE
8
ESTRADOSSO
10
1.677051
20
-0.838525
30
2.279609
11
1.875
21
-0.9375
31
2.07791
0
LINE
8
INTRADOSSO
10
0.0
20
0.0
30
2.65165
11
0.517311
21
0.0
31
2.6007
0
LINE
8
ESTRADOSSO
10
0.0
20
0.0
30
2.95165
11
0.517311
21
0.0
31
2.905964
0
LINE
8
INTRADOSSO
10
0.517311
20
0.0
30
2.6007
11
1.014743
21
0.0
31
2.449806
0
LINE
8
ESTRADOSSO
10
0.517311
20
0.0
30
2.905964
11
1.014743
21
0.0
31
2.771739
0
LINE
8
INTRADOSSO
10
1.014743
20
0.0
30
2.449806
11
1.473178
21
0.0
31
2.204767
0
LINE
8
ESTRADOSSO
10
1.014743
20
0.0
30
2.771739
11
1.473178
21
0.0
31
2.557731
0
LINE
8
INTRADOSSO
10
1.473178
20
0.0
30
2.204767
11
1.875
21
0.0
31
1.875
0
LINE
8
ESTRADOSSO
10
1.473178
20
0.0
30
2.557731
11
1.875
21
0.0
31
2.279609
0
LINE
8
INTRADOSSO
10
0.0
20
0.0
30
2.65165
11
0.462697
21
0.231349
31
2.6007
0
LINE
8
ESTRADOSSO
10
0.0
20
0.0
30
2.95165
11
0.462697
21
0.231349
31
2.905964
0
LINE
8
INTRADOSSO
10
0.462697
20
0.231349
30
2.6007
11
0.907613
21
0.453807
31
2.449806
0
LINE
8
ESTRADOSSO
10
0.462697
20
0.231349
30
2.905964
11
0.907613
21
0.453807
31
2.771739
0
LINE
8
INTRADOSSO
10
0.907613
20
0.453807
30
2.449806
11
1.317651
21
0.658825
31
2.204767
0
LINE
8
ESTRADOSSO
10
0.907613
20
0.453807
30
2.771739
11
1.317651
21
0.658825
31
2.557731
0
LINE
8
INTRADOSSO
10
1.317651
20
0.658825
30
2.204767
11
1.677051
21
0.838525
31
1.875
0
LINE
8
ESTRADOSSO
10
1.317651
20
0.658825
30
2.557731
11
1.677051
21
0.838525
31
2.279609
0
LINE
8
INTRADOSSO
10
1.677051
20
0.838525
30
1.875
11
1.875
21
0.9375
31
1.623798
0
LINE
8
ESTRADOSSO
10
1.677051
20
0.838525
30
2.279609
11
1.875
21
0.9375
31
2.07791
0
LINE
8
INTRADOSSO
10
0.0
20
0.0
30
2.65165
11
0.391051
21
0.33866
31
2.6007
0
LINE
8
ESTRADOSSO
10
0.0
20
0.0
30
2.95165
11
0.391051
21
0.33866
31
2.905964
0
LINE
8
INTRADOSSO
10
0.391051
20
0.33866
30
2.6007
11
0.767073
21
0.664305
31
2.449806
0
LINE
8
ESTRADOSSO
10
0.391051
20
0.33866
30
2.905964
11
0.767073
21
0.664305
31
2.771739
0
LINE
8
INTRADOSSO
10
0.767073
20
0.664305
30
2.449806
11
1.113618
21
0.964421
31
2.204767
0
LINE
8
ESTRADOSSO
10
0.767073
20
0.664305
30
2.771739
11
1.113618
21
0.964421
31
2.557731
0
LINE
8
INTRADOSSO
10
1.113618
20
0.964421
30
2.204767
11
1.417367
21
1.227476
31
1.875
0
LINE
8
ESTRADOSSO
10
1.113618
20
0.964421
30
2.557731
11
1.417367
21
1.227476
31
2.279609
0
LINE
8
INTRADOSSO
10
1.417367
20
1.227476
30
1.875
11
1.584664
21
1.372359
31
1.623798
0
LINE
8
ESTRADOSSO
10
1.417367
20
1.227476
30
2.279609
11
1.584664
21
1.372359
31
2.07791
0
LINE
8
INTRADOSSO
10
1.584664
20
1.372359
30
1.623798
11
1.875
21
1.623798
31
0.9375
0
LINE
8
ESTRADOSSO
10
1.584664
20
1.372359
30
2.07791
11
1.875
21
1.623798
31
1.599968
0
LINE
8
INTRADOSSO
10
0.0
20
0.0
30
2.65165
11
0.365794
21
0.365794
31
2.6007
0
LINE
8
ESTRADOSSO
10
0.0
20
0.0
30
2.95165
11
0.365794
21
0.365794
31
2.905964
0
LINE
8
INTRADOSSO
10
0.365794
20
0.365794
30
2.6007
11
0.717531
21
0.717531
31
2.449806
0
LINE
8
ESTRADOSSO
10
0.365794
20
0.365794
30
2.905964
11
0.717531
21
0.717531
31
2.771739
0
LINE
8
INTRADOSSO
10
0.717531
20
0.717531
30
2.449806
11
1.041694
21
1.041694
31
2.204767
0
LINE
8
ESTRADOSSO
10
0.717531
20
0.717531
30
2.771739
11
1.041694
21
1.041694
31
2.557731
0
LINE
8
INTRADOSSO
10
1.041694
20
1.041694
30
2.204767
11
1.325825
21
1.325825
31
1.875
0
LINE
8
ESTRADOSSO
10
1.041694
20
1.041694
30
2.557731
11
1.325825
21
1.325825
31
2.279609
0
LINE
8
INTRADOSSO
10
1.325825
20
1.325825
30
1.875
11
1.482318
21
1.482318
31
1.623798
0
LINE
8
ESTRADOSSO
10
1.325825
20
1.325825
30
2.279609
11
1.482318
21
1.482318
31
2.07791
0
LINE
8
INTRADOSSO
10
1.482318
20
1.482318
30
1.623798
11
1.753902
21
1.753902
31
0.9375
0
LINE
8
ESTRADOSSO
10
1.482318
20
1.482318
30
2.07791
11
1.753902
21
1.753902
31
1.599968
0
LINE
8
INTRADOSSO
10
1.753902
20
1.753902
30
0.9375
11
1.875
21
1.875
31
0.0
0
LINE
8
ESTRADOSSO
10
1.753902
20
1.753902
30
1.599968
11
1.875
21
1.875
31
1.29653
0
LINE
8
INTRADOSSO
10
0.0
20
0.0
30
2.65165
11
0.33866
21
0.391051
31
2.6007
0
LINE
8
ESTRADOSSO
10
0.0
20
0.0
30
2.95165
11
0.33866
21
0.391051
31
2.905964
0
LINE
8
INTRADOSSO
10
0.33866
20
0.391051
30
2.6007
11
0.664305
21
0.767073
31
2.449806
0
LINE
8
ESTRADOSSO
10
0.33866
20
0.391051
30
2.905964
11
0.664305
21
0.767073
31
2.771739
0
LINE
8
INTRADOSSO
10
0.664305
20
0.767073
30
2.449806
11
0.964421
21
1.113618
31
2.204767
0
LINE
8
ESTRADOSSO
10
0.664305
20
0.767073
30
2.771739
11
0.964421
21
1.113618
31
2.557731
0
LINE
8
INTRADOSSO
10
0.964421
20
1.113618
30
2.204767
11
1.227476
21
1.417367
31
1.875
0
LINE
8
ESTRADOSSO
10
0.964421
20
1.113618
30
2.557731
11
1.227476
21
1.417367
31
2.279609
0
LINE
8
INTRADOSSO
10
1.227476
20
1.417367
30
1.875
11
1.372359
21
1.584664
31
1.623798
0
LINE
8
ESTRADOSSO
10
1.227476
20
1.417367
30
2.279609
11
1.372359
21
1.584664
31
2.07791
0
LINE
8
INTRADOSSO
10
1.372359
20
1.584664
30
1.623798
11
1.623798
21
1.875
31
0.9375
0
LINE
8
ESTRADOSSO
10
1.372359
20
1.584664
30
2.07791
11
1.623798
21
1.875
31
1.599968
0
LINE
8
INTRADOSSO
10
0.0
20
0.0
30
2.65165
11
0.231349
21
0.462697
31
2.6007
0
LINE
8
ESTRADOSSO
10
0.0
20
0.0
30
2.95165
11
0.231349
21
0.462697
31
2.905964
0
LINE
8
INTRADOSSO
10
0.231349
20
0.462697
30
2.6007
11
0.453807
21
0.907613
31
2.449806
0
LINE
8
ESTRADOSSO
10
0.231349
20
0.462697
30
2.905964
11
0.453807
21
0.907613
31
2.771739
0
LINE
8
INTRADOSSO
10
0.453807
20
0.907613
30
2.449806
11
0.658825
21
1.317651
31
2.204767
0
LINE
8
ESTRADOSSO
10
0.453807
20
0.907613
30
2.771739
11
0.658825
21
1.317651
31
2.557731
0
LINE
8
INTRADOSSO
10
0.658825
20
1.317651
30
2.204767
11
0.838525
21
1.677051
31
1.875
0
LINE
8
ESTRADOSSO
10
0.658825
20
1.317651
30
2.557731
11
0.838525
21
1.677051
31
2.279609
0
LINE
8
INTRADOSSO
10
0.838525
20
1.677051
30
1.875
11
0.9375
21
1.875
31
1.623798
0
LINE
8
ESTRADOSSO
10
0.838525
20
1.677051
30
2.279609
11
0.9375
21
1.875
31
2.07791
0
LINE
8
INTRADOSSO
10
0.0
20
0.0
30
2.65165
11
-0.0
21
0.517311
31
2.6007
0
LINE
8
ESTRADOSSO
10
0.0
20
0.0
30
2.95165
11
-0.0
21
0.517311
31
2.905964
0
LINE
8
INTRADOSSO
10
-0.0
20
0.517311
30
2.6007
11
-0.0
21
1.014743
31
2.449806
0
LINE
8
ESTRADOSSO
10
-0.0
20
0.517311
30
2.905964
11
-0.0
21
1.014743
31
2.771739
0
LINE
8
INTRADOSSO
10
-0.0
20
1.014743
30
2.449806
11
-0.0
21
1.473178
31
2.204767
0
LINE
8
ESTRADOSSO
10
-0.0
20
1.014743
30
2.771739
11
-0.0
21
1.473178
31
2.557731
0
LINE
8
INTRADOSSO
10
-0.0
20
1.473178
30
2.204767
11
-0.0
21
1.875
31
1.875
0
LINE
8
ESTRADOSSO
10
-0.0
20
1.473178
30
2.557731
11
-0.0
21
1.875
31
2.279609
0
LINE
8
INTRADOSSO
10
0.0
20
0.0
30
2.65165
11
-0.231349
21
0.462697
31
2.6007
0
LINE
8
ESTRADOSSO
10
0.0
20
0.0
30
2.95165
11
-0.231349
21
0.462697
31
2.905964
0
LINE
8
INTRADOSSO
10
-0.231349
20
0.462697
30
2.6007
11
-0.453807
21
0.907613
31
2.449806
0
LINE
8
ESTRADOSSO
10
-0.231349
20
0.462697
30
2.905964
11
-0.453807
21
0.907613
31
2.771739
0
LINE
8
INTRADOSSO
10
-0.453807
20
0.907613
30
2.449806
11
-0.658825
21
1.317651
31
2.204767
0
LINE
8
ESTRADOSSO
10
-0.453807
20
0.907613
30
2.771739
11
-0.658825
21
1.317651
31
2.557731
0
LINE
8
INTRADOSSO
10
-0.658825
20
1.317651
30
2.204767
11
-0.838525
21
1.677051
31
1.875
0
LINE
8
ESTRADOSSO
10
-0.658825
20
1.317651
30
2.557731
11
-0.838525
21
1.677051
31
2.279609
0
LINE
8
INTRADOSSO
10
-0.838525
20
1.677051
30
1.875
11
-0.9375
21
1.875
31
1.623798
0
LINE
8
ESTRADOSSO
10
-0.838525
20
1.677051
30
2.279609
11
-0.9375
21
1.875
31
2.07791
0
LINE
8
INTRADOSSO
10
0.0
20
0.0
30
2.65165
11
-0.33866
21
0.391051
31
2.6007
0
LINE
8
ESTRADOSSO
10
0.0
20
0.0
30
2.95165
11
-0.33866
21
0.391051
31
2.905964
0
LINE
8
INTRADOSSO
10
-0.33866
20
0.391051
30
2.6007
11
-0.664305
21
0.767073
31
2.449806
0
LINE
8
ESTRADOSSO
10
-0.33866
20
0.391051
30
2.905964
11
-0.664305
21
0.767073
31
2.771739
0
LINE
8
INTRADOSSO
10
-0.664305
20
0.767073
30
2.449806
11
-0.964421
21
1.113618
31
2.204767
0
LINE
8
ESTRADOSSO
10
-0.664305
20
0.767073
30
2.771739
11
-0.964421
21
1.113618
31
2.557731
0
LINE
8
INTRADOSSO
10
-0.964421
20
1.113618
30
2.204767
11
-1.227476
21
1.417367
31
1.875
0
LINE
8
ESTRADOSSO
10
-0.964421
20
1.113618
30
2.557731
11
-1.227476
21
1.417367
31
2.279609
0
LINE
8
INTRADOSSO
10
-1.227476
20
1.417367
30
1.875
11
-1.372359
21
1.584664
31
1.623798
0
LINE
8
ESTRADOSSO
10
-1.227476
20
1.417367
30
2.279609
11
-1.372359
21
1.584664
31
2.07791
0
LINE
8
INTRADOSSO
10
-1.372359
20
1.584664
30
1.623798
11
-1.623798
21
1.875
31
0.9375
0
LINE
8
ESTRADOSSO
10
-1.372359
20
1.584664
30
2.07791
11
-1.623798
21
1.875
31
1.599968
0
LINE
8
INTRADOSSO
10
0.0
20
0.0
30
2.65165
11
-0.365794
21
0.365794
31
2.6007
0
LINE
8
ESTRADOSSO
10
0.0
20
0.0
30
2.95165
11
-0.365794
21
0.365794
31
2.905964
0
LINE
8
INTRADOSSO
10
-0.365794
20
0.365794
30
2.6007
11
-0.717531
21
0.717531
31
2.449806
0
LINE
8
ESTRADOSSO
10
-0.365794
20
0.365794
30
2.905964
11
-0.717531
21
0.717531
31
2.771739
0
LINE
8
INTRADOSSO
10
-0.717531
20
0.717531
30
2.449806
11
-1.041694
21
1.041694
31
2.204767
0
LINE
8
ESTRADOSSO
10
-0.717531
20
0.717531
30
2.771739
11
-1.041694
21
1.041694
31
2.557731
0
LINE
8
INTRADOSSO
10
-1.041694
20
1.041694
30
2.204767
11
-1.325825
21
1.325825
31
1.875
0
LINE
8
ESTRADOSSO
10
-1.041694
20
1.041694
30
2.557731
11
-1.325825
21
1.325825
31
2.279609
0
LINE
8
INTRADOSSO
10
-1.325825
20
1.325825
30
1.875
11
-1.482318
21
1.482318
31
1.623798
0
LINE
8
ESTRADOSSO
10
-1.325825
20
1.325825
30
2.279609
11
-1.482318
21
1.482318
31
2.07791
0
LINE
8
INTRADOSSO
10
-1.482318
20
1.482318
30
1.623798
11
-1.753902
21
1.753902
31
0.9375
0
LINE
8
ESTRADOSSO
10
-1.482318
20
1.482318
30
2.07791
11
-1.753902
21
1.753902
31
1.599968
0
LINE
8
INTRADOSSO
10
-1.753902
20
1.753902
30
0.9375
11
-1.875
21
1.875
31
0.0
0
LINE
8
ESTRADOSSO
10
-1.753902
20
1.753902
30
1.599968
11
-1.875
21
1.875
31
1.29653
0
LINE
8
INTRADOSSO
10
0.0
20
0.0
30
2.65165
11
-0.391051
21
0.33866
31
2.6007
0
LINE
8
ESTRADOSSO
10
0.0
20
0.0
30
2.95165
11
-0.391051
21
0.33866
31
2.905964
0
LINE
8
INTRADOSSO
10
-0.391051
20
0.33866
30
2.6007
11
-0.767073
21
0.664305
31
2.449806
0
LINE
8
ESTRADOSSO
10
-0.391051
20
0.33866
30
2.905964
11
-0.767073
21
0.664305
31
2.771739
0
LINE
8
INTRADOSSO
10
-0.767073
20
0.664305
30
2.449806
11
-1.113618
21
0.964421
31
2.204767
0
LINE
8
ESTRADOSSO
10
-0.767073
20
0.664305
30
2.771739
11
-1.113618
21
0.964421
31
2.557731
0
LINE
8
INTRADOSSO
10
-1.113618
20
0.964421
30
2.204767
11
-1.417367
21
1.227476
31
1.875
0
LINE
8
ESTRADOSSO
10
-1.113618
20
0.964421
30
2.557731
11
-1.417367
21
1.227476
31
2.279609
0
LINE
8
INTRADOSSO
10
-1.417367
20
1.227476
30
1.875
11
-1.584664
21
1.372359
31
1.623798
0
LINE
8
ESTRADOSSO
10
-1.417367
20
1.227476
30
2.279609
11
-1.584664
21
1.372359
31
2.07791
0
LINE
8
INTRADOSSO
10
-1.584664
20
1.372359
30
1.623798
11
-1.875
21
1.623798
31
0.9375
0
LINE
8
ESTRADOSSO
10
-1.584664
20
1.372359
30
2.07791
11
-1.875
21
1.623798
31
1.599968
0
LINE
8
INTRADOSSO
10
0.0
20
0.0
30
2.65165
11
-0.462697
21
0.231349
31
2.6007
0
LINE
8
ESTRADOSSO
10
0.0
20
0.0
30
2.95165
11
-0.462697
21
0.231349
31
2.905964
0
LINE
8
INTRADOSSO
10
-0.462697
20
0.231349
30
2.6007
11
-0.907613
21
0.453807
31
2.449806
0
LINE
8
ESTRADOSSO
10
-0.462697
20
0.231349
30
2.905964
11
-0.907613
21
0.453807
31
2.771739
0
LINE
8
INTRADOSSO
10
-0.907613
20
0.453807
30
2.449806
11
-1.317651
21
0.658825
31
2.204767
0
LINE
8
ESTRADOSSO
10
-0.907613
20
0.453807
30
2.771739
11
-1.317651
21
0.658825
31
2.557731
0
LINE
8
INTRADOSSO
10
-1.317651
20
0.658825
30
2.204767
11
-1.677051
21
0.838525
31
1.875
0
LINE
8
ESTRADOSSO
10
-1.317651
20
0.658825
30
2.557731
11
-1.677051
21
0.838525
31
2.279609
0
LINE
8
INTRADOSSO
10
-1.677051
20
0.838525
30
1.875
11
-1.875
21
0.9375
31
1.623798
0
LINE
8
ESTRADOSSO
10
-1.677051
20
0.838525
30
2.279609
11
-1.875
21
0.9375
31
2.07791
0
LINE
8
INTRADOSSO
10
0.0
20
0.0
30
2.65165
11
-0.517311
21
-0.0
31
2.6007
0
LINE
8
ESTRADOSSO
10
0.0
20
0.0
30
2.95165
11
-0.517311
21
-0.0
31
2.905964
0
LINE
8
INTRADOSSO
10
-0.517311
20
-0.0
30
2.6007
11
-1.014743
21
-0.0
31
2.449806
0
LINE
8
ESTRADOSSO
10
-0.517311
20
-0.0
30
2.905964
11
-1.014743
21
-0.0
31
2.771739
0
LINE
8
INTRADOSSO
10
-1.014743
20
-0.0
30
2.449806
11
-1.473178
21
-0.0
31
2.204767
0
LINE
8
ESTRADOSSO
10
-1.014743
20
-0.0
30
2.771739
11
-1.473178
21
-0.0
31
2.557731
0
LINE
8
INTRADOSSO
10
-1.473178
20
-0.0
30
2.204767
11
-1.875
21
-0.0
31
1.875
0
LINE
8
ESTRADOSSO
10
-1.473178
20
-0.0
30
2.557731
11
-1.875
21
-0.0
31
2.279609
0
LINE
8
INTRADOSSO
10
0.0
20
0.0
30
2.65165
11
-0.462697
21
-0.231349
31
2.6007
0
LINE
8
ESTRADOSSO
10
0.0
20
0.0
30
2.95165
11
-0.462697
21
-0.231349
31
2.905964
0
LINE
8
INTRADOSSO
10
-0.462697
20
-0.231349
30
2.6007
11
-0.907613
21
-0.453807
31
2.449806
0
LINE
8
ESTRADOSSO
10
-0.462697
20
-0.231349
30
2.905964
11
-0.907613
21
-0.453807
31
2.771739
0
LINE
8
INTRADOSSO
10
-0.907613
20
-0.453807
30
2.449806
11
-1.317651
21
-0.658825
31
2.204767
0
LINE
8
ESTRADOSSO
10
-0.907613
20
-0.453807
30
2.771739
11
-1.317651
21
-0.658825
31
2.557731
0
LINE
8
INTRADOSSO
10
-1.317651
20
-0.658825
30
2.204767
11
-1.677051
21
-0.838525
31
1.875
0
LINE
8
ESTRADOSSO
10
-1.317651
20
-0.658825
30
2.557731
11
-1.677051
21
-0.838525
31
2.279609
0
LINE
8
INTRADOSSO
10
-1.677051
20
-0.838525
30
1.875
11
-1.875
21
-0.9375
31
1.623798
0
LINE
8
ESTRADOSSO
10
-1.677051
20
-0.838525
30
2.279609
11
-1.875
21
-0.9375
31
2.07791
0
LINE
8
INTRADOSSO
10
0.0
20
0.0
30
2.65165
11
-0.391051
21
-0.33866
31
2.6007
0
LINE
8
ESTRADOSSO
10
0.0
20
0.0
30
2.95165
11
-0.391051
21
-0.33866
31
2.905964
0
LINE
8
INTRADOSSO
10
-0.391051
20
-0.33866
30
2.6007
11
-0.767073
21
-0.664305
31
2.449806
0
LINE
8
ESTRADOSSO
10
-0.391051
20
-0.33866
30
2.905964
11
-0.767073
21
-0.664305
31
2.771739
0
LINE
8
INTRADOSSO
10
-0.767073
20
-0.664305
30
2.449806
11
-1.113618
21
-0.964421
31
2.204767
0
LINE
8
ESTRADOSSO
10
-0.767073
20
-0.664305
30
2.771739
11
-1.113618
21
-0.964421
31
2.557731
0
LINE
8
INTRADOSSO
10
-1.113618
20
-0.964421
30
2.204767
11
-1.417367
21
-1.227476
31
1.875
0
LINE
8
ESTRADOSSO
10
-1.113618
20
-0.964421
30
2.557731
11
-1.417367
21
-1.227476
31
2.279609
0
LINE
8
INTRADOSSO
10
-1.417367
20
-1.227476
30
1.875
11
-1.584664
21
-1.372359
31
1.623798
0
LINE
8
ESTRADOSSO
10
-1.417367
20
-1.227476
30
2.279609
11
-1.584664
21
-1.372359
31
2.07791
0
LINE
8
INTRADOSSO
10
-1.584664
20
-1.372359
30
1.623798
11
-1.875
21
-1.623798
31
0.9375
0
LINE
8
ESTRADOSSO
10
-1.584664
20
-1.372359
30
2.07791
11
-1.875
21
-1.623798
31
1.599968
0
LINE
8
INTRADOSSO
10
0.0
20
0.0
30
2.65165
11
-0.365794
21
-0.365794
31
2.6007
0
LINE
8
ESTRADOSSO
10
0.0
20
0.0
30
2.95165
11
-0.365794
21
-0.365794
31
2.905964
0
LINE
8
INTRADOSSO
10
-0.365794
20
-0.365794
30
2.6007
11
-0.717531
21
-0.717531
31
2.449806
0
LINE
8
ESTRADOSSO
10
-0.365794
20
-0.365794
30
2.905964
11
-0.717531
21
-0.717531
31
2.771739
0
LINE
8
INTRADOSSO
10
-0.717531
20
-0.717531
30
2.449806
11
-1.041694
21
-1.041694
31
2.204767
0
LINE
8
ESTRADOSSO
10
-0.717531
20
-0.717531
30
2.771739
11
-1.041694
21
-1.041694
31
2.557731
0
LINE
8
INTRADOSSO
10
-1.041694
20
-1.041694
30
2.204767
11
-1.325825
21
-1.325825
31
1.875
0
LINE
8
ESTRADOSSO
10
-1.041694
20
-1.041694
30
2.557731
11
-1.325825
21
-1.325825
31
2.279609
0
LINE
8
INTRADOSSO
10
-1.325825
20
-1.325825
30
1.875
11
-1.482318
21
-1.482318
31
1.623798
0
LINE
8
ESTRADOSSO
10
-1.325825
20
-1.325825
30
2.279609
11
-1.482318
21
-1.482318
31
2.07791
0
LINE
8
INTRADOSSO
10
-1.482318
20
-1.482318
30
1.623798
11
-1.753902
21
-1.753902
31
0.9375
0
LINE
8
ESTRADOSSO
10
-1.482318
20
-1.482318
30
2.07791
11
-1.753902
21
-1.753902
31
1.599968
0
LINE
8
INTRADOSSO
10
-1.753902
20
-1.753902
30
0.9375
11
-1.875
21
-1.875
31
0.0
0
LINE
8
ESTRADOSSO
10
-1.753902
20
-1.753902
30
1.599968
11
-1.875
21
-1.875
31
1.29653
0
LINE
8
INTRADOSSO
10
0.0
20
0.0
30
2.65165
11
-0.33866
21
-0.391051
31
2.6007
0
LINE
8
ESTRADOSSO
10
0.0
20
0.0
30
2.95165
11
-0.33866
21
-0.391051
31
2.905964
0
LINE
8
INTRADOSSO
10
-0.33866
20
-0.391051
30
2.6007
11
-0.664305
21
-0.767073
31
2.449806
0
LINE
8
ESTRADOSSO
10
-0.33866
20
-0.391051
30
2.905964
11
-0.664305
21
-0.767073
31
2.771739
0
LINE
8
INTRADOSSO
10
-0.664305
20
-0.767073
30
2.449806
11
-0.964421
21
-1.113618
31
2.204767
0
LINE
8
ESTRADOSSO
10
-0.664305
20
-0.767073
30
2.771739
11
-0.964421
21
-1.113618
31
2.557731
0
LINE
8
INTRADOSSO
10
-0.964421
20
-1.113618
30
2.204767
11
-1.227476
21
-1.417367
31
1.875
0
LINE
8
ESTRADOSSO
10
-0.964421
20
-1.113618
30
2.557731
11
-1.227476
21
-1.417367
31
2.279609
0
LINE
8
INTRADOSSO
10
-1.227476
20
-1.417367
30
1.875
11
-1.372359
21
-1.584664
31
1.623798
0
LINE
8
ESTRADOSSO
10
-1.227476
20
-1.417367
30
2.279609
11
-1.372359
21
-1.584664
31
2.07791
0
LINE
8
INTRADOSSO
10
-1.372359
20
-1.584664
30
1.623798
11
-1.623798
21
-1.875
31
0.9375
0
LINE
8
ESTRADOSSO
10
-1.372359
20
-1.584664
30
2.07791
11
-1.623798
21
-1.875
31
1.599968
0
LINE
8
INTRADOSSO
10
0.0
20
0.0
30
2.65165
11
-0.231349
21
-0.462697
31
2.6007
0
LINE
8
ESTRADOSSO
10
0.0
20
0.0
30
2.95165
11
-0.231349
21
-0.462697
31
2.905964
0
LINE
8
INTRADOSSO
10
-0.231349
20
-0.462697
30
2.6007
11
-0.453807
21
-0.907613
31
2.449806
0
LINE
8
ESTRADOSSO
10
-0.231349
20
-0.462697
30
2.905964
11
-0.453807
21
-0.907613
31
2.771739
0
LINE
8
INTRADOSSO
10
-0.453807
20
-0.907613
30
2.449806
11
-0.658825
21
-1.317651
31
2.204767
0
LINE
8
ESTRADOSSO
10
-0.453807
20
-0.907613
30
2.771739
11
-0.658825
21
-1.317651
31
2.557731
0
LINE
8
INTRADOSSO
10
-0.658825
20
-1.317651
30
2.204767
11
-0.838525
21
-1.677051
31
1.875
0
LINE
8
ESTRADOSSO
10
-0.658825
20
-1.317651
30
2.557731
11
-0.838525
21
-1.677051
31
2.279609
0
LINE
8
INTRADOSSO
10
-0.838525
20
-1.677051
30
1.875
11
-0.9375
21
-1.875
31
1.623798
0
LINE
8
ESTRADOSSO
10
-0.838525
20
-1.677051
30
2.279609
11
-0.9375
21
-1.875
31
2.07791
0
LINE
8
INTRADOSSO
10
0.0
20
0.0
30
2.65165
11
0.0
21
-0.517311
31
2.6007
0
LINE
8
ESTRADOSSO
10
0.0
20
0.0
30
2.95165
11
0.0
21
-0.517311
31
2.905964
0
LINE
8
INTRADOSSO
10
0.0
20
-0.517311
30
2.6007
11
0.0
21
-1.014743
31
2.449806
0
LINE
8
ESTRADOSSO
10
0.0
20
-0.517311
30
2.905964
11
0.0
21
-1.014743
31
2.771739
0
LINE
8
INTRADOSSO
10
0.0
20
-1.014743
30
2.449806
11
0.0
21
-1.473178
31
2.204767
0
LINE
8
ESTRADOSSO
10
0.0
20
-1.014743
30
2.771739
11
0.0
21
-1.473178
31
2.557731
0
LINE
8
INTRADOSSO
10
0.0
20
-1.473178
30
2.204767
11
0.0
21
-1.875
31
1.875
0
LINE
8
ESTRADOSSO
10
0.0
20
-1.473178
30
2.557731
11
0.0
21
-1.875
31
2.279609
0
LINE
8
INTRADOSSO
10
0.0
20
0.0
30
2.65165
11
0.231349
21
-0.462697
31
2.6007
0
LINE
8
ESTRADOSSO
10
0.0
20
0.0
30
2.95165
11
0.231349
21
-0.462697
31
2.905964
0
LINE
8
INTRADOSSO
10
0.231349
20
-0.462697
30
2.6007
11
0.453807
21
-0.907613
31
2.449806
0
LINE
8
ESTRADOSSO
10
0.231349
20
-0.462697
30
2.905964
11
0.453807
21
-0.907613
31
2.771739
0
LINE
8
INTRADOSSO
10
0.453807
20
-0.907613
30
2.449806
11
0.658825
21
-1.317651
31
2.204767
0
LINE
8
ESTRADOSSO
10
0.453807
20
-0.907613
30
2.771739
11
0.658825
21
-1.317651
31
2.557731
0
LINE
8
INTRADOSSO
10
0.658825
20
-1.317651
30
2.204767
11
0.838525
21
-1.677051
31
1.875
0
LINE
8
ESTRADOSSO
10
0.658825
20
-1.317651
30
2.557731
11
0.838525
21
-1.677051
31
2.279609
0
LINE
8
INTRADOSSO
10
0.838525
20
-1.677051
30
1.875
11
0.9375
21
-1.875
31
1.623798
0
LINE
8
ESTRADOSSO
10
0.838525
20
-1.677051
30
2.279609
11
0.9375
21
-1.875
31
2.07791
0
LINE
8
INTRADOSSO
10
0.0
20
0.0
30
2.65165
11
0.33866
21
-0.391051
31
2.6007
0
LINE
8
ESTRADOSSO
10
0.0
20
0.0
30
2.95165
11
0.33866
21
-0.391051
31
2.905964
0
LINE
8
INTRADOSSO
10
0.33866
20
-0.391051
30
2.6007
11
0.664305
21
-0.767073
31
2.449806
0
LINE
8
ESTRADOSSO
10
0.33866
20
-0.391051
30
2.905964
11
0.664305
21
-0.767073
31
2.771739
0
LINE
8
INTRADOSSO
10
0.664305
20
-0.767073
30
2.449806
11
0.964421
21
-1.113618
31
2.204767
0
LINE
8
ESTRADOSSO
10
0.664305
20
-0.767073
30
2.771739
11
0.964421
21
-1.113618
31
2.557731
0
LINE
8
INTRADOSSO
10
0.964421
20
-1.113618
30
2.204767
11
1.227476
21
-1.417367
31
1.875
0
LINE
8
ESTRADOSSO
10
0.964421
20
-1.113618
30
2.557731
11
1.227476
21
-1.417367
31
2.279609
0
LINE
8
INTRADOSSO
10
1.227476
20
-1.417367
30
1.875
11
1.372359
21
-1.584664
31
1.623798
0
LINE
8
ESTRADOSSO
10
1.227476
20
-1.417367
30
2.279609
11
1.372359
21
-1.584664
31
2.07791
0
LINE
8
INTRADOSSO
10
1.372359
20
-1.584664
30
1.623798
11
1.623798
21
-1.875
31
0.9375
0
LINE
8
ESTRADOSSO
10
1.372359
20
-1.584664
30
2.07791
11
1.623798
21
-1.875
31
1.599968
0
LINE
8
INTRADOSSO
10
0.365794
20
-0.365794
30
2.6007
11
0.391051
21
-0.33866
31
2.6007
0
LINE
8
ESTRADOSSO
10
0.365794
20
-0.365794
30
2.905964
11
0.391051
21
-0.33866
31
2.905964
0
LINE
8
INTRADOSSO
10
0.717531
20
-0.717531
30
2.449806
11
0.767073
21
-0.664305
31
2.449806
0
LINE
8
ESTRADOSSO
10
0.717531
20
-0.717531
30
2.771739
11
0.767073
21
-0.664305
31
2.771739
0
LINE
8
INTRADOSSO
10
1.041694
20
-1.041694
30
2.204767
11
1.113618
21
-0.964421
31
2.204767
0
LINE
8
ESTRADOSSO
10
1.041694
20
-1.041694
30
2.557731
11
1.113618
21
-0.964421
31
2.557731
0
LINE
8
INTRADOSSO
10
1.325825
20
-1.325825
30
1.875
11
1.417367
21
-1.227476
31
1.875
0
LINE
8
ESTRADOSSO
10
1.325825
20
-1.325825
30
2.279609
11
1.417367
21
-1.227476
31
2.279609
0
LINE
8
INTRADOSSO
10
1.482318
20
-1.482318
30
1.623798
11
1.584664
21
-1.372359
31
1.623798
0
LINE
8
ESTRADOSSO
10
1.482318
20
-1.482318
30
2.07791
11
1.584664
21
-1.372359
31
2.07791
0
LINE
8
INTRADOSSO
10
1.753902
20
-1.753902
30
0.9375
11
1.875
21
-1.623798
31
0.9375
0
LINE
8
ESTRADOSSO
10
1.753902
20
-1.753902
30
1.599968
11
1.875
21
-1.623798
31
1.599968
0
LINE
8
INTRADOSSO
10
0.391051
20
-0.33866
30
2.6007
11
0.462697
21
-0.231349
31
2.6007
0
LINE
8
ESTRADOSSO
10
0.391051
20
-0.33866
30
2.905964
11
0.462697
21
-0.231349
31
2.905964
0
LINE
8
INTRADOSSO
10
0.767073
20
-0.664305
30
2.449806
11
0.907613
21
-0.453807
31
2.449806
0
LINE
8
ESTRADOSSO
10
0.767073
20
-0.664305
30
2.771739
11
0.907613
21
-0.453807
31
2.771739
0
LINE
8
INTRADOSSO
10
1.113618
20
-0.964421
30
2.204767
11
1.317651
21
-0.658825
31
2.204767
0
LINE
8
ESTRADOSSO
10
1.113618
20
-0.964421
30
2.557731
11
1.317651
21
-0.658825
31
2.557731
0
LINE
8
INTRADOSSO
10
1.417367
20
-1.227476
30
1.875
11
1.677051
21
-0.838525
31
1.875
0
LINE
8
ESTRADOSSO
10
1.417367
20
-1.227476
30
2.279609
11
1.677051
21
-0.838525
31
2.279609
0
LINE
8
INTRADOSSO
10
1.584664
20
-1.372359
30
1.623798
11
1.875
21
-0.9375
31
1.623798
0
LINE
8
ESTRADOSSO
10
1.584664
20
-1.372359
30
2.07791
11
1.875
21
-0.9375
31
2.07791
0
LINE
8
INTRADOSSO
10
0.462697
20
-0.231349
30
2.6007
11
0.517311
21
0.0
31
2.6007
0
LINE
8
ESTRADOSSO
10
0.462697
20
-0.231349
30
2.905964
11
0.517311
21
0.0
31
2.905964
0
LINE
8
INTRADOSSO
10
0.907613
20
-0.453807
30
2.449806
11
1.014743
21
0.0
31
2.449806
0
LINE
8
ESTRADOSSO
10
0.907613
20
-0.453807
30
2.771739
11
1.014743
21
0.0
31
2.771739
0
LINE
8
INTRADOSSO
10
1.317651
20
-0.658825
30
2.204767
11
1.473178
21
0.0
31
2.204767
0
LINE
8
ESTRADOSSO
10
1.317651
20
-0.658825
30
2.557731
11
1.473178
21
0.0
31
2.557731
0
LINE
8
INTRADOSSO
10
1.677051
20
-0.838525
30
1.875
11
1.875
21
0.0
31
1.875
0
LINE
8
ESTRADOSSO
10
1.677051
20
-0.838525
30
2.279609
11
1.875
21
0.0
31
2.279609
0
LINE
8
INTRADOSSO
10
0.517311
20
0.0
30
2.6007
11
0.462697
21
0.231349
31
2.6007
0
LINE
8
ESTRADOSSO
10
0.517311
20
0.0
30
2.905964
11
0.462697
21
0.231349
31
2.905964
0
LINE
8
INTRADOSSO
10
1.014743
20
0.0
30
2.449806
11
0.907613
21
0.453807
31
2.449806
0
LINE
8
ESTRADOSSO
10
1.014743
20
0.0
30
2.771739
11
0.907613
21
0.453807
31
2.771739
0
LINE
8
INTRADOSSO
10
1.473178
20
0.0
30
2.204767
11
1.317651
21
0.658825
31
2.204767
0
LINE
8
ESTRADOSSO
10
1.473178
20
0.0
30
2.557731
11
1.317651
21
0.658825
31
2.557731
0
LINE
8
INTRADOSSO
10
1.875
20
0.0
30
1.875
11
1.677051
21
0.838525
31
1.875
0
LINE
8
ESTRADOSSO
10
1.875
20
0.0
30
2.279609
11
1.677051
21
0.838525
31
2.279609
0
LINE
8
INTRADOSSO
10
0.462697
20
0.231349
30
2.6007
11
0.391051
21
0.33866
31
2.6007
0
LINE
8
ESTRADOSSO
10
0.462697
20
0.231349
30
2.905964
11
0.391051
21
0.33866
31
2.905964
0
LINE
8
INTRADOSSO
10
0.907613
20
0.453807
30
2.449806
11
0.767073
21
0.664305
31
2.449806
0
LINE
8
ESTRADOSSO
10
0.907613
20
0.453807
30
2.771739
11
0.767073
21
0.664305
31
2.771739
0
LINE
8
INTRADOSSO
10
1.317651
20
0.658825
30
2.204767
11
1.113618
21
0.964421
31
2.204767
0
LINE
8
ESTRADOSSO
10
1.317651
20
0.658825
30
2.557731
11
1.113618
21
0.964421
31
2.557731
0
LINE
8
INTRADOSSO
10
1.677051
20
0.838525
30
1.875
11
1.417367
21
1.227476
31
1.875
0
LINE
8
ESTRADOSSO
10
1.677051
20
0.838525
30
2.279609
11
1.417367
21
1.227476
31
2.279609
0
LINE
8
INTRADOSSO
10
1.875
20
0.9375
30
1.623798
11
1.584664
21
1.372359
31
1.623798
0
LINE
8
ESTRADOSSO
10
1.875
20
0.9375
30
2.07791
11
1.584664
21
1.372359
31
2.07791
0
LINE
8
INTRADOSSO
10
0.391051
20
0.33866
30
2.6007
11
0.365794
21
0.365794
31
2.6007
0
LINE
8
ESTRADOSSO
10
0.391051
20
0.33866
30
2.905964
11
0.365794
21
0.365794
31
2.905964
0
LINE
8
INTRADOSSO
10
0.767073
20
0.664305
30
2.449806
11
0.717531
21
0.717531
31
2.449806
0
LINE
8
ESTRADOSSO
10
0.767073
20
0.664305
30
2.771739
11
0.717531
21
0.717531
31
2.771739
0
LINE
8
INTRADOSSO
10
1.113618
20
0.964421
30
2.204767
11
1.041694
21
1.041694
31
2.204767
0
LINE
8
ESTRADOSSO
10
1.113618
20
0.964421
30
2.557731
11
1.041694
21
1.041694
31
2.557731
0
LINE
8
INTRADOSSO
10
1.417367
20
1.227476
30
1.875
11
1.325825
21
1.325825
31
1.875
0
LINE
8
ESTRADOSSO
10
1.417367
20
1.227476
30
2.279609
11
1.325825
21
1.325825
31
2.279609
0
LINE
8
INTRADOSSO
10
1.584664
20
1.372359
30
1.623798
11
1.482318
21
1.482318
31
1.623798
0
LINE
8
ESTRADOSSO
10
1.584664
20
1.372359
30
2.07791
11
1.482318
21
1.482318
31
2.07791
0
LINE
8
INTRADOSSO
10
1.875
20
1.623798
30
0.9375
11
1.753902
21
1.753902
31
0.9375
0
LINE
8
ESTRADOSSO
10
1.875
20
1.623798
30
1.599968
11
1.753902
21
1.753902
31
1.599968
0
LINE
8
INTRADOSSO
10
0.365794
20
0.365794
30
2.6007
11
0.33866
21
0.391051
31
2.6007
0
LINE
8
ESTRADOSSO
10
0.365794
20
0.365794
30
2.905964
11
0.33866
21
0.391051
31
2.905964
0
LINE
8
INTRADOSSO
10
0.717531
20
0.717531
30
2.449806
11
0.664305
21
0.767073
31
2.449806
0
LINE
8
ESTRADOSSO
10
0.717531
20
0.717531
30
2.771739
11
0.664305
21
0.767073
31
2.771739
0
LINE
8
INTRADOSSO
10
1.041694
20
1.041694
30
2.204767
11
0.964421
21
1.113618
31
2.204767
0
LINE
8
ESTRADOSSO
10
1.041694
20
1.041694
30
2.557731
11
0.964421
21
1.113618
31
2.557731
0
LINE
8
INTRADOSSO
10
1.325825
20
1.325825
30
1.875
11
1.227476
21
1.417367
31
1.875
0
LINE
8
ESTRADOSSO
10
1.325825
20
1.325825
30
2.279609
11
1.227476
21
1.417367
31
2.279609
0
LINE
8
INTRADOSSO
10
1.482318
20
1.482318
30
1.623798
11
1.372359
21
1.584664
31
1.623798
0
LINE
8
ESTRADOSSO
10
1.482318
20
1.482318
30
2.07791
11
1.372359
21
1.584664
31
2.07791
0
LINE
8
INTRADOSSO
10
1.753902
20
1.753902
30
0.9375
11
1.623798
21
1.875
31
0.9375
0
LINE
8
ESTRADOSSO
10
1.753902
20
1.753902
30
1.599968
11
1.623798
21
1.875
31
1.599968
0
LINE
8
INTRADOSSO
10
0.33866
20
0.391051
30
2.6007
11
0.231349
21
0.462697
31
2.6007
0
LINE
8
ESTRADOSSO
10
0.33866
20
0.391051
30
2.905964
11
0.231349
21
0.462697
31
2.905964
0
LINE
8
INTRADOSSO
10
0.664305
20
0.767073
30
2.449806
11
0.453807
21
0.907613
31
2.449806
0
LINE
8
ESTRADOSSO
10
0.664305
20
0.767073
30
2.771739
11
0.453807
21
0.907613
31
2.771739
0
LINE
8
INTRADOSSO
10
0.964421
20
1.113618
30
2.204767
11
0.658825
21
1.317651
31
2.204767
0
LINE
8
ESTRADOSSO
10
0.964421
20
1.113618
30
2.557731
11
0.658825
21
1.317651
31
2.557731
0
LINE
8
INTRADOSSO
10
1.227476
20
1.417367
30
1.875
11
0.838525
21
1.677051
31
1.875
0
LINE
8
ESTRADOSSO
10
1.227476
20
1.417367
30
2.279609
11
0.838525
21
1.677051
31
2.279609
0
LINE
8
INTRADOSSO
10
1.372359
20
1.584664
30
1.623798
11
0.9375
21
1.875
31
1.623798
0
LINE
8
ESTRADOSSO
10
1.372359
20
1.584664
30
2.07791
11
0.9375
21
1.875
31
2.07791
0
LINE
8
INTRADOSSO
10
0.231349
20
0.462697
30
2.6007
11
-0.0
21
0.517311
31
2.6007
0
LINE
8
ESTRADOSSO
10
0.231349
20
0.462697
30
2.905964
11
-0.0
21
0.517311
31
2.905964
0
LINE
8
INTRADOSSO
10
0.453807
20
0.907613
30
2.449806
11
-0.0
21
1.014743
31
2.449806
0
LINE
8
ESTRADOSSO
10
0.453807
20
0.907613
30
2.771739
11
-0.0
21
1.014743
31
2.771739
0
LINE
8
INTRADOSSO
10
0.658825
20
1.317651
30
2.204767
11
-0.0
21
1.473178
31
2.204767
0
LINE
8
ESTRADOSSO
10
0.658825
20
1.317651
30
2.557731
11
-0.0
21
1.473178
31
2.557731
0
LINE
8
INTRADOSSO
10
0.838525
20
1.677051
30
1.875
11
-0.0
21
1.875
31
1.875
0
LINE
8
ESTRADOSSO
10
0.838525
20
1.677051
30
2.279609
11
-0.0
21
1.875
31
2.279609
0
LINE
8
INTRADOSSO
10
-0.0
20
0.517311
30
2.6007
11
-0.231349
21
0.462697
31
2.6007
0
LINE
8
ESTRADOSSO
10
-0.0
20
0.517311
30
2.905964
11
-0.231349
21
0.462697
31
2.905964
0
LINE
8
INTRADOSSO
10
-0.0
20
1.014743
30
2.449806
11
-0.453807
21
0.907613
31
2.449806
0
LINE
8
ESTRADOSSO
10
-0.0
20
1.014743
30
2.771739
11
-0.453807
21
0.907613
31
2.771739
0
LINE
8
INTRADOSSO
10
-0.0
20
1.473178
30
2.204767
11
-0.658825
21
1.317651
31
2.204767
0
LINE
8
ESTRADOSSO
10
-0.0
20
1.473178
30
2.557731
11
-0.658825
21
1.317651
31
2.557731
0
LINE
8
INTRADOSSO
10
-0.0
20
1.875
30
1.875
11
-0.838525
21
1.677051
31
1.875
0
LINE
8
ESTRADOSSO
10
-0.0
20
1.875
30
2.279609
11
-0.838525
21
1.677051
31
2.279609
0
LINE
8
INTRADOSSO
10
-0.231349
20
0.462697
30
2.6007
11
-0.33866
21
0.391051
31
2.6007
0
LINE
8
ESTRADOSSO
10
-0.231349
20
0.462697
30
2.905964
11
-0.33866
21
0.391051
31
2.905964
0
LINE
8
INTRADOSSO
10
-0.453807
20
0.907613
30
2.449806
11
-0.664305
21
0.767073
31
2.449806
0
LINE
8
ESTRADOSSO
10
-0.453807
20
0.907613
30
2.771739
11
-0.664305
21
0.767073
31
2.771739
0
LINE
8
INTRADOSSO
10
-0.658825
20
1.317651
30
2.204767
11
-0.964421
21
1.113618
31
2.204767
0
LINE
8
ESTRADOSSO
10
-0.658825
20
1.317651
30
2.557731
11
-0.964421
21
1.113618
31
2.557731
0
LINE
8
INTRADOSSO
10
-0.838525
20
1.677051
30
1.875
11
-1.227476
21
1.417367
31
1.875
0
LINE
8
ESTRADOSSO
10
-0.838525
20
1.677051
30
2.279609
11
-1.227476
21
1.417367
31
2.279609
0
LINE
8
INTRADOSSO
10
-0.9375
20
1.875
30
1.623798
11
-1.372359
21
1.584664
31
1.623798
0
LINE
8
ESTRADOSSO
10
-0.9375
20
1.875
30
2.07791
11
-1.372359
21
1.584664
31
2.07791
0
LINE
8
INTRADOSSO
10
-0.33866
20
0.391051
30
2.6007
11
-0.365794
21
0.365794
31
2.6007
0
LINE
8
ESTRADOSSO
10
-0.33866
20
0.391051
30
2.905964
11
-0.365794
21
0.365794
31
2.905964
0
LINE
8
INTRADOSSO
10
-0.664305
20
0.767073
30
2.449806
11
-0.717531
21
0.717531
31
2.449806
0
LINE
8
ESTRADOSSO
10
-0.664305
20
0.767073
30
2.771739
11
-0.717531
21
0.717531
31
2.771739
0
LINE
8
INTRADOSSO
10
-0.964421
20
1.113618
30
2.204767
11
-1.041694
21
1.041694
31
2.204767
0
LINE
8
ESTRADOSSO
10
-0.964421
20
1.113618
30
2.557731
11
-1.041694
21
1.041694
31
2.557731
0
LINE
8
INTRADOSSO
10
-1.227476
20
1.417367
30
1.875
11
-1.325825
21
1.325825
31
1.875
0
LINE
8
ESTRADOSSO
10
-1.227476
20
1.417367
30
2.279609
11
-1.325825
21
1.325825
31
2.279609
0
LINE
8
INTRADOSSO
10
-1.372359
20
1.584664
30
1.623798
11
-1.482318
21
1.482318
31
1.623798
0
LINE
8
ESTRADOSSO
10
-1.372359
20
1.584664
30
2.07791
11
-1.482318
21
1.482318
31
2.07791
0
LINE
8
INTRADOSSO
10
-1.623798
20
1.875
30
0.9375
11
-1.753902
21
1.753902
31
0.9375
0
LINE
8
ESTRADOSSO
10
-1.623798
20
1.875
30
1.599968
11
-1.753902
21
1.753902
31
1.599968
0
LINE
8
INTRADOSSO
10
-0.365794
20
0.365794
30
2.6007
11
-0.391051
21
0.33866
31
2.6007
0
LINE
8
ESTRADOSSO
10
-0.365794
20
0.365794
30
2.905964
11
-0.391051
21
0.33866
31
2.905964
0
LINE
8
INTRADOSSO
10
-0.717531
20
0.717531
30
2.449806
11
-0.767073
21
0.664305
31
2.449806
0
LINE
8
ESTRADOSSO
10
-0.717531
20
0.717531
30
2.771739
11
-0.767073
21
0.664305
31
2.771739
0
LINE
8
INTRADOSSO
10
-1.041694
20
1.041694
30
2.204767
11
-1.113618
21
0.964421
31
2.204767
0
LINE
8
ESTRADOSSO
10
-1.041694
20
1.041694
30
2.557731
11
-1.113618
21
0.964421
31
2.557731
0
LINE
8
INTRADOSSO
10
-1.325825
20
1.325825
30
1.875
11
-1.417367
21
1.227476
31
1.875
0
LINE
8
ESTRADOSSO
10
-1.325825
20
1.325825
30
2.279609
11
-1.417367
21
1.227476
31
2.279609
0
LINE
8
INTRADOSSO
10
-1.482318
20
1.482318
30
1.623798
11
-1.584664
21
1.372359
31
1.623798
0
LINE
8
ESTRADOSSO
10
-1.482318
20
1.482318
30
2.07791
11
-1.584664
21
1.372359
31
2.07791
0
LINE
8
INTRADOSSO
10
-1.753902
20
1.753902
30
0.9375
11
-1.875
21
1.623798
31
0.9375
0
LINE
8
ESTRADOSSO
10
-1.753902
20
1.753902
30
1.599968
11
-1.875
21
1.623798
31
1.599968
0
LINE
8
INTRADOSSO
10
-0.391051
20
0.33866
30
2.6007
11
-0.462697
21
0.231349
31
2.6007
0
LINE
8
ESTRADOSSO
10
-0.391051
20
0.33866
30
2.905964
11
-0.462697
21
0.231349
31
2.905964
0
LINE
8
INTRADOSSO
10
-0.767073
20
0.664305
30
2.449806
11
-0.907613
21
0.453807
31
2.449806
0
LINE
8
ESTRADOSSO
10
-0.767073
20
0.664305
30
2.771739
11
-0.907613
21
0.453807
31
2.771739
0
LINE
8
INTRADOSSO
10
-1.113618
20
0.964421
30
2.204767
11
-1.317651
21
0.658825
31
2.204767
0
LINE
8
ESTRADOSSO
10
-1.113618
20
0.964421
30
2.557731
11
-1.317651
21
0.658825
31
2.557731
0
LINE
8
INTRADOSSO
10
-1.417367
20
1.227476
30
1.875
11
-1.677051
21
0.838525
31
1.875
0
LINE
8
ESTRADOSSO
10
-1.417367
20
1.227476
30
2.279609
11
-1.677051
21
0.838525
31
2.279609
0
LINE
8
INTRADOSSO
10
-1.584664
20
1.372359
30
1.623798
11
-1.875
21
0.9375
31
1.623798
0
LINE
8
ESTRADOSSO
10
-1.584664
20
1.372359
30
2.07791
11
-1.875
21
0.9375
31
2.07791
0
LINE
8
INTRADOSSO
10
-0.462697
20
0.231349
30
2.6007
11
-0.517311
21
-0.0
31
2.6007
0
LINE
8
ESTRADOSSO
10
-0.462697
20
0.231349
30
2.905964
11
-0.517311
21
-0.0
31
2.905964
0
LINE
8
INTRADOSSO
10
-0.907613
20
0.453807
30
2.449806
11
-1.014743
21
-0.0
31
2.449806
0
LINE
8
ESTRADOSSO
10
-0.907613
20
0.453807
30
2.771739
11
-1.014743
21
-0.0
31
2.771739
0
LINE
8
INTRADOSSO
10
-1.317651
20
0.658825
30
2.204767
11
-1.473178
21
-0.0
31
2.204767
0
LINE
8
ESTRADOSSO
10
-1.317651
20
0.658825
30
2.557731
11
-1.473178
21
-0.0
31
2.557731
0
LINE
8
INTRADOSSO
10
-1.677051
20
0.838525
30
1.875
11
-1.875
21
-0.0
31
1.875
0
LINE
8
ESTRADOSSO
10
-1.677051
20
0.838525
30
2.279609
11
-1.875
21
-0.0
31
2.279609
0
LINE
8
INTRADOSSO
10
-0.517311
20
-0.0
30
2.6007
11
-0.462697
21
-0.231349
31
2.6007
0
LINE
8
ESTRADOSSO
10
-0.517311
20
-0.0
30
2.905964
11
-0.462697
21
-0.231349
31
2.905964
0
LINE
8
INTRADOSSO
10
-1.014743
20
-0.0
30
2.449806
11
-0.907613
21
-0.453807
31
2.449806
0
LINE
8
ESTRADOSSO
10
-1.014743
20
-0.0
30
2.771739
11
-0.907613
21
-0.453807
31
2.771739
0
LINE
8
INTRADOSSO
10
-1.473178
20
-0.0
30
2.204767
11
-1.317651
21
-0.658825
31
2.204767
0
LINE
8
ESTRADOSSO
10
-1.473178
20
-0.0
30
2.557731
11
-1.317651
21
-0.658825
31
2.557731
0
LINE
8
INTRADOSSO
10
-1.875
20
-0.0
30
1.875
11
-1.677051
21
-0.838525
31
1.875
0
LINE
8
ESTRADOSSO
10
-1.875
20
-0.0
30
2.279609
11
-1.677051
21
-0.838525
31
2.279609
0
LINE
8
INTRADOSSO
10
-0.462697
20
-0.231349
30
2.6007
11
-0.391051
21
-0.33866
31
2.6007
0
LINE
8
ESTRADOSSO
10
-0.462697
20
-0.231349
30
2.905964
11
-0.391051
21
-0.33866
31
2.905964
0
LINE
8
INTRADOSSO
10
-0.907613
20
-0.453807
30
2.449806
11
-0.767073
21
-0.664305
31
2.449806
0
LINE
8
ESTRADOSSO
10
-0.907613
20
-0.453807
30
2.771739
11
-0.767073
21
-0.664305
31
2.771739
0
LINE
8
INTRADOSSO
10
-1.317651
20
-0.658825
30
2.204767
11
-1.113618
21
-0.964421
31
2.204767
0
LINE
8
ESTRADOSSO
10
-1.317651
20
-0.658825
30
2.557731
11
-1.113618
21
-0.964421
31
2.557731
0
LINE
8
INTRADOSSO
10
-1.677051
20
-0.838525
30
1.875
11
-1.417367
21
-1.227476
31
1.875
0
LINE
8
ESTRADOSSO
10
-1.677051
20
-0.838525
30
2.279609
11
-1.417367
21
-1.227476
31
2.279609
0
LINE
8
INTRADOSSO
10
-1.875
20
-0.9375
30
1.623798
11
-1.584664
21
-1.372359
31
1.623798
0
LINE
8
ESTRADOSSO
10
-1.875
20
-0.9375
30
2.07791
11
-1.584664
21
-1.372359
31
2.07791
0
LINE
8
INTRADOSSO
10
-0.391051
20
-0.33866
30
2.6007
11
-0.365794
21
-0.365794
31
2.6007
0
LINE
8
ESTRADOSSO
10
-0.391051
20
-0.33866
30
2.905964
11
-0.365794
21
-0.365794
31
2.905964
0
LINE
8
INTRADOSSO
10
-0.767073
20
-0.664305
30
2.449806
11
-0.717531
21
-0.717531
31
2.449806
0
LINE
8
ESTRADOSSO
10
-0.767073
20
-0.664305
30
2.771739
11
-0.717531
21
-0.717531
31
2.771739
0
LINE
8
INTRADOSSO
10
-1.113618
20
-0.964421
30
2.204767
11
-1.041694
21
-1.041694
31
2.204767
0
LINE
8
ESTRADOSSO
10
-1.113618
20
-0.964421
30
2.557731
11
-1.041694
21
-1.041694
31
2.557731
0
LINE
8
INTRADOSSO
10
-1.417367
20
-1.227476
30
1.875
11
-1.325825
21
-1.325825
31
1.875
0
LINE
8
ESTRADOSSO
10
-1.417367
20
-1.227476
30
2.279609
11
-1.325825
21
-1.325825
31
2.279609
0
LINE
8
INTRADOSSO
10
-1.584664
20
-1.372359
30
1.623798
11
-1.482318
21
-1.482318
31
1.623798
0
LINE
8
ESTRADOSSO
10
-1.584664
20
-1.372359
30
2.07791
11
-1.482318
21
-1.482318
31
2.07791
0
LINE
8
INTRADOSSO
10
-1.875
20
-1.623798
30
0.9375
11
-1.753902
21
-1.753902
31
0.9375
0
LINE
8
ESTRADOSSO
10
-1.875
20
-1.623798
30
1.599968
11
-1.753902
21
-1.753902
31
1.599968
0
LINE
8
INTRADOSSO
10
-0.365794
20
-0.365794
30
2.6007
11
-0.33866
21
-0.391051
31
2.6007
0
LINE
8
ESTRADOSSO
10
-0.365794
20
-0.365794
30
2.905964
11
-0.33866
21
-0.391051
31
2.905964
0
LINE
8
INTRADOSSO
10
-0.717531
20
-0.717531
30
2.449806
11
-0.664305
21
-0.767073
31
2.449806
0
LINE
8
ESTRADOSSO
10
-0.717531
20
-0.717531
30
2.771739
11
-0.664305
21
-0.767073
31
2.771739
0
LINE
8
INTRADOSSO
10
-1.041694
20
-1.041694
30
2.204767
11
-0.964421
21
-1.113618
31
2.204767
0
LINE
8
ESTRADOSSO
10
-1.041694
20
-1.041694
30
2.557731
11
-0.964421
21
-1.113618
31
2.557731
0
LINE
8
INTRADOSSO
10
-1.325825
20
-1.325825
30
1.875
11
-1.227476
21
-1.417367
31
1.875
0
LINE
8
ESTRADOSSO
10
-1.325825
20
-1.325825
30
2.279609
11
-1.227476
21
-1.417367
31
2.279609
0
LINE
8
INTRADOSSO
10
-1.482318
20
-1.482318
30
1.623798
11
-1.372359
21
-1.584664
31
1.623798
0
LINE
8
ESTRADOSSO
10
-1.482318
20
-1.482318
30
2.07791
11
-1.372359
21
-1.584664
31
2.07791
0
LINE
8
INTRADOSSO
10
-1.753902
20
-1.753902
30
0.9375
11
-1.623798
21
-1.875
31
0.9375
0
LINE
8
ESTRADOSSO
10
-1.753902
20
-1.753902
30
1.599968
11
-1.623798
21
-1.875
31
1.599968
0
LINE
8
INTRADOSSO
10
-0.33866
20
-0.391051
30
2.6007
11
-0.231349
21
-0.462697
31
2.6007
0
LINE
8
ESTRADOSSO
10
-0.33866
20
-0.391051
30
2.905964
11
-0.231349
21
-0.462697
31
2.905964
0
LINE
8
INTRADOSSO
10
-0.664305
20
-0.767073
30
2.449806
11
-0.453807
21
-0.907613
31
2.449806
0
LINE
8
ESTRADOSSO
10
-0.664305
20
-0.767073
30
2.771739
11
-0.453807
21
-0.907613
31
2.771739
0
LINE
8
INTRADOSSO
10
-0.964421
20
-1.113618
30
2.204767
11
-0.658825
21
-1.317651
31
2.204767
0
LINE
8
ESTRADOSSO
10
-0.964421
20
-1.113618
30
2.557731
11
-0.658825
21
-1.317651
31
2.557731
0
LINE
8
INTRADOSSO
10
-1.227476
20
-1.417367
30
1.875
11
-0.838525
21
-1.677051
31
1.875
0
LINE
8
ESTRADOSSO
10
-1.227476
20
-1.417367
30
2.279609
11
-0.838525
21
-1.677051
31
2.279609
0
LINE
8
INTRADOSSO
10
-1.372359
20
-1.584664
30
1.623798
11
-0.9375
21
-1.875
31
1.623798
0
LINE
8
ESTRADOSSO
10
-1.372359
20
-1.584664
30
2.07791
11
-0.9375
21
-1.875
31
2.07791
0
LINE
8
INTRADOSSO
10
-0.231349
20
-0.462697
30
2.6007
11
0.0
21
-0.517311
31
2.6007
0
LINE
8
ESTRADOSSO
10
-0.231349
20
-0.462697
30
2.905964
11
0.0
21
-0.517311
31
2.905964
0
LINE
8
INTRADOSSO
10
-0.453807
20
-0.907613
30
2.449806
11
0.0
21
-1.014743
31
2.449806
0
LINE
8
ESTRADOSSO
10
-0.453807
20
-0.907613
30
2.771739
11
0.0
21
-1.014743
31
2.771739
0
LINE
8
INTRADOSSO
10
-0.658825
20
-1.317651
30
2.204767
11
0.0
21
-1.473178
31
2.204767
0
LINE
8
ESTRADOSSO
10
-0.658825
20
-1.317651
30
2.557731
11
0.0
21
-1.473178
31
2.557731
0
LINE
8
INTRADOSSO
10
-0.838525
20
-1.677051
30
1.875
11
0.0
21
-1.875
31
1.875
0
LINE
8
ESTRADOSSO
10
-0.838525
20
-1.677051
30
2.279609
11
0.0
21
-1.875
31
2.279609
0
LINE
8
INTRADOSSO
10
0.0
20
-0.517311
30
2.6007
11
0.231349
21
-0.462697
31
2.6007
0
LINE
8
ESTRADOSSO
10
0.0
20
-0.517311
30
2.905964
11
0.231349
21
-0.462697
31
2.905964
0
LINE
8
INTRADOSSO
10
0.0
20
-1.014743
30
2.449806
11
0.453807
21
-0.907613
31
2.449806
0
LINE
8
ESTRADOSSO
10
0.0
20
-1.014743
30
2.771739
11
0.453807
21
-0.907613
31
2.771739
0
LINE
8
INTRADOSSO
10
0.0
20
-1.473178
30
2.204767
11
0.658825
21
-1.317651
31
2.204767
0
LINE
8
ESTRADOSSO
10
0.0
20
-1.473178
30
2.557731
11
0.658825
21
-1.317651
31
2.557731
0
LINE
8
INTRADOSSO
10
0.0
20
-1.875
30
1.875
11
0.838525
21
-1.677051
31
1.875
0
LINE
8
ESTRADOSSO
10
0.0
20
-1.875
30
2.279609
11
0.838525
21
-1.677051
31
2.279609
0
LINE
8
INTRADOSSO
10
0.231349
20
-0.462697
30
2.6007
11
0.33866
21
-0.391051
31
2.6007
0
LINE
8
ESTRADOSSO
10
0.231349
20
-0.462697
30
2.905964
11
0.33866
21
-0.391051
31
2.905964
0
LINE
8
INTRADOSSO
10
0.453807
20
-0.907613
30
2.449806
11
0.664305
21
-0.767073
31
2.449806
0
LINE
8
ESTRADOSSO
10
0.453807
20
-0.907613
30
2.771739
11
0.664305
21
-0.767073
31
2.771739
0
LINE
8
INTRADOSSO
10
0.658825
20
-1.317651
30
2.204767
11
0.964421
21
-1.113618
31
2.204767
0
LINE
8
ESTRADOSSO
10
0.658825
20
-1.317651
30
2.557731
11
0.964421
21
-1.113618
31
2.557731
0
LINE
8
INTRADOSSO
10
0.838525
20
-1.677051
30
1.875
11
1.227476
21
-1.417367
31
1.875
0
LINE
8
ESTRADOSSO
10
0.838525
20
-1.677051
30
2.279609
11
1.227476
21
-1.417367
31
2.279609
0
LINE
8
INTRADOSSO
10
0.9375
20
-1.875
30
1.623798
11
1.372359
21
-1.584664
31
1.623798
0
LINE
8
ESTRADOSSO
10
0.9375
20
-1.875
30
2.07791
11
1.372359
21
-1.584664
31
2.07791
0
LINE
8
INTRADOSSO
10
0.33866
20
-0.391051
30
2.6007
11
0.365794
21
-0.365794
31
2.6007
0
LINE
8
ESTRADOSSO
10
0.33866
20
-0.391051
30
2.905964
11
0.365794
21
-0.365794
31
2.905964
0
LINE
8
INTRADOSSO
10
0.664305
20
-0.767073
30
2.449806
11
0.717531
21
-0.717531
31
2.449806
0
LINE
8
ESTRADOSSO
10
0.664305
20
-0.767073
30
2.771739
11
0.717531
21
-0.717531
31
2.771739
0
LINE
8
INTRADOSSO
10
0.964421
20
-1.113618
30
2.204767
11
1.041694
21
-1.041694
31
2.204767
0
LINE
8
ESTRADOSSO
10
0.964421
20
-1.113618
30
2.557731
11
1.041694
21
-1.041694
31
2.557731
0
LINE
8
INTRADOSSO
10
1.227476
20
-1.417367
30
1.875
11
1.325825
21
-1.325825
31
1.875
0
LINE
8
ESTRADOSSO
10
1.227476
20
-1.417367
30
2.279609
11
1.325825
21
-1.325825
31
2.279609
0
LINE
8
INTRADOSSO
10
1.372359
20
-1.584664
30
1.623798
11
1.482318
21
-1.482318
31
1.623798
0
LINE
8
ESTRADOSSO
10
1.372359
20
-1.584664
30
2.07791
11
1.482318
21
-1.482318
31
2.07791
0
LINE
8
INTRADOSSO
10
1.623798
20
-1.875
30
0.9375
11
1.753902
21
-1.753902
31
0.9375
0
LINE
8
ESTRADOSSO
10
1.623798
20
-1.875
30
1.599968
11
1.753902
21
-1.753902
31
1.599968
0
LINE
8
INTRADOSSO
10
1.875
20
-1.875
30
0.0
11
1.875
21
-1.623798
31
0.9375
0
LINE
8
ESTRADOSSO
10
1.875
20
-1.875
30
1.29653
11
1.875
21
-1.623798
31
1.599968
0
LINE
8
INTRADOSSO
10
1.875
20
-1.623798
30
0.9375
11
1.875
21
-0.9375
31
1.623798
0
LINE
8
ESTRADOSSO
10
1.875
20
-1.623798
30
1.599968
11
1.875
21
-0.9375
31
2.07791
0
LINE
8
INTRADOSSO
10
1.875
20
-0.9375
30
1.623798
11
1.875
21
0.0
31
1.875
0
LINE
8
ESTRADOSSO
10
1.875
20
-0.9375
30
2.07791
11
1.875
21
0.0
31
2.279609
0
LINE
8
INTRADOSSO
10
1.875
20
0.0
30
1.875
11
1.875
21
0.9375
31
1.623798
0
LINE
8
ESTRADOSSO
10
1.875
20
0.0
30
2.279609
11
1.875
21
0.9375
31
2.07791
0
LINE
8
INTRADOSSO
10
1.875
20
0.9375
30
1.623798
11
1.875
21
1.623798
31
0.9375
0
LINE
8
ESTRADOSSO
10
1.875
20
0.9375
30
2.07791
11
1.875
21
1.623798
31
1.599968
0
LINE
8
INTRADOSSO
10
1.875
20
1.623798
30
0.9375
11
1.875
21
1.875
31
0.0
0
LINE
8
ESTRADOSSO
10
1.875
20
1.623798
30
1.599968
11
1.875
21
1.875
31
1.29653
0
LINE
8
INTRADOSSO
10
1.875
20
1.875
30
0.0
11
1.623798
21
1.875
31
0.9375
0
LINE
8
ESTRADOSSO
10
1.875
20
1.875
30
1.29653
11
1.623798
21
1.875
31
1.599968
0
LINE
8
INTRADOSSO
10
1.623798
20
1.875
30
0.9375
11
0.9375
21
1.875
31
1.623798
0
LINE
8
ESTRADOSSO
10
1.623798
20
1.875
30
1.599968
11
0.9375
21
1.875
31
2.07791
0
LINE
8
INTRADOSSO
10
0.9375
20
1.875
30
1.623798
11
-0.0
21
1.875
31
1.875
0
LINE
8
ESTRADOSSO
10
0.9375
20
1.875
30
2.07791
11
-0.0
21
1.875
31
2.279609
0
LINE
8
INTRADOSSO
10
-0.0
20
1.875
30
1.875
11
-0.9375
21
1.875
31
1.623798
0
LINE
8
ESTRADOSSO
10
-0.0
20
1.875
30
2.279609
11
-0.9375
21
1.875
31
2.07791
0
LINE
8
INTRADOSSO
10
-0.9375
20
1.875
30
1.623798
11
-1.623798
21
1.875
31
0.9375
0
LINE
8
ESTRADOSSO
10
-0.9375
20
1.875
30
2.07791
11
-1.623798
21
1.875
31
1.599968
0
LINE
8
INTRADOSSO
10
-1.623798
20
1.875
30
0.9375
11
-1.875
21
1.875
31
0.0
0
LINE
8
ESTRADOSSO
10
-1.623798
20
1.875
30
1.599968
11
-1.875
21
1.875
31
1.29653
0
LINE
8
INTRADOSSO
10
-1.875
20
1.875
30
0.0
11
-1.875
21
1.623798
31
0.9375
0
LINE
8
ESTRADOSSO
10
-1.875
20
1.875
30
1.29653
11
-1.875
21
1.623798
31
1.599968
0
LINE
8
INTRADOSSO
10
-1.875
20
1.623798
30
0.9375
11
-1.875
21
0.9375
31
1.623798
0
LINE
8
ESTRADOSSO
10
-1.875
20
1.623798
30
1.599968
11
-1.875
21
0.9375
31
2.07791
0
LINE
8
INTRADOSSO
10
-1.875
20
0.9375
30
1.623798
11
-1.875
21
-0.0
31
1.875
0
LINE
8
ESTRADOSSO
10
-1.875
20
0.9375
30
2.07791
11
-1.875
21
-0.0
31
2.279609
0
LINE
8
INTRADOSSO
10
-1.875
20
-0.0
30
1.875
11
-1.875
21
-0.9375
31
1.623798
0
LINE
8
ESTRADOSSO
10
-1.875
20
-0.0
30
2.279609
11
-1.875
21
-0.9375
31
2.07791
0
LINE
8
INTRADOSSO
10
-1.875
20
-0.9375
30
1.623798
11
-1.875
21
-1.623798
31
0.9375
0
LINE
8
ESTRADOSSO
10
-1.875
20
-0.9375
30
2.07791
11
-1.875
21
-1.623798
31
1.599968
0
LINE
8
INTRADOSSO
10
-1.875
20
-1.623798
30
0.9375
11
-1.875
21
-1.875
31
0.0
0
LINE
8
ESTRADOSSO
10
-1.875
20
-1.623798
30
1.599968
11
-1.875
21
-1.875
31
1.29653
0
LINE
8
INTRADOSSO
10
-1.875
20
-1.875
30
0.0
11
-1.623798
21
-1.875
31
0.9375
0
LINE
8
ESTRADOSSO
10
-1.875
20
-1.875
30
1.29653
11
-1.623798
21
-1.875
31
1.599968
0
LINE
8
INTRADOSSO
10
-1.623798
20
-1.875
30
0.9375
11
-0.9375
21
-1.875
31
1.623798
0
LINE
8
ESTRADOSSO
10
-1.623798
20
-1.875
30
1.599968
11
-0.9375
21
-1.875
31
2.07791
0
LINE
8
INTRADOSSO
10
-0.9375
20
-1.875
30
1.623798
11
0.0
21
-1.875
31
1.875
0
LINE
8
ESTRADOSSO
10
-0.9375
20
-1.875
30
2.07791
11
0.0
21
-1.875
31
2.279609
0
LINE
8
INTRADOSSO
10
0.0
20
-1.875
30
1.875
11
0.9375
21
-1.875
31
1.623798
0
LINE
8
ESTRADOSSO
10
0.0
20
-1.875
30
2.279609
11
0.9375
21
-1.875
31
2.07791
0
LINE
8
INTRADOSSO
10
0.9375
20
-1.875
30
1.623798
11
1.623798
21
-1.875
31
0.9375
0
LINE
8
ESTRADOSSO
10
0.9375
20
-1.875
30
2.07791
11
1.623798
21
-1.875
31
1.599968
0
LINE
8
INTRADOSSO
10
1.623798
20
-1.875
30
0.9375
11
1.875
21
-1.875
31
0.0
0
LINE
8
ESTRADOSSO
10
1.623798
20
-1.875
30
1.599968
11
1.875
21
-1.875
31
1.29653
0
LINE
8
INTRADOSSO
10
1.875
20
-1.875
30
0.0
11
2.125
21
-1.875
31
0.0
0
LINE
8
ESTRADOSSO
10
1.875
20
-1.875
30
1.29653
11
2.125
21
-1.875
31
1.29653
0
LINE
8
INTRADOSSO
10
1.875
20
-1.623798
30
0.9375
11
2.125
21
-1.623798
31
0.9375
0
LINE
8
ESTRADOSSO
10
1.875
20
-1.623798
30
1.599968
11
2.125
21
-1.623798
31
1.599968
0
LINE
8
INTRADOSSO
10
1.875
20
-0.9375
30
1.623798
11
2.125
21
-0.9375
31
1.623798
0
LINE
8
ESTRADOSSO
10
1.875
20
-0.9375
30
2.07791
11
2.125
21
-0.9375
31
2.07791
0
LINE
8
INTRADOSSO
10
1.875
20
0.0
30
1.875
11
2.125
21
0.0
31
1.875
0
LINE
8
ESTRADOSSO
10
1.875
20
0.0
30
2.279609
11
2.125
21
0.0
31
2.279609
0
LINE
8
INTRADOSSO
10
1.875
20
0.9375
30
1.623798
11
2.125
21
0.9375
31
1.623798
0
LINE
8
ESTRADOSSO
10
1.875
20
0.9375
30
2.07791
11
2.125
21
0.9375
31
2.07791
0
LINE
8
INTRADOSSO
10
1.875
20
1.623798
30
0.9375
11
2.125
21
1.623798
31
0.9375
0
LINE
8
ESTRADOSSO
10
1.875
20
1.623798
30
1.599968
11
2.125
21
1.623798
31
1.599968
0
LINE
8
INTRADOSSO
10
1.875
20
1.875
30
0.0
11
2.125
21
1.875
31
0.0
0
LINE
8
ESTRADOSSO
10
1.875
20
1.875
30
1.29653
11
2.125
21
1.875
31
1.29653
0
LINE
8
INTRADOSSO
10
2.125
20
-1.875
30
0.0
11
2.125
21
-1.623798
31
0.9375
0
LINE
8
ESTRADOSSO
10
2.125
20
-1.875
30
1.29653
11
2.125
21
-1.623798
31
1.599968
0
LINE
8
INTRADOSSO
10
2.125
20
-1.623798
30
0.9375
11
2.125
21
-0.9375
31
1.623798
0
LINE
8
ESTRADOSSO
10
2.125
20
-1.623798
30
1.599968
11
2.125
21
-0.9375
31
2.07791
0
LINE
8
INTRADOSSO
10
2.125
20
-0.9375
30
1.623798
11
2.125
21
0.0
31
1.875
0
LINE
8
ESTRADOSSO
10
2.125
20
-0.9375
30
2.07791
11
2.125
21
0.0
31
2.279609
0
LINE
8
INTRADOSSO
10
2.125
20
0.0
30
1.875
11
2.125
21
0.9375
31
1.623798
0
LINE
8
ESTRADOSSO
10
2.125
20
0.0
30
2.279609
11
2.125
21
0.9375
31
2.07791
0
LINE
8
INTRADOSSO
10
2.125
20
0.9375
30
1.623798
11
2.125
21
1.623798
31
0.9375
0
LINE
8
ESTRADOSSO
10
2.125
20
0.9375
30
2.07791
11
2.125
21
1.623798
31
1.599968
0
LINE
8
INTRADOSSO
10
2.125
20
1.623798
30
0.9375
11
2.125
21
1.875
31
0.0
0
LINE
8
ESTRADOSSO
10
2.125
20
1.623798
30
1.599968
11
2.125
21
1.875
31
1.29653
0
LINE
8
INTRADOSSO
10
-1.875
20
1.875
30
0.0
11
-2.125
21
1.875
31
0.0
0
LINE
8
ESTRADOSSO
10
-1.875
20
1.875
30
1.29653
11
-2.125
21
1.875
31
1.29653
0
LINE
8
INTRADOSSO
10
-1.875
20
1.623798
30
0.9375
11
-2.125
21
1.623798
31
0.9375
0
LINE
8
ESTRADOSSO
10
-1.875
20
1.623798
30
1.599968
11
-2.125
21
1.623798
31
1.599968
0
LINE
8
INTRADOSSO
10
-1.875
20
0.9375
30
1.623798
11
-2.125
21
0.9375
31
1.623798
0
LINE
8
ESTRADOSSO
10
-1.875
20
0.9375
30
2.07791
11
-2.125
21
0.9375
31
2.07791
0
LINE
8
INTRADOSSO
10
-1.875
20
-0.0
30
1.875
11
-2.125
21
-0.0
31
1.875
0
LINE
8
ESTRADOSSO
10
-1.875
20
-0.0
30
2.279609
11
-2.125
21
-0.0
31
2.279609
0
LINE
8
INTRADOSSO
10
-1.875
20
-0.9375
30
1.623798
11
-2.125
21
-0.9375
31
1.623798
0
LINE
8
ESTRADOSSO
10
-1.875
20
-0.9375
30
2.07791
11
-2.125
21
-0.9375
31
2.07791
0
LINE
8
INTRADOSSO
10
-1.875
20
-1.623798
30
0.9375
11
-2.125
21
-1.623798
31
0.9375
0
LINE
8
ESTRADOSSO
10
-1.875
20
-1.623798
30
1.599968
11
-2.125
21
-1.623798
31
1.599968
0
LINE
8
INTRADOSSO
10
-1.875
20
-1.875
30
0.0
11
-2.125
21
-1.875
31
0.0
0
LINE
8
ESTRADOSSO
10
-1.875
20
-1.875
30
1.29653
11
-2.125
21
-1.875
31
1.29653
0
LINE
8
INTRADOSSO
10
-2.125
20
1.875
30
0.0
11
-2.125
21
1.623798
31
0.9375
0
LINE
8
ESTRADOSSO
10
-2.125
20
1.875
30
1.29653
11
-2.125
21
1.623798
31
1.599968
0
LINE
8
INTRADOSSO
10
-2.125
20
1.623798
30
0.9375
11
-2.125
21
0.9375
31
1.623798
0
LINE
8
ESTRADOSSO
10
-2.125
20
1.623798
30
1.599968
11
-2.125
21
0.9375
31
2.07791
0
LINE
8
INTRADOSSO
10
-2.125
20
0.9375
30
1.623798
11
-2.125
21
-0.0
31
1.875
0
LINE
8
ESTRADOSSO
10
-2.125
20
0.9375
30
2.07791
11
-2.125
21
-0.0
31
2.279609
0
LINE
8
INTRADOSSO
10
-2.125
20
-0.0
30
1.875
11
-2.125
21
-0.9375
31
1.623798
0
LINE
8
ESTRADOSSO
10
-2.125
20
-0.0
30
2.279609
11
-2.125
21
-0.9375
31
2.07791
0
LINE
8
INTRADOSSO
10
-2.125
20
-0.9375
30
1.623798
11
-2.125
21
-1.623798
31
0.9375
0
LINE
8
ESTRADOSSO
10
-2.125
20
-0.9375
30
2.07791
11
-2.125
21
-1.623798
31
1.599968
0
LINE
8
INTRADOSSO
10
-2.125
20
-1.623798
30
0.9375
11
-2.125
21
-1.875
31
0.0
0
LINE
8
ESTRADOSSO
10
-2.125
20
-1.623798
30
1.599968
11
-2.125
21
-1.875
31
1.29653
0
LINE
8
INTRADOSSO
10
2.125
20
-1.623798
30
0.9375
11
2.725
21
-1.623798
31
1.0625
0
LINE
8
ESTRADOSSO
10
2.125
20
-1.623798
30
1.599968
11
2.725
21
-1.623798
31
1.599968
0
LINE
8
INTRADOSSO
10
2.125
20
-0.9375
30
1.623798
11
2.725
21
-0.9375
31
1.748798
0
LINE
8
ESTRADOSSO
10
2.125
20
-0.9375
30
2.07791
11
2.725
21
-0.9375
31
2.07791
0
LINE
8
INTRADOSSO
10
2.125
20
0.0
30
1.875
11
2.725
21
0.0
31
2.0
0
LINE
8
ESTRADOSSO
10
2.125
20
0.0
30
2.279609
11
2.725
21
0.0
31
2.279609
0
LINE
8
INTRADOSSO
10
2.125
20
0.9375
30
1.623798
11
2.725
21
0.9375
31
1.748798
0
LINE
8
ESTRADOSSO
10
2.125
20
0.9375
30
2.07791
11
2.725
21
0.9375
31
2.07791
0
LINE
8
INTRADOSSO
10
2.125
20
1.623798
30
0.9375
11
2.725
21
1.623798
31
1.0625
0
LINE
8
ESTRADOSSO
10
2.125
20
1.623798
30
1.599968
11
2.725
21
1.623798
31
1.599968
0
LINE
8
INTRADOSSO
10
-2.125
20
1.623798
30
0.9375
11
-2.725
21
1.623798
31
1.0625
0
LINE
8
ESTRADOSSO
10
-2.125
20
1.623798
30
1.599968
11
-2.725
21
1.623798
31
1.599968
0
LINE
8
INTRADOSSO
10
-2.125
20
0.9375
30
1.623798
11
-2.725
21
0.9375
31
1.748798
0
LINE
8
ESTRADOSSO
10
-2.125
20
0.9375
30
2.07791
11
-2.725
21
0.9375
31
2.07791
0
LINE
8
INTRADOSSO
10
-2.125
20
-0.0
30
1.875
11
-2.725
21
-0.0
31
2.0
0
LINE
8
ESTRADOSSO
10
-2.125
20
-0.0
30
2.279609
11
-2.725
21
-0.0
31
2.279609
0
LINE
8
INTRADOSSO
10
-2.125
20
-0.9375
30
1.623798
11
-2.725
21
-0.9375
31
1.748798
0
LINE
8
ESTRADOSSO
10
-2.125
20
-0.9375
30
2.07791
11
-2.725
21
-0.9375
31
2.07791
0
LINE
8
INTRADOSSO
10
-2.125
20
-1.623798
30
0.9375
11
-2.725
21
-1.623798
31
1.0625
0
LINE
8
ESTRADOSSO
10
-2.125
20
-1.623798
30
1.599968
11
-2.725
21
-1.623798
31
1.599968
0
LINE
8
INTRADOSSO
10
1.623798
20
1.875
30
0.9375
11
1.623798
21
2.475
31
-2.0625
0
LINE
8
ESTRADOSSO
10
1.623798
20
1.875
30
1.599968
11
1.623798
21
2.475
31
1.599968
0
LINE
8
INTRADOSSO
10
0.9375
20
1.875
30
1.623798
11
0.9375
21
2.475
31
-1.376202
0
LINE
8
ESTRADOSSO
10
0.9375
20
1.875
30
2.07791
11
0.9375
21
2.475
31
2.07791
0
LINE
8
INTRADOSSO
10
-0.0
20
1.875
30
1.875
11
-0.0
21
2.475
31
-1.125
0
LINE
8
ESTRADOSSO
10
-0.0
20
1.875
30
2.279609
11
-0.0
21
2.475
31
2.279609
0
LINE
8
INTRADOSSO
10
-0.9375
20
1.875
30
1.623798
11
-0.9375
21
2.475
31
-1.376202
0
LINE
8
ESTRADOSSO
10
-0.9375
20
1.875
30
2.07791
11
-0.9375
21
2.475
31
2.07791
0
LINE
8
INTRADOSSO
10
-1.623798
20
1.875
30
0.9375
11
-1.623798
21
2.475
31
-2.0625
0
LINE
8
ESTRADOSSO
10
-1.623798
20
1.875
30
1.599968
11
-1.623798
21
2.475
31
1.599968
0
LINE
8
INTRADOSSO
10
-1.623798
20
-1.875
30
0.9375
11
-1.623798
21
-2.475
31
-2.0625
0
LINE
8
ESTRADOSSO
10
-1.623798
20
-1.875
30
1.599968
11
-1.623798
21
-2.475
31
1.599968
0
LINE
8
INTRADOSSO
10
-0.9375
20
-1.875
30
1.623798
11
-0.9375
21
-2.475
31
-1.376202
0
LINE
8
ESTRADOSSO
10
-0.9375
20
-1.875
30
2.07791
11
-0.9375
21
-2.475
31
2.07791
0
LINE
8
INTRADOSSO
10
0.0
20
-1.875
30
1.875
11
0.0
21
-2.475
31
-1.125
0
LINE
8
ESTRADOSSO
10
0.0
20
-1.875
30
2.279609
11
0.0
21
-2.475
31
2.279609
0
LINE
8
INTRADOSSO
10
0.9375
20
-1.875
30
1.623798
11
0.9375
21
-2.475
31
-1.376202
0
LINE
8
ESTRADOSSO
10
0.9375
20
-1.875
30
2.07791
11
0.9375
21
-2.475
31
2.07791
0
LINE
8
INTRADOSSO
10
1.623798
20
-1.875
30
0.9375
11
1.623798
21
-2.475
31
-2.0625
0
LINE
8
ESTRADOSSO
10
1.623798
20
-1.875
30
1.599968
11
1.623798
21
-2.475
31
1.599968
0
LINE
8
INTRADOSSO
10
1.875
20
1.875
30
0.0
11
2.375
21
2.375
31
-3.0
0
LINE
8
ESTRADOSSO
10
1.875
20
1.875
30
1.29653
11
2.375
21
2.375
31
0.0
0
LINE
8
INTRADOSSO
10
-1.875
20
1.875
30
0.0
11
-2.375
21
2.375
31
-3.0
0
LINE
8
ESTRADOSSO
10
-1.875
20
1.875
30
1.29653
11
-2.375
21
2.375
31
0.0
0
LINE
8
INTRADOSSO
10
-1.875
20
-1.875
30
0.0
11
-2.375
21
-2.375
31
-3.0
0
LINE
8
ESTRADOSSO
10
-1.875
20
-1.875
30
1.29653
11
-2.375
21
-2.375
31
0.0
0
LINE
8
INTRADOSSO
10
1.875
20
-1.875
30
0.0
11
2.375
21
-2.375
31
-3.0
0
LINE
8
ESTRADOSSO
10
1.875
20
-1.875
30
1.29653
11
2.375
21
-2.375
31
0.0
0
LINE
8
INTRADOSSO
10
2.125
20
-1.875
30
0.0
11
2.125
21
-2.375
31
0.0
0
LINE
8
ESTRADOSSO
10
2.125
20
-1.875
30
1.29653
11
2.125
21
-2.375
31
-3.0
0
LINE
8
INTRADOSSO
10
2.125
20
1.875
30
0.0
11
2.125
21
2.375
31
0.0
0
LINE
8
ESTRADOSSO
10
2.125
20
1.875
30
1.29653
11
2.125
21
2.375
31
-3.0
0
LINE
8
INTRADOSSO
10
-2.125
20
1.875
30
0.0
11
-2.125
21
2.375
31
0.0
0
LINE
8
ESTRADOSSO
10
-2.125
20
1.875
30
1.29653
11
-2.125
21
2.375
31
-3.0
0
LINE
8
INTRADOSSO
10
-2.125
20
-1.875
30
0.0
11
-2.125
21
-2.375
31
0.0
0
LINE
8
ESTRADOSSO
10
-2.125
20
-1.875
30
1.29653
11
-2.125
21
-2.375
31
-3.0
0
POINT
8
INTERNAL
10
0.0
20
0.0
30
2.65165
0
TEXT
8
ID-NODES
10
0.0
20
0.0
30
2.65165
40
0.05
1
1
72
1
11
0.0
21
0.0
31
2.65165
73
2
0
LINE
8
fz
10
0.0
20
0.0
30
2.95165
11
0.0
21
0.0
31
10.72965
0
POINT
8
INTERNAL
10
0.365794
20
-0.365794
30
2.6007
0
TEXT
8
ID-NODES
10
0.365794
20
-0.365794
30
2.6007
40
0.05
1
2
72
1
11
0.365794
21
-0.365794
31
2.6007
73
2
0
LINE
8
fz
10
0.365794
20
-0.365794
30
2.905964
11
0.365794
21
-0.365794
31
3.293964
0
POINT
8
INTERNAL
10
0.717531
20
-0.717531
30
2.449806
0
TEXT
8
ID-NODES
10
0.717531
20
-0.717531
30
2.449806
40
0.05
1
3
72
1
11
0.717531
21
-0.717531
31
2.449806
73
2
0
LINE
8
fz
10
0.717531
20
-0.717531
30
2.771739
11
0.717531
21
-0.717531
31
3.6297390000000003
0
POINT
8
INTERNAL
10
1.041694
20
-1.041694
30
2.204767
0
TEXT
8
ID-NODES
10
1.041694
20
-1.041694
30
2.204767
40
0.05
1
4
72
1
11
1.041694
21
-1.041694
31
2.204767
73
2
0
LINE
8
fz
10
1.041694
20
-1.041694
30
2.557731
11
1.041694
21
-1.041694
31
3.9757309999999997
0
POINT
8
INTERNAL
10
1.325825
20
-1.325825
30
1.875
0
TEXT
8
ID-NODES
10
1.325825
20
-1.325825
30
1.875
40
0.05
1
5
72
1
11
1.325825
21
-1.325825
31
1.875
73
2
0
LINE
8
fz
10
1.325825
20
-1.325825
30
2.279609
11
1.325825
21
-1.325825
31
3.8276090000000003
0
POINT
8
INTERNAL
10
1.482318
20
-1.482318
30
1.623798
0
TEXT
8
ID-NODES
10
1.482318
20
-1.482318
30
1.623798
40
0.05
1
6
72
1
11
1.482318
21
-1.482318
31
1.623798
73
2
0
LINE
8
fz
10
1.482318
20
-1.482318
30
2.07791
11
1.482318
21
-1.482318
31
4.5839099999999995
0
POINT
8
INTERNAL
10
1.753902
20
-1.753902
30
0.9375
0
TEXT
8
ID-NODES
10
1.753902
20
-1.753902
30
0.9375
40
0.05
1
7
72
1
11
1.753902
21
-1.753902
31
0.9375
73
2
0
LINE
8
fz
10
1.753902
20
-1.753902
30
1.599968
11
1.753902
21
-1.753902
31
4.001968
0
POINT
8
INTERNAL
10
1.875
20
-1.875
30
0.0
0
TEXT
8
ID-NODES
10
1.875
20
-1.875
30
0.0
40
0.05
1
8
72
1
11
1.875
21
-1.875
31
0.0
73
2
0
LINE
8
fz
10
1.875
20
-1.875
30
1.29653
11
1.875
21
-1.875
31
3.16653
0
POINT
8
INTERNAL
10
0.391051
20
-0.33866
30
2.6007
0
TEXT
8
ID-NODES
10
0.391051
20
-0.33866
30
2.6007
40
0.05
1
9
72
1
11
0.391051
21
-0.33866
31
2.6007
73
2
0
LINE
8
fz
10
0.391051
20
-0.33866
30
2.905964
11
0.391051
21
-0.33866
31
3.771964
0
POINT
8
INTERNAL
10
0.767073
20
-0.664305
30
2.449806
0
TEXT
8
ID-NODES
10
0.767073
20
-0.664305
30
2.449806
40
0.05
1
10
72
1
11
0.767073
21
-0.664305
31
2.449806
73
2
0
LINE
8
fz
10
0.767073
20
-0.664305
30
2.771739
11
0.767073
21
-0.664305
31
4.683739
0
POINT
8
INTERNAL
10
1.113618
20
-0.964421
30
2.204767
0
TEXT
8
ID-NODES
10
1.113618
20
-0.964421
30
2.204767
40
0.05
1
11
72
1
11
1.113618
21
-0.964421
31
2.204767
73
2
0
LINE
8
fz
10
1.113618
20
-0.964421
30
2.557731
11
1.113618
21
-0.964421
31
5.717731000000001
0
POINT
8
INTERNAL
10
1.417367
20
-1.227476
30
1.875
0
TEXT
8
ID-NODES
10
1.417367
20
-1.227476
30
1.875
40
0.05
1
12
72
1
11
1.417367
21
-1.227476
31
1.875
73
2
0
LINE
8
fz
10
1.417367
20
-1.227476
30
2.279609
11
1.417367
21
-1.227476
31
5.729609
0
POINT
8
INTERNAL
10
1.584664
20
-1.372359
30
1.623798
0
TEXT
8
ID-NODES
10
1.584664
20
-1.372359
30
1.623798
40
0.05
1
13
72
1
11
1.584664
21
-1.372359
31
1.623798
73
2
0
LINE
8
fz
10
1.584664
20
-1.372359
30
2.07791
11
1.584664
21
-1.372359
31
5.86991
0
POINT
8
INTERNAL
10
1.875
20
-1.623798
30
0.9375
0
TEXT
8
ID-NODES
10
1.875
20
-1.623798
30
0.9375
40
0.05
1
14
72
1
11
1.875
21
-1.623798
31
0.9375
73
2
0
LINE
8
fz
10
1.875
20
-1.623798
30
1.599968
11
1.875
21
-1.623798
31
8.187968
0
POINT
8
INTERNAL
10
0.462697
20
-0.231349
30
2.6007
0
TEXT
8
ID-NODES
10
0.462697
20
-0.231349
30
2.6007
40
0.05
1
15
72
1
11
0.462697
21
-0.231349
31
2.6007
73
2
0
LINE
8
fz
10
0.462697
20
-0.231349
30
2.905964
11
0.462697
21
-0.231349
31
4.791964
0
POINT
8
INTERNAL
10
0.907613
20
-0.453807
30
2.449806
0
TEXT
8
ID-NODES
10
0.907613
20
-0.453807
30
2.449806
40
0.05
1
16
72
1
11
0.907613
21
-0.453807
31
2.449806
73
2
0
LINE
8
fz
10
0.907613
20
-0.453807
30
2.771739
11
0.907613
21
-0.453807
31
6.933739
0
POINT
8
INTERNAL
10
1.317651
20
-0.658825
30
2.204767
0
TEXT
8
ID-NODES
10
1.317651
20
-0.658825
30
2.204767
40
0.05
1
17
72
1
11
1.317651
21
-0.658825
31
2.204767
73
2
0
LINE
8
fz
10
1.317651
20
-0.658825
30
2.557731
11
1.317651
21
-0.658825
31
9.439731
0
POINT
8
INTERNAL
10
1.677051
20
-0.838525
30
1.875
0
TEXT
8
ID-NODES
10
1.677051
20
-0.838525
30
1.875
40
0.05
1
18
72
1
11
1.677051
21
-0.838525
31
1.875
73
2
0
LINE
8
fz
10
1.677051
20
-0.838525
30
2.279609
11
1.677051
21
-0.838525
31
8.621609
0
POINT
8
INTERNAL
10
1.875
20
-0.9375
30
1.623798
0
TEXT
8
ID-NODES
10
1.875
20
-0.9375
30
1.623798
40
0.05
1
19
72
1
11
1.875
21
-0.9375
31
1.623798
73
2
0
LINE
8
fz
10
1.875
20
-0.9375
30
2.07791
11
1.875
21
-0.9375
31
11.97991
0
POINT
8
INTERNAL
10
0.517311
20
0.0
30
2.6007
0
TEXT
8
ID-NODES
10
0.517311
20
0.0
30
2.6007
40
0.05
1
20
72
1
11
0.517311
21
0.0
31
2.6007
73
2
0
LINE
8
fz
10
0.517311
20
0.0
30
2.905964
11
0.517311
21
0.0
31
5.333964
0
POINT
8
INTERNAL
10
1.014743
20
0.0
30
2.449806
0
TEXT
8
ID-NODES
10
1.014743
20
0.0
30
2.449806
40
0.05
1
21
72
1
11
1.014743
21
0.0
31
2.449806
73
2
0
LINE
8
fz
10
1.014743
20
0.0
30
2.771739
11
1.014743
21
0.0
31
8.131739
0
POINT
8
INTERNAL
10
1.473178
20
0.0
30
2.204767
0
TEXT
8
ID-NODES
10
1.473178
20
0.0
30
2.204767
40
0.05
1
22
72
1
11
1.473178
21
0.0
31
2.204767
73
2
0
LINE
8
fz
10
1.473178
20
0.0
30
2.557731
11
1.473178
21
0.0
31
11.417731
0
POINT
8
INTERNAL
10
1.875
20
0.0
30
1.875
0
TEXT
8
ID-NODES
10
1.875
20
0.0
30
1.875
40
0.05
1
23
72
1
11
1.875
21
0.0
31
1.875
73
2
0
LINE
8
fz
10
1.875
20
0.0
30
2.279609
11
1.875
21
0.0
31
16.719609
0
POINT
8
INTERNAL
10
0.462697
20
0.231349
30
2.6007
0
TEXT
8
ID-NODES
10
0.462697
20
0.231349
30
2.6007
40
0.05
1
24
72
1
11
0.462697
21
0.231349
31
2.6007
73
2
0
LINE
8
fz
10
0.462697
20
0.231349
30
2.905964
11
0.462697
21
0.231349
31
4.791964
0
POINT
8
INTERNAL
10
0.907613
20
0.453807
30
2.449806
0
TEXT
8
ID-NODES
10
0.907613
20
0.453807
30
2.449806
40
0.05
1
25
72
1
11
0.907613
21
0.453807
31
2.449806
73
2
0
LINE
8
fz
10
0.907613
20
0.453807
30
2.771739
11
0.907613
21
0.453807
31
6.933739
0
POINT
8
INTERNAL
10
1.317651
20
0.658825
30
2.204767
0
TEXT
8
ID-NODES
10
1.317651
20
0.658825
30
2.204767
40
0.05
1
26
72
1
11
1.317651
21
0.658825
31
2.204767
73
2
0
LINE
8
fz
10
1.317651
20
0.658825
30
2.557731
11
1.317651
21
0.658825
31
9.439731
0
POINT
8
INTERNAL
10
1.677051
20
0.838525
30
1.875
0
TEXT
8
ID-NODES
10
1.677051
20
0.838525
30
1.875
40
0.05
1
27
72
1
11
1.677051
21
0.838525
31
1.875
73
2
0
LINE
8
fz
10
1.677051
20
0.838525
30
2.279609
11
1.677051
21
0.838525
31
8.621609
0
POINT
8
INTERNAL
10
1.875
20
0.9375
30
1.623798
0
TEXT
8
ID-NODES
10
1.875
20
0.9375
30
1.623798
40
0.05
1
28
72
1
11
1.875
21
0.9375
31
1.623798
73
2
0
LINE
8
fz
10
1.875
20
0.9375
30
2.07791
11
1.875
21
0.9375
31
11.97991
0
POINT
8
INTERNAL
10
0.391051
20
0.33866
30
2.6007
0
TEXT
8
ID-NODES
10
0.391051
20
0.33866
30
2.6007
40
0.05
1
29
72
1
11
0.391051
21
0.33866
31
2.6007
73
2
0
LINE
8
fz
10
0.391051
20
0.33866
30
2.905964
11
0.391051
21
0.33866
31
3.771964
0
POINT
8
INTERNAL
10
0.767073
20
0.664305
30
2.449806
0
TEXT
8
ID-NODES
10
0.767073
20
0.664305
30
2.449806
40
0.05
1
30
72
1
11
0.767073
21
0.664305
31
2.449806
73
2
0
LINE
8
fz
10
0.767073
20
0.664305
30
2.771739
11
0.767073
21
0.664305
31
4.683739
0
POINT
8
INTERNAL
10
1.113618
20
0.964421
30
2.204767
0
TEXT
8
ID-NODES
10
1.113618
20
0.964421
30
2.204767
40
0.05
1
31
72
1
11
1.113618
21
0.964421
31
2.204767
73
2
0
LINE
8
fz
10
1.113618
20
0.964421
30
2.557731
11
1.113618
21
0.964421
31
5.717731000000001
0
POINT
8
INTERNAL
10
1.417367
20
1.227476
30
1.875
0
TEXT
8
ID-NODES
10
1.417367
20
1.227476
30
1.875
40
0.05
1
32
72
1
11
1.417367
21
1.227476
31
1.875
73
2
0
LINE
8
fz
10
1.417367
20
1.227476
30
2.279609
11
1.417367
21
1.227476
31
5.729609
0
POINT
8
INTERNAL
10
1.584664
20
1.372359
30
1.623798
0
TEXT
8
ID-NODES
10
1.584664
20
1.372359
30
1.623798
40
0.05
1
33
72
1
11
1.584664
21
1.372359
31
1.623798
73
2
0
LINE
8
fz
10
1.584664
20
1.372359
30
2.07791
11
1.584664
21
1.372359
31
5.86991
0
POINT
8
INTERNAL
10
1.875
20
1.623798
30
0.9375
0
TEXT
8
ID-NODES
10
1.875
20
1.623798
30
0.9375
40
0.05
1
34
72
1
11
1.875
21
1.623798
31
0.9375
73
2
0
LINE
8
fz
10
1.875
20
1.623798
30
1.599968
11
1.875
21
1.623798
31
8.187968
0
POINT
8
INTERNAL
10
0.365794
20
0.365794
30
2.6007
0
TEXT
8
ID-NODES
10
0.365794
20
0.365794
30
2.6007
40
0.05
1
35
72
1
11
0.365794
21
0.365794
31
2.6007
73
2
0
LINE
8
fz
10
0.365794
20
0.365794
30
2.905964
11
0.365794
21
0.365794
31
3.293964
0
POINT
8
INTERNAL
10
0.717531
20
0.717531
30
2.449806
0
TEXT
8
ID-NODES
10
0.717531
20
0.717531
30
2.449806
40
0.05
1
36
72
1
11
0.717531
21
0.717531
31
2.449806
73
2
0
LINE
8
fz
10
0.717531
20
0.717531
30
2.771739
11
0.717531
21
0.717531
31
3.6297390000000003
0
POINT
8
INTERNAL
10
1.041694
20
1.041694
30
2.204767
0
TEXT
8
ID-NODES
10
1.041694
20
1.041694
30
2.204767
40
0.05
1
37
72
1
11
1.041694
21
1.041694
31
2.204767
73
2
0
LINE
8
fz
10
1.041694
20
1.041694
30
2.557731
11
1.041694
21
1.041694
31
3.9757309999999997
0
POINT
8
INTERNAL
10
1.325825
20
1.325825
30
1.875
0
TEXT
8
ID-NODES
10
1.325825
20
1.325825
30
1.875
40
0.05
1
38
72
1
11
1.325825
21
1.325825
31
1.875
73
2
0
LINE
8
fz
10
1.325825
20
1.325825
30
2.279609
11
1.325825
21
1.325825
31
3.8276090000000003
0
POINT
8
INTERNAL
10
1.482318
20
1.482318
30
1.623798
0
TEXT
8
ID-NODES
10
1.482318
20
1.482318
30
1.623798
40
0.05
1
39
72
1
11
1.482318
21
1.482318
31
1.623798
73
2
0
LINE
8
fz
10
1.482318
20
1.482318
30
2.07791
11
1.482318
21
1.482318
31
4.5839099999999995
0
POINT
8
INTERNAL
10
1.753902
20
1.753902
30
0.9375
0
TEXT
8
ID-NODES
10
1.753902
20
1.753902
30
0.9375
40
0.05
1
40
72
1
11
1.753902
21
1.753902
31
0.9375
73
2
0
LINE
8
fz
10
1.753902
20
1.753902
30
1.599968
11
1.753902
21
1.753902
31
4.001968
0
POINT
8
INTERNAL
10
1.875
20
1.875
30
0.0
0
TEXT
8
ID-NODES
10
1.875
20
1.875
30
0.0
40
0.05
1
41
72
1
11
1.875
21
1.875
31
0.0
73
2
0
LINE
8
fz
10
1.875
20
1.875
30
1.29653
11
1.875
21
1.875
31
3.16653
0
POINT
8
INTERNAL
10
0.33866
20
0.391051
30
2.6007
0
TEXT
8
ID-NODES
10
0.33866
20
0.391051
30
2.6007
40
0.05
1
42
72
1
11
0.33866
21
0.391051
31
2.6007
73
2
0
LINE
8
fz
10
0.33866
20
0.391051
30
2.905964
11
0.33866
21
0.391051
31
3.771964
0
POINT
8
INTERNAL
10
0.664305
20
0.767073
30
2.449806
0
TEXT
8
ID-NODES
10
0.664305
20
0.767073
30
2.449806
40
0.05
1
43
72
1
11
0.664305
21
0.767073
31
2.449806
73
2
0
LINE
8
fz
10
0.664305
20
0.767073
30
2.771739
11
0.664305
21
0.767073
31
4.683739
0
POINT
8
INTERNAL
10
0.964421
20
1.113618
30
2.204767
0
TEXT
8
ID-NODES
10
0.964421
20
1.113618
30
2.204767
40
0.05
1
44
72
1
11
0.964421
21
1.113618
31
2.204767
73
2
0
LINE
8
fz
10
0.964421
20
1.113618
30
2.557731
11
0.964421
21
1.113618
31
5.717731000000001
0
POINT
8
INTERNAL
10
1.227476
20
1.417367
30
1.875
0
TEXT
8
ID-NODES
10
1.227476
20
1.417367
30
1.875
40
0.05
1
45
72
1
11
1.227476
21
1.417367
31
1.875
73
2
0
LINE
8
fz
10
1.227476
20
1.417367
30
2.279609
11
1.227476
21
1.417367
31
5.729609
0
POINT
8
INTERNAL
10
1.372359
20
1.584664
30
1.623798
0
TEXT
8
ID-NODES
10
1.372359
20
1.584664
30
1.623798
40
0.05
1
46
72
1
11
1.372359
21
1.584664
31
1.623798
73
2
0
LINE
8
fz
10
1.372359
20
1.584664
30
2.07791
11
1.372359
21
1.584664
31
5.86991
0
POINT
8
INTERNAL
10
1.623798
20
1.875
30
0.9375
0
TEXT
8
ID-NODES
10
1.623798
20
1.875
30
0.9375
40
0.05
1
47
72
1
11
1.623798
21
1.875
31
0.9375
73
2
0
LINE
8
fz
10
1.623798
20
1.875
30
1.599968
11
1.623798
21
1.875
31
4.439968
0
POINT
8
INTERNAL
10
0.231349
20
0.462697
30
2.6007
0
TEXT
8
ID-NODES
10
0.231349
20
0.462697
30
2.6007
40
0.05
1
48
72
1
11
0.231349
21
0.462697
31
2.6007
73
2
0
LINE
8
fz
10
0.231349
20
0.462697
30
2.905964
11
0.231349
21
0.462697
31
4.791964
0
POINT
8
INTERNAL
10
0.453807
20
0.907613
30
2.449806
0
TEXT
8
ID-NODES
10
0.453807
20
0.907613
30
2.449806
40
0.05
1
49
72
1
11
0.453807
21
0.907613
31
2.449806
73
2
0
LINE
8
fz
10
0.453807
20
0.907613
30
2.771739
11
0.453807
21
0.907613
31
6.933739
0
POINT
8
INTERNAL
10
0.658825
20
1.317651
30
2.204767
0
TEXT
8
ID-NODES
10
0.658825
20
1.317651
30
2.204767
40
0.05
1
50
72
1
11
0.658825
21
1.317651
31
2.204767
73
2
0
LINE
8
fz
10
0.658825
20
1.317651
30
2.557731
11
0.658825
21
1.317651
31
9.439731
0
POINT
8
INTERNAL
10
0.838525
20
1.677051
30
1.875
0
TEXT
8
ID-NODES
10
0.838525
20
1.677051
30
1.875
40
0.05
1
51
72
1
11
0.838525
21
1.677051
31
1.875
73
2
0
LINE
8
fz
10
0.838525
20
1.677051
30
2.279609
11
0.838525
21
1.677051
31
8.621609
0
POINT
8
INTERNAL
10
0.9375
20
1.875
30
1.623798
0
TEXT
8
ID-NODES
10
0.9375
20
1.875
30
1.623798
40
0.05
1
52
72
1
11
0.9375
21
1.875
31
1.623798
73
2
0
LINE
8
fz
10
0.9375
20
1.875
30
2.07791
11
0.9375
21
1.875
31
6.95191
0
POINT
8
INTERNAL
10
-0.0
20
0.517311
30
2.6007
0
TEXT
8
ID-NODES
10
-0.0
20
0.517311
30
2.6007
40
0.05
1
53
72
1
11
-0.0
21
0.517311
31
2.6007
73
2
0
LINE
8
fz
10
-0.0
20
0.517311
30
2.905964
11
-0.0
21
0.517311
31
5.333964
0
POINT
8
INTERNAL
10
-0.0
20
1.014743
30
2.449806
0
TEXT
8
ID-NODES
10
-0.0
20
1.014743
30
2.449806
40
0.05
1
54
72
1
11
-0.0
21
1.014743
31
2.449806
73
2
0
LINE
8
fz
10
-0.0
20
1.014743
30
2.771739
11
-0.0
21
1.014743
31
8.131739
0
POINT
8
INTERNAL
10
-0.0
20
1.473178
30
2.204767
0
TEXT
8
ID-NODES
10
-0.0
20
1.473178
30
2.204767
40
0.05
1
55
72
1
11
-0.0
21
1.473178
31
2.204767
73
2
0
LINE
8
fz
10
-0.0
20
1.473178
30
2.557731
11
-0.0
21
1.473178
31
11.417731
0
POINT
8
INTERNAL
10
-0.0
20
1.875
30
1.875
0
TEXT
8
ID-NODES
10
-0.0
20
1.875
30
1.875
40
0.05
1
56
72
1
11
-0.0
21
1.875
31
1.875
73
2
0
LINE
8
fz
10
-0.0
20
1.875
30
2.279609
11
-0.0
21
1.875
31
11.589609000000001
0
POINT
8
INTERNAL
10
-0.231349
20
0.462697
30
2.6007
0
TEXT
8
ID-NODES
10
-0.231349
20
0.462697
30
2.6007
40
0.05
1
57
72
1
11
-0.231349
21
0.462697
31
2.6007
73
2
0
LINE
8
fz
10
-0.231349
20
0.462697
30
2.905964
11
-0.231349
21
0.462697
31
4.791964
0
POINT
8
INTERNAL
10
-0.453807
20
0.907613
30
2.449806
0
TEXT
8
ID-NODES
10
-0.453807
20
0.907613
30
2.449806
40
0.05
1
58
72
1
11
-0.453807
21
0.907613
31
2.449806
73
2
0
LINE
8
fz
10
-0.453807
20
0.907613
30
2.771739
11
-0.453807
21
0.907613
31
6.933739
0
POINT
8
INTERNAL
10
-0.658825
20
1.317651
30
2.204767
0
TEXT
8
ID-NODES
10
-0.658825
20
1.317651
30
2.204767
40
0.05
1
59
72
1
11
-0.658825
21
1.317651
31
2.204767
73
2
0
LINE
8
fz
10
-0.658825
20
1.317651
30
2.557731
11
-0.658825
21
1.317651
31
9.439731
0
POINT
8
INTERNAL
10
-0.838525
20
1.677051
30
1.875
0
TEXT
8
ID-NODES
10
-0.838525
20
1.677051
30
1.875
40
0.05
1
60
72
1
11
-0.838525
21
1.677051
31
1.875
73
2
0
LINE
8
fz
10
-0.838525
20
1.677051
30
2.279609
11
-0.838525
21
1.677051
31
8.621609
0
POINT
8
INTERNAL
10
-0.9375
20
1.875
30
1.623798
0
TEXT
8
ID-NODES
10
-0.9375
20
1.875
30
1.623798
40
0.05
1
61
72
1
11
-0.9375
21
1.875
31
1.623798
73
2
0
LINE
8
fz
10
-0.9375
20
1.875
30
2.07791
11
-0.9375
21
1.875
31
6.95191
0
POINT
8
INTERNAL
10
-0.33866
20
0.391051
30
2.6007
0
TEXT
8
ID-NODES
10
-0.33866
20
0.391051
30
2.6007
40
0.05
1
62
72
1
11
-0.33866
21
0.391051
31
2.6007
73
2
0
LINE
8
fz
10
-0.33866
20
0.391051
30
2.905964
11
-0.33866
21
0.391051
31
3.771964
0
POINT
8
INTERNAL
10
-0.664305
20
0.767073
30
2.449806
0
TEXT
8
ID-NODES
10
-0.664305
20
0.767073
30
2.449806
40
0.05
1
63
72
1
11
-0.664305
21
0.767073
31
2.449806
73
2
0
LINE
8
fz
10
-0.664305
20
0.767073
30
2.771739
11
-0.664305
21
0.767073
31
4.683739
0
POINT
8
INTERNAL
10
-0.964421
20
1.113618
30
2.204767
0
TEXT
8
ID-NODES
10
-0.964421
20
1.113618
30
2.204767
40
0.05
1
64
72
1
11
-0.964421
21
1.113618
31
2.204767
73
2
0
LINE
8
fz
10
-0.964421
20
1.113618
30
2.557731
11
-0.964421
21
1.113618
31
5.717731000000001
0
POINT
8
INTERNAL
10
-1.227476
20
1.417367
30
1.875
0
TEXT
8
ID-NODES
10
-1.227476
20
1.417367
30
1.875
40
0.05
1
65
72
1
11
-1.227476
21
1.417367
31
1.875
73
2
0
LINE
8
fz
10
-1.227476
20
1.417367
30
2.279609
11
-1.227476
21
1.417367
31
5.729609
0
POINT
8
INTERNAL
10
-1.372359
20
1.584664
30
1.623798
0
TEXT
8
ID-NODES
10
-1.372359
20
1.584664
30
1.623798
40
0.05
1
66
72
1
11
-1.372359
21
1.584664
31
1.623798
73
2
0
LINE
8
fz
10
-1.372359
20
1.584664
30
2.07791
11
-1.372359
21
1.584664
31
5.86991
0
POINT
8
INTERNAL
10
-1.623798
20
1.875
30
0.9375
0
TEXT
8
ID-NODES
10
-1.623798
20
1.875
30
0.9375
40
0.05
1
67
72
1
11
-1.623798
21
1.875
31
0.9375
73
2
0
LINE
8
fz
10
-1.623798
20
1.875
30
1.599968
11
-1.623798
21
1.875
31
4.439968
0
POINT
8
INTERNAL
10
-0.365794
20
0.365794
30
2.6007
0
TEXT
8
ID-NODES
10
-0.365794
20
0.365794
30
2.6007
40
0.05
1
68
72
1
11
-0.365794
21
0.365794
31
2.6007
73
2
0
LINE
8
fz
10
-0.365794
20
0.365794
30
2.905964
11
-0.365794
21
0.365794
31
3.293964
0
POINT
8
INTERNAL
10
-0.717531
20
0.717531
30
2.449806
0
TEXT
8
ID-NODES
10
-0.717531
20
0.717531
30
2.449806
40
0.05
1
69
72
1
11
-0.717531
21
0.717531
31
2.449806
73
2
0
LINE
8
fz
10
-0.717531
20
0.717531
30
2.771739
11
-0.717531
21
0.717531
31
3.6297390000000003
0
POINT
8
INTERNAL
10
-1.041694
20
1.041694
30
2.204767
0
TEXT
8
ID-NODES
10
-1.041694
20
1.041694
30
2.204767
40
0.05
1
70
72
1
11
-1.041694
21
1.041694
31
2.204767
73
2
0
LINE
8
fz
10
-1.041694
20
1.041694
30
2.557731
11
-1.041694
21
1.041694
31
3.9757309999999997
0
POINT
8
INTERNAL
10
-1.325825
20
1.325825
30
1.875
0
TEXT
8
ID-NODES
10
-1.325825
20
1.325825
30
1.875
40
0.05
1
71
72
1
11
-1.325825
21
1.325825
31
1.875
73
2
0
LINE
8
fz
10
-1.325825
20
1.325825
30
2.279609
11
-1.325825
21
1.325825
31
3.8276090000000003
0
POINT
8
INTERNAL
10
-1.482318
20
1.482318
30
1.623798
0
TEXT
8
ID-NODES
10
-1.482318
20
1.482318
30
1.623798
40
0.05
1
72
72
1
11
-1.482318
21
1.482318
31
1.623798
73
2
0
LINE
8
fz
10
-1.482318
20
1.482318
30
2.07791
11
-1.482318
21
1.482318
31
4.5839099999999995
0
POINT
8
INTERNAL
10
-1.753902
20
1.753902
30
0.9375
0
TEXT
8
ID-NODES
10
-1.753902
20
1.753902
30
0.9375
40
0.05
1
73
72
1
11
-1.753902
21
1.753902
31
0.9375
73
2
0
LINE
8
fz
10
-1.753902
20
1.753902
30
1.599968
11
-1.753902
21
1.753902
31
4.001968
0
POINT
8
INTERNAL
10
-1.875
20
1.875
30
0.0
0
TEXT
8
ID-NODES
10
-1.875
20
1.875
30
0.0
40
0.05
1
74
72
1
11
-1.875
21
1.875
31
0.0
73
2
0
LINE
8
fz
10
-1.875
20
1.875
30
1.29653
11
-1.875
21
1.875
31
3.16653
0
POINT
8
INTERNAL
10
-0.391051
20
0.33866
30
2.6007
0
TEXT
8
ID-NODES
10
-0.391051
20
0.33866
30
2.6007
40
0.05
1
75
72
1
11
-0.391051
21
0.33866
31
2.6007
73
2
0
LINE
8
fz
10
-0.391051
20
0.33866
30
2.905964
11
-0.391051
21
0.33866
31
3.771964
0
POINT
8
INTERNAL
10
-0.767073
20
0.664305
30
2.449806
0
TEXT
8
ID-NODES
10
-0.767073
20
0.664305
30
2.449806
40
0.05
1
76
72
1
11
-0.767073
21
0.664305
31
2.449806
73
2
0
LINE
8
fz
10
-0.767073
20
0.664305
30
2.771739
11
-0.767073
21
0.664305
31
4.683739
0
POINT
8
INTERNAL
10
-1.113618
20
0.964421
30
2.204767
0
TEXT
8
ID-NODES
10
-1.113618
20
0.964421
30
2.204767
40
0.05
1
77
72
1
11
-1.113618
21
0.964421
31
2.204767
73
2
0
LINE
8
fz
10
-1.113618
20
0.964421
30
2.557731
11
-1.113618
21
0.964421
31
5.717731000000001
0
POINT
8
INTERNAL
10
-1.417367
20
1.227476
30
1.875
0
TEXT
8
ID-NODES
10
-1.417367
20
1.227476
30
1.875
40
0.05
1
78
72
1
11
-1.417367
21
1.227476
31
1.875
73
2
0
LINE
8
fz
10
-1.417367
20
1.227476
30
2.279609
11
-1.417367
21
1.227476
31
5.729609
0
POINT
8
INTERNAL
10
-1.584664
20
1.372359
30
1.623798
0
TEXT
8
ID-NODES
10
-1.584664
20
1.372359
30
1.623798
40
0.05
1
79
72
1
11
-1.584664
21
1.372359
31
1.623798
73
2
0
LINE
8
fz
10
-1.584664
20
1.372359
30
2.07791
11
-1.584664
21
1.372359
31
5.86991
0
POINT
8
INTERNAL
10
-1.875
20
1.623798
30
0.9375
0
TEXT
8
ID-NODES
10
-1.875
20
1.623798
30
0.9375
40
0.05
1
80
72
1
11
-1.875
21
1.623798
31
0.9375
73
2
0
LINE
8
fz
10
-1.875
20
1.623798
30
1.599968
11
-1.875
21
1.623798
31
8.187968
0
POINT
8
INTERNAL
10
-0.462697
20
0.231349
30
2.6007
0
TEXT
8
ID-NODES
10
-0.462697
20
0.231349
30
2.6007
40
0.05
1
81
72
1
11
-0.462697
21
0.231349
31
2.6007
73
2
0
LINE
8
fz
10
-0.462697
20
0.231349
30
2.905964
11
-0.462697
21
0.231349
31
4.791964
0
POINT
8
INTERNAL
10
-0.907613
20
0.453807
30
2.449806
0
TEXT
8
ID-NODES
10
-0.907613
20
0.453807
30
2.449806
40
0.05
1
82
72
1
11
-0.907613
21
0.453807
31
2.449806
73
2
0
LINE
8
fz
10
-0.907613
20
0.453807
30
2.771739
11
-0.907613
21
0.453807
31
6.933739
0
POINT
8
INTERNAL
10
-1.317651
20
0.658825
30
2.204767
0
TEXT
8
ID-NODES
10
-1.317651
20
0.658825
30
2.204767
40
0.05
1
83
72
1
11
-1.317651
21
0.658825
31
2.204767
73
2
0
LINE
8
fz
10
-1.317651
20
0.658825
30
2.557731
11
-1.317651
21
0.658825
31
9.439731
0
POINT
8
INTERNAL
10
-1.677051
20
0.838525
30
1.875
0
TEXT
8
ID-NODES
10
-1.677051
20
0.838525
30
1.875
40
0.05
1
84
72
1
11
-1.677051
21
0.838525
31
1.875
73
2
0
LINE
8
fz
10
-1.677051
20
0.838525
30
2.279609
11
-1.677051
21
0.838525
31
8.621609
0
POINT
8
INTERNAL
10
-1.875
20
0.9375
30
1.623798
0
TEXT
8
ID-NODES
10
-1.875
20
0.9375
30
1.623798
40
0.05
1
85
72
1
11
-1.875
21
0.9375
31
1.623798
73
2
0
LINE
8
fz
10
-1.875
20
0.9375
30
2.07791
11
-1.875
21
0.9375
31
11.97991
0
POINT
8
INTERNAL
10
-0.517311
20
-0.0
30
2.6007
0
TEXT
8
ID-NODES
10
-0.517311
20
-0.0
30
2.6007
40
0.05
1
86
72
1
11
-0.517311
21
-0.0
31
2.6007
73
2
0
LINE
8
fz
10
-0.517311
20
-0.0
30
2.905964
11
-0.517311
21
-0.0
31
5.333964
0
POINT
8
INTERNAL
10
-1.014743
20
-0.0
30
2.449806
0
TEXT
8
ID-NODES
10
-1.014743
20
-0.0
30
2.449806
40
0.05
1
87
72
1
11
-1.014743
21
-0.0
31
2.449806
73
2
0
LINE
8
fz
10
-1.014743
20
-0.0
30
2.771739
11
-1.014743
21
-0.0
31
8.131739
0
POINT
8
INTERNAL
10
-1.473178
20
-0.0
30
2.204767
0
TEXT
8
ID-NODES
10
-1.473178
20
-0.0
30
2.204767
40
0.05
1
88
72
1
11
-1.473178
21
-0.0
31
2.204767
73
2
0
LINE
8
fz
10
-1.473178
20
-0.0
30
2.557731
11
-1.473178
21
-0.0
31
11.417731
0
POINT
8
INTERNAL
10
-1.875
20
-0.0
30
1.875
0
TEXT
8
ID-NODES
10
-1.875
20
-0.0
30
1.875
40
0.05
1
89
72
1
11
-1.875
21
-0.0
31
1.875
73
2
0
LINE
8
fz
10
-1.875
20
-0.0
30
2.279609
11
-1.875
21
-0.0
31
16.719609
0
POINT
8
INTERNAL
10
-0.462697
20
-0.231349
30
2.6007
0
TEXT
8
ID-NODES
10
-0.462697
20
-0.231349
30
2.6007
40
0.05
1
90
72
1
11
-0.462697
21
-0.231349
31
2.6007
73
2
0
LINE
8
fz
10
-0.462697
20
-0.231349
30
2.905964
11
-0.462697
21
-0.231349
31
4.791964
0
POINT
8
INTERNAL
10
-0.907613
20
-0.453807
30
2.449806
0
TEXT
8
ID-NODES
10
-0.907613
20
-0.453807
30
2.449806
40
0.05
1
91
72
1
11
-0.907613
21
-0.453807
31
2.449806
73
2
0
LINE
8
fz
10
-0.907613
20
-0.453807
30
2.771739
11
-0.907613
21
-0.453807
31
6.933739
0
POINT
8
INTERNAL
10
-1.317651
20
-0.658825
30
2.204767
0
TEXT
8
ID-NODES
10
-1.317651
20
-0.658825
30
2.204767
40
0.05
1
92
72
1
11
-1.317651
21
-0.658825
31
2.204767
73
2
0
LINE
8
fz
10
-1.317651
20
-0.658825
30
2.557731
11
-1.317651
21
-0.658825
31
9.439731
0
POINT
8
INTERNAL
10
-1.677051
20
-0.838525
30
1.875
0
TEXT
8
ID-NODES
10
-1.677051
20
-0.838525
30
1.875
40
0.05
1
93
72
1
11
-1.677051
21
-0.838525
31
1.875
73
2
0
LINE
8
fz
10
-1.677051
20
-0.838525
30
2.279609
11
-1.677051
21
-0.838525
31
8.621609
0
POINT
8
INTERNAL
10
-1.875
20
-0.9375
30
1.623798
0
TEXT
8
ID-NODES
10
-1.875
20
-0.9375
30
1.623798
40
0.05
1
94
72
1
11
-1.875
21
-0.9375
31
1.623798
73
2
0
LINE
8
fz
10
-1.875
20
-0.9375
30
2.07791
11
-1.875
21
-0.9375
31
11.97991
0
POINT
8
INTERNAL
10
-0.391051
20
-0.33866
30
2.6007
0
TEXT
8
ID-NODES
10
-0.391051
20
-0.33866
30
2.6007
40
0.05
1
95
72
1
11
-0.391051
21
-0.33866
31
2.6007
73
2
0
LINE
8
fz
10
-0.391051
20
-0.33866
30
2.905964
11
-0.391051
21
-0.33866
31
3.771964
0
POINT
8
INTERNAL
10
-0.767073
20
-0.664305
30
2.449806
0
TEXT
8
ID-NODES
10
-0.767073
20
-0.664305
30
2.449806
40
0.05
1
96
72
1
11
-0.767073
21
-0.664305
31
2.449806
73
2
0
LINE
8
fz
10
-0.767073
20
-0.664305
30
2.771739
11
-0.767073
21
-0.664305
31
4.683739
0
POINT
8
INTERNAL
10
-1.113618
20
-0.964421
30
2.204767
0
TEXT
8
ID-NODES
10
-1.113618
20
-0.964421
30
2.204767
40
0.05
1
97
72
1
11
-1.113618
21
-0.964421
31
2.204767
73
2
0
LINE
8
fz
10
-1.113618
20
-0.964421
30
2.557731
11
-1.113618
21
-0.964421
31
5.717731000000001
0
POINT
8
INTERNAL
10
-1.417367
20
-1.227476
30
1.875
0
TEXT
8
ID-NODES
10
-1.417367
20
-1.227476
30
1.875
40
0.05
1
98
72
1
11
-1.417367
21
-1.227476
31
1.875
73
2
0
LINE
8
fz
10
-1.417367
20
-1.227476
30
2.279609
11
-1.417367
21
-1.227476
31
5.729609
0
POINT
8
INTERNAL
10
-1.584664
20
-1.372359
30
1.623798
0
TEXT
8
ID-NODES
10
-1.584664
20
-1.372359
30
1.623798
40
0.05
1
99
72
1
11
-1.584664
21
-1.372359
31
1.623798
73
2
0
LINE
8
fz
10
-1.584664
20
-1.372359
30
2.07791
11
-1.584664
21
-1.372359
31
5.86991
0
POINT
8
INTERNAL
10
-1.875
20
-1.623798
30
0.9375
0
TEXT
8
ID-NODES
10
-1.875
20
-1.623798
30
0.9375
40
0.05
1
100
72
1
11
-1.875
21
-1.623798
31
0.9375
73
2
0
LINE
8
fz
10
-1.875
20
-1.623798
30
1.599968
11
-1.875
21
-1.623798
31
8.187968
0
POINT
8
INTERNAL
10
-0.365794
20
-0.365794
30
2.6007
0
TEXT
8
ID-NODES
10
-0.365794
20
-0.365794
30
2.6007
40
0.05
1
101
72
1
11
-0.365794
21
-0.365794
31
2.6007
73
2
0
LINE
8
fz
10
-0.365794
20
-0.365794
30
2.905964
11
-0.365794
21
-0.365794
31
3.293964
0
POINT
8
INTERNAL
10
-0.717531
20
-0.717531
30
2.449806
0
TEXT
8
ID-NODES
10
-0.717531
20
-0.717531
30
2.449806
40
0.05
1
102
72
1
11
-0.717531
21
-0.717531
31
2.449806
73
2
0
LINE
8
fz
10
-0.717531
20
-0.717531
30
2.771739
11
-0.717531
21
-0.717531
31
3.6297390000000003
0
POINT
8
INTERNAL
10
-1.041694
20
-1.041694
30
2.204767
0
TEXT
8
ID-NODES
10
-1.041694
20
-1.041694
30
2.204767
40
0.05
1
103
72
1
11
-1.041694
21
-1.041694
31
2.204767
73
2
0
LINE
8
fz
10
-1.041694
20
-1.041694
30
2.557731
11
-1.041694
21
-1.041694
31
3.9757309999999997
0
POINT
8
INTERNAL
10
-1.325825
20
-1.325825
30
1.875
0
TEXT
8
ID-NODES
10
-1.325825
20
-1.325825
30
1.875
40
0.05
1
104
72
1
11
-1.325825
21
-1.325825
31
1.875
73
2
0
LINE
8
fz
10
-1.325825
20
-1.325825
30
2.279609
11
-1.325825
21
-1.325825
31
3.8276090000000003
0
POINT
8
INTERNAL
10
-1.482318
20
-1.482318
30
1.623798
0
TEXT
8
ID-NODES
10
-1.482318
20
-1.482318
30
1.623798
40
0.05
1
105
72
1
11
-1.482318
21
-1.482318
31
1.623798
73
2
0
LINE
8
fz
10
-1.482318
20
-1.482318
30
2.07791
11
-1.482318
21
-1.482318
31
4.5839099999999995
0
POINT
8
INTERNAL
10
-1.753902
20
-1.753902
30
0.9375
0
TEXT
8
ID-NODES
10
-1.753902
20
-1.753902
30
0.9375
40
0.05
1
106
72
1
11
-1.753902
21
-1.753902
31
0.9375
73
2
0
LINE
8
fz
10
-1.753902
20
-1.753902
30
1.599968
11
-1.753902
21
-1.753902
31
4.001968
0
POINT
8
INTERNAL
10
-1.875
20
-1.875
30
0.0
0
TEXT
8
ID-NODES
10
-1.875
20
-1.875
30
0.0
40
0.05
1
107
72
1
11
-1.875
21
-1.875
31
0.0
73
2
0
LINE
8
fz
10
-1.875
20
-1.875
30
1.29653
11
-1.875
21
-1.875
31
3.16653
0
POINT
8
INTERNAL
10
-0.33866
20
-0.391051
30
2.6007
0
TEXT
8
ID-NODES
10
-0.33866
20
-0.391051
30
2.6007
40
0.05
1
108
72
1
11
-0.33866
21
-0.391051
31
2.6007
73
2
0
LINE
8
fz
10
-0.33866
20
-0.391051
30
2.905964
11
-0.33866
21
-0.391051
31
3.771964
0
POINT
8
INTERNAL
10
-0.664305
20
-0.767073
30
2.449806
0
TEXT
8
ID-NODES
10
-0.664305
20
-0.767073
30
2.449806
40
0.05
1
109
72
1
11
-0.664305
21
-0.767073
31
2.449806
73
2
0
LINE
8
fz
10
-0.664305
20
-0.767073
30
2.771739
11
-0.664305
21
-0.767073
31
4.683739
0
POINT
8
INTERNAL
10
-0.964421
20
-1.113618
30
2.204767
0
TEXT
8
ID-NODES
10
-0.964421
20
-1.113618
30
2.204767
40
0.05
1
110
72
1
11
-0.964421
21
-1.113618
31
2.204767
73
2
0
LINE
8
fz
10
-0.964421
20
-1.113618
30
2.557731
11
-0.964421
21
-1.113618
31
5.717731000000001
0
POINT
8
INTERNAL
10
-1.227476
20
-1.417367
30
1.875
0
TEXT
8
ID-NODES
10
-1.227476
20
-1.417367
30
1.875
40
0.05
1
111
72
1
11
-1.227476
21
-1.417367
31
1.875
73
2
0
LINE
8
fz
10
-1.227476
20
-1.417367
30
2.279609
11
-1.227476
21
-1.417367
31
5.729609
0
POINT
8
INTERNAL
10
-1.372359
20
-1.584664
30
1.623798
0
TEXT
8
ID-NODES
10
-1.372359
20
-1.584664
30
1.623798
40
0.05
1
112
72
1
11
-1.372359
21
-1.584664
31
1.623798
73
2
0
LINE
8
fz
10
-1.372359
20
-1.584664
30
2.07791
11
-1.372359
21
-1.584664
31
5.86991
0
POINT
8
INTERNAL
10
-1.623798
20
-1.875
30
0.9375
0
TEXT
8
ID-NODES
10
-1.623798
20
-1.875
30
0.9375
40
0.05
1
113
72
1
11
-1.623798
21
-1.875
31
0.9375
73
2
0
LINE
8
fz
10
-1.623798
20
-1.875
30
1.599968
11
-1.623798
21
-1.875
31
4.439968
0
POINT
8
INTERNAL
10
-0.231349
20
-0.462697
30
2.6007
0
TEXT
8
ID-NODES
10
-0.231349
20
-0.462697
30
2.6007
40
0.05
1
114
72
1
11
-0.231349
21
-0.462697
31
2.6007
73
2
0
LINE
8
fz
10
-0.231349
20
-0.462697
30
2.905964
11
-0.231349
21
-0.462697
31
4.791964
0
POINT
8
INTERNAL
10
-0.453807
20
-0.907613
30
2.449806
0
TEXT
8
ID-NODES
10
-0.453807
20
-0.907613
30
2.449806
40
0.05
1
115
72
1
11
-0.453807
21
-0.907613
31
2.449806
73
2
0
LINE
8
fz
10
-0.453807
20
-0.907613
30
2.771739
11
-0.453807
21
-0.907613
31
6.933739
0
POINT
8
INTERNAL
10
-0.658825
20
-1.317651
30
2.204767
0
TEXT
8
ID-NODES
10
-0.658825
20
-1.317651
30
2.204767
40
0.05
1
116
72
1
11
-0.658825
21
-1.317651
31
2.204767
73
2
0
LINE
8
fz
10
-0.658825
20
-1.317651
30
2.557731
11
-0.658825
21
-1.317651
31
9.439731
0
POINT
8
INTERNAL
10
-0.838525
20
-1.677051
30
1.875
0
TEXT
8
ID-NODES
10
-0.838525
20
-1.677051
30
1.875
40
0.05
1
117
72
1
11
-0.838525
21
-1.677051
31
1.875
73
2
0
LINE
8
fz
10
-0.838525
20
-1.677051
30
2.279609
11
-0.838525
21
-1.677051
31
8.621609
0
POINT
8
INTERNAL
10
-0.9375
20
-1.875
30
1.623798
0
TEXT
8
ID-NODES
10
-0.9375
20
-1.875
30
1.623798
40
0.05
1
118
72
1
11
-0.9375
21
-1.875
31
1.623798
73
2
0
LINE
8
fz
10
-0.9375
20
-1.875
30
2.07791
11
-0.9375
21
-1.875
31
6.95191
0
POINT
8
INTERNAL
10
0.0
20
-0.517311
30
2.6007
0
TEXT
8
ID-NODES
10
0.0
20
-0.517311
30
2.6007
40
0.05
1
119
72
1
11
0.0
21
-0.517311
31
2.6007
73
2
0
LINE
8
fz
10
0.0
20
-0.517311
30
2.905964
11
0.0
21
-0.517311
31
5.333964
0
POINT
8
INTERNAL
10
0.0
20
-1.014743
30
2.449806
0
TEXT
8
ID-NODES
10
0.0
20
-1.014743
30
2.449806
40
0.05
1
120
72
1
11
0.0
21
-1.014743
31
2.449806
73
2
0
LINE
8
fz
10
0.0
20
-1.014743
30
2.771739
11
0.0
21
-1.014743
31
8.131739
0
POINT
8
INTERNAL
10
0.0
20
-1.473178
30
2.204767
0
TEXT
8
ID-NODES
10
0.0
20
-1.473178
30
2.204767
40
0.05
1
121
72
1
11
0.0
21
-1.473178
31
2.204767
73
2
0
LINE
8
fz
10
0.0
20
-1.473178
30
2.557731
11
0.0
21
-1.473178
31
11.417731
0
POINT
8
INTERNAL
10
0.0
20
-1.875
30
1.875
0
TEXT
8
ID-NODES
10
0.0
20
-1.875
30
1.875
40
0.05
1
122
72
1
11
0.0
21
-1.875
31
1.875
73
2
0
LINE
8
fz
10
0.0
20
-1.875
30
2.279609
11
0.0
21
-1.875
31
11.589609000000001
0
POINT
8
INTERNAL
10
0.231349
20
-0.462697
30
2.6007
0
TEXT
8
ID-NODES
10
0.231349
20
-0.462697
30
2.6007
40
0.05
1
123
72
1
11
0.231349
21
-0.462697
31
2.6007
73
2
0
LINE
8
fz
10
0.231349
20
-0.462697
30
2.905964
11
0.231349
21
-0.462697
31
4.791964
0
POINT
8
INTERNAL
10
0.453807
20
-0.907613
30
2.449806
0
TEXT
8
ID-NODES
10
0.453807
20
-0.907613
30
2.449806
40
0.05
1
124
72
1
11
0.453807
21
-0.907613
31
2.449806
73
2
0
LINE
8
fz
10
0.453807
20
-0.907613
30
2.771739
11
0.453807
21
-0.907613
31
6.933739
0
POINT
8
INTERNAL
10
0.658825
20
-1.317651
30
2.204767
0
TEXT
8
ID-NODES
10
0.658825
20
-1.317651
30
2.204767
40
0.05
1
125
72
1
11
0.658825
21
-1.317651
31
2.204767
73
2
0
LINE
8
fz
10
0.658825
20
-1.317651
30
2.557731
11
0.658825
21
-1.317651
31
9.439731
0
POINT
8
INTERNAL
10
0.838525
20
-1.677051
30
1.875
0
TEXT
8
ID-NODES
10
0.838525
20
-1.677051
30
1.875
40
0.05
1
126
72
1
11
0.838525
21
-1.677051
31
1.875
73
2
0
LINE
8
fz
10
0.838525
20
-1.677051
30
2.279609
11
0.838525
21
-1.677051
31
8.621609
0
POINT
8
INTERNAL
10
0.9375
20
-1.875
30
1.623798
0
TEXT
8
ID-NODES
10
0.9375
20
-1.875
30
1.623798
40
0.05
1
127
72
1
11
0.9375
21
-1.875
31
1.623798
73
2
0
LINE
8
fz
10
0.9375
20
-1.875
30
2.07791
11
0.9375
21
-1.875
31
6.95191
0
POINT
8
INTERNAL
10
0.33866
20
-0.391051
30
2.6007
0
TEXT
8
ID-NODES
10
0.33866
20
-0.391051
30
2.6007
40
0.05
1
128
72
1
11
0.33866
21
-0.391051
31
2.6007
73
2
0
LINE
8
fz
10
0.33866
20
-0.391051
30
2.905964
11
0.33866
21
-0.391051
31
3.771964
0
POINT
8
INTERNAL
10
0.664305
20
-0.767073
30
2.449806
0
TEXT
8
ID-NODES
10
0.664305
20
-0.767073
30
2.449806
40
0.05
1
129
72
1
11
0.664305
21
-0.767073
31
2.449806
73
2
0
LINE
8
fz
10
0.664305
20
-0.767073
30
2.771739
11
0.664305
21
-0.767073
31
4.683739
0
POINT
8
INTERNAL
10
0.964421
20
-1.113618
30
2.204767
0
TEXT
8
ID-NODES
10
0.964421
20
-1.113618
30
2.204767
40
0.05
1
130
72
1
11
0.964421
21
-1.113618
31
2.204767
73
2
0
LINE
8
fz
10
0.964421
20
-1.113618
30
2.557731
11
0.964421
21
-1.113618
31
5.717731000000001
0
POINT
8
INTERNAL
10
1.227476
20
-1.417367
30
1.875
0
TEXT
8
ID-NODES
10
1.227476
20
-1.417367
30
1.875
40
0.05
1
131
72
1
11
1.227476
21
-1.417367
31
1.875
73
2
0
LINE
8
fz
10
1.227476
20
-1.417367
30
2.279609
11
1.227476
21
-1.417367
31
5.729609
0
POINT
8
INTERNAL
10
1.372359
20
-1.584664
30
1.623798
0
TEXT
8
ID-NODES
10
1.372359
20
-1.584664
30
1.623798
40
0.05
1
132
72
1
11
1.372359
21
-1.584664
31
1.623798
73
2
0
LINE
8
fz
10
1.372359
20
-1.584664
30
2.07791
11
1.372359
21
-1.584664
31
5.86991
0
POINT
8
INTERNAL
10
1.623798
20
-1.875
30
0.9375
0
TEXT
8
ID-NODES
10
1.623798
20
-1.875
30
0.9375
40
0.05
1
133
72
1
11
1.623798
21
-1.875
31
0.9375
73
2
0
LINE
8
fz
10
1.623798
20
-1.875
30
1.599968
11
1.623798
21
-1.875
31
4.439968
0
POINT
8
INTERNAL
10
2.125
20
-1.875
30
0.0
0
TEXT
8
ID-NODES
10
2.125
20
-1.875
30
0.0
40
0.05
1
134
72
1
11
2.125
21
-1.875
31
0.0
73
2
0
LINE
8
fz
10
2.125
20
-1.875
30
1.29653
11
2.125
21
-1.875
31
2.58053
0
POINT
8
INTERNAL
10
2.125
20
-1.623798
30
0.9375
0
TEXT
8
ID-NODES
10
2.125
20
-1.623798
30
0.9375
40
0.05
1
135
72
1
11
2.125
21
-1.623798
31
0.9375
73
2
0
LINE
8
fz
10
2.125
20
-1.623798
30
1.599968
11
2.125
21
-1.623798
31
5.347968
0
POINT
8
INTERNAL
10
2.125
20
-0.9375
30
1.623798
0
TEXT
8
ID-NODES
10
2.125
20
-0.9375
30
1.623798
40
0.05
1
136
72
1
11
2.125
21
-0.9375
31
1.623798
73
2
0
LINE
8
fz
10
2.125
20
-0.9375
30
2.07791
11
2.125
21
-0.9375
31
7.10591
0
POINT
8
INTERNAL
10
2.125
20
0.0
30
1.875
0
TEXT
8
ID-NODES
10
2.125
20
0.0
30
1.875
40
0.05
1
137
72
1
11
2.125
21
0.0
31
1.875
73
2
0
LINE
8
fz
10
2.125
20
0.0
30
2.279609
11
2.125
21
0.0
31
7.409609
0
POINT
8
INTERNAL
10
2.125
20
0.9375
30
1.623798
0
TEXT
8
ID-NODES
10
2.125
20
0.9375
30
1.623798
40
0.05
1
138
72
1
11
2.125
21
0.9375
31
1.623798
73
2
0
LINE
8
fz
10
2.125
20
0.9375
30
2.07791
11
2.125
21
0.9375
31
7.10591
0
POINT
8
INTERNAL
10
2.125
20
1.623798
30
0.9375
0
TEXT
8
ID-NODES
10
2.125
20
1.623798
30
0.9375
40
0.05
1
139
72
1
11
2.125
21
1.623798
31
0.9375
73
2
0
LINE
8
fz
10
2.125
20
1.623798
30
1.599968
11
2.125
21
1.623798
31
5.347968
0
POINT
8
INTERNAL
10
2.125
20
1.875
30
0.0
0
TEXT
8
ID-NODES
10
2.125
20
1.875
30
0.0
40
0.05
1
140
72
1
11
2.125
21
1.875
31
0.0
73
2
0
LINE
8
fz
10
2.125
20
1.875
30
1.29653
11
2.125
21
1.875
31
2.58053
0
POINT
8
INTERNAL
10
-2.125
20
1.875
30
0.0
0
TEXT
8
ID-NODES
10
-2.125
20
1.875
30
0.0
40
0.05
1
141
72
1
11
-2.125
21
1.875
31
0.0
73
2
0
LINE
8
fz
10
-2.125
20
1.875
30
1.29653
11
-2.125
21
1.875
31
2.58053
0
POINT
8
INTERNAL
10
-2.125
20
1.623798
30
0.9375
0
TEXT
8
ID-NODES
10
-2.125
20
1.623798
30
0.9375
40
0.05
1
142
72
1
11
-2.125
21
1.623798
31
0.9375
73
2
0
LINE
8
fz
10
-2.125
20
1.623798
30
1.599968
11
-2.125
21
1.623798
31
5.347968
0
POINT
8
INTERNAL
10
-2.125
20
0.9375
30
1.623798
0
TEXT
8
ID-NODES
10
-2.125
20
0.9375
30
1.623798
40
0.05
1
143
72
1
11
-2.125
21
0.9375
31
1.623798
73
2
0
LINE
8
fz
10
-2.125
20
0.9375
30
2.07791
11
-2.125
21
0.9375
31
7.10591
0
POINT
8
INTERNAL
10
-2.125
20
-0.0
30
1.875
0
TEXT
8
ID-NODES
10
-2.125
20
-0.0
30
1.875
40
0.05
1
144
72
1
11
-2.125
21
-0.0
31
1.875
73
2
0
LINE
8
fz
10
-2.125
20
-0.0
30
2.279609
11
-2.125
21
-0.0
31
7.409609
0
POINT
8
INTERNAL
10
-2.125
20
-0.9375
30
1.623798
0
TEXT
8
ID-NODES
10
-2.125
20
-0.9375
30
1.623798
40
0.05
1
145
72
1
11
-2.125
21
-0.9375
31
1.623798
73
2
0
LINE
8
fz
10
-2.125
20
-0.9375
30
2.07791
11
-2.125
21
-0.9375
31
7.10591
0
POINT
8
INTERNAL
10
-2.125
20
-1.623798
30
0.9375
0
TEXT
8
ID-NODES
10
-2.125
20
-1.623798
30
0.9375
40
0.05
1
146
72
1
11
-2.125
21
-1.623798
31
0.9375
73
2
0
LINE
8
fz
10
-2.125
20
-1.623798
30
1.599968
11
-2.125
21
-1.623798
31
5.347968
0
POINT
8
INTERNAL
10
-2.125
20
-1.875
30
0.0
0
TEXT
8
ID-NODES
10
-2.125
20
-1.875
30
0.0
40
0.05
1
147
72
1
11
-2.125
21
-1.875
31
0.0
73
2
0
LINE
8
fz
10
-2.125
20
-1.875
30
1.29653
11
-2.125
21
-1.875
31
2.58053
0
POINT
8
EXTERNAL
10
2.725
20
-1.623798
30
1.0625
0
TEXT
8
ID-NODES
10
2.725
20
-1.623798
30
1.0625
40
0.05
1
148
72
1
11
2.725
21
-1.623798
31
1.0625
73
2
0
LINE
8
fz
10
2.725
20
-1.623798
30
1.599968
11
2.725
21
-1.623798
31
1.599968
0
POINT
8
EXTERNAL
10
2.725
20
-0.9375
30
1.748798
0
TEXT
8
ID-NODES
10
2.725
20
-0.9375
30
1.748798
40
0.05
1
149
72
1
11
2.725
21
-0.9375
31
1.748798
73
2
0
LINE
8
fz
10
2.725
20
-0.9375
30
2.07791
11
2.725
21
-0.9375
31
2.07791
0
POINT
8
EXTERNAL
10
2.725
20
0.0
30
2.0
0
TEXT
8
ID-NODES
10
2.725
20
0.0
30
2.0
40
0.05
1
150
72
1
11
2.725
21
0.0
31
2.0
73
2
0
LINE
8
fz
10
2.725
20
0.0
30
2.279609
11
2.725
21
0.0
31
2.279609
0
POINT
8
EXTERNAL
10
2.725
20
0.9375
30
1.748798
0
TEXT
8
ID-NODES
10
2.725
20
0.9375
30
1.748798
40
0.05
1
151
72
1
11
2.725
21
0.9375
31
1.748798
73
2
0
LINE
8
fz
10
2.725
20
0.9375
30
2.07791
11
2.725
21
0.9375
31
2.07791
0
POINT
8
EXTERNAL
10
2.725
20
1.623798
30
1.0625
0
TEXT
8
ID-NODES
10
2.725
20
1.623798
30
1.0625
40
0.05
1
152
72
1
11
2.725
21
1.623798
31
1.0625
73
2
0
LINE
8
fz
10
2.725
20
1.623798
30
1.599968
11
2.725
21
1.623798
31
1.599968
0
POINT
8
EXTERNAL
10
-2.725
20
1.623798
30
1.0625
0
TEXT
8
ID-NODES
10
-2.725
20
1.623798
30
1.0625
40
0.05
1
153
72
1
11
-2.725
21
1.623798
31
1.0625
73
2
0
LINE
8
fz
10
-2.725
20
1.623798
30
1.599968
11
-2.725
21
1.623798
31
1.599968
0
POINT
8
EXTERNAL
10
-2.725
20
0.9375
30
1.748798
0
TEXT
8
ID-NODES
10
-2.725
20
0.9375
30
1.748798
40
0.05
1
154
72
1
11
-2.725
21
0.9375
31
1.748798
73
2
0
LINE
8
fz
10
-2.725
20
0.9375
30
2.07791
11
-2.725
21
0.9375
31
2.07791
0
POINT
8
EXTERNAL
10
-2.725
20
-0.0
30
2.0
0
TEXT
8
ID-NODES
10
-2.725
20
-0.0
30
2.0
40
0.05
1
155
72
1
11
-2.725
21
-0.0
31
2.0
73
2
0
LINE
8
fz
10
-2.725
20
-0.0
30
2.279609
11
-2.725
21
-0.0
31
2.279609
0
POINT
8
EXTERNAL
10
-2.725
20
-0.9375
30
1.748798
0
TEXT
8
ID-NODES
10
-2.725
20
-0.9375
30
1.748798
40
0.05
1
156
72
1
11
-2.725
21
-0.9375
31
1.748798
73
2
0
LINE
8
fz
10
-2.725
20
-0.9375
30
2.07791
11
-2.725
21
-0.9375
31
2.07791
0
POINT
8
EXTERNAL
10
-2.725
20
-1.623798
30
1.0625
0
TEXT
8
ID-NODES
10
-2.725
20
-1.623798
30
1.0625
40
0.05
1
157
72
1
11
-2.725
21
-1.623798
31
1.0625
73
2
0
LINE
8
fz
10
-2.725
20
-1.623798
30
1.599968
11
-2.725
21
-1.623798
31
1.599968
0
POINT
8
EXTERNAL
10
1.623798
20
2.475
30
-2.0625
0
TEXT
8
ID-NODES
10
1.623798
20
2.475
30
-2.0625
40
0.05
1
158
72
1
11
1.623798
21
2.475
31
-2.0625
73
2
0
LINE
8
fz
10
1.623798
20
2.475
30
1.599968
11
1.623798
21
2.475
31
1.599968
0
POINT
8
EXTERNAL
10
0.9375
20
2.475
30
-1.376202
0
TEXT
8
ID-NODES
10
0.9375
20
2.475
30
-1.376202
40
0.05
1
159
72
1
11
0.9375
21
2.475
31
-1.376202
73
2
0
LINE
8
fz
10
0.9375
20
2.475
30
2.07791
11
0.9375
21
2.475
31
2.07791
0
POINT
8
EXTERNAL
10
-0.0
20
2.475
30
-1.125
0
TEXT
8
ID-NODES
10
-0.0
20
2.475
30
-1.125
40
0.05
1
160
72
1
11
-0.0
21
2.475
31
-1.125
73
2
0
LINE
8
fz
10
-0.0
20
2.475
30
2.279609
11
-0.0
21
2.475
31
2.279609
0
POINT
8
EXTERNAL
10
-0.9375
20
2.475
30
-1.376202
0
TEXT
8
ID-NODES
10
-0.9375
20
2.475
30
-1.376202
40
0.05
1
161
72
1
11
-0.9375
21
2.475
31
-1.376202
73
2
0
LINE
8
fz
10
-0.9375
20
2.475
30
2.07791
11
-0.9375
21
2.475
31
2.07791
0
POINT
8
EXTERNAL
10
-1.623798
20
2.475
30
-2.0625
0
TEXT
8
ID-NODES
10
-1.623798
20
2.475
30
-2.0625
40
0.05
1
162
72
1
11
-1.623798
21
2.475
31
-2.0625
73
2
0
LINE
8
fz
10
-1.623798
20
2.475
30
1.599968
11
-1.623798
21
2.475
31
1.599968
0
POINT
8
EXTERNAL
10
-1.623798
20
-2.475
30
-2.0625
0
TEXT
8
ID-NODES
10
-1.623798
20
-2.475
30
-2.0625
40
0.05
1
163
72
1
11
-1.623798
21
-2.475
31
-2.0625
73
2
0
LINE
8
fz
10
-1.623798
20
-2.475
30
1.599968
11
-1.623798
21
-2.475
31
1.599968
0
POINT
8
EXTERNAL
10
-0.9375
20
-2.475
30
-1.376202
0
TEXT
8
ID-NODES
10
-0.9375
20
-2.475
30
-1.376202
40
0.05
1
164
72
1
11
-0.9375
21
-2.475
31
-1.376202
73
2
0
LINE
8
fz
10
-0.9375
20
-2.475
30
2.07791
11
-0.9375
21
-2.475
31
2.07791
0
POINT
8
EXTERNAL
10
0.0
20
-2.475
30
-1.125
0
TEXT
8
ID-NODES
10
0.0
20
-2.475
30
-1.125
40
0.05
1
165
72
1
11
0.0
21
-2.475
31
-1.125
73
2
0
LINE
8
fz
10
0.0
20
-2.475
30
2.279609
11
0.0
21
-2.475
31
2.279609
0
POINT
8
EXTERNAL
10
0.9375
20
-2.475
30
-1.376202
0
TEXT
8
ID-NODES
10
0.9375
20
-2.475
30
-1.376202
40
0.05
1
166
72
1
11
0.9375
21
-2.475
31
-1.376202
73
2
0
LINE
8
fz
10
0.9375
20
-2.475
30
2.07791
11
0.9375
21
-2.475
31
2.07791
0
POINT
8
EXTERNAL
10
1.623798
20
-2.475
30
-2.0625
0
TEXT
8
ID-NODES
10
1.623798
20
-2.475
30
-2.0625
40
0.05
1
167
72
1
11
1.623798
21
-2.475
31
-2.0625
73
2
0
LINE
8
fz
10
1.623798
20
-2.475
30
1.599968
11
1.623798
21
-2.475
31
1.599968
0
POINT
8
EXTERNAL
10
2.375
20
2.375
30
-3.0
0
TEXT
8
ID-NODES
10
2.375
20
2.375
30
-3.0
40
0.05
1
168
72
1
11
2.375
21
2.375
31
-3.0
73
2
0
LINE
8
fz
10
2.375
20
2.375
30
0.0
11
2.375
21
2.375
31
0.0
0
POINT
8
EXTERNAL
10
-2.375
20
2.375
30
-3.0
0
TEXT
8
ID-NODES
10
-2.375
20
2.375
30
-3.0
40
0.05
1
169
72
1
11
-2.375
21
2.375
31
-3.0
73
2
0
LINE
8
fz
10
-2.375
20
2.375
30
0.0
11
-2.375
21
2.375
31
0.0
0
POINT
8
EXTERNAL
10
-2.375
20
-2.375
30
-3.0
0
TEXT
8
ID-NODES
10
-2.375
20
-2.375
30
-3.0
40
0.05
1
170
72
1
11
-2.375
21
-2.375
31
-3.0
73
2
0
LINE
8
fz
10
-2.375
20
-2.375
30
0.0
11
-2.375
21
-2.375
31
0.0
0
POINT
8
EXTERNAL
10
2.375
20
-2.375
30
-3.0
0
TEXT
8
ID-NODES
10
2.375
20
-2.375
30
-3.0
40
0.05
1
171
72
1
11
2.375
21
-2.375
31
-3.0
73
2
0
LINE
8
fz
10
2.375
20
-2.375
30
0.0
11
2.375
21
-2.375
31
0.0
0
POINT
8
EXTERNAL
10
2.125
20
-2.375
30
0.0
0
TEXT
8
ID-NODES
10
2.125
20
-2.375
30
0.0
40
0.05
1
172
72
1
11
2.125
21
-2.375
31
0.0
73
2
0
LINE
8
fz
10
2.125
20
-2.375
30
-3.0
11
2.125
21
-2.375
31
-3.0
0
POINT
8
EXTERNAL
10
2.125
20
2.375
30
0.0
0
TEXT
8
ID-NODES
10
2.125
20
2.375
30
0.0
40
0.05
1
173
72
1
11
2.125
21
2.375
31
0.0
73
2
0
LINE
8
fz
10
2.125
20
2.375
30
-3.0
11
2.125
21
2.375
31
-3.0
0
POINT
8
EXTERNAL
10
-2.125
20
2.375
30
0.0
0
TEXT
8
ID-NODES
10
-2.125
20
2.375
30
0.0
40
0.05
1
174
72
1
11
-2.125
21
2.375
31
0.0
73
2
0
LINE
8
fz
10
-2.125
20
2.375
30
-3.0
11
-2.125
21
2.375
31
-3.0
0
POINT
8
EXTERNAL
10
-2.125
20
-2.375
30
0.0
0
TEXT
8
ID-NODES
10
-2.125
20
-2.375
30
0.0
40
0.05
1
175
72
1
11
-2.125
21
-2.375
31
0.0
73
2
0
LINE
8
fz
10
-2.125
20
-2.375
30
-3.0
11
-2.125
21
-2.375
31
-3.0
0
ENDSEC
0
EOF
