999
DXF created from myself (Fortunato Siano)
0
SECTION
2
ENTITIES
0
LINE
8
INTRADOSSO
62
256
48
1.0
10
-1.875
20
-1.875
30
0.0
11
-1.640625
21
-1.875
31
0.90773
0
LINE
8
ESTRADOSSO
62
256
48
1.0
10
-1.875
20
-1.875
30
1.29653
11
-1.640625
21
-1.875
31
1.582708
0
LINE
8
INTRADOSSO
62
256
48
1.0
10
-1.640625
20
-1.875
30
0.90773
11
-1.40625
21
-1.875
31
1.240196
0
LINE
8
ESTRADOSSO
62
256
48
1.0
10
-1.640625
20
-1.875
30
1.582708
11
-1.40625
21
-1.875
31
1.794178
0
LINE
8
INTRADOSSO
62
256
48
1.0
10
-1.40625
20
-1.875
30
1.240196
11
-0.9375
21
-1.875
31
1.623798
0
LINE
8
ESTRADOSSO
62
256
48
1.0
10
-1.40625
20
-1.875
30
1.794178
11
-0.9375
21
-1.875
31
2.07791
0
LINE
8
INTRADOSSO
62
256
48
1.0
10
-0.9375
20
-1.875
30
1.623798
11
-0.46875
21
-1.875
31
1.815461
0
LINE
8
ESTRADOSSO
62
256
48
1.0
10
-0.9375
20
-1.875
30
2.07791
11
-0.46875
21
-1.875
31
2.230894
0
LINE
8
INTRADOSSO
62
256
48
1.0
10
-0.46875
20
-1.875
30
1.815461
11
0.0
21
-1.875
31
1.875
0
LINE
8
ESTRADOSSO
62
256
48
1.0
10
-0.46875
20
-1.875
30
2.230894
11
0.0
21
-1.875
31
2.279609
0
LINE
8
INTRADOSSO
62
256
48
1.0
10
0.0
20
-1.875
30
1.875
11
0.46875
21
-1.875
31
1.815461
0
LINE
8
ESTRADOSSO
62
256
48
1.0
10
0.0
20
-1.875
30
2.279609
11
0.46875
21
-1.875
31
2.230894
0
LINE
8
INTRADOSSO
62
256
48
1.0
10
0.46875
20
-1.875
30
1.815461
11
0.9375
21
-1.875
31
1.623798
0
LINE
8
ESTRADOSSO
62
256
48
1.0
10
0.46875
20
-1.875
30
2.230894
11
0.9375
21
-1.875
31
2.07791
0
LINE
8
INTRADOSSO
62
256
48
1.0
10
0.9375
20
-1.875
30
1.623798
11
1.40625
21
-1.875
31
1.240196
0
LINE
8
ESTRADOSSO
62
256
48
1.0
10
0.9375
20
-1.875
30
2.07791
11
1.40625
21
-1.875
31
1.794178
0
LINE
8
INTRADOSSO
62
256
48
1.0
10
1.40625
20
-1.875
30
1.240196
11
1.640625
21
-1.875
31
0.90773
0
LINE
8
ESTRADOSSO
62
256
48
1.0
10
1.40625
20
-1.875
30
1.794178
11
1.640625
21
-1.875
31
1.582708
0
LINE
8
INTRADOSSO
62
256
48
1.0
10
1.640625
20
-1.875
30
0.90773
11
1.875
21
-1.875
31
0.0
0
LINE
8
ESTRADOSSO
62
256
48
1.0
10
1.640625
20
-1.875
30
1.582708
11
1.875
21
-1.875
31
1.29653
0
LINE
8
INTRADOSSO
62
256
48
1.0
10
-1.875
20
-1.40625
30
1.240196
11
-1.40625
21
-1.40625
31
1.753902
0
LINE
8
ESTRADOSSO
62
256
48
1.0
10
-1.875
20
-1.40625
30
1.794178
11
-1.40625
21
-1.40625
31
2.181092
0
LINE
8
INTRADOSSO
62
256
48
1.0
10
-1.40625
20
-1.40625
30
1.753902
11
-0.9375
21
-1.40625
31
2.043234
0
LINE
8
ESTRADOSSO
62
256
48
1.0
10
-1.40625
20
-1.40625
30
2.181092
11
-0.9375
21
-1.40625
31
2.419875
0
LINE
8
INTRADOSSO
62
256
48
1.0
10
-0.9375
20
-1.40625
30
2.043234
11
-0.46875
21
-1.40625
31
2.198632
0
LINE
8
ESTRADOSSO
62
256
48
1.0
10
-0.9375
20
-1.40625
30
2.419875
11
-0.46875
21
-1.40625
31
2.552445
0
LINE
8
INTRADOSSO
62
256
48
1.0
10
-0.46875
20
-1.40625
30
2.198632
11
0.0
21
-1.40625
31
2.248046
0
LINE
8
ESTRADOSSO
62
256
48
1.0
10
-0.46875
20
-1.40625
30
2.552445
11
0.0
21
-1.40625
31
2.59513
0
LINE
8
INTRADOSSO
62
256
48
1.0
10
0.0
20
-1.40625
30
2.248046
11
0.46875
21
-1.40625
31
2.198632
0
LINE
8
ESTRADOSSO
62
256
48
1.0
10
0.0
20
-1.40625
30
2.59513
11
0.46875
21
-1.40625
31
2.552445
0
LINE
8
INTRADOSSO
62
256
48
1.0
10
0.46875
20
-1.40625
30
2.198632
11
0.9375
21
-1.40625
31
2.043234
0
LINE
8
ESTRADOSSO
62
256
48
1.0
10
0.46875
20
-1.40625
30
2.552445
11
0.9375
21
-1.40625
31
2.419875
0
LINE
8
INTRADOSSO
62
256
48
1.0
10
0.9375
20
-1.40625
30
2.043234
11
1.40625
21
-1.40625
31
1.753902
0
LINE
8
ESTRADOSSO
62
256
48
1.0
10
0.9375
20
-1.40625
30
2.419875
11
1.40625
21
-1.40625
31
2.181092
0
LINE
8
INTRADOSSO
62
256
48
1.0
10
1.40625
20
-1.40625
30
1.753902
11
1.875
21
-1.40625
31
1.240196
0
LINE
8
ESTRADOSSO
62
256
48
1.0
10
1.40625
20
-1.40625
30
2.181092
11
1.875
21
-1.40625
31
1.794178
0
LINE
8
INTRADOSSO
62
256
48
1.0
10
-1.875
20
-0.9375
30
1.623798
11
-1.40625
21
-0.9375
31
2.043234
0
LINE
8
ESTRADOSSO
62
256
48
1.0
10
-1.875
20
-0.9375
30
2.07791
11
-1.40625
21
-0.9375
31
2.419875
0
LINE
8
INTRADOSSO
62
256
48
1.0
10
-1.40625
20
-0.9375
30
2.043234
11
-0.9375
21
-0.9375
31
2.296397
0
LINE
8
ESTRADOSSO
62
256
48
1.0
10
-1.40625
20
-0.9375
30
2.419875
11
-0.9375
21
-0.9375
31
2.637125
0
LINE
8
INTRADOSSO
62
256
48
1.0
10
-0.9375
20
-0.9375
30
2.296397
11
-0.46875
21
-0.9375
31
2.435696
0
LINE
8
ESTRADOSSO
62
256
48
1.0
10
-0.9375
20
-0.9375
30
2.637125
11
-0.46875
21
-0.9375
31
2.759277
0
LINE
8
INTRADOSSO
62
256
48
1.0
10
-0.46875
20
-0.9375
30
2.435696
11
0.0
21
-0.9375
31
2.480392
0
LINE
8
ESTRADOSSO
62
256
48
1.0
10
-0.46875
20
-0.9375
30
2.759277
11
0.0
21
-0.9375
31
2.798809
0
LINE
8
INTRADOSSO
62
256
48
1.0
10
0.0
20
-0.9375
30
2.480392
11
0.46875
21
-0.9375
31
2.435696
0
LINE
8
ESTRADOSSO
62
256
48
1.0
10
0.0
20
-0.9375
30
2.798809
11
0.46875
21
-0.9375
31
2.759277
0
LINE
8
INTRADOSSO
62
256
48
1.0
10
0.46875
20
-0.9375
30
2.435696
11
0.9375
21
-0.9375
31
2.296397
0
LINE
8
ESTRADOSSO
62
256
48
1.0
10
0.46875
20
-0.9375
30
2.759277
11
0.9375
21
-0.9375
31
2.637125
0
LINE
8
INTRADOSSO
62
256
48
1.0
10
0.9375
20
-0.9375
30
2.296397
11
1.40625
21
-0.9375
31
2.043234
0
LINE
8
ESTRADOSSO
62
256
48
1.0
10
0.9375
20
-0.9375
30
2.637125
11
1.40625
21
-0.9375
31
2.419875
0
LINE
8
INTRADOSSO
62
256
48
1.0
10
1.40625
20
-0.9375
30
2.043234
11
1.875
21
-0.9375
31
1.623798
0
LINE
8
ESTRADOSSO
62
256
48
1.0
10
1.40625
20
-0.9375
30
2.419875
11
1.875
21
-0.9375
31
2.07791
0
LINE
8
INTRADOSSO
62
256
48
1.0
10
-1.875
20
-0.46875
30
1.815461
11
-1.40625
21
-0.46875
31
2.198632
0
LINE
8
ESTRADOSSO
62
256
48
1.0
10
-1.875
20
-0.46875
30
2.230894
11
-1.40625
21
-0.46875
31
2.552445
0
LINE
8
INTRADOSSO
62
256
48
1.0
10
-1.40625
20
-0.46875
30
2.198632
11
-0.9375
21
-0.46875
31
2.435696
0
LINE
8
ESTRADOSSO
62
256
48
1.0
10
-1.40625
20
-0.46875
30
2.552445
11
-0.9375
21
-0.46875
31
2.759277
0
LINE
8
INTRADOSSO
62
256
48
1.0
10
-0.9375
20
-0.46875
30
2.435696
11
-0.46875
21
-0.46875
31
2.567449
0
LINE
8
ESTRADOSSO
62
256
48
1.0
10
-0.9375
20
-0.46875
30
2.759277
11
-0.46875
21
-0.46875
31
2.876245
0
LINE
8
INTRADOSSO
62
256
48
1.0
10
-0.46875
20
-0.46875
30
2.567449
11
0.0
21
-0.46875
31
2.60989
0
LINE
8
ESTRADOSSO
62
256
48
1.0
10
-0.46875
20
-0.46875
30
2.876245
11
0.0
21
-0.46875
31
2.914192
0
LINE
8
INTRADOSSO
62
256
48
1.0
10
0.0
20
-0.46875
30
2.60989
11
0.46875
21
-0.46875
31
2.567449
0
LINE
8
ESTRADOSSO
62
256
48
1.0
10
0.0
20
-0.46875
30
2.914192
11
0.46875
21
-0.46875
31
2.876245
0
LINE
8
INTRADOSSO
62
256
48
1.0
10
0.46875
20
-0.46875
30
2.567449
11
0.9375
21
-0.46875
31
2.435696
0
LINE
8
ESTRADOSSO
62
256
48
1.0
10
0.46875
20
-0.46875
30
2.876245
11
0.9375
21
-0.46875
31
2.759277
0
LINE
8
INTRADOSSO
62
256
48
1.0
10
0.9375
20
-0.46875
30
2.435696
11
1.40625
21
-0.46875
31
2.198632
0
LINE
8
ESTRADOSSO
62
256
48
1.0
10
0.9375
20
-0.46875
30
2.759277
11
1.40625
21
-0.46875
31
2.552445
0
LINE
8
INTRADOSSO
62
256
48
1.0
10
1.40625
20
-0.46875
30
2.198632
11
1.875
21
-0.46875
31
1.815461
0
LINE
8
ESTRADOSSO
62
256
48
1.0
10
1.40625
20
-0.46875
30
2.552445
11
1.875
21
-0.46875
31
2.230894
0
LINE
8
INTRADOSSO
62
256
48
1.0
10
-1.875
20
0.0
30
1.875
11
-1.40625
21
0.0
31
2.248046
0
LINE
8
ESTRADOSSO
62
256
48
1.0
10
-1.875
20
0.0
30
2.279609
11
-1.40625
21
0.0
31
2.59513
0
LINE
8
INTRADOSSO
62
256
48
1.0
10
-1.40625
20
0.0
30
2.248046
11
-0.9375
21
0.0
31
2.480392
0
LINE
8
ESTRADOSSO
62
256
48
1.0
10
-1.40625
20
0.0
30
2.59513
11
-0.9375
21
0.0
31
2.798809
0
LINE
8
INTRADOSSO
62
256
48
1.0
10
-0.9375
20
0.0
30
2.480392
11
-0.46875
21
0.0
31
2.60989
0
LINE
8
ESTRADOSSO
62
256
48
1.0
10
-0.9375
20
0.0
30
2.798809
11
-0.46875
21
0.0
31
2.914192
0
LINE
8
INTRADOSSO
62
256
48
1.0
10
-0.46875
20
0.0
30
2.60989
11
0.0
21
0.0
31
2.65165
0
LINE
8
ESTRADOSSO
62
256
48
1.0
10
-0.46875
20
0.0
30
2.914192
11
0.0
21
0.0
31
2.95165
0
LINE
8
INTRADOSSO
62
256
48
1.0
10
0.0
20
0.0
30
2.65165
11
0.46875
21
0.0
31
2.60989
0
LINE
8
ESTRADOSSO
62
256
48
1.0
10
0.0
20
0.0
30
2.95165
11
0.46875
21
0.0
31
2.914192
0
LINE
8
INTRADOSSO
62
256
48
1.0
10
0.46875
20
0.0
30
2.60989
11
0.9375
21
0.0
31
2.480392
0
LINE
8
ESTRADOSSO
62
256
48
1.0
10
0.46875
20
0.0
30
2.914192
11
0.9375
21
0.0
31
2.798809
0
LINE
8
INTRADOSSO
62
256
48
1.0
10
0.9375
20
0.0
30
2.480392
11
1.40625
21
0.0
31
2.248046
0
LINE
8
ESTRADOSSO
62
256
48
1.0
10
0.9375
20
0.0
30
2.798809
11
1.40625
21
0.0
31
2.59513
0
LINE
8
INTRADOSSO
62
256
48
1.0
10
1.40625
20
0.0
30
2.248046
11
1.875
21
0.0
31
1.875
0
LINE
8
ESTRADOSSO
62
256
48
1.0
10
1.40625
20
0.0
30
2.59513
11
1.875
21
0.0
31
2.279609
0
LINE
8
INTRADOSSO
62
256
48
1.0
10
-1.875
20
0.46875
30
1.815461
11
-1.40625
21
0.46875
31
2.198632
0
LINE
8
ESTRADOSSO
62
256
48
1.0
10
-1.875
20
0.46875
30
2.230894
11
-1.40625
21
0.46875
31
2.552445
0
LINE
8
INTRADOSSO
62
256
48
1.0
10
-1.40625
20
0.46875
30
2.198632
11
-0.9375
21
0.46875
31
2.435696
0
LINE
8
ESTRADOSSO
62
256
48
1.0
10
-1.40625
20
0.46875
30
2.552445
11
-0.9375
21
0.46875
31
2.759277
0
LINE
8
INTRADOSSO
62
256
48
1.0
10
-0.9375
20
0.46875
30
2.435696
11
-0.46875
21
0.46875
31
2.567449
0
LINE
8
ESTRADOSSO
62
256
48
1.0
10
-0.9375
20
0.46875
30
2.759277
11
-0.46875
21
0.46875
31
2.876245
0
LINE
8
INTRADOSSO
62
256
48
1.0
10
-0.46875
20
0.46875
30
2.567449
11
0.0
21
0.46875
31
2.60989
0
LINE
8
ESTRADOSSO
62
256
48
1.0
10
-0.46875
20
0.46875
30
2.876245
11
0.0
21
0.46875
31
2.914192
0
LINE
8
INTRADOSSO
62
256
48
1.0
10
0.0
20
0.46875
30
2.60989
11
0.46875
21
0.46875
31
2.567449
0
LINE
8
ESTRADOSSO
62
256
48
1.0
10
0.0
20
0.46875
30
2.914192
11
0.46875
21
0.46875
31
2.876245
0
LINE
8
INTRADOSSO
62
256
48
1.0
10
0.46875
20
0.46875
30
2.567449
11
0.9375
21
0.46875
31
2.435696
0
LINE
8
ESTRADOSSO
62
256
48
1.0
10
0.46875
20
0.46875
30
2.876245
11
0.9375
21
0.46875
31
2.759277
0
LINE
8
INTRADOSSO
62
256
48
1.0
10
0.9375
20
0.46875
30
2.435696
11
1.40625
21
0.46875
31
2.198632
0
LINE
8
ESTRADOSSO
62
256
48
1.0
10
0.9375
20
0.46875
30
2.759277
11
1.40625
21
0.46875
31
2.552445
0
LINE
8
INTRADOSSO
62
256
48
1.0
10
1.40625
20
0.46875
30
2.198632
11
1.875
21
0.46875
31
1.815461
0
LINE
8
ESTRADOSSO
62
256
48
1.0
10
1.40625
20
0.46875
30
2.552445
11
1.875
21
0.46875
31
2.230894
0
LINE
8
INTRADOSSO
62
256
48
1.0
10
-1.875
20
0.9375
30
1.623798
11
-1.40625
21
0.9375
31
2.043234
0
LINE
8
ESTRADOSSO
62
256
48
1.0
10
-1.875
20
0.9375
30
2.07791
11
-1.40625
21
0.9375
31
2.419875
0
LINE
8
INTRADOSSO
62
256
48
1.0
10
-1.40625
20
0.9375
30
2.043234
11
-0.9375
21
0.9375
31
2.296397
0
LINE
8
ESTRADOSSO
62
256
48
1.0
10
-1.40625
20
0.9375
30
2.419875
11
-0.9375
21
0.9375
31
2.637125
0
LINE
8
INTRADOSSO
62
256
48
1.0
10
-0.9375
20
0.9375
30
2.296397
11
-0.46875
21
0.9375
31
2.435696
0
LINE
8
ESTRADOSSO
62
256
48
1.0
10
-0.9375
20
0.9375
30
2.637125
11
-0.46875
21
0.9375
31
2.759277
0
LINE
8
INTRADOSSO
62
256
48
1.0
10
-0.46875
20
0.9375
30
2.435696
11
0.0
21
0.9375
31
2.480392
0
LINE
8
ESTRADOSSO
62
256
48
1.0
10
-0.46875
20
0.9375
30
2.759277
11
0.0
21
0.9375
31
2.798809
0
LINE
8
INTRADOSSO
62
256
48
1.0
10
0.0
20
0.9375
30
2.480392
11
0.46875
21
0.9375
31
2.435696
0
LINE
8
ESTRADOSSO
62
256
48
1.0
10
0.0
20
0.9375
30
2.798809
11
0.46875
21
0.9375
31
2.759277
0
LINE
8
INTRADOSSO
62
256
48
1.0
10
0.46875
20
0.9375
30
2.435696
11
0.9375
21
0.9375
31
2.296397
0
LINE
8
ESTRADOSSO
62
256
48
1.0
10
0.46875
20
0.9375
30
2.759277
11
0.9375
21
0.9375
31
2.637125
0
LINE
8
INTRADOSSO
62
256
48
1.0
10
0.9375
20
0.9375
30
2.296397
11
1.40625
21
0.9375
31
2.043234
0
LINE
8
ESTRADOSSO
62
256
48
1.0
10
0.9375
20
0.9375
30
2.637125
11
1.40625
21
0.9375
31
2.419875
0
LINE
8
INTRADOSSO
62
256
48
1.0
10
1.40625
20
0.9375
30
2.043234
11
1.875
21
0.9375
31
1.623798
0
LINE
8
ESTRADOSSO
62
256
48
1.0
10
1.40625
20
0.9375
30
2.419875
11
1.875
21
0.9375
31
2.07791
0
LINE
8
INTRADOSSO
62
256
48
1.0
10
-1.875
20
1.40625
30
1.240196
11
-1.40625
21
1.40625
31
1.753902
0
LINE
8
ESTRADOSSO
62
256
48
1.0
10
-1.875
20
1.40625
30
1.794178
11
-1.40625
21
1.40625
31
2.181092
0
LINE
8
INTRADOSSO
62
256
48
1.0
10
-1.40625
20
1.40625
30
1.753902
11
-0.9375
21
1.40625
31
2.043234
0
LINE
8
ESTRADOSSO
62
256
48
1.0
10
-1.40625
20
1.40625
30
2.181092
11
-0.9375
21
1.40625
31
2.419875
0
LINE
8
INTRADOSSO
62
256
48
1.0
10
-0.9375
20
1.40625
30
2.043234
11
-0.46875
21
1.40625
31
2.198632
0
LINE
8
ESTRADOSSO
62
256
48
1.0
10
-0.9375
20
1.40625
30
2.419875
11
-0.46875
21
1.40625
31
2.552445
0
LINE
8
INTRADOSSO
62
256
48
1.0
10
-0.46875
20
1.40625
30
2.198632
11
0.0
21
1.40625
31
2.248046
0
LINE
8
ESTRADOSSO
62
256
48
1.0
10
-0.46875
20
1.40625
30
2.552445
11
0.0
21
1.40625
31
2.59513
0
LINE
8
INTRADOSSO
62
256
48
1.0
10
0.0
20
1.40625
30
2.248046
11
0.46875
21
1.40625
31
2.198632
0
LINE
8
ESTRADOSSO
62
256
48
1.0
10
0.0
20
1.40625
30
2.59513
11
0.46875
21
1.40625
31
2.552445
0
LINE
8
INTRADOSSO
62
256
48
1.0
10
0.46875
20
1.40625
30
2.198632
11
0.9375
21
1.40625
31
2.043234
0
LINE
8
ESTRADOSSO
62
256
48
1.0
10
0.46875
20
1.40625
30
2.552445
11
0.9375
21
1.40625
31
2.419875
0
LINE
8
INTRADOSSO
62
256
48
1.0
10
0.9375
20
1.40625
30
2.043234
11
1.40625
21
1.40625
31
1.753902
0
LINE
8
ESTRADOSSO
62
256
48
1.0
10
0.9375
20
1.40625
30
2.419875
11
1.40625
21
1.40625
31
2.181092
0
LINE
8
INTRADOSSO
62
256
48
1.0
10
1.40625
20
1.40625
30
1.753902
11
1.875
21
1.40625
31
1.240196
0
LINE
8
ESTRADOSSO
62
256
48
1.0
10
1.40625
20
1.40625
30
2.181092
11
1.875
21
1.40625
31
1.794178
0
LINE
8
INTRADOSSO
62
256
48
1.0
10
-1.875
20
1.875
30
0.0
11
-1.640625
21
1.875
31
0.90773
0
LINE
8
ESTRADOSSO
62
256
48
1.0
10
-1.875
20
1.875
30
1.29653
11
-1.640625
21
1.875
31
1.582708
0
LINE
8
INTRADOSSO
62
256
48
1.0
10
-1.640625
20
1.875
30
0.90773
11
-1.40625
21
1.875
31
1.240196
0
LINE
8
ESTRADOSSO
62
256
48
1.0
10
-1.640625
20
1.875
30
1.582708
11
-1.40625
21
1.875
31
1.794178
0
LINE
8
INTRADOSSO
62
256
48
1.0
10
-1.40625
20
1.875
30
1.240196
11
-0.9375
21
1.875
31
1.623798
0
LINE
8
ESTRADOSSO
62
256
48
1.0
10
-1.40625
20
1.875
30
1.794178
11
-0.9375
21
1.875
31
2.07791
0
LINE
8
INTRADOSSO
62
256
48
1.0
10
-0.9375
20
1.875
30
1.623798
11
-0.46875
21
1.875
31
1.815461
0
LINE
8
ESTRADOSSO
62
256
48
1.0
10
-0.9375
20
1.875
30
2.07791
11
-0.46875
21
1.875
31
2.230894
0
LINE
8
INTRADOSSO
62
256
48
1.0
10
-0.46875
20
1.875
30
1.815461
11
0.0
21
1.875
31
1.875
0
LINE
8
ESTRADOSSO
62
256
48
1.0
10
-0.46875
20
1.875
30
2.230894
11
0.0
21
1.875
31
2.279609
0
LINE
8
INTRADOSSO
62
256
48
1.0
10
0.0
20
1.875
30
1.875
11
0.46875
21
1.875
31
1.815461
0
LINE
8
ESTRADOSSO
62
256
48
1.0
10
0.0
20
1.875
30
2.279609
11
0.46875
21
1.875
31
2.230894
0
LINE
8
INTRADOSSO
62
256
48
1.0
10
0.46875
20
1.875
30
1.815461
11
0.9375
21
1.875
31
1.623798
0
LINE
8
ESTRADOSSO
62
256
48
1.0
10
0.46875
20
1.875
30
2.230894
11
0.9375
21
1.875
31
2.07791
0
LINE
8
INTRADOSSO
62
256
48
1.0
10
0.9375
20
1.875
30
1.623798
11
1.40625
21
1.875
31
1.240196
0
LINE
8
ESTRADOSSO
62
256
48
1.0
10
0.9375
20
1.875
30
2.07791
11
1.40625
21
1.875
31
1.794178
0
LINE
8
INTRADOSSO
62
256
48
1.0
10
1.40625
20
1.875
30
1.240196
11
1.640625
21
1.875
31
0.90773
0
LINE
8
ESTRADOSSO
62
256
48
1.0
10
1.40625
20
1.875
30
1.794178
11
1.640625
21
1.875
31
1.582708
0
LINE
8
INTRADOSSO
62
256
48
1.0
10
1.640625
20
1.875
30
0.90773
11
1.875
21
1.875
31
0.0
0
LINE
8
ESTRADOSSO
62
256
48
1.0
10
1.640625
20
1.875
30
1.582708
11
1.875
21
1.875
31
1.29653
0
LINE
8
INTRADOSSO
62
256
48
1.0
10
-1.875
20
-1.875
30
0.0
11
-1.875
21
-1.640625
31
0.90773
0
LINE
8
ESTRADOSSO
62
256
48
1.0
10
-1.875
20
-1.875
30
1.29653
11
-1.875
21
-1.640625
31
1.582708
0
LINE
8
INTRADOSSO
62
256
48
1.0
10
-1.875
20
-1.640625
30
0.90773
11
-1.875
21
-1.40625
31
1.240196
0
LINE
8
ESTRADOSSO
62
256
48
1.0
10
-1.875
20
-1.640625
30
1.582708
11
-1.875
21
-1.40625
31
1.794178
0
LINE
8
INTRADOSSO
62
256
48
1.0
10
-1.875
20
-1.40625
30
1.240196
11
-1.875
21
-0.9375
31
1.623798
0
LINE
8
ESTRADOSSO
62
256
48
1.0
10
-1.875
20
-1.40625
30
1.794178
11
-1.875
21
-0.9375
31
2.07791
0
LINE
8
INTRADOSSO
62
256
48
1.0
10
-1.875
20
-0.9375
30
1.623798
11
-1.875
21
-0.46875
31
1.815461
0
LINE
8
ESTRADOSSO
62
256
48
1.0
10
-1.875
20
-0.9375
30
2.07791
11
-1.875
21
-0.46875
31
2.230894
0
LINE
8
INTRADOSSO
62
256
48
1.0
10
-1.875
20
-0.46875
30
1.815461
11
-1.875
21
0.0
31
1.875
0
LINE
8
ESTRADOSSO
62
256
48
1.0
10
-1.875
20
-0.46875
30
2.230894
11
-1.875
21
0.0
31
2.279609
0
LINE
8
INTRADOSSO
62
256
48
1.0
10
-1.875
20
0.0
30
1.875
11
-1.875
21
0.46875
31
1.815461
0
LINE
8
ESTRADOSSO
62
256
48
1.0
10
-1.875
20
0.0
30
2.279609
11
-1.875
21
0.46875
31
2.230894
0
LINE
8
INTRADOSSO
62
256
48
1.0
10
-1.875
20
0.46875
30
1.815461
11
-1.875
21
0.9375
31
1.623798
0
LINE
8
ESTRADOSSO
62
256
48
1.0
10
-1.875
20
0.46875
30
2.230894
11
-1.875
21
0.9375
31
2.07791
0
LINE
8
INTRADOSSO
62
256
48
1.0
10
-1.875
20
0.9375
30
1.623798
11
-1.875
21
1.40625
31
1.240196
0
LINE
8
ESTRADOSSO
62
256
48
1.0
10
-1.875
20
0.9375
30
2.07791
11
-1.875
21
1.40625
31
1.794178
0
LINE
8
INTRADOSSO
62
256
48
1.0
10
-1.875
20
1.40625
30
1.240196
11
-1.875
21
1.640625
31
0.90773
0
LINE
8
ESTRADOSSO
62
256
48
1.0
10
-1.875
20
1.40625
30
1.794178
11
-1.875
21
1.640625
31
1.582708
0
LINE
8
INTRADOSSO
62
256
48
1.0
10
-1.875
20
1.640625
30
0.90773
11
-1.875
21
1.875
31
0.0
0
LINE
8
ESTRADOSSO
62
256
48
1.0
10
-1.875
20
1.640625
30
1.582708
11
-1.875
21
1.875
31
1.29653
0
LINE
8
INTRADOSSO
62
256
48
1.0
10
-1.40625
20
-1.875
30
1.240196
11
-1.40625
21
-1.40625
31
1.753902
0
LINE
8
ESTRADOSSO
62
256
48
1.0
10
-1.40625
20
-1.875
30
1.794178
11
-1.40625
21
-1.40625
31
2.181092
0
LINE
8
INTRADOSSO
62
256
48
1.0
10
-1.40625
20
-1.40625
30
1.753902
11
-1.40625
21
-0.9375
31
2.043234
0
LINE
8
ESTRADOSSO
62
256
48
1.0
10
-1.40625
20
-1.40625
30
2.181092
11
-1.40625
21
-0.9375
31
2.419875
0
LINE
8
INTRADOSSO
62
256
48
1.0
10
-1.40625
20
-0.9375
30
2.043234
11
-1.40625
21
-0.46875
31
2.198632
0
LINE
8
ESTRADOSSO
62
256
48
1.0
10
-1.40625
20
-0.9375
30
2.419875
11
-1.40625
21
-0.46875
31
2.552445
0
LINE
8
INTRADOSSO
62
256
48
1.0
10
-1.40625
20
-0.46875
30
2.198632
11
-1.40625
21
0.0
31
2.248046
0
LINE
8
ESTRADOSSO
62
256
48
1.0
10
-1.40625
20
-0.46875
30
2.552445
11
-1.40625
21
0.0
31
2.59513
0
LINE
8
INTRADOSSO
62
256
48
1.0
10
-1.40625
20
0.0
30
2.248046
11
-1.40625
21
0.46875
31
2.198632
0
LINE
8
ESTRADOSSO
62
256
48
1.0
10
-1.40625
20
0.0
30
2.59513
11
-1.40625
21
0.46875
31
2.552445
0
LINE
8
INTRADOSSO
62
256
48
1.0
10
-1.40625
20
0.46875
30
2.198632
11
-1.40625
21
0.9375
31
2.043234
0
LINE
8
ESTRADOSSO
62
256
48
1.0
10
-1.40625
20
0.46875
30
2.552445
11
-1.40625
21
0.9375
31
2.419875
0
LINE
8
INTRADOSSO
62
256
48
1.0
10
-1.40625
20
0.9375
30
2.043234
11
-1.40625
21
1.40625
31
1.753902
0
LINE
8
ESTRADOSSO
62
256
48
1.0
10
-1.40625
20
0.9375
30
2.419875
11
-1.40625
21
1.40625
31
2.181092
0
LINE
8
INTRADOSSO
62
256
48
1.0
10
-1.40625
20
1.40625
30
1.753902
11
-1.40625
21
1.875
31
1.240196
0
LINE
8
ESTRADOSSO
62
256
48
1.0
10
-1.40625
20
1.40625
30
2.181092
11
-1.40625
21
1.875
31
1.794178
0
LINE
8
INTRADOSSO
62
256
48
1.0
10
-0.9375
20
-1.875
30
1.623798
11
-0.9375
21
-1.40625
31
2.043234
0
LINE
8
ESTRADOSSO
62
256
48
1.0
10
-0.9375
20
-1.875
30
2.07791
11
-0.9375
21
-1.40625
31
2.419875
0
LINE
8
INTRADOSSO
62
256
48
1.0
10
-0.9375
20
-1.40625
30
2.043234
11
-0.9375
21
-0.9375
31
2.296397
0
LINE
8
ESTRADOSSO
62
256
48
1.0
10
-0.9375
20
-1.40625
30
2.419875
11
-0.9375
21
-0.9375
31
2.637125
0
LINE
8
INTRADOSSO
62
256
48
1.0
10
-0.9375
20
-0.9375
30
2.296397
11
-0.9375
21
-0.46875
31
2.435696
0
LINE
8
ESTRADOSSO
62
256
48
1.0
10
-0.9375
20
-0.9375
30
2.637125
11
-0.9375
21
-0.46875
31
2.759277
0
LINE
8
INTRADOSSO
62
256
48
1.0
10
-0.9375
20
-0.46875
30
2.435696
11
-0.9375
21
0.0
31
2.480392
0
LINE
8
ESTRADOSSO
62
256
48
1.0
10
-0.9375
20
-0.46875
30
2.759277
11
-0.9375
21
0.0
31
2.798809
0
LINE
8
INTRADOSSO
62
256
48
1.0
10
-0.9375
20
0.0
30
2.480392
11
-0.9375
21
0.46875
31
2.435696
0
LINE
8
ESTRADOSSO
62
256
48
1.0
10
-0.9375
20
0.0
30
2.798809
11
-0.9375
21
0.46875
31
2.759277
0
LINE
8
INTRADOSSO
62
256
48
1.0
10
-0.9375
20
0.46875
30
2.435696
11
-0.9375
21
0.9375
31
2.296397
0
LINE
8
ESTRADOSSO
62
256
48
1.0
10
-0.9375
20
0.46875
30
2.759277
11
-0.9375
21
0.9375
31
2.637125
0
LINE
8
INTRADOSSO
62
256
48
1.0
10
-0.9375
20
0.9375
30
2.296397
11
-0.9375
21
1.40625
31
2.043234
0
LINE
8
ESTRADOSSO
62
256
48
1.0
10
-0.9375
20
0.9375
30
2.637125
11
-0.9375
21
1.40625
31
2.419875
0
LINE
8
INTRADOSSO
62
256
48
1.0
10
-0.9375
20
1.40625
30
2.043234
11
-0.9375
21
1.875
31
1.623798
0
LINE
8
ESTRADOSSO
62
256
48
1.0
10
-0.9375
20
1.40625
30
2.419875
11
-0.9375
21
1.875
31
2.07791
0
LINE
8
INTRADOSSO
62
256
48
1.0
10
-0.46875
20
-1.875
30
1.815461
11
-0.46875
21
-1.40625
31
2.198632
0
LINE
8
ESTRADOSSO
62
256
48
1.0
10
-0.46875
20
-1.875
30
2.230894
11
-0.46875
21
-1.40625
31
2.552445
0
LINE
8
INTRADOSSO
62
256
48
1.0
10
-0.46875
20
-1.40625
30
2.198632
11
-0.46875
21
-0.9375
31
2.435696
0
LINE
8
ESTRADOSSO
62
256
48
1.0
10
-0.46875
20
-1.40625
30
2.552445
11
-0.46875
21
-0.9375
31
2.759277
0
LINE
8
INTRADOSSO
62
256
48
1.0
10
-0.46875
20
-0.9375
30
2.435696
11
-0.46875
21
-0.46875
31
2.567449
0
LINE
8
ESTRADOSSO
62
256
48
1.0
10
-0.46875
20
-0.9375
30
2.759277
11
-0.46875
21
-0.46875
31
2.876245
0
LINE
8
INTRADOSSO
62
256
48
1.0
10
-0.46875
20
-0.46875
30
2.567449
11
-0.46875
21
0.0
31
2.60989
0
LINE
8
ESTRADOSSO
62
256
48
1.0
10
-0.46875
20
-0.46875
30
2.876245
11
-0.46875
21
0.0
31
2.914192
0
LINE
8
INTRADOSSO
62
256
48
1.0
10
-0.46875
20
0.0
30
2.60989
11
-0.46875
21
0.46875
31
2.567449
0
LINE
8
ESTRADOSSO
62
256
48
1.0
10
-0.46875
20
0.0
30
2.914192
11
-0.46875
21
0.46875
31
2.876245
0
LINE
8
INTRADOSSO
62
256
48
1.0
10
-0.46875
20
0.46875
30
2.567449
11
-0.46875
21
0.9375
31
2.435696
0
LINE
8
ESTRADOSSO
62
256
48
1.0
10
-0.46875
20
0.46875
30
2.876245
11
-0.46875
21
0.9375
31
2.759277
0
LINE
8
INTRADOSSO
62
256
48
1.0
10
-0.46875
20
0.9375
30
2.435696
11
-0.46875
21
1.40625
31
2.198632
0
LINE
8
ESTRADOSSO
62
256
48
1.0
10
-0.46875
20
0.9375
30
2.759277
11
-0.46875
21
1.40625
31
2.552445
0
LINE
8
INTRADOSSO
62
256
48
1.0
10
-0.46875
20
1.40625
30
2.198632
11
-0.46875
21
1.875
31
1.815461
0
LINE
8
ESTRADOSSO
62
256
48
1.0
10
-0.46875
20
1.40625
30
2.552445
11
-0.46875
21
1.875
31
2.230894
0
LINE
8
INTRADOSSO
62
256
48
1.0
10
0.0
20
-1.875
30
1.875
11
0.0
21
-1.40625
31
2.248046
0
LINE
8
ESTRADOSSO
62
256
48
1.0
10
0.0
20
-1.875
30
2.279609
11
0.0
21
-1.40625
31
2.59513
0
LINE
8
INTRADOSSO
62
256
48
1.0
10
0.0
20
-1.40625
30
2.248046
11
0.0
21
-0.9375
31
2.480392
0
LINE
8
ESTRADOSSO
62
256
48
1.0
10
0.0
20
-1.40625
30
2.59513
11
0.0
21
-0.9375
31
2.798809
0
LINE
8
INTRADOSSO
62
256
48
1.0
10
0.0
20
-0.9375
30
2.480392
11
0.0
21
-0.46875
31
2.60989
0
LINE
8
ESTRADOSSO
62
256
48
1.0
10
0.0
20
-0.9375
30
2.798809
11
0.0
21
-0.46875
31
2.914192
0
LINE
8
INTRADOSSO
62
256
48
1.0
10
0.0
20
-0.46875
30
2.60989
11
0.0
21
0.0
31
2.65165
0
LINE
8
ESTRADOSSO
62
256
48
1.0
10
0.0
20
-0.46875
30
2.914192
11
0.0
21
0.0
31
2.95165
0
LINE
8
INTRADOSSO
62
256
48
1.0
10
0.0
20
0.0
30
2.65165
11
0.0
21
0.46875
31
2.60989
0
LINE
8
ESTRADOSSO
62
256
48
1.0
10
0.0
20
0.0
30
2.95165
11
0.0
21
0.46875
31
2.914192
0
LINE
8
INTRADOSSO
62
256
48
1.0
10
0.0
20
0.46875
30
2.60989
11
0.0
21
0.9375
31
2.480392
0
LINE
8
ESTRADOSSO
62
256
48
1.0
10
0.0
20
0.46875
30
2.914192
11
0.0
21
0.9375
31
2.798809
0
LINE
8
INTRADOSSO
62
256
48
1.0
10
0.0
20
0.9375
30
2.480392
11
0.0
21
1.40625
31
2.248046
0
LINE
8
ESTRADOSSO
62
256
48
1.0
10
0.0
20
0.9375
30
2.798809
11
0.0
21
1.40625
31
2.59513
0
LINE
8
INTRADOSSO
62
256
48
1.0
10
0.0
20
1.40625
30
2.248046
11
0.0
21
1.875
31
1.875
0
LINE
8
ESTRADOSSO
62
256
48
1.0
10
0.0
20
1.40625
30
2.59513
11
0.0
21
1.875
31
2.279609
0
LINE
8
INTRADOSSO
62
256
48
1.0
10
0.46875
20
-1.875
30
1.815461
11
0.46875
21
-1.40625
31
2.198632
0
LINE
8
ESTRADOSSO
62
256
48
1.0
10
0.46875
20
-1.875
30
2.230894
11
0.46875
21
-1.40625
31
2.552445
0
LINE
8
INTRADOSSO
62
256
48
1.0
10
0.46875
20
-1.40625
30
2.198632
11
0.46875
21
-0.9375
31
2.435696
0
LINE
8
ESTRADOSSO
62
256
48
1.0
10
0.46875
20
-1.40625
30
2.552445
11
0.46875
21
-0.9375
31
2.759277
0
LINE
8
INTRADOSSO
62
256
48
1.0
10
0.46875
20
-0.9375
30
2.435696
11
0.46875
21
-0.46875
31
2.567449
0
LINE
8
ESTRADOSSO
62
256
48
1.0
10
0.46875
20
-0.9375
30
2.759277
11
0.46875
21
-0.46875
31
2.876245
0
LINE
8
INTRADOSSO
62
256
48
1.0
10
0.46875
20
-0.46875
30
2.567449
11
0.46875
21
0.0
31
2.60989
0
LINE
8
ESTRADOSSO
62
256
48
1.0
10
0.46875
20
-0.46875
30
2.876245
11
0.46875
21
0.0
31
2.914192
0
LINE
8
INTRADOSSO
62
256
48
1.0
10
0.46875
20
0.0
30
2.60989
11
0.46875
21
0.46875
31
2.567449
0
LINE
8
ESTRADOSSO
62
256
48
1.0
10
0.46875
20
0.0
30
2.914192
11
0.46875
21
0.46875
31
2.876245
0
LINE
8
INTRADOSSO
62
256
48
1.0
10
0.46875
20
0.46875
30
2.567449
11
0.46875
21
0.9375
31
2.435696
0
LINE
8
ESTRADOSSO
62
256
48
1.0
10
0.46875
20
0.46875
30
2.876245
11
0.46875
21
0.9375
31
2.759277
0
LINE
8
INTRADOSSO
62
256
48
1.0
10
0.46875
20
0.9375
30
2.435696
11
0.46875
21
1.40625
31
2.198632
0
LINE
8
ESTRADOSSO
62
256
48
1.0
10
0.46875
20
0.9375
30
2.759277
11
0.46875
21
1.40625
31
2.552445
0
LINE
8
INTRADOSSO
62
256
48
1.0
10
0.46875
20
1.40625
30
2.198632
11
0.46875
21
1.875
31
1.815461
0
LINE
8
ESTRADOSSO
62
256
48
1.0
10
0.46875
20
1.40625
30
2.552445
11
0.46875
21
1.875
31
2.230894
0
LINE
8
INTRADOSSO
62
256
48
1.0
10
0.9375
20
-1.875
30
1.623798
11
0.9375
21
-1.40625
31
2.043234
0
LINE
8
ESTRADOSSO
62
256
48
1.0
10
0.9375
20
-1.875
30
2.07791
11
0.9375
21
-1.40625
31
2.419875
0
LINE
8
INTRADOSSO
62
256
48
1.0
10
0.9375
20
-1.40625
30
2.043234
11
0.9375
21
-0.9375
31
2.296397
0
LINE
8
ESTRADOSSO
62
256
48
1.0
10
0.9375
20
-1.40625
30
2.419875
11
0.9375
21
-0.9375
31
2.637125
0
LINE
8
INTRADOSSO
62
256
48
1.0
10
0.9375
20
-0.9375
30
2.296397
11
0.9375
21
-0.46875
31
2.435696
0
LINE
8
ESTRADOSSO
62
256
48
1.0
10
0.9375
20
-0.9375
30
2.637125
11
0.9375
21
-0.46875
31
2.759277
0
LINE
8
INTRADOSSO
62
256
48
1.0
10
0.9375
20
-0.46875
30
2.435696
11
0.9375
21
0.0
31
2.480392
0
LINE
8
ESTRADOSSO
62
256
48
1.0
10
0.9375
20
-0.46875
30
2.759277
11
0.9375
21
0.0
31
2.798809
0
LINE
8
INTRADOSSO
62
256
48
1.0
10
0.9375
20
0.0
30
2.480392
11
0.9375
21
0.46875
31
2.435696
0
LINE
8
ESTRADOSSO
62
256
48
1.0
10
0.9375
20
0.0
30
2.798809
11
0.9375
21
0.46875
31
2.759277
0
LINE
8
INTRADOSSO
62
256
48
1.0
10
0.9375
20
0.46875
30
2.435696
11
0.9375
21
0.9375
31
2.296397
0
LINE
8
ESTRADOSSO
62
256
48
1.0
10
0.9375
20
0.46875
30
2.759277
11
0.9375
21
0.9375
31
2.637125
0
LINE
8
INTRADOSSO
62
256
48
1.0
10
0.9375
20
0.9375
30
2.296397
11
0.9375
21
1.40625
31
2.043234
0
LINE
8
ESTRADOSSO
62
256
48
1.0
10
0.9375
20
0.9375
30
2.637125
11
0.9375
21
1.40625
31
2.419875
0
LINE
8
INTRADOSSO
62
256
48
1.0
10
0.9375
20
1.40625
30
2.043234
11
0.9375
21
1.875
31
1.623798
0
LINE
8
ESTRADOSSO
62
256
48
1.0
10
0.9375
20
1.40625
30
2.419875
11
0.9375
21
1.875
31
2.07791
0
LINE
8
INTRADOSSO
62
256
48
1.0
10
1.40625
20
-1.875
30
1.240196
11
1.40625
21
-1.40625
31
1.753902
0
LINE
8
ESTRADOSSO
62
256
48
1.0
10
1.40625
20
-1.875
30
1.794178
11
1.40625
21
-1.40625
31
2.181092
0
LINE
8
INTRADOSSO
62
256
48
1.0
10
1.40625
20
-1.40625
30
1.753902
11
1.40625
21
-0.9375
31
2.043234
0
LINE
8
ESTRADOSSO
62
256
48
1.0
10
1.40625
20
-1.40625
30
2.181092
11
1.40625
21
-0.9375
31
2.419875
0
LINE
8
INTRADOSSO
62
256
48
1.0
10
1.40625
20
-0.9375
30
2.043234
11
1.40625
21
-0.46875
31
2.198632
0
LINE
8
ESTRADOSSO
62
256
48
1.0
10
1.40625
20
-0.9375
30
2.419875
11
1.40625
21
-0.46875
31
2.552445
0
LINE
8
INTRADOSSO
62
256
48
1.0
10
1.40625
20
-0.46875
30
2.198632
11
1.40625
21
0.0
31
2.248046
0
LINE
8
ESTRADOSSO
62
256
48
1.0
10
1.40625
20
-0.46875
30
2.552445
11
1.40625
21
0.0
31
2.59513
0
LINE
8
INTRADOSSO
62
256
48
1.0
10
1.40625
20
0.0
30
2.248046
11
1.40625
21
0.46875
31
2.198632
0
LINE
8
ESTRADOSSO
62
256
48
1.0
10
1.40625
20
0.0
30
2.59513
11
1.40625
21
0.46875
31
2.552445
0
LINE
8
INTRADOSSO
62
256
48
1.0
10
1.40625
20
0.46875
30
2.198632
11
1.40625
21
0.9375
31
2.043234
0
LINE
8
ESTRADOSSO
62
256
48
1.0
10
1.40625
20
0.46875
30
2.552445
11
1.40625
21
0.9375
31
2.419875
0
LINE
8
INTRADOSSO
62
256
48
1.0
10
1.40625
20
0.9375
30
2.043234
11
1.40625
21
1.40625
31
1.753902
0
LINE
8
ESTRADOSSO
62
256
48
1.0
10
1.40625
20
0.9375
30
2.419875
11
1.40625
21
1.40625
31
2.181092
0
LINE
8
INTRADOSSO
62
256
48
1.0
10
1.40625
20
1.40625
30
1.753902
11
1.40625
21
1.875
31
1.240196
0
LINE
8
ESTRADOSSO
62
256
48
1.0
10
1.40625
20
1.40625
30
2.181092
11
1.40625
21
1.875
31
1.794178
0
LINE
8
INTRADOSSO
62
256
48
1.0
10
1.875
20
-1.875
30
0.0
11
1.875
21
-1.640625
31
0.90773
0
LINE
8
ESTRADOSSO
62
256
48
1.0
10
1.875
20
-1.875
30
1.29653
11
1.875
21
-1.640625
31
1.582708
0
LINE
8
INTRADOSSO
62
256
48
1.0
10
1.875
20
-1.640625
30
0.90773
11
1.875
21
-1.40625
31
1.240196
0
LINE
8
ESTRADOSSO
62
256
48
1.0
10
1.875
20
-1.640625
30
1.582708
11
1.875
21
-1.40625
31
1.794178
0
LINE
8
INTRADOSSO
62
256
48
1.0
10
1.875
20
-1.40625
30
1.240196
11
1.875
21
-0.9375
31
1.623798
0
LINE
8
ESTRADOSSO
62
256
48
1.0
10
1.875
20
-1.40625
30
1.794178
11
1.875
21
-0.9375
31
2.07791
0
LINE
8
INTRADOSSO
62
256
48
1.0
10
1.875
20
-0.9375
30
1.623798
11
1.875
21
-0.46875
31
1.815461
0
LINE
8
ESTRADOSSO
62
256
48
1.0
10
1.875
20
-0.9375
30
2.07791
11
1.875
21
-0.46875
31
2.230894
0
LINE
8
INTRADOSSO
62
256
48
1.0
10
1.875
20
-0.46875
30
1.815461
11
1.875
21
0.0
31
1.875
0
LINE
8
ESTRADOSSO
62
256
48
1.0
10
1.875
20
-0.46875
30
2.230894
11
1.875
21
0.0
31
2.279609
0
LINE
8
INTRADOSSO
62
256
48
1.0
10
1.875
20
0.0
30
1.875
11
1.875
21
0.46875
31
1.815461
0
LINE
8
ESTRADOSSO
62
256
48
1.0
10
1.875
20
0.0
30
2.279609
11
1.875
21
0.46875
31
2.230894
0
LINE
8
INTRADOSSO
62
256
48
1.0
10
1.875
20
0.46875
30
1.815461
11
1.875
21
0.9375
31
1.623798
0
LINE
8
ESTRADOSSO
62
256
48
1.0
10
1.875
20
0.46875
30
2.230894
11
1.875
21
0.9375
31
2.07791
0
LINE
8
INTRADOSSO
62
256
48
1.0
10
1.875
20
0.9375
30
1.623798
11
1.875
21
1.40625
31
1.240196
0
LINE
8
ESTRADOSSO
62
256
48
1.0
10
1.875
20
0.9375
30
2.07791
11
1.875
21
1.40625
31
1.794178
0
LINE
8
INTRADOSSO
62
256
48
1.0
10
1.875
20
1.40625
30
1.240196
11
1.875
21
1.640625
31
0.90773
0
LINE
8
ESTRADOSSO
62
256
48
1.0
10
1.875
20
1.40625
30
1.794178
11
1.875
21
1.640625
31
1.582708
0
LINE
8
INTRADOSSO
62
256
48
1.0
10
1.875
20
1.640625
30
0.90773
11
1.875
21
1.875
31
0.0
0
LINE
8
ESTRADOSSO
62
256
48
1.0
10
1.875
20
1.640625
30
1.582708
11
1.875
21
1.875
31
1.29653
0
LINE
8
INTRADOSSO
62
256
48
1.0
10
-1.640625
20
-1.875
30
0.90773
11
-1.757812
21
-1.757812
31
0.922735
0
LINE
8
ESTRADOSSO
62
256
48
1.0
10
-1.640625
20
-1.875
30
1.582708
11
-1.757812
21
-1.757812
31
1.591361
0
LINE
8
INTRADOSSO
62
256
48
1.0
10
-1.757812
20
-1.757812
30
0.922735
11
-1.875
21
-1.640625
31
0.90773
0
LINE
8
ESTRADOSSO
62
256
48
1.0
10
-1.757812
20
-1.757812
30
1.591361
11
-1.875
21
-1.640625
31
1.582708
0
LINE
8
INTRADOSSO
62
256
48
1.0
10
-1.40625
20
-1.875
30
1.240196
11
-1.640625
21
-1.640625
31
1.283725
0
LINE
8
ESTRADOSSO
62
256
48
1.0
10
-1.40625
20
-1.875
30
1.794178
11
-1.640625
21
-1.640625
31
1.824538
0
LINE
8
INTRADOSSO
62
256
48
1.0
10
-1.640625
20
-1.640625
30
1.283725
11
-1.875
21
-1.40625
31
1.240196
0
LINE
8
ESTRADOSSO
62
256
48
1.0
10
-1.640625
20
-1.640625
30
1.824538
11
-1.875
21
-1.40625
31
1.794178
0
LINE
8
INTRADOSSO
62
256
48
1.0
10
1.640625
20
-1.875
30
0.90773
11
1.757812
21
-1.757812
31
0.922735
0
LINE
8
ESTRADOSSO
62
256
48
1.0
10
1.640625
20
-1.875
30
1.582708
11
1.757812
21
-1.757812
31
1.591361
0
LINE
8
INTRADOSSO
62
256
48
1.0
10
1.757812
20
-1.757812
30
0.922735
11
1.875
21
-1.640625
31
0.90773
0
LINE
8
ESTRADOSSO
62
256
48
1.0
10
1.757812
20
-1.757812
30
1.591361
11
1.875
21
-1.640625
31
1.582708
0
LINE
8
INTRADOSSO
62
256
48
1.0
10
1.40625
20
-1.875
30
1.240196
11
1.640625
21
-1.640625
31
1.283725
0
LINE
8
ESTRADOSSO
62
256
48
1.0
10
1.40625
20
-1.875
30
1.794178
11
1.640625
21
-1.640625
31
1.824538
0
LINE
8
INTRADOSSO
62
256
48
1.0
10
1.640625
20
-1.640625
30
1.283725
11
1.875
21
-1.40625
31
1.240196
0
LINE
8
ESTRADOSSO
62
256
48
1.0
10
1.640625
20
-1.640625
30
1.824538
11
1.875
21
-1.40625
31
1.794178
0
LINE
8
INTRADOSSO
62
256
48
1.0
10
-1.640625
20
1.875
30
0.90773
11
-1.757812
21
1.757812
31
0.922735
0
LINE
8
ESTRADOSSO
62
256
48
1.0
10
-1.640625
20
1.875
30
1.582708
11
-1.757812
21
1.757812
31
1.591361
0
LINE
8
INTRADOSSO
62
256
48
1.0
10
-1.757812
20
1.757812
30
0.922735
11
-1.875
21
1.640625
31
0.90773
0
LINE
8
ESTRADOSSO
62
256
48
1.0
10
-1.757812
20
1.757812
30
1.591361
11
-1.875
21
1.640625
31
1.582708
0
LINE
8
INTRADOSSO
62
256
48
1.0
10
-1.40625
20
1.875
30
1.240196
11
-1.640625
21
1.640625
31
1.283725
0
LINE
8
ESTRADOSSO
62
256
48
1.0
10
-1.40625
20
1.875
30
1.794178
11
-1.640625
21
1.640625
31
1.824538
0
LINE
8
INTRADOSSO
62
256
48
1.0
10
-1.640625
20
1.640625
30
1.283725
11
-1.875
21
1.40625
31
1.240196
0
LINE
8
ESTRADOSSO
62
256
48
1.0
10
-1.640625
20
1.640625
30
1.824538
11
-1.875
21
1.40625
31
1.794178
0
LINE
8
INTRADOSSO
62
256
48
1.0
10
1.640625
20
1.875
30
0.90773
11
1.757812
21
1.757812
31
0.922735
0
LINE
8
ESTRADOSSO
62
256
48
1.0
10
1.640625
20
1.875
30
1.582708
11
1.757812
21
1.757812
31
1.591361
0
LINE
8
INTRADOSSO
62
256
48
1.0
10
1.757812
20
1.757812
30
0.922735
11
1.875
21
1.640625
31
0.90773
0
LINE
8
ESTRADOSSO
62
256
48
1.0
10
1.757812
20
1.757812
30
1.591361
11
1.875
21
1.640625
31
1.582708
0
LINE
8
INTRADOSSO
62
256
48
1.0
10
1.40625
20
1.875
30
1.240196
11
1.640625
21
1.640625
31
1.283725
0
LINE
8
ESTRADOSSO
62
256
48
1.0
10
1.40625
20
1.875
30
1.794178
11
1.640625
21
1.640625
31
1.824538
0
LINE
8
INTRADOSSO
62
256
48
1.0
10
1.640625
20
1.640625
30
1.283725
11
1.875
21
1.40625
31
1.240196
0
LINE
8
ESTRADOSSO
62
256
48
1.0
10
1.640625
20
1.640625
30
1.824538
11
1.875
21
1.40625
31
1.794178
0
LINE
8
INTRADOSSO
62
256
48
1.0
10
-1.875
20
-1.875
30
0.0
11
-1.757812
21
-1.757812
31
0.922735
0
LINE
8
ESTRADOSSO
62
256
48
1.0
10
-1.875
20
-1.875
30
1.29653
11
-1.757812
21
-1.757812
31
1.591361
0
LINE
8
INTRADOSSO
62
256
48
1.0
10
-1.757812
20
-1.757812
30
0.922735
11
-1.640625
21
-1.640625
31
1.283725
0
LINE
8
ESTRADOSSO
62
256
48
1.0
10
-1.757812
20
-1.757812
30
1.591361
11
-1.640625
21
-1.640625
31
1.824538
0
LINE
8
INTRADOSSO
62
256
48
1.0
10
-1.640625
20
-1.640625
30
1.283725
11
-1.40625
21
-1.40625
31
1.753902
0
LINE
8
ESTRADOSSO
62
256
48
1.0
10
-1.640625
20
-1.640625
30
1.824538
11
-1.40625
21
-1.40625
31
2.181092
0
LINE
8
INTRADOSSO
62
256
48
1.0
10
-1.40625
20
-1.40625
30
1.753902
11
-0.9375
21
-0.9375
31
2.296397
0
LINE
8
ESTRADOSSO
62
256
48
1.0
10
-1.40625
20
-1.40625
30
2.181092
11
-0.9375
21
-0.9375
31
2.637125
0
LINE
8
INTRADOSSO
62
256
48
1.0
10
-0.9375
20
-0.9375
30
2.296397
11
-0.46875
21
-0.46875
31
2.567449
0
LINE
8
ESTRADOSSO
62
256
48
1.0
10
-0.9375
20
-0.9375
30
2.637125
11
-0.46875
21
-0.46875
31
2.876245
0
LINE
8
INTRADOSSO
62
256
48
1.0
10
-0.46875
20
-0.46875
30
2.567449
11
0.0
21
0.0
31
2.65165
0
LINE
8
ESTRADOSSO
62
256
48
1.0
10
-0.46875
20
-0.46875
30
2.876245
11
0.0
21
0.0
31
2.95165
0
LINE
8
INTRADOSSO
62
256
48
1.0
10
0.0
20
0.0
30
2.65165
11
0.46875
21
0.46875
31
2.567449
0
LINE
8
ESTRADOSSO
62
256
48
1.0
10
0.0
20
0.0
30
2.95165
11
0.46875
21
0.46875
31
2.876245
0
LINE
8
INTRADOSSO
62
256
48
1.0
10
0.46875
20
0.46875
30
2.567449
11
0.9375
21
0.9375
31
2.296397
0
LINE
8
ESTRADOSSO
62
256
48
1.0
10
0.46875
20
0.46875
30
2.876245
11
0.9375
21
0.9375
31
2.637125
0
LINE
8
INTRADOSSO
62
256
48
1.0
10
0.9375
20
0.9375
30
2.296397
11
1.40625
21
1.40625
31
1.753902
0
LINE
8
ESTRADOSSO
62
256
48
1.0
10
0.9375
20
0.9375
30
2.637125
11
1.40625
21
1.40625
31
2.181092
0
LINE
8
INTRADOSSO
62
256
48
1.0
10
1.40625
20
1.40625
30
1.753902
11
1.640625
21
1.640625
31
1.283725
0
LINE
8
ESTRADOSSO
62
256
48
1.0
10
1.40625
20
1.40625
30
2.181092
11
1.640625
21
1.640625
31
1.824538
0
LINE
8
INTRADOSSO
62
256
48
1.0
10
1.640625
20
1.640625
30
1.283725
11
1.757812
21
1.757812
31
0.922735
0
LINE
8
ESTRADOSSO
62
256
48
1.0
10
1.640625
20
1.640625
30
1.824538
11
1.757812
21
1.757812
31
1.591361
0
LINE
8
INTRADOSSO
62
256
48
1.0
10
1.757812
20
1.757812
30
0.922735
11
1.875
21
1.875
31
0.0
0
LINE
8
ESTRADOSSO
62
256
48
1.0
10
1.757812
20
1.757812
30
1.591361
11
1.875
21
1.875
31
1.29653
0
LINE
8
INTRADOSSO
62
256
48
1.0
10
1.875
20
-1.875
30
0.0
11
1.757812
21
-1.757812
31
0.922735
0
LINE
8
ESTRADOSSO
62
256
48
1.0
10
1.875
20
-1.875
30
1.29653
11
1.757812
21
-1.757812
31
1.591361
0
LINE
8
INTRADOSSO
62
256
48
1.0
10
1.757812
20
-1.757812
30
0.922735
11
1.640625
21
-1.640625
31
1.283725
0
LINE
8
ESTRADOSSO
62
256
48
1.0
10
1.757812
20
-1.757812
30
1.591361
11
1.640625
21
-1.640625
31
1.824538
0
LINE
8
INTRADOSSO
62
256
48
1.0
10
1.640625
20
-1.640625
30
1.283725
11
1.40625
21
-1.40625
31
1.753902
0
LINE
8
ESTRADOSSO
62
256
48
1.0
10
1.640625
20
-1.640625
30
1.824538
11
1.40625
21
-1.40625
31
2.181092
0
LINE
8
INTRADOSSO
62
256
48
1.0
10
1.40625
20
-1.40625
30
1.753902
11
0.9375
21
-0.9375
31
2.296397
0
LINE
8
ESTRADOSSO
62
256
48
1.0
10
1.40625
20
-1.40625
30
2.181092
11
0.9375
21
-0.9375
31
2.637125
0
LINE
8
INTRADOSSO
62
256
48
1.0
10
0.9375
20
-0.9375
30
2.296397
11
0.46875
21
-0.46875
31
2.567449
0
LINE
8
ESTRADOSSO
62
256
48
1.0
10
0.9375
20
-0.9375
30
2.637125
11
0.46875
21
-0.46875
31
2.876245
0
LINE
8
INTRADOSSO
62
256
48
1.0
10
0.46875
20
-0.46875
30
2.567449
11
0.0
21
0.0
31
2.65165
0
LINE
8
ESTRADOSSO
62
256
48
1.0
10
0.46875
20
-0.46875
30
2.876245
11
0.0
21
0.0
31
2.95165
0
LINE
8
INTRADOSSO
62
256
48
1.0
10
0.0
20
0.0
30
2.65165
11
-0.46875
21
0.46875
31
2.567449
0
LINE
8
ESTRADOSSO
62
256
48
1.0
10
0.0
20
0.0
30
2.95165
11
-0.46875
21
0.46875
31
2.876245
0
LINE
8
INTRADOSSO
62
256
48
1.0
10
-0.46875
20
0.46875
30
2.567449
11
-0.9375
21
0.9375
31
2.296397
0
LINE
8
ESTRADOSSO
62
256
48
1.0
10
-0.46875
20
0.46875
30
2.876245
11
-0.9375
21
0.9375
31
2.637125
0
LINE
8
INTRADOSSO
62
256
48
1.0
10
-0.9375
20
0.9375
30
2.296397
11
-1.40625
21
1.40625
31
1.753902
0
LINE
8
ESTRADOSSO
62
256
48
1.0
10
-0.9375
20
0.9375
30
2.637125
11
-1.40625
21
1.40625
31
2.181092
0
LINE
8
INTRADOSSO
62
256
48
1.0
10
-1.40625
20
1.40625
30
1.753902
11
-1.640625
21
1.640625
31
1.283725
0
LINE
8
ESTRADOSSO
62
256
48
1.0
10
-1.40625
20
1.40625
30
2.181092
11
-1.640625
21
1.640625
31
1.824538
0
LINE
8
INTRADOSSO
62
256
48
1.0
10
-1.640625
20
1.640625
30
1.283725
11
-1.757812
21
1.757812
31
0.922735
0
LINE
8
ESTRADOSSO
62
256
48
1.0
10
-1.640625
20
1.640625
30
1.824538
11
-1.757812
21
1.757812
31
1.591361
0
LINE
8
INTRADOSSO
62
256
48
1.0
10
-1.757812
20
1.757812
30
0.922735
11
-1.875
21
1.875
31
0.0
0
LINE
8
ESTRADOSSO
62
256
48
1.0
10
-1.757812
20
1.757812
30
1.591361
11
-1.875
21
1.875
31
1.29653
0
LINE
8
INTRADOSSO
62
256
48
1.0
10
-2.125
20
-1.875
30
0.0
11
-1.875
21
-1.875
31
0.0
0
LINE
8
ESTRADOSSO
62
256
48
1.0
10
-2.125
20
-1.875
30
1.29653
11
-1.875
21
-1.875
31
1.29653
0
LINE
8
INTRADOSSO
62
256
48
1.0
10
-2.125
20
-1.640625
30
0.90773
11
-1.875
21
-1.640625
31
0.90773
0
LINE
8
ESTRADOSSO
62
256
48
1.0
10
-2.125
20
-1.640625
30
1.582708
11
-1.875
21
-1.640625
31
1.582708
0
LINE
8
INTRADOSSO
62
256
48
1.0
10
-2.125
20
-1.40625
30
1.240196
11
-1.875
21
-1.40625
31
1.240196
0
LINE
8
ESTRADOSSO
62
256
48
1.0
10
-2.125
20
-1.40625
30
1.794178
11
-1.875
21
-1.40625
31
1.794178
0
LINE
8
INTRADOSSO
62
256
48
1.0
10
-2.125
20
-0.9375
30
1.623798
11
-1.875
21
-0.9375
31
1.623798
0
LINE
8
ESTRADOSSO
62
256
48
1.0
10
-2.125
20
-0.9375
30
2.07791
11
-1.875
21
-0.9375
31
2.07791
0
LINE
8
INTRADOSSO
62
256
48
1.0
10
-2.125
20
-0.46875
30
1.815461
11
-1.875
21
-0.46875
31
1.815461
0
LINE
8
ESTRADOSSO
62
256
48
1.0
10
-2.125
20
-0.46875
30
2.230894
11
-1.875
21
-0.46875
31
2.230894
0
LINE
8
INTRADOSSO
62
256
48
1.0
10
-2.125
20
0.0
30
1.875
11
-1.875
21
0.0
31
1.875
0
LINE
8
ESTRADOSSO
62
256
48
1.0
10
-2.125
20
0.0
30
2.279609
11
-1.875
21
0.0
31
2.279609
0
LINE
8
INTRADOSSO
62
256
48
1.0
10
-2.125
20
0.46875
30
1.815461
11
-1.875
21
0.46875
31
1.815461
0
LINE
8
ESTRADOSSO
62
256
48
1.0
10
-2.125
20
0.46875
30
2.230894
11
-1.875
21
0.46875
31
2.230894
0
LINE
8
INTRADOSSO
62
256
48
1.0
10
-2.125
20
0.9375
30
1.623798
11
-1.875
21
0.9375
31
1.623798
0
LINE
8
ESTRADOSSO
62
256
48
1.0
10
-2.125
20
0.9375
30
2.07791
11
-1.875
21
0.9375
31
2.07791
0
LINE
8
INTRADOSSO
62
256
48
1.0
10
-2.125
20
1.40625
30
1.240196
11
-1.875
21
1.40625
31
1.240196
0
LINE
8
ESTRADOSSO
62
256
48
1.0
10
-2.125
20
1.40625
30
1.794178
11
-1.875
21
1.40625
31
1.794178
0
LINE
8
INTRADOSSO
62
256
48
1.0
10
-2.125
20
1.640625
30
0.90773
11
-1.875
21
1.640625
31
0.90773
0
LINE
8
ESTRADOSSO
62
256
48
1.0
10
-2.125
20
1.640625
30
1.582708
11
-1.875
21
1.640625
31
1.582708
0
LINE
8
INTRADOSSO
62
256
48
1.0
10
-2.125
20
1.875
30
0.0
11
-1.875
21
1.875
31
0.0
0
LINE
8
ESTRADOSSO
62
256
48
1.0
10
-2.125
20
1.875
30
1.29653
11
-1.875
21
1.875
31
1.29653
0
LINE
8
INTRADOSSO
62
256
48
1.0
10
2.125
20
-1.875
30
0.0
11
1.875
21
-1.875
31
0.0
0
LINE
8
ESTRADOSSO
62
256
48
1.0
10
2.125
20
-1.875
30
1.29653
11
1.875
21
-1.875
31
1.29653
0
LINE
8
INTRADOSSO
62
256
48
1.0
10
2.125
20
-1.640625
30
0.90773
11
1.875
21
-1.640625
31
0.90773
0
LINE
8
ESTRADOSSO
62
256
48
1.0
10
2.125
20
-1.640625
30
1.582708
11
1.875
21
-1.640625
31
1.582708
0
LINE
8
INTRADOSSO
62
256
48
1.0
10
2.125
20
-1.40625
30
1.240196
11
1.875
21
-1.40625
31
1.240196
0
LINE
8
ESTRADOSSO
62
256
48
1.0
10
2.125
20
-1.40625
30
1.794178
11
1.875
21
-1.40625
31
1.794178
0
LINE
8
INTRADOSSO
62
256
48
1.0
10
2.125
20
-0.9375
30
1.623798
11
1.875
21
-0.9375
31
1.623798
0
LINE
8
ESTRADOSSO
62
256
48
1.0
10
2.125
20
-0.9375
30
2.07791
11
1.875
21
-0.9375
31
2.07791
0
LINE
8
INTRADOSSO
62
256
48
1.0
10
2.125
20
-0.46875
30
1.815461
11
1.875
21
-0.46875
31
1.815461
0
LINE
8
ESTRADOSSO
62
256
48
1.0
10
2.125
20
-0.46875
30
2.230894
11
1.875
21
-0.46875
31
2.230894
0
LINE
8
INTRADOSSO
62
256
48
1.0
10
2.125
20
0.0
30
1.875
11
1.875
21
0.0
31
1.875
0
LINE
8
ESTRADOSSO
62
256
48
1.0
10
2.125
20
0.0
30
2.279609
11
1.875
21
0.0
31
2.279609
0
LINE
8
INTRADOSSO
62
256
48
1.0
10
2.125
20
0.46875
30
1.815461
11
1.875
21
0.46875
31
1.815461
0
LINE
8
ESTRADOSSO
62
256
48
1.0
10
2.125
20
0.46875
30
2.230894
11
1.875
21
0.46875
31
2.230894
0
LINE
8
INTRADOSSO
62
256
48
1.0
10
2.125
20
0.9375
30
1.623798
11
1.875
21
0.9375
31
1.623798
0
LINE
8
ESTRADOSSO
62
256
48
1.0
10
2.125
20
0.9375
30
2.07791
11
1.875
21
0.9375
31
2.07791
0
LINE
8
INTRADOSSO
62
256
48
1.0
10
2.125
20
1.40625
30
1.240196
11
1.875
21
1.40625
31
1.240196
0
LINE
8
ESTRADOSSO
62
256
48
1.0
10
2.125
20
1.40625
30
1.794178
11
1.875
21
1.40625
31
1.794178
0
LINE
8
INTRADOSSO
62
256
48
1.0
10
2.125
20
1.640625
30
0.90773
11
1.875
21
1.640625
31
0.90773
0
LINE
8
ESTRADOSSO
62
256
48
1.0
10
2.125
20
1.640625
30
1.582708
11
1.875
21
1.640625
31
1.582708
0
LINE
8
INTRADOSSO
62
256
48
1.0
10
2.125
20
1.875
30
0.0
11
1.875
21
1.875
31
0.0
0
LINE
8
ESTRADOSSO
62
256
48
1.0
10
2.125
20
1.875
30
1.29653
11
1.875
21
1.875
31
1.29653
0
LINE
8
INTRADOSSO
62
256
48
1.0
10
-2.125
20
-1.875
30
0.0
11
-2.125
21
-1.640625
31
0.90773
0
LINE
8
ESTRADOSSO
62
256
48
1.0
10
-2.125
20
-1.875
30
1.29653
11
-2.125
21
-1.640625
31
1.582708
0
LINE
8
INTRADOSSO
62
256
48
1.0
10
-2.125
20
-1.640625
30
0.90773
11
-2.125
21
-1.40625
31
1.240196
0
LINE
8
ESTRADOSSO
62
256
48
1.0
10
-2.125
20
-1.640625
30
1.582708
11
-2.125
21
-1.40625
31
1.794178
0
LINE
8
INTRADOSSO
62
256
48
1.0
10
-2.125
20
-1.40625
30
1.240196
11
-2.125
21
-0.9375
31
1.623798
0
LINE
8
ESTRADOSSO
62
256
48
1.0
10
-2.125
20
-1.40625
30
1.794178
11
-2.125
21
-0.9375
31
2.07791
0
LINE
8
INTRADOSSO
62
256
48
1.0
10
-2.125
20
-0.9375
30
1.623798
11
-2.125
21
-0.46875
31
1.815461
0
LINE
8
ESTRADOSSO
62
256
48
1.0
10
-2.125
20
-0.9375
30
2.07791
11
-2.125
21
-0.46875
31
2.230894
0
LINE
8
INTRADOSSO
62
256
48
1.0
10
-2.125
20
-0.46875
30
1.815461
11
-2.125
21
0.0
31
1.875
0
LINE
8
ESTRADOSSO
62
256
48
1.0
10
-2.125
20
-0.46875
30
2.230894
11
-2.125
21
0.0
31
2.279609
0
LINE
8
INTRADOSSO
62
256
48
1.0
10
-2.125
20
0.0
30
1.875
11
-2.125
21
0.46875
31
1.815461
0
LINE
8
ESTRADOSSO
62
256
48
1.0
10
-2.125
20
0.0
30
2.279609
11
-2.125
21
0.46875
31
2.230894
0
LINE
8
INTRADOSSO
62
256
48
1.0
10
-2.125
20
0.46875
30
1.815461
11
-2.125
21
0.9375
31
1.623798
0
LINE
8
ESTRADOSSO
62
256
48
1.0
10
-2.125
20
0.46875
30
2.230894
11
-2.125
21
0.9375
31
2.07791
0
LINE
8
INTRADOSSO
62
256
48
1.0
10
-2.125
20
0.9375
30
1.623798
11
-2.125
21
1.40625
31
1.240196
0
LINE
8
ESTRADOSSO
62
256
48
1.0
10
-2.125
20
0.9375
30
2.07791
11
-2.125
21
1.40625
31
1.794178
0
LINE
8
INTRADOSSO
62
256
48
1.0
10
-2.125
20
1.40625
30
1.240196
11
-2.125
21
1.640625
31
0.90773
0
LINE
8
ESTRADOSSO
62
256
48
1.0
10
-2.125
20
1.40625
30
1.794178
11
-2.125
21
1.640625
31
1.582708
0
LINE
8
INTRADOSSO
62
256
48
1.0
10
-2.125
20
1.640625
30
0.90773
11
-2.125
21
1.875
31
0.0
0
LINE
8
ESTRADOSSO
62
256
48
1.0
10
-2.125
20
1.640625
30
1.582708
11
-2.125
21
1.875
31
1.29653
0
LINE
8
INTRADOSSO
62
256
48
1.0
10
2.125
20
-1.875
30
0.0
11
2.125
21
-1.640625
31
0.90773
0
LINE
8
ESTRADOSSO
62
256
48
1.0
10
2.125
20
-1.875
30
1.29653
11
2.125
21
-1.640625
31
1.582708
0
LINE
8
INTRADOSSO
62
256
48
1.0
10
2.125
20
-1.640625
30
0.90773
11
2.125
21
-1.40625
31
1.240196
0
LINE
8
ESTRADOSSO
62
256
48
1.0
10
2.125
20
-1.640625
30
1.582708
11
2.125
21
-1.40625
31
1.794178
0
LINE
8
INTRADOSSO
62
256
48
1.0
10
2.125
20
-1.40625
30
1.240196
11
2.125
21
-0.9375
31
1.623798
0
LINE
8
ESTRADOSSO
62
256
48
1.0
10
2.125
20
-1.40625
30
1.794178
11
2.125
21
-0.9375
31
2.07791
0
LINE
8
INTRADOSSO
62
256
48
1.0
10
2.125
20
-0.9375
30
1.623798
11
2.125
21
-0.46875
31
1.815461
0
LINE
8
ESTRADOSSO
62
256
48
1.0
10
2.125
20
-0.9375
30
2.07791
11
2.125
21
-0.46875
31
2.230894
0
LINE
8
INTRADOSSO
62
256
48
1.0
10
2.125
20
-0.46875
30
1.815461
11
2.125
21
0.0
31
1.875
0
LINE
8
ESTRADOSSO
62
256
48
1.0
10
2.125
20
-0.46875
30
2.230894
11
2.125
21
0.0
31
2.279609
0
LINE
8
INTRADOSSO
62
256
48
1.0
10
2.125
20
0.0
30
1.875
11
2.125
21
0.46875
31
1.815461
0
LINE
8
ESTRADOSSO
62
256
48
1.0
10
2.125
20
0.0
30
2.279609
11
2.125
21
0.46875
31
2.230894
0
LINE
8
INTRADOSSO
62
256
48
1.0
10
2.125
20
0.46875
30
1.815461
11
2.125
21
0.9375
31
1.623798
0
LINE
8
ESTRADOSSO
62
256
48
1.0
10
2.125
20
0.46875
30
2.230894
11
2.125
21
0.9375
31
2.07791
0
LINE
8
INTRADOSSO
62
256
48
1.0
10
2.125
20
0.9375
30
1.623798
11
2.125
21
1.40625
31
1.240196
0
LINE
8
ESTRADOSSO
62
256
48
1.0
10
2.125
20
0.9375
30
2.07791
11
2.125
21
1.40625
31
1.794178
0
LINE
8
INTRADOSSO
62
256
48
1.0
10
2.125
20
1.40625
30
1.240196
11
2.125
21
1.640625
31
0.90773
0
LINE
8
ESTRADOSSO
62
256
48
1.0
10
2.125
20
1.40625
30
1.794178
11
2.125
21
1.640625
31
1.582708
0
LINE
8
INTRADOSSO
62
256
48
1.0
10
2.125
20
1.640625
30
0.90773
11
2.125
21
1.875
31
0.0
0
LINE
8
ESTRADOSSO
62
256
48
1.0
10
2.125
20
1.640625
30
1.582708
11
2.125
21
1.875
31
1.29653
0
LINE
8
INTRADOSSO
62
256
48
1.0
10
-1.640625
20
-1.875
30
0.90773
11
-1.640625
21
-2.299264
31
-4.09227
0
LINE
8
ESTRADOSSO
62
256
48
1.0
10
-1.640625
20
-1.875
30
1.582708
11
-1.640625
21
-2.299264
31
1.469466
0
LINE
8
INTRADOSSO
62
256
48
1.0
10
-1.40625
20
-1.875
30
1.240196
11
-1.40625
21
-2.299264
31
-3.759804
0
LINE
8
ESTRADOSSO
62
256
48
1.0
10
-1.40625
20
-1.875
30
1.794178
11
-1.40625
21
-2.299264
31
1.69148
0
LINE
8
INTRADOSSO
62
256
48
1.0
10
-0.9375
20
-1.875
30
1.623798
11
-0.9375
21
-2.299264
31
-3.376202
0
LINE
8
ESTRADOSSO
62
256
48
1.0
10
-0.9375
20
-1.875
30
2.07791
11
-0.9375
21
-2.299264
31
1.986838
0
LINE
8
INTRADOSSO
62
256
48
1.0
10
-0.46875
20
-1.875
30
1.815461
11
-0.46875
21
-2.299264
31
-3.184539
0
LINE
8
ESTRADOSSO
62
256
48
1.0
10
-0.46875
20
-1.875
30
2.230894
11
-0.46875
21
-2.299264
31
2.145137
0
LINE
8
INTRADOSSO
62
256
48
1.0
10
0.0
20
-1.875
30
1.875
11
0.0
21
-2.299264
31
-3.125
0
LINE
8
ESTRADOSSO
62
256
48
1.0
10
0.0
20
-1.875
30
2.279609
11
0.0
21
-2.299264
31
2.195425
0
LINE
8
INTRADOSSO
62
256
48
1.0
10
0.46875
20
-1.875
30
1.815461
11
0.46875
21
-2.299264
31
-3.184539
0
LINE
8
ESTRADOSSO
62
256
48
1.0
10
0.46875
20
-1.875
30
2.230894
11
0.46875
21
-2.299264
31
2.145137
0
LINE
8
INTRADOSSO
62
256
48
1.0
10
0.9375
20
-1.875
30
1.623798
11
0.9375
21
-2.299264
31
-3.376202
0
LINE
8
ESTRADOSSO
62
256
48
1.0
10
0.9375
20
-1.875
30
2.07791
11
0.9375
21
-2.299264
31
1.986838
0
LINE
8
INTRADOSSO
62
256
48
1.0
10
1.40625
20
-1.875
30
1.240196
11
1.40625
21
-2.299264
31
-3.759804
0
LINE
8
ESTRADOSSO
62
256
48
1.0
10
1.40625
20
-1.875
30
1.794178
11
1.40625
21
-2.299264
31
1.69148
0
LINE
8
INTRADOSSO
62
256
48
1.0
10
1.640625
20
-1.875
30
0.90773
11
1.640625
21
-2.299264
31
-4.09227
0
LINE
8
ESTRADOSSO
62
256
48
1.0
10
1.640625
20
-1.875
30
1.582708
11
1.640625
21
-2.299264
31
1.469466
0
LINE
8
INTRADOSSO
62
256
48
1.0
10
-1.640625
20
1.875
30
0.90773
11
-1.640625
21
2.299264
31
-4.09227
0
LINE
8
ESTRADOSSO
62
256
48
1.0
10
-1.640625
20
1.875
30
1.582708
11
-1.640625
21
2.299264
31
1.469466
0
LINE
8
INTRADOSSO
62
256
48
1.0
10
-1.40625
20
1.875
30
1.240196
11
-1.40625
21
2.299264
31
-3.759804
0
LINE
8
ESTRADOSSO
62
256
48
1.0
10
-1.40625
20
1.875
30
1.794178
11
-1.40625
21
2.299264
31
1.69148
0
LINE
8
INTRADOSSO
62
256
48
1.0
10
-0.9375
20
1.875
30
1.623798
11
-0.9375
21
2.299264
31
-3.376202
0
LINE
8
ESTRADOSSO
62
256
48
1.0
10
-0.9375
20
1.875
30
2.07791
11
-0.9375
21
2.299264
31
1.986838
0
LINE
8
INTRADOSSO
62
256
48
1.0
10
-0.46875
20
1.875
30
1.815461
11
-0.46875
21
2.299264
31
-3.184539
0
LINE
8
ESTRADOSSO
62
256
48
1.0
10
-0.46875
20
1.875
30
2.230894
11
-0.46875
21
2.299264
31
2.145137
0
LINE
8
INTRADOSSO
62
256
48
1.0
10
0.0
20
1.875
30
1.875
11
0.0
21
2.299264
31
-3.125
0
LINE
8
ESTRADOSSO
62
256
48
1.0
10
0.0
20
1.875
30
2.279609
11
0.0
21
2.299264
31
2.195425
0
LINE
8
INTRADOSSO
62
256
48
1.0
10
0.46875
20
1.875
30
1.815461
11
0.46875
21
2.299264
31
-3.184539
0
LINE
8
ESTRADOSSO
62
256
48
1.0
10
0.46875
20
1.875
30
2.230894
11
0.46875
21
2.299264
31
2.145137
0
LINE
8
INTRADOSSO
62
256
48
1.0
10
0.9375
20
1.875
30
1.623798
11
0.9375
21
2.299264
31
-3.376202
0
LINE
8
ESTRADOSSO
62
256
48
1.0
10
0.9375
20
1.875
30
2.07791
11
0.9375
21
2.299264
31
1.986838
0
LINE
8
INTRADOSSO
62
256
48
1.0
10
1.40625
20
1.875
30
1.240196
11
1.40625
21
2.299264
31
-3.759804
0
LINE
8
ESTRADOSSO
62
256
48
1.0
10
1.40625
20
1.875
30
1.794178
11
1.40625
21
2.299264
31
1.69148
0
LINE
8
INTRADOSSO
62
256
48
1.0
10
1.640625
20
1.875
30
0.90773
11
1.640625
21
2.299264
31
-4.09227
0
LINE
8
ESTRADOSSO
62
256
48
1.0
10
1.640625
20
1.875
30
1.582708
11
1.640625
21
2.299264
31
1.469466
0
LINE
8
INTRADOSSO
62
256
48
1.0
10
-2.125
20
-1.640625
30
0.90773
11
-2.549264
21
-1.640625
31
0.90773
0
LINE
8
ESTRADOSSO
62
256
48
1.0
10
-2.125
20
-1.640625
30
1.582708
11
-2.549264
21
-1.640625
31
1.582708
0
LINE
8
INTRADOSSO
62
256
48
1.0
10
-2.125
20
-1.40625
30
1.240196
11
-2.549264
21
-1.40625
31
1.240196
0
LINE
8
ESTRADOSSO
62
256
48
1.0
10
-2.125
20
-1.40625
30
1.794178
11
-2.549264
21
-1.40625
31
1.794178
0
LINE
8
INTRADOSSO
62
256
48
1.0
10
-2.125
20
-0.9375
30
1.623798
11
-2.549264
21
-0.9375
31
1.623798
0
LINE
8
ESTRADOSSO
62
256
48
1.0
10
-2.125
20
-0.9375
30
2.07791
11
-2.549264
21
-0.9375
31
2.07791
0
LINE
8
INTRADOSSO
62
256
48
1.0
10
-2.125
20
-0.46875
30
1.815461
11
-2.549264
21
-0.46875
31
1.815461
0
LINE
8
ESTRADOSSO
62
256
48
1.0
10
-2.125
20
-0.46875
30
2.230894
11
-2.549264
21
-0.46875
31
2.230894
0
LINE
8
INTRADOSSO
62
256
48
1.0
10
-2.125
20
0.0
30
1.875
11
-2.549264
21
0.0
31
1.875
0
LINE
8
ESTRADOSSO
62
256
48
1.0
10
-2.125
20
0.0
30
2.279609
11
-2.549264
21
0.0
31
2.279609
0
LINE
8
INTRADOSSO
62
256
48
1.0
10
-2.125
20
0.46875
30
1.815461
11
-2.549264
21
0.46875
31
1.815461
0
LINE
8
ESTRADOSSO
62
256
48
1.0
10
-2.125
20
0.46875
30
2.230894
11
-2.549264
21
0.46875
31
2.230894
0
LINE
8
INTRADOSSO
62
256
48
1.0
10
-2.125
20
0.9375
30
1.623798
11
-2.549264
21
0.9375
31
1.623798
0
LINE
8
ESTRADOSSO
62
256
48
1.0
10
-2.125
20
0.9375
30
2.07791
11
-2.549264
21
0.9375
31
2.07791
0
LINE
8
INTRADOSSO
62
256
48
1.0
10
-2.125
20
1.40625
30
1.240196
11
-2.549264
21
1.40625
31
1.240196
0
LINE
8
ESTRADOSSO
62
256
48
1.0
10
-2.125
20
1.40625
30
1.794178
11
-2.549264
21
1.40625
31
1.794178
0
LINE
8
INTRADOSSO
62
256
48
1.0
10
-2.125
20
1.640625
30
0.90773
11
-2.549264
21
1.640625
31
0.90773
0
LINE
8
ESTRADOSSO
62
256
48
1.0
10
-2.125
20
1.640625
30
1.582708
11
-2.549264
21
1.640625
31
1.582708
0
LINE
8
INTRADOSSO
62
256
48
1.0
10
2.125
20
-1.640625
30
0.90773
11
2.549264
21
-1.640625
31
0.90773
0
LINE
8
ESTRADOSSO
62
256
48
1.0
10
2.125
20
-1.640625
30
1.582708
11
2.549264
21
-1.640625
31
1.582708
0
LINE
8
INTRADOSSO
62
256
48
1.0
10
2.125
20
-1.40625
30
1.240196
11
2.549264
21
-1.40625
31
1.240196
0
LINE
8
ESTRADOSSO
62
256
48
1.0
10
2.125
20
-1.40625
30
1.794178
11
2.549264
21
-1.40625
31
1.794178
0
LINE
8
INTRADOSSO
62
256
48
1.0
10
2.125
20
-0.9375
30
1.623798
11
2.549264
21
-0.9375
31
1.623798
0
LINE
8
ESTRADOSSO
62
256
48
1.0
10
2.125
20
-0.9375
30
2.07791
11
2.549264
21
-0.9375
31
2.07791
0
LINE
8
INTRADOSSO
62
256
48
1.0
10
2.125
20
-0.46875
30
1.815461
11
2.549264
21
-0.46875
31
1.815461
0
LINE
8
ESTRADOSSO
62
256
48
1.0
10
2.125
20
-0.46875
30
2.230894
11
2.549264
21
-0.46875
31
2.230894
0
LINE
8
INTRADOSSO
62
256
48
1.0
10
2.125
20
0.0
30
1.875
11
2.549264
21
0.0
31
1.875
0
LINE
8
ESTRADOSSO
62
256
48
1.0
10
2.125
20
0.0
30
2.279609
11
2.549264
21
0.0
31
2.279609
0
LINE
8
INTRADOSSO
62
256
48
1.0
10
2.125
20
0.46875
30
1.815461
11
2.549264
21
0.46875
31
1.815461
0
LINE
8
ESTRADOSSO
62
256
48
1.0
10
2.125
20
0.46875
30
2.230894
11
2.549264
21
0.46875
31
2.230894
0
LINE
8
INTRADOSSO
62
256
48
1.0
10
2.125
20
0.9375
30
1.623798
11
2.549264
21
0.9375
31
1.623798
0
LINE
8
ESTRADOSSO
62
256
48
1.0
10
2.125
20
0.9375
30
2.07791
11
2.549264
21
0.9375
31
2.07791
0
LINE
8
INTRADOSSO
62
256
48
1.0
10
2.125
20
1.40625
30
1.240196
11
2.549264
21
1.40625
31
1.240196
0
LINE
8
ESTRADOSSO
62
256
48
1.0
10
2.125
20
1.40625
30
1.794178
11
2.549264
21
1.40625
31
1.794178
0
LINE
8
INTRADOSSO
62
256
48
1.0
10
2.125
20
1.640625
30
0.90773
11
2.549264
21
1.640625
31
0.90773
0
LINE
8
ESTRADOSSO
62
256
48
1.0
10
2.125
20
1.640625
30
1.582708
11
2.549264
21
1.640625
31
1.582708
0
LINE
8
INTRADOSSO
62
256
48
1.0
10
-1.875
20
-1.875
30
0.0
11
-2.299264
21
-2.299264
31
-5.0
0
LINE
8
ESTRADOSSO
62
256
48
1.0
10
-1.875
20
-1.875
30
1.29653
11
-2.299264
21
-2.299264
31
0.989901
0
LINE
8
INTRADOSSO
62
256
48
1.0
10
1.875
20
-1.875
30
0.0
11
2.299264
21
-2.299264
31
-5.0
0
LINE
8
ESTRADOSSO
62
256
48
1.0
10
1.875
20
-1.875
30
1.29653
11
2.299264
21
-2.299264
31
0.989901
0
LINE
8
INTRADOSSO
62
256
48
1.0
10
-1.875
20
1.875
30
0.0
11
-2.299264
21
2.299264
31
-5.0
0
LINE
8
ESTRADOSSO
62
256
48
1.0
10
-1.875
20
1.875
30
1.29653
11
-2.299264
21
2.299264
31
0.989901
0
LINE
8
INTRADOSSO
62
256
48
1.0
10
1.875
20
1.875
30
0.0
11
2.299264
21
2.299264
31
-5.0
0
LINE
8
ESTRADOSSO
62
256
48
1.0
10
1.875
20
1.875
30
1.29653
11
2.299264
21
2.299264
31
0.989901
0
LINE
8
INTRADOSSO
62
256
48
1.0
10
-2.125
20
-1.875
30
0.0
11
-2.549264
21
-2.299264
31
-5.0
0
LINE
8
ESTRADOSSO
62
256
48
1.0
10
-2.125
20
-1.875
30
1.29653
11
-2.549264
21
-2.299264
31
0.989901
0
LINE
8
INTRADOSSO
62
256
48
1.0
10
2.125
20
-1.875
30
0.0
11
2.549264
21
-2.299264
31
-5.0
0
LINE
8
ESTRADOSSO
62
256
48
1.0
10
2.125
20
-1.875
30
1.29653
11
2.549264
21
-2.299264
31
0.989901
0
LINE
8
INTRADOSSO
62
256
48
1.0
10
-2.125
20
1.875
30
0.0
11
-2.549264
21
2.299264
31
-5.0
0
LINE
8
ESTRADOSSO
62
256
48
1.0
10
-2.125
20
1.875
30
1.29653
11
-2.549264
21
2.299264
31
0.989901
0
LINE
8
INTRADOSSO
62
256
48
1.0
10
2.125
20
1.875
30
0.0
11
2.549264
21
2.299264
31
-5.0
0
LINE
8
ESTRADOSSO
62
256
48
1.0
10
2.125
20
1.875
30
1.29653
11
2.549264
21
2.299264
31
0.989901
0
POINT
8
INTERNAL_NODES
10
-1.875
20
-1.875
30
0.0
0
TEXT
8
ID-NODES
10
-1.875
20
-1.875
30
0.0
40
0.05
1
1
72
1
11
-1.875
21
-1.875
31
0.0
73
2
0
LINE
8
fz
62
6
48
1.0
10
-1.875
20
-1.875
30
1.29653
11
-1.875
21
-1.875
31
1.6244299999999998
0
POINT
8
INTERNAL_NODES
10
-1.40625
20
-1.875
30
1.240196
0
TEXT
8
ID-NODES
10
-1.40625
20
-1.875
30
1.240196
40
0.05
1
2
72
1
11
-1.40625
21
-1.875
31
1.240196
73
2
0
LINE
8
fz
62
6
48
1.0
10
-1.40625
20
-1.875
30
1.794178
11
-1.40625
21
-1.875
31
2.561878
0
POINT
8
INTERNAL_NODES
10
-0.9375
20
-1.875
30
1.623798
0
TEXT
8
ID-NODES
10
-0.9375
20
-1.875
30
1.623798
40
0.05
1
3
72
1
11
-0.9375
21
-1.875
31
1.623798
73
2
0
LINE
8
fz
62
6
48
1.0
10
-0.9375
20
-1.875
30
2.07791
11
-0.9375
21
-1.875
31
2.9692100000000003
0
POINT
8
INTERNAL_NODES
10
-0.46875
20
-1.875
30
1.815461
0
TEXT
8
ID-NODES
10
-0.46875
20
-1.875
30
1.815461
40
0.05
1
4
72
1
11
-0.46875
21
-1.875
31
1.815461
73
2
0
LINE
8
fz
62
6
48
1.0
10
-0.46875
20
-1.875
30
2.230894
11
-0.46875
21
-1.875
31
3.032794
0
POINT
8
INTERNAL_NODES
10
0.0
20
-1.875
30
1.875
0
TEXT
8
ID-NODES
10
0.0
20
-1.875
30
1.875
40
0.05
1
5
72
1
11
0.0
21
-1.875
31
1.875
73
2
0
LINE
8
fz
62
6
48
1.0
10
0.0
20
-1.875
30
2.279609
11
0.0
21
-1.875
31
3.0536090000000002
0
POINT
8
INTERNAL_NODES
10
0.46875
20
-1.875
30
1.815461
0
TEXT
8
ID-NODES
10
0.46875
20
-1.875
30
1.815461
40
0.05
1
6
72
1
11
0.46875
21
-1.875
31
1.815461
73
2
0
LINE
8
fz
62
6
48
1.0
10
0.46875
20
-1.875
30
2.230894
11
0.46875
21
-1.875
31
3.030994
0
POINT
8
INTERNAL_NODES
10
0.9375
20
-1.875
30
1.623798
0
TEXT
8
ID-NODES
10
0.9375
20
-1.875
30
1.623798
40
0.05
1
7
72
1
11
0.9375
21
-1.875
31
1.623798
73
2
0
LINE
8
fz
62
6
48
1.0
10
0.9375
20
-1.875
30
2.07791
11
0.9375
21
-1.875
31
2.96381
0
POINT
8
INTERNAL_NODES
10
1.40625
20
-1.875
30
1.240196
0
TEXT
8
ID-NODES
10
1.40625
20
-1.875
30
1.240196
40
0.05
1
8
72
1
11
1.40625
21
-1.875
31
1.240196
73
2
0
LINE
8
fz
62
6
48
1.0
10
1.40625
20
-1.875
30
1.794178
11
1.40625
21
-1.875
31
2.557978
0
POINT
8
INTERNAL_NODES
10
1.875
20
-1.875
30
0.0
0
TEXT
8
ID-NODES
10
1.875
20
-1.875
30
0.0
40
0.05
1
9
72
1
11
1.875
21
-1.875
31
0.0
73
2
0
LINE
8
fz
62
6
48
1.0
10
1.875
20
-1.875
30
1.29653
11
1.875
21
-1.875
31
1.6244299999999998
0
POINT
8
INTERNAL_NODES
10
-1.875
20
-1.40625
30
1.240196
0
TEXT
8
ID-NODES
10
-1.875
20
-1.40625
30
1.240196
40
0.05
1
10
72
1
11
-1.875
21
-1.40625
31
1.240196
73
2
0
LINE
8
fz
62
6
48
1.0
10
-1.875
20
-1.40625
30
1.794178
11
-1.875
21
-1.40625
31
3.008878
0
POINT
8
INTERNAL_NODES
10
-1.40625
20
-1.40625
30
1.753902
0
TEXT
8
ID-NODES
10
-1.40625
20
-1.40625
30
1.753902
40
0.05
1
11
72
1
11
-1.40625
21
-1.40625
31
1.753902
73
2
0
LINE
8
fz
62
6
48
1.0
10
-1.40625
20
-1.40625
30
2.181092
11
-1.40625
21
-1.40625
31
3.876092
0
POINT
8
INTERNAL_NODES
10
-0.9375
20
-1.40625
30
2.043234
0
TEXT
8
ID-NODES
10
-0.9375
20
-1.40625
30
2.043234
40
0.05
1
12
72
1
11
-0.9375
21
-1.40625
31
2.043234
73
2
0
LINE
8
fz
62
6
48
1.0
10
-0.9375
20
-1.40625
30
2.419875
11
-0.9375
21
-1.40625
31
4.036875
0
POINT
8
INTERNAL_NODES
10
-0.46875
20
-1.40625
30
2.198632
0
TEXT
8
ID-NODES
10
-0.46875
20
-1.40625
30
2.198632
40
0.05
1
13
72
1
11
-0.46875
21
-1.40625
31
2.198632
73
2
0
LINE
8
fz
62
6
48
1.0
10
-0.46875
20
-1.40625
30
2.552445
11
-0.46875
21
-1.40625
31
4.007145
0
POINT
8
INTERNAL_NODES
10
0.0
20
-1.40625
30
2.248046
0
TEXT
8
ID-NODES
10
0.0
20
-1.40625
30
2.248046
40
0.05
1
14
72
1
11
0.0
21
-1.40625
31
2.248046
73
2
0
LINE
8
fz
62
6
48
1.0
10
0.0
20
-1.40625
30
2.59513
11
0.0
21
-1.40625
31
3.99883
0
POINT
8
INTERNAL_NODES
10
0.46875
20
-1.40625
30
2.198632
0
TEXT
8
ID-NODES
10
0.46875
20
-1.40625
30
2.198632
40
0.05
1
15
72
1
11
0.46875
21
-1.40625
31
2.198632
73
2
0
LINE
8
fz
62
6
48
1.0
10
0.46875
20
-1.40625
30
2.552445
11
0.46875
21
-1.40625
31
4.0044450000000005
0
POINT
8
INTERNAL_NODES
10
0.9375
20
-1.40625
30
2.043234
0
TEXT
8
ID-NODES
10
0.9375
20
-1.40625
30
2.043234
40
0.05
1
16
72
1
11
0.9375
21
-1.40625
31
2.043234
73
2
0
LINE
8
fz
62
6
48
1.0
10
0.9375
20
-1.40625
30
2.419875
11
0.9375
21
-1.40625
31
4.029375
0
POINT
8
INTERNAL_NODES
10
1.40625
20
-1.40625
30
1.753902
0
TEXT
8
ID-NODES
10
1.40625
20
-1.40625
30
1.753902
40
0.05
1
17
72
1
11
1.40625
21
-1.40625
31
1.753902
73
2
0
LINE
8
fz
62
6
48
1.0
10
1.40625
20
-1.40625
30
2.181092
11
1.40625
21
-1.40625
31
3.8667920000000002
0
POINT
8
INTERNAL_NODES
10
1.875
20
-1.40625
30
1.240196
0
TEXT
8
ID-NODES
10
1.875
20
-1.40625
30
1.240196
40
0.05
1
18
72
1
11
1.875
21
-1.40625
31
1.240196
73
2
0
LINE
8
fz
62
6
48
1.0
10
1.875
20
-1.40625
30
1.794178
11
1.875
21
-1.40625
31
3.004978
0
POINT
8
INTERNAL_NODES
10
-1.875
20
-0.9375
30
1.623798
0
TEXT
8
ID-NODES
10
-1.875
20
-0.9375
30
1.623798
40
0.05
1
19
72
1
11
-1.875
21
-0.9375
31
1.623798
73
2
0
LINE
8
fz
62
6
48
1.0
10
-1.875
20
-0.9375
30
2.07791
11
-1.875
21
-0.9375
31
3.4978100000000003
0
POINT
8
INTERNAL_NODES
10
-1.40625
20
-0.9375
30
2.043234
0
TEXT
8
ID-NODES
10
-1.40625
20
-0.9375
30
2.043234
40
0.05
1
20
72
1
11
-1.40625
21
-0.9375
31
2.043234
73
2
0
LINE
8
fz
62
6
48
1.0
10
-1.40625
20
-0.9375
30
2.419875
11
-1.40625
21
-0.9375
31
4.036875
0
POINT
8
INTERNAL_NODES
10
-0.9375
20
-0.9375
30
2.296397
0
TEXT
8
ID-NODES
10
-0.9375
20
-0.9375
30
2.296397
40
0.05
1
21
72
1
11
-0.9375
21
-0.9375
31
2.296397
73
2
0
LINE
8
fz
62
6
48
1.0
10
-0.9375
20
-0.9375
30
2.637125
11
-0.9375
21
-0.9375
31
3.9940249999999997
0
POINT
8
INTERNAL_NODES
10
-0.46875
20
-0.9375
30
2.435696
0
TEXT
8
ID-NODES
10
-0.46875
20
-0.9375
30
2.435696
40
0.05
1
22
72
1
11
-0.46875
21
-0.9375
31
2.435696
73
2
0
LINE
8
fz
62
6
48
1.0
10
-0.46875
20
-0.9375
30
2.759277
11
-0.46875
21
-0.9375
31
3.977277
0
POINT
8
INTERNAL_NODES
10
0.0
20
-0.9375
30
2.480392
0
TEXT
8
ID-NODES
10
0.0
20
-0.9375
30
2.480392
40
0.05
1
23
72
1
11
0.0
21
-0.9375
31
2.480392
73
2
0
LINE
8
fz
62
6
48
1.0
10
0.0
20
-0.9375
30
2.798809
11
0.0
21
-0.9375
31
3.972409
0
POINT
8
INTERNAL_NODES
10
0.46875
20
-0.9375
30
2.435696
0
TEXT
8
ID-NODES
10
0.46875
20
-0.9375
30
2.435696
40
0.05
1
24
72
1
11
0.46875
21
-0.9375
31
2.435696
73
2
0
LINE
8
fz
62
6
48
1.0
10
0.46875
20
-0.9375
30
2.759277
11
0.46875
21
-0.9375
31
3.976077
0
POINT
8
INTERNAL_NODES
10
0.9375
20
-0.9375
30
2.296397
0
TEXT
8
ID-NODES
10
0.9375
20
-0.9375
30
2.296397
40
0.05
1
25
72
1
11
0.9375
21
-0.9375
31
2.296397
73
2
0
LINE
8
fz
62
6
48
1.0
10
0.9375
20
-0.9375
30
2.637125
11
0.9375
21
-0.9375
31
3.991025
0
POINT
8
INTERNAL_NODES
10
1.40625
20
-0.9375
30
2.043234
0
TEXT
8
ID-NODES
10
1.40625
20
-0.9375
30
2.043234
40
0.05
1
26
72
1
11
1.40625
21
-0.9375
31
2.043234
73
2
0
LINE
8
fz
62
6
48
1.0
10
1.40625
20
-0.9375
30
2.419875
11
1.40625
21
-0.9375
31
4.029375
0
POINT
8
INTERNAL_NODES
10
1.875
20
-0.9375
30
1.623798
0
TEXT
8
ID-NODES
10
1.875
20
-0.9375
30
1.623798
40
0.05
1
27
72
1
11
1.875
21
-0.9375
31
1.623798
73
2
0
LINE
8
fz
62
6
48
1.0
10
1.875
20
-0.9375
30
2.07791
11
1.875
21
-0.9375
31
3.49241
0
POINT
8
INTERNAL_NODES
10
-1.875
20
-0.46875
30
1.815461
0
TEXT
8
ID-NODES
10
-1.875
20
-0.46875
30
1.815461
40
0.05
1
28
72
1
11
-1.875
21
-0.46875
31
1.815461
73
2
0
LINE
8
fz
62
6
48
1.0
10
-1.875
20
-0.46875
30
2.230894
11
-1.875
21
-0.46875
31
3.509194
0
POINT
8
INTERNAL_NODES
10
-1.40625
20
-0.46875
30
2.198632
0
TEXT
8
ID-NODES
10
-1.40625
20
-0.46875
30
2.198632
40
0.05
1
29
72
1
11
-1.40625
21
-0.46875
31
2.198632
73
2
0
LINE
8
fz
62
6
48
1.0
10
-1.40625
20
-0.46875
30
2.552445
11
-1.40625
21
-0.46875
31
4.007145
0
POINT
8
INTERNAL_NODES
10
-0.9375
20
-0.46875
30
2.435696
0
TEXT
8
ID-NODES
10
-0.9375
20
-0.46875
30
2.435696
40
0.05
1
30
72
1
11
-0.9375
21
-0.46875
31
2.435696
73
2
0
LINE
8
fz
62
6
48
1.0
10
-0.9375
20
-0.46875
30
2.759277
11
-0.9375
21
-0.46875
31
3.977277
0
POINT
8
INTERNAL_NODES
10
-0.46875
20
-0.46875
30
2.567449
0
TEXT
8
ID-NODES
10
-0.46875
20
-0.46875
30
2.567449
40
0.05
1
31
72
1
11
-0.46875
21
-0.46875
31
2.567449
73
2
0
LINE
8
fz
62
6
48
1.0
10
-0.46875
20
-0.46875
30
2.876245
11
-0.46875
21
-0.46875
31
3.965245
0
POINT
8
INTERNAL_NODES
10
0.0
20
-0.46875
30
2.60989
0
TEXT
8
ID-NODES
10
0.0
20
-0.46875
30
2.60989
40
0.05
1
32
72
1
11
0.0
21
-0.46875
31
2.60989
73
2
0
LINE
8
fz
62
6
48
1.0
10
0.0
20
-0.46875
30
2.914192
11
0.0
21
-0.46875
31
3.961492
0
POINT
8
INTERNAL_NODES
10
0.46875
20
-0.46875
30
2.567449
0
TEXT
8
ID-NODES
10
0.46875
20
-0.46875
30
2.567449
40
0.05
1
33
72
1
11
0.46875
21
-0.46875
31
2.567449
73
2
0
LINE
8
fz
62
6
48
1.0
10
0.46875
20
-0.46875
30
2.876245
11
0.46875
21
-0.46875
31
3.964645
0
POINT
8
INTERNAL_NODES
10
0.9375
20
-0.46875
30
2.435696
0
TEXT
8
ID-NODES
10
0.9375
20
-0.46875
30
2.435696
40
0.05
1
34
72
1
11
0.9375
21
-0.46875
31
2.435696
73
2
0
LINE
8
fz
62
6
48
1.0
10
0.9375
20
-0.46875
30
2.759277
11
0.9375
21
-0.46875
31
3.976077
0
POINT
8
INTERNAL_NODES
10
1.40625
20
-0.46875
30
2.198632
0
TEXT
8
ID-NODES
10
1.40625
20
-0.46875
30
2.198632
40
0.05
1
35
72
1
11
1.40625
21
-0.46875
31
2.198632
73
2
0
LINE
8
fz
62
6
48
1.0
10
1.40625
20
-0.46875
30
2.552445
11
1.40625
21
-0.46875
31
4.0044450000000005
0
POINT
8
INTERNAL_NODES
10
1.875
20
-0.46875
30
1.815461
0
TEXT
8
ID-NODES
10
1.875
20
-0.46875
30
1.815461
40
0.05
1
36
72
1
11
1.875
21
-0.46875
31
1.815461
73
2
0
LINE
8
fz
62
6
48
1.0
10
1.875
20
-0.46875
30
2.230894
11
1.875
21
-0.46875
31
3.507094
0
POINT
8
INTERNAL_NODES
10
-1.875
20
0.0
30
1.875
0
TEXT
8
ID-NODES
10
-1.875
20
0.0
30
1.875
40
0.05
1
37
72
1
11
-1.875
21
0.0
31
1.875
73
2
0
LINE
8
fz
62
6
48
1.0
10
-1.875
20
0.0
30
2.279609
11
-1.875
21
0.0
31
3.5141090000000004
0
POINT
8
INTERNAL_NODES
10
-1.40625
20
0.0
30
2.248046
0
TEXT
8
ID-NODES
10
-1.40625
20
0.0
30
2.248046
40
0.05
1
38
72
1
11
-1.40625
21
0.0
31
2.248046
73
2
0
LINE
8
fz
62
6
48
1.0
10
-1.40625
20
0.0
30
2.59513
11
-1.40625
21
0.0
31
3.99883
0
POINT
8
INTERNAL_NODES
10
-0.9375
20
0.0
30
2.480392
0
TEXT
8
ID-NODES
10
-0.9375
20
0.0
30
2.480392
40
0.05
1
39
72
1
11
-0.9375
21
0.0
31
2.480392
73
2
0
LINE
8
fz
62
6
48
1.0
10
-0.9375
20
0.0
30
2.798809
11
-0.9375
21
0.0
31
3.972409
0
POINT
8
INTERNAL_NODES
10
-0.46875
20
0.0
30
2.60989
0
TEXT
8
ID-NODES
10
-0.46875
20
0.0
30
2.60989
40
0.05
1
40
72
1
11
-0.46875
21
0.0
31
2.60989
73
2
0
LINE
8
fz
62
6
48
1.0
10
-0.46875
20
0.0
30
2.914192
11
-0.46875
21
0.0
31
3.961492
0
POINT
8
INTERNAL_NODES
10
0.0
20
0.0
30
2.65165
0
TEXT
8
ID-NODES
10
0.0
20
0.0
30
2.65165
40
0.05
1
41
72
1
11
0.0
21
0.0
31
2.65165
73
2
0
LINE
8
fz
62
6
48
1.0
10
0.0
20
0.0
30
2.95165
11
0.0
21
0.0
31
3.95845
0
POINT
8
INTERNAL_NODES
10
0.46875
20
0.0
30
2.60989
0
TEXT
8
ID-NODES
10
0.46875
20
0.0
30
2.60989
40
0.05
1
42
72
1
11
0.46875
21
0.0
31
2.60989
73
2
0
LINE
8
fz
62
6
48
1.0
10
0.46875
20
0.0
30
2.914192
11
0.46875
21
0.0
31
3.961492
0
POINT
8
INTERNAL_NODES
10
0.9375
20
0.0
30
2.480392
0
TEXT
8
ID-NODES
10
0.9375
20
0.0
30
2.480392
40
0.05
1
43
72
1
11
0.9375
21
0.0
31
2.480392
73
2
0
LINE
8
fz
62
6
48
1.0
10
0.9375
20
0.0
30
2.798809
11
0.9375
21
0.0
31
3.972409
0
POINT
8
INTERNAL_NODES
10
1.40625
20
0.0
30
2.248046
0
TEXT
8
ID-NODES
10
1.40625
20
0.0
30
2.248046
40
0.05
1
44
72
1
11
1.40625
21
0.0
31
2.248046
73
2
0
LINE
8
fz
62
6
48
1.0
10
1.40625
20
0.0
30
2.59513
11
1.40625
21
0.0
31
3.99883
0
POINT
8
INTERNAL_NODES
10
1.875
20
0.0
30
1.875
0
TEXT
8
ID-NODES
10
1.875
20
0.0
30
1.875
40
0.05
1
45
72
1
11
1.875
21
0.0
31
1.875
73
2
0
LINE
8
fz
62
6
48
1.0
10
1.875
20
0.0
30
2.279609
11
1.875
21
0.0
31
3.5141090000000004
0
POINT
8
INTERNAL_NODES
10
-1.875
20
0.46875
30
1.815461
0
TEXT
8
ID-NODES
10
-1.875
20
0.46875
30
1.815461
40
0.05
1
46
72
1
11
-1.875
21
0.46875
31
1.815461
73
2
0
LINE
8
fz
62
6
48
1.0
10
-1.875
20
0.46875
30
2.230894
11
-1.875
21
0.46875
31
3.507094
0
POINT
8
INTERNAL_NODES
10
-1.40625
20
0.46875
30
2.198632
0
TEXT
8
ID-NODES
10
-1.40625
20
0.46875
30
2.198632
40
0.05
1
47
72
1
11
-1.40625
21
0.46875
31
2.198632
73
2
0
LINE
8
fz
62
6
48
1.0
10
-1.40625
20
0.46875
30
2.552445
11
-1.40625
21
0.46875
31
4.0044450000000005
0
POINT
8
INTERNAL_NODES
10
-0.9375
20
0.46875
30
2.435696
0
TEXT
8
ID-NODES
10
-0.9375
20
0.46875
30
2.435696
40
0.05
1
48
72
1
11
-0.9375
21
0.46875
31
2.435696
73
2
0
LINE
8
fz
62
6
48
1.0
10
-0.9375
20
0.46875
30
2.759277
11
-0.9375
21
0.46875
31
3.976077
0
POINT
8
INTERNAL_NODES
10
-0.46875
20
0.46875
30
2.567449
0
TEXT
8
ID-NODES
10
-0.46875
20
0.46875
30
2.567449
40
0.05
1
49
72
1
11
-0.46875
21
0.46875
31
2.567449
73
2
0
LINE
8
fz
62
6
48
1.0
10
-0.46875
20
0.46875
30
2.876245
11
-0.46875
21
0.46875
31
3.964645
0
POINT
8
INTERNAL_NODES
10
0.0
20
0.46875
30
2.60989
0
TEXT
8
ID-NODES
10
0.0
20
0.46875
30
2.60989
40
0.05
1
50
72
1
11
0.0
21
0.46875
31
2.60989
73
2
0
LINE
8
fz
62
6
48
1.0
10
0.0
20
0.46875
30
2.914192
11
0.0
21
0.46875
31
3.961492
0
POINT
8
INTERNAL_NODES
10
0.46875
20
0.46875
30
2.567449
0
TEXT
8
ID-NODES
10
0.46875
20
0.46875
30
2.567449
40
0.05
1
51
72
1
11
0.46875
21
0.46875
31
2.567449
73
2
0
LINE
8
fz
62
6
48
1.0
10
0.46875
20
0.46875
30
2.876245
11
0.46875
21
0.46875
31
3.965245
0
POINT
8
INTERNAL_NODES
10
0.9375
20
0.46875
30
2.435696
0
TEXT
8
ID-NODES
10
0.9375
20
0.46875
30
2.435696
40
0.05
1
52
72
1
11
0.9375
21
0.46875
31
2.435696
73
2
0
LINE
8
fz
62
6
48
1.0
10
0.9375
20
0.46875
30
2.759277
11
0.9375
21
0.46875
31
3.977277
0
POINT
8
INTERNAL_NODES
10
1.40625
20
0.46875
30
2.198632
0
TEXT
8
ID-NODES
10
1.40625
20
0.46875
30
2.198632
40
0.05
1
53
72
1
11
1.40625
21
0.46875
31
2.198632
73
2
0
LINE
8
fz
62
6
48
1.0
10
1.40625
20
0.46875
30
2.552445
11
1.40625
21
0.46875
31
4.007145
0
POINT
8
INTERNAL_NODES
10
1.875
20
0.46875
30
1.815461
0
TEXT
8
ID-NODES
10
1.875
20
0.46875
30
1.815461
40
0.05
1
54
72
1
11
1.875
21
0.46875
31
1.815461
73
2
0
LINE
8
fz
62
6
48
1.0
10
1.875
20
0.46875
30
2.230894
11
1.875
21
0.46875
31
3.509194
0
POINT
8
INTERNAL_NODES
10
-1.875
20
0.9375
30
1.623798
0
TEXT
8
ID-NODES
10
-1.875
20
0.9375
30
1.623798
40
0.05
1
55
72
1
11
-1.875
21
0.9375
31
1.623798
73
2
0
LINE
8
fz
62
6
48
1.0
10
-1.875
20
0.9375
30
2.07791
11
-1.875
21
0.9375
31
3.49241
0
POINT
8
INTERNAL_NODES
10
-1.40625
20
0.9375
30
2.043234
0
TEXT
8
ID-NODES
10
-1.40625
20
0.9375
30
2.043234
40
0.05
1
56
72
1
11
-1.40625
21
0.9375
31
2.043234
73
2
0
LINE
8
fz
62
6
48
1.0
10
-1.40625
20
0.9375
30
2.419875
11
-1.40625
21
0.9375
31
4.029375
0
POINT
8
INTERNAL_NODES
10
-0.9375
20
0.9375
30
2.296397
0
TEXT
8
ID-NODES
10
-0.9375
20
0.9375
30
2.296397
40
0.05
1
57
72
1
11
-0.9375
21
0.9375
31
2.296397
73
2
0
LINE
8
fz
62
6
48
1.0
10
-0.9375
20
0.9375
30
2.637125
11
-0.9375
21
0.9375
31
3.991025
0
POINT
8
INTERNAL_NODES
10
-0.46875
20
0.9375
30
2.435696
0
TEXT
8
ID-NODES
10
-0.46875
20
0.9375
30
2.435696
40
0.05
1
58
72
1
11
-0.46875
21
0.9375
31
2.435696
73
2
0
LINE
8
fz
62
6
48
1.0
10
-0.46875
20
0.9375
30
2.759277
11
-0.46875
21
0.9375
31
3.976077
0
POINT
8
INTERNAL_NODES
10
0.0
20
0.9375
30
2.480392
0
TEXT
8
ID-NODES
10
0.0
20
0.9375
30
2.480392
40
0.05
1
59
72
1
11
0.0
21
0.9375
31
2.480392
73
2
0
LINE
8
fz
62
6
48
1.0
10
0.0
20
0.9375
30
2.798809
11
0.0
21
0.9375
31
3.972409
0
POINT
8
INTERNAL_NODES
10
0.46875
20
0.9375
30
2.435696
0
TEXT
8
ID-NODES
10
0.46875
20
0.9375
30
2.435696
40
0.05
1
60
72
1
11
0.46875
21
0.9375
31
2.435696
73
2
0
LINE
8
fz
62
6
48
1.0
10
0.46875
20
0.9375
30
2.759277
11
0.46875
21
0.9375
31
3.977277
0
POINT
8
INTERNAL_NODES
10
0.9375
20
0.9375
30
2.296397
0
TEXT
8
ID-NODES
10
0.9375
20
0.9375
30
2.296397
40
0.05
1
61
72
1
11
0.9375
21
0.9375
31
2.296397
73
2
0
LINE
8
fz
62
6
48
1.0
10
0.9375
20
0.9375
30
2.637125
11
0.9375
21
0.9375
31
3.9940249999999997
0
POINT
8
INTERNAL_NODES
10
1.40625
20
0.9375
30
2.043234
0
TEXT
8
ID-NODES
10
1.40625
20
0.9375
30
2.043234
40
0.05
1
62
72
1
11
1.40625
21
0.9375
31
2.043234
73
2
0
LINE
8
fz
62
6
48
1.0
10
1.40625
20
0.9375
30
2.419875
11
1.40625
21
0.9375
31
4.036875
0
POINT
8
INTERNAL_NODES
10
1.875
20
0.9375
30
1.623798
0
TEXT
8
ID-NODES
10
1.875
20
0.9375
30
1.623798
40
0.05
1
63
72
1
11
1.875
21
0.9375
31
1.623798
73
2
0
LINE
8
fz
62
6
48
1.0
10
1.875
20
0.9375
30
2.07791
11
1.875
21
0.9375
31
3.4978100000000003
0
POINT
8
INTERNAL_NODES
10
-1.875
20
1.40625
30
1.240196
0
TEXT
8
ID-NODES
10
-1.875
20
1.40625
30
1.240196
40
0.05
1
64
72
1
11
-1.875
21
1.40625
31
1.240196
73
2
0
LINE
8
fz
62
6
48
1.0
10
-1.875
20
1.40625
30
1.794178
11
-1.875
21
1.40625
31
3.004978
0
POINT
8
INTERNAL_NODES
10
-1.40625
20
1.40625
30
1.753902
0
TEXT
8
ID-NODES
10
-1.40625
20
1.40625
30
1.753902
40
0.05
1
65
72
1
11
-1.40625
21
1.40625
31
1.753902
73
2
0
LINE
8
fz
62
6
48
1.0
10
-1.40625
20
1.40625
30
2.181092
11
-1.40625
21
1.40625
31
3.8667920000000002
0
POINT
8
INTERNAL_NODES
10
-0.9375
20
1.40625
30
2.043234
0
TEXT
8
ID-NODES
10
-0.9375
20
1.40625
30
2.043234
40
0.05
1
66
72
1
11
-0.9375
21
1.40625
31
2.043234
73
2
0
LINE
8
fz
62
6
48
1.0
10
-0.9375
20
1.40625
30
2.419875
11
-0.9375
21
1.40625
31
4.029375
0
POINT
8
INTERNAL_NODES
10
-0.46875
20
1.40625
30
2.198632
0
TEXT
8
ID-NODES
10
-0.46875
20
1.40625
30
2.198632
40
0.05
1
67
72
1
11
-0.46875
21
1.40625
31
2.198632
73
2
0
LINE
8
fz
62
6
48
1.0
10
-0.46875
20
1.40625
30
2.552445
11
-0.46875
21
1.40625
31
4.0044450000000005
0
POINT
8
INTERNAL_NODES
10
0.0
20
1.40625
30
2.248046
0
TEXT
8
ID-NODES
10
0.0
20
1.40625
30
2.248046
40
0.05
1
68
72
1
11
0.0
21
1.40625
31
2.248046
73
2
0
LINE
8
fz
62
6
48
1.0
10
0.0
20
1.40625
30
2.59513
11
0.0
21
1.40625
31
3.99883
0
POINT
8
INTERNAL_NODES
10
0.46875
20
1.40625
30
2.198632
0
TEXT
8
ID-NODES
10
0.46875
20
1.40625
30
2.198632
40
0.05
1
69
72
1
11
0.46875
21
1.40625
31
2.198632
73
2
0
LINE
8
fz
62
6
48
1.0
10
0.46875
20
1.40625
30
2.552445
11
0.46875
21
1.40625
31
4.007145
0
POINT
8
INTERNAL_NODES
10
0.9375
20
1.40625
30
2.043234
0
TEXT
8
ID-NODES
10
0.9375
20
1.40625
30
2.043234
40
0.05
1
70
72
1
11
0.9375
21
1.40625
31
2.043234
73
2
0
LINE
8
fz
62
6
48
1.0
10
0.9375
20
1.40625
30
2.419875
11
0.9375
21
1.40625
31
4.036875
0
POINT
8
INTERNAL_NODES
10
1.40625
20
1.40625
30
1.753902
0
TEXT
8
ID-NODES
10
1.40625
20
1.40625
30
1.753902
40
0.05
1
71
72
1
11
1.40625
21
1.40625
31
1.753902
73
2
0
LINE
8
fz
62
6
48
1.0
10
1.40625
20
1.40625
30
2.181092
11
1.40625
21
1.40625
31
3.876092
0
POINT
8
INTERNAL_NODES
10
1.875
20
1.40625
30
1.240196
0
TEXT
8
ID-NODES
10
1.875
20
1.40625
30
1.240196
40
0.05
1
72
72
1
11
1.875
21
1.40625
31
1.240196
73
2
0
LINE
8
fz
62
6
48
1.0
10
1.875
20
1.40625
30
1.794178
11
1.875
21
1.40625
31
3.008878
0
POINT
8
INTERNAL_NODES
10
-1.875
20
1.875
30
0.0
0
TEXT
8
ID-NODES
10
-1.875
20
1.875
30
0.0
40
0.05
1
73
72
1
11
-1.875
21
1.875
31
0.0
73
2
0
LINE
8
fz
62
6
48
1.0
10
-1.875
20
1.875
30
1.29653
11
-1.875
21
1.875
31
1.6244299999999998
0
POINT
8
INTERNAL_NODES
10
-1.40625
20
1.875
30
1.240196
0
TEXT
8
ID-NODES
10
-1.40625
20
1.875
30
1.240196
40
0.05
1
74
72
1
11
-1.40625
21
1.875
31
1.240196
73
2
0
LINE
8
fz
62
6
48
1.0
10
-1.40625
20
1.875
30
1.794178
11
-1.40625
21
1.875
31
2.557978
0
POINT
8
INTERNAL_NODES
10
-0.9375
20
1.875
30
1.623798
0
TEXT
8
ID-NODES
10
-0.9375
20
1.875
30
1.623798
40
0.05
1
75
72
1
11
-0.9375
21
1.875
31
1.623798
73
2
0
LINE
8
fz
62
6
48
1.0
10
-0.9375
20
1.875
30
2.07791
11
-0.9375
21
1.875
31
2.96381
0
POINT
8
INTERNAL_NODES
10
-0.46875
20
1.875
30
1.815461
0
TEXT
8
ID-NODES
10
-0.46875
20
1.875
30
1.815461
40
0.05
1
76
72
1
11
-0.46875
21
1.875
31
1.815461
73
2
0
LINE
8
fz
62
6
48
1.0
10
-0.46875
20
1.875
30
2.230894
11
-0.46875
21
1.875
31
3.030994
0
POINT
8
INTERNAL_NODES
10
0.0
20
1.875
30
1.875
0
TEXT
8
ID-NODES
10
0.0
20
1.875
30
1.875
40
0.05
1
77
72
1
11
0.0
21
1.875
31
1.875
73
2
0
LINE
8
fz
62
6
48
1.0
10
0.0
20
1.875
30
2.279609
11
0.0
21
1.875
31
3.0536090000000002
0
POINT
8
INTERNAL_NODES
10
0.46875
20
1.875
30
1.815461
0
TEXT
8
ID-NODES
10
0.46875
20
1.875
30
1.815461
40
0.05
1
78
72
1
11
0.46875
21
1.875
31
1.815461
73
2
0
LINE
8
fz
62
6
48
1.0
10
0.46875
20
1.875
30
2.230894
11
0.46875
21
1.875
31
3.032794
0
POINT
8
INTERNAL_NODES
10
0.9375
20
1.875
30
1.623798
0
TEXT
8
ID-NODES
10
0.9375
20
1.875
30
1.623798
40
0.05
1
79
72
1
11
0.9375
21
1.875
31
1.623798
73
2
0
LINE
8
fz
62
6
48
1.0
10
0.9375
20
1.875
30
2.07791
11
0.9375
21
1.875
31
2.9692100000000003
0
POINT
8
INTERNAL_NODES
10
1.40625
20
1.875
30
1.240196
0
TEXT
8
ID-NODES
10
1.40625
20
1.875
30
1.240196
40
0.05
1
80
72
1
11
1.40625
21
1.875
31
1.240196
73
2
0
LINE
8
fz
62
6
48
1.0
10
1.40625
20
1.875
30
1.794178
11
1.40625
21
1.875
31
2.561878
0
POINT
8
INTERNAL_NODES
10
1.875
20
1.875
30
0.0
0
TEXT
8
ID-NODES
10
1.875
20
1.875
30
0.0
40
0.05
1
81
72
1
11
1.875
21
1.875
31
0.0
73
2
0
LINE
8
fz
62
6
48
1.0
10
1.875
20
1.875
30
1.29653
11
1.875
21
1.875
31
1.6244299999999998
0
POINT
8
INTERNAL_NODES
10
-1.757812
20
-1.757812
30
0.922735
0
TEXT
8
ID-NODES
10
-1.757812
20
-1.757812
30
0.922735
40
0.05
1
82
72
1
11
-1.757812
21
-1.757812
31
0.922735
73
2
0
LINE
8
fz
62
6
48
1.0
10
-1.757812
20
-1.757812
30
1.591361
11
-1.757812
21
-1.757812
31
1.941461
0
POINT
8
INTERNAL_NODES
10
-1.640625
20
-1.640625
30
1.283725
0
TEXT
8
ID-NODES
10
-1.640625
20
-1.640625
30
1.283725
40
0.05
1
83
72
1
11
-1.640625
21
-1.640625
31
1.283725
73
2
0
LINE
8
fz
62
6
48
1.0
10
-1.640625
20
-1.640625
30
1.824538
11
-1.640625
21
-1.640625
31
2.406838
0
POINT
8
INTERNAL_NODES
10
1.640625
20
1.640625
30
1.283725
0
TEXT
8
ID-NODES
10
1.640625
20
1.640625
30
1.283725
40
0.05
1
84
72
1
11
1.640625
21
1.640625
31
1.283725
73
2
0
LINE
8
fz
62
6
48
1.0
10
1.640625
20
1.640625
30
1.824538
11
1.640625
21
1.640625
31
2.406838
0
POINT
8
INTERNAL_NODES
10
1.757812
20
1.757812
30
0.922735
0
TEXT
8
ID-NODES
10
1.757812
20
1.757812
30
0.922735
40
0.05
1
85
72
1
11
1.757812
21
1.757812
31
0.922735
73
2
0
LINE
8
fz
62
6
48
1.0
10
1.757812
20
1.757812
30
1.591361
11
1.757812
21
1.757812
31
1.941461
0
POINT
8
INTERNAL_NODES
10
1.757812
20
-1.757812
30
0.922735
0
TEXT
8
ID-NODES
10
1.757812
20
-1.757812
30
0.922735
40
0.05
1
86
72
1
11
1.757812
21
-1.757812
31
0.922735
73
2
0
LINE
8
fz
62
6
48
1.0
10
1.757812
20
-1.757812
30
1.591361
11
1.757812
21
-1.757812
31
1.941461
0
POINT
8
INTERNAL_NODES
10
1.640625
20
-1.640625
30
1.283725
0
TEXT
8
ID-NODES
10
1.640625
20
-1.640625
30
1.283725
40
0.05
1
87
72
1
11
1.640625
21
-1.640625
31
1.283725
73
2
0
LINE
8
fz
62
6
48
1.0
10
1.640625
20
-1.640625
30
1.824538
11
1.640625
21
-1.640625
31
2.406838
0
POINT
8
INTERNAL_NODES
10
-1.640625
20
1.640625
30
1.283725
0
TEXT
8
ID-NODES
10
-1.640625
20
1.640625
30
1.283725
40
0.05
1
88
72
1
11
-1.640625
21
1.640625
31
1.283725
73
2
0
LINE
8
fz
62
6
48
1.0
10
-1.640625
20
1.640625
30
1.824538
11
-1.640625
21
1.640625
31
2.406838
0
POINT
8
INTERNAL_NODES
10
-1.757812
20
1.757812
30
0.922735
0
TEXT
8
ID-NODES
10
-1.757812
20
1.757812
30
0.922735
40
0.05
1
89
72
1
11
-1.757812
21
1.757812
31
0.922735
73
2
0
LINE
8
fz
62
6
48
1.0
10
-1.757812
20
1.757812
30
1.591361
11
-1.757812
21
1.757812
31
1.941461
0
POINT
8
INTERNAL_NODES
10
-1.640625
20
-1.875
30
0.90773
0
TEXT
8
ID-NODES
10
-1.640625
20
-1.875
30
0.90773
40
0.05
1
90
72
1
11
-1.640625
21
-1.875
31
0.90773
73
2
0
LINE
8
fz
62
6
48
1.0
10
-1.640625
20
-1.875
30
1.582708
11
-1.640625
21
-1.875
31
1.757608
0
POINT
8
INTERNAL_NODES
10
1.640625
20
-1.875
30
0.90773
0
TEXT
8
ID-NODES
10
1.640625
20
-1.875
30
0.90773
40
0.05
1
91
72
1
11
1.640625
21
-1.875
31
0.90773
73
2
0
LINE
8
fz
62
6
48
1.0
10
1.640625
20
-1.875
30
1.582708
11
1.640625
21
-1.875
31
1.757608
0
POINT
8
INTERNAL_NODES
10
-1.640625
20
1.875
30
0.90773
0
TEXT
8
ID-NODES
10
-1.640625
20
1.875
30
0.90773
40
0.05
1
92
72
1
11
-1.640625
21
1.875
31
0.90773
73
2
0
LINE
8
fz
62
6
48
1.0
10
-1.640625
20
1.875
30
1.582708
11
-1.640625
21
1.875
31
1.757608
0
POINT
8
INTERNAL_NODES
10
1.640625
20
1.875
30
0.90773
0
TEXT
8
ID-NODES
10
1.640625
20
1.875
30
0.90773
40
0.05
1
93
72
1
11
1.640625
21
1.875
31
0.90773
73
2
0
LINE
8
fz
62
6
48
1.0
10
1.640625
20
1.875
30
1.582708
11
1.640625
21
1.875
31
1.757608
0
POINT
8
INTERNAL_NODES
10
-1.875
20
-1.640625
30
0.90773
0
TEXT
8
ID-NODES
10
-1.875
20
-1.640625
30
0.90773
40
0.05
1
94
72
1
11
-1.875
21
-1.640625
31
0.90773
73
2
0
LINE
8
fz
62
6
48
1.0
10
-1.875
20
-1.640625
30
1.582708
11
-1.875
21
-1.640625
31
2.127808
0
POINT
8
INTERNAL_NODES
10
-1.875
20
1.640625
30
0.90773
0
TEXT
8
ID-NODES
10
-1.875
20
1.640625
30
0.90773
40
0.05
1
95
72
1
11
-1.875
21
1.640625
31
0.90773
73
2
0
LINE
8
fz
62
6
48
1.0
10
-1.875
20
1.640625
30
1.582708
11
-1.875
21
1.640625
31
2.127808
0
POINT
8
INTERNAL_NODES
10
1.875
20
-1.640625
30
0.90773
0
TEXT
8
ID-NODES
10
1.875
20
-1.640625
30
0.90773
40
0.05
1
96
72
1
11
1.875
21
-1.640625
31
0.90773
73
2
0
LINE
8
fz
62
6
48
1.0
10
1.875
20
-1.640625
30
1.582708
11
1.875
21
-1.640625
31
2.127808
0
POINT
8
INTERNAL_NODES
10
1.875
20
1.640625
30
0.90773
0
TEXT
8
ID-NODES
10
1.875
20
1.640625
30
0.90773
40
0.05
1
97
72
1
11
1.875
21
1.640625
31
0.90773
73
2
0
LINE
8
fz
62
6
48
1.0
10
1.875
20
1.640625
30
1.582708
11
1.875
21
1.640625
31
2.127808
0
POINT
8
INTERNAL_NODES
10
-2.125
20
-1.875
30
0.0
0
TEXT
8
ID-NODES
10
-2.125
20
-1.875
30
0.0
40
0.05
1
98
72
1
11
-2.125
21
-1.875
31
0.0
73
2
0
LINE
8
fz
62
6
48
1.0
10
-2.125
20
-1.875
30
1.29653
11
-2.125
21
-1.875
31
1.50233
0
POINT
8
INTERNAL_NODES
10
-2.125
20
-1.640625
30
0.90773
0
TEXT
8
ID-NODES
10
-2.125
20
-1.640625
30
0.90773
40
0.05
1
99
72
1
11
-2.125
21
-1.640625
31
0.90773
73
2
0
LINE
8
fz
62
6
48
1.0
10
-2.125
20
-1.640625
30
1.582708
11
-2.125
21
-1.640625
31
1.9529079999999999
0
POINT
8
INTERNAL_NODES
10
-2.125
20
-1.40625
30
1.240196
0
TEXT
8
ID-NODES
10
-2.125
20
-1.40625
30
1.240196
40
0.05
1
100
72
1
11
-2.125
21
-1.40625
31
1.240196
73
2
0
LINE
8
fz
62
6
48
1.0
10
-2.125
20
-1.40625
30
1.794178
11
-2.125
21
-1.40625
31
2.241178
0
POINT
8
INTERNAL_NODES
10
-2.125
20
-0.9375
30
1.623798
0
TEXT
8
ID-NODES
10
-2.125
20
-0.9375
30
1.623798
40
0.05
1
101
72
1
11
-2.125
21
-0.9375
31
1.623798
73
2
0
LINE
8
fz
62
6
48
1.0
10
-2.125
20
-0.9375
30
2.07791
11
-2.125
21
-0.9375
31
2.6068100000000003
0
POINT
8
INTERNAL_NODES
10
-2.125
20
-0.46875
30
1.815461
0
TEXT
8
ID-NODES
10
-2.125
20
-0.46875
30
1.815461
40
0.05
1
102
72
1
11
-2.125
21
-0.46875
31
1.815461
73
2
0
LINE
8
fz
62
6
48
1.0
10
-2.125
20
-0.46875
30
2.230894
11
-2.125
21
-0.46875
31
2.707294
0
POINT
8
INTERNAL_NODES
10
-2.125
20
0.0
30
1.875
0
TEXT
8
ID-NODES
10
-2.125
20
0.0
30
1.875
40
0.05
1
103
72
1
11
-2.125
21
0.0
31
1.875
73
2
0
LINE
8
fz
62
6
48
1.0
10
-2.125
20
0.0
30
2.279609
11
-2.125
21
0.0
31
2.7401090000000003
0
POINT
8
INTERNAL_NODES
10
-2.125
20
0.46875
30
1.815461
0
TEXT
8
ID-NODES
10
-2.125
20
0.46875
30
1.815461
40
0.05
1
104
72
1
11
-2.125
21
0.46875
31
1.815461
73
2
0
LINE
8
fz
62
6
48
1.0
10
-2.125
20
0.46875
30
2.230894
11
-2.125
21
0.46875
31
2.707294
0
POINT
8
INTERNAL_NODES
10
-2.125
20
0.9375
30
1.623798
0
TEXT
8
ID-NODES
10
-2.125
20
0.9375
30
1.623798
40
0.05
1
105
72
1
11
-2.125
21
0.9375
31
1.623798
73
2
0
LINE
8
fz
62
6
48
1.0
10
-2.125
20
0.9375
30
2.07791
11
-2.125
21
0.9375
31
2.6068100000000003
0
POINT
8
INTERNAL_NODES
10
-2.125
20
1.40625
30
1.240196
0
TEXT
8
ID-NODES
10
-2.125
20
1.40625
30
1.240196
40
0.05
1
106
72
1
11
-2.125
21
1.40625
31
1.240196
73
2
0
LINE
8
fz
62
6
48
1.0
10
-2.125
20
1.40625
30
1.794178
11
-2.125
21
1.40625
31
2.241178
0
POINT
8
INTERNAL_NODES
10
-2.125
20
1.640625
30
0.90773
0
TEXT
8
ID-NODES
10
-2.125
20
1.640625
30
0.90773
40
0.05
1
107
72
1
11
-2.125
21
1.640625
31
0.90773
73
2
0
LINE
8
fz
62
6
48
1.0
10
-2.125
20
1.640625
30
1.582708
11
-2.125
21
1.640625
31
1.9529079999999999
0
POINT
8
INTERNAL_NODES
10
-2.125
20
1.875
30
0.0
0
TEXT
8
ID-NODES
10
-2.125
20
1.875
30
0.0
40
0.05
1
108
72
1
11
-2.125
21
1.875
31
0.0
73
2
0
LINE
8
fz
62
6
48
1.0
10
-2.125
20
1.875
30
1.29653
11
-2.125
21
1.875
31
1.50233
0
POINT
8
INTERNAL_NODES
10
2.125
20
-1.875
30
0.0
0
TEXT
8
ID-NODES
10
2.125
20
-1.875
30
0.0
40
0.05
1
109
72
1
11
2.125
21
-1.875
31
0.0
73
2
0
LINE
8
fz
62
6
48
1.0
10
2.125
20
-1.875
30
1.29653
11
2.125
21
-1.875
31
1.50233
0
POINT
8
INTERNAL_NODES
10
2.125
20
-1.640625
30
0.90773
0
TEXT
8
ID-NODES
10
2.125
20
-1.640625
30
0.90773
40
0.05
1
110
72
1
11
2.125
21
-1.640625
31
0.90773
73
2
0
LINE
8
fz
62
6
48
1.0
10
2.125
20
-1.640625
30
1.582708
11
2.125
21
-1.640625
31
1.9529079999999999
0
POINT
8
INTERNAL_NODES
10
2.125
20
-1.40625
30
1.240196
0
TEXT
8
ID-NODES
10
2.125
20
-1.40625
30
1.240196
40
0.05
1
111
72
1
11
2.125
21
-1.40625
31
1.240196
73
2
0
LINE
8
fz
62
6
48
1.0
10
2.125
20
-1.40625
30
1.794178
11
2.125
21
-1.40625
31
2.241178
0
POINT
8
INTERNAL_NODES
10
2.125
20
-0.9375
30
1.623798
0
TEXT
8
ID-NODES
10
2.125
20
-0.9375
30
1.623798
40
0.05
1
112
72
1
11
2.125
21
-0.9375
31
1.623798
73
2
0
LINE
8
fz
62
6
48
1.0
10
2.125
20
-0.9375
30
2.07791
11
2.125
21
-0.9375
31
2.6068100000000003
0
POINT
8
INTERNAL_NODES
10
2.125
20
-0.46875
30
1.815461
0
TEXT
8
ID-NODES
10
2.125
20
-0.46875
30
1.815461
40
0.05
1
113
72
1
11
2.125
21
-0.46875
31
1.815461
73
2
0
LINE
8
fz
62
6
48
1.0
10
2.125
20
-0.46875
30
2.230894
11
2.125
21
-0.46875
31
2.707294
0
POINT
8
INTERNAL_NODES
10
2.125
20
0.0
30
1.875
0
TEXT
8
ID-NODES
10
2.125
20
0.0
30
1.875
40
0.05
1
114
72
1
11
2.125
21
0.0
31
1.875
73
2
0
LINE
8
fz
62
6
48
1.0
10
2.125
20
0.0
30
2.279609
11
2.125
21
0.0
31
2.7401090000000003
0
POINT
8
INTERNAL_NODES
10
2.125
20
0.46875
30
1.815461
0
TEXT
8
ID-NODES
10
2.125
20
0.46875
30
1.815461
40
0.05
1
115
72
1
11
2.125
21
0.46875
31
1.815461
73
2
0
LINE
8
fz
62
6
48
1.0
10
2.125
20
0.46875
30
2.230894
11
2.125
21
0.46875
31
2.707294
0
POINT
8
INTERNAL_NODES
10
2.125
20
0.9375
30
1.623798
0
TEXT
8
ID-NODES
10
2.125
20
0.9375
30
1.623798
40
0.05
1
116
72
1
11
2.125
21
0.9375
31
1.623798
73
2
0
LINE
8
fz
62
6
48
1.0
10
2.125
20
0.9375
30
2.07791
11
2.125
21
0.9375
31
2.6068100000000003
0
POINT
8
INTERNAL_NODES
10
2.125
20
1.40625
30
1.240196
0
TEXT
8
ID-NODES
10
2.125
20
1.40625
30
1.240196
40
0.05
1
117
72
1
11
2.125
21
1.40625
31
1.240196
73
2
0
LINE
8
fz
62
6
48
1.0
10
2.125
20
1.40625
30
1.794178
11
2.125
21
1.40625
31
2.241178
0
POINT
8
INTERNAL_NODES
10
2.125
20
1.640625
30
0.90773
0
TEXT
8
ID-NODES
10
2.125
20
1.640625
30
0.90773
40
0.05
1
118
72
1
11
2.125
21
1.640625
31
0.90773
73
2
0
LINE
8
fz
62
6
48
1.0
10
2.125
20
1.640625
30
1.582708
11
2.125
21
1.640625
31
1.9529079999999999
0
POINT
8
INTERNAL_NODES
10
2.125
20
1.875
30
0.0
0
TEXT
8
ID-NODES
10
2.125
20
1.875
30
0.0
40
0.05
1
119
72
1
11
2.125
21
1.875
31
0.0
73
2
0
LINE
8
fz
62
6
48
1.0
10
2.125
20
1.875
30
1.29653
11
2.125
21
1.875
31
1.50233
0
POINT
8
EXTERNAL_NODES
10
-1.640625
20
-2.299264
30
-4.09227
0
TEXT
8
ID-NODES
10
-1.640625
20
-2.299264
30
-4.09227
40
0.05
1
120
72
1
11
-1.640625
21
-2.299264
31
-4.09227
73
2
0
LINE
8
fz
62
6
48
1.0
10
-1.640625
20
-2.299264
30
1.469466
11
-1.640625
21
-2.299264
31
1.469466
0
POINT
8
EXTERNAL_NODES
10
-1.40625
20
-2.299264
30
-3.759804
0
TEXT
8
ID-NODES
10
-1.40625
20
-2.299264
30
-3.759804
40
0.05
1
121
72
1
11
-1.40625
21
-2.299264
31
-3.759804
73
2
0
LINE
8
fz
62
6
48
1.0
10
-1.40625
20
-2.299264
30
1.69148
11
-1.40625
21
-2.299264
31
1.69148
0
POINT
8
EXTERNAL_NODES
10
-0.9375
20
-2.299264
30
-3.376202
0
TEXT
8
ID-NODES
10
-0.9375
20
-2.299264
30
-3.376202
40
0.05
1
122
72
1
11
-0.9375
21
-2.299264
31
-3.376202
73
2
0
LINE
8
fz
62
6
48
1.0
10
-0.9375
20
-2.299264
30
1.986838
11
-0.9375
21
-2.299264
31
1.986838
0
POINT
8
EXTERNAL_NODES
10
-0.46875
20
-2.299264
30
-3.184539
0
TEXT
8
ID-NODES
10
-0.46875
20
-2.299264
30
-3.184539
40
0.05
1
123
72
1
11
-0.46875
21
-2.299264
31
-3.184539
73
2
0
LINE
8
fz
62
6
48
1.0
10
-0.46875
20
-2.299264
30
2.145137
11
-0.46875
21
-2.299264
31
2.145137
0
POINT
8
EXTERNAL_NODES
10
0.0
20
-2.299264
30
-3.125
0
TEXT
8
ID-NODES
10
0.0
20
-2.299264
30
-3.125
40
0.05
1
124
72
1
11
0.0
21
-2.299264
31
-3.125
73
2
0
LINE
8
fz
62
6
48
1.0
10
0.0
20
-2.299264
30
2.195425
11
0.0
21
-2.299264
31
2.195425
0
POINT
8
EXTERNAL_NODES
10
0.46875
20
-2.299264
30
-3.184539
0
TEXT
8
ID-NODES
10
0.46875
20
-2.299264
30
-3.184539
40
0.05
1
125
72
1
11
0.46875
21
-2.299264
31
-3.184539
73
2
0
LINE
8
fz
62
6
48
1.0
10
0.46875
20
-2.299264
30
2.145137
11
0.46875
21
-2.299264
31
2.145137
0
POINT
8
EXTERNAL_NODES
10
0.9375
20
-2.299264
30
-3.376202
0
TEXT
8
ID-NODES
10
0.9375
20
-2.299264
30
-3.376202
40
0.05
1
126
72
1
11
0.9375
21
-2.299264
31
-3.376202
73
2
0
LINE
8
fz
62
6
48
1.0
10
0.9375
20
-2.299264
30
1.986838
11
0.9375
21
-2.299264
31
1.986838
0
POINT
8
EXTERNAL_NODES
10
1.40625
20
-2.299264
30
-3.759804
0
TEXT
8
ID-NODES
10
1.40625
20
-2.299264
30
-3.759804
40
0.05
1
127
72
1
11
1.40625
21
-2.299264
31
-3.759804
73
2
0
LINE
8
fz
62
6
48
1.0
10
1.40625
20
-2.299264
30
1.69148
11
1.40625
21
-2.299264
31
1.69148
0
POINT
8
EXTERNAL_NODES
10
1.640625
20
-2.299264
30
-4.09227
0
TEXT
8
ID-NODES
10
1.640625
20
-2.299264
30
-4.09227
40
0.05
1
128
72
1
11
1.640625
21
-2.299264
31
-4.09227
73
2
0
LINE
8
fz
62
6
48
1.0
10
1.640625
20
-2.299264
30
1.469466
11
1.640625
21
-2.299264
31
1.469466
0
POINT
8
EXTERNAL_NODES
10
-1.640625
20
2.299264
30
-4.09227
0
TEXT
8
ID-NODES
10
-1.640625
20
2.299264
30
-4.09227
40
0.05
1
129
72
1
11
-1.640625
21
2.299264
31
-4.09227
73
2
0
LINE
8
fz
62
6
48
1.0
10
-1.640625
20
2.299264
30
1.469466
11
-1.640625
21
2.299264
31
1.469466
0
POINT
8
EXTERNAL_NODES
10
-1.40625
20
2.299264
30
-3.759804
0
TEXT
8
ID-NODES
10
-1.40625
20
2.299264
30
-3.759804
40
0.05
1
130
72
1
11
-1.40625
21
2.299264
31
-3.759804
73
2
0
LINE
8
fz
62
6
48
1.0
10
-1.40625
20
2.299264
30
1.69148
11
-1.40625
21
2.299264
31
1.69148
0
POINT
8
EXTERNAL_NODES
10
-0.9375
20
2.299264
30
-3.376202
0
TEXT
8
ID-NODES
10
-0.9375
20
2.299264
30
-3.376202
40
0.05
1
131
72
1
11
-0.9375
21
2.299264
31
-3.376202
73
2
0
LINE
8
fz
62
6
48
1.0
10
-0.9375
20
2.299264
30
1.986838
11
-0.9375
21
2.299264
31
1.986838
0
POINT
8
EXTERNAL_NODES
10
-0.46875
20
2.299264
30
-3.184539
0
TEXT
8
ID-NODES
10
-0.46875
20
2.299264
30
-3.184539
40
0.05
1
132
72
1
11
-0.46875
21
2.299264
31
-3.184539
73
2
0
LINE
8
fz
62
6
48
1.0
10
-0.46875
20
2.299264
30
2.145137
11
-0.46875
21
2.299264
31
2.145137
0
POINT
8
EXTERNAL_NODES
10
0.0
20
2.299264
30
-3.125
0
TEXT
8
ID-NODES
10
0.0
20
2.299264
30
-3.125
40
0.05
1
133
72
1
11
0.0
21
2.299264
31
-3.125
73
2
0
LINE
8
fz
62
6
48
1.0
10
0.0
20
2.299264
30
2.195425
11
0.0
21
2.299264
31
2.195425
0
POINT
8
EXTERNAL_NODES
10
0.46875
20
2.299264
30
-3.184539
0
TEXT
8
ID-NODES
10
0.46875
20
2.299264
30
-3.184539
40
0.05
1
134
72
1
11
0.46875
21
2.299264
31
-3.184539
73
2
0
LINE
8
fz
62
6
48
1.0
10
0.46875
20
2.299264
30
2.145137
11
0.46875
21
2.299264
31
2.145137
0
POINT
8
EXTERNAL_NODES
10
0.9375
20
2.299264
30
-3.376202
0
TEXT
8
ID-NODES
10
0.9375
20
2.299264
30
-3.376202
40
0.05
1
135
72
1
11
0.9375
21
2.299264
31
-3.376202
73
2
0
LINE
8
fz
62
6
48
1.0
10
0.9375
20
2.299264
30
1.986838
11
0.9375
21
2.299264
31
1.986838
0
POINT
8
EXTERNAL_NODES
10
1.40625
20
2.299264
30
-3.759804
0
TEXT
8
ID-NODES
10
1.40625
20
2.299264
30
-3.759804
40
0.05
1
136
72
1
11
1.40625
21
2.299264
31
-3.759804
73
2
0
LINE
8
fz
62
6
48
1.0
10
1.40625
20
2.299264
30
1.69148
11
1.40625
21
2.299264
31
1.69148
0
POINT
8
EXTERNAL_NODES
10
1.640625
20
2.299264
30
-4.09227
0
TEXT
8
ID-NODES
10
1.640625
20
2.299264
30
-4.09227
40
0.05
1
137
72
1
11
1.640625
21
2.299264
31
-4.09227
73
2
0
LINE
8
fz
62
6
48
1.0
10
1.640625
20
2.299264
30
1.469466
11
1.640625
21
2.299264
31
1.469466
0
POINT
8
EXTERNAL_NODES
10
-2.549264
20
-1.640625
30
0.90773
0
TEXT
8
ID-NODES
10
-2.549264
20
-1.640625
30
0.90773
40
0.05
1
138
72
1
11
-2.549264
21
-1.640625
31
0.90773
73
2
0
LINE
8
fz
62
6
48
1.0
10
-2.549264
20
-1.640625
30
1.582708
11
-2.549264
21
-1.640625
31
1.582708
0
POINT
8
EXTERNAL_NODES
10
-2.549264
20
-1.40625
30
1.240196
0
TEXT
8
ID-NODES
10
-2.549264
20
-1.40625
30
1.240196
40
0.05
1
139
72
1
11
-2.549264
21
-1.40625
31
1.240196
73
2
0
LINE
8
fz
62
6
48
1.0
10
-2.549264
20
-1.40625
30
1.794178
11
-2.549264
21
-1.40625
31
1.794178
0
POINT
8
EXTERNAL_NODES
10
-2.549264
20
-0.9375
30
1.623798
0
TEXT
8
ID-NODES
10
-2.549264
20
-0.9375
30
1.623798
40
0.05
1
140
72
1
11
-2.549264
21
-0.9375
31
1.623798
73
2
0
LINE
8
fz
62
6
48
1.0
10
-2.549264
20
-0.9375
30
2.07791
11
-2.549264
21
-0.9375
31
2.07791
0
POINT
8
EXTERNAL_NODES
10
-2.549264
20
-0.46875
30
1.815461
0
TEXT
8
ID-NODES
10
-2.549264
20
-0.46875
30
1.815461
40
0.05
1
141
72
1
11
-2.549264
21
-0.46875
31
1.815461
73
2
0
LINE
8
fz
62
6
48
1.0
10
-2.549264
20
-0.46875
30
2.230894
11
-2.549264
21
-0.46875
31
2.230894
0
POINT
8
EXTERNAL_NODES
10
-2.549264
20
0.0
30
1.875
0
TEXT
8
ID-NODES
10
-2.549264
20
0.0
30
1.875
40
0.05
1
142
72
1
11
-2.549264
21
0.0
31
1.875
73
2
0
LINE
8
fz
62
6
48
1.0
10
-2.549264
20
0.0
30
2.279609
11
-2.549264
21
0.0
31
2.279609
0
POINT
8
EXTERNAL_NODES
10
-2.549264
20
0.46875
30
1.815461
0
TEXT
8
ID-NODES
10
-2.549264
20
0.46875
30
1.815461
40
0.05
1
143
72
1
11
-2.549264
21
0.46875
31
1.815461
73
2
0
LINE
8
fz
62
6
48
1.0
10
-2.549264
20
0.46875
30
2.230894
11
-2.549264
21
0.46875
31
2.230894
0
POINT
8
EXTERNAL_NODES
10
-2.549264
20
0.9375
30
1.623798
0
TEXT
8
ID-NODES
10
-2.549264
20
0.9375
30
1.623798
40
0.05
1
144
72
1
11
-2.549264
21
0.9375
31
1.623798
73
2
0
LINE
8
fz
62
6
48
1.0
10
-2.549264
20
0.9375
30
2.07791
11
-2.549264
21
0.9375
31
2.07791
0
POINT
8
EXTERNAL_NODES
10
-2.549264
20
1.40625
30
1.240196
0
TEXT
8
ID-NODES
10
-2.549264
20
1.40625
30
1.240196
40
0.05
1
145
72
1
11
-2.549264
21
1.40625
31
1.240196
73
2
0
LINE
8
fz
62
6
48
1.0
10
-2.549264
20
1.40625
30
1.794178
11
-2.549264
21
1.40625
31
1.794178
0
POINT
8
EXTERNAL_NODES
10
-2.549264
20
1.640625
30
0.90773
0
TEXT
8
ID-NODES
10
-2.549264
20
1.640625
30
0.90773
40
0.05
1
146
72
1
11
-2.549264
21
1.640625
31
0.90773
73
2
0
LINE
8
fz
62
6
48
1.0
10
-2.549264
20
1.640625
30
1.582708
11
-2.549264
21
1.640625
31
1.582708
0
POINT
8
EXTERNAL_NODES
10
2.549264
20
-1.640625
30
0.90773
0
TEXT
8
ID-NODES
10
2.549264
20
-1.640625
30
0.90773
40
0.05
1
147
72
1
11
2.549264
21
-1.640625
31
0.90773
73
2
0
LINE
8
fz
62
6
48
1.0
10
2.549264
20
-1.640625
30
1.582708
11
2.549264
21
-1.640625
31
1.582708
0
POINT
8
EXTERNAL_NODES
10
2.549264
20
-1.40625
30
1.240196
0
TEXT
8
ID-NODES
10
2.549264
20
-1.40625
30
1.240196
40
0.05
1
148
72
1
11
2.549264
21
-1.40625
31
1.240196
73
2
0
LINE
8
fz
62
6
48
1.0
10
2.549264
20
-1.40625
30
1.794178
11
2.549264
21
-1.40625
31
1.794178
0
POINT
8
EXTERNAL_NODES
10
2.549264
20
-0.9375
30
1.623798
0
TEXT
8
ID-NODES
10
2.549264
20
-0.9375
30
1.623798
40
0.05
1
149
72
1
11
2.549264
21
-0.9375
31
1.623798
73
2
0
LINE
8
fz
62
6
48
1.0
10
2.549264
20
-0.9375
30
2.07791
11
2.549264
21
-0.9375
31
2.07791
0
POINT
8
EXTERNAL_NODES
10
2.549264
20
-0.46875
30
1.815461
0
TEXT
8
ID-NODES
10
2.549264
20
-0.46875
30
1.815461
40
0.05
1
150
72
1
11
2.549264
21
-0.46875
31
1.815461
73
2
0
LINE
8
fz
62
6
48
1.0
10
2.549264
20
-0.46875
30
2.230894
11
2.549264
21
-0.46875
31
2.230894
0
POINT
8
EXTERNAL_NODES
10
2.549264
20
0.0
30
1.875
0
TEXT
8
ID-NODES
10
2.549264
20
0.0
30
1.875
40
0.05
1
151
72
1
11
2.549264
21
0.0
31
1.875
73
2
0
LINE
8
fz
62
6
48
1.0
10
2.549264
20
0.0
30
2.279609
11
2.549264
21
0.0
31
2.279609
0
POINT
8
EXTERNAL_NODES
10
2.549264
20
0.46875
30
1.815461
0
TEXT
8
ID-NODES
10
2.549264
20
0.46875
30
1.815461
40
0.05
1
152
72
1
11
2.549264
21
0.46875
31
1.815461
73
2
0
LINE
8
fz
62
6
48
1.0
10
2.549264
20
0.46875
30
2.230894
11
2.549264
21
0.46875
31
2.230894
0
POINT
8
EXTERNAL_NODES
10
2.549264
20
0.9375
30
1.623798
0
TEXT
8
ID-NODES
10
2.549264
20
0.9375
30
1.623798
40
0.05
1
153
72
1
11
2.549264
21
0.9375
31
1.623798
73
2
0
LINE
8
fz
62
6
48
1.0
10
2.549264
20
0.9375
30
2.07791
11
2.549264
21
0.9375
31
2.07791
0
POINT
8
EXTERNAL_NODES
10
2.549264
20
1.40625
30
1.240196
0
TEXT
8
ID-NODES
10
2.549264
20
1.40625
30
1.240196
40
0.05
1
154
72
1
11
2.549264
21
1.40625
31
1.240196
73
2
0
LINE
8
fz
62
6
48
1.0
10
2.549264
20
1.40625
30
1.794178
11
2.549264
21
1.40625
31
1.794178
0
POINT
8
EXTERNAL_NODES
10
2.549264
20
1.640625
30
0.90773
0
TEXT
8
ID-NODES
10
2.549264
20
1.640625
30
0.90773
40
0.05
1
155
72
1
11
2.549264
21
1.640625
31
0.90773
73
2
0
LINE
8
fz
62
6
48
1.0
10
2.549264
20
1.640625
30
1.582708
11
2.549264
21
1.640625
31
1.582708
0
POINT
8
EXTERNAL_NODES
10
-2.299264
20
-2.299264
30
-5.0
0
TEXT
8
ID-NODES
10
-2.299264
20
-2.299264
30
-5.0
40
0.05
1
156
72
1
11
-2.299264
21
-2.299264
31
-5.0
73
2
0
LINE
8
fz
62
6
48
1.0
10
-2.299264
20
-2.299264
30
0.989901
11
-2.299264
21
-2.299264
31
0.989901
0
POINT
8
EXTERNAL_NODES
10
2.299264
20
-2.299264
30
-5.0
0
TEXT
8
ID-NODES
10
2.299264
20
-2.299264
30
-5.0
40
0.05
1
157
72
1
11
2.299264
21
-2.299264
31
-5.0
73
2
0
LINE
8
fz
62
6
48
1.0
10
2.299264
20
-2.299264
30
0.989901
11
2.299264
21
-2.299264
31
0.989901
0
POINT
8
EXTERNAL_NODES
10
-2.299264
20
2.299264
30
-5.0
0
TEXT
8
ID-NODES
10
-2.299264
20
2.299264
30
-5.0
40
0.05
1
158
72
1
11
-2.299264
21
2.299264
31
-5.0
73
2
0
LINE
8
fz
62
6
48
1.0
10
-2.299264
20
2.299264
30
0.989901
11
-2.299264
21
2.299264
31
0.989901
0
POINT
8
EXTERNAL_NODES
10
2.299264
20
2.299264
30
-5.0
0
TEXT
8
ID-NODES
10
2.299264
20
2.299264
30
-5.0
40
0.05
1
159
72
1
11
2.299264
21
2.299264
31
-5.0
73
2
0
LINE
8
fz
62
6
48
1.0
10
2.299264
20
2.299264
30
0.989901
11
2.299264
21
2.299264
31
0.989901
0
POINT
8
EXTERNAL_NODES
10
-2.549264
20
-2.299264
30
-5.0
0
TEXT
8
ID-NODES
10
-2.549264
20
-2.299264
30
-5.0
40
0.05
1
160
72
1
11
-2.549264
21
-2.299264
31
-5.0
73
2
0
LINE
8
fz
62
6
48
1.0
10
-2.549264
20
-2.299264
30
0.989901
11
-2.549264
21
-2.299264
31
0.989901
0
POINT
8
EXTERNAL_NODES
10
2.549264
20
-2.299264
30
-5.0
0
TEXT
8
ID-NODES
10
2.549264
20
-2.299264
30
-5.0
40
0.05
1
161
72
1
11
2.549264
21
-2.299264
31
-5.0
73
2
0
LINE
8
fz
62
6
48
1.0
10
2.549264
20
-2.299264
30
0.989901
11
2.549264
21
-2.299264
31
0.989901
0
POINT
8
EXTERNAL_NODES
10
-2.549264
20
2.299264
30
-5.0
0
TEXT
8
ID-NODES
10
-2.549264
20
2.299264
30
-5.0
40
0.05
1
162
72
1
11
-2.549264
21
2.299264
31
-5.0
73
2
0
LINE
8
fz
62
6
48
1.0
10
-2.549264
20
2.299264
30
0.989901
11
-2.549264
21
2.299264
31
0.989901
0
POINT
8
EXTERNAL_NODES
10
2.549264
20
2.299264
30
-5.0
0
TEXT
8
ID-NODES
10
2.549264
20
2.299264
30
-5.0
40
0.05
1
163
72
1
11
2.549264
21
2.299264
31
-5.0
73
2
0
LINE
8
fz
62
6
48
1.0
10
2.549264
20
2.299264
30
0.989901
11
2.549264
21
2.299264
31
0.989901
0
ENDSEC
0
EOF
