999
DXF created from myself (Fortunato Siano)
0
SECTION
2
ENTITIES
0
POINT
8
ColmoNodes
10
1.62366760544155e-16
20
0.0
30
2.6516504294495533
0
POINT
8
DiagonaliNodes
10
0.3657943537802406
20
-0.3657943537802406
30
2.6006997099790263
0
LINE
8
DiagonaliBranches
10
1.62366760544155e-16
20
0.0
30
2.6516504294495533
11
0.3657943537802406
21
-0.3657943537802406
31
2.6006997099790263
0
POINT
8
DiagonaliNodes
10
0.7175314356845435
20
-0.7175314356845435
30
2.449805559143206
0
LINE
8
DiagonaliBranches
10
0.3657943537802406
20
-0.3657943537802406
30
2.6006997099790263
11
0.7175314356845435
21
-0.7175314356845435
31
2.449805559143206
0
POINT
8
DiagonaliNodes
10
1.0416941869117542
20
-1.0416941869117542
30
2.2047667545362977
0
LINE
8
DiagonaliBranches
10
0.7175314356845435
20
-0.7175314356845435
30
2.449805559143206
11
1.0416941869117542
21
-1.0416941869117542
31
2.2047667545362977
0
POINT
8
DiagonaliNodes
10
1.325825214724777
20
-1.325825214724777
30
1.8750000000000002
0
LINE
8
DiagonaliBranches
10
1.0416941869117542
20
-1.0416941869117542
30
2.2047667545362977
11
1.325825214724777
21
-1.325825214724777
31
1.8750000000000002
0
POINT
8
DiagonaliNodes
10
1.4823176532039277
20
-1.4823176532039277
30
1.6237976320958227
0
LINE
8
DiagonaliBranches
10
1.325825214724777
20
-1.325825214724777
30
1.8750000000000002
11
1.4823176532039277
21
-1.4823176532039277
31
1.6237976320958227
0
POINT
8
DiagonaliNodes
10
1.7539019000502851
20
-1.7539019000502851
30
0.9375000000000001
0
LINE
8
DiagonaliBranches
10
1.4823176532039277
20
-1.4823176532039277
30
1.6237976320958227
11
1.7539019000502851
21
-1.7539019000502851
31
0.9375000000000001
0
POINT
8
DiagonaliNodes
10
1.8750000000000002
20
-1.8750000000000002
30
2.7939677238464355e-08
0
LINE
8
DiagonaliBranches
10
1.7539019000502851
20
-1.7539019000502851
30
0.9375000000000001
11
1.8750000000000002
21
-1.8750000000000002
31
2.7939677238464355e-08
0
POINT
8
NodiInterni
10
0.3910506131034393
20
-0.33865976511305834
30
2.6006997099790263
0
LINE
8
MeridianiBranches
10
1.62366760544155e-16
20
0.0
30
2.6516504294495533
11
0.3910506131034393
21
-0.33865976511305834
31
2.6006997099790263
0
POINT
8
NodiInterni
10
0.7670733704490237
20
-0.6643050253754061
30
2.449805559143206
0
LINE
8
MeridianiBranches
10
0.3910506131034393
20
-0.33865976511305834
30
2.6006997099790263
11
0.7670733704490237
21
-0.6643050253754061
31
2.449805559143206
0
POINT
8
NodiInterni
10
1.1136179283479541
20
-0.9644214160591272
30
2.2047667545362977
0
LINE
8
MeridianiBranches
10
0.7670733704490237
20
-0.6643050253754061
30
2.449805559143206
11
1.1136179283479541
21
-0.9644214160591272
31
2.2047667545362977
0
POINT
8
NodiInterni
10
1.4173667737846023
20
-1.2274756325774576
30
1.8750000000000002
0
LINE
8
MeridianiBranches
10
1.1136179283479541
20
-0.9644214160591272
30
2.2047667545362977
11
1.4173667737846023
21
-1.2274756325774576
31
1.8750000000000002
0
POINT
8
NodiInterni
10
1.5846642276159684
20
-1.3723594775838748
30
1.6237976320958227
0
LINE
8
MeridianiBranches
10
1.4173667737846023
20
-1.2274756325774576
30
1.8750000000000002
11
1.5846642276159684
21
-1.3723594775838748
31
1.6237976320958227
0
POINT
8
NodiInterni
10
1.8749999999999998
20
-1.6237976320958225
30
0.9375000000000001
0
LINE
8
MeridianiBranches
10
1.5846642276159684
20
-1.3723594775838748
30
1.6237976320958227
11
1.8749999999999998
21
-1.6237976320958225
31
0.9375000000000001
0
POINT
8
NodiInterni
10
0.4626973252699934
20
-0.2313486626349967
30
2.6006997099790263
0
LINE
8
MeridianiBranches
10
1.62366760544155e-16
20
0.0
30
2.6516504294495533
11
0.4626973252699934
21
-0.2313486626349967
31
2.6006997099790263
0
POINT
8
NodiInterni
10
0.9076134518135104
20
-0.4538067259067552
30
2.449805559143206
0
LINE
8
MeridianiBranches
10
0.4626973252699934
20
-0.2313486626349967
30
2.6006997099790263
11
0.9076134518135104
21
-0.4538067259067552
31
2.449805559143206
0
POINT
8
NodiInterni
10
1.3176505023993217
20
-0.6588252511996608
30
2.2047667545362977
0
LINE
8
MeridianiBranches
10
0.9076134518135104
20
-0.4538067259067552
30
2.449805559143206
11
1.3176505023993217
21
-0.6588252511996608
31
2.2047667545362977
0
POINT
8
NodiInterni
10
1.6770509831248426
20
-0.8385254915624213
30
1.8750000000000002
0
LINE
8
MeridianiBranches
10
1.3176505023993217
20
-0.6588252511996608
30
2.2047667545362977
11
1.6770509831248426
21
-0.8385254915624213
31
1.8750000000000002
0
POINT
8
NodiInterni
10
1.8749999999999998
20
-0.9374999999999999
30
1.6237976320958227
0
LINE
8
MeridianiBranches
10
1.6770509831248426
20
-0.8385254915624213
30
1.8750000000000002
11
1.8749999999999998
21
-0.9374999999999999
31
1.6237976320958227
0
POINT
8
ColmoNodes
10
0.5173113361555183
20
0.0
30
2.6006997099790263
0
LINE
8
ColmoBranches
10
1.62366760544155e-16
20
0.0
30
2.6516504294495533
11
0.5173113361555183
21
0.0
31
2.6006997099790263
0
POINT
8
ColmoNodes
10
1.0147426877741195
20
0.0
30
2.449805559143206
0
LINE
8
ColmoBranches
10
0.5173113361555183
20
0.0
30
2.6006997099790263
11
1.0147426877741195
21
0.0
31
2.449805559143206
0
POINT
8
ColmoNodes
10
1.4731780469758167
20
0.0
30
2.2047667545362977
0
LINE
8
ColmoBranches
10
1.0147426877741195
20
0.0
30
2.449805559143206
11
1.4731780469758167
21
0.0
31
2.2047667545362977
0
POINT
8
ColmoNodes
10
1.8750000000000004
20
0.0
30
1.8750000000000002
0
LINE
8
ColmoBranches
10
1.4731780469758167
20
0.0
30
2.2047667545362977
11
1.8750000000000004
21
0.0
31
1.8750000000000002
0
POINT
8
NodiInterni
10
0.46269732526999346
20
0.23134866263499665
30
2.6006997099790263
0
LINE
8
MeridianiBranches
10
1.62366760544155e-16
20
0.0
30
2.6516504294495533
11
0.46269732526999346
21
0.23134866263499665
31
2.6006997099790263
0
POINT
8
NodiInterni
10
0.9076134518135105
20
0.453806725906755
30
2.449805559143206
0
LINE
8
MeridianiBranches
10
0.46269732526999346
20
0.23134866263499665
30
2.6006997099790263
11
0.9076134518135105
21
0.453806725906755
31
2.449805559143206
0
POINT
8
NodiInterni
10
1.317650502399322
20
0.6588252511996607
30
2.2047667545362977
0
LINE
8
MeridianiBranches
10
0.9076134518135105
20
0.453806725906755
30
2.449805559143206
11
1.317650502399322
21
0.6588252511996607
31
2.2047667545362977
0
POINT
8
NodiInterni
10
1.6770509831248428
20
0.8385254915624211
30
1.8750000000000002
0
LINE
8
MeridianiBranches
10
1.317650502399322
20
0.6588252511996607
30
2.2047667545362977
11
1.6770509831248428
21
0.8385254915624211
31
1.8750000000000002
0
POINT
8
NodiInterni
10
1.875
20
0.9374999999999997
30
1.6237976320958227
0
LINE
8
MeridianiBranches
10
1.6770509831248428
20
0.8385254915624211
30
1.8750000000000002
11
1.875
21
0.9374999999999997
31
1.6237976320958227
0
POINT
8
NodiInterni
10
0.39105061310343936
20
0.3386597651130583
30
2.6006997099790263
0
LINE
8
MeridianiBranches
10
1.62366760544155e-16
20
0.0
30
2.6516504294495533
11
0.39105061310343936
21
0.3386597651130583
31
2.6006997099790263
0
POINT
8
NodiInterni
10
0.7670733704490238
20
0.664305025375406
30
2.449805559143206
0
LINE
8
MeridianiBranches
10
0.39105061310343936
20
0.3386597651130583
30
2.6006997099790263
11
0.7670733704490238
21
0.664305025375406
31
2.449805559143206
0
POINT
8
NodiInterni
10
1.1136179283479544
20
0.9644214160591271
30
2.2047667545362977
0
LINE
8
MeridianiBranches
10
0.7670733704490238
20
0.664305025375406
30
2.449805559143206
11
1.1136179283479544
21
0.9644214160591271
31
2.2047667545362977
0
POINT
8
NodiInterni
10
1.4173667737846025
20
1.2274756325774574
30
1.8750000000000002
0
LINE
8
MeridianiBranches
10
1.1136179283479544
20
0.9644214160591271
30
2.2047667545362977
11
1.4173667737846025
21
1.2274756325774574
31
1.8750000000000002
0
POINT
8
NodiInterni
10
1.5846642276159686
20
1.3723594775838746
30
1.6237976320958227
0
LINE
8
MeridianiBranches
10
1.4173667737846025
20
1.2274756325774574
30
1.8750000000000002
11
1.5846642276159686
21
1.3723594775838746
31
1.6237976320958227
0
POINT
8
NodiInterni
10
1.875
20
1.6237976320958223
30
0.9375000000000001
0
LINE
8
MeridianiBranches
10
1.5846642276159686
20
1.3723594775838746
30
1.6237976320958227
11
1.875
21
1.6237976320958223
31
0.9375000000000001
0
POINT
8
DiagonaliNodes
10
0.3657943537802406
20
0.3657943537802406
30
2.6006997099790263
0
LINE
8
DiagonaliBranches
10
1.62366760544155e-16
20
0.0
30
2.6516504294495533
11
0.3657943537802406
21
0.3657943537802406
31
2.6006997099790263
0
POINT
8
DiagonaliNodes
10
0.7175314356845435
20
0.7175314356845435
30
2.449805559143206
0
LINE
8
DiagonaliBranches
10
0.3657943537802406
20
0.3657943537802406
30
2.6006997099790263
11
0.7175314356845435
21
0.7175314356845435
31
2.449805559143206
0
POINT
8
DiagonaliNodes
10
1.0416941869117542
20
1.0416941869117542
30
2.2047667545362977
0
LINE
8
DiagonaliBranches
10
0.7175314356845435
20
0.7175314356845435
30
2.449805559143206
11
1.0416941869117542
21
1.0416941869117542
31
2.2047667545362977
0
POINT
8
DiagonaliNodes
10
1.325825214724777
20
1.325825214724777
30
1.8750000000000002
0
LINE
8
DiagonaliBranches
10
1.0416941869117542
20
1.0416941869117542
30
2.2047667545362977
11
1.325825214724777
21
1.325825214724777
31
1.8750000000000002
0
POINT
8
DiagonaliNodes
10
1.4823176532039277
20
1.4823176532039277
30
1.6237976320958227
0
LINE
8
DiagonaliBranches
10
1.325825214724777
20
1.325825214724777
30
1.8750000000000002
11
1.4823176532039277
21
1.4823176532039277
31
1.6237976320958227
0
POINT
8
DiagonaliNodes
10
1.7539019000502851
20
1.7539019000502851
30
0.9375000000000001
0
LINE
8
DiagonaliBranches
10
1.4823176532039277
20
1.4823176532039277
30
1.6237976320958227
11
1.7539019000502851
21
1.7539019000502851
31
0.9375000000000001
0
POINT
8
DiagonaliNodes
10
1.8750000000000002
20
1.8750000000000002
30
2.7939677238464355e-08
0
LINE
8
DiagonaliBranches
10
1.7539019000502851
20
1.7539019000502851
30
0.9375000000000001
11
1.8750000000000002
21
1.8750000000000002
31
2.7939677238464355e-08
0
POINT
8
NodiInterni
10
0.33865976511305834
20
0.3910506131034393
30
2.6006997099790263
0
LINE
8
MeridianiBranches
10
1.62366760544155e-16
20
0.0
30
2.6516504294495533
11
0.33865976511305834
21
0.3910506131034393
31
2.6006997099790263
0
POINT
8
NodiInterni
10
0.6643050253754061
20
0.7670733704490237
30
2.449805559143206
0
LINE
8
MeridianiBranches
10
0.33865976511305834
20
0.3910506131034393
30
2.6006997099790263
11
0.6643050253754061
21
0.7670733704490237
31
2.449805559143206
0
POINT
8
NodiInterni
10
0.9644214160591272
20
1.1136179283479541
30
2.2047667545362977
0
LINE
8
MeridianiBranches
10
0.6643050253754061
20
0.7670733704490237
30
2.449805559143206
11
0.9644214160591272
21
1.1136179283479541
31
2.2047667545362977
0
POINT
8
NodiInterni
10
1.2274756325774576
20
1.4173667737846023
30
1.8750000000000002
0
LINE
8
MeridianiBranches
10
0.9644214160591272
20
1.1136179283479541
30
2.2047667545362977
11
1.2274756325774576
21
1.4173667737846023
31
1.8750000000000002
0
POINT
8
NodiInterni
10
1.3723594775838748
20
1.5846642276159684
30
1.6237976320958227
0
LINE
8
MeridianiBranches
10
1.2274756325774576
20
1.4173667737846023
30
1.8750000000000002
11
1.3723594775838748
21
1.5846642276159684
31
1.6237976320958227
0
POINT
8
NodiInterni
10
1.6237976320958225
20
1.8749999999999998
30
0.9375000000000001
0
LINE
8
MeridianiBranches
10
1.3723594775838748
20
1.5846642276159684
30
1.6237976320958227
11
1.6237976320958225
21
1.8749999999999998
31
0.9375000000000001
0
POINT
8
NodiInterni
10
0.2313486626349967
20
0.4626973252699934
30
2.6006997099790263
0
LINE
8
MeridianiBranches
10
1.62366760544155e-16
20
0.0
30
2.6516504294495533
11
0.2313486626349967
21
0.4626973252699934
31
2.6006997099790263
0
POINT
8
NodiInterni
10
0.4538067259067552
20
0.9076134518135104
30
2.449805559143206
0
LINE
8
MeridianiBranches
10
0.2313486626349967
20
0.4626973252699934
30
2.6006997099790263
11
0.4538067259067552
21
0.9076134518135104
31
2.449805559143206
0
POINT
8
NodiInterni
10
0.6588252511996608
20
1.3176505023993217
30
2.2047667545362977
0
LINE
8
MeridianiBranches
10
0.4538067259067552
20
0.9076134518135104
30
2.449805559143206
11
0.6588252511996608
21
1.3176505023993217
31
2.2047667545362977
0
POINT
8
NodiInterni
10
0.8385254915624213
20
1.6770509831248426
30
1.8750000000000002
0
LINE
8
MeridianiBranches
10
0.6588252511996608
20
1.3176505023993217
30
2.2047667545362977
11
0.8385254915624213
21
1.6770509831248426
31
1.8750000000000002
0
POINT
8
NodiInterni
10
0.9374999999999999
20
1.8749999999999998
30
1.6237976320958227
0
LINE
8
MeridianiBranches
10
0.8385254915624213
20
1.6770509831248426
30
1.8750000000000002
11
0.9374999999999999
21
1.8749999999999998
31
1.6237976320958227
0
POINT
8
ColmoNodes
10
-0.0
20
0.5173113361555183
30
2.6006997099790263
0
LINE
8
ColmoBranches
10
1.62366760544155e-16
20
0.0
30
2.6516504294495533
11
-0.0
21
0.5173113361555183
31
2.6006997099790263
0
POINT
8
ColmoNodes
10
-0.0
20
1.0147426877741195
30
2.449805559143206
0
LINE
8
ColmoBranches
10
-0.0
20
0.5173113361555183
30
2.6006997099790263
11
-0.0
21
1.0147426877741195
31
2.449805559143206
0
POINT
8
ColmoNodes
10
-0.0
20
1.4731780469758167
30
2.2047667545362977
0
LINE
8
ColmoBranches
10
-0.0
20
1.0147426877741195
30
2.449805559143206
11
-0.0
21
1.4731780469758167
31
2.2047667545362977
0
POINT
8
ColmoNodes
10
-0.0
20
1.8750000000000004
30
1.8750000000000002
0
LINE
8
ColmoBranches
10
-0.0
20
1.4731780469758167
30
2.2047667545362977
11
-0.0
21
1.8750000000000004
31
1.8750000000000002
0
POINT
8
NodiInterni
10
-0.23134866263499665
20
0.46269732526999346
30
2.6006997099790263
0
LINE
8
MeridianiBranches
10
1.62366760544155e-16
20
0.0
30
2.6516504294495533
11
-0.23134866263499665
21
0.46269732526999346
31
2.6006997099790263
0
POINT
8
NodiInterni
10
-0.453806725906755
20
0.9076134518135105
30
2.449805559143206
0
LINE
8
MeridianiBranches
10
-0.23134866263499665
20
0.46269732526999346
30
2.6006997099790263
11
-0.453806725906755
21
0.9076134518135105
31
2.449805559143206
0
POINT
8
NodiInterni
10
-0.6588252511996607
20
1.317650502399322
30
2.2047667545362977
0
LINE
8
MeridianiBranches
10
-0.453806725906755
20
0.9076134518135105
30
2.449805559143206
11
-0.6588252511996607
21
1.317650502399322
31
2.2047667545362977
0
POINT
8
NodiInterni
10
-0.8385254915624211
20
1.6770509831248428
30
1.8750000000000002
0
LINE
8
MeridianiBranches
10
-0.6588252511996607
20
1.317650502399322
30
2.2047667545362977
11
-0.8385254915624211
21
1.6770509831248428
31
1.8750000000000002
0
POINT
8
NodiInterni
10
-0.9374999999999997
20
1.875
30
1.6237976320958227
0
LINE
8
MeridianiBranches
10
-0.8385254915624211
20
1.6770509831248428
30
1.8750000000000002
11
-0.9374999999999997
21
1.875
31
1.6237976320958227
0
POINT
8
NodiInterni
10
-0.3386597651130583
20
0.39105061310343936
30
2.6006997099790263
0
LINE
8
MeridianiBranches
10
1.62366760544155e-16
20
0.0
30
2.6516504294495533
11
-0.3386597651130583
21
0.39105061310343936
31
2.6006997099790263
0
POINT
8
NodiInterni
10
-0.664305025375406
20
0.7670733704490238
30
2.449805559143206
0
LINE
8
MeridianiBranches
10
-0.3386597651130583
20
0.39105061310343936
30
2.6006997099790263
11
-0.664305025375406
21
0.7670733704490238
31
2.449805559143206
0
POINT
8
NodiInterni
10
-0.9644214160591271
20
1.1136179283479544
30
2.2047667545362977
0
LINE
8
MeridianiBranches
10
-0.664305025375406
20
0.7670733704490238
30
2.449805559143206
11
-0.9644214160591271
21
1.1136179283479544
31
2.2047667545362977
0
POINT
8
NodiInterni
10
-1.2274756325774574
20
1.4173667737846025
30
1.8750000000000002
0
LINE
8
MeridianiBranches
10
-0.9644214160591271
20
1.1136179283479544
30
2.2047667545362977
11
-1.2274756325774574
21
1.4173667737846025
31
1.8750000000000002
0
POINT
8
NodiInterni
10
-1.3723594775838746
20
1.5846642276159686
30
1.6237976320958227
0
LINE
8
MeridianiBranches
10
-1.2274756325774574
20
1.4173667737846025
30
1.8750000000000002
11
-1.3723594775838746
21
1.5846642276159686
31
1.6237976320958227
0
POINT
8
NodiInterni
10
-1.6237976320958223
20
1.875
30
0.9375000000000001
0
LINE
8
MeridianiBranches
10
-1.3723594775838746
20
1.5846642276159686
30
1.6237976320958227
11
-1.6237976320958223
21
1.875
31
0.9375000000000001
0
POINT
8
DiagonaliNodes
10
-0.3657943537802406
20
0.3657943537802406
30
2.6006997099790263
0
LINE
8
DiagonaliBranches
10
1.62366760544155e-16
20
0.0
30
2.6516504294495533
11
-0.3657943537802406
21
0.3657943537802406
31
2.6006997099790263
0
POINT
8
DiagonaliNodes
10
-0.7175314356845435
20
0.7175314356845435
30
2.449805559143206
0
LINE
8
DiagonaliBranches
10
-0.3657943537802406
20
0.3657943537802406
30
2.6006997099790263
11
-0.7175314356845435
21
0.7175314356845435
31
2.449805559143206
0
POINT
8
DiagonaliNodes
10
-1.0416941869117542
20
1.0416941869117542
30
2.2047667545362977
0
LINE
8
DiagonaliBranches
10
-0.7175314356845435
20
0.7175314356845435
30
2.449805559143206
11
-1.0416941869117542
21
1.0416941869117542
31
2.2047667545362977
0
POINT
8
DiagonaliNodes
10
-1.325825214724777
20
1.325825214724777
30
1.8750000000000002
0
LINE
8
DiagonaliBranches
10
-1.0416941869117542
20
1.0416941869117542
30
2.2047667545362977
11
-1.325825214724777
21
1.325825214724777
31
1.8750000000000002
0
POINT
8
DiagonaliNodes
10
-1.4823176532039277
20
1.4823176532039277
30
1.6237976320958227
0
LINE
8
DiagonaliBranches
10
-1.325825214724777
20
1.325825214724777
30
1.8750000000000002
11
-1.4823176532039277
21
1.4823176532039277
31
1.6237976320958227
0
POINT
8
DiagonaliNodes
10
-1.7539019000502851
20
1.7539019000502851
30
0.9375000000000001
0
LINE
8
DiagonaliBranches
10
-1.4823176532039277
20
1.4823176532039277
30
1.6237976320958227
11
-1.7539019000502851
21
1.7539019000502851
31
0.9375000000000001
0
POINT
8
DiagonaliNodes
10
-1.8750000000000002
20
1.8750000000000002
30
2.7939677238464355e-08
0
LINE
8
DiagonaliBranches
10
-1.7539019000502851
20
1.7539019000502851
30
0.9375000000000001
11
-1.8750000000000002
21
1.8750000000000002
31
2.7939677238464355e-08
0
POINT
8
NodiInterni
10
-0.3910506131034393
20
0.33865976511305834
30
2.6006997099790263
0
LINE
8
MeridianiBranches
10
1.62366760544155e-16
20
0.0
30
2.6516504294495533
11
-0.3910506131034393
21
0.33865976511305834
31
2.6006997099790263
0
POINT
8
NodiInterni
10
-0.7670733704490237
20
0.6643050253754061
30
2.449805559143206
0
LINE
8
MeridianiBranches
10
-0.3910506131034393
20
0.33865976511305834
30
2.6006997099790263
11
-0.7670733704490237
21
0.6643050253754061
31
2.449805559143206
0
POINT
8
NodiInterni
10
-1.1136179283479541
20
0.9644214160591272
30
2.2047667545362977
0
LINE
8
MeridianiBranches
10
-0.7670733704490237
20
0.6643050253754061
30
2.449805559143206
11
-1.1136179283479541
21
0.9644214160591272
31
2.2047667545362977
0
POINT
8
NodiInterni
10
-1.4173667737846023
20
1.2274756325774576
30
1.8750000000000002
0
LINE
8
MeridianiBranches
10
-1.1136179283479541
20
0.9644214160591272
30
2.2047667545362977
11
-1.4173667737846023
21
1.2274756325774576
31
1.8750000000000002
0
POINT
8
NodiInterni
10
-1.5846642276159684
20
1.3723594775838748
30
1.6237976320958227
0
LINE
8
MeridianiBranches
10
-1.4173667737846023
20
1.2274756325774576
30
1.8750000000000002
11
-1.5846642276159684
21
1.3723594775838748
31
1.6237976320958227
0
POINT
8
NodiInterni
10
-1.8749999999999998
20
1.6237976320958225
30
0.9375000000000001
0
LINE
8
MeridianiBranches
10
-1.5846642276159684
20
1.3723594775838748
30
1.6237976320958227
11
-1.8749999999999998
21
1.6237976320958225
31
0.9375000000000001
0
POINT
8
NodiInterni
10
-0.4626973252699934
20
0.2313486626349967
30
2.6006997099790263
0
LINE
8
MeridianiBranches
10
1.62366760544155e-16
20
0.0
30
2.6516504294495533
11
-0.4626973252699934
21
0.2313486626349967
31
2.6006997099790263
0
POINT
8
NodiInterni
10
-0.9076134518135104
20
0.4538067259067552
30
2.449805559143206
0
LINE
8
MeridianiBranches
10
-0.4626973252699934
20
0.2313486626349967
30
2.6006997099790263
11
-0.9076134518135104
21
0.4538067259067552
31
2.449805559143206
0
POINT
8
NodiInterni
10
-1.3176505023993217
20
0.6588252511996608
30
2.2047667545362977
0
LINE
8
MeridianiBranches
10
-0.9076134518135104
20
0.4538067259067552
30
2.449805559143206
11
-1.3176505023993217
21
0.6588252511996608
31
2.2047667545362977
0
POINT
8
NodiInterni
10
-1.6770509831248426
20
0.8385254915624213
30
1.8750000000000002
0
LINE
8
MeridianiBranches
10
-1.3176505023993217
20
0.6588252511996608
30
2.2047667545362977
11
-1.6770509831248426
21
0.8385254915624213
31
1.8750000000000002
0
POINT
8
NodiInterni
10
-1.8749999999999998
20
0.9374999999999999
30
1.6237976320958227
0
LINE
8
MeridianiBranches
10
-1.6770509831248426
20
0.8385254915624213
30
1.8750000000000002
11
-1.8749999999999998
21
0.9374999999999999
31
1.6237976320958227
0
POINT
8
ColmoNodes
10
-0.5173113361555183
20
-0.0
30
2.6006997099790263
0
LINE
8
ColmoBranches
10
1.62366760544155e-16
20
0.0
30
2.6516504294495533
11
-0.5173113361555183
21
-0.0
31
2.6006997099790263
0
POINT
8
ColmoNodes
10
-1.0147426877741195
20
-0.0
30
2.449805559143206
0
LINE
8
ColmoBranches
10
-0.5173113361555183
20
-0.0
30
2.6006997099790263
11
-1.0147426877741195
21
-0.0
31
2.449805559143206
0
POINT
8
ColmoNodes
10
-1.4731780469758167
20
-0.0
30
2.2047667545362977
0
LINE
8
ColmoBranches
10
-1.0147426877741195
20
-0.0
30
2.449805559143206
11
-1.4731780469758167
21
-0.0
31
2.2047667545362977
0
POINT
8
ColmoNodes
10
-1.8750000000000004
20
-0.0
30
1.8750000000000002
0
LINE
8
ColmoBranches
10
-1.4731780469758167
20
-0.0
30
2.2047667545362977
11
-1.8750000000000004
21
-0.0
31
1.8750000000000002
0
POINT
8
NodiInterni
10
-0.46269732526999346
20
-0.23134866263499665
30
2.6006997099790263
0
LINE
8
MeridianiBranches
10
1.62366760544155e-16
20
0.0
30
2.6516504294495533
11
-0.46269732526999346
21
-0.23134866263499665
31
2.6006997099790263
0
POINT
8
NodiInterni
10
-0.9076134518135105
20
-0.453806725906755
30
2.449805559143206
0
LINE
8
MeridianiBranches
10
-0.46269732526999346
20
-0.23134866263499665
30
2.6006997099790263
11
-0.9076134518135105
21
-0.453806725906755
31
2.449805559143206
0
POINT
8
NodiInterni
10
-1.317650502399322
20
-0.6588252511996607
30
2.2047667545362977
0
LINE
8
MeridianiBranches
10
-0.9076134518135105
20
-0.453806725906755
30
2.449805559143206
11
-1.317650502399322
21
-0.6588252511996607
31
2.2047667545362977
0
POINT
8
NodiInterni
10
-1.6770509831248428
20
-0.8385254915624211
30
1.8750000000000002
0
LINE
8
MeridianiBranches
10
-1.317650502399322
20
-0.6588252511996607
30
2.2047667545362977
11
-1.6770509831248428
21
-0.8385254915624211
31
1.8750000000000002
0
POINT
8
NodiInterni
10
-1.875
20
-0.9374999999999997
30
1.6237976320958227
0
LINE
8
MeridianiBranches
10
-1.6770509831248428
20
-0.8385254915624211
30
1.8750000000000002
11
-1.875
21
-0.9374999999999997
31
1.6237976320958227
0
POINT
8
NodiInterni
10
-0.39105061310343936
20
-0.3386597651130583
30
2.6006997099790263
0
LINE
8
MeridianiBranches
10
1.62366760544155e-16
20
0.0
30
2.6516504294495533
11
-0.39105061310343936
21
-0.3386597651130583
31
2.6006997099790263
0
POINT
8
NodiInterni
10
-0.7670733704490238
20
-0.664305025375406
30
2.449805559143206
0
LINE
8
MeridianiBranches
10
-0.39105061310343936
20
-0.3386597651130583
30
2.6006997099790263
11
-0.7670733704490238
21
-0.664305025375406
31
2.449805559143206
0
POINT
8
NodiInterni
10
-1.1136179283479544
20
-0.9644214160591271
30
2.2047667545362977
0
LINE
8
MeridianiBranches
10
-0.7670733704490238
20
-0.664305025375406
30
2.449805559143206
11
-1.1136179283479544
21
-0.9644214160591271
31
2.2047667545362977
0
POINT
8
NodiInterni
10
-1.4173667737846025
20
-1.2274756325774574
30
1.8750000000000002
0
LINE
8
MeridianiBranches
10
-1.1136179283479544
20
-0.9644214160591271
30
2.2047667545362977
11
-1.4173667737846025
21
-1.2274756325774574
31
1.8750000000000002
0
POINT
8
NodiInterni
10
-1.5846642276159686
20
-1.3723594775838746
30
1.6237976320958227
0
LINE
8
MeridianiBranches
10
-1.4173667737846025
20
-1.2274756325774574
30
1.8750000000000002
11
-1.5846642276159686
21
-1.3723594775838746
31
1.6237976320958227
0
POINT
8
NodiInterni
10
-1.875
20
-1.6237976320958223
30
0.9375000000000001
0
LINE
8
MeridianiBranches
10
-1.5846642276159686
20
-1.3723594775838746
30
1.6237976320958227
11
-1.875
21
-1.6237976320958223
31
0.9375000000000001
0
POINT
8
DiagonaliNodes
10
-0.3657943537802406
20
-0.3657943537802406
30
2.6006997099790263
0
LINE
8
DiagonaliBranches
10
1.62366760544155e-16
20
0.0
30
2.6516504294495533
11
-0.3657943537802406
21
-0.3657943537802406
31
2.6006997099790263
0
POINT
8
DiagonaliNodes
10
-0.7175314356845435
20
-0.7175314356845435
30
2.449805559143206
0
LINE
8
DiagonaliBranches
10
-0.3657943537802406
20
-0.3657943537802406
30
2.6006997099790263
11
-0.7175314356845435
21
-0.7175314356845435
31
2.449805559143206
0
POINT
8
DiagonaliNodes
10
-1.0416941869117542
20
-1.0416941869117542
30
2.2047667545362977
0
LINE
8
DiagonaliBranches
10
-0.7175314356845435
20
-0.7175314356845435
30
2.449805559143206
11
-1.0416941869117542
21
-1.0416941869117542
31
2.2047667545362977
0
POINT
8
DiagonaliNodes
10
-1.325825214724777
20
-1.325825214724777
30
1.8750000000000002
0
LINE
8
DiagonaliBranches
10
-1.0416941869117542
20
-1.0416941869117542
30
2.2047667545362977
11
-1.325825214724777
21
-1.325825214724777
31
1.8750000000000002
0
POINT
8
DiagonaliNodes
10
-1.4823176532039277
20
-1.4823176532039277
30
1.6237976320958227
0
LINE
8
DiagonaliBranches
10
-1.325825214724777
20
-1.325825214724777
30
1.8750000000000002
11
-1.4823176532039277
21
-1.4823176532039277
31
1.6237976320958227
0
POINT
8
DiagonaliNodes
10
-1.7539019000502851
20
-1.7539019000502851
30
0.9375000000000001
0
LINE
8
DiagonaliBranches
10
-1.4823176532039277
20
-1.4823176532039277
30
1.6237976320958227
11
-1.7539019000502851
21
-1.7539019000502851
31
0.9375000000000001
0
POINT
8
DiagonaliNodes
10
-1.8750000000000002
20
-1.8750000000000002
30
2.7939677238464355e-08
0
LINE
8
DiagonaliBranches
10
-1.7539019000502851
20
-1.7539019000502851
30
0.9375000000000001
11
-1.8750000000000002
21
-1.8750000000000002
31
2.7939677238464355e-08
0
POINT
8
NodiInterni
10
-0.33865976511305834
20
-0.3910506131034393
30
2.6006997099790263
0
LINE
8
MeridianiBranches
10
1.62366760544155e-16
20
0.0
30
2.6516504294495533
11
-0.33865976511305834
21
-0.3910506131034393
31
2.6006997099790263
0
POINT
8
NodiInterni
10
-0.6643050253754061
20
-0.7670733704490237
30
2.449805559143206
0
LINE
8
MeridianiBranches
10
-0.33865976511305834
20
-0.3910506131034393
30
2.6006997099790263
11
-0.6643050253754061
21
-0.7670733704490237
31
2.449805559143206
0
POINT
8
NodiInterni
10
-0.9644214160591272
20
-1.1136179283479541
30
2.2047667545362977
0
LINE
8
MeridianiBranches
10
-0.6643050253754061
20
-0.7670733704490237
30
2.449805559143206
11
-0.9644214160591272
21
-1.1136179283479541
31
2.2047667545362977
0
POINT
8
NodiInterni
10
-1.2274756325774576
20
-1.4173667737846023
30
1.8750000000000002
0
LINE
8
MeridianiBranches
10
-0.9644214160591272
20
-1.1136179283479541
30
2.2047667545362977
11
-1.2274756325774576
21
-1.4173667737846023
31
1.8750000000000002
0
POINT
8
NodiInterni
10
-1.3723594775838748
20
-1.5846642276159684
30
1.6237976320958227
0
LINE
8
MeridianiBranches
10
-1.2274756325774576
20
-1.4173667737846023
30
1.8750000000000002
11
-1.3723594775838748
21
-1.5846642276159684
31
1.6237976320958227
0
POINT
8
NodiInterni
10
-1.6237976320958225
20
-1.8749999999999998
30
0.9375000000000001
0
LINE
8
MeridianiBranches
10
-1.3723594775838748
20
-1.5846642276159684
30
1.6237976320958227
11
-1.6237976320958225
21
-1.8749999999999998
31
0.9375000000000001
0
POINT
8
NodiInterni
10
-0.2313486626349967
20
-0.4626973252699934
30
2.6006997099790263
0
LINE
8
MeridianiBranches
10
1.62366760544155e-16
20
0.0
30
2.6516504294495533
11
-0.2313486626349967
21
-0.4626973252699934
31
2.6006997099790263
0
POINT
8
NodiInterni
10
-0.4538067259067552
20
-0.9076134518135104
30
2.449805559143206
0
LINE
8
MeridianiBranches
10
-0.2313486626349967
20
-0.4626973252699934
30
2.6006997099790263
11
-0.4538067259067552
21
-0.9076134518135104
31
2.449805559143206
0
POINT
8
NodiInterni
10
-0.6588252511996608
20
-1.3176505023993217
30
2.2047667545362977
0
LINE
8
MeridianiBranches
10
-0.4538067259067552
20
-0.9076134518135104
30
2.449805559143206
11
-0.6588252511996608
21
-1.3176505023993217
31
2.2047667545362977
0
POINT
8
NodiInterni
10
-0.8385254915624213
20
-1.6770509831248426
30
1.8750000000000002
0
LINE
8
MeridianiBranches
10
-0.6588252511996608
20
-1.3176505023993217
30
2.2047667545362977
11
-0.8385254915624213
21
-1.6770509831248426
31
1.8750000000000002
0
POINT
8
NodiInterni
10
-0.9374999999999999
20
-1.8749999999999998
30
1.6237976320958227
0
LINE
8
MeridianiBranches
10
-0.8385254915624213
20
-1.6770509831248426
30
1.8750000000000002
11
-0.9374999999999999
21
-1.8749999999999998
31
1.6237976320958227
0
POINT
8
ColmoNodes
10
0.0
20
-0.5173113361555183
30
2.6006997099790263
0
LINE
8
ColmoBranches
10
1.62366760544155e-16
20
0.0
30
2.6516504294495533
11
0.0
21
-0.5173113361555183
31
2.6006997099790263
0
POINT
8
ColmoNodes
10
0.0
20
-1.0147426877741195
30
2.449805559143206
0
LINE
8
ColmoBranches
10
0.0
20
-0.5173113361555183
30
2.6006997099790263
11
0.0
21
-1.0147426877741195
31
2.449805559143206
0
POINT
8
ColmoNodes
10
0.0
20
-1.4731780469758167
30
2.2047667545362977
0
LINE
8
ColmoBranches
10
0.0
20
-1.0147426877741195
30
2.449805559143206
11
0.0
21
-1.4731780469758167
31
2.2047667545362977
0
POINT
8
ColmoNodes
10
0.0
20
-1.8750000000000004
30
1.8750000000000002
0
LINE
8
ColmoBranches
10
0.0
20
-1.4731780469758167
30
2.2047667545362977
11
0.0
21
-1.8750000000000004
31
1.8750000000000002
0
POINT
8
NodiInterni
10
0.23134866263499665
20
-0.46269732526999346
30
2.6006997099790263
0
LINE
8
MeridianiBranches
10
1.62366760544155e-16
20
0.0
30
2.6516504294495533
11
0.23134866263499665
21
-0.46269732526999346
31
2.6006997099790263
0
POINT
8
NodiInterni
10
0.453806725906755
20
-0.9076134518135105
30
2.449805559143206
0
LINE
8
MeridianiBranches
10
0.23134866263499665
20
-0.46269732526999346
30
2.6006997099790263
11
0.453806725906755
21
-0.9076134518135105
31
2.449805559143206
0
POINT
8
NodiInterni
10
0.6588252511996607
20
-1.317650502399322
30
2.2047667545362977
0
LINE
8
MeridianiBranches
10
0.453806725906755
20
-0.9076134518135105
30
2.449805559143206
11
0.6588252511996607
21
-1.317650502399322
31
2.2047667545362977
0
POINT
8
NodiInterni
10
0.8385254915624211
20
-1.6770509831248428
30
1.8750000000000002
0
LINE
8
MeridianiBranches
10
0.6588252511996607
20
-1.317650502399322
30
2.2047667545362977
11
0.8385254915624211
21
-1.6770509831248428
31
1.8750000000000002
0
POINT
8
NodiInterni
10
0.9374999999999997
20
-1.875
30
1.6237976320958227
0
LINE
8
MeridianiBranches
10
0.8385254915624211
20
-1.6770509831248428
30
1.8750000000000002
11
0.9374999999999997
21
-1.875
31
1.6237976320958227
0
POINT
8
NodiInterni
10
0.3386597651130583
20
-0.39105061310343936
30
2.6006997099790263
0
LINE
8
MeridianiBranches
10
1.62366760544155e-16
20
0.0
30
2.6516504294495533
11
0.3386597651130583
21
-0.39105061310343936
31
2.6006997099790263
0
POINT
8
NodiInterni
10
0.664305025375406
20
-0.7670733704490238
30
2.449805559143206
0
LINE
8
MeridianiBranches
10
0.3386597651130583
20
-0.39105061310343936
30
2.6006997099790263
11
0.664305025375406
21
-0.7670733704490238
31
2.449805559143206
0
POINT
8
NodiInterni
10
0.9644214160591271
20
-1.1136179283479544
30
2.2047667545362977
0
LINE
8
MeridianiBranches
10
0.664305025375406
20
-0.7670733704490238
30
2.449805559143206
11
0.9644214160591271
21
-1.1136179283479544
31
2.2047667545362977
0
POINT
8
NodiInterni
10
1.2274756325774574
20
-1.4173667737846025
30
1.8750000000000002
0
LINE
8
MeridianiBranches
10
0.9644214160591271
20
-1.1136179283479544
30
2.2047667545362977
11
1.2274756325774574
21
-1.4173667737846025
31
1.8750000000000002
0
POINT
8
NodiInterni
10
1.3723594775838746
20
-1.5846642276159686
30
1.6237976320958227
0
LINE
8
MeridianiBranches
10
1.2274756325774574
20
-1.4173667737846025
30
1.8750000000000002
11
1.3723594775838746
21
-1.5846642276159686
31
1.6237976320958227
0
POINT
8
NodiInterni
10
1.6237976320958223
20
-1.875
30
0.9375000000000001
0
LINE
8
MeridianiBranches
10
1.3723594775838746
20
-1.5846642276159686
30
1.6237976320958227
11
1.6237976320958223
21
-1.875
31
0.9375000000000001
0
LINE
8
ParalleliBranches
10
0.3657943537802406
20
-0.3657943537802406
30
2.6006997099790263
11
0.3910506131034393
21
-0.33865976511305834
31
2.6006997099790263
0
LINE
8
ParalleliBranches
10
0.7175314356845435
20
-0.7175314356845435
30
2.449805559143206
11
0.7670733704490237
21
-0.6643050253754061
31
2.449805559143206
0
LINE
8
ParalleliBranches
10
1.0416941869117542
20
-1.0416941869117542
30
2.2047667545362977
11
1.1136179283479541
21
-0.9644214160591272
31
2.2047667545362977
0
LINE
8
ParalleliBranches
10
1.325825214724777
20
-1.325825214724777
30
1.8750000000000002
11
1.4173667737846023
21
-1.2274756325774576
31
1.8750000000000002
0
LINE
8
ParalleliBranches
10
1.4823176532039277
20
-1.4823176532039277
30
1.6237976320958227
11
1.5846642276159684
21
-1.3723594775838748
31
1.6237976320958227
0
LINE
8
ParalleliBranches
10
1.7539019000502851
20
-1.7539019000502851
30
0.9375000000000001
11
1.8749999999999998
21
-1.6237976320958225
31
0.9375000000000001
0
LINE
8
ParalleliBranches
10
0.3910506131034393
20
-0.33865976511305834
30
2.6006997099790263
11
0.4626973252699934
21
-0.2313486626349967
31
2.6006997099790263
0
LINE
8
ParalleliBranches
10
0.7670733704490237
20
-0.6643050253754061
30
2.449805559143206
11
0.9076134518135104
21
-0.4538067259067552
31
2.449805559143206
0
LINE
8
ParalleliBranches
10
1.1136179283479541
20
-0.9644214160591272
30
2.2047667545362977
11
1.3176505023993217
21
-0.6588252511996608
31
2.2047667545362977
0
LINE
8
ParalleliBranches
10
1.4173667737846023
20
-1.2274756325774576
30
1.8750000000000002
11
1.6770509831248426
21
-0.8385254915624213
31
1.8750000000000002
0
LINE
8
ParalleliBranches
10
1.5846642276159684
20
-1.3723594775838748
30
1.6237976320958227
11
1.8749999999999998
21
-0.9374999999999999
31
1.6237976320958227
0
LINE
8
ParalleliBranches
10
0.4626973252699934
20
-0.2313486626349967
30
2.6006997099790263
11
0.5173113361555183
21
0.0
31
2.6006997099790263
0
LINE
8
ParalleliBranches
10
0.9076134518135104
20
-0.4538067259067552
30
2.449805559143206
11
1.0147426877741195
21
0.0
31
2.449805559143206
0
LINE
8
ParalleliBranches
10
1.3176505023993217
20
-0.6588252511996608
30
2.2047667545362977
11
1.4731780469758167
21
0.0
31
2.2047667545362977
0
LINE
8
ParalleliBranches
10
1.6770509831248426
20
-0.8385254915624213
30
1.8750000000000002
11
1.8750000000000004
21
0.0
31
1.8750000000000002
0
LINE
8
ParalleliBranches
10
0.5173113361555183
20
0.0
30
2.6006997099790263
11
0.46269732526999346
21
0.23134866263499665
31
2.6006997099790263
0
LINE
8
ParalleliBranches
10
1.0147426877741195
20
0.0
30
2.449805559143206
11
0.9076134518135105
21
0.453806725906755
31
2.449805559143206
0
LINE
8
ParalleliBranches
10
1.4731780469758167
20
0.0
30
2.2047667545362977
11
1.317650502399322
21
0.6588252511996607
31
2.2047667545362977
0
LINE
8
ParalleliBranches
10
1.8750000000000004
20
0.0
30
1.8750000000000002
11
1.6770509831248428
21
0.8385254915624211
31
1.8750000000000002
0
LINE
8
ParalleliBranches
10
0.46269732526999346
20
0.23134866263499665
30
2.6006997099790263
11
0.39105061310343936
21
0.3386597651130583
31
2.6006997099790263
0
LINE
8
ParalleliBranches
10
0.9076134518135105
20
0.453806725906755
30
2.449805559143206
11
0.7670733704490238
21
0.664305025375406
31
2.449805559143206
0
LINE
8
ParalleliBranches
10
1.317650502399322
20
0.6588252511996607
30
2.2047667545362977
11
1.1136179283479544
21
0.9644214160591271
31
2.2047667545362977
0
LINE
8
ParalleliBranches
10
1.6770509831248428
20
0.8385254915624211
30
1.8750000000000002
11
1.4173667737846025
21
1.2274756325774574
31
1.8750000000000002
0
LINE
8
ParalleliBranches
10
1.875
20
0.9374999999999997
30
1.6237976320958227
11
1.5846642276159686
21
1.3723594775838746
31
1.6237976320958227
0
LINE
8
ParalleliBranches
10
0.39105061310343936
20
0.3386597651130583
30
2.6006997099790263
11
0.3657943537802406
21
0.3657943537802406
31
2.6006997099790263
0
LINE
8
ParalleliBranches
10
0.7670733704490238
20
0.664305025375406
30
2.449805559143206
11
0.7175314356845435
21
0.7175314356845435
31
2.449805559143206
0
LINE
8
ParalleliBranches
10
1.1136179283479544
20
0.9644214160591271
30
2.2047667545362977
11
1.0416941869117542
21
1.0416941869117542
31
2.2047667545362977
0
LINE
8
ParalleliBranches
10
1.4173667737846025
20
1.2274756325774574
30
1.8750000000000002
11
1.325825214724777
21
1.325825214724777
31
1.8750000000000002
0
LINE
8
ParalleliBranches
10
1.5846642276159686
20
1.3723594775838746
30
1.6237976320958227
11
1.4823176532039277
21
1.4823176532039277
31
1.6237976320958227
0
LINE
8
ParalleliBranches
10
1.875
20
1.6237976320958223
30
0.9375000000000001
11
1.7539019000502851
21
1.7539019000502851
31
0.9375000000000001
0
LINE
8
ParalleliBranches
10
0.3657943537802406
20
0.3657943537802406
30
2.6006997099790263
11
0.33865976511305834
21
0.3910506131034393
31
2.6006997099790263
0
LINE
8
ParalleliBranches
10
0.7175314356845435
20
0.7175314356845435
30
2.449805559143206
11
0.6643050253754061
21
0.7670733704490237
31
2.449805559143206
0
LINE
8
ParalleliBranches
10
1.0416941869117542
20
1.0416941869117542
30
2.2047667545362977
11
0.9644214160591272
21
1.1136179283479541
31
2.2047667545362977
0
LINE
8
ParalleliBranches
10
1.325825214724777
20
1.325825214724777
30
1.8750000000000002
11
1.2274756325774576
21
1.4173667737846023
31
1.8750000000000002
0
LINE
8
ParalleliBranches
10
1.4823176532039277
20
1.4823176532039277
30
1.6237976320958227
11
1.3723594775838748
21
1.5846642276159684
31
1.6237976320958227
0
LINE
8
ParalleliBranches
10
1.7539019000502851
20
1.7539019000502851
30
0.9375000000000001
11
1.6237976320958225
21
1.8749999999999998
31
0.9375000000000001
0
LINE
8
ParalleliBranches
10
0.33865976511305834
20
0.3910506131034393
30
2.6006997099790263
11
0.2313486626349967
21
0.4626973252699934
31
2.6006997099790263
0
LINE
8
ParalleliBranches
10
0.6643050253754061
20
0.7670733704490237
30
2.449805559143206
11
0.4538067259067552
21
0.9076134518135104
31
2.449805559143206
0
LINE
8
ParalleliBranches
10
0.9644214160591272
20
1.1136179283479541
30
2.2047667545362977
11
0.6588252511996608
21
1.3176505023993217
31
2.2047667545362977
0
LINE
8
ParalleliBranches
10
1.2274756325774576
20
1.4173667737846023
30
1.8750000000000002
11
0.8385254915624213
21
1.6770509831248426
31
1.8750000000000002
0
LINE
8
ParalleliBranches
10
1.3723594775838748
20
1.5846642276159684
30
1.6237976320958227
11
0.9374999999999999
21
1.8749999999999998
31
1.6237976320958227
0
LINE
8
ParalleliBranches
10
0.2313486626349967
20
0.4626973252699934
30
2.6006997099790263
11
-0.0
21
0.5173113361555183
31
2.6006997099790263
0
LINE
8
ParalleliBranches
10
0.4538067259067552
20
0.9076134518135104
30
2.449805559143206
11
-0.0
21
1.0147426877741195
31
2.449805559143206
0
LINE
8
ParalleliBranches
10
0.6588252511996608
20
1.3176505023993217
30
2.2047667545362977
11
-0.0
21
1.4731780469758167
31
2.2047667545362977
0
LINE
8
ParalleliBranches
10
0.8385254915624213
20
1.6770509831248426
30
1.8750000000000002
11
-0.0
21
1.8750000000000004
31
1.8750000000000002
0
LINE
8
ParalleliBranches
10
-0.0
20
0.5173113361555183
30
2.6006997099790263
11
-0.23134866263499665
21
0.46269732526999346
31
2.6006997099790263
0
LINE
8
ParalleliBranches
10
-0.0
20
1.0147426877741195
30
2.449805559143206
11
-0.453806725906755
21
0.9076134518135105
31
2.449805559143206
0
LINE
8
ParalleliBranches
10
-0.0
20
1.4731780469758167
30
2.2047667545362977
11
-0.6588252511996607
21
1.317650502399322
31
2.2047667545362977
0
LINE
8
ParalleliBranches
10
-0.0
20
1.8750000000000004
30
1.8750000000000002
11
-0.8385254915624211
21
1.6770509831248428
31
1.8750000000000002
0
LINE
8
ParalleliBranches
10
-0.23134866263499665
20
0.46269732526999346
30
2.6006997099790263
11
-0.3386597651130583
21
0.39105061310343936
31
2.6006997099790263
0
LINE
8
ParalleliBranches
10
-0.453806725906755
20
0.9076134518135105
30
2.449805559143206
11
-0.664305025375406
21
0.7670733704490238
31
2.449805559143206
0
LINE
8
ParalleliBranches
10
-0.6588252511996607
20
1.317650502399322
30
2.2047667545362977
11
-0.9644214160591271
21
1.1136179283479544
31
2.2047667545362977
0
LINE
8
ParalleliBranches
10
-0.8385254915624211
20
1.6770509831248428
30
1.8750000000000002
11
-1.2274756325774574
21
1.4173667737846025
31
1.8750000000000002
0
LINE
8
ParalleliBranches
10
-0.9374999999999997
20
1.875
30
1.6237976320958227
11
-1.3723594775838746
21
1.5846642276159686
31
1.6237976320958227
0
LINE
8
ParalleliBranches
10
-0.3386597651130583
20
0.39105061310343936
30
2.6006997099790263
11
-0.3657943537802406
21
0.3657943537802406
31
2.6006997099790263
0
LINE
8
ParalleliBranches
10
-0.664305025375406
20
0.7670733704490238
30
2.449805559143206
11
-0.7175314356845435
21
0.7175314356845435
31
2.449805559143206
0
LINE
8
ParalleliBranches
10
-0.9644214160591271
20
1.1136179283479544
30
2.2047667545362977
11
-1.0416941869117542
21
1.0416941869117542
31
2.2047667545362977
0
LINE
8
ParalleliBranches
10
-1.2274756325774574
20
1.4173667737846025
30
1.8750000000000002
11
-1.325825214724777
21
1.325825214724777
31
1.8750000000000002
0
LINE
8
ParalleliBranches
10
-1.3723594775838746
20
1.5846642276159686
30
1.6237976320958227
11
-1.4823176532039277
21
1.4823176532039277
31
1.6237976320958227
0
LINE
8
ParalleliBranches
10
-1.6237976320958223
20
1.875
30
0.9375000000000001
11
-1.7539019000502851
21
1.7539019000502851
31
0.9375000000000001
0
LINE
8
ParalleliBranches
10
-0.3657943537802406
20
0.3657943537802406
30
2.6006997099790263
11
-0.3910506131034393
21
0.33865976511305834
31
2.6006997099790263
0
LINE
8
ParalleliBranches
10
-0.7175314356845435
20
0.7175314356845435
30
2.449805559143206
11
-0.7670733704490237
21
0.6643050253754061
31
2.449805559143206
0
LINE
8
ParalleliBranches
10
-1.0416941869117542
20
1.0416941869117542
30
2.2047667545362977
11
-1.1136179283479541
21
0.9644214160591272
31
2.2047667545362977
0
LINE
8
ParalleliBranches
10
-1.325825214724777
20
1.325825214724777
30
1.8750000000000002
11
-1.4173667737846023
21
1.2274756325774576
31
1.8750000000000002
0
LINE
8
ParalleliBranches
10
-1.4823176532039277
20
1.4823176532039277
30
1.6237976320958227
11
-1.5846642276159684
21
1.3723594775838748
31
1.6237976320958227
0
LINE
8
ParalleliBranches
10
-1.7539019000502851
20
1.7539019000502851
30
0.9375000000000001
11
-1.8749999999999998
21
1.6237976320958225
31
0.9375000000000001
0
LINE
8
ParalleliBranches
10
-0.3910506131034393
20
0.33865976511305834
30
2.6006997099790263
11
-0.4626973252699934
21
0.2313486626349967
31
2.6006997099790263
0
LINE
8
ParalleliBranches
10
-0.7670733704490237
20
0.6643050253754061
30
2.449805559143206
11
-0.9076134518135104
21
0.4538067259067552
31
2.449805559143206
0
LINE
8
ParalleliBranches
10
-1.1136179283479541
20
0.9644214160591272
30
2.2047667545362977
11
-1.3176505023993217
21
0.6588252511996608
31
2.2047667545362977
0
LINE
8
ParalleliBranches
10
-1.4173667737846023
20
1.2274756325774576
30
1.8750000000000002
11
-1.6770509831248426
21
0.8385254915624213
31
1.8750000000000002
0
LINE
8
ParalleliBranches
10
-1.5846642276159684
20
1.3723594775838748
30
1.6237976320958227
11
-1.8749999999999998
21
0.9374999999999999
31
1.6237976320958227
0
LINE
8
ParalleliBranches
10
-0.4626973252699934
20
0.2313486626349967
30
2.6006997099790263
11
-0.5173113361555183
21
-0.0
31
2.6006997099790263
0
LINE
8
ParalleliBranches
10
-0.9076134518135104
20
0.4538067259067552
30
2.449805559143206
11
-1.0147426877741195
21
-0.0
31
2.449805559143206
0
LINE
8
ParalleliBranches
10
-1.3176505023993217
20
0.6588252511996608
30
2.2047667545362977
11
-1.4731780469758167
21
-0.0
31
2.2047667545362977
0
LINE
8
ParalleliBranches
10
-1.6770509831248426
20
0.8385254915624213
30
1.8750000000000002
11
-1.8750000000000004
21
-0.0
31
1.8750000000000002
0
LINE
8
ParalleliBranches
10
-0.5173113361555183
20
-0.0
30
2.6006997099790263
11
-0.46269732526999346
21
-0.23134866263499665
31
2.6006997099790263
0
LINE
8
ParalleliBranches
10
-1.0147426877741195
20
-0.0
30
2.449805559143206
11
-0.9076134518135105
21
-0.453806725906755
31
2.449805559143206
0
LINE
8
ParalleliBranches
10
-1.4731780469758167
20
-0.0
30
2.2047667545362977
11
-1.317650502399322
21
-0.6588252511996607
31
2.2047667545362977
0
LINE
8
ParalleliBranches
10
-1.8750000000000004
20
-0.0
30
1.8750000000000002
11
-1.6770509831248428
21
-0.8385254915624211
31
1.8750000000000002
0
LINE
8
ParalleliBranches
10
-0.46269732526999346
20
-0.23134866263499665
30
2.6006997099790263
11
-0.39105061310343936
21
-0.3386597651130583
31
2.6006997099790263
0
LINE
8
ParalleliBranches
10
-0.9076134518135105
20
-0.453806725906755
30
2.449805559143206
11
-0.7670733704490238
21
-0.664305025375406
31
2.449805559143206
0
LINE
8
ParalleliBranches
10
-1.317650502399322
20
-0.6588252511996607
30
2.2047667545362977
11
-1.1136179283479544
21
-0.9644214160591271
31
2.2047667545362977
0
LINE
8
ParalleliBranches
10
-1.6770509831248428
20
-0.8385254915624211
30
1.8750000000000002
11
-1.4173667737846025
21
-1.2274756325774574
31
1.8750000000000002
0
LINE
8
ParalleliBranches
10
-1.875
20
-0.9374999999999997
30
1.6237976320958227
11
-1.5846642276159686
21
-1.3723594775838746
31
1.6237976320958227
0
LINE
8
ParalleliBranches
10
-0.39105061310343936
20
-0.3386597651130583
30
2.6006997099790263
11
-0.3657943537802406
21
-0.3657943537802406
31
2.6006997099790263
0
LINE
8
ParalleliBranches
10
-0.7670733704490238
20
-0.664305025375406
30
2.449805559143206
11
-0.7175314356845435
21
-0.7175314356845435
31
2.449805559143206
0
LINE
8
ParalleliBranches
10
-1.1136179283479544
20
-0.9644214160591271
30
2.2047667545362977
11
-1.0416941869117542
21
-1.0416941869117542
31
2.2047667545362977
0
LINE
8
ParalleliBranches
10
-1.4173667737846025
20
-1.2274756325774574
30
1.8750000000000002
11
-1.325825214724777
21
-1.325825214724777
31
1.8750000000000002
0
LINE
8
ParalleliBranches
10
-1.5846642276159686
20
-1.3723594775838746
30
1.6237976320958227
11
-1.4823176532039277
21
-1.4823176532039277
31
1.6237976320958227
0
LINE
8
ParalleliBranches
10
-1.875
20
-1.6237976320958223
30
0.9375000000000001
11
-1.7539019000502851
21
-1.7539019000502851
31
0.9375000000000001
0
LINE
8
ParalleliBranches
10
-0.3657943537802406
20
-0.3657943537802406
30
2.6006997099790263
11
-0.33865976511305834
21
-0.3910506131034393
31
2.6006997099790263
0
LINE
8
ParalleliBranches
10
-0.7175314356845435
20
-0.7175314356845435
30
2.449805559143206
11
-0.6643050253754061
21
-0.7670733704490237
31
2.449805559143206
0
LINE
8
ParalleliBranches
10
-1.0416941869117542
20
-1.0416941869117542
30
2.2047667545362977
11
-0.9644214160591272
21
-1.1136179283479541
31
2.2047667545362977
0
LINE
8
ParalleliBranches
10
-1.325825214724777
20
-1.325825214724777
30
1.8750000000000002
11
-1.2274756325774576
21
-1.4173667737846023
31
1.8750000000000002
0
LINE
8
ParalleliBranches
10
-1.4823176532039277
20
-1.4823176532039277
30
1.6237976320958227
11
-1.3723594775838748
21
-1.5846642276159684
31
1.6237976320958227
0
LINE
8
ParalleliBranches
10
-1.7539019000502851
20
-1.7539019000502851
30
0.9375000000000001
11
-1.6237976320958225
21
-1.8749999999999998
31
0.9375000000000001
0
LINE
8
ParalleliBranches
10
-0.33865976511305834
20
-0.3910506131034393
30
2.6006997099790263
11
-0.2313486626349967
21
-0.4626973252699934
31
2.6006997099790263
0
LINE
8
ParalleliBranches
10
-0.6643050253754061
20
-0.7670733704490237
30
2.449805559143206
11
-0.4538067259067552
21
-0.9076134518135104
31
2.449805559143206
0
LINE
8
ParalleliBranches
10
-0.9644214160591272
20
-1.1136179283479541
30
2.2047667545362977
11
-0.6588252511996608
21
-1.3176505023993217
31
2.2047667545362977
0
LINE
8
ParalleliBranches
10
-1.2274756325774576
20
-1.4173667737846023
30
1.8750000000000002
11
-0.8385254915624213
21
-1.6770509831248426
31
1.8750000000000002
0
LINE
8
ParalleliBranches
10
-1.3723594775838748
20
-1.5846642276159684
30
1.6237976320958227
11
-0.9374999999999999
21
-1.8749999999999998
31
1.6237976320958227
0
LINE
8
ParalleliBranches
10
-0.2313486626349967
20
-0.4626973252699934
30
2.6006997099790263
11
0.0
21
-0.5173113361555183
31
2.6006997099790263
0
LINE
8
ParalleliBranches
10
-0.4538067259067552
20
-0.9076134518135104
30
2.449805559143206
11
0.0
21
-1.0147426877741195
31
2.449805559143206
0
LINE
8
ParalleliBranches
10
-0.6588252511996608
20
-1.3176505023993217
30
2.2047667545362977
11
0.0
21
-1.4731780469758167
31
2.2047667545362977
0
LINE
8
ParalleliBranches
10
-0.8385254915624213
20
-1.6770509831248426
30
1.8750000000000002
11
0.0
21
-1.8750000000000004
31
1.8750000000000002
0
LINE
8
ParalleliBranches
10
0.0
20
-0.5173113361555183
30
2.6006997099790263
11
0.23134866263499665
21
-0.46269732526999346
31
2.6006997099790263
0
LINE
8
ParalleliBranches
10
0.0
20
-1.0147426877741195
30
2.449805559143206
11
0.453806725906755
21
-0.9076134518135105
31
2.449805559143206
0
LINE
8
ParalleliBranches
10
0.0
20
-1.4731780469758167
30
2.2047667545362977
11
0.6588252511996607
21
-1.317650502399322
31
2.2047667545362977
0
LINE
8
ParalleliBranches
10
0.0
20
-1.8750000000000004
30
1.8750000000000002
11
0.8385254915624211
21
-1.6770509831248428
31
1.8750000000000002
0
LINE
8
ParalleliBranches
10
0.23134866263499665
20
-0.46269732526999346
30
2.6006997099790263
11
0.3386597651130583
21
-0.39105061310343936
31
2.6006997099790263
0
LINE
8
ParalleliBranches
10
0.453806725906755
20
-0.9076134518135105
30
2.449805559143206
11
0.664305025375406
21
-0.7670733704490238
31
2.449805559143206
0
LINE
8
ParalleliBranches
10
0.6588252511996607
20
-1.317650502399322
30
2.2047667545362977
11
0.9644214160591271
21
-1.1136179283479544
31
2.2047667545362977
0
LINE
8
ParalleliBranches
10
0.8385254915624211
20
-1.6770509831248428
30
1.8750000000000002
11
1.2274756325774574
21
-1.4173667737846025
31
1.8750000000000002
0
LINE
8
ParalleliBranches
10
0.9374999999999997
20
-1.875
30
1.6237976320958227
11
1.3723594775838746
21
-1.5846642276159686
31
1.6237976320958227
0
LINE
8
ParalleliBranches
10
0.3386597651130583
20
-0.39105061310343936
30
2.6006997099790263
11
0.3657943537802406
21
-0.3657943537802406
31
2.6006997099790263
0
LINE
8
ParalleliBranches
10
0.664305025375406
20
-0.7670733704490238
30
2.449805559143206
11
0.7175314356845435
21
-0.7175314356845435
31
2.449805559143206
0
LINE
8
ParalleliBranches
10
0.9644214160591271
20
-1.1136179283479544
30
2.2047667545362977
11
1.0416941869117542
21
-1.0416941869117542
31
2.2047667545362977
0
LINE
8
ParalleliBranches
10
1.2274756325774574
20
-1.4173667737846025
30
1.8750000000000002
11
1.325825214724777
21
-1.325825214724777
31
1.8750000000000002
0
LINE
8
ParalleliBranches
10
1.3723594775838746
20
-1.5846642276159686
30
1.6237976320958227
11
1.4823176532039277
21
-1.4823176532039277
31
1.6237976320958227
0
LINE
8
ParalleliBranches
10
1.6237976320958223
20
-1.875
30
0.9375000000000001
11
1.7539019000502851
21
-1.7539019000502851
31
0.9375000000000001
0
LINE
8
ArcoBranches
10
1.8750000000000002
20
-1.8750000000000002
30
2.7939677238464355e-08
11
1.8749999999999998
21
-1.6237976320958225
31
0.9375000000000001
0
LINE
8
ArcoBranches
10
1.8749999999999998
20
-1.6237976320958225
30
0.9375000000000001
11
1.8749999999999998
21
-0.9374999999999999
31
1.6237976320958227
0
LINE
8
ArcoBranches
10
1.8749999999999998
20
-0.9374999999999999
30
1.6237976320958227
11
1.8750000000000004
21
0.0
31
1.8750000000000002
0
LINE
8
ArcoBranches
10
1.8750000000000004
20
0.0
30
1.8750000000000002
11
1.875
21
0.9374999999999997
31
1.6237976320958227
0
LINE
8
ArcoBranches
10
1.875
20
0.9374999999999997
30
1.6237976320958227
11
1.875
21
1.6237976320958223
31
0.9375000000000001
0
LINE
8
ArcoBranches
10
1.875
20
1.6237976320958223
30
0.9375000000000001
11
1.8750000000000002
21
1.8750000000000002
31
2.7939677238464355e-08
0
LINE
8
ArcoBranches
10
1.8750000000000002
20
1.8750000000000002
30
2.7939677238464355e-08
11
1.6237976320958225
21
1.8749999999999998
31
0.9375000000000001
0
LINE
8
ArcoBranches
10
1.6237976320958225
20
1.8749999999999998
30
0.9375000000000001
11
0.9374999999999999
21
1.8749999999999998
31
1.6237976320958227
0
LINE
8
ArcoBranches
10
0.9374999999999999
20
1.8749999999999998
30
1.6237976320958227
11
-0.0
21
1.8750000000000004
31
1.8750000000000002
0
LINE
8
ArcoBranches
10
-0.0
20
1.8750000000000004
30
1.8750000000000002
11
-0.9374999999999997
21
1.875
31
1.6237976320958227
0
LINE
8
ArcoBranches
10
-0.9374999999999997
20
1.875
30
1.6237976320958227
11
-1.6237976320958223
21
1.875
31
0.9375000000000001
0
LINE
8
ArcoBranches
10
-1.6237976320958223
20
1.875
30
0.9375000000000001
11
-1.8750000000000002
21
1.8750000000000002
31
2.7939677238464355e-08
0
LINE
8
ArcoBranches
10
-1.8750000000000002
20
1.8750000000000002
30
2.7939677238464355e-08
11
-1.8749999999999998
21
1.6237976320958225
31
0.9375000000000001
0
LINE
8
ArcoBranches
10
-1.8749999999999998
20
1.6237976320958225
30
0.9375000000000001
11
-1.8749999999999998
21
0.9374999999999999
31
1.6237976320958227
0
LINE
8
ArcoBranches
10
-1.8749999999999998
20
0.9374999999999999
30
1.6237976320958227
11
-1.8750000000000004
21
-0.0
31
1.8750000000000002
0
LINE
8
ArcoBranches
10
-1.8750000000000004
20
-0.0
30
1.8750000000000002
11
-1.875
21
-0.9374999999999997
31
1.6237976320958227
0
LINE
8
ArcoBranches
10
-1.875
20
-0.9374999999999997
30
1.6237976320958227
11
-1.875
21
-1.6237976320958223
31
0.9375000000000001
0
LINE
8
ArcoBranches
10
-1.875
20
-1.6237976320958223
30
0.9375000000000001
11
-1.8750000000000002
21
-1.8750000000000002
31
2.7939677238464355e-08
0
LINE
8
ArcoBranches
10
-1.8750000000000002
20
-1.8750000000000002
30
2.7939677238464355e-08
11
-1.6237976320958225
21
-1.8749999999999998
31
0.9375000000000001
0
LINE
8
ArcoBranches
10
-1.6237976320958225
20
-1.8749999999999998
30
0.9375000000000001
11
-0.9374999999999999
21
-1.8749999999999998
31
1.6237976320958227
0
LINE
8
ArcoBranches
10
-0.9374999999999999
20
-1.8749999999999998
30
1.6237976320958227
11
0.0
21
-1.8750000000000004
31
1.8750000000000002
0
LINE
8
ArcoBranches
10
0.0
20
-1.8750000000000004
30
1.8750000000000002
11
0.9374999999999997
21
-1.875
31
1.6237976320958227
0
LINE
8
ArcoBranches
10
0.9374999999999997
20
-1.875
30
1.6237976320958227
11
1.6237976320958223
21
-1.875
31
0.9375000000000001
0
LINE
8
ArcoBranches
10
1.6237976320958223
20
-1.875
30
0.9375000000000001
11
1.8750000000000002
21
-1.8750000000000002
31
2.7939677238464355e-08
0
3DFACE
8
Faces
10
1.62366760544155e-16
20
0.0
30
2.6516504294495533
11
1.62366760544155e-16
21
0.0
31
2.6516504294495533
12
0.3910506131034393
22
-0.33865976511305834
32
2.6006997099790263
13
0.3657943537802406
23
-0.3657943537802406
33
2.6006997099790263
0
TEXT
8
FacesName
10
0.18921124172092008
20
-0.17611352972332472
30
2.62617506971429
40
0.02
1
0.0
72
1
11
0.18921124172092008
21
-0.17611352972332472
31
2.62617506971429
73
2
0
3DFACE
8
Faces
10
0.3657943537802406
20
-0.3657943537802406
30
2.6006997099790263
11
0.3910506131034393
21
-0.33865976511305834
31
2.6006997099790263
12
0.7670733704490237
22
-0.6643050253754061
32
2.449805559143206
13
0.7175314356845435
23
-0.7175314356845435
33
2.449805559143206
0
TEXT
8
FacesName
10
0.5603624432543117
20
-0.5215726449883121
30
2.525252634561116
40
0.02
1
0.1
72
1
11
0.5603624432543117
21
-0.5215726449883121
31
2.525252634561116
73
2
0
3DFACE
8
Faces
10
0.7175314356845435
20
-0.7175314356845435
30
2.449805559143206
11
0.7670733704490237
21
-0.6643050253754061
31
2.449805559143206
12
1.1136179283479541
22
-0.9644214160591272
32
2.2047667545362977
13
1.0416941869117542
23
-1.0416941869117542
33
2.2047667545362977
0
TEXT
8
FacesName
10
0.9099792303483188
20
-0.8469880160077078
30
2.327286156839752
40
0.02
1
0.2
72
1
11
0.9099792303483188
21
-0.8469880160077078
31
2.327286156839752
73
2
0
3DFACE
8
Faces
10
1.0416941869117542
20
-1.0416941869117542
30
2.2047667545362977
11
1.1136179283479541
21
-0.9644214160591272
31
2.2047667545362977
12
1.4173667737846023
22
-1.2274756325774576
32
1.8750000000000002
13
1.325825214724777
23
-1.325825214724777
33
1.8750000000000002
0
TEXT
8
FacesName
10
1.224626025942272
20
-1.139854112568279
30
2.039883377268149
40
0.02
1
0.3
72
1
11
1.224626025942272
21
-1.139854112568279
31
2.039883377268149
73
2
0
3DFACE
8
Faces
10
1.325825214724777
20
-1.325825214724777
30
1.8750000000000002
11
1.4173667737846023
21
-1.2274756325774576
31
1.8750000000000002
12
1.5846642276159684
22
-1.3723594775838748
32
1.6237976320958227
13
1.4823176532039277
23
-1.4823176532039277
33
1.6237976320958227
0
TEXT
8
FacesName
10
1.4525434673323188
20
-1.3519944945225093
30
1.7493988160479115
40
0.02
1
0.4
72
1
11
1.4525434673323188
21
-1.3519944945225093
31
1.7493988160479115
73
2
0
3DFACE
8
Faces
10
1.4823176532039277
20
-1.4823176532039277
30
1.6237976320958227
11
1.5846642276159684
21
-1.3723594775838748
31
1.6237976320958227
12
1.8749999999999998
22
-1.6237976320958225
32
0.9375000000000001
13
1.7539019000502851
23
-1.7539019000502851
33
0.9375000000000001
0
TEXT
8
FacesName
10
1.6739709452175453
20
-1.5580941657334775
30
1.2806488160479115
40
0.02
1
0.5
72
1
11
1.6739709452175453
21
-1.5580941657334775
31
1.2806488160479115
73
2
0
3DFACE
8
Faces
10
1.7539019000502851
20
-1.7539019000502851
30
0.9375000000000001
11
1.8749999999999998
21
-1.6237976320958225
31
0.9375000000000001
12
1.8749999999999998
22
-1.6237976320958225
32
0.9375000000000001
13
1.8750000000000002
23
-1.8750000000000002
33
2.7939677238464355e-08
0
TEXT
8
FacesName
10
1.8447254750125712
20
-1.7191242910604825
30
0.7031250069849194
40
0.02
1
0.6
72
1
11
1.8447254750125712
21
-1.7191242910604825
31
0.7031250069849194
73
2
0
3DFACE
8
Faces
10
1.62366760544155e-16
20
0.0
30
2.6516504294495533
11
1.62366760544155e-16
21
0.0
31
2.6516504294495533
12
0.4626973252699934
22
-0.2313486626349967
32
2.6006997099790263
13
0.3910506131034393
23
-0.33865976511305834
33
2.6006997099790263
0
TEXT
8
FacesName
10
0.21343698459335825
20
-0.14250210693701376
30
2.62617506971429
40
0.02
1
1.0
72
1
11
0.21343698459335825
21
-0.14250210693701376
31
2.62617506971429
73
2
0
3DFACE
8
Faces
10
0.3910506131034393
20
-0.33865976511305834
30
2.6006997099790263
11
0.4626973252699934
21
-0.2313486626349967
31
2.6006997099790263
12
0.9076134518135104
22
-0.4538067259067552
32
2.449805559143206
13
0.7670733704490237
23
-0.6643050253754061
33
2.449805559143206
0
TEXT
8
FacesName
10
0.6321086901589917
20
-0.42203004475755407
30
2.525252634561116
40
0.02
1
1.1
72
1
11
0.6321086901589917
21
-0.42203004475755407
31
2.525252634561116
73
2
0
3DFACE
8
Faces
10
0.7670733704490237
20
-0.6643050253754061
30
2.449805559143206
11
0.9076134518135104
21
-0.4538067259067552
31
2.449805559143206
12
1.3176505023993217
22
-0.6588252511996608
32
2.2047667545362977
13
1.1136179283479541
23
-0.9644214160591272
33
2.2047667545362977
0
TEXT
8
FacesName
10
1.0264888132524526
20
-0.6853396046352374
30
2.327286156839752
40
0.02
1
1.2
72
1
11
1.0264888132524526
21
-0.6853396046352374
31
2.327286156839752
73
2
0
3DFACE
8
Faces
10
1.1136179283479541
20
-0.9644214160591272
30
2.2047667545362977
11
1.3176505023993217
21
-0.6588252511996608
31
2.2047667545362977
12
1.6770509831248426
22
-0.8385254915624213
32
1.8750000000000002
13
1.4173667737846023
23
-1.2274756325774576
33
1.8750000000000002
0
TEXT
8
FacesName
10
1.3814215469141802
20
-0.9223119478496667
30
2.039883377268149
40
0.02
1
1.3
72
1
11
1.3814215469141802
21
-0.9223119478496667
31
2.039883377268149
73
2
0
3DFACE
8
Faces
10
1.4173667737846023
20
-1.2274756325774576
30
1.8750000000000002
11
1.6770509831248426
21
-0.8385254915624213
31
1.8750000000000002
12
1.8749999999999998
22
-0.9374999999999999
32
1.6237976320958227
13
1.5846642276159684
23
-1.3723594775838748
33
1.6237976320958227
0
TEXT
8
FacesName
10
1.638520496131353
20
-1.0939651504309384
30
1.7493988160479115
40
0.02
1
1.4
72
1
11
1.638520496131353
21
-1.0939651504309384
31
1.7493988160479115
73
2
0
3DFACE
8
Faces
10
1.5846642276159684
20
-1.3723594775838748
30
1.6237976320958227
11
1.8749999999999998
21
-0.9374999999999999
31
1.6237976320958227
12
1.8749999999999998
22
-0.9374999999999999
32
1.6237976320958227
13
1.8749999999999998
23
-1.6237976320958225
33
0.9375000000000001
0
TEXT
8
FacesName
10
1.802416056903992
20
-1.2177892774199242
30
1.452223224071867
40
0.02
1
1.5
72
1
11
1.802416056903992
21
-1.2177892774199242
31
1.452223224071867
73
2
0
3DFACE
8
Faces
10
1.62366760544155e-16
20
0.0
30
2.6516504294495533
11
1.62366760544155e-16
21
0.0
31
2.6516504294495533
12
0.5173113361555183
22
0.0
32
2.6006997099790263
13
0.4626973252699934
23
-0.2313486626349967
33
2.6006997099790263
0
TEXT
8
FacesName
10
0.245002165356378
20
-0.057837165658749176
30
2.62617506971429
40
0.02
1
2.0
72
1
11
0.245002165356378
21
-0.057837165658749176
31
2.62617506971429
73
2
0
3DFACE
8
Faces
10
0.4626973252699934
20
-0.2313486626349967
30
2.6006997099790263
11
0.5173113361555183
21
0.0
31
2.6006997099790263
12
1.0147426877741195
22
0.0
32
2.449805559143206
13
0.9076134518135104
23
-0.4538067259067552
33
2.449805559143206
0
TEXT
8
FacesName
10
0.7255912002532854
20
-0.17128884713543796
30
2.525252634561116
40
0.02
1
2.1
72
1
11
0.7255912002532854
21
-0.17128884713543796
31
2.525252634561116
73
2
0
3DFACE
8
Faces
10
0.9076134518135104
20
-0.4538067259067552
30
2.449805559143206
11
1.0147426877741195
21
0.0
31
2.449805559143206
12
1.4731780469758167
22
0.0
32
2.2047667545362977
13
1.3176505023993217
23
-0.6588252511996608
33
2.2047667545362977
0
TEXT
8
FacesName
10
1.178296172240692
20
-0.27815799427660404
30
2.327286156839752
40
0.02
1
2.2
72
1
11
1.178296172240692
21
-0.27815799427660404
31
2.327286156839752
73
2
0
3DFACE
8
Faces
10
1.3176505023993217
20
-0.6588252511996608
30
2.2047667545362977
11
1.4731780469758167
21
0.0
31
2.2047667545362977
12
1.8750000000000004
22
0.0
32
1.8750000000000002
13
1.6770509831248426
23
-0.8385254915624213
33
1.8750000000000002
0
TEXT
8
FacesName
10
1.5857198831249952
20
-0.3743376856905205
30
2.039883377268149
40
0.02
1
2.3
72
1
11
1.5857198831249952
21
-0.3743376856905205
31
2.039883377268149
73
2
0
3DFACE
8
Faces
10
1.6770509831248426
20
-0.8385254915624213
30
1.8750000000000002
11
1.8750000000000004
21
0.0
31
1.8750000000000002
12
1.8750000000000004
22
0.0
32
1.8750000000000002
13
1.8749999999999998
23
-0.9374999999999999
33
1.6237976320958227
0
TEXT
8
FacesName
10
1.8255127457812108
20
-0.4440063728906053
30
1.8121994080239558
40
0.02
1
2.4
72
1
11
1.8255127457812108
21
-0.4440063728906053
31
1.8121994080239558
73
2
0
3DFACE
8
Faces
10
1.62366760544155e-16
20
0.0
30
2.6516504294495533
11
1.62366760544155e-16
21
0.0
31
2.6516504294495533
12
0.46269732526999346
22
0.23134866263499665
32
2.6006997099790263
13
0.5173113361555183
23
0.0
33
2.6006997099790263
0
TEXT
8
FacesName
10
0.24500216535637803
20
0.05783716565874916
30
2.62617506971429
40
0.02
1
3.0
72
1
11
0.24500216535637803
21
0.05783716565874916
31
2.62617506971429
73
2
0
3DFACE
8
Faces
10
0.5173113361555183
20
0.0
30
2.6006997099790263
11
0.46269732526999346
21
0.23134866263499665
31
2.6006997099790263
12
0.9076134518135105
22
0.453806725906755
32
2.449805559143206
13
1.0147426877741195
23
0.0
33
2.449805559143206
0
TEXT
8
FacesName
10
0.7255912002532854
20
0.1712888471354379
30
2.525252634561116
40
0.02
1
3.1
72
1
11
0.7255912002532854
21
0.1712888471354379
31
2.525252634561116
73
2
0
3DFACE
8
Faces
10
1.0147426877741195
20
0.0
30
2.449805559143206
11
0.9076134518135105
21
0.453806725906755
31
2.449805559143206
12
1.317650502399322
22
0.6588252511996607
32
2.2047667545362977
13
1.4731780469758167
23
0.0
33
2.2047667545362977
0
TEXT
8
FacesName
10
1.1782961722406922
20
0.2781579942766039
30
2.327286156839752
40
0.02
1
3.2
72
1
11
1.1782961722406922
21
0.2781579942766039
31
2.327286156839752
73
2
0
3DFACE
8
Faces
10
1.4731780469758167
20
0.0
30
2.2047667545362977
11
1.317650502399322
21
0.6588252511996607
31
2.2047667545362977
12
1.6770509831248428
22
0.8385254915624211
32
1.8750000000000002
13
1.8750000000000004
23
0.0
33
1.8750000000000002
0
TEXT
8
FacesName
10
1.5857198831249955
20
0.37433768569052045
30
2.039883377268149
40
0.02
1
3.3
72
1
11
1.5857198831249955
21
0.37433768569052045
31
2.039883377268149
73
2
0
3DFACE
8
Faces
10
1.8750000000000004
20
0.0
30
1.8750000000000002
11
1.6770509831248428
21
0.8385254915624211
31
1.8750000000000002
12
1.875
22
0.9374999999999997
32
1.6237976320958227
13
1.8750000000000004
23
0.0
33
1.8750000000000002
0
TEXT
8
FacesName
10
1.8255127457812108
20
0.4440063728906052
30
1.8121994080239558
40
0.02
1
3.4
72
1
11
1.8255127457812108
21
0.4440063728906052
31
1.8121994080239558
73
2
0
3DFACE
8
Faces
10
1.62366760544155e-16
20
0.0
30
2.6516504294495533
11
1.62366760544155e-16
21
0.0
31
2.6516504294495533
12
0.39105061310343936
22
0.3386597651130583
32
2.6006997099790263
13
0.46269732526999346
23
0.23134866263499665
33
2.6006997099790263
0
TEXT
8
FacesName
10
0.2134369845933583
20
0.14250210693701373
30
2.62617506971429
40
0.02
1
4.0
72
1
11
0.2134369845933583
21
0.14250210693701373
31
2.62617506971429
73
2
0
3DFACE
8
Faces
10
0.46269732526999346
20
0.23134866263499665
30
2.6006997099790263
11
0.39105061310343936
21
0.3386597651130583
31
2.6006997099790263
12
0.7670733704490238
22
0.664305025375406
32
2.449805559143206
13
0.9076134518135105
23
0.453806725906755
33
2.449805559143206
0
TEXT
8
FacesName
10
0.6321086901589917
20
0.422030044757554
30
2.525252634561116
40
0.02
1
4.1
72
1
11
0.6321086901589917
21
0.422030044757554
31
2.525252634561116
73
2
0
3DFACE
8
Faces
10
0.9076134518135105
20
0.453806725906755
30
2.449805559143206
11
0.7670733704490238
21
0.664305025375406
31
2.449805559143206
12
1.1136179283479544
22
0.9644214160591271
32
2.2047667545362977
13
1.317650502399322
23
0.6588252511996607
33
2.2047667545362977
0
TEXT
8
FacesName
10
1.0264888132524526
20
0.6853396046352372
30
2.327286156839752
40
0.02
1
4.2
72
1
11
1.0264888132524526
21
0.6853396046352372
31
2.327286156839752
73
2
0
3DFACE
8
Faces
10
1.317650502399322
20
0.6588252511996607
30
2.2047667545362977
11
1.1136179283479544
21
0.9644214160591271
31
2.2047667545362977
12
1.4173667737846025
22
1.2274756325774574
32
1.8750000000000002
13
1.6770509831248428
23
0.8385254915624211
33
1.8750000000000002
0
TEXT
8
FacesName
10
1.3814215469141804
20
0.9223119478496665
30
2.039883377268149
40
0.02
1
4.3
72
1
11
1.3814215469141804
21
0.9223119478496665
31
2.039883377268149
73
2
0
3DFACE
8
Faces
10
1.6770509831248428
20
0.8385254915624211
30
1.8750000000000002
11
1.4173667737846025
21
1.2274756325774574
31
1.8750000000000002
12
1.5846642276159686
22
1.3723594775838746
32
1.6237976320958227
13
1.875
23
0.9374999999999997
33
1.6237976320958227
0
TEXT
8
FacesName
10
1.6385204961313535
20
1.0939651504309382
30
1.7493988160479115
40
0.02
1
4.4
72
1
11
1.6385204961313535
21
1.0939651504309382
31
1.7493988160479115
73
2
0
3DFACE
8
Faces
10
1.875
20
0.9374999999999997
30
1.6237976320958227
11
1.5846642276159686
21
1.3723594775838746
31
1.6237976320958227
12
1.875
22
1.6237976320958223
32
0.9375000000000001
13
1.875
23
0.9374999999999997
33
1.6237976320958227
0
TEXT
8
FacesName
10
1.8024160569039922
20
1.2177892774199242
30
1.452223224071867
40
0.02
1
4.5
72
1
11
1.8024160569039922
21
1.2177892774199242
31
1.452223224071867
73
2
0
3DFACE
8
Faces
10
1.62366760544155e-16
20
0.0
30
2.6516504294495533
11
1.62366760544155e-16
21
0.0
31
2.6516504294495533
12
0.3657943537802406
22
0.3657943537802406
32
2.6006997099790263
13
0.39105061310343936
23
0.3386597651130583
33
2.6006997099790263
0
TEXT
8
FacesName
10
0.18921124172092008
20
0.17611352972332472
30
2.62617506971429
40
0.02
1
5.0
72
1
11
0.18921124172092008
21
0.17611352972332472
31
2.62617506971429
73
2
0
3DFACE
8
Faces
10
0.39105061310343936
20
0.3386597651130583
30
2.6006997099790263
11
0.3657943537802406
21
0.3657943537802406
31
2.6006997099790263
12
0.7175314356845435
22
0.7175314356845435
32
2.449805559143206
13
0.7670733704490238
23
0.664305025375406
33
2.449805559143206
0
TEXT
8
FacesName
10
0.5603624432543118
20
0.5215726449883121
30
2.525252634561116
40
0.02
1
5.1
72
1
11
0.5603624432543118
21
0.5215726449883121
31
2.525252634561116
73
2
0
3DFACE
8
Faces
10
0.7670733704490238
20
0.664305025375406
30
2.449805559143206
11
0.7175314356845435
21
0.7175314356845435
31
2.449805559143206
12
1.0416941869117542
22
1.0416941869117542
32
2.2047667545362977
13
1.1136179283479544
23
0.9644214160591271
33
2.2047667545362977
0
TEXT
8
FacesName
10
0.909979230348319
20
0.8469880160077077
30
2.327286156839752
40
0.02
1
5.2
72
1
11
0.909979230348319
21
0.8469880160077077
31
2.327286156839752
73
2
0
3DFACE
8
Faces
10
1.1136179283479544
20
0.9644214160591271
30
2.2047667545362977
11
1.0416941869117542
21
1.0416941869117542
31
2.2047667545362977
12
1.325825214724777
22
1.325825214724777
32
1.8750000000000002
13
1.4173667737846025
23
1.2274756325774574
33
1.8750000000000002
0
TEXT
8
FacesName
10
1.224626025942272
20
1.139854112568279
30
2.039883377268149
40
0.02
1
5.3
72
1
11
1.224626025942272
21
1.139854112568279
31
2.039883377268149
73
2
0
3DFACE
8
Faces
10
1.4173667737846025
20
1.2274756325774574
30
1.8750000000000002
11
1.325825214724777
21
1.325825214724777
31
1.8750000000000002
12
1.4823176532039277
22
1.4823176532039277
32
1.6237976320958227
13
1.5846642276159686
23
1.3723594775838746
33
1.6237976320958227
0
TEXT
8
FacesName
10
1.452543467332319
20
1.351994494522509
30
1.7493988160479115
40
0.02
1
5.4
72
1
11
1.452543467332319
21
1.351994494522509
31
1.7493988160479115
73
2
0
3DFACE
8
Faces
10
1.5846642276159686
20
1.3723594775838746
30
1.6237976320958227
11
1.4823176532039277
21
1.4823176532039277
31
1.6237976320958227
12
1.7539019000502851
22
1.7539019000502851
32
0.9375000000000001
13
1.875
23
1.6237976320958223
33
0.9375000000000001
0
TEXT
8
FacesName
10
1.6739709452175453
20
1.5580941657334775
30
1.2806488160479115
40
0.02
1
5.5
72
1
11
1.6739709452175453
21
1.5580941657334775
31
1.2806488160479115
73
2
0
3DFACE
8
Faces
10
1.875
20
1.6237976320958223
30
0.9375000000000001
11
1.7539019000502851
21
1.7539019000502851
31
0.9375000000000001
12
1.8750000000000002
22
1.8750000000000002
32
2.7939677238464355e-08
13
1.875
23
1.6237976320958223
33
0.9375000000000001
0
TEXT
8
FacesName
10
1.8447254750125712
20
1.7191242910604825
30
0.7031250069849194
40
0.02
1
5.6
72
1
11
1.8447254750125712
21
1.7191242910604825
31
0.7031250069849194
73
2
0
3DFACE
8
Faces
10
1.62366760544155e-16
20
0.0
30
2.6516504294495533
11
1.62366760544155e-16
21
0.0
31
2.6516504294495533
12
0.33865976511305834
22
0.3910506131034393
32
2.6006997099790263
13
0.3657943537802406
23
0.3657943537802406
33
2.6006997099790263
0
TEXT
8
FacesName
10
0.17611352972332484
20
0.18921124172091996
30
2.62617506971429
40
0.02
1
6.0
72
1
11
0.17611352972332484
21
0.18921124172091996
31
2.62617506971429
73
2
0
3DFACE
8
Faces
10
0.3657943537802406
20
0.3657943537802406
30
2.6006997099790263
11
0.33865976511305834
21
0.3910506131034393
31
2.6006997099790263
12
0.6643050253754061
22
0.7670733704490237
32
2.449805559143206
13
0.7175314356845435
23
0.7175314356845435
33
2.449805559143206
0
TEXT
8
FacesName
10
0.5215726449883121
20
0.5603624432543117
30
2.525252634561116
40
0.02
1
6.1
72
1
11
0.5215726449883121
21
0.5603624432543117
31
2.525252634561116
73
2
0
3DFACE
8
Faces
10
0.7175314356845435
20
0.7175314356845435
30
2.449805559143206
11
0.6643050253754061
21
0.7670733704490237
31
2.449805559143206
12
0.9644214160591272
22
1.1136179283479541
32
2.2047667545362977
13
1.0416941869117542
23
1.0416941869117542
33
2.2047667545362977
0
TEXT
8
FacesName
10
0.8469880160077078
20
0.9099792303483188
30
2.327286156839752
40
0.02
1
6.2
72
1
11
0.8469880160077078
21
0.9099792303483188
31
2.327286156839752
73
2
0
3DFACE
8
Faces
10
1.0416941869117542
20
1.0416941869117542
30
2.2047667545362977
11
0.9644214160591272
21
1.1136179283479541
31
2.2047667545362977
12
1.2274756325774576
22
1.4173667737846023
32
1.8750000000000002
13
1.325825214724777
23
1.325825214724777
33
1.8750000000000002
0
TEXT
8
FacesName
10
1.139854112568279
20
1.224626025942272
30
2.039883377268149
40
0.02
1
6.3
72
1
11
1.139854112568279
21
1.224626025942272
31
2.039883377268149
73
2
0
3DFACE
8
Faces
10
1.325825214724777
20
1.325825214724777
30
1.8750000000000002
11
1.2274756325774576
21
1.4173667737846023
31
1.8750000000000002
12
1.3723594775838748
22
1.5846642276159684
32
1.6237976320958227
13
1.4823176532039277
23
1.4823176532039277
33
1.6237976320958227
0
TEXT
8
FacesName
10
1.3519944945225093
20
1.4525434673323188
30
1.7493988160479115
40
0.02
1
6.4
72
1
11
1.3519944945225093
21
1.4525434673323188
31
1.7493988160479115
73
2
0
3DFACE
8
Faces
10
1.4823176532039277
20
1.4823176532039277
30
1.6237976320958227
11
1.3723594775838748
21
1.5846642276159684
31
1.6237976320958227
12
1.6237976320958225
22
1.8749999999999998
32
0.9375000000000001
13
1.7539019000502851
23
1.7539019000502851
33
0.9375000000000001
0
TEXT
8
FacesName
10
1.5580941657334775
20
1.6739709452175453
30
1.2806488160479115
40
0.02
1
6.5
72
1
11
1.5580941657334775
21
1.6739709452175453
31
1.2806488160479115
73
2
0
3DFACE
8
Faces
10
1.7539019000502851
20
1.7539019000502851
30
0.9375000000000001
11
1.6237976320958225
21
1.8749999999999998
31
0.9375000000000001
12
1.6237976320958225
22
1.8749999999999998
32
0.9375000000000001
13
1.8750000000000002
23
1.8750000000000002
33
2.7939677238464355e-08
0
TEXT
8
FacesName
10
1.7191242910604825
20
1.8447254750125712
30
0.7031250069849194
40
0.02
1
6.6
72
1
11
1.7191242910604825
21
1.8447254750125712
31
0.7031250069849194
73
2
0
3DFACE
8
Faces
10
1.62366760544155e-16
20
0.0
30
2.6516504294495533
11
1.62366760544155e-16
21
0.0
31
2.6516504294495533
12
0.2313486626349967
22
0.4626973252699934
32
2.6006997099790263
13
0.33865976511305834
23
0.3910506131034393
33
2.6006997099790263
0
TEXT
8
FacesName
10
0.14250210693701384
20
0.2134369845933582
30
2.62617506971429
40
0.02
1
7.0
72
1
11
0.14250210693701384
21
0.2134369845933582
31
2.62617506971429
73
2
0
3DFACE
8
Faces
10
0.33865976511305834
20
0.3910506131034393
30
2.6006997099790263
11
0.2313486626349967
21
0.4626973252699934
31
2.6006997099790263
12
0.4538067259067552
22
0.9076134518135104
32
2.449805559143206
13
0.6643050253754061
23
0.7670733704490237
33
2.449805559143206
0
TEXT
8
FacesName
10
0.42203004475755407
20
0.6321086901589917
30
2.525252634561116
40
0.02
1
7.1
72
1
11
0.42203004475755407
21
0.6321086901589917
31
2.525252634561116
73
2
0
3DFACE
8
Faces
10
0.6643050253754061
20
0.7670733704490237
30
2.449805559143206
11
0.4538067259067552
21
0.9076134518135104
31
2.449805559143206
12
0.6588252511996608
22
1.3176505023993217
32
2.2047667545362977
13
0.9644214160591272
23
1.1136179283479541
33
2.2047667545362977
0
TEXT
8
FacesName
10
0.6853396046352374
20
1.0264888132524526
30
2.327286156839752
40
0.02
1
7.2
72
1
11
0.6853396046352374
21
1.0264888132524526
31
2.327286156839752
73
2
0
3DFACE
8
Faces
10
0.9644214160591272
20
1.1136179283479541
30
2.2047667545362977
11
0.6588252511996608
21
1.3176505023993217
31
2.2047667545362977
12
0.8385254915624213
22
1.6770509831248426
32
1.8750000000000002
13
1.2274756325774576
23
1.4173667737846023
33
1.8750000000000002
0
TEXT
8
FacesName
10
0.9223119478496667
20
1.3814215469141802
30
2.039883377268149
40
0.02
1
7.3
72
1
11
0.9223119478496667
21
1.3814215469141802
31
2.039883377268149
73
2
0
3DFACE
8
Faces
10
1.2274756325774576
20
1.4173667737846023
30
1.8750000000000002
11
0.8385254915624213
21
1.6770509831248426
31
1.8750000000000002
12
0.9374999999999999
22
1.8749999999999998
32
1.6237976320958227
13
1.3723594775838748
23
1.5846642276159684
33
1.6237976320958227
0
TEXT
8
FacesName
10
1.0939651504309384
20
1.638520496131353
30
1.7493988160479115
40
0.02
1
7.4
72
1
11
1.0939651504309384
21
1.638520496131353
31
1.7493988160479115
73
2
0
3DFACE
8
Faces
10
1.3723594775838748
20
1.5846642276159684
30
1.6237976320958227
11
0.9374999999999999
21
1.8749999999999998
31
1.6237976320958227
12
0.9374999999999999
22
1.8749999999999998
32
1.6237976320958227
13
1.6237976320958225
23
1.8749999999999998
33
0.9375000000000001
0
TEXT
8
FacesName
10
1.2177892774199242
20
1.802416056903992
30
1.452223224071867
40
0.02
1
7.5
72
1
11
1.2177892774199242
21
1.802416056903992
31
1.452223224071867
73
2
0
3DFACE
8
Faces
10
1.62366760544155e-16
20
0.0
30
2.6516504294495533
11
1.62366760544155e-16
21
0.0
31
2.6516504294495533
12
-0.0
22
0.5173113361555183
32
2.6006997099790263
13
0.2313486626349967
23
0.4626973252699934
33
2.6006997099790263
0
TEXT
8
FacesName
10
0.05783716565874926
20
0.24500216535637792
30
2.62617506971429
40
0.02
1
8.0
72
1
11
0.05783716565874926
21
0.24500216535637792
31
2.62617506971429
73
2
0
3DFACE
8
Faces
10
0.2313486626349967
20
0.4626973252699934
30
2.6006997099790263
11
-0.0
21
0.5173113361555183
31
2.6006997099790263
12
-0.0
22
1.0147426877741195
32
2.449805559143206
13
0.4538067259067552
23
0.9076134518135104
33
2.449805559143206
0
TEXT
8
FacesName
10
0.17128884713543796
20
0.7255912002532854
30
2.525252634561116
40
0.02
1
8.1
72
1
11
0.17128884713543796
21
0.7255912002532854
31
2.525252634561116
73
2
0
3DFACE
8
Faces
10
0.4538067259067552
20
0.9076134518135104
30
2.449805559143206
11
-0.0
21
1.0147426877741195
31
2.449805559143206
12
-0.0
22
1.4731780469758167
32
2.2047667545362977
13
0.6588252511996608
23
1.3176505023993217
33
2.2047667545362977
0
TEXT
8
FacesName
10
0.27815799427660404
20
1.178296172240692
30
2.327286156839752
40
0.02
1
8.2
72
1
11
0.27815799427660404
21
1.178296172240692
31
2.327286156839752
73
2
0
3DFACE
8
Faces
10
0.6588252511996608
20
1.3176505023993217
30
2.2047667545362977
11
-0.0
21
1.4731780469758167
31
2.2047667545362977
12
-0.0
22
1.8750000000000004
32
1.8750000000000002
13
0.8385254915624213
23
1.6770509831248426
33
1.8750000000000002
0
TEXT
8
FacesName
10
0.3743376856905205
20
1.5857198831249952
30
2.039883377268149
40
0.02
1
8.3
72
1
11
0.3743376856905205
21
1.5857198831249952
31
2.039883377268149
73
2
0
3DFACE
8
Faces
10
0.8385254915624213
20
1.6770509831248426
30
1.8750000000000002
11
-0.0
21
1.8750000000000004
31
1.8750000000000002
12
-0.0
22
1.8750000000000004
32
1.8750000000000002
13
0.9374999999999999
23
1.8749999999999998
33
1.6237976320958227
0
TEXT
8
FacesName
10
0.4440063728906053
20
1.8255127457812108
30
1.8121994080239558
40
0.02
1
8.4
72
1
11
0.4440063728906053
21
1.8255127457812108
31
1.8121994080239558
73
2
0
3DFACE
8
Faces
10
1.62366760544155e-16
20
0.0
30
2.6516504294495533
11
1.62366760544155e-16
21
0.0
31
2.6516504294495533
12
-0.23134866263499665
22
0.46269732526999346
32
2.6006997099790263
13
-0.0
23
0.5173113361555183
33
2.6006997099790263
0
TEXT
8
FacesName
10
-0.05783716565874908
20
0.24500216535637792
30
2.62617506971429
40
0.02
1
9.0
72
1
11
-0.05783716565874908
21
0.24500216535637792
31
2.62617506971429
73
2
0
3DFACE
8
Faces
10
-0.0
20
0.5173113361555183
30
2.6006997099790263
11
-0.23134866263499665
21
0.46269732526999346
31
2.6006997099790263
12
-0.453806725906755
22
0.9076134518135105
32
2.449805559143206
13
-0.0
23
1.0147426877741195
33
2.449805559143206
0
TEXT
8
FacesName
10
-0.1712888471354379
20
0.7255912002532854
30
2.525252634561116
40
0.02
1
9.1
72
1
11
-0.1712888471354379
21
0.7255912002532854
31
2.525252634561116
73
2
0
3DFACE
8
Faces
10
-0.0
20
1.0147426877741195
30
2.449805559143206
11
-0.453806725906755
21
0.9076134518135105
31
2.449805559143206
12
-0.6588252511996607
22
1.317650502399322
32
2.2047667545362977
13
-0.0
23
1.4731780469758167
33
2.2047667545362977
0
TEXT
8
FacesName
10
-0.2781579942766039
20
1.1782961722406922
30
2.327286156839752
40
0.02
1
9.2
72
1
11
-0.2781579942766039
21
1.1782961722406922
31
2.327286156839752
73
2
0
3DFACE
8
Faces
10
-0.0
20
1.4731780469758167
30
2.2047667545362977
11
-0.6588252511996607
21
1.317650502399322
31
2.2047667545362977
12
-0.8385254915624211
22
1.6770509831248428
32
1.8750000000000002
13
-0.0
23
1.8750000000000004
33
1.8750000000000002
0
TEXT
8
FacesName
10
-0.37433768569052045
20
1.5857198831249955
30
2.039883377268149
40
0.02
1
9.3
72
1
11
-0.37433768569052045
21
1.5857198831249955
31
2.039883377268149
73
2
0
3DFACE
8
Faces
10
-0.0
20
1.8750000000000004
30
1.8750000000000002
11
-0.8385254915624211
21
1.6770509831248428
31
1.8750000000000002
12
-0.9374999999999997
22
1.875
32
1.6237976320958227
13
-0.0
23
1.8750000000000004
33
1.8750000000000002
0
TEXT
8
FacesName
10
-0.4440063728906052
20
1.8255127457812108
30
1.8121994080239558
40
0.02
1
9.4
72
1
11
-0.4440063728906052
21
1.8255127457812108
31
1.8121994080239558
73
2
0
3DFACE
8
Faces
10
1.62366760544155e-16
20
0.0
30
2.6516504294495533
11
1.62366760544155e-16
21
0.0
31
2.6516504294495533
12
-0.3386597651130583
22
0.39105061310343936
32
2.6006997099790263
13
-0.23134866263499665
23
0.46269732526999346
33
2.6006997099790263
0
TEXT
8
FacesName
10
-0.14250210693701365
20
0.2134369845933582
30
2.62617506971429
40
0.02
1
10.0
72
1
11
-0.14250210693701365
21
0.2134369845933582
31
2.62617506971429
73
2
0
3DFACE
8
Faces
10
-0.23134866263499665
20
0.46269732526999346
30
2.6006997099790263
11
-0.3386597651130583
21
0.39105061310343936
31
2.6006997099790263
12
-0.664305025375406
22
0.7670733704490238
32
2.449805559143206
13
-0.453806725906755
23
0.9076134518135105
33
2.449805559143206
0
TEXT
8
FacesName
10
-0.422030044757554
20
0.6321086901589917
30
2.525252634561116
40
0.02
1
10.1
72
1
11
-0.422030044757554
21
0.6321086901589917
31
2.525252634561116
73
2
0
3DFACE
8
Faces
10
-0.453806725906755
20
0.9076134518135105
30
2.449805559143206
11
-0.664305025375406
21
0.7670733704490238
31
2.449805559143206
12
-0.9644214160591271
22
1.1136179283479544
32
2.2047667545362977
13
-0.6588252511996607
23
1.317650502399322
33
2.2047667545362977
0
TEXT
8
FacesName
10
-0.6853396046352372
20
1.0264888132524526
30
2.327286156839752
40
0.02
1
10.2
72
1
11
-0.6853396046352372
21
1.0264888132524526
31
2.327286156839752
73
2
0
3DFACE
8
Faces
10
-0.6588252511996607
20
1.317650502399322
30
2.2047667545362977
11
-0.9644214160591271
21
1.1136179283479544
31
2.2047667545362977
12
-1.2274756325774574
22
1.4173667737846025
32
1.8750000000000002
13
-0.8385254915624211
23
1.6770509831248428
33
1.8750000000000002
0
TEXT
8
FacesName
10
-0.9223119478496665
20
1.3814215469141804
30
2.039883377268149
40
0.02
1
10.3
72
1
11
-0.9223119478496665
21
1.3814215469141804
31
2.039883377268149
73
2
0
3DFACE
8
Faces
10
-0.8385254915624211
20
1.6770509831248428
30
1.8750000000000002
11
-1.2274756325774574
21
1.4173667737846025
31
1.8750000000000002
12
-1.3723594775838746
22
1.5846642276159686
32
1.6237976320958227
13
-0.9374999999999997
23
1.875
33
1.6237976320958227
0
TEXT
8
FacesName
10
-1.0939651504309382
20
1.6385204961313535
30
1.7493988160479115
40
0.02
1
10.4
72
1
11
-1.0939651504309382
21
1.6385204961313535
31
1.7493988160479115
73
2
0
3DFACE
8
Faces
10
-0.9374999999999997
20
1.875
30
1.6237976320958227
11
-1.3723594775838746
21
1.5846642276159686
31
1.6237976320958227
12
-1.6237976320958223
22
1.875
32
0.9375000000000001
13
-0.9374999999999997
23
1.875
33
1.6237976320958227
0
TEXT
8
FacesName
10
-1.2177892774199242
20
1.8024160569039922
30
1.452223224071867
40
0.02
1
10.5
72
1
11
-1.2177892774199242
21
1.8024160569039922
31
1.452223224071867
73
2
0
3DFACE
8
Faces
10
1.62366760544155e-16
20
0.0
30
2.6516504294495533
11
1.62366760544155e-16
21
0.0
31
2.6516504294495533
12
-0.3657943537802406
22
0.3657943537802406
32
2.6006997099790263
13
-0.3386597651130583
23
0.39105061310343936
33
2.6006997099790263
0
TEXT
8
FacesName
10
-0.17611352972332464
20
0.18921124172092
30
2.62617506971429
40
0.02
1
11.0
72
1
11
-0.17611352972332464
21
0.18921124172092
31
2.62617506971429
73
2
0
3DFACE
8
Faces
10
-0.3386597651130583
20
0.39105061310343936
30
2.6006997099790263
11
-0.3657943537802406
21
0.3657943537802406
31
2.6006997099790263
12
-0.7175314356845435
22
0.7175314356845435
32
2.449805559143206
13
-0.664305025375406
23
0.7670733704490238
33
2.449805559143206
0
TEXT
8
FacesName
10
-0.5215726449883121
20
0.5603624432543118
30
2.525252634561116
40
0.02
1
11.1
72
1
11
-0.5215726449883121
21
0.5603624432543118
31
2.525252634561116
73
2
0
3DFACE
8
Faces
10
-0.664305025375406
20
0.7670733704490238
30
2.449805559143206
11
-0.7175314356845435
21
0.7175314356845435
31
2.449805559143206
12
-1.0416941869117542
22
1.0416941869117542
32
2.2047667545362977
13
-0.9644214160591271
23
1.1136179283479544
33
2.2047667545362977
0
TEXT
8
FacesName
10
-0.8469880160077077
20
0.909979230348319
30
2.327286156839752
40
0.02
1
11.2
72
1
11
-0.8469880160077077
21
0.909979230348319
31
2.327286156839752
73
2
0
3DFACE
8
Faces
10
-0.9644214160591271
20
1.1136179283479544
30
2.2047667545362977
11
-1.0416941869117542
21
1.0416941869117542
31
2.2047667545362977
12
-1.325825214724777
22
1.325825214724777
32
1.8750000000000002
13
-1.2274756325774574
23
1.4173667737846025
33
1.8750000000000002
0
TEXT
8
FacesName
10
-1.139854112568279
20
1.224626025942272
30
2.039883377268149
40
0.02
1
11.3
72
1
11
-1.139854112568279
21
1.224626025942272
31
2.039883377268149
73
2
0
3DFACE
8
Faces
10
-1.2274756325774574
20
1.4173667737846025
30
1.8750000000000002
11
-1.325825214724777
21
1.325825214724777
31
1.8750000000000002
12
-1.4823176532039277
22
1.4823176532039277
32
1.6237976320958227
13
-1.3723594775838746
23
1.5846642276159686
33
1.6237976320958227
0
TEXT
8
FacesName
10
-1.351994494522509
20
1.452543467332319
30
1.7493988160479115
40
0.02
1
11.4
72
1
11
-1.351994494522509
21
1.452543467332319
31
1.7493988160479115
73
2
0
3DFACE
8
Faces
10
-1.3723594775838746
20
1.5846642276159686
30
1.6237976320958227
11
-1.4823176532039277
21
1.4823176532039277
31
1.6237976320958227
12
-1.7539019000502851
22
1.7539019000502851
32
0.9375000000000001
13
-1.6237976320958223
23
1.875
33
0.9375000000000001
0
TEXT
8
FacesName
10
-1.5580941657334775
20
1.6739709452175453
30
1.2806488160479115
40
0.02
1
11.5
72
1
11
-1.5580941657334775
21
1.6739709452175453
31
1.2806488160479115
73
2
0
3DFACE
8
Faces
10
-1.6237976320958223
20
1.875
30
0.9375000000000001
11
-1.7539019000502851
21
1.7539019000502851
31
0.9375000000000001
12
-1.8750000000000002
22
1.8750000000000002
32
2.7939677238464355e-08
13
-1.6237976320958223
23
1.875
33
0.9375000000000001
0
TEXT
8
FacesName
10
-1.7191242910604825
20
1.8447254750125712
30
0.7031250069849194
40
0.02
1
11.6
72
1
11
-1.7191242910604825
21
1.8447254750125712
31
0.7031250069849194
73
2
0
3DFACE
8
Faces
10
1.62366760544155e-16
20
0.0
30
2.6516504294495533
11
1.62366760544155e-16
21
0.0
31
2.6516504294495533
12
-0.3910506131034393
22
0.33865976511305834
32
2.6006997099790263
13
-0.3657943537802406
23
0.3657943537802406
33
2.6006997099790263
0
TEXT
8
FacesName
10
-0.1892112417209199
20
0.17611352972332472
30
2.62617506971429
40
0.02
1
12.0
72
1
11
-0.1892112417209199
21
0.17611352972332472
31
2.62617506971429
73
2
0
3DFACE
8
Faces
10
-0.3657943537802406
20
0.3657943537802406
30
2.6006997099790263
11
-0.3910506131034393
21
0.33865976511305834
31
2.6006997099790263
12
-0.7670733704490237
22
0.6643050253754061
32
2.449805559143206
13
-0.7175314356845435
23
0.7175314356845435
33
2.449805559143206
0
TEXT
8
FacesName
10
-0.5603624432543117
20
0.5215726449883121
30
2.525252634561116
40
0.02
1
12.1
72
1
11
-0.5603624432543117
21
0.5215726449883121
31
2.525252634561116
73
2
0
3DFACE
8
Faces
10
-0.7175314356845435
20
0.7175314356845435
30
2.449805559143206
11
-0.7670733704490237
21
0.6643050253754061
31
2.449805559143206
12
-1.1136179283479541
22
0.9644214160591272
32
2.2047667545362977
13
-1.0416941869117542
23
1.0416941869117542
33
2.2047667545362977
0
TEXT
8
FacesName
10
-0.9099792303483188
20
0.8469880160077078
30
2.327286156839752
40
0.02
1
12.2
72
1
11
-0.9099792303483188
21
0.8469880160077078
31
2.327286156839752
73
2
0
3DFACE
8
Faces
10
-1.0416941869117542
20
1.0416941869117542
30
2.2047667545362977
11
-1.1136179283479541
21
0.9644214160591272
31
2.2047667545362977
12
-1.4173667737846023
22
1.2274756325774576
32
1.8750000000000002
13
-1.325825214724777
23
1.325825214724777
33
1.8750000000000002
0
TEXT
8
FacesName
10
-1.224626025942272
20
1.139854112568279
30
2.039883377268149
40
0.02
1
12.3
72
1
11
-1.224626025942272
21
1.139854112568279
31
2.039883377268149
73
2
0
3DFACE
8
Faces
10
-1.325825214724777
20
1.325825214724777
30
1.8750000000000002
11
-1.4173667737846023
21
1.2274756325774576
31
1.8750000000000002
12
-1.5846642276159684
22
1.3723594775838748
32
1.6237976320958227
13
-1.4823176532039277
23
1.4823176532039277
33
1.6237976320958227
0
TEXT
8
FacesName
10
-1.4525434673323188
20
1.3519944945225093
30
1.7493988160479115
40
0.02
1
12.4
72
1
11
-1.4525434673323188
21
1.3519944945225093
31
1.7493988160479115
73
2
0
3DFACE
8
Faces
10
-1.4823176532039277
20
1.4823176532039277
30
1.6237976320958227
11
-1.5846642276159684
21
1.3723594775838748
31
1.6237976320958227
12
-1.8749999999999998
22
1.6237976320958225
32
0.9375000000000001
13
-1.7539019000502851
23
1.7539019000502851
33
0.9375000000000001
0
TEXT
8
FacesName
10
-1.6739709452175453
20
1.5580941657334775
30
1.2806488160479115
40
0.02
1
12.5
72
1
11
-1.6739709452175453
21
1.5580941657334775
31
1.2806488160479115
73
2
0
3DFACE
8
Faces
10
-1.7539019000502851
20
1.7539019000502851
30
0.9375000000000001
11
-1.8749999999999998
21
1.6237976320958225
31
0.9375000000000001
12
-1.8749999999999998
22
1.6237976320958225
32
0.9375000000000001
13
-1.8750000000000002
23
1.8750000000000002
33
2.7939677238464355e-08
0
TEXT
8
FacesName
10
-1.8447254750125712
20
1.7191242910604825
30
0.7031250069849194
40
0.02
1
12.6
72
1
11
-1.8447254750125712
21
1.7191242910604825
31
0.7031250069849194
73
2
0
3DFACE
8
Faces
10
1.62366760544155e-16
20
0.0
30
2.6516504294495533
11
1.62366760544155e-16
21
0.0
31
2.6516504294495533
12
-0.4626973252699934
22
0.2313486626349967
32
2.6006997099790263
13
-0.3910506131034393
23
0.33865976511305834
33
2.6006997099790263
0
TEXT
8
FacesName
10
-0.21343698459335808
20
0.14250210693701376
30
2.62617506971429
40
0.02
1
13.0
72
1
11
-0.21343698459335808
21
0.14250210693701376
31
2.62617506971429
73
2
0
3DFACE
8
Faces
10
-0.3910506131034393
20
0.33865976511305834
30
2.6006997099790263
11
-0.4626973252699934
21
0.2313486626349967
31
2.6006997099790263
12
-0.9076134518135104
22
0.4538067259067552
32
2.449805559143206
13
-0.7670733704490237
23
0.6643050253754061
33
2.449805559143206
0
TEXT
8
FacesName
10
-0.6321086901589917
20
0.42203004475755407
30
2.525252634561116
40
0.02
1
13.1
72
1
11
-0.6321086901589917
21
0.42203004475755407
31
2.525252634561116
73
2
0
3DFACE
8
Faces
10
-0.7670733704490237
20
0.6643050253754061
30
2.449805559143206
11
-0.9076134518135104
21
0.4538067259067552
31
2.449805559143206
12
-1.3176505023993217
22
0.6588252511996608
32
2.2047667545362977
13
-1.1136179283479541
23
0.9644214160591272
33
2.2047667545362977
0
TEXT
8
FacesName
10
-1.0264888132524526
20
0.6853396046352374
30
2.327286156839752
40
0.02
1
13.2
72
1
11
-1.0264888132524526
21
0.6853396046352374
31
2.327286156839752
73
2
0
3DFACE
8
Faces
10
-1.1136179283479541
20
0.9644214160591272
30
2.2047667545362977
11
-1.3176505023993217
21
0.6588252511996608
31
2.2047667545362977
12
-1.6770509831248426
22
0.8385254915624213
32
1.8750000000000002
13
-1.4173667737846023
23
1.2274756325774576
33
1.8750000000000002
0
TEXT
8
FacesName
10
-1.3814215469141802
20
0.9223119478496667
30
2.039883377268149
40
0.02
1
13.3
72
1
11
-1.3814215469141802
21
0.9223119478496667
31
2.039883377268149
73
2
0
3DFACE
8
Faces
10
-1.4173667737846023
20
1.2274756325774576
30
1.8750000000000002
11
-1.6770509831248426
21
0.8385254915624213
31
1.8750000000000002
12
-1.8749999999999998
22
0.9374999999999999
32
1.6237976320958227
13
-1.5846642276159684
23
1.3723594775838748
33
1.6237976320958227
0
TEXT
8
FacesName
10
-1.638520496131353
20
1.0939651504309384
30
1.7493988160479115
40
0.02
1
13.4
72
1
11
-1.638520496131353
21
1.0939651504309384
31
1.7493988160479115
73
2
0
3DFACE
8
Faces
10
-1.5846642276159684
20
1.3723594775838748
30
1.6237976320958227
11
-1.8749999999999998
21
0.9374999999999999
31
1.6237976320958227
12
-1.8749999999999998
22
0.9374999999999999
32
1.6237976320958227
13
-1.8749999999999998
23
1.6237976320958225
33
0.9375000000000001
0
TEXT
8
FacesName
10
-1.802416056903992
20
1.2177892774199242
30
1.452223224071867
40
0.02
1
13.5
72
1
11
-1.802416056903992
21
1.2177892774199242
31
1.452223224071867
73
2
0
3DFACE
8
Faces
10
1.62366760544155e-16
20
0.0
30
2.6516504294495533
11
1.62366760544155e-16
21
0.0
31
2.6516504294495533
12
-0.5173113361555183
22
-0.0
32
2.6006997099790263
13
-0.4626973252699934
23
0.2313486626349967
33
2.6006997099790263
0
TEXT
8
FacesName
10
-0.24500216535637784
20
0.057837165658749176
30
2.62617506971429
40
0.02
1
14.0
72
1
11
-0.24500216535637784
21
0.057837165658749176
31
2.62617506971429
73
2
0
3DFACE
8
Faces
10
-0.4626973252699934
20
0.2313486626349967
30
2.6006997099790263
11
-0.5173113361555183
21
-0.0
31
2.6006997099790263
12
-1.0147426877741195
22
-0.0
32
2.449805559143206
13
-0.9076134518135104
23
0.4538067259067552
33
2.449805559143206
0
TEXT
8
FacesName
10
-0.7255912002532854
20
0.17128884713543796
30
2.525252634561116
40
0.02
1
14.1
72
1
11
-0.7255912002532854
21
0.17128884713543796
31
2.525252634561116
73
2
0
3DFACE
8
Faces
10
-0.9076134518135104
20
0.4538067259067552
30
2.449805559143206
11
-1.0147426877741195
21
-0.0
31
2.449805559143206
12
-1.4731780469758167
22
-0.0
32
2.2047667545362977
13
-1.3176505023993217
23
0.6588252511996608
33
2.2047667545362977
0
TEXT
8
FacesName
10
-1.178296172240692
20
0.27815799427660404
30
2.327286156839752
40
0.02
1
14.2
72
1
11
-1.178296172240692
21
0.27815799427660404
31
2.327286156839752
73
2
0
3DFACE
8
Faces
10
-1.3176505023993217
20
0.6588252511996608
30
2.2047667545362977
11
-1.4731780469758167
21
-0.0
31
2.2047667545362977
12
-1.8750000000000004
22
-0.0
32
1.8750000000000002
13
-1.6770509831248426
23
0.8385254915624213
33
1.8750000000000002
0
TEXT
8
FacesName
10
-1.5857198831249952
20
0.3743376856905205
30
2.039883377268149
40
0.02
1
14.3
72
1
11
-1.5857198831249952
21
0.3743376856905205
31
2.039883377268149
73
2
0
3DFACE
8
Faces
10
-1.6770509831248426
20
0.8385254915624213
30
1.8750000000000002
11
-1.8750000000000004
21
-0.0
31
1.8750000000000002
12
-1.8750000000000004
22
-0.0
32
1.8750000000000002
13
-1.8749999999999998
23
0.9374999999999999
33
1.6237976320958227
0
TEXT
8
FacesName
10
-1.8255127457812108
20
0.4440063728906053
30
1.8121994080239558
40
0.02
1
14.4
72
1
11
-1.8255127457812108
21
0.4440063728906053
31
1.8121994080239558
73
2
0
3DFACE
8
Faces
10
1.62366760544155e-16
20
0.0
30
2.6516504294495533
11
1.62366760544155e-16
21
0.0
31
2.6516504294495533
12
-0.46269732526999346
22
-0.23134866263499665
32
2.6006997099790263
13
-0.5173113361555183
23
-0.0
33
2.6006997099790263
0
TEXT
8
FacesName
10
-0.24500216535637787
20
-0.05783716565874916
30
2.62617506971429
40
0.02
1
15.0
72
1
11
-0.24500216535637787
21
-0.05783716565874916
31
2.62617506971429
73
2
0
3DFACE
8
Faces
10
-0.5173113361555183
20
-0.0
30
2.6006997099790263
11
-0.46269732526999346
21
-0.23134866263499665
31
2.6006997099790263
12
-0.9076134518135105
22
-0.453806725906755
32
2.449805559143206
13
-1.0147426877741195
23
-0.0
33
2.449805559143206
0
TEXT
8
FacesName
10
-0.7255912002532854
20
-0.1712888471354379
30
2.525252634561116
40
0.02
1
15.1
72
1
11
-0.7255912002532854
21
-0.1712888471354379
31
2.525252634561116
73
2
0
3DFACE
8
Faces
10
-1.0147426877741195
20
-0.0
30
2.449805559143206
11
-0.9076134518135105
21
-0.453806725906755
31
2.449805559143206
12
-1.317650502399322
22
-0.6588252511996607
32
2.2047667545362977
13
-1.4731780469758167
23
-0.0
33
2.2047667545362977
0
TEXT
8
FacesName
10
-1.1782961722406922
20
-0.2781579942766039
30
2.327286156839752
40
0.02
1
15.2
72
1
11
-1.1782961722406922
21
-0.2781579942766039
31
2.327286156839752
73
2
0
3DFACE
8
Faces
10
-1.4731780469758167
20
-0.0
30
2.2047667545362977
11
-1.317650502399322
21
-0.6588252511996607
31
2.2047667545362977
12
-1.6770509831248428
22
-0.8385254915624211
32
1.8750000000000002
13
-1.8750000000000004
23
-0.0
33
1.8750000000000002
0
TEXT
8
FacesName
10
-1.5857198831249955
20
-0.37433768569052045
30
2.039883377268149
40
0.02
1
15.3
72
1
11
-1.5857198831249955
21
-0.37433768569052045
31
2.039883377268149
73
2
0
3DFACE
8
Faces
10
-1.8750000000000004
20
-0.0
30
1.8750000000000002
11
-1.6770509831248428
21
-0.8385254915624211
31
1.8750000000000002
12
-1.875
22
-0.9374999999999997
32
1.6237976320958227
13
-1.8750000000000004
23
-0.0
33
1.8750000000000002
0
TEXT
8
FacesName
10
-1.8255127457812108
20
-0.4440063728906052
30
1.8121994080239558
40
0.02
1
15.4
72
1
11
-1.8255127457812108
21
-0.4440063728906052
31
1.8121994080239558
73
2
0
3DFACE
8
Faces
10
1.62366760544155e-16
20
0.0
30
2.6516504294495533
11
1.62366760544155e-16
21
0.0
31
2.6516504294495533
12
-0.39105061310343936
22
-0.3386597651130583
32
2.6006997099790263
13
-0.46269732526999346
23
-0.23134866263499665
33
2.6006997099790263
0
TEXT
8
FacesName
10
-0.21343698459335814
20
-0.14250210693701373
30
2.62617506971429
40
0.02
1
16.0
72
1
11
-0.21343698459335814
21
-0.14250210693701373
31
2.62617506971429
73
2
0
3DFACE
8
Faces
10
-0.46269732526999346
20
-0.23134866263499665
30
2.6006997099790263
11
-0.39105061310343936
21
-0.3386597651130583
31
2.6006997099790263
12
-0.7670733704490238
22
-0.664305025375406
32
2.449805559143206
13
-0.9076134518135105
23
-0.453806725906755
33
2.449805559143206
0
TEXT
8
FacesName
10
-0.6321086901589917
20
-0.422030044757554
30
2.525252634561116
40
0.02
1
16.1
72
1
11
-0.6321086901589917
21
-0.422030044757554
31
2.525252634561116
73
2
0
3DFACE
8
Faces
10
-0.9076134518135105
20
-0.453806725906755
30
2.449805559143206
11
-0.7670733704490238
21
-0.664305025375406
31
2.449805559143206
12
-1.1136179283479544
22
-0.9644214160591271
32
2.2047667545362977
13
-1.317650502399322
23
-0.6588252511996607
33
2.2047667545362977
0
TEXT
8
FacesName
10
-1.0264888132524526
20
-0.6853396046352372
30
2.327286156839752
40
0.02
1
16.2
72
1
11
-1.0264888132524526
21
-0.6853396046352372
31
2.327286156839752
73
2
0
3DFACE
8
Faces
10
-1.317650502399322
20
-0.6588252511996607
30
2.2047667545362977
11
-1.1136179283479544
21
-0.9644214160591271
31
2.2047667545362977
12
-1.4173667737846025
22
-1.2274756325774574
32
1.8750000000000002
13
-1.6770509831248428
23
-0.8385254915624211
33
1.8750000000000002
0
TEXT
8
FacesName
10
-1.3814215469141804
20
-0.9223119478496665
30
2.039883377268149
40
0.02
1
16.3
72
1
11
-1.3814215469141804
21
-0.9223119478496665
31
2.039883377268149
73
2
0
3DFACE
8
Faces
10
-1.6770509831248428
20
-0.8385254915624211
30
1.8750000000000002
11
-1.4173667737846025
21
-1.2274756325774574
31
1.8750000000000002
12
-1.5846642276159686
22
-1.3723594775838746
32
1.6237976320958227
13
-1.875
23
-0.9374999999999997
33
1.6237976320958227
0
TEXT
8
FacesName
10
-1.6385204961313535
20
-1.0939651504309382
30
1.7493988160479115
40
0.02
1
16.4
72
1
11
-1.6385204961313535
21
-1.0939651504309382
31
1.7493988160479115
73
2
0
3DFACE
8
Faces
10
-1.875
20
-0.9374999999999997
30
1.6237976320958227
11
-1.5846642276159686
21
-1.3723594775838746
31
1.6237976320958227
12
-1.875
22
-1.6237976320958223
32
0.9375000000000001
13
-1.875
23
-0.9374999999999997
33
1.6237976320958227
0
TEXT
8
FacesName
10
-1.8024160569039922
20
-1.2177892774199242
30
1.452223224071867
40
0.02
1
16.5
72
1
11
-1.8024160569039922
21
-1.2177892774199242
31
1.452223224071867
73
2
0
3DFACE
8
Faces
10
1.62366760544155e-16
20
0.0
30
2.6516504294495533
11
1.62366760544155e-16
21
0.0
31
2.6516504294495533
12
-0.3657943537802406
22
-0.3657943537802406
32
2.6006997099790263
13
-0.39105061310343936
23
-0.3386597651130583
33
2.6006997099790263
0
TEXT
8
FacesName
10
-0.1892112417209199
20
-0.17611352972332472
30
2.62617506971429
40
0.02
1
17.0
72
1
11
-0.1892112417209199
21
-0.17611352972332472
31
2.62617506971429
73
2
0
3DFACE
8
Faces
10
-0.39105061310343936
20
-0.3386597651130583
30
2.6006997099790263
11
-0.3657943537802406
21
-0.3657943537802406
31
2.6006997099790263
12
-0.7175314356845435
22
-0.7175314356845435
32
2.449805559143206
13
-0.7670733704490238
23
-0.664305025375406
33
2.449805559143206
0
TEXT
8
FacesName
10
-0.5603624432543118
20
-0.5215726449883121
30
2.525252634561116
40
0.02
1
17.1
72
1
11
-0.5603624432543118
21
-0.5215726449883121
31
2.525252634561116
73
2
0
3DFACE
8
Faces
10
-0.7670733704490238
20
-0.664305025375406
30
2.449805559143206
11
-0.7175314356845435
21
-0.7175314356845435
31
2.449805559143206
12
-1.0416941869117542
22
-1.0416941869117542
32
2.2047667545362977
13
-1.1136179283479544
23
-0.9644214160591271
33
2.2047667545362977
0
TEXT
8
FacesName
10
-0.909979230348319
20
-0.8469880160077077
30
2.327286156839752
40
0.02
1
17.2
72
1
11
-0.909979230348319
21
-0.8469880160077077
31
2.327286156839752
73
2
0
3DFACE
8
Faces
10
-1.1136179283479544
20
-0.9644214160591271
30
2.2047667545362977
11
-1.0416941869117542
21
-1.0416941869117542
31
2.2047667545362977
12
-1.325825214724777
22
-1.325825214724777
32
1.8750000000000002
13
-1.4173667737846025
23
-1.2274756325774574
33
1.8750000000000002
0
TEXT
8
FacesName
10
-1.224626025942272
20
-1.139854112568279
30
2.039883377268149
40
0.02
1
17.3
72
1
11
-1.224626025942272
21
-1.139854112568279
31
2.039883377268149
73
2
0
3DFACE
8
Faces
10
-1.4173667737846025
20
-1.2274756325774574
30
1.8750000000000002
11
-1.325825214724777
21
-1.325825214724777
31
1.8750000000000002
12
-1.4823176532039277
22
-1.4823176532039277
32
1.6237976320958227
13
-1.5846642276159686
23
-1.3723594775838746
33
1.6237976320958227
0
TEXT
8
FacesName
10
-1.452543467332319
20
-1.351994494522509
30
1.7493988160479115
40
0.02
1
17.4
72
1
11
-1.452543467332319
21
-1.351994494522509
31
1.7493988160479115
73
2
0
3DFACE
8
Faces
10
-1.5846642276159686
20
-1.3723594775838746
30
1.6237976320958227
11
-1.4823176532039277
21
-1.4823176532039277
31
1.6237976320958227
12
-1.7539019000502851
22
-1.7539019000502851
32
0.9375000000000001
13
-1.875
23
-1.6237976320958223
33
0.9375000000000001
0
TEXT
8
FacesName
10
-1.6739709452175453
20
-1.5580941657334775
30
1.2806488160479115
40
0.02
1
17.5
72
1
11
-1.6739709452175453
21
-1.5580941657334775
31
1.2806488160479115
73
2
0
3DFACE
8
Faces
10
-1.875
20
-1.6237976320958223
30
0.9375000000000001
11
-1.7539019000502851
21
-1.7539019000502851
31
0.9375000000000001
12
-1.8750000000000002
22
-1.8750000000000002
32
2.7939677238464355e-08
13
-1.875
23
-1.6237976320958223
33
0.9375000000000001
0
TEXT
8
FacesName
10
-1.8447254750125712
20
-1.7191242910604825
30
0.7031250069849194
40
0.02
1
17.6
72
1
11
-1.8447254750125712
21
-1.7191242910604825
31
0.7031250069849194
73
2
0
3DFACE
8
Faces
10
1.62366760544155e-16
20
0.0
30
2.6516504294495533
11
1.62366760544155e-16
21
0.0
31
2.6516504294495533
12
-0.33865976511305834
22
-0.3910506131034393
32
2.6006997099790263
13
-0.3657943537802406
23
-0.3657943537802406
33
2.6006997099790263
0
TEXT
8
FacesName
10
-0.17611352972332467
20
-0.18921124172091996
30
2.62617506971429
40
0.02
1
18.0
72
1
11
-0.17611352972332467
21
-0.18921124172091996
31
2.62617506971429
73
2
0
3DFACE
8
Faces
10
-0.3657943537802406
20
-0.3657943537802406
30
2.6006997099790263
11
-0.33865976511305834
21
-0.3910506131034393
31
2.6006997099790263
12
-0.6643050253754061
22
-0.7670733704490237
32
2.449805559143206
13
-0.7175314356845435
23
-0.7175314356845435
33
2.449805559143206
0
TEXT
8
FacesName
10
-0.5215726449883121
20
-0.5603624432543117
30
2.525252634561116
40
0.02
1
18.1
72
1
11
-0.5215726449883121
21
-0.5603624432543117
31
2.525252634561116
73
2
0
3DFACE
8
Faces
10
-0.7175314356845435
20
-0.7175314356845435
30
2.449805559143206
11
-0.6643050253754061
21
-0.7670733704490237
31
2.449805559143206
12
-0.9644214160591272
22
-1.1136179283479541
32
2.2047667545362977
13
-1.0416941869117542
23
-1.0416941869117542
33
2.2047667545362977
0
TEXT
8
FacesName
10
-0.8469880160077078
20
-0.9099792303483188
30
2.327286156839752
40
0.02
1
18.2
72
1
11
-0.8469880160077078
21
-0.9099792303483188
31
2.327286156839752
73
2
0
3DFACE
8
Faces
10
-1.0416941869117542
20
-1.0416941869117542
30
2.2047667545362977
11
-0.9644214160591272
21
-1.1136179283479541
31
2.2047667545362977
12
-1.2274756325774576
22
-1.4173667737846023
32
1.8750000000000002
13
-1.325825214724777
23
-1.325825214724777
33
1.8750000000000002
0
TEXT
8
FacesName
10
-1.139854112568279
20
-1.224626025942272
30
2.039883377268149
40
0.02
1
18.3
72
1
11
-1.139854112568279
21
-1.224626025942272
31
2.039883377268149
73
2
0
3DFACE
8
Faces
10
-1.325825214724777
20
-1.325825214724777
30
1.8750000000000002
11
-1.2274756325774576
21
-1.4173667737846023
31
1.8750000000000002
12
-1.3723594775838748
22
-1.5846642276159684
32
1.6237976320958227
13
-1.4823176532039277
23
-1.4823176532039277
33
1.6237976320958227
0
TEXT
8
FacesName
10
-1.3519944945225093
20
-1.4525434673323188
30
1.7493988160479115
40
0.02
1
18.4
72
1
11
-1.3519944945225093
21
-1.4525434673323188
31
1.7493988160479115
73
2
0
3DFACE
8
Faces
10
-1.4823176532039277
20
-1.4823176532039277
30
1.6237976320958227
11
-1.3723594775838748
21
-1.5846642276159684
31
1.6237976320958227
12
-1.6237976320958225
22
-1.8749999999999998
32
0.9375000000000001
13
-1.7539019000502851
23
-1.7539019000502851
33
0.9375000000000001
0
TEXT
8
FacesName
10
-1.5580941657334775
20
-1.6739709452175453
30
1.2806488160479115
40
0.02
1
18.5
72
1
11
-1.5580941657334775
21
-1.6739709452175453
31
1.2806488160479115
73
2
0
3DFACE
8
Faces
10
-1.7539019000502851
20
-1.7539019000502851
30
0.9375000000000001
11
-1.6237976320958225
21
-1.8749999999999998
31
0.9375000000000001
12
-1.6237976320958225
22
-1.8749999999999998
32
0.9375000000000001
13
-1.8750000000000002
23
-1.8750000000000002
33
2.7939677238464355e-08
0
TEXT
8
FacesName
10
-1.7191242910604825
20
-1.8447254750125712
30
0.7031250069849194
40
0.02
1
18.6
72
1
11
-1.7191242910604825
21
-1.8447254750125712
31
0.7031250069849194
73
2
0
3DFACE
8
Faces
10
1.62366760544155e-16
20
0.0
30
2.6516504294495533
11
1.62366760544155e-16
21
0.0
31
2.6516504294495533
12
-0.2313486626349967
22
-0.4626973252699934
32
2.6006997099790263
13
-0.33865976511305834
23
-0.3910506131034393
33
2.6006997099790263
0
TEXT
8
FacesName
10
-0.14250210693701368
20
-0.2134369845933582
30
2.62617506971429
40
0.02
1
19.0
72
1
11
-0.14250210693701368
21
-0.2134369845933582
31
2.62617506971429
73
2
0
3DFACE
8
Faces
10
-0.33865976511305834
20
-0.3910506131034393
30
2.6006997099790263
11
-0.2313486626349967
21
-0.4626973252699934
31
2.6006997099790263
12
-0.4538067259067552
22
-0.9076134518135104
32
2.449805559143206
13
-0.6643050253754061
23
-0.7670733704490237
33
2.449805559143206
0
TEXT
8
FacesName
10
-0.42203004475755407
20
-0.6321086901589917
30
2.525252634561116
40
0.02
1
19.1
72
1
11
-0.42203004475755407
21
-0.6321086901589917
31
2.525252634561116
73
2
0
3DFACE
8
Faces
10
-0.6643050253754061
20
-0.7670733704490237
30
2.449805559143206
11
-0.4538067259067552
21
-0.9076134518135104
31
2.449805559143206
12
-0.6588252511996608
22
-1.3176505023993217
32
2.2047667545362977
13
-0.9644214160591272
23
-1.1136179283479541
33
2.2047667545362977
0
TEXT
8
FacesName
10
-0.6853396046352374
20
-1.0264888132524526
30
2.327286156839752
40
0.02
1
19.2
72
1
11
-0.6853396046352374
21
-1.0264888132524526
31
2.327286156839752
73
2
0
3DFACE
8
Faces
10
-0.9644214160591272
20
-1.1136179283479541
30
2.2047667545362977
11
-0.6588252511996608
21
-1.3176505023993217
31
2.2047667545362977
12
-0.8385254915624213
22
-1.6770509831248426
32
1.8750000000000002
13
-1.2274756325774576
23
-1.4173667737846023
33
1.8750000000000002
0
TEXT
8
FacesName
10
-0.9223119478496667
20
-1.3814215469141802
30
2.039883377268149
40
0.02
1
19.3
72
1
11
-0.9223119478496667
21
-1.3814215469141802
31
2.039883377268149
73
2
0
3DFACE
8
Faces
10
-1.2274756325774576
20
-1.4173667737846023
30
1.8750000000000002
11
-0.8385254915624213
21
-1.6770509831248426
31
1.8750000000000002
12
-0.9374999999999999
22
-1.8749999999999998
32
1.6237976320958227
13
-1.3723594775838748
23
-1.5846642276159684
33
1.6237976320958227
0
TEXT
8
FacesName
10
-1.0939651504309384
20
-1.638520496131353
30
1.7493988160479115
40
0.02
1
19.4
72
1
11
-1.0939651504309384
21
-1.638520496131353
31
1.7493988160479115
73
2
0
3DFACE
8
Faces
10
-1.3723594775838748
20
-1.5846642276159684
30
1.6237976320958227
11
-0.9374999999999999
21
-1.8749999999999998
31
1.6237976320958227
12
-0.9374999999999999
22
-1.8749999999999998
32
1.6237976320958227
13
-1.6237976320958225
23
-1.8749999999999998
33
0.9375000000000001
0
TEXT
8
FacesName
10
-1.2177892774199242
20
-1.802416056903992
30
1.452223224071867
40
0.02
1
19.5
72
1
11
-1.2177892774199242
21
-1.802416056903992
31
1.452223224071867
73
2
0
3DFACE
8
Faces
10
1.62366760544155e-16
20
0.0
30
2.6516504294495533
11
1.62366760544155e-16
21
0.0
31
2.6516504294495533
12
0.0
22
-0.5173113361555183
32
2.6006997099790263
13
-0.2313486626349967
23
-0.4626973252699934
33
2.6006997099790263
0
TEXT
8
FacesName
10
-0.05783716565874909
20
-0.24500216535637792
30
2.62617506971429
40
0.02
1
20.0
72
1
11
-0.05783716565874909
21
-0.24500216535637792
31
2.62617506971429
73
2
0
3DFACE
8
Faces
10
-0.2313486626349967
20
-0.4626973252699934
30
2.6006997099790263
11
0.0
21
-0.5173113361555183
31
2.6006997099790263
12
0.0
22
-1.0147426877741195
32
2.449805559143206
13
-0.4538067259067552
23
-0.9076134518135104
33
2.449805559143206
0
TEXT
8
FacesName
10
-0.17128884713543796
20
-0.7255912002532854
30
2.525252634561116
40
0.02
1
20.1
72
1
11
-0.17128884713543796
21
-0.7255912002532854
31
2.525252634561116
73
2
0
3DFACE
8
Faces
10
-0.4538067259067552
20
-0.9076134518135104
30
2.449805559143206
11
0.0
21
-1.0147426877741195
31
2.449805559143206
12
0.0
22
-1.4731780469758167
32
2.2047667545362977
13
-0.6588252511996608
23
-1.3176505023993217
33
2.2047667545362977
0
TEXT
8
FacesName
10
-0.27815799427660404
20
-1.178296172240692
30
2.327286156839752
40
0.02
1
20.2
72
1
11
-0.27815799427660404
21
-1.178296172240692
31
2.327286156839752
73
2
0
3DFACE
8
Faces
10
-0.6588252511996608
20
-1.3176505023993217
30
2.2047667545362977
11
0.0
21
-1.4731780469758167
31
2.2047667545362977
12
0.0
22
-1.8750000000000004
32
1.8750000000000002
13
-0.8385254915624213
23
-1.6770509831248426
33
1.8750000000000002
0
TEXT
8
FacesName
10
-0.3743376856905205
20
-1.5857198831249952
30
2.039883377268149
40
0.02
1
20.3
72
1
11
-0.3743376856905205
21
-1.5857198831249952
31
2.039883377268149
73
2
0
3DFACE
8
Faces
10
-0.8385254915624213
20
-1.6770509831248426
30
1.8750000000000002
11
0.0
21
-1.8750000000000004
31
1.8750000000000002
12
0.0
22
-1.8750000000000004
32
1.8750000000000002
13
-0.9374999999999999
23
-1.8749999999999998
33
1.6237976320958227
0
TEXT
8
FacesName
10
-0.4440063728906053
20
-1.8255127457812108
30
1.8121994080239558
40
0.02
1
20.4
72
1
11
-0.4440063728906053
21
-1.8255127457812108
31
1.8121994080239558
73
2
0
3DFACE
8
Faces
10
1.62366760544155e-16
20
0.0
30
2.6516504294495533
11
1.62366760544155e-16
21
0.0
31
2.6516504294495533
12
0.23134866263499665
22
-0.46269732526999346
32
2.6006997099790263
13
0.0
23
-0.5173113361555183
33
2.6006997099790263
0
TEXT
8
FacesName
10
0.057837165658749246
20
-0.24500216535637792
30
2.62617506971429
40
0.02
1
21.0
72
1
11
0.057837165658749246
21
-0.24500216535637792
31
2.62617506971429
73
2
0
3DFACE
8
Faces
10
0.0
20
-0.5173113361555183
30
2.6006997099790263
11
0.23134866263499665
21
-0.46269732526999346
31
2.6006997099790263
12
0.453806725906755
22
-0.9076134518135105
32
2.449805559143206
13
0.0
23
-1.0147426877741195
33
2.449805559143206
0
TEXT
8
FacesName
10
0.1712888471354379
20
-0.7255912002532854
30
2.525252634561116
40
0.02
1
21.1
72
1
11
0.1712888471354379
21
-0.7255912002532854
31
2.525252634561116
73
2
0
3DFACE
8
Faces
10
0.0
20
-1.0147426877741195
30
2.449805559143206
11
0.453806725906755
21
-0.9076134518135105
31
2.449805559143206
12
0.6588252511996607
22
-1.317650502399322
32
2.2047667545362977
13
0.0
23
-1.4731780469758167
33
2.2047667545362977
0
TEXT
8
FacesName
10
0.2781579942766039
20
-1.1782961722406922
30
2.327286156839752
40
0.02
1
21.2
72
1
11
0.2781579942766039
21
-1.1782961722406922
31
2.327286156839752
73
2
0
3DFACE
8
Faces
10
0.0
20
-1.4731780469758167
30
2.2047667545362977
11
0.6588252511996607
21
-1.317650502399322
31
2.2047667545362977
12
0.8385254915624211
22
-1.6770509831248428
32
1.8750000000000002
13
0.0
23
-1.8750000000000004
33
1.8750000000000002
0
TEXT
8
FacesName
10
0.37433768569052045
20
-1.5857198831249955
30
2.039883377268149
40
0.02
1
21.3
72
1
11
0.37433768569052045
21
-1.5857198831249955
31
2.039883377268149
73
2
0
3DFACE
8
Faces
10
0.0
20
-1.8750000000000004
30
1.8750000000000002
11
0.8385254915624211
21
-1.6770509831248428
31
1.8750000000000002
12
0.9374999999999997
22
-1.875
32
1.6237976320958227
13
0.0
23
-1.8750000000000004
33
1.8750000000000002
0
TEXT
8
FacesName
10
0.4440063728906052
20
-1.8255127457812108
30
1.8121994080239558
40
0.02
1
21.4
72
1
11
0.4440063728906052
21
-1.8255127457812108
31
1.8121994080239558
73
2
0
3DFACE
8
Faces
10
1.62366760544155e-16
20
0.0
30
2.6516504294495533
11
1.62366760544155e-16
21
0.0
31
2.6516504294495533
12
0.3386597651130583
22
-0.39105061310343936
32
2.6006997099790263
13
0.23134866263499665
23
-0.46269732526999346
33
2.6006997099790263
0
TEXT
8
FacesName
10
0.14250210693701382
20
-0.2134369845933582
30
2.62617506971429
40
0.02
1
22.0
72
1
11
0.14250210693701382
21
-0.2134369845933582
31
2.62617506971429
73
2
0
3DFACE
8
Faces
10
0.23134866263499665
20
-0.46269732526999346
30
2.6006997099790263
11
0.3386597651130583
21
-0.39105061310343936
31
2.6006997099790263
12
0.664305025375406
22
-0.7670733704490238
32
2.449805559143206
13
0.453806725906755
23
-0.9076134518135105
33
2.449805559143206
0
TEXT
8
FacesName
10
0.422030044757554
20
-0.6321086901589917
30
2.525252634561116
40
0.02
1
22.1
72
1
11
0.422030044757554
21
-0.6321086901589917
31
2.525252634561116
73
2
0
3DFACE
8
Faces
10
0.453806725906755
20
-0.9076134518135105
30
2.449805559143206
11
0.664305025375406
21
-0.7670733704490238
31
2.449805559143206
12
0.9644214160591271
22
-1.1136179283479544
32
2.2047667545362977
13
0.6588252511996607
23
-1.317650502399322
33
2.2047667545362977
0
TEXT
8
FacesName
10
0.6853396046352372
20
-1.0264888132524526
30
2.327286156839752
40
0.02
1
22.2
72
1
11
0.6853396046352372
21
-1.0264888132524526
31
2.327286156839752
73
2
0
3DFACE
8
Faces
10
0.6588252511996607
20
-1.317650502399322
30
2.2047667545362977
11
0.9644214160591271
21
-1.1136179283479544
31
2.2047667545362977
12
1.2274756325774574
22
-1.4173667737846025
32
1.8750000000000002
13
0.8385254915624211
23
-1.6770509831248428
33
1.8750000000000002
0
TEXT
8
FacesName
10
0.9223119478496665
20
-1.3814215469141804
30
2.039883377268149
40
0.02
1
22.3
72
1
11
0.9223119478496665
21
-1.3814215469141804
31
2.039883377268149
73
2
0
3DFACE
8
Faces
10
0.8385254915624211
20
-1.6770509831248428
30
1.8750000000000002
11
1.2274756325774574
21
-1.4173667737846025
31
1.8750000000000002
12
1.3723594775838746
22
-1.5846642276159686
32
1.6237976320958227
13
0.9374999999999997
23
-1.875
33
1.6237976320958227
0
TEXT
8
FacesName
10
1.0939651504309382
20
-1.6385204961313535
30
1.7493988160479115
40
0.02
1
22.4
72
1
11
1.0939651504309382
21
-1.6385204961313535
31
1.7493988160479115
73
2
0
3DFACE
8
Faces
10
0.9374999999999997
20
-1.875
30
1.6237976320958227
11
1.3723594775838746
21
-1.5846642276159686
31
1.6237976320958227
12
1.6237976320958223
22
-1.875
32
0.9375000000000001
13
0.9374999999999997
23
-1.875
33
1.6237976320958227
0
TEXT
8
FacesName
10
1.2177892774199242
20
-1.8024160569039922
30
1.452223224071867
40
0.02
1
22.5
72
1
11
1.2177892774199242
21
-1.8024160569039922
31
1.452223224071867
73
2
0
3DFACE
8
Faces
10
1.62366760544155e-16
20
0.0
30
2.6516504294495533
11
1.62366760544155e-16
21
0.0
31
2.6516504294495533
12
0.3657943537802406
22
-0.3657943537802406
32
2.6006997099790263
13
0.3386597651130583
23
-0.39105061310343936
33
2.6006997099790263
0
TEXT
8
FacesName
10
0.1761135297233248
20
-0.18921124172092
30
2.62617506971429
40
0.02
1
23.0
72
1
11
0.1761135297233248
21
-0.18921124172092
31
2.62617506971429
73
2
0
3DFACE
8
Faces
10
0.3386597651130583
20
-0.39105061310343936
30
2.6006997099790263
11
0.3657943537802406
21
-0.3657943537802406
31
2.6006997099790263
12
0.7175314356845435
22
-0.7175314356845435
32
2.449805559143206
13
0.664305025375406
23
-0.7670733704490238
33
2.449805559143206
0
TEXT
8
FacesName
10
0.5215726449883121
20
-0.5603624432543118
30
2.525252634561116
40
0.02
1
23.1
72
1
11
0.5215726449883121
21
-0.5603624432543118
31
2.525252634561116
73
2
0
3DFACE
8
Faces
10
0.664305025375406
20
-0.7670733704490238
30
2.449805559143206
11
0.7175314356845435
21
-0.7175314356845435
31
2.449805559143206
12
1.0416941869117542
22
-1.0416941869117542
32
2.2047667545362977
13
0.9644214160591271
23
-1.1136179283479544
33
2.2047667545362977
0
TEXT
8
FacesName
10
0.8469880160077077
20
-0.909979230348319
30
2.327286156839752
40
0.02
1
23.2
72
1
11
0.8469880160077077
21
-0.909979230348319
31
2.327286156839752
73
2
0
3DFACE
8
Faces
10
0.9644214160591271
20
-1.1136179283479544
30
2.2047667545362977
11
1.0416941869117542
21
-1.0416941869117542
31
2.2047667545362977
12
1.325825214724777
22
-1.325825214724777
32
1.8750000000000002
13
1.2274756325774574
23
-1.4173667737846025
33
1.8750000000000002
0
TEXT
8
FacesName
10
1.139854112568279
20
-1.224626025942272
30
2.039883377268149
40
0.02
1
23.3
72
1
11
1.139854112568279
21
-1.224626025942272
31
2.039883377268149
73
2
0
3DFACE
8
Faces
10
1.2274756325774574
20
-1.4173667737846025
30
1.8750000000000002
11
1.325825214724777
21
-1.325825214724777
31
1.8750000000000002
12
1.4823176532039277
22
-1.4823176532039277
32
1.6237976320958227
13
1.3723594775838746
23
-1.5846642276159686
33
1.6237976320958227
0
TEXT
8
FacesName
10
1.351994494522509
20
-1.452543467332319
30
1.7493988160479115
40
0.02
1
23.4
72
1
11
1.351994494522509
21
-1.452543467332319
31
1.7493988160479115
73
2
0
3DFACE
8
Faces
10
1.3723594775838746
20
-1.5846642276159686
30
1.6237976320958227
11
1.4823176532039277
21
-1.4823176532039277
31
1.6237976320958227
12
1.7539019000502851
22
-1.7539019000502851
32
0.9375000000000001
13
1.6237976320958223
23
-1.875
33
0.9375000000000001
0
TEXT
8
FacesName
10
1.5580941657334775
20
-1.6739709452175453
30
1.2806488160479115
40
0.02
1
23.5
72
1
11
1.5580941657334775
21
-1.6739709452175453
31
1.2806488160479115
73
2
0
3DFACE
8
Faces
10
1.6237976320958223
20
-1.875
30
0.9375000000000001
11
1.7539019000502851
21
-1.7539019000502851
31
0.9375000000000001
12
1.8750000000000002
22
-1.8750000000000002
32
2.7939677238464355e-08
13
1.6237976320958223
23
-1.875
33
0.9375000000000001
0
TEXT
8
FacesName
10
1.7191242910604825
20
-1.8447254750125712
30
0.7031250069849194
40
0.02
1
23.6
72
1
11
1.7191242910604825
21
-1.8447254750125712
31
0.7031250069849194
73
2
0
POINT
8
NodiEsterni
10
2.125
20
-1.8750000000000002
30
2.7939677238464355e-08
0
LINE
8
ArchiBranches
10
1.8750000000000002
20
-1.8750000000000002
30
2.7939677238464355e-08
11
2.125
21
-1.8750000000000002
31
2.7939677238464355e-08
0
POINT
8
NodiEsterni
10
2.125
20
-1.6237976320958225
30
0.9375000000000001
0
LINE
8
ArchiBranches
10
2.125
20
-1.8750000000000002
30
2.7939677238464355e-08
11
2.125
21
-1.6237976320958225
31
0.9375000000000001
0
LINE
8
ArchiBranches
10
1.8749999999999998
20
-1.6237976320958225
30
0.9375000000000001
11
2.125
21
-1.6237976320958225
31
0.9375000000000001
0
POINT
8
NodiEsterni
10
2.125
20
-0.9374999999999999
30
1.6237976320958227
0
LINE
8
ArchiBranches
10
2.125
20
-1.6237976320958225
30
0.9375000000000001
11
2.125
21
-0.9374999999999999
31
1.6237976320958227
0
LINE
8
ArchiBranches
10
1.8749999999999998
20
-0.9374999999999999
30
1.6237976320958227
11
2.125
21
-0.9374999999999999
31
1.6237976320958227
0
POINT
8
NodiEsterni
10
2.1250000000000004
20
0.0
30
1.8750000000000002
0
LINE
8
ArchiBranches
10
2.125
20
-0.9374999999999999
30
1.6237976320958227
11
2.1250000000000004
21
0.0
31
1.8750000000000002
0
LINE
8
ArchiBranches
10
1.8750000000000004
20
0.0
30
1.8750000000000002
11
2.1250000000000004
21
0.0
31
1.8750000000000002
0
POINT
8
NodiEsterni
10
2.125
20
0.9374999999999997
30
1.6237976320958227
0
LINE
8
ArchiBranches
10
2.1250000000000004
20
0.0
30
1.8750000000000002
11
2.125
21
0.9374999999999997
31
1.6237976320958227
0
LINE
8
ArchiBranches
10
1.875
20
0.9374999999999997
30
1.6237976320958227
11
2.125
21
0.9374999999999997
31
1.6237976320958227
0
POINT
8
NodiEsterni
10
2.125
20
1.6237976320958223
30
0.9375000000000001
0
LINE
8
ArchiBranches
10
2.125
20
0.9374999999999997
30
1.6237976320958227
11
2.125
21
1.6237976320958223
31
0.9375000000000001
0
LINE
8
ArchiBranches
10
1.875
20
1.6237976320958223
30
0.9375000000000001
11
2.125
21
1.6237976320958223
31
0.9375000000000001
0
POINT
8
NodiEsterni
10
2.125
20
1.8750000000000002
30
2.7939677238464355e-08
0
LINE
8
ArchiBranches
10
2.125
20
1.6237976320958223
30
0.9375000000000001
11
2.125
21
1.8750000000000002
31
2.7939677238464355e-08
0
LINE
8
ArchiBranches
10
1.8750000000000002
20
1.8750000000000002
30
2.7939677238464355e-08
11
2.125
21
1.8750000000000002
31
2.7939677238464355e-08
0
POINT
8
NodiEsterni
10
-2.125
20
1.8750000000000002
30
2.7939677238464355e-08
0
LINE
8
ArchiBranches
10
-1.8750000000000002
20
1.8750000000000002
30
2.7939677238464355e-08
11
-2.125
21
1.8750000000000002
31
2.7939677238464355e-08
0
POINT
8
NodiEsterni
10
-2.125
20
1.6237976320958225
30
0.9375000000000001
0
LINE
8
ArchiBranches
10
-2.125
20
1.8750000000000002
30
2.7939677238464355e-08
11
-2.125
21
1.6237976320958225
31
0.9375000000000001
0
LINE
8
ArchiBranches
10
-1.8749999999999998
20
1.6237976320958225
30
0.9375000000000001
11
-2.125
21
1.6237976320958225
31
0.9375000000000001
0
POINT
8
NodiEsterni
10
-2.125
20
0.9374999999999999
30
1.6237976320958227
0
LINE
8
ArchiBranches
10
-2.125
20
1.6237976320958225
30
0.9375000000000001
11
-2.125
21
0.9374999999999999
31
1.6237976320958227
0
LINE
8
ArchiBranches
10
-1.8749999999999998
20
0.9374999999999999
30
1.6237976320958227
11
-2.125
21
0.9374999999999999
31
1.6237976320958227
0
POINT
8
NodiEsterni
10
-2.1250000000000004
20
-0.0
30
1.8750000000000002
0
LINE
8
ArchiBranches
10
-2.125
20
0.9374999999999999
30
1.6237976320958227
11
-2.1250000000000004
21
-0.0
31
1.8750000000000002
0
LINE
8
ArchiBranches
10
-1.8750000000000004
20
-0.0
30
1.8750000000000002
11
-2.1250000000000004
21
-0.0
31
1.8750000000000002
0
POINT
8
NodiEsterni
10
-2.125
20
-0.9374999999999997
30
1.6237976320958227
0
LINE
8
ArchiBranches
10
-2.1250000000000004
20
-0.0
30
1.8750000000000002
11
-2.125
21
-0.9374999999999997
31
1.6237976320958227
0
LINE
8
ArchiBranches
10
-1.875
20
-0.9374999999999997
30
1.6237976320958227
11
-2.125
21
-0.9374999999999997
31
1.6237976320958227
0
POINT
8
NodiEsterni
10
-2.125
20
-1.6237976320958223
30
0.9375000000000001
0
LINE
8
ArchiBranches
10
-2.125
20
-0.9374999999999997
30
1.6237976320958227
11
-2.125
21
-1.6237976320958223
31
0.9375000000000001
0
LINE
8
ArchiBranches
10
-1.875
20
-1.6237976320958223
30
0.9375000000000001
11
-2.125
21
-1.6237976320958223
31
0.9375000000000001
0
POINT
8
NodiEsterni
10
-2.125
20
-1.8750000000000002
30
2.7939677238464355e-08
0
LINE
8
ArchiBranches
10
-2.125
20
-1.6237976320958223
30
0.9375000000000001
11
-2.125
21
-1.8750000000000002
31
2.7939677238464355e-08
0
LINE
8
ArchiBranches
10
-1.8750000000000002
20
-1.8750000000000002
30
2.7939677238464355e-08
11
-2.125
21
-1.8750000000000002
31
2.7939677238464355e-08
0
POINT
8
NodiEsterniEsterni
10
2.7249999999999996
20
-1.6237976320958225
30
1.0625
0
LINE
8
ArchiBranchesEsterni
10
2.125
20
-1.6237976320958225
30
0.9375000000000001
11
2.7249999999999996
21
-1.6237976320958225
31
1.0625
0
POINT
8
NodiEsterniEsterni
10
2.7249999999999996
20
-0.9374999999999999
30
1.7487976320958227
0
LINE
8
ArchiBranchesEsterni
10
2.125
20
-0.9374999999999999
30
1.6237976320958227
11
2.7249999999999996
21
-0.9374999999999999
31
1.7487976320958227
0
POINT
8
NodiEsterniEsterni
10
2.7250000000000005
20
0.0
30
2.0
0
LINE
8
ArchiBranchesEsterni
10
2.1250000000000004
20
0.0
30
1.8750000000000002
11
2.7250000000000005
21
0.0
31
2.0
0
POINT
8
NodiEsterniEsterni
10
2.725
20
0.9374999999999997
30
1.7487976320958227
0
LINE
8
ArchiBranchesEsterni
10
2.125
20
0.9374999999999997
30
1.6237976320958227
11
2.725
21
0.9374999999999997
31
1.7487976320958227
0
POINT
8
NodiEsterniEsterni
10
2.725
20
1.6237976320958223
30
1.0625
0
LINE
8
ArchiBranchesEsterni
10
2.125
20
1.6237976320958223
30
0.9375000000000001
11
2.725
21
1.6237976320958223
31
1.0625
0
POINT
8
NodiEsterniEsterni
10
-2.7249999999999996
20
1.6237976320958225
30
1.0625
0
LINE
8
ArchiBranchesEsterni
10
-2.125
20
1.6237976320958225
30
0.9375000000000001
11
-2.7249999999999996
21
1.6237976320958225
31
1.0625
0
POINT
8
NodiEsterniEsterni
10
-2.7249999999999996
20
0.9374999999999999
30
1.7487976320958227
0
LINE
8
ArchiBranchesEsterni
10
-2.125
20
0.9374999999999999
30
1.6237976320958227
11
-2.7249999999999996
21
0.9374999999999999
31
1.7487976320958227
0
POINT
8
NodiEsterniEsterni
10
-2.7250000000000005
20
-0.0
30
2.0
0
LINE
8
ArchiBranchesEsterni
10
-2.1250000000000004
20
-0.0
30
1.8750000000000002
11
-2.7250000000000005
21
-0.0
31
2.0
0
POINT
8
NodiEsterniEsterni
10
-2.725
20
-0.9374999999999997
30
1.7487976320958227
0
LINE
8
ArchiBranchesEsterni
10
-2.125
20
-0.9374999999999997
30
1.6237976320958227
11
-2.725
21
-0.9374999999999997
31
1.7487976320958227
0
POINT
8
NodiEsterniEsterni
10
-2.725
20
-1.6237976320958223
30
1.0625
0
LINE
8
ArchiBranchesEsterni
10
-2.125
20
-1.6237976320958223
30
0.9375000000000001
11
-2.725
21
-1.6237976320958223
31
1.0625
0
POINT
8
NodiEsterniEsterni
10
1.6237976320958225
20
2.4749999999999996
30
-2.0625
0
LINE
8
ArchiBranchesEsterni
10
1.6237976320958225
20
1.8749999999999998
30
0.9375000000000001
11
1.6237976320958225
21
2.4749999999999996
31
-2.0625
0
POINT
8
NodiEsterniEsterni
10
0.9374999999999999
20
2.4749999999999996
30
-1.3762023679041773
0
LINE
8
ArchiBranchesEsterni
10
0.9374999999999999
20
1.8749999999999998
30
1.6237976320958227
11
0.9374999999999999
21
2.4749999999999996
31
-1.3762023679041773
0
POINT
8
NodiEsterniEsterni
10
-0.0
20
2.4750000000000005
30
-1.1249999999999998
0
LINE
8
ArchiBranchesEsterni
10
-0.0
20
1.8750000000000004
30
1.8750000000000002
11
-0.0
21
2.4750000000000005
31
-1.1249999999999998
0
POINT
8
NodiEsterniEsterni
10
-0.9374999999999997
20
2.475
30
-1.3762023679041773
0
LINE
8
ArchiBranchesEsterni
10
-0.9374999999999997
20
1.875
30
1.6237976320958227
11
-0.9374999999999997
21
2.475
31
-1.3762023679041773
0
POINT
8
NodiEsterniEsterni
10
-1.6237976320958223
20
2.475
30
-2.0625
0
LINE
8
ArchiBranchesEsterni
10
-1.6237976320958223
20
1.875
30
0.9375000000000001
11
-1.6237976320958223
21
2.475
31
-2.0625
0
POINT
8
NodiEsterniEsterni
10
-1.6237976320958225
20
-2.4749999999999996
30
-2.0625
0
LINE
8
ArchiBranchesEsterni
10
-1.6237976320958225
20
-1.8749999999999998
30
0.9375000000000001
11
-1.6237976320958225
21
-2.4749999999999996
31
-2.0625
0
POINT
8
NodiEsterniEsterni
10
-0.9374999999999999
20
-2.4749999999999996
30
-1.3762023679041773
0
LINE
8
ArchiBranchesEsterni
10
-0.9374999999999999
20
-1.8749999999999998
30
1.6237976320958227
11
-0.9374999999999999
21
-2.4749999999999996
31
-1.3762023679041773
0
POINT
8
NodiEsterniEsterni
10
0.0
20
-2.4750000000000005
30
-1.1249999999999998
0
LINE
8
ArchiBranchesEsterni
10
0.0
20
-1.8750000000000004
30
1.8750000000000002
11
0.0
21
-2.4750000000000005
31
-1.1249999999999998
0
POINT
8
NodiEsterniEsterni
10
0.9374999999999997
20
-2.475
30
-1.3762023679041773
0
LINE
8
ArchiBranchesEsterni
10
0.9374999999999997
20
-1.875
30
1.6237976320958227
11
0.9374999999999997
21
-2.475
31
-1.3762023679041773
0
POINT
8
NodiEsterniEsterni
10
1.6237976320958223
20
-2.475
30
-2.0625
0
LINE
8
ArchiBranchesEsterni
10
1.6237976320958223
20
-1.875
30
0.9375000000000001
11
1.6237976320958223
21
-2.475
31
-2.0625
0
LINE
8
ang
10
-1.8750000000000002
20
1.8750000000000002
30
2.7939677238464355e-08
11
-2.375
21
2.375
31
-9.999999972060323
0
POINT
8
ang
10
-2.375
20
2.375
30
-9.999999972060323
0
LINE
8
ang
10
1.8750000000000002
20
1.8750000000000002
30
2.7939677238464355e-08
11
2.375
21
2.375
31
-9.999999972060323
0
POINT
8
ang
10
2.375
20
2.375
30
-9.999999972060323
0
LINE
8
ang
10
-1.8750000000000002
20
-1.8750000000000002
30
2.7939677238464355e-08
11
-2.375
21
-2.375
31
-9.999999972060323
0
POINT
8
ang
10
-2.375
20
-2.375
30
-9.999999972060323
0
LINE
8
ang
10
1.8750000000000002
20
-1.8750000000000002
30
2.7939677238464355e-08
11
2.375
21
-2.375
31
-9.999999972060323
0
POINT
8
ang
10
2.375
20
-2.375
30
-9.999999972060323
0
LINE
8
ang
10
2.125
20
-1.8750000000000002
30
2.7939677238464355e-08
11
2.125
21
-2.375
31
-9.999999972060323
0
POINT
8
ang
10
2.125
20
-2.375
30
-9.999999972060323
0
LINE
8
ang
10
2.125
20
1.8750000000000002
30
2.7939677238464355e-08
11
2.125
21
2.375
31
-9.999999972060323
0
POINT
8
ang
10
2.125
20
2.375
30
-9.999999972060323
0
LINE
8
ang
10
-2.125
20
1.8750000000000002
30
2.7939677238464355e-08
11
-2.125
21
2.375
31
-9.999999972060323
0
POINT
8
ang
10
-2.125
20
2.375
30
-9.999999972060323
0
LINE
8
ang
10
-2.125
20
-1.8750000000000002
30
2.7939677238464355e-08
11
-2.125
21
-2.375
31
-9.999999972060323
0
POINT
8
ang
10
-2.125
20
-2.375
30
-9.999999972060323
0
ENDSEC
0
EOF
