999
DXF created from myself (Fortunato Siano)
0
SECTION
2
ENTITIES
0
LINE
8
MAXSPINTA
62
41
48
9.330548482122305
10
-1.875
20
-1.875
30
1.29653
11
-1.640625
21
-1.875
31
1.3940190465607856
0
LINE
8
MINSPINTA
62
41
48
5.073570019979582
10
-1.875
20
-1.875
30
0.8608693662282055
11
-1.640625
21
-1.875
31
0.969386498014241
0
LINE
8
MEDIONETWORK
62
61
48
14.385781029921766
10
-1.875
20
-1.875
30
0.7756086312323626
11
-1.640625
21
-1.875
31
1.2716312690103573
0
LINE
8
ASSE
62
253
10
-1.875
20
-1.875
30
0.648265
11
-1.640625
21
-1.875
31
1.245219
0
LINE
8
INTRADOSSO
62
256
10
-1.875
20
-1.875
30
0.0
11
-1.640625
21
-1.875
31
0.90773
0
LINE
8
ESTRADOSSO
62
256
10
-1.875
20
-1.875
30
1.29653
11
-1.640625
21
-1.875
31
1.582708
0
LINE
8
MAXSPINTA
62
101
48
27.421517013536793
10
-1.640625
20
-1.875
30
1.3940190465607856
11
-1.40625
21
-1.875
31
1.6841399349679131
0
LINE
8
MINSPINTA
62
61
48
14.072427197903382
10
-1.640625
20
-1.875
30
0.969386498014241
11
-1.40625
21
-1.875
31
1.2401960282502689
0
LINE
8
MEDIONETWORK
62
81
48
19.64666694283767
10
-1.640625
20
-1.875
30
1.2716312690103573
11
-1.40625
21
-1.875
31
1.5638174769224586
0
LINE
8
ASSE
62
253
10
-1.640625
20
-1.875
30
1.245219
11
-1.40625
21
-1.875
31
1.517187
0
LINE
8
INTRADOSSO
62
256
10
-1.640625
20
-1.875
30
0.90773
11
-1.40625
21
-1.875
31
1.240196
0
LINE
8
ESTRADOSSO
62
256
10
-1.640625
20
-1.875
30
1.582708
11
-1.40625
21
-1.875
31
1.794178
0
LINE
8
MAXSPINTA
62
81
48
22.460496842926627
10
-1.40625
20
-1.875
30
1.6841399349679131
11
-0.9375
21
-1.875
31
2.042621397059948
0
LINE
8
MINSPINTA
62
61
48
12.320415308437797
10
-1.40625
20
-1.875
30
1.2401960282502689
11
-0.9375
21
-1.875
31
1.623798
0
LINE
8
MEDIONETWORK
62
61
48
15.05753040379751
10
-1.40625
20
-1.875
30
1.5638174769224586
11
-0.9375
21
-1.875
31
1.8601318289180837
0
LINE
8
ASSE
62
253
10
-1.40625
20
-1.875
30
1.517187
11
-0.9375
21
-1.875
31
1.850854
0
LINE
8
INTRADOSSO
62
256
10
-1.40625
20
-1.875
30
1.240196
11
-0.9375
21
-1.875
31
1.623798
0
LINE
8
ESTRADOSSO
62
256
10
-1.40625
20
-1.875
30
1.794178
11
-0.9375
21
-1.875
31
2.07791
0
LINE
8
MAXSPINTA
62
81
48
19.226502988382176
10
-0.9375
20
-1.875
30
2.042621397059948
11
-0.46875
21
-1.875
31
2.230894
0
LINE
8
MINSPINTA
62
41
48
10.30091910119682
10
-0.9375
20
-1.875
30
1.623798
11
-0.46875
21
-1.875
31
1.815461
0
LINE
8
MEDIONETWORK
62
61
48
13.260716817026132
10
-0.9375
20
-1.875
30
1.8601318289180837
11
-0.46875
21
-1.875
31
1.9971958211578305
0
LINE
8
ASSE
62
253
10
-0.9375
20
-1.875
30
1.850854
11
-0.46875
21
-1.875
31
2.0231775
0
LINE
8
INTRADOSSO
62
256
10
-0.9375
20
-1.875
30
1.623798
11
-0.46875
21
-1.875
31
1.815461
0
LINE
8
ESTRADOSSO
62
256
10
-0.9375
20
-1.875
30
2.07791
11
-0.46875
21
-1.875
31
2.230894
0
LINE
8
MAXSPINTA
62
61
48
17.937289771058055
10
-0.46875
20
-1.875
30
2.230894
11
0.0
21
-1.875
31
2.279609
0
LINE
8
MINSPINTA
62
41
48
9.611290082650154
10
-0.46875
20
-1.875
30
1.815461
11
0.0
21
-1.875
31
1.875
0
LINE
8
MEDIONETWORK
62
61
48
12.806484378236643
10
-0.46875
20
-1.875
30
1.9971958211578305
11
0.0
21
-1.875
31
2.0494102252914814
0
LINE
8
ASSE
62
253
10
-0.46875
20
-1.875
30
2.0231775
11
0.0
21
-1.875
31
2.0773045000000003
0
LINE
8
INTRADOSSO
62
256
10
-0.46875
20
-1.875
30
1.815461
11
0.0
21
-1.875
31
1.875
0
LINE
8
ESTRADOSSO
62
256
10
-0.46875
20
-1.875
30
2.230894
11
0.0
21
-1.875
31
2.279609
0
LINE
8
MAXSPINTA
62
61
48
17.937289771058065
10
0.0
20
-1.875
30
2.279609
11
0.46875
21
-1.875
31
2.230894
0
LINE
8
MINSPINTA
62
41
48
9.611290082650159
10
0.0
20
-1.875
30
1.875
11
0.46875
21
-1.875
31
1.815461
0
LINE
8
MEDIONETWORK
62
61
48
12.816961828113893
10
0.0
20
-1.875
30
2.0494102252914814
11
0.46875
21
-1.875
31
1.9938180810847308
0
LINE
8
ASSE
62
253
10
0.0
20
-1.875
30
2.0773045000000003
11
0.46875
21
-1.875
31
2.0231775
0
LINE
8
INTRADOSSO
62
256
10
0.0
20
-1.875
30
1.875
11
0.46875
21
-1.875
31
1.815461
0
LINE
8
ESTRADOSSO
62
256
10
0.0
20
-1.875
30
2.279609
11
0.46875
21
-1.875
31
2.230894
0
LINE
8
MAXSPINTA
62
81
48
19.23301779158394
10
0.46875
20
-1.875
30
2.230894
11
0.9375
21
-1.875
31
2.042162628558947
0
LINE
8
MINSPINTA
62
41
48
10.300919101196833
10
0.46875
20
-1.875
30
1.815461
11
0.9375
21
-1.875
31
1.623798
0
LINE
8
MEDIONETWORK
62
61
48
13.258879340265729
10
0.46875
20
-1.875
30
1.9938180810847308
11
0.9375
21
-1.875
31
1.856995410398885
0
LINE
8
ASSE
62
253
10
0.46875
20
-1.875
30
2.0231775
11
0.9375
21
-1.875
31
1.850854
0
LINE
8
INTRADOSSO
62
256
10
0.46875
20
-1.875
30
1.815461
11
0.9375
21
-1.875
31
1.623798
0
LINE
8
ESTRADOSSO
62
256
10
0.46875
20
-1.875
30
2.230894
11
0.9375
21
-1.875
31
2.07791
0
LINE
8
MAXSPINTA
62
81
48
22.460554709521272
10
0.9375
20
-1.875
30
2.042162628558947
11
1.40625
21
-1.875
31
1.683678663737047
0
LINE
8
MINSPINTA
62
61
48
12.320415291617083
10
0.9375
20
-1.875
30
1.623798
11
1.40625
21
-1.875
31
1.240196029556017
0
LINE
8
MEDIONETWORK
62
61
48
14.981945611999034
10
0.9375
20
-1.875
30
1.856995410398885
11
1.40625
21
-1.875
31
1.5659240800903371
0
LINE
8
ASSE
62
253
10
0.9375
20
-1.875
30
1.850854
11
1.40625
21
-1.875
31
1.517187
0
LINE
8
INTRADOSSO
62
256
10
0.9375
20
-1.875
30
1.623798
11
1.40625
21
-1.875
31
1.240196
0
LINE
8
ESTRADOSSO
62
256
10
0.9375
20
-1.875
30
2.07791
11
1.40625
21
-1.875
31
1.794178
0
LINE
8
MAXSPINTA
62
101
48
27.41486709850653
10
1.40625
20
-1.875
30
1.683678663737047
11
1.640625
21
-1.875
31
1.3936740573740323
0
LINE
8
MINSPINTA
62
61
48
14.01642494123048
10
1.40625
20
-1.875
30
1.240196029556017
11
1.640625
21
-1.875
31
0.9712742607192885
0
LINE
8
MEDIONETWORK
62
81
48
19.68326729657439
10
1.40625
20
-1.875
30
1.5659240800903371
11
1.640625
21
-1.875
31
1.272843849631226
0
LINE
8
ASSE
62
253
10
1.40625
20
-1.875
30
1.517187
11
1.640625
21
-1.875
31
1.245219
0
LINE
8
INTRADOSSO
62
256
10
1.40625
20
-1.875
30
1.240196
11
1.640625
21
-1.875
31
0.90773
0
LINE
8
ESTRADOSSO
62
256
10
1.40625
20
-1.875
30
1.794178
11
1.640625
21
-1.875
31
1.582708
0
LINE
8
MAXSPINTA
62
41
48
9.32568569078375
10
1.640625
20
-1.875
30
1.3936740573740323
11
1.875
21
-1.875
31
1.29653
0
LINE
8
MINSPINTA
62
41
48
5.0534541011221865
10
1.640625
20
-1.875
30
0.9712742607192885
11
1.875
21
-1.875
31
0.8652174557759955
0
LINE
8
MEDIONETWORK
62
61
48
14.395760129241776
10
1.640625
20
-1.875
30
1.272843849631226
11
1.875
21
-1.875
31
0.7764003436185493
0
LINE
8
ASSE
62
253
10
1.640625
20
-1.875
30
1.245219
11
1.875
21
-1.875
31
0.648265
0
LINE
8
INTRADOSSO
62
256
10
1.640625
20
-1.875
30
0.90773
11
1.875
21
-1.875
31
0.0
0
LINE
8
ESTRADOSSO
62
256
10
1.640625
20
-1.875
30
1.582708
11
1.875
21
-1.875
31
1.29653
0
LINE
8
MAXSPINTA
62
41
48
10.021661274778806
10
-1.875
20
-1.40625
30
1.684139935018441
11
-1.40625
21
-1.40625
31
1.9627288173358604
0
LINE
8
MINSPINTA
62
41
48
6.830442371849715
10
-1.875
20
-1.40625
30
1.2401960292853065
11
-1.40625
21
-1.40625
31
1.753902
0
LINE
8
MEDIONETWORK
62
41
48
7.235360529221627
10
-1.875
20
-1.40625
30
1.5638189154008655
11
-1.40625
21
-1.40625
31
1.8550359685829967
0
LINE
8
ASSE
62
253
10
-1.875
20
-1.40625
30
1.517187
11
-1.40625
21
-1.40625
31
1.967497
0
LINE
8
INTRADOSSO
62
256
10
-1.875
20
-1.40625
30
1.240196
11
-1.40625
21
-1.40625
31
1.753902
0
LINE
8
ESTRADOSSO
62
256
10
-1.875
20
-1.40625
30
1.794178
11
-1.40625
21
-1.40625
31
2.181092
0
LINE
8
MAXSPINTA
62
41
48
10.566235748275654
10
-1.40625
20
-1.40625
30
1.9627288173358604
11
-0.9375
21
-1.40625
31
2.2950925541963767
0
LINE
8
MINSPINTA
62
41
48
6.319821300938085
10
-1.40625
20
-1.40625
30
1.753902
11
-0.9375
21
-1.40625
31
2.1942026514637454
0
LINE
8
MEDIONETWORK
62
41
48
7.940322397162691
10
-1.40625
20
-1.40625
30
1.8550359685829967
11
-0.9375
21
-1.40625
31
2.238005663285239
0
LINE
8
ASSE
62
253
10
-1.40625
20
-1.40625
30
1.967497
11
-0.9375
21
-1.40625
31
2.2315545
0
LINE
8
INTRADOSSO
62
256
10
-1.40625
20
-1.40625
30
1.753902
11
-0.9375
21
-1.40625
31
2.043234
0
LINE
8
ESTRADOSSO
62
256
10
-1.40625
20
-1.40625
30
2.181092
11
-0.9375
21
-1.40625
31
2.419875
0
LINE
8
MAXSPINTA
62
41
48
9.261579259084154
10
-0.9375
20
-1.40625
30
2.2950925541963767
11
-0.46875
21
-1.40625
31
2.4793731557146783
0
LINE
8
MINSPINTA
62
41
48
5.147495677006034
10
-0.9375
20
-1.40625
30
2.1942026514637454
11
-0.46875
21
-1.40625
31
2.427985086874618
0
LINE
8
MEDIONETWORK
62
41
48
6.643629389771516
10
-0.9375
20
-1.40625
30
2.238005663285239
11
-0.46875
21
-1.40625
31
2.429759745847764
0
LINE
8
ASSE
62
253
10
-0.9375
20
-1.40625
30
2.2315545
11
-0.46875
21
-1.40625
31
2.3755385
0
LINE
8
INTRADOSSO
62
256
10
-0.9375
20
-1.40625
30
2.043234
11
-0.46875
21
-1.40625
31
2.198632
0
LINE
8
ESTRADOSSO
62
256
10
-0.9375
20
-1.40625
30
2.419875
11
-0.46875
21
-1.40625
31
2.552445
0
LINE
8
MAXSPINTA
62
41
48
8.682656506891094
10
-0.46875
20
-1.40625
30
2.4793731557146783
11
0.0
21
-1.40625
31
2.5362568952435836
0
LINE
8
MINSPINTA
62
41
48
4.662507724960462
10
-0.46875
20
-1.40625
30
2.427985086874618
11
0.0
21
-1.40625
31
2.50137840577689
0
LINE
8
MEDIONETWORK
62
41
48
6.1999207739934175
10
-0.46875
20
-1.40625
30
2.429759745847764
11
0.0
21
-1.40625
31
2.490195407807337
0
LINE
8
ASSE
62
253
10
-0.46875
20
-1.40625
30
2.3755385
11
0.0
21
-1.40625
31
2.421588
0
LINE
8
INTRADOSSO
62
256
10
-0.46875
20
-1.40625
30
2.198632
11
0.0
21
-1.40625
31
2.248046
0
LINE
8
ESTRADOSSO
62
256
10
-0.46875
20
-1.40625
30
2.552445
11
0.0
21
-1.40625
31
2.59513
0
LINE
8
MAXSPINTA
62
41
48
8.683673136262568
10
0.0
20
-1.40625
30
2.5362568952435836
11
0.46875
21
-1.40625
31
2.4789160283064025
0
LINE
8
MINSPINTA
62
41
48
4.663383141541424
10
0.0
20
-1.40625
30
2.50137840577689
11
0.46875
21
-1.40625
31
2.4274113850859904
0
LINE
8
MEDIONETWORK
62
41
48
6.20288986709392
10
0.0
20
-1.40625
30
2.490195407807337
11
0.46875
21
-1.40625
31
2.4280144672029187
0
LINE
8
ASSE
62
253
10
0.0
20
-1.40625
30
2.421588
11
0.46875
21
-1.40625
31
2.3755385
0
LINE
8
INTRADOSSO
62
256
10
0.0
20
-1.40625
30
2.248046
11
0.46875
21
-1.40625
31
2.198632
0
LINE
8
ESTRADOSSO
62
256
10
0.0
20
-1.40625
30
2.59513
11
0.46875
21
-1.40625
31
2.552445
0
LINE
8
MAXSPINTA
62
41
48
9.264771880759815
10
0.46875
20
-1.40625
30
2.4789160283064025
11
0.9375
21
-1.40625
31
2.29416140776718
0
LINE
8
MINSPINTA
62
41
48
5.149021211349651
10
0.46875
20
-1.40625
30
2.4274113850859904
11
0.9375
21
-1.40625
31
2.1932813259544575
0
LINE
8
MEDIONETWORK
62
41
48
6.64497525656394
10
0.46875
20
-1.40625
30
2.4280144672029187
11
0.9375
21
-1.40625
31
2.235989571084339
0
LINE
8
ASSE
62
253
10
0.46875
20
-1.40625
30
2.3755385
11
0.9375
21
-1.40625
31
2.2315545
0
LINE
8
INTRADOSSO
62
256
10
0.46875
20
-1.40625
30
2.198632
11
0.9375
21
-1.40625
31
2.043234
0
LINE
8
ESTRADOSSO
62
256
10
0.46875
20
-1.40625
30
2.552445
11
0.9375
21
-1.40625
31
2.419875
0
LINE
8
MAXSPINTA
62
41
48
10.564562536238524
10
0.9375
20
-1.40625
30
2.29416140776718
11
1.40625
21
-1.40625
31
1.9619550156746457
0
LINE
8
MINSPINTA
62
41
48
6.3136261169994485
10
0.9375
20
-1.40625
30
2.1932813259544575
11
1.40625
21
-1.40625
31
1.753902
0
LINE
8
MEDIONETWORK
62
41
48
7.925503593736538
10
0.9375
20
-1.40625
30
2.235989571084339
11
1.40625
21
-1.40625
31
1.8548078723656358
0
LINE
8
ASSE
62
253
10
0.9375
20
-1.40625
30
2.2315545
11
1.40625
21
-1.40625
31
1.967497
0
LINE
8
INTRADOSSO
62
256
10
0.9375
20
-1.40625
30
2.043234
11
1.40625
21
-1.40625
31
1.753902
0
LINE
8
ESTRADOSSO
62
256
10
0.9375
20
-1.40625
30
2.419875
11
1.40625
21
-1.40625
31
2.181092
0
LINE
8
MAXSPINTA
62
41
48
10.018727812696264
10
1.40625
20
-1.40625
30
1.9619550156746457
11
1.875
21
-1.40625
31
1.6836786750693413
0
LINE
8
MINSPINTA
62
41
48
6.8304424334162945
10
1.40625
20
-1.40625
30
1.753902
11
1.875
21
-1.40625
31
1.2401960207996388
0
LINE
8
MEDIONETWORK
62
41
48
7.219240633988004
10
1.40625
20
-1.40625
30
1.8548078723656358
11
1.875
21
-1.40625
31
1.5659274099882412
0
LINE
8
ASSE
62
253
10
1.40625
20
-1.40625
30
1.967497
11
1.875
21
-1.40625
31
1.517187
0
LINE
8
INTRADOSSO
62
256
10
1.40625
20
-1.40625
30
1.753902
11
1.875
21
-1.40625
31
1.240196
0
LINE
8
ESTRADOSSO
62
256
10
1.40625
20
-1.40625
30
2.181092
11
1.875
21
-1.40625
31
1.794178
0
LINE
8
MAXSPINTA
62
41
48
9.785119174605423
10
-1.875
20
-0.9375
30
2.0426213969971165
11
-1.40625
21
-0.9375
31
2.2950925536951683
0
LINE
8
MINSPINTA
62
41
48
7.25152738222158
10
-1.875
20
-0.9375
30
1.623798
11
-1.40625
21
-0.9375
31
2.194202651463746
0
LINE
8
MEDIONETWORK
62
41
48
7.894129425056881
10
-1.875
20
-0.9375
30
1.8601351901670262
11
-1.40625
21
-0.9375
31
2.2380071832730373
0
LINE
8
ASSE
62
253
10
-1.875
20
-0.9375
30
1.850854
11
-1.40625
21
-0.9375
31
2.2315545
0
LINE
8
INTRADOSSO
62
256
10
-1.875
20
-0.9375
30
1.623798
11
-1.40625
21
-0.9375
31
2.043234
0
LINE
8
ESTRADOSSO
62
256
10
-1.875
20
-0.9375
30
2.07791
11
-1.40625
21
-0.9375
31
2.419875
0
LINE
8
MAXSPINTA
62
41
48
8.838049552993601
10
-1.40625
20
-0.9375
30
2.2950925536951683
11
-0.9375
21
-0.9375
31
2.402448020556411
0
LINE
8
MINSPINTA
62
41
48
5.120858696448081
10
-1.40625
20
-0.9375
30
2.194202651463746
11
-0.9375
21
-0.9375
31
2.422458750849595
0
LINE
8
MEDIONETWORK
62
41
48
6.4859696765413535
10
-1.40625
20
-0.9375
30
2.2380071832730373
11
-0.9375
21
-0.9375
31
2.396093949299942
0
LINE
8
ASSE
62
253
10
-1.40625
20
-0.9375
30
2.2315545
11
-0.9375
21
-0.9375
31
2.466761
0
LINE
8
INTRADOSSO
62
256
10
-1.40625
20
-0.9375
30
2.043234
11
-0.9375
21
-0.9375
31
2.296397
0
LINE
8
ESTRADOSSO
62
256
10
-1.40625
20
-0.9375
30
2.419875
11
-0.9375
21
-0.9375
31
2.637125
0
LINE
8
MAXSPINTA
62
41
48
9.29241264295061
10
-0.9375
20
-0.9375
30
2.402448020556411
11
-0.46875
21
-0.9375
31
2.5914765937005964
0
LINE
8
MINSPINTA
62
41
48
5.389266204193279
10
-0.9375
20
-0.9375
30
2.422458750849595
11
-0.46875
21
-0.9375
31
2.70729011115842
0
LINE
8
MEDIONETWORK
62
41
48
6.835487199329925
10
-0.9375
20
-0.9375
30
2.396093949299942
11
-0.46875
21
-0.9375
31
2.6238736283065838
0
LINE
8
ASSE
62
253
10
-0.9375
20
-0.9375
30
2.466761
11
-0.46875
21
-0.9375
31
2.5974865
0
LINE
8
INTRADOSSO
62
256
10
-0.9375
20
-0.9375
30
2.296397
11
-0.46875
21
-0.9375
31
2.435696
0
LINE
8
ESTRADOSSO
62
256
10
-0.9375
20
-0.9375
30
2.637125
11
-0.46875
21
-0.9375
31
2.759277
0
LINE
8
MAXSPINTA
62
41
48
8.691020917747494
10
-0.46875
20
-0.9375
30
2.5914765937005964
11
0.0
21
-0.9375
31
2.6525992870332806
0
LINE
8
MINSPINTA
62
41
48
4.692621067400775
10
-0.46875
20
-0.9375
30
2.70729011115842
11
0.0
21
-0.9375
31
2.798808999999993
0
LINE
8
MEDIONETWORK
62
41
48
6.221992318775311
10
-0.46875
20
-0.9375
30
2.6238736283065838
11
0.0
21
-0.9375
31
2.69678920569028
0
LINE
8
ASSE
62
253
10
-0.46875
20
-0.9375
30
2.5974865
11
0.0
21
-0.9375
31
2.6396005000000002
0
LINE
8
INTRADOSSO
62
256
10
-0.46875
20
-0.9375
30
2.435696
11
0.0
21
-0.9375
31
2.480392
0
LINE
8
ESTRADOSSO
62
256
10
-0.46875
20
-0.9375
30
2.759277
11
0.0
21
-0.9375
31
2.798809
0
LINE
8
MAXSPINTA
62
41
48
8.691993186674706
10
0.0
20
-0.9375
30
2.6525992870332806
11
0.46875
21
-0.9375
31
2.591068935383894
0
LINE
8
MINSPINTA
62
41
48
4.693484095111618
10
0.0
20
-0.9375
30
2.798808999999993
11
0.46875
21
-0.9375
31
2.70683282883486
0
LINE
8
MEDIONETWORK
62
41
48
6.223820883830824
10
0.0
20
-0.9375
30
2.69678920569028
11
0.46875
21
-0.9375
31
2.622972028804916
0
LINE
8
ASSE
62
253
10
0.0
20
-0.9375
30
2.6396005000000002
11
0.46875
21
-0.9375
31
2.5974865
0
LINE
8
INTRADOSSO
62
256
10
0.0
20
-0.9375
30
2.480392
11
0.46875
21
-0.9375
31
2.435696
0
LINE
8
ESTRADOSSO
62
256
10
0.0
20
-0.9375
30
2.798809
11
0.46875
21
-0.9375
31
2.759277
0
LINE
8
MAXSPINTA
62
41
48
9.29425158421728
10
0.46875
20
-0.9375
30
2.591068935383894
11
0.9375
21
-0.9375
31
2.4017730812435976
0
LINE
8
MINSPINTA
62
41
48
5.389825696218369
10
0.46875
20
-0.9375
30
2.70683282883486
11
0.9375
21
-0.9375
31
2.421891827439519
0
LINE
8
MEDIONETWORK
62
41
48
6.8363316021794605
10
0.46875
20
-0.9375
30
2.622972028804916
11
0.9375
21
-0.9375
31
2.3950450854287553
0
LINE
8
ASSE
62
253
10
0.46875
20
-0.9375
30
2.5974865
11
0.9375
21
-0.9375
31
2.466761
0
LINE
8
INTRADOSSO
62
256
10
0.46875
20
-0.9375
30
2.435696
11
0.9375
21
-0.9375
31
2.296397
0
LINE
8
ESTRADOSSO
62
256
10
0.46875
20
-0.9375
30
2.759277
11
0.9375
21
-0.9375
31
2.637125
0
LINE
8
MAXSPINTA
62
41
48
8.83910195101388
10
0.9375
20
-0.9375
30
2.4017730812435976
11
1.40625
21
-0.9375
31
2.294161406548399
0
LINE
8
MINSPINTA
62
41
48
5.122383593723995
10
0.9375
20
-0.9375
30
2.421891827439519
11
1.40625
21
-0.9375
31
2.193281325954458
0
LINE
8
MEDIONETWORK
62
41
48
6.490038078956528
10
0.9375
20
-0.9375
30
2.3950450854287553
11
1.40625
21
-0.9375
31
2.2359899802729033
0
LINE
8
ASSE
62
253
10
0.9375
20
-0.9375
30
2.466761
11
1.40625
21
-0.9375
31
2.2315545
0
LINE
8
INTRADOSSO
62
256
10
0.9375
20
-0.9375
30
2.296397
11
1.40625
21
-0.9375
31
2.043234
0
LINE
8
ESTRADOSSO
62
256
10
0.9375
20
-0.9375
30
2.637125
11
1.40625
21
-0.9375
31
2.419875
0
LINE
8
MAXSPINTA
62
41
48
9.781005292152834
10
1.40625
20
-0.9375
30
2.294161406548399
11
1.875
21
-0.9375
31
2.042162632116074
0
LINE
8
MINSPINTA
62
41
48
7.24453834332052
10
1.40625
20
-0.9375
30
2.193281325954458
11
1.875
21
-0.9375
31
1.623798
0
LINE
8
MEDIONETWORK
62
41
48
7.903329821525807
10
1.40625
20
-0.9375
30
2.2359899802729033
11
1.875
21
-0.9375
31
1.8570008829970999
0
LINE
8
ASSE
62
253
10
1.40625
20
-0.9375
30
2.2315545
11
1.875
21
-0.9375
31
1.850854
0
LINE
8
INTRADOSSO
62
256
10
1.40625
20
-0.9375
30
2.043234
11
1.875
21
-0.9375
31
1.623798
0
LINE
8
ESTRADOSSO
62
256
10
1.40625
20
-0.9375
30
2.419875
11
1.875
21
-0.9375
31
2.07791
0
LINE
8
MAXSPINTA
62
41
48
9.75058241824094
10
-1.875
20
-0.46875
30
2.230894
11
-1.40625
21
-0.46875
31
2.479373153772657
0
LINE
8
MINSPINTA
62
41
48
7.575729081446775
10
-1.875
20
-0.46875
30
1.815461
11
-1.40625
21
-0.46875
31
2.4279850868746187
0
LINE
8
MEDIONETWORK
62
41
48
8.362835792668326
10
-1.875
20
-0.46875
30
1.997200700511562
11
-1.40625
21
-0.46875
31
2.4297624647149156
0
LINE
8
ASSE
62
253
10
-1.875
20
-0.46875
30
2.0231775
11
-1.40625
21
-0.46875
31
2.3755385
0
LINE
8
INTRADOSSO
62
256
10
-1.875
20
-0.46875
30
1.815461
11
-1.40625
21
-0.46875
31
2.198632
0
LINE
8
ESTRADOSSO
62
256
10
-1.875
20
-0.46875
30
2.230894
11
-1.40625
21
-0.46875
31
2.552445
0
LINE
8
MAXSPINTA
62
41
48
8.857975020146144
10
-1.40625
20
-0.46875
30
2.479373153772657
11
-0.9375
21
-0.46875
31
2.5914765916073224
0
LINE
8
MINSPINTA
62
41
48
5.3593853490985195
10
-1.40625
20
-0.46875
30
2.4279850868746187
11
-0.9375
21
-0.46875
31
2.7072901111584193
0
LINE
8
MEDIONETWORK
62
41
48
6.652014812337425
10
-1.40625
20
-0.46875
30
2.4297624647149156
11
-0.9375
21
-0.46875
31
2.6238747589126077
0
LINE
8
ASSE
62
253
10
-1.40625
20
-0.46875
30
2.3755385
11
-0.9375
21
-0.46875
31
2.5974865
0
LINE
8
INTRADOSSO
62
256
10
-1.40625
20
-0.46875
30
2.198632
11
-0.9375
21
-0.46875
31
2.435696
0
LINE
8
ESTRADOSSO
62
256
10
-1.40625
20
-0.46875
30
2.552445
11
-0.9375
21
-0.46875
31
2.759277
0
LINE
8
MAXSPINTA
62
41
48
8.62221748144661
10
-0.9375
20
-0.46875
30
2.5914765916073224
11
-0.46875
21
-0.46875
31
2.6106234623664815
0
LINE
8
MINSPINTA
62
41
48
4.640768577829542
10
-0.9375
20
-0.46875
30
2.7072901111584193
11
-0.46875
21
-0.46875
31
2.766615952513151
0
LINE
8
MEDIONETWORK
62
41
48
6.167536314558031
10
-0.9375
20
-0.46875
30
2.6238747589126077
11
-0.46875
21
-0.46875
31
2.6632480996088796
0
LINE
8
ASSE
62
253
10
-0.9375
20
-0.46875
30
2.5974865
11
-0.46875
21
-0.46875
31
2.721847
0
LINE
8
INTRADOSSO
62
256
10
-0.9375
20
-0.46875
30
2.435696
11
-0.46875
21
-0.46875
31
2.567449
0
LINE
8
ESTRADOSSO
62
256
10
-0.9375
20
-0.46875
30
2.759277
11
-0.46875
21
-0.46875
31
2.876245
0
LINE
8
MAXSPINTA
62
41
48
8.707672752965115
10
-0.46875
20
-0.46875
30
2.6106234623664815
11
0.0
21
-0.46875
31
2.678782800101288
0
LINE
8
MINSPINTA
62
41
48
4.741428569916761
10
-0.46875
20
-0.46875
30
2.766615952513151
11
0.0
21
-0.46875
31
2.8815068519751907
0
LINE
8
MEDIONETWORK
62
41
48
6.256055902782904
10
-0.46875
20
-0.46875
30
2.6632480996088796
11
0.0
21
-0.46875
31
2.7517967199557187
0
LINE
8
ASSE
62
253
10
-0.46875
20
-0.46875
30
2.721847
11
0.0
21
-0.46875
31
2.762041
0
LINE
8
INTRADOSSO
62
256
10
-0.46875
20
-0.46875
30
2.567449
11
0.0
21
-0.46875
31
2.60989
0
LINE
8
ESTRADOSSO
62
256
10
-0.46875
20
-0.46875
30
2.876245
11
0.0
21
-0.46875
31
2.914192
0
LINE
8
MAXSPINTA
62
41
48
8.708417482781098
10
0.0
20
-0.46875
30
2.678782800101288
11
0.46875
21
-0.46875
31
2.610342489239151
0
LINE
8
MINSPINTA
62
41
48
4.742087385019951
10
0.0
20
-0.46875
30
2.8815068519751907
11
0.46875
21
-0.46875
31
2.7663345770262424
0
LINE
8
MEDIONETWORK
62
41
48
6.25729457341301
10
0.0
20
-0.46875
30
2.7517967199557187
11
0.46875
21
-0.46875
31
2.6627406605542743
0
LINE
8
ASSE
62
253
10
0.0
20
-0.46875
30
2.762041
11
0.46875
21
-0.46875
31
2.721847
0
LINE
8
INTRADOSSO
62
256
10
0.0
20
-0.46875
30
2.60989
11
0.46875
21
-0.46875
31
2.567449
0
LINE
8
ESTRADOSSO
62
256
10
0.0
20
-0.46875
30
2.914192
11
0.46875
21
-0.46875
31
2.876245
0
LINE
8
MAXSPINTA
62
41
48
8.622312825323862
10
0.46875
20
-0.46875
30
2.610342489239151
11
0.9375
21
-0.46875
31
2.591068926091761
0
LINE
8
MINSPINTA
62
41
48
4.640985830859156
10
0.46875
20
-0.46875
30
2.7663345770262424
11
0.9375
21
-0.46875
31
2.706832828834865
0
LINE
8
MEDIONETWORK
62
41
48
6.167976938650996
10
0.46875
20
-0.46875
30
2.6627406605542743
11
0.9375
21
-0.46875
31
2.6229678279026496
0
LINE
8
ASSE
62
253
10
0.46875
20
-0.46875
30
2.721847
11
0.9375
21
-0.46875
31
2.5974865
0
LINE
8
INTRADOSSO
62
256
10
0.46875
20
-0.46875
30
2.567449
11
0.9375
21
-0.46875
31
2.435696
0
LINE
8
ESTRADOSSO
62
256
10
0.46875
20
-0.46875
30
2.876245
11
0.9375
21
-0.46875
31
2.759277
0
LINE
8
MAXSPINTA
62
41
48
8.85818653170125
10
0.9375
20
-0.46875
30
2.591068926091761
11
1.40625
21
-0.46875
31
2.478916019886891
0
LINE
8
MINSPINTA
62
41
48
5.359970748204044
10
0.9375
20
-0.46875
30
2.706832828834865
11
1.40625
21
-0.46875
31
2.4274113850859944
0
LINE
8
MEDIONETWORK
62
41
48
6.656260990190167
10
0.9375
20
-0.46875
30
2.6229678279026496
11
1.40625
21
-0.46875
31
2.4280106337337544
0
LINE
8
ASSE
62
253
10
0.9375
20
-0.46875
30
2.5974865
11
1.40625
21
-0.46875
31
2.3755385
0
LINE
8
INTRADOSSO
62
256
10
0.9375
20
-0.46875
30
2.435696
11
1.40625
21
-0.46875
31
2.198632
0
LINE
8
ESTRADOSSO
62
256
10
0.9375
20
-0.46875
30
2.759277
11
1.40625
21
-0.46875
31
2.552445
0
LINE
8
MAXSPINTA
62
41
48
9.746650340385214
10
1.40625
20
-0.46875
30
2.478916019886891
11
1.875
21
-0.46875
31
2.230894
0
LINE
8
MINSPINTA
62
41
48
7.571254981527521
10
1.40625
20
-0.46875
30
2.4274113850859944
11
1.875
21
-0.46875
31
1.815461
0
LINE
8
MEDIONETWORK
62
41
48
8.377330970543207
10
1.40625
20
-0.46875
30
2.4280106337337544
11
1.875
21
-0.46875
31
1.9938203201433018
0
LINE
8
ASSE
62
253
10
1.40625
20
-0.46875
30
2.3755385
11
1.875
21
-0.46875
31
2.0231775
0
LINE
8
INTRADOSSO
62
256
10
1.40625
20
-0.46875
30
2.198632
11
1.875
21
-0.46875
31
1.815461
0
LINE
8
ESTRADOSSO
62
256
10
1.40625
20
-0.46875
30
2.552445
11
1.875
21
-0.46875
31
2.230894
0
LINE
8
MAXSPINTA
62
41
48
9.821748095456266
10
-1.875
20
0.0
30
2.279609
11
-1.40625
21
0.0
31
2.5362568900723996
0
LINE
8
MINSPINTA
62
41
48
7.684202816876568
10
-1.875
20
0.0
30
1.875
11
-1.40625
21
0.0
31
2.501378405776889
0
LINE
8
MEDIONETWORK
62
41
48
8.436269549332726
10
-1.875
20
0.0
30
2.0494157605925793
11
-1.40625
21
0.0
31
2.490198753627789
0
LINE
8
ASSE
62
253
10
-1.875
20
0.0
30
2.0773045000000003
11
-1.40625
21
0.0
31
2.421588
0
LINE
8
INTRADOSSO
62
256
10
-1.875
20
0.0
30
1.875
11
-1.40625
21
0.0
31
2.248046
0
LINE
8
ESTRADOSSO
62
256
10
-1.875
20
0.0
30
2.279609
11
-1.40625
21
0.0
31
2.59513
0
LINE
8
MAXSPINTA
62
41
48
8.876378685758302
10
-1.40625
20
0.0
30
2.5362568900723996
11
-0.9375
21
0.0
31
2.6525992806040346
0
LINE
8
MINSPINTA
62
41
48
5.45263365837633
10
-1.40625
20
0.0
30
2.501378405776889
11
-0.9375
21
0.0
31
2.798808999999994
0
LINE
8
MEDIONETWORK
62
41
48
6.716289676576039
10
-1.40625
20
0.0
30
2.490198753627789
11
-0.9375
21
0.0
31
2.696791009400583
0
LINE
8
ASSE
62
253
10
-1.40625
20
0.0
30
2.421588
11
-0.9375
21
0.0
31
2.6396005000000002
0
LINE
8
INTRADOSSO
62
256
10
-1.40625
20
0.0
30
2.248046
11
-0.9375
21
0.0
31
2.480392
0
LINE
8
ESTRADOSSO
62
256
10
-1.40625
20
0.0
30
2.59513
11
-0.9375
21
0.0
31
2.798809
0
LINE
8
MAXSPINTA
62
41
48
8.62842388901221
10
-0.9375
20
0.0
30
2.6525992806040346
11
-0.46875
21
0.0
31
2.678782795719571
0
LINE
8
MINSPINTA
62
41
48
4.675121088453158
10
-0.9375
20
0.0
30
2.798808999999994
11
-0.46875
21
0.0
31
2.8815068519751867
0
LINE
8
MEDIONETWORK
62
41
48
6.188036182948237
10
-0.9375
20
0.0
30
2.696791009400583
11
-0.46875
21
0.0
31
2.7517974416817834
0
LINE
8
ASSE
62
253
10
-0.9375
20
0.0
30
2.6396005000000002
11
-0.46875
21
0.0
31
2.762041
0
LINE
8
INTRADOSSO
62
256
10
-0.9375
20
0.0
30
2.480392
11
-0.46875
21
0.0
31
2.60989
0
LINE
8
ESTRADOSSO
62
256
10
-0.9375
20
0.0
30
2.798809
11
-0.46875
21
0.0
31
2.914192
0
LINE
8
MAXSPINTA
62
41
48
8.629414483112837
10
-0.46875
20
0.0
30
2.678782795719571
11
0.0
21
0.0
31
2.65165
0
LINE
8
MINSPINTA
62
41
48
4.623006480755793
10
-0.46875
20
0.0
30
2.8815068519751867
11
0.0
21
0.0
31
2.838893044811038
0
LINE
8
MEDIONETWORK
62
41
48
6.161641054884071
10
-0.46875
20
0.0
30
2.7517974416817834
11
0.0
21
0.0
31
2.718190053229727
0
LINE
8
ASSE
62
253
10
-0.46875
20
0.0
30
2.762041
11
0.0
21
0.0
31
2.80165
0
LINE
8
INTRADOSSO
62
256
10
-0.46875
20
0.0
30
2.60989
11
0.0
21
0.0
31
2.65165
0
LINE
8
ESTRADOSSO
62
256
10
-0.46875
20
0.0
30
2.914192
11
0.0
21
0.0
31
2.95165
0
LINE
8
MAXSPINTA
62
41
48
8.62941446697649
10
0.0
20
0.0
30
2.65165
11
0.46875
21
0.0
31
2.6787827805262845
0
LINE
8
MINSPINTA
62
41
48
4.623006480755539
10
0.0
20
0.0
30
2.838893044811038
11
0.46875
21
0.0
31
2.8815068519751916
0
LINE
8
MEDIONETWORK
62
41
48
6.161632892147542
10
0.0
20
0.0
30
2.718190053229727
11
0.46875
21
0.0
31
2.7517887346563277
0
LINE
8
ASSE
62
253
10
0.0
20
0.0
30
2.80165
11
0.46875
21
0.0
31
2.762041
0
LINE
8
INTRADOSSO
62
256
10
0.0
20
0.0
30
2.65165
11
0.46875
21
0.0
31
2.60989
0
LINE
8
ESTRADOSSO
62
256
10
0.0
20
0.0
30
2.95165
11
0.46875
21
0.0
31
2.914192
0
LINE
8
MAXSPINTA
62
41
48
8.628423896309306
10
0.46875
20
0.0
30
2.6787827805262845
11
0.9375
21
0.0
31
2.65259925829117
0
LINE
8
MINSPINTA
62
41
48
4.675121088452901
10
0.46875
20
0.0
30
2.8815068519751916
11
0.9375
21
0.0
31
2.798809
0
LINE
8
MEDIONETWORK
62
41
48
6.188045451556198
10
0.46875
20
0.0
30
2.7517887346563277
11
0.9375
21
0.0
31
2.6967762371527604
0
LINE
8
ASSE
62
253
10
0.46875
20
0.0
30
2.762041
11
0.9375
21
0.0
31
2.6396005000000002
0
LINE
8
INTRADOSSO
62
256
10
0.46875
20
0.0
30
2.60989
11
0.9375
21
0.0
31
2.480392
0
LINE
8
ESTRADOSSO
62
256
10
0.46875
20
0.0
30
2.914192
11
0.9375
21
0.0
31
2.798809
0
LINE
8
MAXSPINTA
62
41
48
8.876378666585856
10
0.9375
20
0.0
30
2.65259925829117
11
1.40625
21
0.0
31
2.5362568720900245
0
LINE
8
MINSPINTA
62
41
48
5.452633658376027
10
0.9375
20
0.0
30
2.798809
11
1.40625
21
0.0
31
2.5013784057768955
0
LINE
8
MEDIONETWORK
62
41
48
6.716302112650524
10
0.9375
20
0.0
30
2.6967762371527604
11
1.40625
21
0.0
31
2.490181629511178
0
LINE
8
ASSE
62
253
10
0.9375
20
0.0
30
2.6396005000000002
11
1.40625
21
0.0
31
2.421588
0
LINE
8
INTRADOSSO
62
256
10
0.9375
20
0.0
30
2.480392
11
1.40625
21
0.0
31
2.248046
0
LINE
8
ESTRADOSSO
62
256
10
0.9375
20
0.0
30
2.798809
11
1.40625
21
0.0
31
2.59513
0
LINE
8
MAXSPINTA
62
41
48
9.821747936738753
10
1.40625
20
0.0
30
2.5362568720900245
11
1.875
21
0.0
31
2.279609
0
LINE
8
MINSPINTA
62
41
48
7.6842028168762
10
1.40625
20
0.0
30
2.5013784057768955
11
1.875
21
0.0
31
1.875
0
LINE
8
MEDIONETWORK
62
41
48
8.436244632740141
10
1.40625
20
0.0
30
2.490181629511178
11
1.875
21
0.0
31
2.049401410635525
0
LINE
8
ASSE
62
253
10
1.40625
20
0.0
30
2.421588
11
1.875
21
0.0
31
2.0773045000000003
0
LINE
8
INTRADOSSO
62
256
10
1.40625
20
0.0
30
2.248046
11
1.875
21
0.0
31
1.875
0
LINE
8
ESTRADOSSO
62
256
10
1.40625
20
0.0
30
2.59513
11
1.875
21
0.0
31
2.279609
0
LINE
8
MAXSPINTA
62
41
48
9.746650306938248
10
-1.875
20
0.46875
30
2.230894
11
-1.40625
21
0.46875
31
2.4789160159956545
0
LINE
8
MINSPINTA
62
41
48
7.571254981527357
10
-1.875
20
0.46875
30
1.815461
11
-1.40625
21
0.46875
31
2.427411385085995
0
LINE
8
MEDIONETWORK
62
41
48
8.37736881728861
10
-1.875
20
0.46875
30
1.9938232315339066
11
-1.40625
21
0.46875
31
2.428017792937817
0
LINE
8
ASSE
62
253
10
-1.875
20
0.46875
30
2.0231775
11
-1.40625
21
0.46875
31
2.3755385
0
LINE
8
INTRADOSSO
62
256
10
-1.875
20
0.46875
30
1.815461
11
-1.40625
21
0.46875
31
2.198632
0
LINE
8
ESTRADOSSO
62
256
10
-1.875
20
0.46875
30
2.230894
11
-1.40625
21
0.46875
31
2.552445
0
LINE
8
MAXSPINTA
62
41
48
8.858186527905833
10
-1.40625
20
0.46875
30
2.4789160159956545
11
-0.9375
21
0.46875
31
2.591068921313082
0
LINE
8
MINSPINTA
62
41
48
5.359970748203923
10
-1.40625
20
0.46875
30
2.427411385085995
11
-0.9375
21
0.46875
31
2.706832828834865
0
LINE
8
MEDIONETWORK
62
41
48
6.65625625000467
10
-1.40625
20
0.46875
30
2.428017792937817
11
-0.9375
21
0.46875
31
2.622974045651228
0
LINE
8
ASSE
62
253
10
-1.40625
20
0.46875
30
2.3755385
11
-0.9375
21
0.46875
31
2.5974865
0
LINE
8
INTRADOSSO
62
256
10
-1.40625
20
0.46875
30
2.198632
11
-0.9375
21
0.46875
31
2.435696
0
LINE
8
ESTRADOSSO
62
256
10
-1.40625
20
0.46875
30
2.552445
11
-0.9375
21
0.46875
31
2.759277
0
LINE
8
MAXSPINTA
62
41
48
8.622312820551647
10
-0.9375
20
0.46875
30
2.591068921313082
11
-0.46875
21
0.46875
31
2.610342478140246
0
LINE
8
MINSPINTA
62
41
48
4.640985830859052
10
-0.9375
20
0.46875
30
2.706832828834865
11
-0.46875
21
0.46875
31
2.766334577026243
0
LINE
8
MEDIONETWORK
62
41
48
6.167971247514661
10
-0.9375
20
0.46875
30
2.622974045651228
11
-0.46875
21
0.46875
31
2.6627417438339696
0
LINE
8
ASSE
62
253
10
-0.9375
20
0.46875
30
2.5974865
11
-0.46875
21
0.46875
31
2.721847
0
LINE
8
INTRADOSSO
62
256
10
-0.9375
20
0.46875
30
2.435696
11
-0.46875
21
0.46875
31
2.567449
0
LINE
8
ESTRADOSSO
62
256
10
-0.9375
20
0.46875
30
2.759277
11
-0.46875
21
0.46875
31
2.876245
0
LINE
8
MAXSPINTA
62
41
48
8.708417448699228
10
-0.46875
20
0.46875
30
2.610342478140246
11
0.0
21
0.46875
31
2.6787827761696588
0
LINE
8
MINSPINTA
62
41
48
4.742087385020061
10
-0.46875
20
0.46875
30
2.766334577026243
11
0.0
21
0.46875
31
2.88150685197518
0
LINE
8
MEDIONETWORK
62
41
48
6.25727378115189
10
-0.46875
20
0.46875
30
2.6627417438339696
11
0.0
21
0.46875
31
2.7517893084250518
0
LINE
8
ASSE
62
253
10
-0.46875
20
0.46875
30
2.721847
11
0.0
21
0.46875
31
2.762041
0
LINE
8
INTRADOSSO
62
256
10
-0.46875
20
0.46875
30
2.567449
11
0.0
21
0.46875
31
2.60989
0
LINE
8
ESTRADOSSO
62
256
10
-0.46875
20
0.46875
30
2.876245
11
0.0
21
0.46875
31
2.914192
0
LINE
8
MAXSPINTA
62
41
48
8.70767282074868
10
0.0
20
0.46875
30
2.6787827761696588
11
0.46875
21
0.46875
31
2.6106234128098187
0
LINE
8
MINSPINTA
62
41
48
4.741428569916866
10
0.0
20
0.46875
30
2.88150685197518
11
0.46875
21
0.46875
31
2.766615952513152
0
LINE
8
MEDIONETWORK
62
41
48
6.256084045952775
10
0.0
20
0.46875
30
2.7517893084250518
11
0.46875
21
0.46875
31
2.663229127666405
0
LINE
8
ASSE
62
253
10
0.0
20
0.46875
30
2.762041
11
0.46875
21
0.46875
31
2.721847
0
LINE
8
INTRADOSSO
62
256
10
0.0
20
0.46875
30
2.60989
11
0.46875
21
0.46875
31
2.567449
0
LINE
8
ESTRADOSSO
62
256
10
0.0
20
0.46875
30
2.914192
11
0.46875
21
0.46875
31
2.876245
0
LINE
8
MAXSPINTA
62
41
48
8.622217489915537
10
0.46875
20
0.46875
30
2.6106234128098187
11
0.9375
21
0.46875
31
2.5914765307600924
0
LINE
8
MINSPINTA
62
41
48
4.640768577829561
10
0.46875
20
0.46875
30
2.766615952513152
11
0.9375
21
0.46875
31
2.7072901111584233
0
LINE
8
MEDIONETWORK
62
41
48
6.167545168271643
10
0.46875
20
0.46875
30
2.663229127666405
11
0.9375
21
0.46875
31
2.623847720133918
0
LINE
8
ASSE
62
253
10
0.46875
20
0.46875
30
2.721847
11
0.9375
21
0.46875
31
2.5974865
0
LINE
8
INTRADOSSO
62
256
10
0.46875
20
0.46875
30
2.567449
11
0.9375
21
0.46875
31
2.435696
0
LINE
8
ESTRADOSSO
62
256
10
0.46875
20
0.46875
30
2.876245
11
0.9375
21
0.46875
31
2.759277
0
LINE
8
MAXSPINTA
62
41
48
8.857974988739503
10
0.9375
20
0.46875
30
2.5914765307600924
11
1.40625
21
0.46875
31
2.479373100272363
0
LINE
8
MINSPINTA
62
41
48
5.359385349098551
10
0.9375
20
0.46875
30
2.7072901111584233
11
1.40625
21
0.46875
31
2.427985086874622
0
LINE
8
MEDIONETWORK
62
41
48
6.652040765420135
10
0.9375
20
0.46875
30
2.623847720133918
11
1.40625
21
0.46875
31
2.4297302522906863
0
LINE
8
ASSE
62
253
10
0.9375
20
0.46875
30
2.5974865
11
1.40625
21
0.46875
31
2.3755385
0
LINE
8
INTRADOSSO
62
256
10
0.9375
20
0.46875
30
2.435696
11
1.40625
21
0.46875
31
2.198632
0
LINE
8
ESTRADOSSO
62
256
10
0.9375
20
0.46875
30
2.759277
11
1.40625
21
0.46875
31
2.552445
0
LINE
8
MAXSPINTA
62
41
48
9.750581957722657
10
1.40625
20
0.46875
30
2.479373100272363
11
1.875
21
0.46875
31
2.230894
0
LINE
8
MINSPINTA
62
41
48
7.575729081446837
10
1.40625
20
0.46875
30
2.427985086874622
11
1.875
21
0.46875
31
1.815461
0
LINE
8
MEDIONETWORK
62
41
48
8.362843770916772
10
1.40625
20
0.46875
30
2.4297302522906863
11
1.875
21
0.46875
31
1.9971675908129929
0
LINE
8
ASSE
62
253
10
1.40625
20
0.46875
30
2.3755385
11
1.875
21
0.46875
31
2.0231775
0
LINE
8
INTRADOSSO
62
256
10
1.40625
20
0.46875
30
2.198632
11
1.875
21
0.46875
31
1.815461
0
LINE
8
ESTRADOSSO
62
256
10
1.40625
20
0.46875
30
2.552445
11
1.875
21
0.46875
31
2.230894
0
LINE
8
MAXSPINTA
62
41
48
9.781005330123099
10
-1.875
20
0.9375
30
2.0421625989877783
11
-1.40625
21
0.9375
31
2.2941613777832766
0
LINE
8
MINSPINTA
62
41
48
7.244538343320433
10
-1.875
20
0.9375
30
1.623798
11
-1.40625
21
0.9375
31
2.19328132595446
0
LINE
8
MEDIONETWORK
62
41
48
7.9033620097611665
10
-1.875
20
0.9375
30
1.856999359140599
11
-1.40625
21
0.9375
31
2.2359923611847337
0
LINE
8
ASSE
62
253
10
-1.875
20
0.9375
30
1.850854
11
-1.40625
21
0.9375
31
2.2315545
0
LINE
8
INTRADOSSO
62
256
10
-1.875
20
0.9375
30
1.623798
11
-1.40625
21
0.9375
31
2.043234
0
LINE
8
ESTRADOSSO
62
256
10
-1.875
20
0.9375
30
2.07791
11
-1.40625
21
0.9375
31
2.419875
0
LINE
8
MAXSPINTA
62
41
48
8.839101960547817
10
-1.40625
20
0.9375
30
2.2941613777832766
11
-0.9375
21
0.9375
31
2.401773054796931
0
LINE
8
MINSPINTA
62
41
48
5.122383593723926
10
-1.40625
20
0.9375
30
2.19328132595446
11
-0.9375
21
0.9375
31
2.4218918274395222
0
LINE
8
MEDIONETWORK
62
41
48
6.490035862438249
10
-1.40625
20
0.9375
30
2.2359923611847337
11
-0.9375
21
0.9375
31
2.3950469402171577
0
LINE
8
ASSE
62
253
10
-1.40625
20
0.9375
30
2.2315545
11
-0.9375
21
0.9375
31
2.466761
0
LINE
8
INTRADOSSO
62
256
10
-1.40625
20
0.9375
30
2.043234
11
-0.9375
21
0.9375
31
2.296397
0
LINE
8
ESTRADOSSO
62
256
10
-1.40625
20
0.9375
30
2.419875
11
-0.9375
21
0.9375
31
2.637125
0
LINE
8
MAXSPINTA
62
41
48
9.294251605551365
10
-0.9375
20
0.9375
30
2.401773054796931
11
-0.46875
21
0.9375
31
2.5910689120361323
0
LINE
8
MINSPINTA
62
41
48
5.3898256962184
10
-0.9375
20
0.9375
30
2.4218918274395222
11
-0.46875
21
0.9375
31
2.7068328288348567
0
LINE
8
MEDIONETWORK
62
41
48
6.836305886609424
10
-0.9375
20
0.9375
30
2.3950469402171577
11
-0.46875
21
0.9375
31
2.622969399918536
0
LINE
8
ASSE
62
253
10
-0.9375
20
0.9375
30
2.466761
11
-0.46875
21
0.9375
31
2.5974865
0
LINE
8
INTRADOSSO
62
256
10
-0.9375
20
0.9375
30
2.296397
11
-0.46875
21
0.9375
31
2.435696
0
LINE
8
ESTRADOSSO
62
256
10
-0.9375
20
0.9375
30
2.637125
11
-0.46875
21
0.9375
31
2.759277
0
LINE
8
MAXSPINTA
62
41
48
8.691993158627893
10
-0.46875
20
0.9375
30
2.5910689120361323
11
0.0
21
0.9375
31
2.65259925196415
0
LINE
8
MINSPINTA
62
41
48
4.693484095111645
10
-0.46875
20
0.9375
30
2.7068328288348567
11
0.0
21
0.9375
31
2.7988089999999746
0
LINE
8
MEDIONETWORK
62
41
48
6.223802261449736
10
-0.46875
20
0.9375
30
2.622969399918536
11
0.0
21
0.9375
31
2.696777448962069
0
LINE
8
ASSE
62
253
10
-0.46875
20
0.9375
30
2.5974865
11
0.0
21
0.9375
31
2.6396005000000002
0
LINE
8
INTRADOSSO
62
256
10
-0.46875
20
0.9375
30
2.435696
11
0.0
21
0.9375
31
2.480392
0
LINE
8
ESTRADOSSO
62
256
10
-0.46875
20
0.9375
30
2.759277
11
0.0
21
0.9375
31
2.798809
0
LINE
8
MAXSPINTA
62
41
48
8.691020988533955
10
0.0
20
0.9375
30
2.65259925196415
11
0.46875
21
0.9375
31
2.591476528854467
0
LINE
8
MINSPINTA
62
41
48
4.692621067400813
10
0.0
20
0.9375
30
2.7988089999999746
11
0.46875
21
0.9375
31
2.7072901111584105
0
LINE
8
MEDIONETWORK
62
41
48
6.222019442076053
10
0.0
20
0.9375
30
2.696777448962069
11
0.46875
21
0.9375
31
2.623848418563807
0
LINE
8
ASSE
62
253
10
0.0
20
0.9375
30
2.6396005000000002
11
0.46875
21
0.9375
31
2.5974865
0
LINE
8
INTRADOSSO
62
256
10
0.0
20
0.9375
30
2.480392
11
0.46875
21
0.9375
31
2.435696
0
LINE
8
ESTRADOSSO
62
256
10
0.0
20
0.9375
30
2.798809
11
0.46875
21
0.9375
31
2.759277
0
LINE
8
MAXSPINTA
62
41
48
9.29241300851512
10
0.46875
20
0.9375
30
2.591476528854467
11
0.9375
21
0.9375
31
2.4024479025450116
0
LINE
8
MINSPINTA
62
41
48
5.3892662041933255
10
0.46875
20
0.9375
30
2.7072901111584105
11
0.9375
21
0.9375
31
2.422458750849589
0
LINE
8
MEDIONETWORK
62
41
48
6.835584583250107
10
0.46875
20
0.9375
30
2.623848418563807
11
0.9375
21
0.9375
31
2.3960517518139444
0
LINE
8
ASSE
62
253
10
0.46875
20
0.9375
30
2.5974865
11
0.9375
21
0.9375
31
2.466761
0
LINE
8
INTRADOSSO
62
256
10
0.46875
20
0.9375
30
2.435696
11
0.9375
21
0.9375
31
2.296397
0
LINE
8
ESTRADOSSO
62
256
10
0.46875
20
0.9375
30
2.759277
11
0.9375
21
0.9375
31
2.637125
0
LINE
8
MAXSPINTA
62
41
48
8.838049623314733
10
0.9375
20
0.9375
30
2.4024479025450116
11
1.40625
21
0.9375
31
2.2950924185445842
0
LINE
8
MINSPINTA
62
41
48
5.120858696448064
10
0.9375
20
0.9375
30
2.422458750849589
11
1.40625
21
0.9375
31
2.1942026514637463
0
LINE
8
MEDIONETWORK
62
41
48
6.4860089682470345
10
0.9375
20
0.9375
30
2.3960517518139444
11
1.40625
21
0.9375
31
2.237955608336519
0
LINE
8
ASSE
62
253
10
0.9375
20
0.9375
30
2.466761
11
1.40625
21
0.9375
31
2.2315545
0
LINE
8
INTRADOSSO
62
256
10
0.9375
20
0.9375
30
2.296397
11
1.40625
21
0.9375
31
2.043234
0
LINE
8
ESTRADOSSO
62
256
10
0.9375
20
0.9375
30
2.637125
11
1.40625
21
0.9375
31
2.419875
0
LINE
8
MAXSPINTA
62
41
48
9.785119207436294
10
1.40625
20
0.9375
30
2.2950924185445842
11
1.875
21
0.9375
31
2.0426212580794196
0
LINE
8
MINSPINTA
62
41
48
7.2515273822215995
10
1.40625
20
0.9375
30
2.1942026514637463
11
1.875
21
0.9375
31
1.623798
0
LINE
8
MEDIONETWORK
62
41
48
7.89417847879292
10
1.40625
20
0.9375
30
2.237955608336519
11
1.875
21
0.9375
31
1.8600776538668315
0
LINE
8
ASSE
62
253
10
1.40625
20
0.9375
30
2.2315545
11
1.875
21
0.9375
31
1.850854
0
LINE
8
INTRADOSSO
62
256
10
1.40625
20
0.9375
30
2.043234
11
1.875
21
0.9375
31
1.623798
0
LINE
8
ESTRADOSSO
62
256
10
1.40625
20
0.9375
30
2.419875
11
1.875
21
0.9375
31
2.07791
0
LINE
8
MAXSPINTA
62
41
48
10.018728135712704
10
-1.875
20
1.40625
30
1.6836785890318977
11
-1.40625
21
1.40625
31
1.9619549640668428
0
LINE
8
MINSPINTA
62
41
48
6.830442584325053
10
-1.875
20
1.40625
30
1.240196
11
-1.40625
21
1.40625
31
1.753902
0
LINE
8
MEDIONETWORK
62
41
48
7.219259696849053
10
-1.875
20
1.40625
30
1.56592666997815
11
-1.40625
21
1.40625
31
1.8548099036027148
0
LINE
8
ASSE
62
253
10
-1.875
20
1.40625
30
1.517187
11
-1.40625
21
1.40625
31
1.967497
0
LINE
8
INTRADOSSO
62
256
10
-1.875
20
1.40625
30
1.240196
11
-1.40625
21
1.40625
31
1.753902
0
LINE
8
ESTRADOSSO
62
256
10
-1.875
20
1.40625
30
1.794178
11
-1.40625
21
1.40625
31
2.181092
0
LINE
8
MAXSPINTA
62
41
48
10.564562749597501
10
-1.40625
20
1.40625
30
1.9619549640668428
11
-0.9375
21
1.40625
31
2.294161376226288
0
LINE
8
MINSPINTA
62
41
48
6.313626116999509
10
-1.40625
20
1.40625
30
1.753902
11
-0.9375
21
1.40625
31
2.1932813259544592
0
LINE
8
MEDIONETWORK
62
41
48
7.9255074862979455
10
-1.40625
20
1.40625
30
1.8548099036027148
11
-0.9375
21
1.40625
31
2.2359920726487905
0
LINE
8
ASSE
62
253
10
-1.40625
20
1.40625
30
1.967497
11
-0.9375
21
1.40625
31
2.2315545
0
LINE
8
INTRADOSSO
62
256
10
-1.40625
20
1.40625
30
1.753902
11
-0.9375
21
1.40625
31
2.043234
0
LINE
8
ESTRADOSSO
62
256
10
-1.40625
20
1.40625
30
2.181092
11
-0.9375
21
1.40625
31
2.419875
0
LINE
8
MAXSPINTA
62
41
48
9.264771953425596
10
-0.9375
20
1.40625
30
2.294161376226288
11
-0.46875
21
1.40625
31
2.478916007542443
0
LINE
8
MINSPINTA
62
41
48
5.1490212113496785
10
-0.9375
20
1.40625
30
2.1932813259544592
11
-0.46875
21
1.40625
31
2.42741138508599
0
LINE
8
MEDIONETWORK
62
41
48
6.644954387055379
10
-0.9375
20
1.40625
30
2.2359920726487905
11
-0.46875
21
1.40625
31
2.428012771929028
0
LINE
8
ASSE
62
253
10
-0.9375
20
1.40625
30
2.2315545
11
-0.46875
21
1.40625
31
2.3755385
0
LINE
8
INTRADOSSO
62
256
10
-0.9375
20
1.40625
30
2.043234
11
-0.46875
21
1.40625
31
2.198632
0
LINE
8
ESTRADOSSO
62
256
10
-0.9375
20
1.40625
30
2.419875
11
-0.46875
21
1.40625
31
2.552445
0
LINE
8
MAXSPINTA
62
41
48
8.683673119781735
10
-0.46875
20
1.40625
30
2.478916007542443
11
0.0
21
1.40625
31
2.5362568670980954
0
LINE
8
MINSPINTA
62
41
48
4.663383141541431
10
-0.46875
20
1.40625
30
2.42741138508599
11
0.0
21
1.40625
31
2.5013784057768707
0
LINE
8
MEDIONETWORK
62
41
48
6.202872480426861
10
-0.46875
20
1.40625
30
2.428012771929028
11
0.0
21
1.40625
31
2.490183632595928
0
LINE
8
ASSE
62
253
10
-0.46875
20
1.40625
30
2.3755385
11
0.0
21
1.40625
31
2.421588
0
LINE
8
INTRADOSSO
62
256
10
-0.46875
20
1.40625
30
2.198632
11
0.0
21
1.40625
31
2.248046
0
LINE
8
ESTRADOSSO
62
256
10
-0.46875
20
1.40625
30
2.552445
11
0.0
21
1.40625
31
2.59513
0
LINE
8
MAXSPINTA
62
41
48
8.68265657022833
10
0.0
20
1.40625
30
2.5362568670980954
11
0.46875
21
1.40625
31
2.479373098976877
0
LINE
8
MINSPINTA
62
41
48
4.662507724960475
10
0.0
20
1.40625
30
2.5013784057768707
11
0.46875
21
1.40625
31
2.427985086874613
0
LINE
8
MEDIONETWORK
62
41
48
6.199947844705519
10
0.0
20
1.40625
30
2.490183632595928
11
0.46875
21
1.40625
31
2.4297318342741474
0
LINE
8
ASSE
62
253
10
0.0
20
1.40625
30
2.421588
11
0.46875
21
1.40625
31
2.3755385
0
LINE
8
INTRADOSSO
62
256
10
0.0
20
1.40625
30
2.248046
11
0.46875
21
1.40625
31
2.198632
0
LINE
8
ESTRADOSSO
62
256
10
0.0
20
1.40625
30
2.59513
11
0.46875
21
1.40625
31
2.552445
0
LINE
8
MAXSPINTA
62
41
48
9.261579778429859
10
0.46875
20
1.40625
30
2.479373098976877
11
0.9375
21
1.40625
31
2.2950924202637704
0
LINE
8
MINSPINTA
62
41
48
5.14749567700606
10
0.46875
20
1.40625
30
2.427985086874613
11
0.9375
21
1.40625
31
2.1942026514637427
0
LINE
8
MEDIONETWORK
62
41
48
6.643735020624242
10
0.46875
20
1.40625
30
2.4297318342741474
11
0.9375
21
1.40625
31
2.237956484964912
0
LINE
8
ASSE
62
253
10
0.46875
20
1.40625
30
2.3755385
11
0.9375
21
1.40625
31
2.2315545
0
LINE
8
INTRADOSSO
62
256
10
0.46875
20
1.40625
30
2.198632
11
0.9375
21
1.40625
31
2.043234
0
LINE
8
ESTRADOSSO
62
256
10
0.46875
20
1.40625
30
2.552445
11
0.9375
21
1.40625
31
2.419875
0
LINE
8
MAXSPINTA
62
41
48
10.566236771788597
10
0.9375
20
1.40625
30
2.2950924202637704
11
1.40625
21
1.40625
31
1.962728587169779
0
LINE
8
MINSPINTA
62
41
48
6.319821300938112
10
0.9375
20
1.40625
30
2.1942026514637427
11
1.40625
21
1.40625
31
1.753902
0
LINE
8
MEDIONETWORK
62
41
48
7.940531330394777
10
0.9375
20
1.40625
30
2.237956484964912
11
1.40625
21
1.40625
31
1.8549616168082876
0
LINE
8
ASSE
62
253
10
0.9375
20
1.40625
30
2.2315545
11
1.40625
21
1.40625
31
1.967497
0
LINE
8
INTRADOSSO
62
256
10
0.9375
20
1.40625
30
2.043234
11
1.40625
21
1.40625
31
1.753902
0
LINE
8
ESTRADOSSO
62
256
10
0.9375
20
1.40625
30
2.419875
11
1.40625
21
1.40625
31
2.181092
0
LINE
8
MAXSPINTA
62
41
48
10.021662435345199
10
1.40625
20
1.40625
30
1.962728587169779
11
1.875
21
1.40625
31
1.68413958125269
0
LINE
8
MINSPINTA
62
41
48
6.830442584325106
10
1.40625
20
1.40625
30
1.753902
11
1.875
21
1.40625
31
1.240196
0
LINE
8
MEDIONETWORK
62
41
48
7.235427713242733
10
1.40625
20
1.40625
30
1.8549616168082876
11
1.875
21
1.40625
31
1.5637348536204745
0
LINE
8
ASSE
62
253
10
1.40625
20
1.40625
30
1.967497
11
1.875
21
1.40625
31
1.517187
0
LINE
8
INTRADOSSO
62
256
10
1.40625
20
1.40625
30
1.753902
11
1.875
21
1.40625
31
1.240196
0
LINE
8
ESTRADOSSO
62
256
10
1.40625
20
1.40625
30
2.181092
11
1.875
21
1.40625
31
1.794178
0
LINE
8
MAXSPINTA
62
41
48
9.325684115380836
10
-1.875
20
1.875
30
1.29653
11
-1.640625
21
1.875
31
1.393673945438243
0
LINE
8
MINSPINTA
62
41
48
5.053453818703881
10
-1.875
20
1.875
30
0.865217503172395
11
-1.640625
21
1.875
31
0.9712742732425726
0
LINE
8
MEDIONETWORK
62
61
48
14.3957907876599
10
-1.875
20
1.875
30
0.7764017734464898
11
-1.640625
21
1.875
31
1.2728465723768212
0
LINE
8
ASSE
62
253
10
-1.875
20
1.875
30
0.648265
11
-1.640625
21
1.875
31
1.245219
0
LINE
8
INTRADOSSO
62
256
10
-1.875
20
1.875
30
0.0
11
-1.640625
21
1.875
31
0.90773
0
LINE
8
ESTRADOSSO
62
256
10
-1.875
20
1.875
30
1.29653
11
-1.640625
21
1.875
31
1.582708
0
LINE
8
MAXSPINTA
62
101
48
27.4148696541217
10
-1.640625
20
1.875
30
1.393673945438243
11
-1.40625
21
1.875
31
1.683678596492891
0
LINE
8
MINSPINTA
62
61
48
14.016423694789145
10
-1.640625
20
1.875
30
0.9712742732425726
11
-1.40625
21
1.875
31
1.240196
0
LINE
8
MEDIONETWORK
62
81
48
19.68336990907701
10
-1.640625
20
1.875
30
1.2728465723768212
11
-1.40625
21
1.875
31
1.5659293078133083
0
LINE
8
ASSE
62
253
10
-1.640625
20
1.875
30
1.245219
11
-1.40625
21
1.875
31
1.517187
0
LINE
8
INTRADOSSO
62
256
10
-1.640625
20
1.875
30
0.90773
11
-1.40625
21
1.875
31
1.240196
0
LINE
8
ESTRADOSSO
62
256
10
-1.640625
20
1.875
30
1.582708
11
-1.40625
21
1.875
31
1.794178
0
LINE
8
MAXSPINTA
62
81
48
22.460555632152463
10
-1.40625
20
1.875
30
1.683678596492891
11
-0.9375
21
1.875
31
2.0421626012185077
0
LINE
8
MINSPINTA
62
61
48
12.320415672359605
10
-1.40625
20
1.875
30
1.240196
11
-0.9375
21
1.875
31
1.623798
0
LINE
8
MEDIONETWORK
62
61
48
14.98198271268612
10
-1.40625
20
1.875
30
1.5659293078133083
11
-0.9375
21
1.875
31
1.857003228287759
0
LINE
8
ASSE
62
253
10
-1.40625
20
1.875
30
1.517187
11
-0.9375
21
1.875
31
1.850854
0
LINE
8
INTRADOSSO
62
256
10
-1.40625
20
1.875
30
1.240196
11
-0.9375
21
1.875
31
1.623798
0
LINE
8
ESTRADOSSO
62
256
10
-1.40625
20
1.875
30
1.794178
11
-0.9375
21
1.875
31
2.07791
0
LINE
8
MAXSPINTA
62
81
48
19.233018180241878
10
-0.9375
20
1.875
30
2.0421626012185077
11
-0.46875
21
1.875
31
2.2308939999999997
0
LINE
8
MINSPINTA
62
41
48
10.3009191011967
10
-0.9375
20
1.875
30
1.623798
11
-0.46875
21
1.875
31
1.815461
0
LINE
8
MEDIONETWORK
62
61
48
13.258858848657098
10
-0.9375
20
1.875
30
1.857003228287759
11
-0.46875
21
1.875
31
1.9938232055356262
0
LINE
8
ASSE
62
253
10
-0.9375
20
1.875
30
1.850854
11
-0.46875
21
1.875
31
2.0231775
0
LINE
8
INTRADOSSO
62
256
10
-0.9375
20
1.875
30
1.623798
11
-0.46875
21
1.875
31
1.815461
0
LINE
8
ESTRADOSSO
62
256
10
-0.9375
20
1.875
30
2.07791
11
-0.46875
21
1.875
31
2.230894
0
LINE
8
MAXSPINTA
62
61
48
17.937289771057845
10
-0.46875
20
1.875
30
2.2308939999999997
11
0.0
21
1.875
31
2.279609
0
LINE
8
MINSPINTA
62
41
48
9.61129008265004
10
-0.46875
20
1.875
30
1.815461
11
0.0
21
1.875
31
1.875
0
LINE
8
MEDIONETWORK
62
61
48
12.816927107823018
10
-0.46875
20
1.875
30
1.9938232055356262
11
0.0
21
1.875
31
2.0494044911111713
0
LINE
8
ASSE
62
253
10
-0.46875
20
1.875
30
2.0231775
11
0.0
21
1.875
31
2.0773045000000003
0
LINE
8
INTRADOSSO
62
256
10
-0.46875
20
1.875
30
1.815461
11
0.0
21
1.875
31
1.875
0
LINE
8
ESTRADOSSO
62
256
10
-0.46875
20
1.875
30
2.230894
11
0.0
21
1.875
31
2.279609
0
LINE
8
MAXSPINTA
62
61
48
17.937289771057845
10
0.0
20
1.875
30
2.279609
11
0.46875
21
1.875
31
2.230894
0
LINE
8
MINSPINTA
62
41
48
9.611290082650042
10
0.0
20
1.875
30
1.875
11
0.46875
21
1.875
31
1.815461
0
LINE
8
MEDIONETWORK
62
61
48
12.806543745423417
10
0.0
20
1.875
30
2.0494044911111713
11
0.46875
21
1.875
31
1.9971703407926118
0
LINE
8
ASSE
62
253
10
0.0
20
1.875
30
2.0773045000000003
11
0.46875
21
1.875
31
2.0231775
0
LINE
8
INTRADOSSO
62
256
10
0.0
20
1.875
30
1.875
11
0.46875
21
1.875
31
1.815461
0
LINE
8
ESTRADOSSO
62
256
10
0.0
20
1.875
30
2.279609
11
0.46875
21
1.875
31
2.230894
0
LINE
8
MAXSPINTA
62
81
48
19.226504843962584
10
0.46875
20
1.875
30
2.230894
11
0.9375
21
1.875
31
2.042621266254082
0
LINE
8
MINSPINTA
62
41
48
10.300919101196708
10
0.46875
20
1.875
30
1.815461
11
0.9375
21
1.875
31
1.623798
0
LINE
8
MEDIONETWORK
62
61
48
13.260920834287894
10
0.46875
20
1.875
30
1.9971703407926118
11
0.9375
21
1.875
31
1.8600795784705775
0
LINE
8
ASSE
62
253
10
0.46875
20
1.875
30
2.0231775
11
0.9375
21
1.875
31
1.850854
0
LINE
8
INTRADOSSO
62
256
10
0.46875
20
1.875
30
1.815461
11
0.9375
21
1.875
31
1.623798
0
LINE
8
ESTRADOSSO
62
256
10
0.46875
20
1.875
30
2.230894
11
0.9375
21
1.875
31
2.07791
0
LINE
8
MAXSPINTA
62
81
48
22.46050144605465
10
0.9375
20
1.875
30
2.042621266254082
11
1.40625
21
1.875
31
1.684139605076375
0
LINE
8
MINSPINTA
62
61
48
12.320415672359623
10
0.9375
20
1.875
30
1.623798
11
1.40625
21
1.875
31
1.240196
0
LINE
8
MEDIONETWORK
62
61
48
15.057958908389095
10
0.9375
20
1.875
30
1.8600795784705775
11
1.40625
21
1.875
31
1.5637356926759456
0
LINE
8
ASSE
62
253
10
0.9375
20
1.875
30
1.850854
11
1.40625
21
1.875
31
1.517187
0
LINE
8
INTRADOSSO
62
256
10
0.9375
20
1.875
30
1.623798
11
1.40625
21
1.875
31
1.240196
0
LINE
8
ESTRADOSSO
62
256
10
0.9375
20
1.875
30
2.07791
11
1.40625
21
1.875
31
1.794178
0
LINE
8
MAXSPINTA
62
101
48
27.421530019281693
10
1.40625
20
1.875
30
1.684139605076375
11
1.640625
21
1.875
31
1.3940184892656504
0
LINE
8
MINSPINTA
62
61
48
14.072425831960006
10
1.40625
20
1.875
30
1.240196
11
1.640625
21
1.875
31
0.9693865157391104
0
LINE
8
MEDIONETWORK
62
81
48
19.647235968298183
10
1.40625
20
1.875
30
1.5637356926759456
11
1.640625
21
1.875
31
1.2715355772208174
0
LINE
8
ASSE
62
253
10
1.40625
20
1.875
30
1.517187
11
1.640625
21
1.875
31
1.245219
0
LINE
8
INTRADOSSO
62
256
10
1.40625
20
1.875
30
1.240196
11
1.640625
21
1.875
31
0.90773
0
LINE
8
ESTRADOSSO
62
256
10
1.40625
20
1.875
30
1.794178
11
1.640625
21
1.875
31
1.582708
0
LINE
8
MAXSPINTA
62
41
48
9.330540614920867
10
1.640625
20
1.875
30
1.3940184892656504
11
1.875
21
1.875
31
1.29653
0
LINE
8
MINSPINTA
62
41
48
5.0735697026293245
10
1.640625
20
1.875
30
0.9693865157391104
11
1.875
21
1.875
31
0.8608694224036044
0
LINE
8
MEDIONETWORK
62
61
48
14.3869121962305
10
1.640625
20
1.875
30
1.2715355772208174
11
1.875
21
1.875
31
0.7754652292627195
0
LINE
8
ASSE
62
253
10
1.640625
20
1.875
30
1.245219
11
1.875
21
1.875
31
0.648265
0
LINE
8
INTRADOSSO
62
256
10
1.640625
20
1.875
30
0.90773
11
1.875
21
1.875
31
0.0
0
LINE
8
ESTRADOSSO
62
256
10
1.640625
20
1.875
30
1.582708
11
1.875
21
1.875
31
1.29653
0
LINE
8
MAXSPINTA
62
41
48
9.33054848413246
10
-1.875
20
-1.875
30
1.29653
11
-1.875
21
-1.640625
31
1.3940190467031803
0
LINE
8
MINSPINTA
62
41
48
5.073570038029023
10
-1.875
20
-1.875
30
0.8608693662282055
11
-1.875
21
-1.640625
31
0.9693865002011322
0
LINE
8
MEDIONETWORK
62
61
48
14.385793313827214
10
-1.875
20
-1.875
30
0.7756086312323626
11
-1.875
21
-1.640625
31
1.2716317871237637
0
LINE
8
ASSE
62
253
10
-1.875
20
-1.875
30
0.648265
11
-1.875
21
-1.640625
31
1.245219
0
LINE
8
INTRADOSSO
62
256
10
-1.875
20
-1.875
30
0.0
11
-1.875
21
-1.640625
31
0.90773
0
LINE
8
ESTRADOSSO
62
256
10
-1.875
20
-1.875
30
1.29653
11
-1.875
21
-1.640625
31
1.582708
0
LINE
8
MAXSPINTA
62
101
48
27.42151700828265
10
-1.875
20
-1.640625
30
1.3940190467031803
11
-1.875
21
-1.40625
31
1.684139935018441
0
LINE
8
MINSPINTA
62
61
48
14.072427163681224
10
-1.875
20
-1.640625
30
0.9693865002011322
11
-1.875
21
-1.40625
31
1.2401960292853065
0
LINE
8
MEDIONETWORK
62
81
48
19.64670459913394
10
-1.875
20
-1.640625
30
1.2716317871237637
11
-1.875
21
-1.40625
31
1.5638189154008655
0
LINE
8
ASSE
62
253
10
-1.875
20
-1.640625
30
1.245219
11
-1.875
21
-1.40625
31
1.517187
0
LINE
8
INTRADOSSO
62
256
10
-1.875
20
-1.640625
30
0.90773
11
-1.875
21
-1.40625
31
1.240196
0
LINE
8
ESTRADOSSO
62
256
10
-1.875
20
-1.640625
30
1.582708
11
-1.875
21
-1.40625
31
1.794178
0
LINE
8
MAXSPINTA
62
81
48
22.460496840305513
10
-1.875
20
-1.40625
30
1.684139935018441
11
-1.875
21
-0.9375
31
2.0426213969971165
0
LINE
8
MINSPINTA
62
61
48
12.320415295104318
10
-1.875
20
-1.40625
30
1.2401960292853065
11
-1.875
21
-0.9375
31
1.623798
0
LINE
8
MEDIONETWORK
62
61
48
15.057558300262038
10
-1.875
20
-1.40625
30
1.5638189154008655
11
-1.875
21
-0.9375
31
1.8601351901670262
0
LINE
8
ASSE
62
253
10
-1.875
20
-1.40625
30
1.517187
11
-1.875
21
-0.9375
31
1.850854
0
LINE
8
INTRADOSSO
62
256
10
-1.875
20
-1.40625
30
1.240196
11
-1.875
21
-0.9375
31
1.623798
0
LINE
8
ESTRADOSSO
62
256
10
-1.875
20
-1.40625
30
1.794178
11
-1.875
21
-0.9375
31
2.07791
0
LINE
8
MAXSPINTA
62
81
48
19.226502989273378
10
-1.875
20
-0.9375
30
2.0426213969971165
11
-1.875
21
-0.46875
31
2.230894
0
LINE
8
MINSPINTA
62
41
48
10.300919101196758
10
-1.875
20
-0.9375
30
1.623798
11
-1.875
21
-0.46875
31
1.815461
0
LINE
8
MEDIONETWORK
62
61
48
13.260728385660713
10
-1.875
20
-0.9375
30
1.8601351901670262
11
-1.875
21
-0.46875
31
1.997200700511562
0
LINE
8
ASSE
62
253
10
-1.875
20
-0.9375
30
1.850854
11
-1.875
21
-0.46875
31
2.0231775
0
LINE
8
INTRADOSSO
62
256
10
-1.875
20
-0.9375
30
1.623798
11
-1.875
21
-0.46875
31
1.815461
0
LINE
8
ESTRADOSSO
62
256
10
-1.875
20
-0.9375
30
2.07791
11
-1.875
21
-0.46875
31
2.230894
0
LINE
8
MAXSPINTA
62
61
48
17.93728977105792
10
-1.875
20
-0.46875
30
2.230894
11
-1.875
21
0.0
31
2.279609
0
LINE
8
MINSPINTA
62
41
48
9.611290082650083
10
-1.875
20
-0.46875
30
1.815461
11
-1.875
21
0.0
31
1.875
0
LINE
8
MEDIONETWORK
62
61
48
12.806486349995643
10
-1.875
20
-0.46875
30
1.997200700511562
11
-1.875
21
0.0
31
2.0494157605925793
0
LINE
8
ASSE
62
253
10
-1.875
20
-0.46875
30
2.0231775
11
-1.875
21
0.0
31
2.0773045000000003
0
LINE
8
INTRADOSSO
62
256
10
-1.875
20
-0.46875
30
1.815461
11
-1.875
21
0.0
31
1.875
0
LINE
8
ESTRADOSSO
62
256
10
-1.875
20
-0.46875
30
2.230894
11
-1.875
21
0.0
31
2.279609
0
LINE
8
MAXSPINTA
62
61
48
17.937289771057905
10
-1.875
20
0.0
30
2.279609
11
-1.875
21
0.46875
31
2.230894
0
LINE
8
MINSPINTA
62
41
48
9.611290082650074
10
-1.875
20
0.0
30
1.875
11
-1.875
21
0.46875
31
1.815461
0
LINE
8
MEDIONETWORK
62
61
48
12.816963058794052
10
-1.875
20
0.0
30
2.0494157605925793
11
-1.875
21
0.46875
31
1.9938232315339066
0
LINE
8
ASSE
62
253
10
-1.875
20
0.0
30
2.0773045000000003
11
-1.875
21
0.46875
31
2.0231775
0
LINE
8
INTRADOSSO
62
256
10
-1.875
20
0.0
30
1.875
11
-1.875
21
0.46875
31
1.815461
0
LINE
8
ESTRADOSSO
62
256
10
-1.875
20
0.0
30
2.279609
11
-1.875
21
0.46875
31
2.230894
0
LINE
8
MAXSPINTA
62
81
48
19.23301821195289
10
-1.875
20
0.46875
30
2.230894
11
-1.875
21
0.9375
31
2.0421625989877783
0
LINE
8
MINSPINTA
62
41
48
10.300919101196728
10
-1.875
20
0.46875
30
1.815461
11
-1.875
21
0.9375
31
1.623798
0
LINE
8
MEDIONETWORK
62
61
48
13.258888482945686
10
-1.875
20
0.46875
30
1.9938232315339066
11
-1.875
21
0.9375
31
1.856999359140599
0
LINE
8
ASSE
62
253
10
-1.875
20
0.46875
30
2.0231775
11
-1.875
21
0.9375
31
1.850854
0
LINE
8
INTRADOSSO
62
256
10
-1.875
20
0.46875
30
1.815461
11
-1.875
21
0.9375
31
1.623798
0
LINE
8
ESTRADOSSO
62
256
10
-1.875
20
0.46875
30
2.230894
11
-1.875
21
0.9375
31
2.07791
0
LINE
8
MAXSPINTA
62
81
48
22.46055575308376
10
-1.875
20
0.9375
30
2.0421625989877783
11
-1.875
21
1.40625
31
1.6836785890318977
0
LINE
8
MINSPINTA
62
61
48
12.320415672359628
10
-1.875
20
0.9375
30
1.623798
11
-1.875
21
1.40625
31
1.240196
0
LINE
8
MEDIONETWORK
62
61
48
14.981965075746974
10
-1.875
20
0.9375
30
1.856999359140599
11
-1.875
21
1.40625
31
1.56592666997815
0
LINE
8
ASSE
62
253
10
-1.875
20
0.9375
30
1.850854
11
-1.875
21
1.40625
31
1.517187
0
LINE
8
INTRADOSSO
62
256
10
-1.875
20
0.9375
30
1.623798
11
-1.875
21
1.40625
31
1.240196
0
LINE
8
ESTRADOSSO
62
256
10
-1.875
20
0.9375
30
2.07791
11
-1.875
21
1.40625
31
1.794178
0
LINE
8
MAXSPINTA
62
101
48
27.414870057511344
10
-1.875
20
1.40625
30
1.6836785890318977
11
-1.875
21
1.640625
31
1.3936739309229218
0
LINE
8
MINSPINTA
62
61
48
14.016423820904526
10
-1.875
20
1.40625
30
1.240196
11
-1.875
21
1.640625
31
0.971274268984976
0
LINE
8
MEDIONETWORK
62
81
48
19.683300774613944
10
-1.875
20
1.40625
30
1.56592666997815
11
-1.875
21
1.640625
31
1.2728456222519178
0
LINE
8
ASSE
62
253
10
-1.875
20
1.40625
30
1.517187
11
-1.875
21
1.640625
31
1.245219
0
LINE
8
INTRADOSSO
62
256
10
-1.875
20
1.40625
30
1.240196
11
-1.875
21
1.640625
31
0.90773
0
LINE
8
ESTRADOSSO
62
256
10
-1.875
20
1.40625
30
1.794178
11
-1.875
21
1.640625
31
1.582708
0
LINE
8
MAXSPINTA
62
41
48
9.325683911089905
10
-1.875
20
1.640625
30
1.3936739309229218
11
-1.875
21
1.875
31
1.29653
0
LINE
8
MINSPINTA
62
41
48
5.053453784223937
10
-1.875
20
1.640625
30
0.971274268984976
11
-1.875
21
1.875
31
0.865217503172395
0
LINE
8
MEDIONETWORK
62
61
48
14.395768257742171
10
-1.875
20
1.640625
30
1.2728456222519178
11
-1.875
21
1.875
31
0.7764017734464898
0
LINE
8
ASSE
62
253
10
-1.875
20
1.640625
30
1.245219
11
-1.875
21
1.875
31
0.648265
0
LINE
8
INTRADOSSO
62
256
10
-1.875
20
1.640625
30
0.90773
11
-1.875
21
1.875
31
0.0
0
LINE
8
ESTRADOSSO
62
256
10
-1.875
20
1.640625
30
1.582708
11
-1.875
21
1.875
31
1.29653
0
LINE
8
MAXSPINTA
62
41
48
10.021661275253306
10
-1.40625
20
-1.875
30
1.6841399349679131
11
-1.40625
21
-1.40625
31
1.9627288173358604
0
LINE
8
MINSPINTA
62
41
48
6.830442379359324
10
-1.40625
20
-1.875
30
1.2401960282502689
11
-1.40625
21
-1.40625
31
1.753902
0
LINE
8
MEDIONETWORK
62
41
48
7.235370482024639
10
-1.40625
20
-1.875
30
1.5638174769224586
11
-1.40625
21
-1.40625
31
1.8550359685829967
0
LINE
8
ASSE
62
253
10
-1.40625
20
-1.875
30
1.517187
11
-1.40625
21
-1.40625
31
1.967497
0
LINE
8
INTRADOSSO
62
256
10
-1.40625
20
-1.875
30
1.240196
11
-1.40625
21
-1.40625
31
1.753902
0
LINE
8
ESTRADOSSO
62
256
10
-1.40625
20
-1.875
30
1.794178
11
-1.40625
21
-1.40625
31
2.181092
0
LINE
8
MAXSPINTA
62
41
48
10.566235742944999
10
-1.40625
20
-1.40625
30
1.9627288173358604
11
-1.40625
21
-0.9375
31
2.2950925536951683
0
LINE
8
MINSPINTA
62
41
48
6.319821300938125
10
-1.40625
20
-1.40625
30
1.753902
11
-1.40625
21
-0.9375
31
2.194202651463746
0
LINE
8
MEDIONETWORK
62
41
48
7.940335012439025
10
-1.40625
20
-1.40625
30
1.8550359685829967
11
-1.40625
21
-0.9375
31
2.2380071832730373
0
LINE
8
ASSE
62
253
10
-1.40625
20
-1.40625
30
1.967497
11
-1.40625
21
-0.9375
31
2.2315545
0
LINE
8
INTRADOSSO
62
256
10
-1.40625
20
-1.40625
30
1.753902
11
-1.40625
21
-0.9375
31
2.043234
0
LINE
8
ESTRADOSSO
62
256
10
-1.40625
20
-1.40625
30
2.181092
11
-1.40625
21
-0.9375
31
2.419875
0
LINE
8
MAXSPINTA
62
41
48
9.261579249390811
10
-1.40625
20
-0.9375
30
2.2950925536951683
11
-1.40625
21
-0.46875
31
2.479373153772657
0
LINE
8
MINSPINTA
62
41
48
5.147495677006064
10
-1.40625
20
-0.9375
30
2.194202651463746
11
-1.40625
21
-0.46875
31
2.4279850868746187
0
LINE
8
MEDIONETWORK
62
41
48
6.643635344277604
10
-1.40625
20
-0.9375
30
2.2380071832730373
11
-1.40625
21
-0.46875
31
2.4297624647149156
0
LINE
8
ASSE
62
253
10
-1.40625
20
-0.9375
30
2.2315545
11
-1.40625
21
-0.46875
31
2.3755385
0
LINE
8
INTRADOSSO
62
256
10
-1.40625
20
-0.9375
30
2.043234
11
-1.40625
21
-0.46875
31
2.198632
0
LINE
8
ESTRADOSSO
62
256
10
-1.40625
20
-0.9375
30
2.419875
11
-1.40625
21
-0.46875
31
2.552445
0
LINE
8
MAXSPINTA
62
41
48
8.682656499737963
10
-1.40625
20
-0.46875
30
2.479373153772657
11
-1.40625
21
0.0
31
2.5362568900723996
0
LINE
8
MINSPINTA
62
41
48
4.662507724960486
10
-1.40625
20
-0.46875
30
2.4279850868746187
11
-1.40625
21
0.0
31
2.501378405776889
0
LINE
8
MEDIONETWORK
62
41
48
6.199921825651207
10
-1.40625
20
-0.46875
30
2.4297624647149156
11
-1.40625
21
0.0
31
2.490198753627789
0
LINE
8
ASSE
62
253
10
-1.40625
20
-0.46875
30
2.3755385
11
-1.40625
21
0.0
31
2.421588
0
LINE
8
INTRADOSSO
62
256
10
-1.40625
20
-0.46875
30
2.198632
11
-1.40625
21
0.0
31
2.248046
0
LINE
8
ESTRADOSSO
62
256
10
-1.40625
20
-0.46875
30
2.552445
11
-1.40625
21
0.0
31
2.59513
0
LINE
8
MAXSPINTA
62
41
48
8.683673152203276
10
-1.40625
20
0.0
30
2.5362568900723996
11
-1.40625
21
0.46875
31
2.4789160159956545
0
LINE
8
MINSPINTA
62
41
48
4.663383141541443
10
-1.40625
20
0.0
30
2.501378405776889
11
-1.40625
21
0.46875
31
2.427411385085995
0
LINE
8
MEDIONETWORK
62
41
48
6.202889901741861
10
-1.40625
20
0.0
30
2.490198753627789
11
-1.40625
21
0.46875
31
2.428017792937817
0
LINE
8
ASSE
62
253
10
-1.40625
20
0.0
30
2.421588
11
-1.40625
21
0.46875
31
2.3755385
0
LINE
8
INTRADOSSO
62
256
10
-1.40625
20
0.0
30
2.248046
11
-1.40625
21
0.46875
31
2.198632
0
LINE
8
ESTRADOSSO
62
256
10
-1.40625
20
0.0
30
2.59513
11
-1.40625
21
0.46875
31
2.552445
0
LINE
8
MAXSPINTA
62
41
48
9.264771999924797
10
-1.40625
20
0.46875
30
2.4789160159956545
11
-1.40625
21
0.9375
31
2.2941613777832766
0
LINE
8
MINSPINTA
62
41
48
5.149021211349688
10
-1.40625
20
0.46875
30
2.427411385085995
11
-1.40625
21
0.9375
31
2.19328132595446
0
LINE
8
MEDIONETWORK
62
41
48
6.644977920127816
10
-1.40625
20
0.46875
30
2.428017792937817
11
-1.40625
21
0.9375
31
2.2359923611847337
0
LINE
8
ASSE
62
253
10
-1.40625
20
0.46875
30
2.3755385
11
-1.40625
21
0.9375
31
2.2315545
0
LINE
8
INTRADOSSO
62
256
10
-1.40625
20
0.46875
30
2.198632
11
-1.40625
21
0.9375
31
2.043234
0
LINE
8
ESTRADOSSO
62
256
10
-1.40625
20
0.46875
30
2.552445
11
-1.40625
21
0.9375
31
2.419875
0
LINE
8
MAXSPINTA
62
41
48
10.56456276615197
10
-1.40625
20
0.9375
30
2.2941613777832766
11
-1.40625
21
1.40625
31
1.9619549640668428
0
LINE
8
MINSPINTA
62
41
48
6.313626116999505
10
-1.40625
20
0.9375
30
2.19328132595446
11
-1.40625
21
1.40625
31
1.753902
0
LINE
8
MEDIONETWORK
62
41
48
7.925509874303815
10
-1.40625
20
0.9375
30
2.2359923611847337
11
-1.40625
21
1.40625
31
1.8548099036027148
0
LINE
8
ASSE
62
253
10
-1.40625
20
0.9375
30
2.2315545
11
-1.40625
21
1.40625
31
1.967497
0
LINE
8
INTRADOSSO
62
256
10
-1.40625
20
0.9375
30
2.043234
11
-1.40625
21
1.40625
31
1.753902
0
LINE
8
ESTRADOSSO
62
256
10
-1.40625
20
0.9375
30
2.419875
11
-1.40625
21
1.40625
31
2.181092
0
LINE
8
MAXSPINTA
62
41
48
10.018728065714154
10
-1.40625
20
1.40625
30
1.9619549640668428
11
-1.40625
21
1.875
31
1.683678596492891
0
LINE
8
MINSPINTA
62
41
48
6.8304425843250405
10
-1.40625
20
1.40625
30
1.753902
11
-1.40625
21
1.875
31
1.240196
0
LINE
8
MEDIONETWORK
62
41
48
7.219241551699722
10
-1.40625
20
1.40625
30
1.8548099036027148
11
-1.40625
21
1.875
31
1.5659293078133083
0
LINE
8
ASSE
62
253
10
-1.40625
20
1.40625
30
1.967497
11
-1.40625
21
1.875
31
1.517187
0
LINE
8
INTRADOSSO
62
256
10
-1.40625
20
1.40625
30
1.753902
11
-1.40625
21
1.875
31
1.240196
0
LINE
8
ESTRADOSSO
62
256
10
-1.40625
20
1.40625
30
2.181092
11
-1.40625
21
1.875
31
1.794178
0
LINE
8
MAXSPINTA
62
41
48
9.785119178426015
10
-0.9375
20
-1.875
30
2.042621397059948
11
-0.9375
21
-1.40625
31
2.2950925541963767
0
LINE
8
MINSPINTA
62
41
48
7.2515273822216395
10
-0.9375
20
-1.875
30
1.623798
11
-0.9375
21
-1.40625
31
2.1942026514637454
0
LINE
8
MEDIONETWORK
62
41
48
7.894144576026521
10
-0.9375
20
-1.875
30
1.8601318289180837
11
-0.9375
21
-1.40625
31
2.238005663285239
0
LINE
8
ASSE
62
253
10
-0.9375
20
-1.875
30
1.850854
11
-0.9375
21
-1.40625
31
2.2315545
0
LINE
8
INTRADOSSO
62
256
10
-0.9375
20
-1.875
30
1.623798
11
-0.9375
21
-1.40625
31
2.043234
0
LINE
8
ESTRADOSSO
62
256
10
-0.9375
20
-1.875
30
2.07791
11
-0.9375
21
-1.40625
31
2.419875
0
LINE
8
MAXSPINTA
62
41
48
8.838049550937246
10
-0.9375
20
-1.40625
30
2.2950925541963767
11
-0.9375
21
-0.9375
31
2.402448020556411
0
LINE
8
MINSPINTA
62
41
48
5.120858696448125
10
-0.9375
20
-1.40625
30
2.1942026514637454
11
-0.9375
21
-0.9375
31
2.422458750849595
0
LINE
8
MEDIONETWORK
62
41
48
6.4859760451786475
10
-0.9375
20
-1.40625
30
2.238005663285239
11
-0.9375
21
-0.9375
31
2.396093949299942
0
LINE
8
ASSE
62
253
10
-0.9375
20
-1.40625
30
2.2315545
11
-0.9375
21
-0.9375
31
2.466761
0
LINE
8
INTRADOSSO
62
256
10
-0.9375
20
-1.40625
30
2.043234
11
-0.9375
21
-0.9375
31
2.296397
0
LINE
8
ESTRADOSSO
62
256
10
-0.9375
20
-1.40625
30
2.419875
11
-0.9375
21
-0.9375
31
2.637125
0
LINE
8
MAXSPINTA
62
41
48
9.29241262855734
10
-0.9375
20
-0.9375
30
2.402448020556411
11
-0.9375
21
-0.46875
31
2.5914765916073224
0
LINE
8
MINSPINTA
62
41
48
5.389266204193321
10
-0.9375
20
-0.9375
30
2.422458750849595
11
-0.9375
21
-0.46875
31
2.7072901111584193
0
LINE
8
MEDIONETWORK
62
41
48
6.835493680458467
10
-0.9375
20
-0.9375
30
2.396093949299942
11
-0.9375
21
-0.46875
31
2.6238747589126077
0
LINE
8
ASSE
62
253
10
-0.9375
20
-0.9375
30
2.466761
11
-0.9375
21
-0.46875
31
2.5974865
0
LINE
8
INTRADOSSO
62
256
10
-0.9375
20
-0.9375
30
2.296397
11
-0.9375
21
-0.46875
31
2.435696
0
LINE
8
ESTRADOSSO
62
256
10
-0.9375
20
-0.9375
30
2.637125
11
-0.9375
21
-0.46875
31
2.759277
0
LINE
8
MAXSPINTA
62
41
48
8.691020907440029
10
-0.9375
20
-0.46875
30
2.5914765916073224
11
-0.9375
21
0.0
31
2.6525992806040346
0
LINE
8
MINSPINTA
62
41
48
4.692621067400818
10
-0.9375
20
-0.46875
30
2.7072901111584193
11
-0.9375
21
0.0
31
2.798808999999994
0
LINE
8
MEDIONETWORK
62
41
48
6.221993675738718
10
-0.9375
20
-0.46875
30
2.6238747589126077
11
-0.9375
21
0.0
31
2.696791009400583
0
LINE
8
ASSE
62
253
10
-0.9375
20
-0.46875
30
2.5974865
11
-0.9375
21
0.0
31
2.6396005000000002
0
LINE
8
INTRADOSSO
62
256
10
-0.9375
20
-0.46875
30
2.435696
11
-0.9375
21
0.0
31
2.480392
0
LINE
8
ESTRADOSSO
62
256
10
-0.9375
20
-0.46875
30
2.759277
11
-0.9375
21
0.0
31
2.798809
0
LINE
8
MAXSPINTA
62
41
48
8.691993204959541
10
-0.9375
20
0.0
30
2.6525992806040346
11
-0.9375
21
0.46875
31
2.591068921313082
0
LINE
8
MINSPINTA
62
41
48
4.693484095111651
10
-0.9375
20
0.0
30
2.798808999999994
11
-0.9375
21
0.46875
31
2.706832828834865
0
LINE
8
MEDIONETWORK
62
41
48
6.223820448970815
10
-0.9375
20
0.0
30
2.696791009400583
11
-0.9375
21
0.46875
31
2.622974045651228
0
LINE
8
ASSE
62
253
10
-0.9375
20
0.0
30
2.6396005000000002
11
-0.9375
21
0.46875
31
2.5974865
0
LINE
8
INTRADOSSO
62
256
10
-0.9375
20
0.0
30
2.480392
11
-0.9375
21
0.46875
31
2.435696
0
LINE
8
ESTRADOSSO
62
256
10
-0.9375
20
0.0
30
2.798809
11
-0.9375
21
0.46875
31
2.759277
0
LINE
8
MAXSPINTA
62
41
48
9.294251669417191
10
-0.9375
20
0.46875
30
2.591068921313082
11
-0.9375
21
0.9375
31
2.401773054796931
0
LINE
8
MINSPINTA
62
41
48
5.389825696218424
10
-0.9375
20
0.46875
30
2.706832828834865
11
-0.9375
21
0.9375
31
2.4218918274395222
0
LINE
8
MEDIONETWORK
62
41
48
6.836332531650563
10
-0.9375
20
0.46875
30
2.622974045651228
11
-0.9375
21
0.9375
31
2.3950469402171577
0
LINE
8
ASSE
62
253
10
-0.9375
20
0.46875
30
2.5974865
11
-0.9375
21
0.9375
31
2.466761
0
LINE
8
INTRADOSSO
62
256
10
-0.9375
20
0.46875
30
2.435696
11
-0.9375
21
0.9375
31
2.296397
0
LINE
8
ESTRADOSSO
62
256
10
-0.9375
20
0.46875
30
2.759277
11
-0.9375
21
0.9375
31
2.637125
0
LINE
8
MAXSPINTA
62
41
48
8.839101966950505
10
-0.9375
20
0.9375
30
2.401773054796931
11
-0.9375
21
1.40625
31
2.294161376226288
0
LINE
8
MINSPINTA
62
41
48
5.122383593723913
10
-0.9375
20
0.9375
30
2.4218918274395222
11
-0.9375
21
1.40625
31
2.1932813259544592
0
LINE
8
MEDIONETWORK
62
41
48
6.490037078017505
10
-0.9375
20
0.9375
30
2.3950469402171577
11
-0.9375
21
1.40625
31
2.2359920726487905
0
LINE
8
ASSE
62
253
10
-0.9375
20
0.9375
30
2.466761
11
-0.9375
21
1.40625
31
2.2315545
0
LINE
8
INTRADOSSO
62
256
10
-0.9375
20
0.9375
30
2.296397
11
-0.9375
21
1.40625
31
2.043234
0
LINE
8
ESTRADOSSO
62
256
10
-0.9375
20
0.9375
30
2.637125
11
-0.9375
21
1.40625
31
2.419875
0
LINE
8
MAXSPINTA
62
41
48
9.781005297160544
10
-0.9375
20
1.40625
30
2.294161376226288
11
-0.9375
21
1.875
31
2.0421626012185077
0
LINE
8
MINSPINTA
62
41
48
7.2445383433204
10
-0.9375
20
1.40625
30
2.1932813259544592
11
-0.9375
21
1.875
31
1.623798
0
LINE
8
MEDIONETWORK
62
41
48
7.903327736676441
10
-0.9375
20
1.40625
30
2.2359920726487905
11
-0.9375
21
1.875
31
1.857003228287759
0
LINE
8
ASSE
62
253
10
-0.9375
20
1.40625
30
2.2315545
11
-0.9375
21
1.875
31
1.850854
0
LINE
8
INTRADOSSO
62
256
10
-0.9375
20
1.40625
30
2.043234
11
-0.9375
21
1.875
31
1.623798
0
LINE
8
ESTRADOSSO
62
256
10
-0.9375
20
1.40625
30
2.419875
11
-0.9375
21
1.875
31
2.07791
0
LINE
8
MAXSPINTA
62
41
48
9.750582434957607
10
-0.46875
20
-1.875
30
2.230894
11
-0.46875
21
-1.40625
31
2.4793731557146783
0
LINE
8
MINSPINTA
62
41
48
7.575729081446914
10
-0.46875
20
-1.875
30
1.815461
11
-0.46875
21
-1.40625
31
2.427985086874618
0
LINE
8
MEDIONETWORK
62
41
48
8.36285500297178
10
-0.46875
20
-1.875
30
1.9971958211578305
11
-0.46875
21
-1.40625
31
2.429759745847764
0
LINE
8
ASSE
62
253
10
-0.46875
20
-1.875
30
2.0231775
11
-0.46875
21
-1.40625
31
2.3755385
0
LINE
8
INTRADOSSO
62
256
10
-0.46875
20
-1.875
30
1.815461
11
-0.46875
21
-1.40625
31
2.198632
0
LINE
8
ESTRADOSSO
62
256
10
-0.46875
20
-1.875
30
2.230894
11
-0.46875
21
-1.40625
31
2.552445
0
LINE
8
MAXSPINTA
62
41
48
8.857975020792894
10
-0.46875
20
-1.40625
30
2.4793731557146783
11
-0.46875
21
-0.9375
31
2.5914765937005964
0
LINE
8
MINSPINTA
62
41
48
5.359385349098632
10
-0.46875
20
-1.40625
30
2.427985086874618
11
-0.46875
21
-0.9375
31
2.70729011115842
0
LINE
8
MEDIONETWORK
62
41
48
6.652022779630074
10
-0.46875
20
-1.40625
30
2.429759745847764
11
-0.46875
21
-0.9375
31
2.6238736283065838
0
LINE
8
ASSE
62
253
10
-0.46875
20
-1.40625
30
2.3755385
11
-0.46875
21
-0.9375
31
2.5974865
0
LINE
8
INTRADOSSO
62
256
10
-0.46875
20
-1.40625
30
2.198632
11
-0.46875
21
-0.9375
31
2.435696
0
LINE
8
ESTRADOSSO
62
256
10
-0.46875
20
-1.40625
30
2.552445
11
-0.46875
21
-0.9375
31
2.759277
0
LINE
8
MAXSPINTA
62
41
48
8.622217479876644
10
-0.46875
20
-0.9375
30
2.5914765937005964
11
-0.46875
21
-0.46875
31
2.6106234623664815
0
LINE
8
MINSPINTA
62
41
48
4.64076857782963
10
-0.46875
20
-0.9375
30
2.70729011115842
11
-0.46875
21
-0.46875
31
2.766615952513151
0
LINE
8
MEDIONETWORK
62
41
48
6.167537555340311
10
-0.46875
20
-0.9375
30
2.6238736283065838
11
-0.46875
21
-0.46875
31
2.6632480996088796
0
LINE
8
ASSE
62
253
10
-0.46875
20
-0.9375
30
2.5974865
11
-0.46875
21
-0.46875
31
2.721847
0
LINE
8
INTRADOSSO
62
256
10
-0.46875
20
-0.9375
30
2.435696
11
-0.46875
21
-0.46875
31
2.567449
0
LINE
8
ESTRADOSSO
62
256
10
-0.46875
20
-0.9375
30
2.759277
11
-0.46875
21
-0.46875
31
2.876245
0
LINE
8
MAXSPINTA
62
41
48
8.707672741374774
10
-0.46875
20
-0.46875
30
2.6106234623664815
11
-0.46875
21
0.0
31
2.678782795719571
0
LINE
8
MINSPINTA
62
41
48
4.7414285699168435
10
-0.46875
20
-0.46875
30
2.766615952513151
11
-0.46875
21
0.0
31
2.8815068519751867
0
LINE
8
MEDIONETWORK
62
41
48
6.256057659680552
10
-0.46875
20
-0.46875
30
2.6632480996088796
11
-0.46875
21
0.0
31
2.7517974416817834
0
LINE
8
ASSE
62
253
10
-0.46875
20
-0.46875
30
2.721847
11
-0.46875
21
0.0
31
2.762041
0
LINE
8
INTRADOSSO
62
256
10
-0.46875
20
-0.46875
30
2.567449
11
-0.46875
21
0.0
31
2.60989
0
LINE
8
ESTRADOSSO
62
256
10
-0.46875
20
-0.46875
30
2.876245
11
-0.46875
21
0.0
31
2.914192
0
LINE
8
MAXSPINTA
62
41
48
8.708417500621291
10
-0.46875
20
0.0
30
2.678782795719571
11
-0.46875
21
0.46875
31
2.610342478140246
0
LINE
8
MINSPINTA
62
41
48
4.742087385020036
10
-0.46875
20
0.0
30
2.8815068519751867
11
-0.46875
21
0.46875
31
2.766334577026243
0
LINE
8
MEDIONETWORK
62
41
48
6.257293688419996
10
-0.46875
20
0.0
30
2.7517974416817834
11
-0.46875
21
0.46875
31
2.6627417438339696
0
LINE
8
ASSE
62
253
10
-0.46875
20
0.0
30
2.762041
11
-0.46875
21
0.46875
31
2.721847
0
LINE
8
INTRADOSSO
62
256
10
-0.46875
20
0.0
30
2.60989
11
-0.46875
21
0.46875
31
2.567449
0
LINE
8
ESTRADOSSO
62
256
10
-0.46875
20
0.0
30
2.914192
11
-0.46875
21
0.46875
31
2.876245
0
LINE
8
MAXSPINTA
62
41
48
8.622312827556033
10
-0.46875
20
0.46875
30
2.610342478140246
11
-0.46875
21
0.9375
31
2.5910689120361323
0
LINE
8
MINSPINTA
62
41
48
4.640985830859021
10
-0.46875
20
0.46875
30
2.766334577026243
11
-0.46875
21
0.9375
31
2.7068328288348567
0
LINE
8
MEDIONETWORK
62
41
48
6.167976396895541
10
-0.46875
20
0.46875
30
2.6627417438339696
11
-0.46875
21
0.9375
31
2.622969399918536
0
LINE
8
ASSE
62
253
10
-0.46875
20
0.46875
30
2.721847
11
-0.46875
21
0.9375
31
2.5974865
0
LINE
8
INTRADOSSO
62
256
10
-0.46875
20
0.46875
30
2.567449
11
-0.46875
21
0.9375
31
2.435696
0
LINE
8
ESTRADOSSO
62
256
10
-0.46875
20
0.46875
30
2.876245
11
-0.46875
21
0.9375
31
2.759277
0
LINE
8
MAXSPINTA
62
41
48
8.858186524382967
10
-0.46875
20
0.9375
30
2.5910689120361323
11
-0.46875
21
1.40625
31
2.478916007542443
0
LINE
8
MINSPINTA
62
41
48
5.3599707482038585
10
-0.46875
20
0.9375
30
2.7068328288348567
11
-0.46875
21
1.40625
31
2.42741138508599
0
LINE
8
MEDIONETWORK
62
41
48
6.656258139500275
10
-0.46875
20
0.9375
30
2.622969399918536
11
-0.46875
21
1.40625
31
2.428012771929028
0
LINE
8
ASSE
62
253
10
-0.46875
20
0.9375
30
2.5974865
11
-0.46875
21
1.40625
31
2.3755385
0
LINE
8
INTRADOSSO
62
256
10
-0.46875
20
0.9375
30
2.435696
11
-0.46875
21
1.40625
31
2.198632
0
LINE
8
ESTRADOSSO
62
256
10
-0.46875
20
0.9375
30
2.759277
11
-0.46875
21
1.40625
31
2.552445
0
LINE
8
MAXSPINTA
62
41
48
9.74665023427941
10
-0.46875
20
1.40625
30
2.478916007542443
11
-0.46875
21
1.875
31
2.2308939999999997
0
LINE
8
MINSPINTA
62
41
48
7.571254981527252
10
-0.46875
20
1.40625
30
2.42741138508599
11
-0.46875
21
1.875
31
1.815461
0
LINE
8
MEDIONETWORK
62
41
48
8.377324313261639
10
-0.46875
20
1.40625
30
2.428012771929028
11
-0.46875
21
1.875
31
1.9938232055356262
0
LINE
8
ASSE
62
253
10
-0.46875
20
1.40625
30
2.3755385
11
-0.46875
21
1.875
31
2.0231775
0
LINE
8
INTRADOSSO
62
256
10
-0.46875
20
1.40625
30
2.198632
11
-0.46875
21
1.875
31
1.815461
0
LINE
8
ESTRADOSSO
62
256
10
-0.46875
20
1.40625
30
2.552445
11
-0.46875
21
1.875
31
2.230894
0
LINE
8
MAXSPINTA
62
41
48
9.82174814109816
10
0.0
20
-1.875
30
2.279609
11
0.0
21
-1.40625
31
2.5362568952435836
0
LINE
8
MINSPINTA
62
41
48
7.6842028168763585
10
0.0
20
-1.875
30
1.875
11
0.0
21
-1.40625
31
2.50137840577689
0
LINE
8
MEDIONETWORK
62
41
48
8.43628921458898
10
0.0
20
-1.875
30
2.0494102252914814
11
0.0
21
-1.40625
31
2.490195407807337
0
LINE
8
ASSE
62
253
10
0.0
20
-1.875
30
2.0773045000000003
11
0.0
21
-1.40625
31
2.421588
0
LINE
8
INTRADOSSO
62
256
10
0.0
20
-1.875
30
1.875
11
0.0
21
-1.40625
31
2.248046
0
LINE
8
ESTRADOSSO
62
256
10
0.0
20
-1.875
30
2.279609
11
0.0
21
-1.40625
31
2.59513
0
LINE
8
MAXSPINTA
62
41
48
8.876378691327746
10
0.0
20
-1.40625
30
2.5362568952435836
11
0.0
21
-0.9375
31
2.6525992870332806
0
LINE
8
MINSPINTA
62
41
48
5.452633658376162
10
0.0
20
-1.40625
30
2.50137840577689
11
0.0
21
-0.9375
31
2.798808999999993
0
LINE
8
MEDIONETWORK
62
41
48
6.716297830842728
10
0.0
20
-1.40625
30
2.490195407807337
11
0.0
21
-0.9375
31
2.69678920569028
0
LINE
8
ASSE
62
253
10
0.0
20
-1.40625
30
2.421588
11
0.0
21
-0.9375
31
2.6396005000000002
0
LINE
8
INTRADOSSO
62
256
10
0.0
20
-1.40625
30
2.248046
11
0.0
21
-0.9375
31
2.480392
0
LINE
8
ESTRADOSSO
62
256
10
0.0
20
-1.40625
30
2.59513
11
0.0
21
-0.9375
31
2.798809
0
LINE
8
MAXSPINTA
62
41
48
8.628423886913247
10
0.0
20
-0.9375
30
2.6525992870332806
11
0.0
21
-0.46875
31
2.678782800101288
0
LINE
8
MINSPINTA
62
41
48
4.675121088453034
10
0.0
20
-0.9375
30
2.798808999999993
11
0.0
21
-0.46875
31
2.8815068519751907
0
LINE
8
MEDIONETWORK
62
41
48
6.188037836315313
10
0.0
20
-0.9375
30
2.69678920569028
11
0.0
21
-0.46875
31
2.7517967199557187
0
LINE
8
ASSE
62
253
10
0.0
20
-0.9375
30
2.6396005000000002
11
0.0
21
-0.46875
31
2.762041
0
LINE
8
INTRADOSSO
62
256
10
0.0
20
-0.9375
30
2.480392
11
0.0
21
-0.46875
31
2.60989
0
LINE
8
ESTRADOSSO
62
256
10
0.0
20
-0.9375
30
2.798809
11
0.0
21
-0.46875
31
2.914192
0
LINE
8
MAXSPINTA
62
41
48
8.629414487766145
10
0.0
20
-0.46875
30
2.678782800101288
11
0.0
21
0.0
31
2.65165
0
LINE
8
MINSPINTA
62
41
48
4.623006480755662
10
0.0
20
-0.46875
30
2.8815068519751907
11
0.0
21
0.0
31
2.838893044811038
0
LINE
8
MEDIONETWORK
62
41
48
6.161640378194027
10
0.0
20
-0.46875
30
2.7517967199557187
11
0.0
21
0.0
31
2.718190053229727
0
LINE
8
ASSE
62
253
10
0.0
20
-0.46875
30
2.762041
11
0.0
21
0.0
31
2.80165
0
LINE
8
INTRADOSSO
62
256
10
0.0
20
-0.46875
30
2.60989
11
0.0
21
0.0
31
2.65165
0
LINE
8
ESTRADOSSO
62
256
10
0.0
20
-0.46875
30
2.914192
11
0.0
21
0.0
31
2.95165
0
LINE
8
MAXSPINTA
62
41
48
8.629414462351006
10
0.0
20
0.0
30
2.65165
11
0.0
21
0.46875
31
2.6787827761696588
0
LINE
8
MINSPINTA
62
41
48
4.623006480756291
10
0.0
20
0.0
30
2.838893044811038
11
0.0
21
0.46875
31
2.88150685197518
0
LINE
8
MEDIONETWORK
62
41
48
6.16163342998537
10
0.0
20
0.0
30
2.718190053229727
11
0.0
21
0.46875
31
2.7517893084250518
0
LINE
8
ASSE
62
253
10
0.0
20
0.0
30
2.80165
11
0.0
21
0.46875
31
2.762041
0
LINE
8
INTRADOSSO
62
256
10
0.0
20
0.0
30
2.65165
11
0.0
21
0.46875
31
2.60989
0
LINE
8
ESTRADOSSO
62
256
10
0.0
20
0.0
30
2.95165
11
0.0
21
0.46875
31
2.914192
0
LINE
8
MAXSPINTA
62
41
48
8.628423898330377
10
0.0
20
0.46875
30
2.6787827761696588
11
0.0
21
0.9375
31
2.65259925196415
0
LINE
8
MINSPINTA
62
41
48
4.675121088453692
10
0.0
20
0.46875
30
2.88150685197518
11
0.0
21
0.9375
31
2.7988089999999746
0
LINE
8
MEDIONETWORK
62
41
48
6.1880444764839755
10
0.0
20
0.46875
30
2.7517893084250518
11
0.0
21
0.9375
31
2.696777448962069
0
LINE
8
ASSE
62
253
10
0.0
20
0.46875
30
2.762041
11
0.0
21
0.9375
31
2.6396005000000002
0
LINE
8
INTRADOSSO
62
256
10
0.0
20
0.46875
30
2.60989
11
0.0
21
0.9375
31
2.480392
0
LINE
8
ESTRADOSSO
62
256
10
0.0
20
0.46875
30
2.914192
11
0.0
21
0.9375
31
2.798809
0
LINE
8
MAXSPINTA
62
41
48
8.876378660676592
10
0.0
20
0.9375
30
2.65259925196415
11
0.0
21
1.40625
31
2.5362568670980954
0
LINE
8
MINSPINTA
62
41
48
5.4526336583769215
10
0.0
20
0.9375
30
2.7988089999999746
11
0.0
21
1.40625
31
2.5013784057768707
0
LINE
8
MEDIONETWORK
62
41
48
6.716297928578184
10
0.0
20
0.9375
30
2.696777448962069
11
0.0
21
1.40625
31
2.490183632595928
0
LINE
8
ASSE
62
253
10
0.0
20
0.9375
30
2.6396005000000002
11
0.0
21
1.40625
31
2.421588
0
LINE
8
INTRADOSSO
62
256
10
0.0
20
0.9375
30
2.480392
11
0.0
21
1.40625
31
2.248046
0
LINE
8
ESTRADOSSO
62
256
10
0.0
20
0.9375
30
2.798809
11
0.0
21
1.40625
31
2.59513
0
LINE
8
MAXSPINTA
62
41
48
9.821747892680342
10
0.0
20
1.40625
30
2.5362568670980954
11
0.0
21
1.875
31
2.279609
0
LINE
8
MINSPINTA
62
41
48
7.684202816877269
10
0.0
20
1.40625
30
2.5013784057768707
11
0.0
21
1.875
31
1.875
0
LINE
8
MEDIONETWORK
62
41
48
8.436234955991967
10
0.0
20
1.40625
30
2.490183632595928
11
0.0
21
1.875
31
2.0494044911111713
0
LINE
8
ASSE
62
253
10
0.0
20
1.40625
30
2.421588
11
0.0
21
1.875
31
2.0773045000000003
0
LINE
8
INTRADOSSO
62
256
10
0.0
20
1.40625
30
2.248046
11
0.0
21
1.875
31
1.875
0
LINE
8
ESTRADOSSO
62
256
10
0.0
20
1.40625
30
2.59513
11
0.0
21
1.875
31
2.279609
0
LINE
8
MAXSPINTA
62
41
48
9.746650412754397
10
0.46875
20
-1.875
30
2.230894
11
0.46875
21
-1.40625
31
2.4789160283064025
0
LINE
8
MINSPINTA
62
41
48
7.5712549815275585
10
0.46875
20
-1.875
30
1.815461
11
0.46875
21
-1.40625
31
2.4274113850859904
0
LINE
8
MEDIONETWORK
62
41
48
8.37738507500773
10
0.46875
20
-1.875
30
1.9938180810847308
11
0.46875
21
-1.40625
31
2.4280144672029187
0
LINE
8
ASSE
62
253
10
0.46875
20
-1.875
30
2.0231775
11
0.46875
21
-1.40625
31
2.3755385
0
LINE
8
INTRADOSSO
62
256
10
0.46875
20
-1.875
30
1.815461
11
0.46875
21
-1.40625
31
2.198632
0
LINE
8
ESTRADOSSO
62
256
10
0.46875
20
-1.875
30
2.230894
11
0.46875
21
-1.40625
31
2.552445
0
LINE
8
MAXSPINTA
62
41
48
8.85818653543317
10
0.46875
20
-1.40625
30
2.4789160283064025
11
0.46875
21
-0.9375
31
2.591068935383894
0
LINE
8
MINSPINTA
62
41
48
5.359970748204088
10
0.46875
20
-1.40625
30
2.4274113850859904
11
0.46875
21
-0.9375
31
2.70683282883486
0
LINE
8
MEDIONETWORK
62
41
48
6.656262840204404
10
0.46875
20
-1.40625
30
2.4280144672029187
11
0.46875
21
-0.9375
31
2.622972028804916
0
LINE
8
ASSE
62
253
10
0.46875
20
-1.40625
30
2.3755385
11
0.46875
21
-0.9375
31
2.5974865
0
LINE
8
INTRADOSSO
62
256
10
0.46875
20
-1.40625
30
2.198632
11
0.46875
21
-0.9375
31
2.435696
0
LINE
8
ESTRADOSSO
62
256
10
0.46875
20
-1.40625
30
2.552445
11
0.46875
21
-0.9375
31
2.759277
0
LINE
8
MAXSPINTA
62
41
48
8.622312818308016
10
0.46875
20
-0.9375
30
2.591068935383894
11
0.46875
21
-0.46875
31
2.610342489239151
0
LINE
8
MINSPINTA
62
41
48
4.640985830859206
10
0.46875
20
-0.9375
30
2.70683282883486
11
0.46875
21
-0.46875
31
2.7663345770262424
0
LINE
8
MEDIONETWORK
62
41
48
6.167972282242358
10
0.46875
20
-0.9375
30
2.622972028804916
11
0.46875
21
-0.46875
31
2.6627406605542743
0
LINE
8
ASSE
62
253
10
0.46875
20
-0.9375
30
2.5974865
11
0.46875
21
-0.46875
31
2.721847
0
LINE
8
INTRADOSSO
62
256
10
0.46875
20
-0.9375
30
2.435696
11
0.46875
21
-0.46875
31
2.567449
0
LINE
8
ESTRADOSSO
62
256
10
0.46875
20
-0.9375
30
2.759277
11
0.46875
21
-0.46875
31
2.876245
0
LINE
8
MAXSPINTA
62
41
48
8.708417430792403
10
0.46875
20
-0.46875
30
2.610342489239151
11
0.46875
21
0.0
31
2.6787827805262845
0
LINE
8
MINSPINTA
62
41
48
4.742087385019996
10
0.46875
20
-0.46875
30
2.7663345770262424
11
0.46875
21
0.0
31
2.8815068519751916
0
LINE
8
MEDIONETWORK
62
41
48
6.257275028198654
10
0.46875
20
-0.46875
30
2.6627406605542743
11
0.46875
21
0.0
31
2.7517887346563277
0
LINE
8
ASSE
62
253
10
0.46875
20
-0.46875
30
2.721847
11
0.46875
21
0.0
31
2.762041
0
LINE
8
INTRADOSSO
62
256
10
0.46875
20
-0.46875
30
2.567449
11
0.46875
21
0.0
31
2.60989
0
LINE
8
ESTRADOSSO
62
256
10
0.46875
20
-0.46875
30
2.876245
11
0.46875
21
0.0
31
2.914192
0
LINE
8
MAXSPINTA
62
41
48
8.70767283227266
10
0.46875
20
0.0
30
2.6787827805262845
11
0.46875
21
0.46875
31
2.6106234128098187
0
LINE
8
MINSPINTA
62
41
48
4.7414285699168035
10
0.46875
20
0.0
30
2.8815068519751916
11
0.46875
21
0.46875
31
2.766615952513152
0
LINE
8
MEDIONETWORK
62
41
48
6.256082649061438
10
0.46875
20
0.0
30
2.7517887346563277
11
0.46875
21
0.46875
31
2.663229127666405
0
LINE
8
ASSE
62
253
10
0.46875
20
0.0
30
2.762041
11
0.46875
21
0.46875
31
2.721847
0
LINE
8
INTRADOSSO
62
256
10
0.46875
20
0.0
30
2.60989
11
0.46875
21
0.46875
31
2.567449
0
LINE
8
ESTRADOSSO
62
256
10
0.46875
20
0.0
30
2.914192
11
0.46875
21
0.46875
31
2.876245
0
LINE
8
MAXSPINTA
62
41
48
8.622217491344749
10
0.46875
20
0.46875
30
2.6106234128098187
11
0.46875
21
0.9375
31
2.591476528854467
0
LINE
8
MINSPINTA
62
41
48
4.640768577829487
10
0.46875
20
0.46875
30
2.766615952513152
11
0.46875
21
0.9375
31
2.7072901111584105
0
LINE
8
MEDIONETWORK
62
41
48
6.167544401642261
10
0.46875
20
0.46875
30
2.663229127666405
11
0.46875
21
0.9375
31
2.623848418563807
0
LINE
8
ASSE
62
253
10
0.46875
20
0.46875
30
2.721847
11
0.46875
21
0.9375
31
2.5974865
0
LINE
8
INTRADOSSO
62
256
10
0.46875
20
0.46875
30
2.567449
11
0.46875
21
0.9375
31
2.435696
0
LINE
8
ESTRADOSSO
62
256
10
0.46875
20
0.46875
30
2.876245
11
0.46875
21
0.9375
31
2.759277
0
LINE
8
MAXSPINTA
62
41
48
8.857974986131106
10
0.46875
20
0.9375
30
2.591476528854467
11
0.46875
21
1.40625
31
2.479373098976877
0
LINE
8
MINSPINTA
62
41
48
5.359385349098427
10
0.46875
20
0.9375
30
2.7072901111584105
11
0.46875
21
1.40625
31
2.427985086874613
0
LINE
8
MEDIONETWORK
62
41
48
6.65203633311883
10
0.46875
20
0.9375
30
2.623848418563807
11
0.46875
21
1.40625
31
2.4297318342741474
0
LINE
8
ASSE
62
253
10
0.46875
20
0.9375
30
2.5974865
11
0.46875
21
1.40625
31
2.3755385
0
LINE
8
INTRADOSSO
62
256
10
0.46875
20
0.9375
30
2.435696
11
0.46875
21
1.40625
31
2.198632
0
LINE
8
ESTRADOSSO
62
256
10
0.46875
20
0.9375
30
2.759277
11
0.46875
21
1.40625
31
2.552445
0
LINE
8
MAXSPINTA
62
41
48
9.750581946571222
10
0.46875
20
1.40625
30
2.479373098976877
11
0.46875
21
1.875
31
2.230894
0
LINE
8
MINSPINTA
62
41
48
7.575729081446621
10
0.46875
20
1.40625
30
2.427985086874613
11
0.46875
21
1.875
31
1.815461
0
LINE
8
MEDIONETWORK
62
41
48
8.362833385506603
10
0.46875
20
1.40625
30
2.4297318342741474
11
0.46875
21
1.875
31
1.9971703407926118
0
LINE
8
ASSE
62
253
10
0.46875
20
1.40625
30
2.3755385
11
0.46875
21
1.875
31
2.0231775
0
LINE
8
INTRADOSSO
62
256
10
0.46875
20
1.40625
30
2.198632
11
0.46875
21
1.875
31
1.815461
0
LINE
8
ESTRADOSSO
62
256
10
0.46875
20
1.40625
30
2.552445
11
0.46875
21
1.875
31
2.230894
0
LINE
8
MAXSPINTA
62
41
48
9.781005333715088
10
0.9375
20
-1.875
30
2.042162628558947
11
0.9375
21
-1.40625
31
2.29416140776718
0
LINE
8
MINSPINTA
62
41
48
7.244538343320542
10
0.9375
20
-1.875
30
1.623798
11
0.9375
21
-1.40625
31
2.1932813259544575
0
LINE
8
MEDIONETWORK
62
41
48
7.903371560845292
10
0.9375
20
-1.875
30
1.856995410398885
11
0.9375
21
-1.40625
31
2.235989571084339
0
LINE
8
ASSE
62
253
10
0.9375
20
-1.875
30
1.850854
11
0.9375
21
-1.40625
31
2.2315545
0
LINE
8
INTRADOSSO
62
256
10
0.9375
20
-1.875
30
1.623798
11
0.9375
21
-1.40625
31
2.043234
0
LINE
8
ESTRADOSSO
62
256
10
0.9375
20
-1.875
30
2.07791
11
0.9375
21
-1.40625
31
2.419875
0
LINE
8
MAXSPINTA
62
41
48
8.839101946001986
10
0.9375
20
-1.40625
30
2.29416140776718
11
0.9375
21
-0.9375
31
2.4017730812435976
0
LINE
8
MINSPINTA
62
41
48
5.122383593724016
10
0.9375
20
-1.40625
30
2.1932813259544575
11
0.9375
21
-0.9375
31
2.421891827439519
0
LINE
8
MEDIONETWORK
62
41
48
6.490039802841554
10
0.9375
20
-1.40625
30
2.235989571084339
11
0.9375
21
-0.9375
31
2.3950450854287553
0
LINE
8
ASSE
62
253
10
0.9375
20
-1.40625
30
2.2315545
11
0.9375
21
-0.9375
31
2.466761
0
LINE
8
INTRADOSSO
62
256
10
0.9375
20
-1.40625
30
2.043234
11
0.9375
21
-0.9375
31
2.296397
0
LINE
8
ESTRADOSSO
62
256
10
0.9375
20
-1.40625
30
2.419875
11
0.9375
21
-0.9375
31
2.637125
0
LINE
8
MAXSPINTA
62
41
48
9.294251520246934
10
0.9375
20
-0.9375
30
2.4017730812435976
11
0.9375
21
-0.46875
31
2.591068926091761
0
LINE
8
MINSPINTA
62
41
48
5.3898256962184155
10
0.9375
20
-0.9375
30
2.421891827439519
11
0.9375
21
-0.46875
31
2.706832828834865
0
LINE
8
MEDIONETWORK
62
41
48
6.836307508404576
10
0.9375
20
-0.9375
30
2.3950450854287553
11
0.9375
21
-0.46875
31
2.6229678279026496
0
LINE
8
ASSE
62
253
10
0.9375
20
-0.9375
30
2.466761
11
0.9375
21
-0.46875
31
2.5974865
0
LINE
8
INTRADOSSO
62
256
10
0.9375
20
-0.9375
30
2.296397
11
0.9375
21
-0.46875
31
2.435696
0
LINE
8
ESTRADOSSO
62
256
10
0.9375
20
-0.9375
30
2.637125
11
0.9375
21
-0.46875
31
2.759277
0
LINE
8
MAXSPINTA
62
41
48
8.691993140134791
10
0.9375
20
-0.46875
30
2.591068926091761
11
0.9375
21
0.0
31
2.65259925829117
0
LINE
8
MINSPINTA
62
41
48
4.693484095111638
10
0.9375
20
-0.46875
30
2.706832828834865
11
0.9375
21
0.0
31
2.798809
0
LINE
8
MEDIONETWORK
62
41
48
6.223802996291014
10
0.9375
20
-0.46875
30
2.6229678279026496
11
0.9375
21
0.0
31
2.6967762371527604
0
LINE
8
ASSE
62
253
10
0.9375
20
-0.46875
30
2.5974865
11
0.9375
21
0.0
31
2.6396005000000002
0
LINE
8
INTRADOSSO
62
256
10
0.9375
20
-0.46875
30
2.435696
11
0.9375
21
0.0
31
2.480392
0
LINE
8
ESTRADOSSO
62
256
10
0.9375
20
-0.46875
30
2.759277
11
0.9375
21
0.0
31
2.798809
0
LINE
8
MAXSPINTA
62
41
48
8.691020999044493
10
0.9375
20
0.0
30
2.65259925829117
11
0.9375
21
0.46875
31
2.5914765307600924
0
LINE
8
MINSPINTA
62
41
48
4.692621067400797
10
0.9375
20
0.0
30
2.798809
11
0.9375
21
0.46875
31
2.7072901111584233
0
LINE
8
MEDIONETWORK
62
41
48
6.222018406936217
10
0.9375
20
0.0
30
2.6967762371527604
11
0.9375
21
0.46875
31
2.623847720133918
0
LINE
8
ASSE
62
253
10
0.9375
20
0.0
30
2.6396005000000002
11
0.9375
21
0.46875
31
2.5974865
0
LINE
8
INTRADOSSO
62
256
10
0.9375
20
0.0
30
2.480392
11
0.9375
21
0.46875
31
2.435696
0
LINE
8
ESTRADOSSO
62
256
10
0.9375
20
0.0
30
2.798809
11
0.9375
21
0.46875
31
2.759277
0
LINE
8
MAXSPINTA
62
41
48
9.292413021618124
10
0.9375
20
0.46875
30
2.5914765307600924
11
0.9375
21
0.9375
31
2.4024479025450116
0
LINE
8
MINSPINTA
62
41
48
5.389266204193346
10
0.9375
20
0.46875
30
2.7072901111584233
11
0.9375
21
0.9375
31
2.422458750849589
0
LINE
8
MEDIONETWORK
62
41
48
6.835580579315741
10
0.9375
20
0.46875
30
2.623847720133918
11
0.9375
21
0.9375
31
2.3960517518139444
0
LINE
8
ASSE
62
253
10
0.9375
20
0.46875
30
2.5974865
11
0.9375
21
0.9375
31
2.466761
0
LINE
8
INTRADOSSO
62
256
10
0.9375
20
0.46875
30
2.435696
11
0.9375
21
0.9375
31
2.296397
0
LINE
8
ESTRADOSSO
62
256
10
0.9375
20
0.46875
30
2.759277
11
0.9375
21
0.9375
31
2.637125
0
LINE
8
MAXSPINTA
62
41
48
8.838049616260935
10
0.9375
20
0.9375
30
2.4024479025450116
11
0.9375
21
1.40625
31
2.2950924202637704
0
LINE
8
MINSPINTA
62
41
48
5.1208586964480345
10
0.9375
20
0.9375
30
2.422458750849589
11
0.9375
21
1.40625
31
2.1942026514637427
0
LINE
8
MEDIONETWORK
62
41
48
6.486005295067771
10
0.9375
20
0.9375
30
2.3960517518139444
11
0.9375
21
1.40625
31
2.237956484964912
0
LINE
8
ASSE
62
253
10
0.9375
20
0.9375
30
2.466761
11
0.9375
21
1.40625
31
2.2315545
0
LINE
8
INTRADOSSO
62
256
10
0.9375
20
0.9375
30
2.296397
11
0.9375
21
1.40625
31
2.043234
0
LINE
8
ESTRADOSSO
62
256
10
0.9375
20
0.9375
30
2.637125
11
0.9375
21
1.40625
31
2.419875
0
LINE
8
MAXSPINTA
62
41
48
9.785119151175945
10
0.9375
20
1.40625
30
2.2950924202637704
11
0.9375
21
1.875
31
2.042621266254082
0
LINE
8
MINSPINTA
62
41
48
7.25152738222151
10
0.9375
20
1.40625
30
2.1942026514637427
11
0.9375
21
1.875
31
1.623798
0
LINE
8
MEDIONETWORK
62
41
48
7.894169855378531
10
0.9375
20
1.40625
30
2.237956484964912
11
0.9375
21
1.875
31
1.8600795784705775
0
LINE
8
ASSE
62
253
10
0.9375
20
1.40625
30
2.2315545
11
0.9375
21
1.875
31
1.850854
0
LINE
8
INTRADOSSO
62
256
10
0.9375
20
1.40625
30
2.043234
11
0.9375
21
1.875
31
1.623798
0
LINE
8
ESTRADOSSO
62
256
10
0.9375
20
1.40625
30
2.419875
11
0.9375
21
1.875
31
2.07791
0
LINE
8
MAXSPINTA
62
41
48
10.018727919015111
10
1.40625
20
-1.875
30
1.683678663737047
11
1.40625
21
-1.40625
31
1.9619550156746457
0
LINE
8
MINSPINTA
62
41
48
6.830442369885661
10
1.40625
20
-1.875
30
1.240196029556017
11
1.40625
21
-1.40625
31
1.753902
0
LINE
8
MEDIONETWORK
62
41
48
7.219263539713101
10
1.40625
20
-1.875
30
1.5659240800903371
11
1.40625
21
-1.40625
31
1.8548078723656358
0
LINE
8
ASSE
62
253
10
1.40625
20
-1.875
30
1.517187
11
1.40625
21
-1.40625
31
1.967497
0
LINE
8
INTRADOSSO
62
256
10
1.40625
20
-1.875
30
1.240196
11
1.40625
21
-1.40625
31
1.753902
0
LINE
8
ESTRADOSSO
62
256
10
1.40625
20
-1.875
30
1.794178
11
1.40625
21
-1.40625
31
2.181092
0
LINE
8
MAXSPINTA
62
41
48
10.564562523280028
10
1.40625
20
-1.40625
30
1.9619550156746457
11
1.40625
21
-0.9375
31
2.294161406548399
0
LINE
8
MINSPINTA
62
41
48
6.313626116999476
10
1.40625
20
-1.40625
30
1.753902
11
1.40625
21
-0.9375
31
2.193281325954458
0
LINE
8
MEDIONETWORK
62
41
48
7.925506980295814
10
1.40625
20
-1.40625
30
1.8548078723656358
11
1.40625
21
-0.9375
31
2.2359899802729033
0
LINE
8
ASSE
62
253
10
1.40625
20
-1.40625
30
1.967497
11
1.40625
21
-0.9375
31
2.2315545
0
LINE
8
INTRADOSSO
62
256
10
1.40625
20
-1.40625
30
1.753902
11
1.40625
21
-0.9375
31
2.043234
0
LINE
8
ESTRADOSSO
62
256
10
1.40625
20
-1.40625
30
2.181092
11
1.40625
21
-0.9375
31
2.419875
0
LINE
8
MAXSPINTA
62
41
48
9.264771832207433
10
1.40625
20
-0.9375
30
2.294161406548399
11
1.40625
21
-0.46875
31
2.478916019886891
0
LINE
8
MINSPINTA
62
41
48
5.1490212113496865
10
1.40625
20
-0.9375
30
2.193281325954458
11
1.40625
21
-0.46875
31
2.4274113850859944
0
LINE
8
MEDIONETWORK
62
41
48
6.644954159212642
10
1.40625
20
-0.9375
30
2.2359899802729033
11
1.40625
21
-0.46875
31
2.4280106337337544
0
LINE
8
ASSE
62
253
10
1.40625
20
-0.9375
30
2.2315545
11
1.40625
21
-0.46875
31
2.3755385
0
LINE
8
INTRADOSSO
62
256
10
1.40625
20
-0.9375
30
2.043234
11
1.40625
21
-0.46875
31
2.198632
0
LINE
8
ESTRADOSSO
62
256
10
1.40625
20
-0.9375
30
2.419875
11
1.40625
21
-0.46875
31
2.552445
0
LINE
8
MAXSPINTA
62
41
48
8.683673103365582
10
1.40625
20
-0.46875
30
2.478916019886891
11
1.40625
21
0.0
31
2.5362568720900245
0
LINE
8
MINSPINTA
62
41
48
4.663383141541445
10
1.40625
20
-0.46875
30
2.4274113850859944
11
1.40625
21
0.0
31
2.5013784057768955
0
LINE
8
MEDIONETWORK
62
41
48
6.202872713457754
10
1.40625
20
-0.46875
30
2.4280106337337544
11
1.40625
21
0.0
31
2.490181629511178
0
LINE
8
ASSE
62
253
10
1.40625
20
-0.46875
30
2.3755385
11
1.40625
21
0.0
31
2.421588
0
LINE
8
INTRADOSSO
62
256
10
1.40625
20
-0.46875
30
2.198632
11
1.40625
21
0.0
31
2.248046
0
LINE
8
ESTRADOSSO
62
256
10
1.40625
20
-0.46875
30
2.552445
11
1.40625
21
0.0
31
2.59513
0
LINE
8
MAXSPINTA
62
41
48
8.682656578416594
10
1.40625
20
0.0
30
2.5362568720900245
11
1.40625
21
0.46875
31
2.479373100272363
0
LINE
8
MINSPINTA
62
41
48
4.662507724960482
10
1.40625
20
0.0
30
2.5013784057768955
11
1.40625
21
0.46875
31
2.427985086874622
0
LINE
8
MEDIONETWORK
62
41
48
6.199947138166483
10
1.40625
20
0.0
30
2.490181629511178
11
1.40625
21
0.46875
31
2.4297302522906863
0
LINE
8
ASSE
62
253
10
1.40625
20
0.0
30
2.421588
11
1.40625
21
0.46875
31
2.3755385
0
LINE
8
INTRADOSSO
62
256
10
1.40625
20
0.0
30
2.248046
11
1.40625
21
0.46875
31
2.198632
0
LINE
8
ESTRADOSSO
62
256
10
1.40625
20
0.0
30
2.59513
11
1.40625
21
0.46875
31
2.552445
0
LINE
8
MAXSPINTA
62
41
48
9.261579798711724
10
1.40625
20
0.46875
30
2.479373100272363
11
1.40625
21
0.9375
31
2.2950924185445842
0
LINE
8
MINSPINTA
62
41
48
5.147495677006065
10
1.40625
20
0.46875
30
2.427985086874622
11
1.40625
21
0.9375
31
2.1942026514637463
0
LINE
8
MEDIONETWORK
62
41
48
6.643731517000461
10
1.40625
20
0.46875
30
2.4297302522906863
11
1.40625
21
0.9375
31
2.237955608336519
0
LINE
8
ASSE
62
253
10
1.40625
20
0.46875
30
2.3755385
11
1.40625
21
0.9375
31
2.2315545
0
LINE
8
INTRADOSSO
62
256
10
1.40625
20
0.46875
30
2.198632
11
1.40625
21
0.9375
31
2.043234
0
LINE
8
ESTRADOSSO
62
256
10
1.40625
20
0.46875
30
2.552445
11
1.40625
21
0.9375
31
2.419875
0
LINE
8
MAXSPINTA
62
41
48
10.566236753503768
10
1.40625
20
0.9375
30
2.2950924185445842
11
1.40625
21
1.40625
31
1.962728587169779
0
LINE
8
MINSPINTA
62
41
48
6.319821300938115
10
1.40625
20
0.9375
30
2.1942026514637463
11
1.40625
21
1.40625
31
1.753902
0
LINE
8
MEDIONETWORK
62
41
48
7.940524054464928
10
1.40625
20
0.9375
30
2.237955608336519
11
1.40625
21
1.40625
31
1.8549616168082876
0
LINE
8
ASSE
62
253
10
1.40625
20
0.9375
30
2.2315545
11
1.40625
21
1.40625
31
1.967497
0
LINE
8
INTRADOSSO
62
256
10
1.40625
20
0.9375
30
2.043234
11
1.40625
21
1.40625
31
1.753902
0
LINE
8
ESTRADOSSO
62
256
10
1.40625
20
0.9375
30
2.419875
11
1.40625
21
1.40625
31
2.181092
0
LINE
8
MAXSPINTA
62
41
48
10.02166221164738
10
1.40625
20
1.40625
30
1.962728587169779
11
1.40625
21
1.875
31
1.684139605076375
0
LINE
8
MINSPINTA
62
41
48
6.83044258432508
10
1.40625
20
1.40625
30
1.753902
11
1.40625
21
1.875
31
1.240196
0
LINE
8
MEDIONETWORK
62
41
48
7.235421907711609
10
1.40625
20
1.40625
30
1.8549616168082876
11
1.40625
21
1.875
31
1.5637356926759456
0
LINE
8
ASSE
62
253
10
1.40625
20
1.40625
30
1.967497
11
1.40625
21
1.875
31
1.517187
0
LINE
8
INTRADOSSO
62
256
10
1.40625
20
1.40625
30
1.753902
11
1.40625
21
1.875
31
1.240196
0
LINE
8
ESTRADOSSO
62
256
10
1.40625
20
1.40625
30
2.181092
11
1.40625
21
1.875
31
1.794178
0
LINE
8
MAXSPINTA
62
41
48
9.325685998552725
10
1.875
20
-1.875
30
1.29653
11
1.875
21
-1.640625
31
1.3936740792416717
0
LINE
8
MINSPINTA
62
41
48
5.053454124251993
10
1.875
20
-1.875
30
0.8652174557759955
11
1.875
21
-1.640625
31
0.9712742635753647
0
LINE
8
MEDIONETWORK
62
61
48
14.39578857027735
10
1.875
20
-1.875
30
0.7764003436185493
11
1.875
21
-1.640625
31
1.2728450490381065
0
LINE
8
ASSE
62
253
10
1.875
20
-1.875
30
0.648265
11
1.875
21
-1.640625
31
1.245219
0
LINE
8
INTRADOSSO
62
256
10
1.875
20
-1.875
30
0.0
11
1.875
21
-1.640625
31
0.90773
0
LINE
8
ESTRADOSSO
62
256
10
1.875
20
-1.875
30
1.29653
11
1.875
21
-1.640625
31
1.582708
0
LINE
8
MAXSPINTA
62
101
48
27.41486649606092
10
1.875
20
-1.640625
30
1.3936740792416717
11
1.875
21
-1.40625
31
1.6836786750693413
0
LINE
8
MINSPINTA
62
61
48
14.01642459725494
10
1.875
20
-1.640625
30
0.9712742635753647
11
1.875
21
-1.40625
31
1.2401960207996388
0
LINE
8
MEDIONETWORK
62
81
48
19.68335456880358
10
1.875
20
-1.640625
30
1.2728450490381065
11
1.875
21
-1.40625
31
1.5659274099882412
0
LINE
8
ASSE
62
253
10
1.875
20
-1.640625
30
1.245219
11
1.875
21
-1.40625
31
1.517187
0
LINE
8
INTRADOSSO
62
256
10
1.875
20
-1.640625
30
0.90773
11
1.875
21
-1.40625
31
1.240196
0
LINE
8
ESTRADOSSO
62
256
10
1.875
20
-1.640625
30
1.582708
11
1.875
21
-1.40625
31
1.794178
0
LINE
8
MAXSPINTA
62
81
48
22.46055452974815
10
1.875
20
-1.40625
30
1.6836786750693413
11
1.875
21
-0.9375
31
2.042162632116074
0
LINE
8
MINSPINTA
62
61
48
12.320415404417334
10
1.875
20
-1.40625
30
1.2401960207996388
11
1.875
21
-0.9375
31
1.623798
0
LINE
8
MEDIONETWORK
62
61
48
14.981976303318804
10
1.875
20
-1.40625
30
1.5659274099882412
11
1.875
21
-0.9375
31
1.8570008829970999
0
LINE
8
ASSE
62
253
10
1.875
20
-1.40625
30
1.517187
11
1.875
21
-0.9375
31
1.850854
0
LINE
8
INTRADOSSO
62
256
10
1.875
20
-1.40625
30
1.240196
11
1.875
21
-0.9375
31
1.623798
0
LINE
8
ESTRADOSSO
62
256
10
1.875
20
-1.40625
30
1.794178
11
1.875
21
-0.9375
31
2.07791
0
LINE
8
MAXSPINTA
62
81
48
19.233017741017523
10
1.875
20
-0.9375
30
2.042162632116074
11
1.875
21
-0.46875
31
2.230894
0
LINE
8
MINSPINTA
62
41
48
10.300919101196799
10
1.875
20
-0.9375
30
1.623798
11
1.875
21
-0.46875
31
1.815461
0
LINE
8
MEDIONETWORK
62
61
48
13.258854739622079
10
1.875
20
-0.9375
30
1.8570008829970999
11
1.875
21
-0.46875
31
1.9938203201433018
0
LINE
8
ASSE
62
253
10
1.875
20
-0.9375
30
1.850854
11
1.875
21
-0.46875
31
2.0231775
0
LINE
8
INTRADOSSO
62
256
10
1.875
20
-0.9375
30
1.623798
11
1.875
21
-0.46875
31
1.815461
0
LINE
8
ESTRADOSSO
62
256
10
1.875
20
-0.9375
30
2.07791
11
1.875
21
-0.46875
31
2.230894
0
LINE
8
MAXSPINTA
62
61
48
17.937289771057994
10
1.875
20
-0.46875
30
2.230894
11
1.875
21
0.0
31
2.279609
0
LINE
8
MINSPINTA
62
41
48
9.611290082650122
10
1.875
20
-0.46875
30
1.815461
11
1.875
21
0.0
31
1.875
0
LINE
8
MEDIONETWORK
62
61
48
12.816926484108652
10
1.875
20
-0.46875
30
1.9938203201433018
11
1.875
21
0.0
31
2.049401410635525
0
LINE
8
ASSE
62
253
10
1.875
20
-0.46875
30
2.0231775
11
1.875
21
0.0
31
2.0773045000000003
0
LINE
8
INTRADOSSO
62
256
10
1.875
20
-0.46875
30
1.815461
11
1.875
21
0.0
31
1.875
0
LINE
8
ESTRADOSSO
62
256
10
1.875
20
-0.46875
30
2.230894
11
1.875
21
0.0
31
2.279609
0
LINE
8
MAXSPINTA
62
61
48
17.937289771057976
10
1.875
20
0.0
30
2.279609
11
1.875
21
0.46875
31
2.230894
0
LINE
8
MINSPINTA
62
41
48
9.611290082650113
10
1.875
20
0.0
30
1.875
11
1.875
21
0.46875
31
1.815461
0
LINE
8
MEDIONETWORK
62
61
48
12.806542751600043
10
1.875
20
0.0
30
2.049401410635525
11
1.875
21
0.46875
31
1.9971675908129929
0
LINE
8
ASSE
62
253
10
1.875
20
0.0
30
2.0773045000000003
11
1.875
21
0.46875
31
2.0231775
0
LINE
8
INTRADOSSO
62
256
10
1.875
20
0.0
30
1.875
11
1.875
21
0.46875
31
1.815461
0
LINE
8
ESTRADOSSO
62
256
10
1.875
20
0.0
30
2.279609
11
1.875
21
0.46875
31
2.230894
0
LINE
8
MAXSPINTA
62
81
48
19.226504959926533
10
1.875
20
0.46875
30
2.230894
11
1.875
21
0.9375
31
2.0426212580794196
0
LINE
8
MINSPINTA
62
41
48
10.300919101196767
10
1.875
20
0.46875
30
1.815461
11
1.875
21
0.9375
31
1.623798
0
LINE
8
MEDIONETWORK
62
61
48
13.260914543474064
10
1.875
20
0.46875
30
1.9971675908129929
11
1.875
21
0.9375
31
1.8600776538668315
0
LINE
8
ASSE
62
253
10
1.875
20
0.46875
30
2.0231775
11
1.875
21
0.9375
31
1.850854
0
LINE
8
INTRADOSSO
62
256
10
1.875
20
0.46875
30
1.815461
11
1.875
21
0.9375
31
1.623798
0
LINE
8
ESTRADOSSO
62
256
10
1.875
20
0.46875
30
2.230894
11
1.875
21
0.9375
31
2.07791
0
LINE
8
MAXSPINTA
62
81
48
22.460501807881244
10
1.875
20
0.9375
30
2.0426212580794196
11
1.875
21
1.40625
31
1.68413958125269
0
LINE
8
MINSPINTA
62
61
48
12.320415672359676
10
1.875
20
0.9375
30
1.623798
11
1.875
21
1.40625
31
1.240196
0
LINE
8
MEDIONETWORK
62
61
48
15.057943157676798
10
1.875
20
0.9375
30
1.8600776538668315
11
1.875
21
1.40625
31
1.5637348536204745
0
LINE
8
ASSE
62
253
10
1.875
20
0.9375
30
1.850854
11
1.875
21
1.40625
31
1.517187
0
LINE
8
INTRADOSSO
62
256
10
1.875
20
0.9375
30
1.623798
11
1.875
21
1.40625
31
1.240196
0
LINE
8
ESTRADOSSO
62
256
10
1.875
20
0.9375
30
2.07791
11
1.875
21
1.40625
31
1.794178
0
LINE
8
MAXSPINTA
62
101
48
27.42153127447973
10
1.875
20
1.40625
30
1.68413958125269
11
1.875
21
1.640625
31
1.3940184434950105
0
LINE
8
MINSPINTA
62
61
48
14.072426317651775
10
1.875
20
1.40625
30
1.240196
11
1.875
21
1.640625
31
0.9693864993916236
0
LINE
8
MEDIONETWORK
62
81
48
19.647214003356563
10
1.875
20
1.40625
30
1.5637348536204745
11
1.875
21
1.640625
31
1.2715352750053586
0
LINE
8
ASSE
62
253
10
1.875
20
1.40625
30
1.517187
11
1.875
21
1.640625
31
1.245219
0
LINE
8
INTRADOSSO
62
256
10
1.875
20
1.40625
30
1.240196
11
1.875
21
1.640625
31
0.90773
0
LINE
8
ESTRADOSSO
62
256
10
1.875
20
1.40625
30
1.794178
11
1.875
21
1.640625
31
1.582708
0
LINE
8
MAXSPINTA
62
41
48
9.330539968789452
10
1.875
20
1.640625
30
1.3940184434950105
11
1.875
21
1.875
31
1.29653
0
LINE
8
MINSPINTA
62
41
48
5.073569567705874
10
1.875
20
1.640625
30
0.9693864993916236
11
1.875
21
1.875
31
0.8608694224036044
0
LINE
8
MEDIONETWORK
62
61
48
14.386905030905922
10
1.875
20
1.640625
30
1.2715352750053586
11
1.875
21
1.875
31
0.7754652292627195
0
LINE
8
ASSE
62
253
10
1.875
20
1.640625
30
1.245219
11
1.875
21
1.875
31
0.648265
0
LINE
8
INTRADOSSO
62
256
10
1.875
20
1.640625
30
0.90773
11
1.875
21
1.875
31
0.0
0
LINE
8
ESTRADOSSO
62
256
10
1.875
20
1.640625
30
1.582708
11
1.875
21
1.875
31
1.29653
0
LINE
8
MAXSPINTA
62
61
48
12.640867257429976
10
-1.640625
20
-1.875
30
1.3940190465607856
11
-1.757812
21
-1.757812
31
1.4397012075781357
0
LINE
8
MINSPINTA
62
41
48
7.161936638488489
10
-1.640625
20
-1.875
30
0.969386498014241
11
-1.757812
21
-1.757812
31
1.045212519165754
0
LINE
8
MEDIONETWORK
62
41
48
10.433145818879794
10
-1.640625
20
-1.875
30
1.2716312690103573
11
-1.757812
21
-1.757812
31
1.1616737605091076
0
LINE
8
ASSE
62
253
10
-1.640625
20
-1.875
30
1.245219
11
-1.757812
21
-1.757812
31
1.257048
0
LINE
8
INTRADOSSO
62
256
10
-1.640625
20
-1.875
30
0.90773
11
-1.757812
21
-1.757812
31
0.922735
0
LINE
8
ESTRADOSSO
62
256
10
-1.640625
20
-1.875
30
1.582708
11
-1.757812
21
-1.757812
31
1.591361
0
LINE
8
MAXSPINTA
62
61
48
12.640867254647564
10
-1.757812
20
-1.757812
30
1.4397012075781357
11
-1.875
21
-1.640625
31
1.3940190467031803
0
LINE
8
MINSPINTA
62
41
48
7.1619366027335225
10
-1.757812
20
-1.757812
30
1.045212519165754
11
-1.875
21
-1.640625
31
0.9693865002011322
0
LINE
8
MEDIONETWORK
62
41
48
10.433160845044194
10
-1.757812
20
-1.757812
30
1.1616737605091076
11
-1.875
21
-1.640625
31
1.2716317871237637
0
LINE
8
ASSE
62
253
10
-1.757812
20
-1.757812
30
1.257048
11
-1.875
21
-1.640625
31
1.245219
0
LINE
8
INTRADOSSO
62
256
10
-1.757812
20
-1.757812
30
0.922735
11
-1.875
21
-1.640625
31
0.90773
0
LINE
8
ESTRADOSSO
62
256
10
-1.757812
20
-1.757812
30
1.591361
11
-1.875
21
-1.640625
31
1.582708
0
LINE
8
MAXSPINTA
62
21
48
0.8748533790852611
10
-1.40625
20
-1.875
30
1.6841399349679131
11
-1.640625
21
-1.640625
31
1.6255539317753436
0
LINE
8
MINSPINTA
62
21
48
0.46747195872695674
10
-1.40625
20
-1.875
30
1.2401960282502689
11
-1.640625
21
-1.640625
31
1.2985054867404497
0
LINE
8
MEDIONETWORK
62
21
48
0.676903334712574
10
-1.40625
20
-1.875
30
1.5638174769224586
11
-1.640625
21
-1.640625
31
1.4108176156065861
0
LINE
8
ASSE
62
253
10
-1.40625
20
-1.875
30
1.517187
11
-1.640625
21
-1.640625
31
1.5541315
0
LINE
8
INTRADOSSO
62
256
10
-1.40625
20
-1.875
30
1.240196
11
-1.640625
21
-1.640625
31
1.283725
0
LINE
8
ESTRADOSSO
62
256
10
-1.40625
20
-1.875
30
1.794178
11
-1.640625
21
-1.640625
31
1.824538
0
LINE
8
MAXSPINTA
62
21
48
0.874853379108113
10
-1.640625
20
-1.640625
30
1.6255539317753436
11
-1.875
21
-1.40625
31
1.684139935018441
0
LINE
8
MINSPINTA
62
21
48
0.4674719584778601
10
-1.640625
20
-1.640625
30
1.2985054867404497
11
-1.875
21
-1.40625
31
1.2401960292853065
0
LINE
8
MEDIONETWORK
62
21
48
0.6769044525612722
10
-1.640625
20
-1.640625
30
1.4108176156065861
11
-1.875
21
-1.40625
31
1.5638189154008655
0
LINE
8
ASSE
62
253
10
-1.640625
20
-1.640625
30
1.5541315
11
-1.875
21
-1.40625
31
1.517187
0
LINE
8
INTRADOSSO
62
256
10
-1.640625
20
-1.640625
30
1.283725
11
-1.875
21
-1.40625
31
1.240196
0
LINE
8
ESTRADOSSO
62
256
10
-1.640625
20
-1.640625
30
1.824538
11
-1.875
21
-1.40625
31
1.794178
0
LINE
8
MAXSPINTA
62
61
48
12.642465176428352
10
1.640625
20
-1.875
30
1.3936740573740323
11
1.757812
21
-1.757812
31
1.4394379269122382
0
LINE
8
MINSPINTA
62
41
48
7.17383268922939
10
1.640625
20
-1.875
30
0.9712742607192885
11
1.757812
21
-1.757812
31
1.047825024188996
0
LINE
8
MEDIONETWORK
62
41
48
10.443266813043884
10
1.640625
20
-1.875
30
1.272843849631226
11
1.757812
21
-1.757812
31
1.1625377444037943
0
LINE
8
ASSE
62
253
10
1.640625
20
-1.875
30
1.245219
11
1.757812
21
-1.757812
31
1.257048
0
LINE
8
INTRADOSSO
62
256
10
1.640625
20
-1.875
30
0.90773
11
1.757812
21
-1.757812
31
0.922735
0
LINE
8
ESTRADOSSO
62
256
10
1.640625
20
-1.875
30
1.582708
11
1.757812
21
-1.757812
31
1.591361
0
LINE
8
MAXSPINTA
62
61
48
12.642464748422555
10
1.757812
20
-1.757812
30
1.4394379269122382
11
1.875
21
-1.640625
31
1.3936740792416717
0
LINE
8
MINSPINTA
62
41
48
7.173832642165317
10
1.757812
20
-1.757812
30
1.047825024188996
11
1.875
21
-1.640625
31
0.9712742635753647
0
LINE
8
MEDIONETWORK
62
41
48
10.443301674404323
10
1.757812
20
-1.757812
30
1.1625377444037943
11
1.875
21
-1.640625
31
1.2728450490381065
0
LINE
8
ASSE
62
253
10
1.757812
20
-1.757812
30
1.257048
11
1.875
21
-1.640625
31
1.245219
0
LINE
8
INTRADOSSO
62
256
10
1.757812
20
-1.757812
30
0.922735
11
1.875
21
-1.640625
31
0.90773
0
LINE
8
ESTRADOSSO
62
256
10
1.757812
20
-1.757812
30
1.591361
11
1.875
21
-1.640625
31
1.582708
0
LINE
8
MAXSPINTA
62
21
48
0.8748411239968695
10
1.40625
20
-1.875
30
1.683678663737047
11
1.640625
21
-1.640625
31
1.6251197560823685
0
LINE
8
MINSPINTA
62
21
48
0.46788598762526584
10
1.40625
20
-1.875
30
1.240196029556017
11
1.640625
21
-1.640625
31
1.3002019544429853
0
LINE
8
MEDIONETWORK
62
21
48
0.678124555009876
10
1.40625
20
-1.875
30
1.5659240800903371
11
1.640625
21
-1.640625
31
1.4113592984692964
0
LINE
8
ASSE
62
253
10
1.40625
20
-1.875
30
1.517187
11
1.640625
21
-1.640625
31
1.5541315
0
LINE
8
INTRADOSSO
62
256
10
1.40625
20
-1.875
30
1.240196
11
1.640625
21
-1.640625
31
1.283725
0
LINE
8
ESTRADOSSO
62
256
10
1.40625
20
-1.875
30
1.794178
11
1.640625
21
-1.640625
31
1.824538
0
LINE
8
MAXSPINTA
62
21
48
0.8748411291212209
10
1.640625
20
-1.640625
30
1.6251197560823685
11
1.875
21
-1.40625
31
1.6836786750693413
0
LINE
8
MINSPINTA
62
21
48
0.4678859897919736
10
1.640625
20
-1.640625
30
1.3002019544429853
11
1.875
21
-1.40625
31
1.2401960207996388
0
LINE
8
MEDIONETWORK
62
21
48
0.6781271644626905
10
1.640625
20
-1.640625
30
1.4113592984692964
11
1.875
21
-1.40625
31
1.5659274099882412
0
LINE
8
ASSE
62
253
10
1.640625
20
-1.640625
30
1.5541315
11
1.875
21
-1.40625
31
1.517187
0
LINE
8
INTRADOSSO
62
256
10
1.640625
20
-1.640625
30
1.283725
11
1.875
21
-1.40625
31
1.240196
0
LINE
8
ESTRADOSSO
62
256
10
1.640625
20
-1.640625
30
1.824538
11
1.875
21
-1.40625
31
1.794178
0
LINE
8
MAXSPINTA
62
61
48
12.642466059016968
10
-1.640625
20
1.875
30
1.393673945438243
11
-1.757812
21
1.757812
31
1.4394378600695208
0
LINE
8
MINSPINTA
62
41
48
7.1738328606036035
10
-1.640625
20
1.875
30
0.9712742732425726
11
-1.757812
21
1.757812
31
1.0478250471120671
0
LINE
8
MEDIONETWORK
62
41
48
10.443298968720866
10
-1.640625
20
1.875
30
1.2728465723768212
11
-1.757812
21
1.757812
31
1.1625393608313892
0
LINE
8
ASSE
62
253
10
-1.640625
20
1.875
30
1.245219
11
-1.757812
21
1.757812
31
1.257048
0
LINE
8
INTRADOSSO
62
256
10
-1.640625
20
1.875
30
0.90773
11
-1.757812
21
1.757812
31
0.922735
0
LINE
8
ESTRADOSSO
62
256
10
-1.640625
20
1.875
30
1.582708
11
-1.757812
21
1.757812
31
1.591361
0
LINE
8
MAXSPINTA
62
61
48
12.642466343119406
10
-1.757812
20
1.757812
30
1.4394378600695208
11
-1.875
21
1.640625
31
1.3936739309229218
0
LINE
8
MINSPINTA
62
41
48
7.173832930762742
10
-1.757812
20
1.757812
30
1.0478250471120671
11
-1.875
21
1.640625
31
0.971274268984976
0
LINE
8
MEDIONETWORK
62
41
48
10.443271352860206
10
-1.757812
20
1.757812
30
1.1625393608313892
11
-1.875
21
1.640625
31
1.2728456222519178
0
LINE
8
ASSE
62
253
10
-1.757812
20
1.757812
30
1.257048
11
-1.875
21
1.640625
31
1.245219
0
LINE
8
INTRADOSSO
62
256
10
-1.757812
20
1.757812
30
0.922735
11
-1.875
21
1.640625
31
0.90773
0
LINE
8
ESTRADOSSO
62
256
10
-1.757812
20
1.757812
30
1.591361
11
-1.875
21
1.640625
31
1.582708
0
LINE
8
MAXSPINTA
62
21
48
0.8748411216956985
10
-1.40625
20
1.875
30
1.683678596492891
11
-1.640625
21
1.640625
31
1.6251196939244281
0
LINE
8
MINSPINTA
62
21
48
0.4678859984596567
10
-1.40625
20
1.875
30
1.240196
11
-1.640625
21
1.640625
31
1.3002019686749247
0
LINE
8
MEDIONETWORK
62
21
48
0.6781272666770249
10
-1.40625
20
1.875
30
1.5659293078133083
11
-1.640625
21
1.640625
31
1.4113610658596063
0
LINE
8
ASSE
62
253
10
-1.40625
20
1.875
30
1.517187
11
-1.640625
21
1.640625
31
1.5541315
0
LINE
8
INTRADOSSO
62
256
10
-1.40625
20
1.875
30
1.240196
11
-1.640625
21
1.640625
31
1.283725
0
LINE
8
ESTRADOSSO
62
256
10
-1.40625
20
1.875
30
1.794178
11
-1.640625
21
1.640625
31
1.824538
0
LINE
8
MAXSPINTA
62
21
48
0.8748411183219121
10
-1.640625
20
1.640625
30
1.6251196939244281
11
-1.875
21
1.40625
31
1.6836785890318977
0
LINE
8
MINSPINTA
62
21
48
0.46788599845965795
10
-1.640625
20
1.640625
30
1.3002019686749247
11
-1.875
21
1.40625
31
1.240196
0
LINE
8
MEDIONETWORK
62
21
48
0.6781251995494416
10
-1.640625
20
1.640625
30
1.4113610658596063
11
-1.875
21
1.40625
31
1.56592666997815
0
LINE
8
ASSE
62
253
10
-1.640625
20
1.640625
30
1.5541315
11
-1.875
21
1.40625
31
1.517187
0
LINE
8
INTRADOSSO
62
256
10
-1.640625
20
1.640625
30
1.283725
11
-1.875
21
1.40625
31
1.240196
0
LINE
8
ESTRADOSSO
62
256
10
-1.640625
20
1.640625
30
1.824538
11
-1.875
21
1.40625
31
1.794178
0
LINE
8
MAXSPINTA
62
61
48
12.640872321905098
10
1.640625
20
1.875
30
1.3940184892656504
11
1.757812
21
1.757812
31
1.4397009094660635
0
LINE
8
MINSPINTA
62
41
48
7.161936776916635
10
1.640625
20
1.875
30
0.9693865157391104
11
1.757812
21
1.757812
31
1.0452125453573267
0
LINE
8
MEDIONETWORK
62
41
48
10.43362402142905
10
1.640625
20
1.875
30
1.2715355772208174
11
1.757812
21
1.757812
31
1.1615615807687263
0
LINE
8
ASSE
62
253
10
1.640625
20
1.875
30
1.245219
11
1.757812
21
1.757812
31
1.257048
0
LINE
8
INTRADOSSO
62
256
10
1.640625
20
1.875
30
0.90773
11
1.757812
21
1.757812
31
0.922735
0
LINE
8
ESTRADOSSO
62
256
10
1.640625
20
1.875
30
1.582708
11
1.757812
21
1.757812
31
1.591361
0
LINE
8
MAXSPINTA
62
61
48
12.640873216272821
10
1.757812
20
1.757812
30
1.4397009094660635
11
1.875
21
1.640625
31
1.3940184434950105
0
LINE
8
MINSPINTA
62
41
48
7.1619370441928165
10
1.757812
20
1.757812
30
1.0452125453573267
11
1.875
21
1.640625
31
0.9693864993916236
0
LINE
8
MEDIONETWORK
62
41
48
10.433615255780216
10
1.757812
20
1.757812
30
1.1615615807687263
11
1.875
21
1.640625
31
1.2715352750053586
0
LINE
8
ASSE
62
253
10
1.757812
20
1.757812
30
1.257048
11
1.875
21
1.640625
31
1.245219
0
LINE
8
INTRADOSSO
62
256
10
1.757812
20
1.757812
30
0.922735
11
1.875
21
1.640625
31
0.90773
0
LINE
8
ESTRADOSSO
62
256
10
1.757812
20
1.757812
30
1.591361
11
1.875
21
1.640625
31
1.582708
0
LINE
8
MAXSPINTA
62
21
48
0.874853355243207
10
1.40625
20
1.875
30
1.684139605076375
11
1.640625
21
1.640625
31
1.6255536545844773
0
LINE
8
MINSPINTA
62
21
48
0.46747196943878844
10
1.40625
20
1.875
30
1.240196
11
1.640625
21
1.640625
31
1.2985055030016501
0
LINE
8
MEDIONETWORK
62
21
48
0.6769168212687933
10
1.40625
20
1.875
30
1.5637356926759456
11
1.640625
21
1.640625
31
1.4107184772326233
0
LINE
8
ASSE
62
253
10
1.40625
20
1.875
30
1.517187
11
1.640625
21
1.640625
31
1.5541315
0
LINE
8
INTRADOSSO
62
256
10
1.40625
20
1.875
30
1.240196
11
1.640625
21
1.640625
31
1.283725
0
LINE
8
ESTRADOSSO
62
256
10
1.40625
20
1.875
30
1.794178
11
1.640625
21
1.640625
31
1.824538
0
LINE
8
MAXSPINTA
62
21
48
0.8748533444655509
10
1.640625
20
1.640625
30
1.6255536545844773
11
1.875
21
1.40625
31
1.68413958125269
0
LINE
8
MINSPINTA
62
21
48
0.4674719694387918
10
1.640625
20
1.640625
30
1.2985055030016501
11
1.875
21
1.40625
31
1.240196
0
LINE
8
MEDIONETWORK
62
21
48
0.6769161691776663
10
1.640625
20
1.640625
30
1.4107184772326233
11
1.875
21
1.40625
31
1.5637348536204745
0
LINE
8
ASSE
62
253
10
1.640625
20
1.640625
30
1.5541315
11
1.875
21
1.40625
31
1.517187
0
LINE
8
INTRADOSSO
62
256
10
1.640625
20
1.640625
30
1.283725
11
1.875
21
1.40625
31
1.240196
0
LINE
8
ESTRADOSSO
62
256
10
1.640625
20
1.640625
30
1.824538
11
1.875
21
1.40625
31
1.794178
0
LINE
8
MAXSPINTA
62
101
48
28.482773891528907
10
-1.875
20
-1.875
30
1.29653
11
-1.757812
21
-1.757812
31
1.4397012075781357
0
LINE
8
MINSPINTA
62
61
48
17.22908035771222
10
-1.875
20
-1.875
30
0.8608693662282055
11
-1.757812
21
-1.757812
31
1.045212519165754
0
LINE
8
MEDIONETWORK
62
121
48
38.97983113454538
10
-1.875
20
-1.875
30
0.7756086312323626
11
-1.757812
21
-1.757812
31
1.1616737605091076
0
LINE
8
ASSE
62
253
10
-1.875
20
-1.875
30
0.648265
11
-1.757812
21
-1.757812
31
1.257048
0
LINE
8
INTRADOSSO
62
256
10
-1.875
20
-1.875
30
0.0
11
-1.757812
21
-1.757812
31
0.922735
0
LINE
8
ESTRADOSSO
62
256
10
-1.875
20
-1.875
30
1.29653
11
-1.757812
21
-1.757812
31
1.591361
0
LINE
8
MAXSPINTA
62
101
48
32.38544702887864
10
-1.757812
20
-1.757812
30
1.4397012075781357
11
-1.640625
21
-1.640625
31
1.6255539317753436
0
LINE
8
MINSPINTA
62
81
48
21.038485380717056
10
-1.757812
20
-1.757812
30
1.045212519165754
11
-1.640625
21
-1.640625
31
1.2985054867404497
0
LINE
8
MEDIONETWORK
62
101
48
27.76275192720104
10
-1.757812
20
-1.757812
30
1.1616737605091076
11
-1.640625
21
-1.640625
31
1.4108176156065861
0
LINE
8
ASSE
62
253
10
-1.757812
20
-1.757812
30
1.257048
11
-1.640625
21
-1.640625
31
1.5541315
0
LINE
8
INTRADOSSO
62
256
10
-1.757812
20
-1.757812
30
0.922735
11
-1.640625
21
-1.640625
31
1.283725
0
LINE
8
ESTRADOSSO
62
256
10
-1.757812
20
-1.757812
30
1.591361
11
-1.640625
21
-1.640625
31
1.824538
0
LINE
8
MAXSPINTA
62
101
48
30.745802335980095
10
-1.640625
20
-1.640625
30
1.6255539317753436
11
-1.40625
21
-1.40625
31
1.9627288173358604
0
LINE
8
MINSPINTA
62
81
48
19.574058683993055
10
-1.640625
20
-1.640625
30
1.2985054867404497
11
-1.40625
21
-1.40625
31
1.753902
0
LINE
8
MEDIONETWORK
62
81
48
25.7117826988489
10
-1.640625
20
-1.640625
30
1.4108176156065861
11
-1.40625
21
-1.40625
31
1.8550359685829967
0
LINE
8
ASSE
62
253
10
-1.640625
20
-1.640625
30
1.5541315
11
-1.40625
21
-1.40625
31
1.967497
0
LINE
8
INTRADOSSO
62
256
10
-1.640625
20
-1.640625
30
1.283725
11
-1.40625
21
-1.40625
31
1.753902
0
LINE
8
ESTRADOSSO
62
256
10
-1.640625
20
-1.640625
30
1.824538
11
-1.40625
21
-1.40625
31
2.181092
0
LINE
8
MAXSPINTA
62
81
48
25.856978041638424
10
-1.40625
20
-1.40625
30
1.9627288173358604
11
-0.9375
21
-0.9375
31
2.402448020556411
0
LINE
8
MINSPINTA
62
61
48
16.354782643958547
10
-1.40625
20
-1.40625
30
1.753902
11
-0.9375
21
-0.9375
31
2.422458750849595
0
LINE
8
MEDIONETWORK
62
81
48
19.841953450977268
10
-1.40625
20
-1.40625
30
1.8550359685829967
11
-0.9375
21
-0.9375
31
2.396093949299942
0
LINE
8
ASSE
62
253
10
-1.40625
20
-1.40625
30
1.967497
11
-0.9375
21
-0.9375
31
2.466761
0
LINE
8
INTRADOSSO
62
256
10
-1.40625
20
-1.40625
30
1.753902
11
-0.9375
21
-0.9375
31
2.296397
0
LINE
8
ESTRADOSSO
62
256
10
-1.40625
20
-1.40625
30
2.181092
11
-0.9375
21
-0.9375
31
2.637125
0
LINE
8
MAXSPINTA
62
81
48
22.580535832003644
10
-0.9375
20
-0.9375
30
2.402448020556411
11
-0.46875
21
-0.46875
31
2.6106234623664815
0
LINE
8
MINSPINTA
62
61
48
12.972223969042274
10
-0.9375
20
-0.9375
30
2.422458750849595
11
-0.46875
21
-0.46875
31
2.766615952513151
0
LINE
8
MEDIONETWORK
62
61
48
16.569864203496646
10
-0.9375
20
-0.9375
30
2.396093949299942
11
-0.46875
21
-0.46875
31
2.6632480996088796
0
LINE
8
ASSE
62
253
10
-0.9375
20
-0.9375
30
2.466761
11
-0.46875
21
-0.46875
31
2.721847
0
LINE
8
INTRADOSSO
62
256
10
-0.9375
20
-0.9375
30
2.296397
11
-0.46875
21
-0.46875
31
2.567449
0
LINE
8
ESTRADOSSO
62
256
10
-0.9375
20
-0.9375
30
2.637125
11
-0.46875
21
-0.46875
31
2.876245
0
LINE
8
MAXSPINTA
62
81
48
21.581610501651642
10
-0.46875
20
-0.46875
30
2.6106234623664815
11
0.0
21
0.0
31
2.65165
0
LINE
8
MINSPINTA
62
61
48
11.579827613471537
10
-0.46875
20
-0.46875
30
2.766615952513151
11
0.0
21
0.0
31
2.838893044811038
0
LINE
8
MEDIONETWORK
62
61
48
15.419428556792683
10
-0.46875
20
-0.46875
30
2.6632480996088796
11
0.0
21
0.0
31
2.718190053229727
0
LINE
8
ASSE
62
253
10
-0.46875
20
-0.46875
30
2.721847
11
0.0
21
0.0
31
2.80165
0
LINE
8
INTRADOSSO
62
256
10
-0.46875
20
-0.46875
30
2.567449
11
0.0
21
0.0
31
2.65165
0
LINE
8
ESTRADOSSO
62
256
10
-0.46875
20
-0.46875
30
2.876245
11
0.0
21
0.0
31
2.95165
0
LINE
8
MAXSPINTA
62
81
48
21.581610601117955
10
0.0
20
0.0
30
2.65165
11
0.46875
21
0.46875
31
2.6106234128098187
0
LINE
8
MINSPINTA
62
61
48
11.579827613471265
10
0.0
20
0.0
30
2.838893044811038
11
0.46875
21
0.46875
31
2.766615952513152
0
LINE
8
MEDIONETWORK
62
61
48
15.4194648874366
10
0.0
20
0.0
30
2.718190053229727
11
0.46875
21
0.46875
31
2.663229127666405
0
LINE
8
ASSE
62
253
10
0.0
20
0.0
30
2.80165
11
0.46875
21
0.46875
31
2.721847
0
LINE
8
INTRADOSSO
62
256
10
0.0
20
0.0
30
2.65165
11
0.46875
21
0.46875
31
2.567449
0
LINE
8
ESTRADOSSO
62
256
10
0.0
20
0.0
30
2.95165
11
0.46875
21
0.46875
31
2.876245
0
LINE
8
MAXSPINTA
62
81
48
22.580536498516857
10
0.46875
20
0.46875
30
2.6106234128098187
11
0.9375
21
0.9375
31
2.4024479025450116
0
LINE
8
MINSPINTA
62
61
48
12.9722239690422
10
0.46875
20
0.46875
30
2.766615952513152
11
0.9375
21
0.9375
31
2.422458750849589
0
LINE
8
MEDIONETWORK
62
61
48
16.570065479180816
10
0.46875
20
0.46875
30
2.663229127666405
11
0.9375
21
0.9375
31
2.3960517518139444
0
LINE
8
ASSE
62
253
10
0.46875
20
0.46875
30
2.721847
11
0.9375
21
0.9375
31
2.466761
0
LINE
8
INTRADOSSO
62
256
10
0.46875
20
0.46875
30
2.567449
11
0.9375
21
0.9375
31
2.296397
0
LINE
8
ESTRADOSSO
62
256
10
0.46875
20
0.46875
30
2.876245
11
0.9375
21
0.9375
31
2.637125
0
LINE
8
MAXSPINTA
62
81
48
25.856980056754008
10
0.9375
20
0.9375
30
2.4024479025450116
11
1.40625
21
1.40625
31
1.962728587169779
0
LINE
8
MINSPINTA
62
61
48
16.35478264395839
10
0.9375
20
0.9375
30
2.422458750849589
11
1.40625
21
1.40625
31
1.753902
0
LINE
8
MEDIONETWORK
62
81
48
19.842424913332557
10
0.9375
20
0.9375
30
2.3960517518139444
11
1.40625
21
1.40625
31
1.8549616168082876
0
LINE
8
ASSE
62
253
10
0.9375
20
0.9375
30
2.466761
11
1.40625
21
1.40625
31
1.967497
0
LINE
8
INTRADOSSO
62
256
10
0.9375
20
0.9375
30
2.296397
11
1.40625
21
1.40625
31
1.753902
0
LINE
8
ESTRADOSSO
62
256
10
0.9375
20
0.9375
30
2.637125
11
1.40625
21
1.40625
31
2.181092
0
LINE
8
MAXSPINTA
62
101
48
30.745804516664638
10
1.40625
20
1.40625
30
1.962728587169779
11
1.640625
21
1.640625
31
1.6255536545844773
0
LINE
8
MINSPINTA
62
81
48
19.574058227091562
10
1.40625
20
1.40625
30
1.753902
11
1.640625
21
1.640625
31
1.2985055030016501
0
LINE
8
MEDIONETWORK
62
81
48
25.71270429007114
10
1.40625
20
1.40625
30
1.8549616168082876
11
1.640625
21
1.640625
31
1.4107184772326233
0
LINE
8
ASSE
62
253
10
1.40625
20
1.40625
30
1.967497
11
1.640625
21
1.640625
31
1.5541315
0
LINE
8
INTRADOSSO
62
256
10
1.40625
20
1.40625
30
1.753902
11
1.640625
21
1.640625
31
1.283725
0
LINE
8
ESTRADOSSO
62
256
10
1.40625
20
1.40625
30
2.181092
11
1.640625
21
1.640625
31
1.824538
0
LINE
8
MAXSPINTA
62
101
48
32.38544905967361
10
1.640625
20
1.640625
30
1.6255536545844773
11
1.757812
21
1.757812
31
1.4397009094660635
0
LINE
8
MINSPINTA
62
81
48
21.038484803154475
10
1.640625
20
1.640625
30
1.2985055030016501
11
1.757812
21
1.757812
31
1.0452125453573267
0
LINE
8
MEDIONETWORK
62
101
48
27.76375939388102
10
1.640625
20
1.640625
30
1.4107184772326233
11
1.757812
21
1.757812
31
1.1615615807687263
0
LINE
8
ASSE
62
253
10
1.640625
20
1.640625
30
1.5541315
11
1.757812
21
1.757812
31
1.257048
0
LINE
8
INTRADOSSO
62
256
10
1.640625
20
1.640625
30
1.283725
11
1.757812
21
1.757812
31
0.922735
0
LINE
8
ESTRADOSSO
62
256
10
1.640625
20
1.640625
30
1.824538
11
1.757812
21
1.757812
31
1.591361
0
LINE
8
MAXSPINTA
62
101
48
28.48274854599561
10
1.757812
20
1.757812
30
1.4397009094660635
11
1.875
21
1.875
31
1.29653
0
LINE
8
MINSPINTA
62
61
48
17.22907880794955
10
1.757812
20
1.757812
30
1.0452125453573267
11
1.875
21
1.875
31
0.8608694224036044
0
LINE
8
MEDIONETWORK
62
121
48
38.98249303678327
10
1.757812
20
1.757812
30
1.1615615807687263
11
1.875
21
1.875
31
0.7754652292627195
0
LINE
8
ASSE
62
253
10
1.757812
20
1.757812
30
1.257048
11
1.875
21
1.875
31
0.648265
0
LINE
8
INTRADOSSO
62
256
10
1.757812
20
1.757812
30
0.922735
11
1.875
21
1.875
31
0.0
0
LINE
8
ESTRADOSSO
62
256
10
1.757812
20
1.757812
30
1.591361
11
1.875
21
1.875
31
1.29653
0
LINE
8
MAXSPINTA
62
101
48
28.460401511263026
10
1.875
20
-1.875
30
1.29653
11
1.757812
21
-1.757812
31
1.4394379269122382
0
LINE
8
MINSPINTA
62
61
48
17.13956359680252
10
1.875
20
-1.875
30
0.8652174557759955
11
1.757812
21
-1.757812
31
1.047825024188996
0
LINE
8
MEDIONETWORK
62
121
48
38.985992811204994
10
1.875
20
-1.875
30
0.7764003436185493
11
1.757812
21
-1.757812
31
1.1625377444037943
0
LINE
8
ASSE
62
253
10
1.875
20
-1.875
30
0.648265
11
1.757812
21
-1.757812
31
1.257048
0
LINE
8
INTRADOSSO
62
256
10
1.875
20
-1.875
30
0.0
11
1.757812
21
-1.757812
31
0.922735
0
LINE
8
ESTRADOSSO
62
256
10
1.875
20
-1.875
30
1.29653
11
1.757812
21
-1.757812
31
1.591361
0
LINE
8
MAXSPINTA
62
101
48
32.36886184508132
10
1.757812
20
-1.757812
30
1.4394379269122382
11
1.640625
21
-1.640625
31
1.6251197560823685
0
LINE
8
MINSPINTA
62
81
48
20.985236485756914
10
1.757812
20
-1.757812
30
1.047825024188996
11
1.640625
21
-1.640625
31
1.3002019544429853
0
LINE
8
MEDIONETWORK
62
101
48
27.737858794746632
10
1.757812
20
-1.757812
30
1.1625377444037943
11
1.640625
21
-1.640625
31
1.4113592984692964
0
LINE
8
ASSE
62
253
10
1.757812
20
-1.757812
30
1.257048
11
1.640625
21
-1.640625
31
1.5541315
0
LINE
8
INTRADOSSO
62
256
10
1.757812
20
-1.757812
30
0.922735
11
1.640625
21
-1.640625
31
1.283725
0
LINE
8
ESTRADOSSO
62
256
10
1.757812
20
-1.757812
30
1.591361
11
1.640625
21
-1.640625
31
1.824538
0
LINE
8
MAXSPINTA
62
101
48
30.730056731234885
10
1.640625
20
-1.640625
30
1.6251197560823685
11
1.40625
21
-1.40625
31
1.9619550156746457
0
LINE
8
MINSPINTA
62
81
48
19.52642275363594
10
1.640625
20
-1.640625
30
1.3002019544429853
11
1.40625
21
-1.40625
31
1.753902
0
LINE
8
MEDIONETWORK
62
81
48
25.683170686115837
10
1.640625
20
-1.640625
30
1.4113592984692964
11
1.40625
21
-1.40625
31
1.8548078723656358
0
LINE
8
ASSE
62
253
10
1.640625
20
-1.640625
30
1.5541315
11
1.40625
21
-1.40625
31
1.967497
0
LINE
8
INTRADOSSO
62
256
10
1.640625
20
-1.640625
30
1.283725
11
1.40625
21
-1.40625
31
1.753902
0
LINE
8
ESTRADOSSO
62
256
10
1.640625
20
-1.640625
30
1.824538
11
1.40625
21
-1.40625
31
2.181092
0
LINE
8
MAXSPINTA
62
81
48
25.858754468629357
10
1.40625
20
-1.40625
30
1.9619550156746457
11
0.9375
21
-0.9375
31
2.4017730812435976
0
LINE
8
MINSPINTA
62
61
48
16.34779105401957
10
1.40625
20
-1.40625
30
1.753902
11
0.9375
21
-0.9375
31
2.421891827439519
0
LINE
8
MEDIONETWORK
62
81
48
19.829924639086965
10
1.40625
20
-1.40625
30
1.8548078723656358
11
0.9375
21
-0.9375
31
2.3950450854287553
0
LINE
8
ASSE
62
253
10
1.40625
20
-1.40625
30
1.967497
11
0.9375
21
-0.9375
31
2.466761
0
LINE
8
INTRADOSSO
62
256
10
1.40625
20
-1.40625
30
1.753902
11
0.9375
21
-0.9375
31
2.296397
0
LINE
8
ESTRADOSSO
62
256
10
1.40625
20
-1.40625
30
2.181092
11
0.9375
21
-0.9375
31
2.637125
0
LINE
8
MAXSPINTA
62
81
48
22.584375008932216
10
0.9375
20
-0.9375
30
2.4017730812435976
11
0.46875
21
-0.46875
31
2.610342489239151
0
LINE
8
MINSPINTA
62
61
48
12.974509767376038
10
0.9375
20
-0.9375
30
2.421891827439519
11
0.46875
21
-0.46875
31
2.7663345770262424
0
LINE
8
MEDIONETWORK
62
61
48
16.574560177281942
10
0.9375
20
-0.9375
30
2.3950450854287553
11
0.46875
21
-0.46875
31
2.6627406605542743
0
LINE
8
ASSE
62
253
10
0.9375
20
-0.9375
30
2.466761
11
0.46875
21
-0.46875
31
2.721847
0
LINE
8
INTRADOSSO
62
256
10
0.9375
20
-0.9375
30
2.296397
11
0.46875
21
-0.46875
31
2.567449
0
LINE
8
ESTRADOSSO
62
256
10
0.9375
20
-0.9375
30
2.637125
11
0.46875
21
-0.46875
31
2.876245
0
LINE
8
MAXSPINTA
62
81
48
21.582176375493837
10
0.46875
20
-0.46875
30
2.610342489239151
11
0.0
21
0.0
31
2.65165
0
LINE
8
MINSPINTA
62
61
48
11.580358227641451
10
0.46875
20
-0.46875
30
2.7663345770262424
11
0.0
21
0.0
31
2.838893044811038
0
LINE
8
MEDIONETWORK
62
61
48
15.420404574993595
10
0.46875
20
-0.46875
30
2.6627406605542743
11
0.0
21
0.0
31
2.718190053229727
0
LINE
8
ASSE
62
253
10
0.46875
20
-0.46875
30
2.721847
11
0.0
21
0.0
31
2.80165
0
LINE
8
INTRADOSSO
62
256
10
0.46875
20
-0.46875
30
2.567449
11
0.0
21
0.0
31
2.65165
0
LINE
8
ESTRADOSSO
62
256
10
0.46875
20
-0.46875
30
2.876245
11
0.0
21
0.0
31
2.95165
0
LINE
8
MAXSPINTA
62
81
48
21.582176397921614
10
0.0
20
0.0
30
2.65165
11
-0.46875
21
0.46875
31
2.610342478140246
0
LINE
8
MINSPINTA
62
61
48
11.580358227640824
10
0.0
20
0.0
30
2.838893044811038
11
-0.46875
21
0.46875
31
2.766334577026243
0
LINE
8
MEDIONETWORK
62
61
48
15.42040248190021
10
0.0
20
0.0
30
2.718190053229727
11
-0.46875
21
0.46875
31
2.6627417438339696
0
LINE
8
ASSE
62
253
10
0.0
20
0.0
30
2.80165
11
-0.46875
21
0.46875
31
2.721847
0
LINE
8
INTRADOSSO
62
256
10
0.0
20
0.0
30
2.65165
11
-0.46875
21
0.46875
31
2.567449
0
LINE
8
ESTRADOSSO
62
256
10
0.0
20
0.0
30
2.95165
11
-0.46875
21
0.46875
31
2.876245
0
LINE
8
MAXSPINTA
62
81
48
22.584375158623306
10
-0.46875
20
0.46875
30
2.610342478140246
11
-0.9375
21
0.9375
31
2.401773054796931
0
LINE
8
MINSPINTA
62
61
48
12.974509767375679
10
-0.46875
20
0.46875
30
2.766334577026243
11
-0.9375
21
0.9375
31
2.4218918274395222
0
LINE
8
MEDIONETWORK
62
61
48
16.574553479890064
10
-0.46875
20
0.46875
30
2.6627417438339696
11
-0.9375
21
0.9375
31
2.3950469402171577
0
LINE
8
ASSE
62
253
10
-0.46875
20
0.46875
30
2.721847
11
-0.9375
21
0.9375
31
2.466761
0
LINE
8
INTRADOSSO
62
256
10
-0.46875
20
0.46875
30
2.567449
11
-0.9375
21
0.9375
31
2.296397
0
LINE
8
ESTRADOSSO
62
256
10
-0.46875
20
0.46875
30
2.876245
11
-0.9375
21
0.9375
31
2.637125
0
LINE
8
MAXSPINTA
62
81
48
25.858754920777056
10
-0.9375
20
0.9375
30
2.401773054796931
11
-1.40625
21
1.40625
31
1.9619549640668428
0
LINE
8
MINSPINTA
62
61
48
16.347791054019435
10
-0.9375
20
0.9375
30
2.4218918274395222
11
-1.40625
21
1.40625
31
1.753902
0
LINE
8
MEDIONETWORK
62
81
48
19.829922054311513
10
-0.9375
20
0.9375
30
2.3950469402171577
11
-1.40625
21
1.40625
31
1.8548099036027148
0
LINE
8
ASSE
62
253
10
-0.9375
20
0.9375
30
2.466761
11
-1.40625
21
1.40625
31
1.967497
0
LINE
8
INTRADOSSO
62
256
10
-0.9375
20
0.9375
30
2.296397
11
-1.40625
21
1.40625
31
1.753902
0
LINE
8
ESTRADOSSO
62
256
10
-0.9375
20
0.9375
30
2.637125
11
-1.40625
21
1.40625
31
2.181092
0
LINE
8
MAXSPINTA
62
101
48
30.730057220234936
10
-1.40625
20
1.40625
30
1.9619549640668428
11
-1.640625
21
1.640625
31
1.6251196939244281
0
LINE
8
MINSPINTA
62
81
48
19.526422354269663
10
-1.40625
20
1.40625
30
1.753902
11
-1.640625
21
1.640625
31
1.3002019686749247
0
LINE
8
MEDIONETWORK
62
81
48
25.683180490023062
10
-1.40625
20
1.40625
30
1.8548099036027148
11
-1.640625
21
1.640625
31
1.4113610658596063
0
LINE
8
ASSE
62
253
10
-1.40625
20
1.40625
30
1.967497
11
-1.640625
21
1.640625
31
1.5541315
0
LINE
8
INTRADOSSO
62
256
10
-1.40625
20
1.40625
30
1.753902
11
-1.640625
21
1.640625
31
1.283725
0
LINE
8
ESTRADOSSO
62
256
10
-1.40625
20
1.40625
30
2.181092
11
-1.640625
21
1.640625
31
1.824538
0
LINE
8
MAXSPINTA
62
101
48
32.368862299641286
10
-1.640625
20
1.640625
30
1.6251196939244281
11
-1.757812
21
1.757812
31
1.4394378600695208
0
LINE
8
MINSPINTA
62
81
48
20.985235980820157
10
-1.640625
20
1.640625
30
1.3002019686749247
11
-1.757812
21
1.757812
31
1.0478250471120671
0
LINE
8
MEDIONETWORK
62
101
48
27.737870452134384
10
-1.640625
20
1.640625
30
1.4113610658596063
11
-1.757812
21
1.757812
31
1.1625393608313892
0
LINE
8
ASSE
62
253
10
-1.640625
20
1.640625
30
1.5541315
11
-1.757812
21
1.757812
31
1.257048
0
LINE
8
INTRADOSSO
62
256
10
-1.640625
20
1.640625
30
1.283725
11
-1.757812
21
1.757812
31
0.922735
0
LINE
8
ESTRADOSSO
62
256
10
-1.640625
20
1.640625
30
1.824538
11
-1.757812
21
1.757812
31
1.591361
0
LINE
8
MAXSPINTA
62
101
48
28.460395834273914
10
-1.757812
20
1.757812
30
1.4394378600695208
11
-1.875
21
1.875
31
1.29653
0
LINE
8
MINSPINTA
62
61
48
17.13956233722389
10
-1.757812
20
1.757812
30
1.0478250471120671
11
-1.875
21
1.875
31
0.865217503172395
0
LINE
8
MEDIONETWORK
62
121
48
38.98600872042757
10
-1.757812
20
1.757812
30
1.1625393608313892
11
-1.875
21
1.875
31
0.7764017734464898
0
LINE
8
ASSE
62
253
10
-1.757812
20
1.757812
30
1.257048
11
-1.875
21
1.875
31
0.648265
0
LINE
8
INTRADOSSO
62
256
10
-1.757812
20
1.757812
30
0.922735
11
-1.875
21
1.875
31
0.0
0
LINE
8
ESTRADOSSO
62
256
10
-1.757812
20
1.757812
30
1.591361
11
-1.875
21
1.875
31
1.29653
0
LINE
8
MAXSPINTA
62
81
48
23.33841870689832
10
-1.640625
20
-1.875
30
1.3940190465607856
11
-1.640625
21
-2.299264
31
0.32614303948460976
0
LINE
8
MINSPINTA
62
61
48
12.920344879114554
10
-1.640625
20
-1.875
30
0.969386498014241
11
-1.640625
21
-2.299264
31
-0.142764356330553
0
LINE
8
MEDIONETWORK
62
41
48
6.782859418584478
10
-1.640625
20
-1.875
30
1.2716312690103573
11
-1.640625
21
-2.299264
31
1.469466
0
LINE
8
ASSE
62
253
10
-1.640625
20
-1.875
30
1.245219
11
-1.640625
21
-2.299264
31
-1.3114020000000002
0
LINE
8
INTRADOSSO
62
256
10
-1.640625
20
-1.875
30
0.90773
11
-1.640625
21
-2.299264
31
-4.09227
0
LINE
8
ESTRADOSSO
62
256
10
-1.640625
20
-1.875
30
1.582708
11
-1.640625
21
-2.299264
31
1.469466
0
LINE
8
MAXSPINTA
62
41
48
9.225557886691496
10
-1.40625
20
-1.875
30
1.6841399349679131
11
-1.40625
21
-2.299264
31
1.6914799999999997
0
LINE
8
MINSPINTA
62
41
48
6.9137279169530395
10
-1.40625
20
-1.875
30
1.2401960282502689
11
-1.40625
21
-2.299264
31
0.8229907338963147
0
LINE
8
MEDIONETWORK
62
41
48
6.686512347540225
10
-1.40625
20
-1.875
30
1.5638174769224586
11
-1.40625
21
-2.299264
31
1.640296663787291
0
LINE
8
ASSE
62
253
10
-1.40625
20
-1.875
30
1.517187
11
-1.40625
21
-2.299264
31
-1.0341619999999998
0
LINE
8
INTRADOSSO
62
256
10
-1.40625
20
-1.875
30
1.240196
11
-1.40625
21
-2.299264
31
-3.759804
0
LINE
8
ESTRADOSSO
62
256
10
-1.40625
20
-1.875
30
1.794178
11
-1.40625
21
-2.299264
31
1.69148
0
LINE
8
MAXSPINTA
62
41
48
8.689145915794434
10
-0.9375
20
-1.875
30
2.042621397059948
11
-0.9375
21
-2.299264
31
1.986838
0
LINE
8
MINSPINTA
62
41
48
6.55739193054524
10
-0.9375
20
-1.875
30
1.623798
11
-0.9375
21
-2.299264
31
1.1935186233923787
0
LINE
8
MEDIONETWORK
62
41
48
7.123284959607993
10
-0.9375
20
-1.875
30
1.8601318289180837
11
-0.9375
21
-2.299264
31
1.611524222213575
0
LINE
8
ASSE
62
253
10
-0.9375
20
-1.875
30
1.850854
11
-0.9375
21
-2.299264
31
-0.694682
0
LINE
8
INTRADOSSO
62
256
10
-0.9375
20
-1.875
30
1.623798
11
-0.9375
21
-2.299264
31
-3.376202
0
LINE
8
ESTRADOSSO
62
256
10
-0.9375
20
-1.875
30
2.07791
11
-0.9375
21
-2.299264
31
1.986838
0
LINE
8
MAXSPINTA
62
41
48
8.828136001344385
10
-0.46875
20
-1.875
30
2.230894
11
-0.46875
21
-2.299264
31
2.1359459439915036
0
LINE
8
MINSPINTA
62
41
48
7.564227422747763
10
-0.46875
20
-1.875
30
1.815461
11
-0.46875
21
-2.299264
31
1.2624027966984004
0
LINE
8
MEDIONETWORK
62
41
48
8.61744944796083
10
-0.46875
20
-1.875
30
1.9971958211578305
11
-0.46875
21
-2.299264
31
1.580202860346281
0
LINE
8
ASSE
62
253
10
-0.46875
20
-1.875
30
2.0231775
11
-0.46875
21
-2.299264
31
-0.519701
0
LINE
8
INTRADOSSO
62
256
10
-0.46875
20
-1.875
30
1.815461
11
-0.46875
21
-2.299264
31
-3.184539
0
LINE
8
ESTRADOSSO
62
256
10
-0.46875
20
-1.875
30
2.230894
11
-0.46875
21
-2.299264
31
2.145137
0
LINE
8
MAXSPINTA
62
41
48
9.332509234149901
10
0.0
20
-1.875
30
2.279609
11
0.0
21
-2.299264
31
2.1028837295548133
0
LINE
8
MINSPINTA
62
41
48
7.811175357854801
10
0.0
20
-1.875
30
1.875
11
0.0
21
-2.299264
31
1.2935188075507411
0
LINE
8
MEDIONETWORK
62
41
48
8.202327225951176
10
0.0
20
-1.875
30
2.0494102252914814
11
0.0
21
-2.299264
31
1.674426829871587
0
LINE
8
ASSE
62
253
10
0.0
20
-1.875
30
2.0773045000000003
11
0.0
21
-2.299264
31
-0.4647874999999999
0
LINE
8
INTRADOSSO
62
256
10
0.0
20
-1.875
30
1.875
11
0.0
21
-2.299264
31
-3.125
0
LINE
8
ESTRADOSSO
62
256
10
0.0
20
-1.875
30
2.279609
11
0.0
21
-2.299264
31
2.195425
0
LINE
8
MAXSPINTA
62
41
48
8.821232220692982
10
0.46875
20
-1.875
30
2.230894
11
0.46875
21
-2.299264
31
2.1375150852454583
0
LINE
8
MINSPINTA
62
41
48
7.554999269412156
10
0.46875
20
-1.875
30
1.815461
11
0.46875
21
-2.299264
31
1.2634749542454011
0
LINE
8
MEDIONETWORK
62
41
48
8.697506706784129
10
0.46875
20
-1.875
30
1.9938180810847308
11
0.46875
21
-2.299264
31
1.5689782124262341
0
LINE
8
ASSE
62
253
10
0.46875
20
-1.875
30
2.0231775
11
0.46875
21
-2.299264
31
-0.519701
0
LINE
8
INTRADOSSO
62
256
10
0.46875
20
-1.875
30
1.815461
11
0.46875
21
-2.299264
31
-3.184539
0
LINE
8
ESTRADOSSO
62
256
10
0.46875
20
-1.875
30
2.230894
11
0.46875
21
-2.299264
31
2.145137
0
LINE
8
MAXSPINTA
62
41
48
8.687936431648884
10
0.9375
20
-1.875
30
2.042162628558947
11
0.9375
21
-2.299264
31
1.986838
0
LINE
8
MINSPINTA
62
41
48
6.5381587120512235
10
0.9375
20
-1.875
30
1.623798
11
0.9375
21
-2.299264
31
1.1960112224276604
0
LINE
8
MEDIONETWORK
62
41
48
7.19118055119743
10
0.9375
20
-1.875
30
1.856995410398885
11
0.9375
21
-2.299264
31
1.5992411633850152
0
LINE
8
ASSE
62
253
10
0.9375
20
-1.875
30
1.850854
11
0.9375
21
-2.299264
31
-0.694682
0
LINE
8
INTRADOSSO
62
256
10
0.9375
20
-1.875
30
1.623798
11
0.9375
21
-2.299264
31
-3.376202
0
LINE
8
ESTRADOSSO
62
256
10
0.9375
20
-1.875
30
2.07791
11
0.9375
21
-2.299264
31
1.986838
0
LINE
8
MAXSPINTA
62
41
48
9.225736814785392
10
1.40625
20
-1.875
30
1.683678663737047
11
1.40625
21
-2.299264
31
1.6914799999999992
0
LINE
8
MINSPINTA
62
41
48
6.958420070498
10
1.40625
20
-1.875
30
1.240196029556017
11
1.40625
21
-2.299264
31
0.8175229538494706
0
LINE
8
MEDIONETWORK
62
41
48
6.732337710421075
10
1.40625
20
-1.875
30
1.5659240800903371
11
1.40625
21
-2.299264
31
1.6576039112084338
0
LINE
8
ASSE
62
253
10
1.40625
20
-1.875
30
1.517187
11
1.40625
21
-2.299264
31
-1.0341619999999998
0
LINE
8
INTRADOSSO
62
256
10
1.40625
20
-1.875
30
1.240196
11
1.40625
21
-2.299264
31
-3.759804
0
LINE
8
ESTRADOSSO
62
256
10
1.40625
20
-1.875
30
1.794178
11
1.40625
21
-2.299264
31
1.69148
0
LINE
8
MAXSPINTA
62
81
48
23.34784219376715
10
1.640625
20
-1.875
30
1.3936740573740323
11
1.640625
21
-2.299264
31
0.32529882382609016
0
LINE
8
MINSPINTA
62
61
48
12.922807813023546
10
1.640625
20
-1.875
30
0.9712742607192885
11
1.640625
21
-2.299264
31
-0.14111944570987128
0
LINE
8
MEDIONETWORK
62
41
48
6.775452945863832
10
1.640625
20
-1.875
30
1.272843849631226
11
1.640625
21
-2.299264
31
1.469466
0
LINE
8
ASSE
62
253
10
1.640625
20
-1.875
30
1.245219
11
1.640625
21
-2.299264
31
-1.3114020000000002
0
LINE
8
INTRADOSSO
62
256
10
1.640625
20
-1.875
30
0.90773
11
1.640625
21
-2.299264
31
-4.09227
0
LINE
8
ESTRADOSSO
62
256
10
1.640625
20
-1.875
30
1.582708
11
1.640625
21
-2.299264
31
1.469466
0
LINE
8
MAXSPINTA
62
81
48
23.347852151424537
10
-1.640625
20
1.875
30
1.393673945438243
11
-1.640625
21
2.299264
31
0.3252981843820715
0
LINE
8
MINSPINTA
62
61
48
12.922807290096749
10
-1.640625
20
1.875
30
0.9712742732425726
11
-1.640625
21
2.299264
31
-0.14111938162518187
0
LINE
8
MEDIONETWORK
62
41
48
6.775436357422295
10
-1.640625
20
1.875
30
1.2728465723768212
11
-1.640625
21
2.299264
31
1.469466
0
LINE
8
ASSE
62
253
10
-1.640625
20
1.875
30
1.245219
11
-1.640625
21
2.299264
31
-1.3114020000000002
0
LINE
8
INTRADOSSO
62
256
10
-1.640625
20
1.875
30
0.90773
11
-1.640625
21
2.299264
31
-4.09227
0
LINE
8
ESTRADOSSO
62
256
10
-1.640625
20
1.875
30
1.582708
11
-1.640625
21
2.299264
31
1.469466
0
LINE
8
MAXSPINTA
62
41
48
9.225736841663041
10
-1.40625
20
1.875
30
1.683678596492891
11
-1.40625
21
2.299264
31
1.69148
0
LINE
8
MINSPINTA
62
41
48
6.9584219095418565
10
-1.40625
20
1.875
30
1.240196
11
-1.40625
21
2.299264
31
0.8175227000339769
0
LINE
8
MEDIONETWORK
62
41
48
6.732360814979881
10
-1.40625
20
1.875
30
1.5659293078133083
11
-1.40625
21
2.299264
31
1.657616191296195
0
LINE
8
ASSE
62
253
10
-1.40625
20
1.875
30
1.517187
11
-1.40625
21
2.299264
31
-1.0341619999999998
0
LINE
8
INTRADOSSO
62
256
10
-1.40625
20
1.875
30
1.240196
11
-1.40625
21
2.299264
31
-3.759804
0
LINE
8
ESTRADOSSO
62
256
10
-1.40625
20
1.875
30
1.794178
11
-1.40625
21
2.299264
31
1.69148
0
LINE
8
MAXSPINTA
62
41
48
8.687936359861787
10
-0.9375
20
1.875
30
2.0421626012185077
11
-0.9375
21
2.299264
31
1.986838
0
LINE
8
MINSPINTA
62
41
48
6.53815828519239
10
-0.9375
20
1.875
30
1.623798
11
-0.9375
21
2.299264
31
1.1960112778276537
0
LINE
8
MEDIONETWORK
62
41
48
7.19106987275887
10
-0.9375
20
1.875
30
1.857003228287759
11
-0.9375
21
2.299264
31
1.5992636966819531
0
LINE
8
ASSE
62
253
10
-0.9375
20
1.875
30
1.850854
11
-0.9375
21
2.299264
31
-0.694682
0
LINE
8
INTRADOSSO
62
256
10
-0.9375
20
1.875
30
1.623798
11
-0.9375
21
2.299264
31
-3.376202
0
LINE
8
ESTRADOSSO
62
256
10
-0.9375
20
1.875
30
2.07791
11
-0.9375
21
2.299264
31
1.986838
0
LINE
8
MAXSPINTA
62
41
48
8.821231915092795
10
-0.46875
20
1.875
30
2.2308939999999997
11
-0.46875
21
2.299264
31
2.1375151552606226
0
LINE
8
MINSPINTA
62
41
48
7.554999269411907
10
-0.46875
20
1.875
30
1.815461
11
-0.46875
21
2.299264
31
1.2634749542453951
0
LINE
8
MEDIONETWORK
62
41
48
8.69728656463317
10
-0.46875
20
1.875
30
1.9938232055356262
11
-0.46875
21
2.299264
31
1.569004814217088
0
LINE
8
ASSE
62
253
10
-0.46875
20
1.875
30
2.0231775
11
-0.46875
21
2.299264
31
-0.519701
0
LINE
8
INTRADOSSO
62
256
10
-0.46875
20
1.875
30
1.815461
11
-0.46875
21
2.299264
31
-3.184539
0
LINE
8
ESTRADOSSO
62
256
10
-0.46875
20
1.875
30
2.230894
11
-0.46875
21
2.299264
31
2.145137
0
LINE
8
MAXSPINTA
62
41
48
9.332509035250121
10
0.0
20
1.875
30
2.279609
11
0.0
21
2.299264
31
2.102883755028939
0
LINE
8
MINSPINTA
62
41
48
7.811175357855735
10
0.0
20
1.875
30
1.875
11
0.0
21
2.299264
31
1.293518807550758
0
LINE
8
MEDIONETWORK
62
41
48
8.202114961173452
10
0.0
20
1.875
30
2.0494044911111713
11
0.0
21
2.299264
31
1.674443222380604
0
LINE
8
ASSE
62
253
10
0.0
20
1.875
30
2.0773045000000003
11
0.0
21
2.299264
31
-0.4647874999999999
0
LINE
8
INTRADOSSO
62
256
10
0.0
20
1.875
30
1.875
11
0.0
21
2.299264
31
-3.125
0
LINE
8
ESTRADOSSO
62
256
10
0.0
20
1.875
30
2.279609
11
0.0
21
2.299264
31
2.195425
0
LINE
8
MAXSPINTA
62
41
48
8.828134686335494
10
0.46875
20
1.875
30
2.230894
11
0.46875
21
2.299264
31
2.1359462405228347
0
LINE
8
MINSPINTA
62
41
48
7.564227422747436
10
0.46875
20
1.875
30
1.815461
11
0.46875
21
2.299264
31
1.2624027966984086
0
LINE
8
MEDIONETWORK
62
41
48
8.617293419305259
10
0.46875
20
1.875
30
1.9971703407926118
11
0.46875
21
2.299264
31
1.58019274597845
0
LINE
8
ASSE
62
253
10
0.46875
20
1.875
30
2.0231775
11
0.46875
21
2.299264
31
-0.519701
0
LINE
8
INTRADOSSO
62
256
10
0.46875
20
1.875
30
1.815461
11
0.46875
21
2.299264
31
-3.184539
0
LINE
8
ESTRADOSSO
62
256
10
0.46875
20
1.875
30
2.230894
11
0.46875
21
2.299264
31
2.145137
0
LINE
8
MAXSPINTA
62
41
48
8.689145569542053
10
0.9375
20
1.875
30
2.042621266254082
11
0.9375
21
2.299264
31
1.986838
0
LINE
8
MINSPINTA
62
41
48
6.557391521370818
10
0.9375
20
1.875
30
1.623798
11
0.9375
21
2.299264
31
1.193518676344878
0
LINE
8
MEDIONETWORK
62
41
48
7.1232673845522925
10
0.9375
20
1.875
30
1.8600795784705775
11
0.9375
21
2.299264
31
1.611474371538401
0
LINE
8
ASSE
62
253
10
0.9375
20
1.875
30
1.850854
11
0.9375
21
2.299264
31
-0.694682
0
LINE
8
INTRADOSSO
62
256
10
0.9375
20
1.875
30
1.623798
11
0.9375
21
2.299264
31
-3.376202
0
LINE
8
ESTRADOSSO
62
256
10
0.9375
20
1.875
30
2.07791
11
0.9375
21
2.299264
31
1.986838
0
LINE
8
MAXSPINTA
62
41
48
9.22555801076222
10
1.40625
20
1.875
30
1.684139605076375
11
1.40625
21
2.299264
31
1.6914799999999999
0
LINE
8
MINSPINTA
62
41
48
6.913729824359938
10
1.40625
20
1.875
30
1.240196
11
1.40625
21
2.299264
31
0.8229904715153316
0
LINE
8
MEDIONETWORK
62
41
48
6.686487915931032
10
1.40625
20
1.875
30
1.5637356926759456
11
1.40625
21
2.299264
31
1.6402059999322594
0
LINE
8
ASSE
62
253
10
1.40625
20
1.875
30
1.517187
11
1.40625
21
2.299264
31
-1.0341619999999998
0
LINE
8
INTRADOSSO
62
256
10
1.40625
20
1.875
30
1.240196
11
1.40625
21
2.299264
31
-3.759804
0
LINE
8
ESTRADOSSO
62
256
10
1.40625
20
1.875
30
1.794178
11
1.40625
21
2.299264
31
1.69148
0
LINE
8
MAXSPINTA
62
81
48
23.338470993616134
10
1.640625
20
1.875
30
1.3940184892656504
11
1.640625
21
2.299264
31
0.32613971211716325
0
LINE
8
MINSPINTA
62
61
48
12.920344207864556
10
1.640625
20
1.875
30
0.9693865157391104
11
1.640625
21
2.299264
31
-0.14276427241761389
0
LINE
8
MEDIONETWORK
62
41
48
6.783445499471003
10
1.640625
20
1.875
30
1.2715355772208174
11
1.640625
21
2.299264
31
1.469466
0
LINE
8
ASSE
62
253
10
1.640625
20
1.875
30
1.245219
11
1.640625
21
2.299264
31
-1.3114020000000002
0
LINE
8
INTRADOSSO
62
256
10
1.640625
20
1.875
30
0.90773
11
1.640625
21
2.299264
31
-4.09227
0
LINE
8
ESTRADOSSO
62
256
10
1.640625
20
1.875
30
1.582708
11
1.640625
21
2.299264
31
1.469466
0
LINE
8
MAXSPINTA
62
81
48
23.338418684790128
10
-1.875
20
-1.640625
30
1.3940190467031803
11
-2.299264
21
-1.640625
31
0.32614304079826323
0
LINE
8
MINSPINTA
62
61
48
12.920344716396166
10
-1.875
20
-1.640625
30
0.9693865002011322
11
-2.299264
21
-1.640625
31
-0.14276433809895742
0
LINE
8
MEDIONETWORK
62
41
48
6.78285624594308
10
-1.875
20
-1.640625
30
1.2716317871237637
11
-2.299264
21
-1.640625
31
1.469466
0
LINE
8
ASSE
62
253
10
-1.875
20
-1.640625
30
1.245219
11
-2.299264
21
-1.640625
31
-1.3114020000000002
0
LINE
8
INTRADOSSO
62
256
10
-1.875
20
-1.640625
30
0.90773
11
-2.299264
21
-1.640625
31
-4.09227
0
LINE
8
ESTRADOSSO
62
256
10
-1.875
20
-1.640625
30
1.582708
11
-2.299264
21
-1.640625
31
1.469466
0
LINE
8
MAXSPINTA
62
41
48
9.225557886672435
10
-1.875
20
-1.40625
30
1.684139935018441
11
-2.299264
21
-1.40625
31
1.6914799999999994
0
LINE
8
MINSPINTA
62
41
48
6.9137279257887565
10
-1.875
20
-1.40625
30
1.2401960292853065
11
-2.299264
21
-1.40625
31
0.822990733846779
0
LINE
8
MEDIONETWORK
62
41
48
6.686515468623765
10
-1.875
20
-1.40625
30
1.5638189154008655
11
-2.299264
21
-1.40625
31
1.6402992365439726
0
LINE
8
ASSE
62
253
10
-1.875
20
-1.40625
30
1.517187
11
-2.299264
21
-1.40625
31
-1.0341619999999998
0
LINE
8
INTRADOSSO
62
256
10
-1.875
20
-1.40625
30
1.240196
11
-2.299264
21
-1.40625
31
-3.759804
0
LINE
8
ESTRADOSSO
62
256
10
-1.875
20
-1.40625
30
1.794178
11
-2.299264
21
-1.40625
31
1.69148
0
LINE
8
MAXSPINTA
62
41
48
8.689145915628043
10
-1.875
20
-0.9375
30
2.0426213969971165
11
-2.299264
21
-0.9375
31
1.986838
0
LINE
8
MINSPINTA
62
41
48
6.557391945536564
10
-1.875
20
-0.9375
30
1.623798
11
-2.299264
21
-0.9375
31
1.1935186214522986
0
LINE
8
MEDIONETWORK
62
41
48
7.123267199991101
10
-1.875
20
-0.9375
30
1.8601351901670262
11
-2.299264
21
-0.9375
31
1.6115300084357123
0
LINE
8
ASSE
62
253
10
-1.875
20
-0.9375
30
1.850854
11
-2.299264
21
-0.9375
31
-0.694682
0
LINE
8
INTRADOSSO
62
256
10
-1.875
20
-0.9375
30
1.623798
11
-2.299264
21
-0.9375
31
-3.376202
0
LINE
8
ESTRADOSSO
62
256
10
-1.875
20
-0.9375
30
2.07791
11
-2.299264
21
-0.9375
31
1.986838
0
LINE
8
MAXSPINTA
62
41
48
8.828135993046411
10
-1.875
20
-0.46875
30
2.230894
11
-2.299264
21
-0.46875
31
2.1359459458626353
0
LINE
8
MINSPINTA
62
41
48
7.56422742274771
10
-1.875
20
-0.46875
30
1.815461
11
-2.299264
21
-0.46875
31
1.2624027966983893
0
LINE
8
MEDIONETWORK
62
41
48
8.617413182321814
10
-1.875
20
-0.46875
30
1.997200700511562
11
-2.299264
21
-0.46875
31
1.5802113111830975
0
LINE
8
ASSE
62
253
10
-1.875
20
-0.46875
30
2.0231775
11
-2.299264
21
-0.46875
31
-0.519701
0
LINE
8
INTRADOSSO
62
256
10
-1.875
20
-0.46875
30
1.815461
11
-2.299264
21
-0.46875
31
-3.184539
0
LINE
8
ESTRADOSSO
62
256
10
-1.875
20
-0.46875
30
2.230894
11
-2.299264
21
-0.46875
31
2.145137
0
LINE
8
MAXSPINTA
62
41
48
9.33250919759154
10
-1.875
20
0.0
30
2.279609
11
-2.299264
21
0.0
31
2.102883734237036
0
LINE
8
MINSPINTA
62
41
48
7.811175357855065
10
-1.875
20
0.0
30
1.875
11
-2.299264
21
0.0
31
1.2935188075507367
0
LINE
8
MEDIONETWORK
62
41
48
8.202289498790007
10
-1.875
20
0.0
30
2.0494157605925793
11
-2.299264
21
0.0
31
1.6744362978355316
0
LINE
8
ASSE
62
253
10
-1.875
20
0.0
30
2.0773045000000003
11
-2.299264
21
0.0
31
-0.4647874999999999
0
LINE
8
INTRADOSSO
62
256
10
-1.875
20
0.0
30
1.875
11
-2.299264
21
0.0
31
-3.125
0
LINE
8
ESTRADOSSO
62
256
10
-1.875
20
0.0
30
2.279609
11
-2.299264
21
0.0
31
2.195425
0
LINE
8
MAXSPINTA
62
41
48
8.82123193011973
10
-1.875
20
0.46875
30
2.230894
11
-2.299264
21
0.46875
31
2.137515151817859
0
LINE
8
MINSPINTA
62
41
48
7.554999269412045
10
-1.875
20
0.46875
30
1.815461
11
-2.299264
21
0.46875
31
1.263474954245387
0
LINE
8
MEDIONETWORK
62
41
48
8.697474084056052
10
-1.875
20
0.46875
30
1.9938232315339066
11
-2.299264
21
0.46875
31
1.568986545554786
0
LINE
8
ASSE
62
253
10
-1.875
20
0.46875
30
2.0231775
11
-2.299264
21
0.46875
31
-0.519701
0
LINE
8
INTRADOSSO
62
256
10
-1.875
20
0.46875
30
1.815461
11
-2.299264
21
0.46875
31
-3.184539
0
LINE
8
ESTRADOSSO
62
256
10
-1.875
20
0.46875
30
2.230894
11
-2.299264
21
0.46875
31
2.145137
0
LINE
8
MAXSPINTA
62
41
48
8.687936354004666
10
-1.875
20
0.9375
30
2.0421625989877783
11
-2.299264
21
0.9375
31
1.9868379999999999
0
LINE
8
MINSPINTA
62
41
48
6.538158285192507
10
-1.875
20
0.9375
30
1.623798
11
-2.299264
21
0.9375
31
1.1960112778276417
0
LINE
8
MEDIONETWORK
62
41
48
7.191170449252249
10
-1.875
20
0.9375
30
1.856999359140599
11
-2.299264
21
0.9375
31
1.5992464552196501
0
LINE
8
ASSE
62
253
10
-1.875
20
0.9375
30
1.850854
11
-2.299264
21
0.9375
31
-0.694682
0
LINE
8
INTRADOSSO
62
256
10
-1.875
20
0.9375
30
1.623798
11
-2.299264
21
0.9375
31
-3.376202
0
LINE
8
ESTRADOSSO
62
256
10
-1.875
20
0.9375
30
2.07791
11
-2.299264
21
0.9375
31
1.986838
0
LINE
8
MAXSPINTA
62
41
48
9.225736844645361
10
-1.875
20
1.40625
30
1.6836785890318977
11
-2.299264
21
1.40625
31
1.69148
0
LINE
8
MINSPINTA
62
41
48
6.958421791471748
10
-1.875
20
1.40625
30
1.240196
11
-2.299264
21
1.40625
31
0.8175227144318552
0
LINE
8
MEDIONETWORK
62
41
48
6.732340840465727
10
-1.875
20
1.40625
30
1.56592666997815
11
-2.299264
21
1.40625
31
1.6576074565320302
0
LINE
8
ASSE
62
253
10
-1.875
20
1.40625
30
1.517187
11
-2.299264
21
1.40625
31
-1.0341619999999998
0
LINE
8
INTRADOSSO
62
256
10
-1.875
20
1.40625
30
1.240196
11
-2.299264
21
1.40625
31
-3.759804
0
LINE
8
ESTRADOSSO
62
256
10
-1.875
20
1.40625
30
1.794178
11
-2.299264
21
1.40625
31
1.69148
0
LINE
8
MAXSPINTA
62
81
48
23.347854121855587
10
-1.875
20
1.640625
30
1.3936739309229218
11
-2.299264
21
1.640625
31
0.3252980654828892
0
LINE
8
MINSPINTA
62
61
48
12.92280768087734
10
-1.875
20
1.640625
30
0.971274268984976
11
-2.299264
21
1.640625
31
-0.1411194244142893
0
LINE
8
MEDIONETWORK
62
41
48
6.775442146076746
10
-1.875
20
1.640625
30
1.2728456222519178
11
-2.299264
21
1.640625
31
1.469466
0
LINE
8
ASSE
62
253
10
-1.875
20
1.640625
30
1.245219
11
-2.299264
21
1.640625
31
-1.3114020000000002
0
LINE
8
INTRADOSSO
62
256
10
-1.875
20
1.640625
30
0.90773
11
-2.299264
21
1.640625
31
-4.09227
0
LINE
8
ESTRADOSSO
62
256
10
-1.875
20
1.640625
30
1.582708
11
-2.299264
21
1.640625
31
1.469466
0
LINE
8
MAXSPINTA
62
81
48
23.34783923149377
10
1.875
20
-1.640625
30
1.3936740792416717
11
2.299264
21
-1.640625
31
0.32529900262059025
0
LINE
8
MINSPINTA
62
61
48
12.922807229410521
10
1.875
20
-1.640625
30
0.9712742635753647
11
2.299264
21
-1.640625
31
-0.14111938530873738
0
LINE
8
MEDIONETWORK
62
41
48
6.77544563840367
10
1.875
20
-1.640625
30
1.2728450490381065
11
2.299264
21
-1.640625
31
1.469466
0
LINE
8
ASSE
62
253
10
1.875
20
-1.640625
30
1.245219
11
2.299264
21
-1.640625
31
-1.3114020000000002
0
LINE
8
INTRADOSSO
62
256
10
1.875
20
-1.640625
30
0.90773
11
2.299264
21
-1.640625
31
-4.09227
0
LINE
8
ESTRADOSSO
62
256
10
1.875
20
-1.640625
30
1.582708
11
2.299264
21
-1.640625
31
1.469466
0
LINE
8
MAXSPINTA
62
41
48
9.225736810255666
10
1.875
20
-1.40625
30
1.6836786750693413
11
2.299264
21
-1.40625
31
1.69148
0
LINE
8
MINSPINTA
62
41
48
6.958420587520715
10
1.875
20
-1.40625
30
1.2401960207996388
11
2.299264
21
-1.40625
31
0.8175228820455401
0
LINE
8
MEDIONETWORK
62
41
48
6.732359550968389
10
1.875
20
-1.40625
30
1.5659274099882412
11
2.299264
21
-1.40625
31
1.6576139076613305
0
LINE
8
ASSE
62
253
10
1.875
20
-1.40625
30
1.517187
11
2.299264
21
-1.40625
31
-1.0341619999999998
0
LINE
8
INTRADOSSO
62
256
10
1.875
20
-1.40625
30
1.240196
11
2.299264
21
-1.40625
31
-3.759804
0
LINE
8
ESTRADOSSO
62
256
10
1.875
20
-1.40625
30
1.794178
11
2.299264
21
-1.40625
31
1.69148
0
LINE
8
MAXSPINTA
62
41
48
8.687936440988688
10
1.875
20
-0.9375
30
2.042162632116074
11
2.299264
21
-0.9375
31
1.986838
0
LINE
8
MINSPINTA
62
41
48
6.538158585588466
10
1.875
20
-0.9375
30
1.623798
11
2.299264
21
-0.9375
31
1.1960112388406667
0
LINE
8
MEDIONETWORK
62
41
48
7.191070290571585
10
1.875
20
-0.9375
30
1.8570008829970999
11
2.299264
21
-0.9375
31
1.5992612958392773
0
LINE
8
ASSE
62
253
10
1.875
20
-0.9375
30
1.850854
11
2.299264
21
-0.9375
31
-0.694682
0
LINE
8
INTRADOSSO
62
256
10
1.875
20
-0.9375
30
1.623798
11
2.299264
21
-0.9375
31
-3.376202
0
LINE
8
ESTRADOSSO
62
256
10
1.875
20
-0.9375
30
2.07791
11
2.299264
21
-0.9375
31
1.986838
0
LINE
8
MAXSPINTA
62
41
48
8.821232216525482
10
1.875
20
-0.46875
30
2.230894
11
2.299264
21
-0.46875
31
2.1375150862002448
0
LINE
8
MINSPINTA
62
41
48
7.554999269412251
10
1.875
20
-0.46875
30
1.815461
11
2.299264
21
-0.46875
31
1.2634749542453825
0
LINE
8
MEDIONETWORK
62
41
48
8.697300125060634
10
1.875
20
-0.46875
30
1.9938203201433018
11
2.299264
21
-0.46875
31
1.5690006058370771
0
LINE
8
ASSE
62
253
10
1.875
20
-0.46875
30
2.0231775
11
2.299264
21
-0.46875
31
-0.519701
0
LINE
8
INTRADOSSO
62
256
10
1.875
20
-0.46875
30
1.815461
11
2.299264
21
-0.46875
31
-3.184539
0
LINE
8
ESTRADOSSO
62
256
10
1.875
20
-0.46875
30
2.230894
11
2.299264
21
-0.46875
31
2.145137
0
LINE
8
MAXSPINTA
62
41
48
9.332509070525338
10
1.875
20
0.0
30
2.279609
11
2.299264
21
0.0
31
2.102883750510892
0
LINE
8
MINSPINTA
62
41
48
7.8111753578546725
10
1.875
20
0.0
30
1.875
11
2.299264
21
0.0
31
1.2935188075507327
0
LINE
8
MEDIONETWORK
62
41
48
8.202133767867466
10
1.875
20
0.0
30
2.049401410635525
11
2.299264
21
0.0
31
1.6744381814469378
0
LINE
8
ASSE
62
253
10
1.875
20
0.0
30
2.0773045000000003
11
2.299264
21
0.0
31
-0.4647874999999999
0
LINE
8
INTRADOSSO
62
256
10
1.875
20
0.0
30
1.875
11
2.299264
21
0.0
31
-3.125
0
LINE
8
ESTRADOSSO
62
256
10
1.875
20
0.0
30
2.279609
11
2.299264
21
0.0
31
2.195425
0
LINE
8
MAXSPINTA
62
41
48
8.82813462357179
10
1.875
20
0.46875
30
2.230894
11
2.299264
21
0.46875
31
2.135946254675962
0
LINE
8
MINSPINTA
62
41
48
7.56422742274774
10
1.875
20
0.46875
30
1.815461
11
2.299264
21
0.46875
31
1.2624027966983904
0
LINE
8
MEDIONETWORK
62
41
48
8.61731357185748
10
1.875
20
0.46875
30
1.9971675908129929
11
2.299264
21
0.46875
31
1.580188011321151
0
LINE
8
ASSE
62
253
10
1.875
20
0.46875
30
2.0231775
11
2.299264
21
0.46875
31
-0.519701
0
LINE
8
INTRADOSSO
62
256
10
1.875
20
0.46875
30
1.815461
11
2.299264
21
0.46875
31
-3.184539
0
LINE
8
ESTRADOSSO
62
256
10
1.875
20
0.46875
30
2.230894
11
2.299264
21
0.46875
31
2.145137
0
LINE
8
MAXSPINTA
62
41
48
8.689145547903253
10
1.875
20
0.9375
30
2.0426212580794196
11
2.299264
21
0.9375
31
1.986838
0
LINE
8
MINSPINTA
62
41
48
6.557391521371032
10
1.875
20
0.9375
30
1.623798
11
2.299264
21
0.9375
31
1.1935186763448575
0
LINE
8
MEDIONETWORK
62
41
48
7.123277902646422
10
1.875
20
0.9375
30
1.8600776538668315
11
2.299264
21
0.9375
31
1.611471010747588
0
LINE
8
ASSE
62
253
10
1.875
20
0.9375
30
1.850854
11
2.299264
21
0.9375
31
-0.694682
0
LINE
8
INTRADOSSO
62
256
10
1.875
20
0.9375
30
1.623798
11
2.299264
21
0.9375
31
-3.376202
0
LINE
8
ESTRADOSSO
62
256
10
1.875
20
0.9375
30
2.07791
11
2.299264
21
0.9375
31
1.986838
0
LINE
8
MAXSPINTA
62
41
48
9.225558019722493
10
1.875
20
1.40625
30
1.68413958125269
11
2.299264
21
1.40625
31
1.69148
0
LINE
8
MINSPINTA
62
41
48
6.913729373991859
10
1.875
20
1.40625
30
1.240196
11
2.299264
21
1.40625
31
0.8229905267971773
0
LINE
8
MEDIONETWORK
62
41
48
6.686485922105906
10
1.875
20
1.40625
30
1.5637348536204745
11
2.299264
21
1.40625
31
1.640204436181834
0
LINE
8
ASSE
62
253
10
1.875
20
1.40625
30
1.517187
11
2.299264
21
1.40625
31
-1.0341619999999998
0
LINE
8
INTRADOSSO
62
256
10
1.875
20
1.40625
30
1.240196
11
2.299264
21
1.40625
31
-3.759804
0
LINE
8
ESTRADOSSO
62
256
10
1.875
20
1.40625
30
1.794178
11
2.299264
21
1.40625
31
1.69148
0
LINE
8
MAXSPINTA
62
81
48
23.338477183900288
10
1.875
20
1.640625
30
1.3940184434950105
11
2.299264
21
1.640625
31
0.3261393383945635
0
LINE
8
MINSPINTA
62
61
48
12.920345708263309
10
1.875
20
1.640625
30
0.9693864993916236
11
2.299264
21
1.640625
31
-0.14276443671061118
0
LINE
8
MEDIONETWORK
62
41
48
6.783447350810489
10
1.875
20
1.640625
30
1.2715352750053586
11
2.299264
21
1.640625
31
1.469466
0
LINE
8
ASSE
62
253
10
1.875
20
1.640625
30
1.245219
11
2.299264
21
1.640625
31
-1.3114020000000002
0
LINE
8
INTRADOSSO
62
256
10
1.875
20
1.640625
30
0.90773
11
2.299264
21
1.640625
31
-4.09227
0
LINE
8
ESTRADOSSO
62
256
10
1.875
20
1.640625
30
1.582708
11
2.299264
21
1.640625
31
1.469466
0
LINE
8
MAXSPINTA
62
141
48
42.71201996101811
10
-1.875
20
-1.875
30
1.29653
11
-2.299264
21
-2.299264
31
0.8306839687008193
0
LINE
8
MINSPINTA
62
81
48
25.114233101709548
10
-1.875
20
-1.875
30
0.8608693662282055
11
-2.299264
21
-2.299264
31
0.2790702465000953
0
LINE
8
MEDIONETWORK
62
201
48
66.73114478921705
10
-1.875
20
-1.875
30
0.7756086312323626
11
-2.299264
21
-2.299264
31
-0.776000057794173
0
LINE
8
ASSE
62
253
10
-1.875
20
-1.875
30
0.648265
11
-2.299264
21
-2.299264
31
-2.0050495
0
LINE
8
INTRADOSSO
62
256
10
-1.875
20
-1.875
30
0.0
11
-2.299264
21
-2.299264
31
-5.0
0
LINE
8
ESTRADOSSO
62
256
10
-1.875
20
-1.875
30
1.29653
11
-2.299264
21
-2.299264
31
0.989901
0
LINE
8
MAXSPINTA
62
141
48
42.675494151390936
10
1.875
20
-1.875
30
1.29653
11
2.299264
21
-2.299264
31
0.8317439571575672
0
LINE
8
MINSPINTA
62
81
48
24.963457789196166
10
1.875
20
-1.875
30
0.8652174557759955
11
2.299264
21
-2.299264
31
0.2906493495222341
0
LINE
8
MEDIONETWORK
62
201
48
66.75800299071071
10
1.875
20
-1.875
30
0.7764003436185493
11
2.299264
21
-2.299264
31
-0.7759262042490427
0
LINE
8
ASSE
62
253
10
1.875
20
-1.875
30
0.648265
11
2.299264
21
-2.299264
31
-2.0050495
0
LINE
8
INTRADOSSO
62
256
10
1.875
20
-1.875
30
0.0
11
2.299264
21
-2.299264
31
-5.0
0
LINE
8
ESTRADOSSO
62
256
10
1.875
20
-1.875
30
1.29653
11
2.299264
21
-2.299264
31
0.989901
0
LINE
8
MAXSPINTA
62
141
48
42.675482968728346
10
-1.875
20
1.875
30
1.29653
11
-2.299264
21
2.299264
31
0.8317442819124776
0
LINE
8
MINSPINTA
62
81
48
24.96345556849398
10
-1.875
20
1.875
30
0.865217503172395
11
-2.299264
21
2.299264
31
0.29064950376849813
0
LINE
8
MEDIONETWORK
62
201
48
66.75802981058733
10
-1.875
20
1.875
30
0.7764017734464898
11
-2.299264
21
2.299264
31
-0.775925491234034
0
LINE
8
ASSE
62
253
10
-1.875
20
1.875
30
0.648265
11
-2.299264
21
2.299264
31
-2.0050495
0
LINE
8
INTRADOSSO
62
256
10
-1.875
20
1.875
30
0.0
11
-2.299264
21
2.299264
31
-5.0
0
LINE
8
ESTRADOSSO
62
256
10
-1.875
20
1.875
30
1.29653
11
-2.299264
21
2.299264
31
0.989901
0
LINE
8
MAXSPINTA
62
141
48
42.71197002405242
10
1.875
20
1.875
30
1.29653
11
2.299264
21
2.299264
31
0.8306854168563678
0
LINE
8
MINSPINTA
62
81
48
25.114230345925343
10
1.875
20
1.875
30
0.8608694224036044
11
2.299264
21
2.299264
31
0.2790704344139303
0
LINE
8
MEDIONETWORK
62
201
48
66.73616030601352
10
1.875
20
1.875
30
0.7754652292627195
11
2.299264
21
2.299264
31
-0.7762775164370823
0
LINE
8
ASSE
62
253
10
1.875
20
1.875
30
0.648265
11
2.299264
21
2.299264
31
-2.0050495
0
LINE
8
INTRADOSSO
62
256
10
1.875
20
1.875
30
0.0
11
2.299264
21
2.299264
31
-5.0
0
LINE
8
ESTRADOSSO
62
256
10
1.875
20
1.875
30
1.29653
11
2.299264
21
2.299264
31
0.989901
0
POINT
8
INTERNAL_NODES
10
-1.875
20
-1.875
30
0.0
0
TEXT
8
ID-NODES
10
-1.875
20
-1.875
30
0.0
40
0.15
1
1
0
LINE
8
fz
62
7
10
-1.875
20
-1.875
30
1.29653
11
-1.875
21
-1.875
31
2.11053
0
POINT
8
INTERNAL_NODES
10
-1.40625
20
-1.875
30
1.240196
0
TEXT
8
ID-NODES
10
-1.40625
20
-1.875
30
1.240196
40
0.15
1
2
0
LINE
8
fz
62
7
10
-1.40625
20
-1.875
30
1.794178
11
-1.40625
21
-1.875
31
6.912178000000001
0
POINT
8
INTERNAL_NODES
10
-0.9375
20
-1.875
30
1.623798
0
TEXT
8
ID-NODES
10
-0.9375
20
-1.875
30
1.623798
40
0.15
1
3
0
LINE
8
fz
62
7
10
-0.9375
20
-1.875
30
2.07791
11
-0.9375
21
-1.875
31
8.01991
0
POINT
8
INTERNAL_NODES
10
-0.46875
20
-1.875
30
1.815461
0
TEXT
8
ID-NODES
10
-0.46875
20
-1.875
30
1.815461
40
0.15
1
4
0
LINE
8
fz
62
7
10
-0.46875
20
-1.875
30
2.230894
11
-0.46875
21
-1.875
31
7.576894
0
POINT
8
INTERNAL_NODES
10
0.0
20
-1.875
30
1.875
0
TEXT
8
ID-NODES
10
0.0
20
-1.875
30
1.875
40
0.15
1
5
0
LINE
8
fz
62
7
10
0.0
20
-1.875
30
2.279609
11
0.0
21
-1.875
31
7.439609000000001
0
POINT
8
INTERNAL_NODES
10
0.46875
20
-1.875
30
1.815461
0
TEXT
8
ID-NODES
10
0.46875
20
-1.875
30
1.815461
40
0.15
1
6
0
LINE
8
fz
62
7
10
0.46875
20
-1.875
30
2.230894
11
0.46875
21
-1.875
31
7.564894
0
POINT
8
INTERNAL_NODES
10
0.9375
20
-1.875
30
1.623798
0
TEXT
8
ID-NODES
10
0.9375
20
-1.875
30
1.623798
40
0.15
1
7
0
LINE
8
fz
62
7
10
0.9375
20
-1.875
30
2.07791
11
0.9375
21
-1.875
31
7.98391
0
POINT
8
INTERNAL_NODES
10
1.40625
20
-1.875
30
1.240196
0
TEXT
8
ID-NODES
10
1.40625
20
-1.875
30
1.240196
40
0.15
1
8
0
LINE
8
fz
62
7
10
1.40625
20
-1.875
30
1.794178
11
1.40625
21
-1.875
31
6.886177999999999
0
POINT
8
INTERNAL_NODES
10
1.875
20
-1.875
30
0.0
0
TEXT
8
ID-NODES
10
1.875
20
-1.875
30
0.0
40
0.15
1
9
0
LINE
8
fz
62
7
10
1.875
20
-1.875
30
1.29653
11
1.875
21
-1.875
31
2.11053
0
POINT
8
INTERNAL_NODES
10
-1.875
20
-1.40625
30
1.240196
0
TEXT
8
ID-NODES
10
-1.875
20
-1.40625
30
1.240196
40
0.15
1
10
0
LINE
8
fz
62
7
10
-1.875
20
-1.40625
30
1.794178
11
-1.875
21
-1.40625
31
6.912178000000001
0
POINT
8
INTERNAL_NODES
10
-1.40625
20
-1.40625
30
1.753902
0
TEXT
8
ID-NODES
10
-1.40625
20
-1.40625
30
1.753902
40
0.15
1
11
0
LINE
8
fz
62
7
10
-1.40625
20
-1.40625
30
2.181092
11
-1.40625
21
-1.40625
31
13.481092
0
POINT
8
INTERNAL_NODES
10
-0.9375
20
-1.40625
30
2.043234
0
TEXT
8
ID-NODES
10
-0.9375
20
-1.40625
30
2.043234
40
0.15
1
12
0
LINE
8
fz
62
7
10
-0.9375
20
-1.40625
30
2.419875
11
-0.9375
21
-1.40625
31
13.199874999999999
0
POINT
8
INTERNAL_NODES
10
-0.46875
20
-1.40625
30
2.198632
0
TEXT
8
ID-NODES
10
-0.46875
20
-1.40625
30
2.198632
40
0.15
1
13
0
LINE
8
fz
62
7
10
-0.46875
20
-1.40625
30
2.552445
11
-0.46875
21
-1.40625
31
12.250445000000001
0
POINT
8
INTERNAL_NODES
10
0.0
20
-1.40625
30
2.248046
0
TEXT
8
ID-NODES
10
0.0
20
-1.40625
30
2.248046
40
0.15
1
14
0
LINE
8
fz
62
7
10
0.0
20
-1.40625
30
2.59513
11
0.0
21
-1.40625
31
11.953130000000002
0
POINT
8
INTERNAL_NODES
10
0.46875
20
-1.40625
30
2.198632
0
TEXT
8
ID-NODES
10
0.46875
20
-1.40625
30
2.198632
40
0.15
1
15
0
LINE
8
fz
62
7
10
0.46875
20
-1.40625
30
2.552445
11
0.46875
21
-1.40625
31
12.232445
0
POINT
8
INTERNAL_NODES
10
0.9375
20
-1.40625
30
2.043234
0
TEXT
8
ID-NODES
10
0.9375
20
-1.40625
30
2.043234
40
0.15
1
16
0
LINE
8
fz
62
7
10
0.9375
20
-1.40625
30
2.419875
11
0.9375
21
-1.40625
31
13.149875000000002
0
POINT
8
INTERNAL_NODES
10
1.40625
20
-1.40625
30
1.753902
0
TEXT
8
ID-NODES
10
1.40625
20
-1.40625
30
1.753902
40
0.15
1
17
0
LINE
8
fz
62
7
10
1.40625
20
-1.40625
30
2.181092
11
1.40625
21
-1.40625
31
13.419092
0
POINT
8
INTERNAL_NODES
10
1.875
20
-1.40625
30
1.240196
0
TEXT
8
ID-NODES
10
1.875
20
-1.40625
30
1.240196
40
0.15
1
18
0
LINE
8
fz
62
7
10
1.875
20
-1.40625
30
1.794178
11
1.875
21
-1.40625
31
6.886177999999999
0
POINT
8
INTERNAL_NODES
10
-1.875
20
-0.9375
30
1.623798
0
TEXT
8
ID-NODES
10
-1.875
20
-0.9375
30
1.623798
40
0.15
1
19
0
LINE
8
fz
62
7
10
-1.875
20
-0.9375
30
2.07791
11
-1.875
21
-0.9375
31
8.01991
0
POINT
8
INTERNAL_NODES
10
-1.40625
20
-0.9375
30
2.043234
0
TEXT
8
ID-NODES
10
-1.40625
20
-0.9375
30
2.043234
40
0.15
1
20
0
LINE
8
fz
62
7
10
-1.40625
20
-0.9375
30
2.419875
11
-1.40625
21
-0.9375
31
13.199874999999999
0
POINT
8
INTERNAL_NODES
10
-0.9375
20
-0.9375
30
2.296397
0
TEXT
8
ID-NODES
10
-0.9375
20
-0.9375
30
2.296397
40
0.15
1
21
0
LINE
8
fz
62
7
10
-0.9375
20
-0.9375
30
2.637125
11
-0.9375
21
-0.9375
31
11.683125
0
POINT
8
INTERNAL_NODES
10
-0.46875
20
-0.9375
30
2.435696
0
TEXT
8
ID-NODES
10
-0.46875
20
-0.9375
30
2.435696
40
0.15
1
22
0
LINE
8
fz
62
7
10
-0.46875
20
-0.9375
30
2.759277
11
-0.46875
21
-0.9375
31
10.879276999999998
0
POINT
8
INTERNAL_NODES
10
0.0
20
-0.9375
30
2.480392
0
TEXT
8
ID-NODES
10
0.0
20
-0.9375
30
2.480392
40
0.15
1
23
0
LINE
8
fz
62
7
10
0.0
20
-0.9375
30
2.798809
11
0.0
21
-0.9375
31
10.622809
0
POINT
8
INTERNAL_NODES
10
0.46875
20
-0.9375
30
2.435696
0
TEXT
8
ID-NODES
10
0.46875
20
-0.9375
30
2.435696
40
0.15
1
24
0
LINE
8
fz
62
7
10
0.46875
20
-0.9375
30
2.759277
11
0.46875
21
-0.9375
31
10.871277
0
POINT
8
INTERNAL_NODES
10
0.9375
20
-0.9375
30
2.296397
0
TEXT
8
ID-NODES
10
0.9375
20
-0.9375
30
2.296397
40
0.15
1
25
0
LINE
8
fz
62
7
10
0.9375
20
-0.9375
30
2.637125
11
0.9375
21
-0.9375
31
11.663125
0
POINT
8
INTERNAL_NODES
10
1.40625
20
-0.9375
30
2.043234
0
TEXT
8
ID-NODES
10
1.40625
20
-0.9375
30
2.043234
40
0.15
1
26
0
LINE
8
fz
62
7
10
1.40625
20
-0.9375
30
2.419875
11
1.40625
21
-0.9375
31
13.149875000000002
0
POINT
8
INTERNAL_NODES
10
1.875
20
-0.9375
30
1.623798
0
TEXT
8
ID-NODES
10
1.875
20
-0.9375
30
1.623798
40
0.15
1
27
0
LINE
8
fz
62
7
10
1.875
20
-0.9375
30
2.07791
11
1.875
21
-0.9375
31
7.98391
0
POINT
8
INTERNAL_NODES
10
-1.875
20
-0.46875
30
1.815461
0
TEXT
8
ID-NODES
10
-1.875
20
-0.46875
30
1.815461
40
0.15
1
28
0
LINE
8
fz
62
7
10
-1.875
20
-0.46875
30
2.230894
11
-1.875
21
-0.46875
31
7.576894
0
POINT
8
INTERNAL_NODES
10
-1.40625
20
-0.46875
30
2.198632
0
TEXT
8
ID-NODES
10
-1.40625
20
-0.46875
30
2.198632
40
0.15
1
29
0
LINE
8
fz
62
7
10
-1.40625
20
-0.46875
30
2.552445
11
-1.40625
21
-0.46875
31
12.250445000000001
0
POINT
8
INTERNAL_NODES
10
-0.9375
20
-0.46875
30
2.435696
0
TEXT
8
ID-NODES
10
-0.9375
20
-0.46875
30
2.435696
40
0.15
1
30
0
LINE
8
fz
62
7
10
-0.9375
20
-0.46875
30
2.759277
11
-0.9375
21
-0.46875
31
10.879276999999998
0
POINT
8
INTERNAL_NODES
10
-0.46875
20
-0.46875
30
2.567449
0
TEXT
8
ID-NODES
10
-0.46875
20
-0.46875
30
2.567449
40
0.15
1
31
0
LINE
8
fz
62
7
10
-0.46875
20
-0.46875
30
2.876245
11
-0.46875
21
-0.46875
31
10.136244999999999
0
POINT
8
INTERNAL_NODES
10
0.0
20
-0.46875
30
2.60989
0
TEXT
8
ID-NODES
10
0.0
20
-0.46875
30
2.60989
40
0.15
1
32
0
LINE
8
fz
62
7
10
0.0
20
-0.46875
30
2.914192
11
0.0
21
-0.46875
31
9.896192
0
POINT
8
INTERNAL_NODES
10
0.46875
20
-0.46875
30
2.567449
0
TEXT
8
ID-NODES
10
0.46875
20
-0.46875
30
2.567449
40
0.15
1
33
0
LINE
8
fz
62
7
10
0.46875
20
-0.46875
30
2.876245
11
0.46875
21
-0.46875
31
10.132245000000001
0
POINT
8
INTERNAL_NODES
10
0.9375
20
-0.46875
30
2.435696
0
TEXT
8
ID-NODES
10
0.9375
20
-0.46875
30
2.435696
40
0.15
1
34
0
LINE
8
fz
62
7
10
0.9375
20
-0.46875
30
2.759277
11
0.9375
21
-0.46875
31
10.871277
0
POINT
8
INTERNAL_NODES
10
1.40625
20
-0.46875
30
2.198632
0
TEXT
8
ID-NODES
10
1.40625
20
-0.46875
30
2.198632
40
0.15
1
35
0
LINE
8
fz
62
7
10
1.40625
20
-0.46875
30
2.552445
11
1.40625
21
-0.46875
31
12.232445
0
POINT
8
INTERNAL_NODES
10
1.875
20
-0.46875
30
1.815461
0
TEXT
8
ID-NODES
10
1.875
20
-0.46875
30
1.815461
40
0.15
1
36
0
LINE
8
fz
62
7
10
1.875
20
-0.46875
30
2.230894
11
1.875
21
-0.46875
31
7.564894
0
POINT
8
INTERNAL_NODES
10
-1.875
20
0.0
30
1.875
0
TEXT
8
ID-NODES
10
-1.875
20
0.0
30
1.875
40
0.15
1
37
0
LINE
8
fz
62
7
10
-1.875
20
0.0
30
2.279609
11
-1.875
21
0.0
31
7.439609000000001
0
POINT
8
INTERNAL_NODES
10
-1.40625
20
0.0
30
2.248046
0
TEXT
8
ID-NODES
10
-1.40625
20
0.0
30
2.248046
40
0.15
1
38
0
LINE
8
fz
62
7
10
-1.40625
20
0.0
30
2.59513
11
-1.40625
21
0.0
31
11.953130000000002
0
POINT
8
INTERNAL_NODES
10
-0.9375
20
0.0
30
2.480392
0
TEXT
8
ID-NODES
10
-0.9375
20
0.0
30
2.480392
40
0.15
1
39
0
LINE
8
fz
62
7
10
-0.9375
20
0.0
30
2.798809
11
-0.9375
21
0.0
31
10.622809
0
POINT
8
INTERNAL_NODES
10
-0.46875
20
0.0
30
2.60989
0
TEXT
8
ID-NODES
10
-0.46875
20
0.0
30
2.60989
40
0.15
1
40
0
LINE
8
fz
62
7
10
-0.46875
20
0.0
30
2.914192
11
-0.46875
21
0.0
31
9.896192
0
POINT
8
INTERNAL_NODES
10
0.0
20
0.0
30
2.65165
0
TEXT
8
ID-NODES
10
0.0
20
0.0
30
2.65165
40
0.15
1
41
0
LINE
8
fz
62
7
10
0.0
20
0.0
30
2.95165
11
0.0
21
0.0
31
9.66365
0
POINT
8
INTERNAL_NODES
10
0.46875
20
0.0
30
2.60989
0
TEXT
8
ID-NODES
10
0.46875
20
0.0
30
2.60989
40
0.15
1
42
0
LINE
8
fz
62
7
10
0.46875
20
0.0
30
2.914192
11
0.46875
21
0.0
31
9.896192
0
POINT
8
INTERNAL_NODES
10
0.9375
20
0.0
30
2.480392
0
TEXT
8
ID-NODES
10
0.9375
20
0.0
30
2.480392
40
0.15
1
43
0
LINE
8
fz
62
7
10
0.9375
20
0.0
30
2.798809
11
0.9375
21
0.0
31
10.622809
0
POINT
8
INTERNAL_NODES
10
1.40625
20
0.0
30
2.248046
0
TEXT
8
ID-NODES
10
1.40625
20
0.0
30
2.248046
40
0.15
1
44
0
LINE
8
fz
62
7
10
1.40625
20
0.0
30
2.59513
11
1.40625
21
0.0
31
11.953130000000002
0
POINT
8
INTERNAL_NODES
10
1.875
20
0.0
30
1.875
0
TEXT
8
ID-NODES
10
1.875
20
0.0
30
1.875
40
0.15
1
45
0
LINE
8
fz
62
7
10
1.875
20
0.0
30
2.279609
11
1.875
21
0.0
31
7.439609000000001
0
POINT
8
INTERNAL_NODES
10
-1.875
20
0.46875
30
1.815461
0
TEXT
8
ID-NODES
10
-1.875
20
0.46875
30
1.815461
40
0.15
1
46
0
LINE
8
fz
62
7
10
-1.875
20
0.46875
30
2.230894
11
-1.875
21
0.46875
31
7.564894
0
POINT
8
INTERNAL_NODES
10
-1.40625
20
0.46875
30
2.198632
0
TEXT
8
ID-NODES
10
-1.40625
20
0.46875
30
2.198632
40
0.15
1
47
0
LINE
8
fz
62
7
10
-1.40625
20
0.46875
30
2.552445
11
-1.40625
21
0.46875
31
12.232445
0
POINT
8
INTERNAL_NODES
10
-0.9375
20
0.46875
30
2.435696
0
TEXT
8
ID-NODES
10
-0.9375
20
0.46875
30
2.435696
40
0.15
1
48
0
LINE
8
fz
62
7
10
-0.9375
20
0.46875
30
2.759277
11
-0.9375
21
0.46875
31
10.871277
0
POINT
8
INTERNAL_NODES
10
-0.46875
20
0.46875
30
2.567449
0
TEXT
8
ID-NODES
10
-0.46875
20
0.46875
30
2.567449
40
0.15
1
49
0
LINE
8
fz
62
7
10
-0.46875
20
0.46875
30
2.876245
11
-0.46875
21
0.46875
31
10.132245000000001
0
POINT
8
INTERNAL_NODES
10
0.0
20
0.46875
30
2.60989
0
TEXT
8
ID-NODES
10
0.0
20
0.46875
30
2.60989
40
0.15
1
50
0
LINE
8
fz
62
7
10
0.0
20
0.46875
30
2.914192
11
0.0
21
0.46875
31
9.896192
0
POINT
8
INTERNAL_NODES
10
0.46875
20
0.46875
30
2.567449
0
TEXT
8
ID-NODES
10
0.46875
20
0.46875
30
2.567449
40
0.15
1
51
0
LINE
8
fz
62
7
10
0.46875
20
0.46875
30
2.876245
11
0.46875
21
0.46875
31
10.136244999999999
0
POINT
8
INTERNAL_NODES
10
0.9375
20
0.46875
30
2.435696
0
TEXT
8
ID-NODES
10
0.9375
20
0.46875
30
2.435696
40
0.15
1
52
0
LINE
8
fz
62
7
10
0.9375
20
0.46875
30
2.759277
11
0.9375
21
0.46875
31
10.879276999999998
0
POINT
8
INTERNAL_NODES
10
1.40625
20
0.46875
30
2.198632
0
TEXT
8
ID-NODES
10
1.40625
20
0.46875
30
2.198632
40
0.15
1
53
0
LINE
8
fz
62
7
10
1.40625
20
0.46875
30
2.552445
11
1.40625
21
0.46875
31
12.250445000000001
0
POINT
8
INTERNAL_NODES
10
1.875
20
0.46875
30
1.815461
0
TEXT
8
ID-NODES
10
1.875
20
0.46875
30
1.815461
40
0.15
1
54
0
LINE
8
fz
62
7
10
1.875
20
0.46875
30
2.230894
11
1.875
21
0.46875
31
7.576894
0
POINT
8
INTERNAL_NODES
10
-1.875
20
0.9375
30
1.623798
0
TEXT
8
ID-NODES
10
-1.875
20
0.9375
30
1.623798
40
0.15
1
55
0
LINE
8
fz
62
7
10
-1.875
20
0.9375
30
2.07791
11
-1.875
21
0.9375
31
7.98391
0
POINT
8
INTERNAL_NODES
10
-1.40625
20
0.9375
30
2.043234
0
TEXT
8
ID-NODES
10
-1.40625
20
0.9375
30
2.043234
40
0.15
1
56
0
LINE
8
fz
62
7
10
-1.40625
20
0.9375
30
2.419875
11
-1.40625
21
0.9375
31
13.149875000000002
0
POINT
8
INTERNAL_NODES
10
-0.9375
20
0.9375
30
2.296397
0
TEXT
8
ID-NODES
10
-0.9375
20
0.9375
30
2.296397
40
0.15
1
57
0
LINE
8
fz
62
7
10
-0.9375
20
0.9375
30
2.637125
11
-0.9375
21
0.9375
31
11.663125
0
POINT
8
INTERNAL_NODES
10
-0.46875
20
0.9375
30
2.435696
0
TEXT
8
ID-NODES
10
-0.46875
20
0.9375
30
2.435696
40
0.15
1
58
0
LINE
8
fz
62
7
10
-0.46875
20
0.9375
30
2.759277
11
-0.46875
21
0.9375
31
10.871277
0
POINT
8
INTERNAL_NODES
10
0.0
20
0.9375
30
2.480392
0
TEXT
8
ID-NODES
10
0.0
20
0.9375
30
2.480392
40
0.15
1
59
0
LINE
8
fz
62
7
10
0.0
20
0.9375
30
2.798809
11
0.0
21
0.9375
31
10.622809
0
POINT
8
INTERNAL_NODES
10
0.46875
20
0.9375
30
2.435696
0
TEXT
8
ID-NODES
10
0.46875
20
0.9375
30
2.435696
40
0.15
1
60
0
LINE
8
fz
62
7
10
0.46875
20
0.9375
30
2.759277
11
0.46875
21
0.9375
31
10.879276999999998
0
POINT
8
INTERNAL_NODES
10
0.9375
20
0.9375
30
2.296397
0
TEXT
8
ID-NODES
10
0.9375
20
0.9375
30
2.296397
40
0.15
1
61
0
LINE
8
fz
62
7
10
0.9375
20
0.9375
30
2.637125
11
0.9375
21
0.9375
31
11.683125
0
POINT
8
INTERNAL_NODES
10
1.40625
20
0.9375
30
2.043234
0
TEXT
8
ID-NODES
10
1.40625
20
0.9375
30
2.043234
40
0.15
1
62
0
LINE
8
fz
62
7
10
1.40625
20
0.9375
30
2.419875
11
1.40625
21
0.9375
31
13.199874999999999
0
POINT
8
INTERNAL_NODES
10
1.875
20
0.9375
30
1.623798
0
TEXT
8
ID-NODES
10
1.875
20
0.9375
30
1.623798
40
0.15
1
63
0
LINE
8
fz
62
7
10
1.875
20
0.9375
30
2.07791
11
1.875
21
0.9375
31
8.01991
0
POINT
8
INTERNAL_NODES
10
-1.875
20
1.40625
30
1.240196
0
TEXT
8
ID-NODES
10
-1.875
20
1.40625
30
1.240196
40
0.15
1
64
0
LINE
8
fz
62
7
10
-1.875
20
1.40625
30
1.794178
11
-1.875
21
1.40625
31
6.886177999999999
0
POINT
8
INTERNAL_NODES
10
-1.40625
20
1.40625
30
1.753902
0
TEXT
8
ID-NODES
10
-1.40625
20
1.40625
30
1.753902
40
0.15
1
65
0
LINE
8
fz
62
7
10
-1.40625
20
1.40625
30
2.181092
11
-1.40625
21
1.40625
31
13.419092
0
POINT
8
INTERNAL_NODES
10
-0.9375
20
1.40625
30
2.043234
0
TEXT
8
ID-NODES
10
-0.9375
20
1.40625
30
2.043234
40
0.15
1
66
0
LINE
8
fz
62
7
10
-0.9375
20
1.40625
30
2.419875
11
-0.9375
21
1.40625
31
13.149875000000002
0
POINT
8
INTERNAL_NODES
10
-0.46875
20
1.40625
30
2.198632
0
TEXT
8
ID-NODES
10
-0.46875
20
1.40625
30
2.198632
40
0.15
1
67
0
LINE
8
fz
62
7
10
-0.46875
20
1.40625
30
2.552445
11
-0.46875
21
1.40625
31
12.232445
0
POINT
8
INTERNAL_NODES
10
0.0
20
1.40625
30
2.248046
0
TEXT
8
ID-NODES
10
0.0
20
1.40625
30
2.248046
40
0.15
1
68
0
LINE
8
fz
62
7
10
0.0
20
1.40625
30
2.59513
11
0.0
21
1.40625
31
11.953130000000002
0
POINT
8
INTERNAL_NODES
10
0.46875
20
1.40625
30
2.198632
0
TEXT
8
ID-NODES
10
0.46875
20
1.40625
30
2.198632
40
0.15
1
69
0
LINE
8
fz
62
7
10
0.46875
20
1.40625
30
2.552445
11
0.46875
21
1.40625
31
12.250445000000001
0
POINT
8
INTERNAL_NODES
10
0.9375
20
1.40625
30
2.043234
0
TEXT
8
ID-NODES
10
0.9375
20
1.40625
30
2.043234
40
0.15
1
70
0
LINE
8
fz
62
7
10
0.9375
20
1.40625
30
2.419875
11
0.9375
21
1.40625
31
13.199874999999999
0
POINT
8
INTERNAL_NODES
10
1.40625
20
1.40625
30
1.753902
0
TEXT
8
ID-NODES
10
1.40625
20
1.40625
30
1.753902
40
0.15
1
71
0
LINE
8
fz
62
7
10
1.40625
20
1.40625
30
2.181092
11
1.40625
21
1.40625
31
13.481092
0
POINT
8
INTERNAL_NODES
10
1.875
20
1.40625
30
1.240196
0
TEXT
8
ID-NODES
10
1.875
20
1.40625
30
1.240196
40
0.15
1
72
0
LINE
8
fz
62
7
10
1.875
20
1.40625
30
1.794178
11
1.875
21
1.40625
31
6.912178000000001
0
POINT
8
INTERNAL_NODES
10
-1.875
20
1.875
30
0.0
0
TEXT
8
ID-NODES
10
-1.875
20
1.875
30
0.0
40
0.15
1
73
0
LINE
8
fz
62
7
10
-1.875
20
1.875
30
1.29653
11
-1.875
21
1.875
31
2.11053
0
POINT
8
INTERNAL_NODES
10
-1.40625
20
1.875
30
1.240196
0
TEXT
8
ID-NODES
10
-1.40625
20
1.875
30
1.240196
40
0.15
1
74
0
LINE
8
fz
62
7
10
-1.40625
20
1.875
30
1.794178
11
-1.40625
21
1.875
31
6.886177999999999
0
POINT
8
INTERNAL_NODES
10
-0.9375
20
1.875
30
1.623798
0
TEXT
8
ID-NODES
10
-0.9375
20
1.875
30
1.623798
40
0.15
1
75
0
LINE
8
fz
62
7
10
-0.9375
20
1.875
30
2.07791
11
-0.9375
21
1.875
31
7.98391
0
POINT
8
INTERNAL_NODES
10
-0.46875
20
1.875
30
1.815461
0
TEXT
8
ID-NODES
10
-0.46875
20
1.875
30
1.815461
40
0.15
1
76
0
LINE
8
fz
62
7
10
-0.46875
20
1.875
30
2.230894
11
-0.46875
21
1.875
31
7.564894
0
POINT
8
INTERNAL_NODES
10
0.0
20
1.875
30
1.875
0
TEXT
8
ID-NODES
10
0.0
20
1.875
30
1.875
40
0.15
1
77
0
LINE
8
fz
62
7
10
0.0
20
1.875
30
2.279609
11
0.0
21
1.875
31
7.439609000000001
0
POINT
8
INTERNAL_NODES
10
0.46875
20
1.875
30
1.815461
0
TEXT
8
ID-NODES
10
0.46875
20
1.875
30
1.815461
40
0.15
1
78
0
LINE
8
fz
62
7
10
0.46875
20
1.875
30
2.230894
11
0.46875
21
1.875
31
7.576894
0
POINT
8
INTERNAL_NODES
10
0.9375
20
1.875
30
1.623798
0
TEXT
8
ID-NODES
10
0.9375
20
1.875
30
1.623798
40
0.15
1
79
0
LINE
8
fz
62
7
10
0.9375
20
1.875
30
2.07791
11
0.9375
21
1.875
31
8.01991
0
POINT
8
INTERNAL_NODES
10
1.40625
20
1.875
30
1.240196
0
TEXT
8
ID-NODES
10
1.40625
20
1.875
30
1.240196
40
0.15
1
80
0
LINE
8
fz
62
7
10
1.40625
20
1.875
30
1.794178
11
1.40625
21
1.875
31
6.912178000000001
0
POINT
8
INTERNAL_NODES
10
1.875
20
1.875
30
0.0
0
TEXT
8
ID-NODES
10
1.875
20
1.875
30
0.0
40
0.15
1
81
0
LINE
8
fz
62
7
10
1.875
20
1.875
30
1.29653
11
1.875
21
1.875
31
2.11053
0
POINT
8
INTERNAL_NODES
10
-1.757812
20
-1.757812
30
0.922735
0
TEXT
8
ID-NODES
10
-1.757812
20
-1.757812
30
0.922735
40
0.15
1
82
0
LINE
8
fz
62
7
10
-1.757812
20
-1.757812
30
1.591361
11
-1.757812
21
-1.757812
31
3.925361
0
POINT
8
INTERNAL_NODES
10
-1.640625
20
-1.640625
30
1.283725
0
TEXT
8
ID-NODES
10
-1.640625
20
-1.640625
30
1.283725
40
0.15
1
83
0
LINE
8
fz
62
7
10
-1.640625
20
-1.640625
30
1.824538
11
-1.640625
21
-1.640625
31
5.706538
0
POINT
8
INTERNAL_NODES
10
1.640625
20
1.640625
30
1.283725
0
TEXT
8
ID-NODES
10
1.640625
20
1.640625
30
1.283725
40
0.15
1
84
0
LINE
8
fz
62
7
10
1.640625
20
1.640625
30
1.824538
11
1.640625
21
1.640625
31
5.706538
0
POINT
8
INTERNAL_NODES
10
1.757812
20
1.757812
30
0.922735
0
TEXT
8
ID-NODES
10
1.757812
20
1.757812
30
0.922735
40
0.15
1
85
0
LINE
8
fz
62
7
10
1.757812
20
1.757812
30
1.591361
11
1.757812
21
1.757812
31
3.925361
0
POINT
8
INTERNAL_NODES
10
1.757812
20
-1.757812
30
0.922735
0
TEXT
8
ID-NODES
10
1.757812
20
-1.757812
30
0.922735
40
0.15
1
86
0
LINE
8
fz
62
7
10
1.757812
20
-1.757812
30
1.591361
11
1.757812
21
-1.757812
31
3.925361
0
POINT
8
INTERNAL_NODES
10
1.640625
20
-1.640625
30
1.283725
0
TEXT
8
ID-NODES
10
1.640625
20
-1.640625
30
1.283725
40
0.15
1
87
0
LINE
8
fz
62
7
10
1.640625
20
-1.640625
30
1.824538
11
1.640625
21
-1.640625
31
5.706538
0
POINT
8
INTERNAL_NODES
10
-1.640625
20
1.640625
30
1.283725
0
TEXT
8
ID-NODES
10
-1.640625
20
1.640625
30
1.283725
40
0.15
1
88
0
LINE
8
fz
62
7
10
-1.640625
20
1.640625
30
1.824538
11
-1.640625
21
1.640625
31
5.706538
0
POINT
8
INTERNAL_NODES
10
-1.757812
20
1.757812
30
0.922735
0
TEXT
8
ID-NODES
10
-1.757812
20
1.757812
30
0.922735
40
0.15
1
89
0
LINE
8
fz
62
7
10
-1.757812
20
1.757812
30
1.591361
11
-1.757812
21
1.757812
31
3.925361
0
POINT
8
INTERNAL_NODES
10
-1.640625
20
-1.875
30
0.90773
0
TEXT
8
ID-NODES
10
-1.640625
20
-1.875
30
0.90773
40
0.15
1
90
0
LINE
8
fz
62
7
10
-1.640625
20
-1.875
30
1.582708
11
-1.640625
21
-1.875
31
2.7487079999999997
0
POINT
8
INTERNAL_NODES
10
1.640625
20
-1.875
30
0.90773
0
TEXT
8
ID-NODES
10
1.640625
20
-1.875
30
0.90773
40
0.15
1
91
0
LINE
8
fz
62
7
10
1.640625
20
-1.875
30
1.582708
11
1.640625
21
-1.875
31
2.7487079999999997
0
POINT
8
INTERNAL_NODES
10
-1.640625
20
1.875
30
0.90773
0
TEXT
8
ID-NODES
10
-1.640625
20
1.875
30
0.90773
40
0.15
1
92
0
LINE
8
fz
62
7
10
-1.640625
20
1.875
30
1.582708
11
-1.640625
21
1.875
31
2.7487079999999997
0
POINT
8
INTERNAL_NODES
10
1.640625
20
1.875
30
0.90773
0
TEXT
8
ID-NODES
10
1.640625
20
1.875
30
0.90773
40
0.15
1
93
0
LINE
8
fz
62
7
10
1.640625
20
1.875
30
1.582708
11
1.640625
21
1.875
31
2.7487079999999997
0
POINT
8
INTERNAL_NODES
10
-1.875
20
-1.640625
30
0.90773
0
TEXT
8
ID-NODES
10
-1.875
20
-1.640625
30
0.90773
40
0.15
1
94
0
LINE
8
fz
62
7
10
-1.875
20
-1.640625
30
1.582708
11
-1.875
21
-1.640625
31
2.7487079999999997
0
POINT
8
INTERNAL_NODES
10
-1.875
20
1.640625
30
0.90773
0
TEXT
8
ID-NODES
10
-1.875
20
1.640625
30
0.90773
40
0.15
1
95
0
LINE
8
fz
62
7
10
-1.875
20
1.640625
30
1.582708
11
-1.875
21
1.640625
31
2.7487079999999997
0
POINT
8
INTERNAL_NODES
10
1.875
20
-1.640625
30
0.90773
0
TEXT
8
ID-NODES
10
1.875
20
-1.640625
30
0.90773
40
0.15
1
96
0
LINE
8
fz
62
7
10
1.875
20
-1.640625
30
1.582708
11
1.875
21
-1.640625
31
2.7487079999999997
0
POINT
8
INTERNAL_NODES
10
1.875
20
1.640625
30
0.90773
0
TEXT
8
ID-NODES
10
1.875
20
1.640625
30
0.90773
40
0.15
1
97
0
LINE
8
fz
62
7
10
1.875
20
1.640625
30
1.582708
11
1.875
21
1.640625
31
2.7487079999999997
0
POINT
8
EXTERNAL_NODES
10
-1.640625
20
-2.299264
30
-4.09227
0
TEXT
8
ID-NODES
10
-1.640625
20
-2.299264
30
-4.09227
40
0.15
1
98
0
LINE
8
fz
62
7
10
-1.640625
20
-2.299264
30
1.469466
11
-1.640625
21
-2.299264
31
1.469466
0
POINT
8
EXTERNAL_NODES
10
-1.40625
20
-2.299264
30
-3.759804
0
TEXT
8
ID-NODES
10
-1.40625
20
-2.299264
30
-3.759804
40
0.15
1
99
0
LINE
8
fz
62
7
10
-1.40625
20
-2.299264
30
1.69148
11
-1.40625
21
-2.299264
31
1.69148
0
POINT
8
EXTERNAL_NODES
10
-0.9375
20
-2.299264
30
-3.376202
0
TEXT
8
ID-NODES
10
-0.9375
20
-2.299264
30
-3.376202
40
0.15
1
100
0
LINE
8
fz
62
7
10
-0.9375
20
-2.299264
30
1.986838
11
-0.9375
21
-2.299264
31
1.986838
0
POINT
8
EXTERNAL_NODES
10
-0.46875
20
-2.299264
30
-3.184539
0
TEXT
8
ID-NODES
10
-0.46875
20
-2.299264
30
-3.184539
40
0.15
1
101
0
LINE
8
fz
62
7
10
-0.46875
20
-2.299264
30
2.145137
11
-0.46875
21
-2.299264
31
2.145137
0
POINT
8
EXTERNAL_NODES
10
0.0
20
-2.299264
30
-3.125
0
TEXT
8
ID-NODES
10
0.0
20
-2.299264
30
-3.125
40
0.15
1
102
0
LINE
8
fz
62
7
10
0.0
20
-2.299264
30
2.195425
11
0.0
21
-2.299264
31
2.195425
0
POINT
8
EXTERNAL_NODES
10
0.46875
20
-2.299264
30
-3.184539
0
TEXT
8
ID-NODES
10
0.46875
20
-2.299264
30
-3.184539
40
0.15
1
103
0
LINE
8
fz
62
7
10
0.46875
20
-2.299264
30
2.145137
11
0.46875
21
-2.299264
31
2.145137
0
POINT
8
EXTERNAL_NODES
10
0.9375
20
-2.299264
30
-3.376202
0
TEXT
8
ID-NODES
10
0.9375
20
-2.299264
30
-3.376202
40
0.15
1
104
0
LINE
8
fz
62
7
10
0.9375
20
-2.299264
30
1.986838
11
0.9375
21
-2.299264
31
1.986838
0
POINT
8
EXTERNAL_NODES
10
1.40625
20
-2.299264
30
-3.759804
0
TEXT
8
ID-NODES
10
1.40625
20
-2.299264
30
-3.759804
40
0.15
1
105
0
LINE
8
fz
62
7
10
1.40625
20
-2.299264
30
1.69148
11
1.40625
21
-2.299264
31
1.69148
0
POINT
8
EXTERNAL_NODES
10
1.640625
20
-2.299264
30
-4.09227
0
TEXT
8
ID-NODES
10
1.640625
20
-2.299264
30
-4.09227
40
0.15
1
106
0
LINE
8
fz
62
7
10
1.640625
20
-2.299264
30
1.469466
11
1.640625
21
-2.299264
31
1.469466
0
POINT
8
EXTERNAL_NODES
10
-1.640625
20
2.299264
30
-4.09227
0
TEXT
8
ID-NODES
10
-1.640625
20
2.299264
30
-4.09227
40
0.15
1
107
0
LINE
8
fz
62
7
10
-1.640625
20
2.299264
30
1.469466
11
-1.640625
21
2.299264
31
1.469466
0
POINT
8
EXTERNAL_NODES
10
-1.40625
20
2.299264
30
-3.759804
0
TEXT
8
ID-NODES
10
-1.40625
20
2.299264
30
-3.759804
40
0.15
1
108
0
LINE
8
fz
62
7
10
-1.40625
20
2.299264
30
1.69148
11
-1.40625
21
2.299264
31
1.69148
0
POINT
8
EXTERNAL_NODES
10
-0.9375
20
2.299264
30
-3.376202
0
TEXT
8
ID-NODES
10
-0.9375
20
2.299264
30
-3.376202
40
0.15
1
109
0
LINE
8
fz
62
7
10
-0.9375
20
2.299264
30
1.986838
11
-0.9375
21
2.299264
31
1.986838
0
POINT
8
EXTERNAL_NODES
10
-0.46875
20
2.299264
30
-3.184539
0
TEXT
8
ID-NODES
10
-0.46875
20
2.299264
30
-3.184539
40
0.15
1
110
0
LINE
8
fz
62
7
10
-0.46875
20
2.299264
30
2.145137
11
-0.46875
21
2.299264
31
2.145137
0
POINT
8
EXTERNAL_NODES
10
0.0
20
2.299264
30
-3.125
0
TEXT
8
ID-NODES
10
0.0
20
2.299264
30
-3.125
40
0.15
1
111
0
LINE
8
fz
62
7
10
0.0
20
2.299264
30
2.195425
11
0.0
21
2.299264
31
2.195425
0
POINT
8
EXTERNAL_NODES
10
0.46875
20
2.299264
30
-3.184539
0
TEXT
8
ID-NODES
10
0.46875
20
2.299264
30
-3.184539
40
0.15
1
112
0
LINE
8
fz
62
7
10
0.46875
20
2.299264
30
2.145137
11
0.46875
21
2.299264
31
2.145137
0
POINT
8
EXTERNAL_NODES
10
0.9375
20
2.299264
30
-3.376202
0
TEXT
8
ID-NODES
10
0.9375
20
2.299264
30
-3.376202
40
0.15
1
113
0
LINE
8
fz
62
7
10
0.9375
20
2.299264
30
1.986838
11
0.9375
21
2.299264
31
1.986838
0
POINT
8
EXTERNAL_NODES
10
1.40625
20
2.299264
30
-3.759804
0
TEXT
8
ID-NODES
10
1.40625
20
2.299264
30
-3.759804
40
0.15
1
114
0
LINE
8
fz
62
7
10
1.40625
20
2.299264
30
1.69148
11
1.40625
21
2.299264
31
1.69148
0
POINT
8
EXTERNAL_NODES
10
1.640625
20
2.299264
30
-4.09227
0
TEXT
8
ID-NODES
10
1.640625
20
2.299264
30
-4.09227
40
0.15
1
115
0
LINE
8
fz
62
7
10
1.640625
20
2.299264
30
1.469466
11
1.640625
21
2.299264
31
1.469466
0
POINT
8
EXTERNAL_NODES
10
-2.299264
20
-1.640625
30
-4.09227
0
TEXT
8
ID-NODES
10
-2.299264
20
-1.640625
30
-4.09227
40
0.15
1
116
0
LINE
8
fz
62
7
10
-2.299264
20
-1.640625
30
1.469466
11
-2.299264
21
-1.640625
31
1.469466
0
POINT
8
EXTERNAL_NODES
10
-2.299264
20
-1.40625
30
-3.759804
0
TEXT
8
ID-NODES
10
-2.299264
20
-1.40625
30
-3.759804
40
0.15
1
117
0
LINE
8
fz
62
7
10
-2.299264
20
-1.40625
30
1.69148
11
-2.299264
21
-1.40625
31
1.69148
0
POINT
8
EXTERNAL_NODES
10
-2.299264
20
-0.9375
30
-3.376202
0
TEXT
8
ID-NODES
10
-2.299264
20
-0.9375
30
-3.376202
40
0.15
1
118
0
LINE
8
fz
62
7
10
-2.299264
20
-0.9375
30
1.986838
11
-2.299264
21
-0.9375
31
1.986838
0
POINT
8
EXTERNAL_NODES
10
-2.299264
20
-0.46875
30
-3.184539
0
TEXT
8
ID-NODES
10
-2.299264
20
-0.46875
30
-3.184539
40
0.15
1
119
0
LINE
8
fz
62
7
10
-2.299264
20
-0.46875
30
2.145137
11
-2.299264
21
-0.46875
31
2.145137
0
POINT
8
EXTERNAL_NODES
10
-2.299264
20
0.0
30
-3.125
0
TEXT
8
ID-NODES
10
-2.299264
20
0.0
30
-3.125
40
0.15
1
120
0
LINE
8
fz
62
7
10
-2.299264
20
0.0
30
2.195425
11
-2.299264
21
0.0
31
2.195425
0
POINT
8
EXTERNAL_NODES
10
-2.299264
20
0.46875
30
-3.184539
0
TEXT
8
ID-NODES
10
-2.299264
20
0.46875
30
-3.184539
40
0.15
1
121
0
LINE
8
fz
62
7
10
-2.299264
20
0.46875
30
2.145137
11
-2.299264
21
0.46875
31
2.145137
0
POINT
8
EXTERNAL_NODES
10
-2.299264
20
0.9375
30
-3.376202
0
TEXT
8
ID-NODES
10
-2.299264
20
0.9375
30
-3.376202
40
0.15
1
122
0
LINE
8
fz
62
7
10
-2.299264
20
0.9375
30
1.986838
11
-2.299264
21
0.9375
31
1.986838
0
POINT
8
EXTERNAL_NODES
10
-2.299264
20
1.40625
30
-3.759804
0
TEXT
8
ID-NODES
10
-2.299264
20
1.40625
30
-3.759804
40
0.15
1
123
0
LINE
8
fz
62
7
10
-2.299264
20
1.40625
30
1.69148
11
-2.299264
21
1.40625
31
1.69148
0
POINT
8
EXTERNAL_NODES
10
-2.299264
20
1.640625
30
-4.09227
0
TEXT
8
ID-NODES
10
-2.299264
20
1.640625
30
-4.09227
40
0.15
1
124
0
LINE
8
fz
62
7
10
-2.299264
20
1.640625
30
1.469466
11
-2.299264
21
1.640625
31
1.469466
0
POINT
8
EXTERNAL_NODES
10
2.299264
20
-1.640625
30
-4.09227
0
TEXT
8
ID-NODES
10
2.299264
20
-1.640625
30
-4.09227
40
0.15
1
125
0
LINE
8
fz
62
7
10
2.299264
20
-1.640625
30
1.469466
11
2.299264
21
-1.640625
31
1.469466
0
POINT
8
EXTERNAL_NODES
10
2.299264
20
-1.40625
30
-3.759804
0
TEXT
8
ID-NODES
10
2.299264
20
-1.40625
30
-3.759804
40
0.15
1
126
0
LINE
8
fz
62
7
10
2.299264
20
-1.40625
30
1.69148
11
2.299264
21
-1.40625
31
1.69148
0
POINT
8
EXTERNAL_NODES
10
2.299264
20
-0.9375
30
-3.376202
0
TEXT
8
ID-NODES
10
2.299264
20
-0.9375
30
-3.376202
40
0.15
1
127
0
LINE
8
fz
62
7
10
2.299264
20
-0.9375
30
1.986838
11
2.299264
21
-0.9375
31
1.986838
0
POINT
8
EXTERNAL_NODES
10
2.299264
20
-0.46875
30
-3.184539
0
TEXT
8
ID-NODES
10
2.299264
20
-0.46875
30
-3.184539
40
0.15
1
128
0
LINE
8
fz
62
7
10
2.299264
20
-0.46875
30
2.145137
11
2.299264
21
-0.46875
31
2.145137
0
POINT
8
EXTERNAL_NODES
10
2.299264
20
0.0
30
-3.125
0
TEXT
8
ID-NODES
10
2.299264
20
0.0
30
-3.125
40
0.15
1
129
0
LINE
8
fz
62
7
10
2.299264
20
0.0
30
2.195425
11
2.299264
21
0.0
31
2.195425
0
POINT
8
EXTERNAL_NODES
10
2.299264
20
0.46875
30
-3.184539
0
TEXT
8
ID-NODES
10
2.299264
20
0.46875
30
-3.184539
40
0.15
1
130
0
LINE
8
fz
62
7
10
2.299264
20
0.46875
30
2.145137
11
2.299264
21
0.46875
31
2.145137
0
POINT
8
EXTERNAL_NODES
10
2.299264
20
0.9375
30
-3.376202
0
TEXT
8
ID-NODES
10
2.299264
20
0.9375
30
-3.376202
40
0.15
1
131
0
LINE
8
fz
62
7
10
2.299264
20
0.9375
30
1.986838
11
2.299264
21
0.9375
31
1.986838
0
POINT
8
EXTERNAL_NODES
10
2.299264
20
1.40625
30
-3.759804
0
TEXT
8
ID-NODES
10
2.299264
20
1.40625
30
-3.759804
40
0.15
1
132
0
LINE
8
fz
62
7
10
2.299264
20
1.40625
30
1.69148
11
2.299264
21
1.40625
31
1.69148
0
POINT
8
EXTERNAL_NODES
10
2.299264
20
1.640625
30
-4.09227
0
TEXT
8
ID-NODES
10
2.299264
20
1.640625
30
-4.09227
40
0.15
1
133
0
LINE
8
fz
62
7
10
2.299264
20
1.640625
30
1.469466
11
2.299264
21
1.640625
31
1.469466
0
POINT
8
EXTERNAL_NODES
10
-2.299264
20
-2.299264
30
-5.0
0
TEXT
8
ID-NODES
10
-2.299264
20
-2.299264
30
-5.0
40
0.15
1
134
0
LINE
8
fz
62
7
10
-2.299264
20
-2.299264
30
0.989901
11
-2.299264
21
-2.299264
31
0.989901
0
POINT
8
EXTERNAL_NODES
10
2.299264
20
-2.299264
30
-5.0
0
TEXT
8
ID-NODES
10
2.299264
20
-2.299264
30
-5.0
40
0.15
1
135
0
LINE
8
fz
62
7
10
2.299264
20
-2.299264
30
0.989901
11
2.299264
21
-2.299264
31
0.989901
0
POINT
8
EXTERNAL_NODES
10
-2.299264
20
2.299264
30
-5.0
0
TEXT
8
ID-NODES
10
-2.299264
20
2.299264
30
-5.0
40
0.15
1
136
0
LINE
8
fz
62
7
10
-2.299264
20
2.299264
30
0.989901
11
-2.299264
21
2.299264
31
0.989901
0
POINT
8
EXTERNAL_NODES
10
2.299264
20
2.299264
30
-5.0
0
TEXT
8
ID-NODES
10
2.299264
20
2.299264
30
-5.0
40
0.15
1
137
0
LINE
8
fz
62
7
10
2.299264
20
2.299264
30
0.989901
11
2.299264
21
2.299264
31
0.989901
0
ENDSEC
0
EOF
